<?xml version="1.0" encoding="utf-8"?>
<!-- Generator: Adobe Illustrator 25.4.1, SVG Export Plug-In . SVG Version: 6.00 Build 0)  -->
<svg version="1.1" id="레이어_1" xmlns="http://www.w3.org/2000/svg" xmlns:xlink="http://www.w3.org/1999/xlink" x="0px"
	 y="0px" viewBox="0 0 16.57 17.28" style="enable-background:new 0 0 16.57 17.28;" xml:space="preserve">
<style type="text/css">
	.st0{fill:#1E1E28;}
</style>
<path class="st0" d="M16.41,7.2c-2.44-2.35-5.03-4.53-7.31-7.05c-0.21-0.23-0.55-0.18-0.77,0C6.85,1.36,5.59,2.79,4.28,4.18
	c-1.32,1.4-2.73,2.71-4.12,4.04C-0.34,8.7,0.43,9.46,0.93,8.98c0.62-0.6,1.25-1.19,1.87-1.79C2.83,8.8,2.77,10.4,2.76,12
	c-0.01,1.08-0.06,2.17-0.01,3.25c0.02,0.5-0.03,1.21,0.34,1.61c0.34,0.37,0.9,0.36,1.37,0.38c1.08,0.05,2.16,0.06,3.25,0.04
	c2.16-0.04,4.32-0.17,6.47-0.17c0.3,0,0.53-0.25,0.54-0.54c0.03-1.61-0.11-3.2-0.14-4.8c-0.03-1.58,0.04-3.15,0.07-4.73
	c0.33,0.31,0.67,0.62,1,0.94C16.14,8.45,16.91,7.69,16.41,7.2z M7.17,10.05c0,0,0.03,0,0.05,0C7.2,10.07,7.18,10.07,7.17,10.05z
	 M7.27,16.18c0.01-1.64-0.05-3.29,0-4.93c0.01-0.4,0.01-0.8,0.06-1.2c0,0,0-0.01,0-0.01C7.46,10.02,7.62,10,7.61,10
	C8.1,9.96,8.6,9.97,9.09,9.92c0.37-0.03,0.74-0.06,1.11-0.07c0,2.09-0.03,4.18,0,6.26c-0.63,0.02-1.26,0.05-1.89,0.06
	C7.96,16.18,7.62,16.18,7.27,16.18z M13.49,11.76c0.03,1.43,0.14,2.85,0.14,4.27c-0.78,0.01-1.57,0.02-2.35,0.05
	c-0.04-2.26,0-4.52,0-6.78c0-0.3-0.25-0.53-0.54-0.54c-0.6-0.02-1.19,0.05-1.79,0.1C8.39,8.9,7.83,8.88,7.27,8.95
	c-0.35,0.04-0.69,0.1-0.88,0.43c-0.2,0.35-0.16,0.83-0.18,1.22c-0.09,1.86-0.01,3.72-0.02,5.59c-0.25,0-0.5,0.01-0.75,0
	c-0.41-0.01-0.83-0.02-1.24-0.05c-0.1-0.01-0.22,0-0.32-0.03c0,0,0,0-0.01,0c-0.01-0.05-0.02-0.4-0.03-0.5
	c-0.03-0.47-0.03-0.95-0.03-1.42c0.01-0.88,0.02-1.77,0.03-2.65c0.03-1.79,0.09-3.59,0.01-5.38c0.4-0.4,0.8-0.79,1.19-1.2
	c1.18-1.25,2.33-2.54,3.63-3.66c1.55,1.67,3.22,3.2,4.89,4.74C13.57,7.94,13.45,9.85,13.49,11.76z"/>
</svg>
