<?xml version="1.0" encoding="utf-8"?>
<!-- Generator: Adobe Illustrator 26.0.1, SVG Export Plug-In . SVG Version: 6.00 Build 0)  -->
<svg version="1.1" id="레이어_1" xmlns="http://www.w3.org/2000/svg" xmlns:xlink="http://www.w3.org/1999/xlink" x="0px"
	 y="0px" viewBox="0 0 37.95 32.69" style="enable-background:new 0 0 37.95 32.69;" xml:space="preserve">
<style type="text/css">
	.st0{fill:#FFDCE6;}
	.st1{fill:#282828;}
	.st2{fill:#FFA0AA;}
	.st3{fill:#FFFFFF;}
</style>
<path class="st0" d="M7.53,12.33c-0.13-0.17-0.28-0.32-0.46-0.44c-0.19-0.12-0.41-0.19-0.63-0.2c-0.47-0.03-0.88,0.24-1.12,0.64
	c-0.17,0.27-0.26,0.59-0.36,0.89c-0.08,0.26-0.16,0.52-0.25,0.78c-0.16,0.52-0.33,1.04-0.49,1.56c-0.32,1.04-0.64,2.09-0.95,3.13
	c-0.56,1.92-1.09,3.85-1.54,5.8c-0.47,2-0.86,4.01-1.16,6.04c-0.1,0.68,0.17,1.35,0.89,1.56c0.6,0.17,1.46-0.21,1.56-0.89
	c0.37-2.48,0.93-4.94,1.5-7.39c1.48,0.14,2.96,0.19,4.45,0.16c0.65,2.23,1.32,4.45,1.82,6.72c0.35,1.59,2.79,0.92,2.44-0.67
	c-0.17-0.8-0.36-1.6-0.57-2.4c-0.5-1.96-1.09-3.9-1.73-5.82C10.29,19.9,9.62,18,8.95,16.1c-0.2-0.56-0.39-1.11-0.58-1.67
	c-0.14-0.41-0.26-0.83-0.4-1.23C7.86,12.89,7.72,12.59,7.53,12.33z M5.04,21.31c0.19-0.53,0.45-1.42,0.48-1.52
	c0.16-0.56,0.22-0.78,0.33-1.16c0.18-0.61,0.33-0.99,0.51-1.6c0.03-0.09,0.07-0.26,0.18-0.28c0.22-0.04,0.28,0.29,0.33,0.45
	c0.1,0.29,0.2,0.58,0.31,0.86c0.2,0.57,0.25,0.83,0.52,1.63c0.13,0.4,0.28,1.01,0.5,1.73C7.12,21.43,6.12,21.4,5.04,21.31z"/>
<path class="st1" d="M1.76,32.69c-0.15,0-0.31-0.02-0.45-0.06c-0.92-0.26-1.43-1.13-1.28-2.16c0.29-1.98,0.69-4.02,1.17-6.08
	c0.42-1.79,0.92-3.69,1.55-5.83c0.31-1.05,0.63-2.1,0.95-3.14l0.73-2.34c0.12-0.36,0.23-0.7,0.42-1.01c0.36-0.6,0.91-0.93,1.62-0.9
	c0.31,0.02,0.62,0.11,0.89,0.28c0.23,0.15,0.44,0.34,0.62,0.57l0,0.01c0.2,0.27,0.36,0.59,0.51,1c0.08,0.23,0.16,0.47,0.23,0.71
	l0.17,0.53c0.12,0.36,0.25,0.72,0.38,1.08l0.45,1.29c0.58,1.67,1.17,3.34,1.72,5.02c0.71,2.13,1.28,4.05,1.74,5.86
	c0.21,0.8,0.4,1.61,0.58,2.41c0.25,1.17-0.56,2.01-1.46,2.2c-0.45,0.1-0.88,0.04-1.24-0.16c-0.41-0.23-0.7-0.63-0.81-1.13
	c-0.44-2.01-1.03-4.03-1.6-5.98l-0.09-0.31c-1.19,0.02-2.42-0.02-3.62-0.12c-0.52,2.25-1.04,4.57-1.38,6.88
	c-0.07,0.43-0.32,0.81-0.73,1.07C2.5,32.58,2.12,32.69,1.76,32.69z M6.38,12.24c-0.24,0-0.46,0.14-0.6,0.38
	c-0.12,0.2-0.2,0.45-0.29,0.72l-0.75,2.39c-0.32,1.04-0.64,2.08-0.95,3.13c-0.62,2.11-1.12,4-1.53,5.77
	c-0.47,2.03-0.86,4.05-1.15,5.99c-0.03,0.18-0.07,0.79,0.5,0.95c0.18,0.05,0.44-0.01,0.63-0.12c0.08-0.05,0.22-0.16,0.24-0.32
	c0.37-2.52,0.95-5.02,1.51-7.43l0.11-0.47l0.48,0.05c1.44,0.14,2.92,0.18,4.38,0.15l0.42-0.01l0.33,1.12c0.58,1.97,1.17,4,1.61,6.05
	c0.04,0.2,0.13,0.33,0.27,0.41c0.13,0.07,0.3,0.09,0.48,0.05c0.27-0.06,0.75-0.32,0.62-0.9c-0.18-0.8-0.36-1.59-0.56-2.38
	c-0.46-1.79-1.02-3.68-1.72-5.79c-0.55-1.67-1.14-3.33-1.72-4.99L8.23,15.7c-0.13-0.36-0.26-0.73-0.38-1.09l-0.18-0.55
	c-0.07-0.23-0.14-0.45-0.22-0.67c-0.11-0.31-0.23-0.54-0.36-0.72c-0.1-0.13-0.2-0.23-0.32-0.3C6.66,12.28,6.52,12.26,6.38,12.24z
	 M7.98,21.97c-1.05,0-2.01-0.04-2.98-0.12l-0.7-0.06l0.23-0.67c0.18-0.51,0.44-1.39,0.47-1.49l0.33-1.17
	c0.09-0.3,0.17-0.54,0.25-0.78c0.08-0.25,0.17-0.5,0.26-0.81c0.05-0.17,0.18-0.58,0.61-0.66c0.29-0.08,0.71,0.03,0.93,0.75
	l0.32,0.92c0.11,0.31,0.18,0.53,0.25,0.79c0.07,0.22,0.14,0.48,0.27,0.86c0.07,0.22,0.15,0.49,0.24,0.81
	c0.07,0.28,0.16,0.59,0.26,0.93l0.21,0.7L8.2,21.97C8.12,21.97,8.05,21.97,7.98,21.97z M5.78,20.81c0.55,0.03,1.11,0.06,1.7,0.06
	c-0.02-0.09-0.05-0.17-0.07-0.25c-0.08-0.3-0.15-0.55-0.22-0.75c-0.13-0.4-0.21-0.66-0.28-0.9c-0.07-0.24-0.13-0.44-0.24-0.73
	L6.6,18.06c-0.07,0.22-0.15,0.45-0.23,0.72l-0.33,1.16C6.03,20.01,5.91,20.4,5.78,20.81z"/>
<path class="st0" d="M25.47,27.36c-2.05-0.05-4.07,0.42-6.11,0.56c-0.02-5.3-0.05-10.61-0.07-15.92c-0.01-1.63-2.54-1.63-2.54,0
	c0.03,5.75,0.05,11.49,0.08,17.24c0,0.7,0.58,1.25,1.27,1.27c2.47,0.06,4.89-0.67,7.37-0.61C27.1,29.93,27.1,27.39,25.47,27.36z"/>
<path class="st1" d="M18.38,31.05c-0.1,0-0.2,0-0.3,0c-0.99-0.02-1.79-0.83-1.8-1.81L16.2,12c-0.01-1.16,0.9-1.77,1.8-1.77
	c0,0,0.01,0,0.01,0c0.9,0,1.81,0.6,1.82,1.77l0.07,15.33c0.59-0.06,1.18-0.13,1.77-0.21c1.23-0.16,2.48-0.33,3.8-0.3
	c1.17,0.03,1.78,0.99,1.76,1.89c-0.02,0.87-0.62,1.74-1.73,1.74c-0.09,0-0.21,0-0.32,0c-1.1,0-2.18,0.15-3.32,0.3
	C20.73,30.89,19.56,31.05,18.38,31.05z M18.01,11.32C18.01,11.32,18.01,11.32,18.01,11.32c-0.12,0-0.71,0.04-0.71,0.68l0.08,17.24
	c0,0.39,0.33,0.71,0.73,0.72c1.2,0.05,2.37-0.13,3.61-0.3c1.22-0.17,2.48-0.36,3.76-0.31c0.01,0,0.01,0,0.02,0
	c0.25,0,0.42-0.09,0.54-0.27c0.14-0.24,0.15-0.58,0.01-0.83c-0.12-0.22-0.32-0.33-0.59-0.34l0,0c-1.23-0.05-2.44,0.13-3.64,0.29
	c-0.81,0.11-1.61,0.21-2.42,0.26l-0.58,0.04L18.74,12C18.73,11.34,18.09,11.32,18.01,11.32z"/>
<path class="st0" d="M36.18,27.68c-1.53-0.07-3.06,0.08-4.6,0.13c-0.1-5.55-0.19-11.1-0.29-16.65c-0.03-1.63-2.56-1.63-2.54,0
	c0.1,5.98,0.21,11.97,0.31,17.95c0.01,0.71,0.57,1.23,1.27,1.27c1.95,0.09,3.89-0.26,5.84-0.16C37.81,30.29,37.81,27.76,36.18,27.68
	z"/>
<path class="st1" d="M31.04,30.94c-0.24,0-0.48-0.01-0.72-0.02c-1-0.05-1.77-0.83-1.79-1.8l-0.31-17.95
	c-0.01-0.65,0.28-1.2,0.81-1.52c0.58-0.35,1.33-0.35,1.93-0.02c0.55,0.31,0.88,0.86,0.89,1.52l0.28,16.09
	c0.32-0.01,0.64-0.03,0.96-0.05c1.02-0.05,2.07-0.11,3.13-0.06l0,0c0.67,0.03,1.23,0.38,1.52,0.96c0.31,0.61,0.29,1.37-0.07,1.93
	c-0.32,0.5-0.89,0.74-1.51,0.74c-0.95-0.06-1.92,0.02-2.86,0.08C32.56,30.89,31.8,30.94,31.04,30.94z M30.01,10.48
	c-0.15,0-0.3,0.04-0.42,0.11c-0.19,0.11-0.28,0.3-0.28,0.56l0.31,17.95c0.01,0.4,0.32,0.71,0.75,0.73c0.93,0.05,1.92-0.02,2.86-0.08
	c0.97-0.06,1.97-0.14,2.98-0.08c0.25,0.04,0.42-0.07,0.54-0.24c0.15-0.23,0.15-0.57,0.02-0.83c-0.12-0.23-0.32-0.36-0.61-0.37l0,0
	c-1-0.05-2.03,0-3.02,0.06c-0.51,0.03-1.02,0.05-1.53,0.07l-0.55,0.01l-0.3-17.2c0-0.27-0.11-0.47-0.32-0.59
	C30.3,10.51,30.15,10.48,30.01,10.48z"/>
<g>
	<path class="st2" d="M8.66,8.95c-1.2,0.48-2.71,1.51-3.2,2.34c-0.34,0.58-0.26,1.48,0.14,2.02c0.19,0.26,0.5,0.45,0.78,0.6
		c0.3,0.15,0.55,0.27,0.89,0.27c0.85-0.02,1.46-0.49,2.15-0.97c0.66-0.46,1.27-1.05,1.79-1.88c-0.35,0.93-0.2,1.43-0.14,2.51
		c0.01,0.14,0.03,0.29,0.05,0.43c0.06,0.33,0.16,0.65,0.33,0.95c0.08,0.14,0.18,0.28,0.29,0.41c0.17,0.2,0.37,0.37,0.6,0.49
		c0.68,0.36,1.4,0.15,1.83-0.45c0.35-0.49,0.71-1.09,0.79-1.69c0.15-1.11-0.07-1.79-0.56-2.97c0.46,0.59,1.07,1.27,1.69,1.69
		c0.56,0.37,0.96,0.57,1.69,0.67s1.2-0.19,1.53-0.85c0.27-0.56,0.14-1.24-0.12-1.8c-0.65-1.39-2.45-2.62-3.87-2.73
		c1.03-0.23,2.62-1.33,3.09-2.6c0.29-0.79,0.23-1.59-0.28-2.27c-0.62-0.83-1.74-0.76-2.7-0.1c-0.81,0.56-1.56,1.35-2.31,2.43
		c0.03-0.25-0.02-0.71-0.03-0.9C13,3.73,13.01,3.28,12.72,2.5c-0.11-0.29-0.25-0.58-0.42-0.84c-0.11-0.18-0.25-0.34-0.39-0.49
		c-0.17-0.18-0.38-0.33-0.59-0.45c-0.28-0.16-0.6-0.22-0.91-0.16C10.15,0.61,9.9,0.74,9.69,0.9C9.5,1.05,9.34,1.23,9.2,1.42
		C8.74,2.1,8.67,2.83,8.79,3.6c0.14,0.81,0.3,1.55,0.79,2.44C8.74,5.47,8.19,5.12,7.5,4.96C6.71,4.78,5.95,4.68,5.26,4.83
		C4.82,4.92,4.1,5.12,3.94,5.81C3.83,6.29,3.98,6.8,4.27,7.2s1.03,0.99,1.47,1.22C6.49,8.8,7.19,9.14,8.66,8.95z"/>
</g>
<g>
	<g>
		<path class="st1" d="M8.39,8.49c-1.15,0.49-2.36,1.21-3.15,2.19c-0.71,0.88-0.72,2.25,0.06,3.11c2.09,2.29,5.13-0.28,6.37-2.19
			c-0.33-0.14-0.66-0.28-0.99-0.42c-0.62,1.82-0.21,5.81,2.46,5.64c1.13-0.07,1.86-1.23,2.2-2.2c0.45-1.28,0.07-2.57-0.43-3.77
			c-0.3,0.18-0.6,0.35-0.9,0.53c0.87,1.09,1.94,2.18,3.36,2.45c1.13,0.22,2.19-0.22,2.53-1.4c0.74-2.53-2.46-4.76-4.6-5
			c0.05,0.35,0.1,0.71,0.14,1.06c2.17-0.56,4.65-3.13,3.27-5.45c-1.72-2.91-4.95,0.53-6.08,2.12c0.34,0.09,0.67,0.18,1.01,0.27
			c0.07-1.11-0.09-2.41-0.54-3.43c-0.46-1.04-1.44-2.15-2.69-1.99C9.28,0.16,8.45,1.27,8.26,2.33C8.01,3.66,8.51,5.15,9.12,6.32
			c0.25-0.25,0.49-0.49,0.74-0.74C8.62,4.74,7.33,4.15,5.79,4.22C4.7,4.27,3.47,4.73,3.38,5.98C3.28,7.22,4.28,8.15,5.25,8.75
			C6.31,9.41,7.43,9.63,8.66,9.5c0.69-0.07,0.69-1.16,0-1.08C7.83,8.5,7.07,8.46,6.31,8.1C5.66,7.78,4.8,7.26,4.54,6.55
			c-0.47-1.27,1.2-1.31,2.01-1.21c1.07,0.13,1.88,0.58,2.76,1.17c0.48,0.32,0.97-0.29,0.74-0.74C9.63,4.96,9.31,4.02,9.28,3.09
			c-0.03-0.86,0.65-2.44,1.77-1.91c1.39,0.65,1.6,2.92,1.51,4.26c-0.04,0.58,0.73,0.67,1.01,0.27c0.67-0.94,3.48-4.28,4.36-1.82
			c0.58,1.64-1.38,3.2-2.77,3.56c-0.63,0.16-0.43,1,0.14,1.06c1.48,0.17,3.67,1.64,3.6,3.32c-0.04,1.15-1.18,1.1-1.97,0.73
			c-0.89-0.42-1.56-1.2-2.17-1.95c-0.33-0.41-1.11,0.03-0.9,0.53c0.29,0.72,0.6,1.44,0.59,2.23c-0.01,0.73-0.42,2.15-1.26,2.35
			c-1.01,0.24-1.51-1.14-1.59-1.89c-0.08-0.81-0.14-1.59,0.12-2.37c0.21-0.6-0.67-0.91-0.99-0.42c-0.78,1.21-3.31,3.76-4.68,1.94
			C4.83,11.37,7.81,9.9,8.94,9.42C9.58,9.15,9.02,8.22,8.39,8.49z"/>
	</g>
</g>
<g>
	<path class="st3" d="M12.32,6.93c0.14,0.04,0.28,0.1,0.41,0.17c0.14,0.08,0.27,0.18,0.38,0.3c0.13,0.13,0.24,0.27,0.33,0.43
		c0.26,0.44,0.4,0.99,0.13,1.47c-0.45,0.81-1.51,0.73-2.2,0.28c-0.52-0.34-0.86-0.99-0.77-1.62C10.72,7.15,11.59,6.73,12.32,6.93z"
		/>
</g>
<g>
	<g>
		<path class="st1" d="M12.18,7.46c0.05,0.01,0.1,0.03,0.14,0.05c-0.02-0.01-0.09-0.04,0.01,0c0.07,0.04,0.14,0.07,0.21,0.12
			c0,0,0.12,0.09,0.06,0.04c-0.06-0.05,0.06,0.05,0.06,0.05c0.07,0.06,0.12,0.13,0.18,0.19c0.06,0.06-0.07-0.1,0.02,0.03
			c0.02,0.03,0.04,0.05,0.05,0.08c0.04,0.07,0.09,0.14,0.12,0.21c0,0.01,0.07,0.16,0.03,0.05c0.01,0.03,0.02,0.06,0.03,0.09
			c0.01,0.04,0.03,0.08,0.04,0.12c0.01,0.02,0.04,0.2,0.02,0.07c0.01,0.08,0.01,0.16,0.01,0.24c0,0.03-0.03,0.09,0,0
			c-0.01,0.04-0.02,0.08-0.03,0.12c-0.01,0.03-0.06,0.12-0.01,0.04C13.11,9,13.1,9.03,13.08,9.06c-0.02,0.03-0.04,0.08-0.07,0.1
			c0.01-0.02,0.02-0.03,0.04-0.05C13.04,9.13,13.02,9.14,13,9.16c-0.02,0.02-0.04,0.04-0.07,0.06c-0.08,0.08,0.01,0,0.01-0.01
			c0,0.02-0.14,0.08-0.15,0.09c-0.07,0.04,0.03-0.03,0.03-0.01c0,0-0.07,0.03-0.08,0.03c-0.02,0.01-0.18,0.03-0.19,0.04
			c0.02,0,0.05-0.01,0.07-0.01c-0.02,0-0.05,0-0.07,0.01c-0.02,0-0.05,0-0.07,0c-0.06,0-0.12,0-0.18-0.01
			c-0.11-0.01,0.04,0,0.03,0.01c-0.01,0.01-0.1-0.02-0.11-0.02c-0.07-0.01-0.13-0.03-0.2-0.05c-0.05-0.02-0.12-0.03-0.16-0.06
			c0.1,0.08,0.03,0.01-0.01-0.01c-0.02-0.01-0.04-0.02-0.07-0.03c-0.05-0.03-0.11-0.06-0.16-0.09c0,0-0.11-0.09-0.05-0.04
			c0.05,0.04-0.07-0.06-0.08-0.07c-0.05-0.05-0.09-0.1-0.14-0.15c-0.06-0.06,0.06,0.1-0.01-0.02c-0.02-0.03-0.04-0.06-0.06-0.09
			c-0.03-0.06-0.07-0.12-0.09-0.18c0.06,0.11,0-0.02-0.01-0.04c-0.01-0.04-0.03-0.09-0.04-0.13c-0.01-0.03-0.01-0.06-0.02-0.09
			c-0.03-0.14,0,0.11,0-0.03c0-0.08,0-0.15,0-0.22c0-0.06-0.02-0.05,0,0.02c-0.01-0.02,0.01-0.07,0.02-0.1
			c0.01-0.03,0.02-0.06,0.03-0.09c0.03-0.12-0.06,0.1,0-0.01c0.02-0.03,0.03-0.06,0.05-0.1c0.01-0.01,0.01-0.02,0.02-0.03
			c0.03-0.05,0.03-0.04-0.02,0.02c0-0.04,0.11-0.12,0.14-0.14c0.07-0.07,0-0.03-0.01,0.01c0-0.01,0.08-0.05,0.09-0.06
			c0.03-0.02,0.06-0.04,0.1-0.05c0.01-0.01,0.02-0.01,0.03-0.02c0.05-0.02,0.04-0.02-0.03,0.01c0.01-0.03,0.17-0.05,0.19-0.06
			c0.01,0,0.09-0.02,0.09-0.02c-0.08,0.01-0.09,0.01-0.05,0.01c0.02,0,0.04,0,0.06-0.01c0.07-0.01,0.15,0,0.22,0
			c0.11,0-0.04,0-0.03-0.01C12.04,7.41,12.16,7.45,12.18,7.46c0.27,0.07,0.6-0.09,0.67-0.38c0.06-0.28-0.08-0.59-0.38-0.67
			c-0.78-0.2-1.62,0.07-2.1,0.72c-0.54,0.73-0.33,1.75,0.2,2.42c0.46,0.58,1.25,0.94,1.99,0.89c0.41-0.03,0.79-0.16,1.1-0.42
			c0.36-0.3,0.56-0.75,0.59-1.21c0.04-0.52-0.18-1.06-0.48-1.47C13.44,6.9,13,6.57,12.47,6.41c-0.27-0.08-0.6,0.1-0.67,0.38
			C11.73,7.08,11.89,7.37,12.18,7.46z"/>
	</g>
</g>
</svg>
