<?xml version="1.0" encoding="utf-8"?>
<!-- Generator: Adobe Illustrator 25.1.0, SVG Export Plug-In . SVG Version: 6.00 Build 0)  -->
<svg version="1.1" id="Layer_1" xmlns="http://www.w3.org/2000/svg" xmlns:xlink="http://www.w3.org/1999/xlink" x="0px" y="0px"
	 viewBox="0 0 30 30" style="enable-background:new 0 0 30 30;" xml:space="preserve">
<style type="text/css">
	.st0{fill:#cccccc;}
</style>
<g>
	<defs>
		<path id="SVGID_1_" d="M2.1,9.56c2.3-5.14,7.35-8.18,12.64-8.18c1.89,0,3.82,0.39,5.66,1.22c6.97,3.13,10.09,11.32,6.96,18.3
			c-3.13,6.98-11.32,10.09-18.3,6.97C2.09,24.72-1.03,16.53,2.1,9.56"/>
	</defs>
	<clipPath id="SVGID_2_">
		<use xlink:href="#SVGID_1_"  style="overflow:visible;"/>
	</clipPath>
	<use xlink:href="#SVGID_1_"  style="overflow:visible;fill:#ffffff;stroke:#f6f6f6;stroke-miterlimit:10;"/>
</g>
<path class="st0" d="M20.4,17.34l-0.77-0.77c-0.04-0.04-0.07-0.1-0.07-0.17v-2.66c0-1.95-0.9-4.22-2.89-5.11
	c-0.15-0.9-0.89-1.61-1.8-1.67c-0.55-0.04-1.08,0.14-1.49,0.53c-0.32,0.3-0.53,0.7-0.6,1.14c-1.99,0.89-2.89,3.15-2.89,5.1v2.66
	c0,0.06-0.03,0.12-0.07,0.17l-0.77,0.77c-0.28,0.28-0.43,0.65-0.43,1.04c0,0.81,0.66,1.47,1.47,1.47h1.64c0.2,1.48,1.46,2.63,3,2.63
	c1.54,0,2.8-1.15,3-2.63h1.64c0.81,0,1.47-0.66,1.47-1.47C20.84,17.98,20.68,17.62,20.4,17.34 M14.73,21.21
	c-0.84,0-1.54-0.59-1.72-1.37h3.45C16.27,20.62,15.57,21.21,14.73,21.21 M19.37,18.58h-9.28c-0.11,0-0.2-0.09-0.2-0.2
	c0-0.05,0.02-0.1,0.06-0.14l0.78-0.78c0.28-0.28,0.44-0.67,0.44-1.06v-2.66c0-1.57,0.76-3.51,2.43-4.06l0.44-0.14v-0.6
	c0-0.19,0.08-0.38,0.22-0.51c0.1-0.09,0.25-0.19,0.47-0.19c0.02,0,0.04,0,0.06,0c0.37,0.02,0.66,0.35,0.66,0.73v0.57l0.44,0.14
	c1.67,0.55,2.43,2.49,2.43,4.06v2.66c0,0.39,0.16,0.78,0.44,1.06l0.77,0.78l0,0c0.04,0.04,0.06,0.09,0.06,0.14
	C19.57,18.49,19.48,18.58,19.37,18.58"/>
</svg>
