<?xml version="1.0" encoding="iso-8859-1"?>
<!-- Generator: Adobe Illustrator 19.0.0, SVG Export Plug-In . SVG Version: 6.00 Build 0)  -->
<svg xmlns="http://www.w3.org/2000/svg" xmlns:xlink="http://www.w3.org/1999/xlink" version="1.1" id="Layer_1" x="0px" y="0px" viewBox="0 0 512 512" style="enable-background:new 0 0 512 512;" xml:space="preserve" width="512" height="512">
<g>
	<path d="M316.81,358.43c-1.27,0-2.51,0.24-3.69,0.71c-6.02,2.39-12.26,4.41-18.54,6.02c-5.34,1.37-8.57,6.83-7.2,12.17   c1.13,4.43,5.11,7.52,9.68,7.52c0.83,0,1.67-0.1,2.48-0.31c7.1-1.82,14.15-4.11,20.95-6.81c5.13-2.03,7.65-7.86,5.61-12.98   C324.58,360.91,320.93,358.43,316.81,358.43z"/>
	<path d="M164.79,340.34c0-0.01-0.01-0.01-0.01-0.01c-1.72-1.26-3.76-1.92-5.89-1.92c-3.18,0-6.21,1.53-8.08,4.11   c-3.25,4.45-2.27,10.72,2.18,13.97c1.73,1.25,3.76,1.92,5.89,1.92c3.19,0,6.21-1.54,8.09-4.11   C170.21,349.85,169.23,343.59,164.79,340.34z"/>
	<path d="M353.07,338.43c-2.13,0-4.16,0.67-5.88,1.92c-4.46,3.25-5.44,9.52-2.19,13.97c1.87,2.58,4.89,4.11,8.09,4.11   c2.12,0,4.14-0.66,5.87-1.91c0,0,0,0,0.01,0c4.45-3.25,5.44-9.52,2.19-13.98C359.28,339.97,356.26,338.43,353.07,338.43z"/>
	<path d="M217.37,365.15c-6.28-1.61-12.51-3.64-18.53-6.03c-1.18-0.47-2.42-0.71-3.69-0.71c-4.12,0-7.77,2.48-9.29,6.32   c-0.99,2.48-0.95,5.2,0.11,7.65c1.06,2.45,3.01,4.35,5.49,5.33c6.81,2.71,13.86,5,20.94,6.81c0.81,0.21,1.65,0.32,2.49,0.32   c4.56,0,8.54-3.09,9.68-7.52C225.94,371.98,222.71,366.52,217.37,365.15z"/>
	<path d="M255.97,370c-5.51,0-9.99,4.49-9.99,10c0,5.51,4.48,10,9.99,10c5.52,0,10-4.49,10-10c0.01-2.67-1.03-5.18-2.92-7.07   C261.16,371.04,258.65,370,255.97,370z"/>
	<path d="M511.838,378.998c-8.756-47.952-26.479-84.171-46.773-113.52C468.98,249.14,471,232.226,471,215   c0-41.658-11.942-82.079-34.537-116.892c-9.563-14.736-20.943-28.302-33.824-40.321c-25.048-23.373-54.879-40.141-87.114-49.407   C307.557,3.074,298.026,0,287.897,0h-63.794c-10.136,0-19.673,3.079-27.646,8.392c-32.228,9.267-62.054,26.027-87.097,49.395   C96.48,69.806,85.1,83.372,75.537,98.108C52.943,132.921,41,173.342,41,215c0,17.217,2.047,34.114,5.959,50.444   C26.655,294.799,8.923,331.027,0.163,378.998c-0.641,3.51,0.637,7.095,3.353,9.409c2.716,2.313,6.46,3.005,9.822,1.814   l38.83-13.745l29.944,26.214c2.708,2.371,6.481,3.104,9.88,1.918c3.398-1.185,5.898-4.105,6.544-7.646   c1.852-10.14,4.308-19.468,7.252-28.162c9.566,9.348,19.843,17.71,30.723,25.013l-30.126,105.44   c-0.862,3.017-0.258,6.264,1.632,8.769c1.89,2.505,4.846,3.978,7.983,3.978h40c4.465,0,8.389-2.96,9.615-7.253l6.73-23.554   L226,464.568V470c0,5.523,4.477,10,10,10h40c5.523,0,10-4.477,10-10v-5.742l53.558,16.595l6.827,23.894   c1.227,4.293,5.15,7.253,9.615,7.253h40c3.138,0,6.094-1.473,7.983-3.978c1.89-2.505,2.494-5.752,1.632-8.769l-30.126-105.44   c10.88-7.303,21.158-15.665,30.723-25.013c2.944,8.695,5.4,18.022,7.252,28.162c0.646,3.541,3.146,6.461,6.544,7.646   c1.075,0.375,2.187,0.558,3.292,0.558c2.387,0,4.737-0.855,6.588-2.476l29.944-26.214l38.83,13.745   c3.366,1.191,7.107,0.499,9.822-1.814C511.201,386.093,512.478,382.508,511.838,378.998z M426.125,119.645   C442.434,148.677,451,181.392,451,215c0,9.826-0.743,19.48-2.154,28.918c-5.991-7.379-12.055-14.311-18.047-20.904   c0.12-2.667,0.201-5.348,0.201-8.014c0-5.523-4.477-10-10-10c-2.017,0-3.891,0.602-5.462,1.629   c-0.796-0.842-26.535-28.042-35.853-40.546L426.125,119.645z M415.159,102.326l-43.316,43.315   c-3.953-6.604-8.457-12.834-13.482-18.664c-0.988-2.465-1.935-4.946-2.844-7.435l40.373-40.373   C402.901,86.388,409.348,94.134,415.159,102.326z M381.234,65.54l-32.605,32.605c-5.625-19.928-9.082-39.286-11.19-54.886   c-0.277-2.054-0.69-4.062-1.209-6.024C352.333,44.51,367.477,53.994,381.234,65.54z M175.769,37.239   c-0.518,1.961-0.93,3.967-1.208,6.02c-2.107,15.6-5.564,34.958-11.19,54.886L130.767,65.54   C144.523,53.995,159.667,44.514,175.769,37.239z M116.11,79.169l40.373,40.373c-0.909,2.489-1.856,4.969-2.844,7.435   c-5.025,5.83-9.529,12.06-13.483,18.664l-43.316-43.315C102.652,94.134,109.099,86.388,116.11,79.169z M85.876,119.645l0.336,0.336   l46.103,46.103c-9.318,12.504-20.808,24.652-33.475,38.033c-0.788,0.833-1.582,1.671-2.378,2.513C94.891,205.602,93.017,205,91,205   c-5.523,0-10,4.477-10,10c0,2.667,0.08,5.347,0.201,8.014c-5.992,6.593-12.055,13.525-18.046,20.903   C61.743,234.479,61,224.825,61,215C61,181.392,69.566,148.677,85.876,119.645z M148.457,492h-19.2l24.997-87.49   c5.507,2.966,11.138,5.675,16.874,8.139L148.457,492z M226,443.63l-47.092,14.592l11.009-38.531   c11.705,3.765,23.768,6.522,36.083,8.231V443.63z M266,460h-20c0,0,0-17.656,0-30.235c3.321,0.151,6.654,0.235,10,0.235   c3.346,0,6.679-0.083,10-0.235V460z M286,443.32v-15.398c12.315-1.709,24.378-4.467,36.083-8.231l10.912,38.191L286,443.32z    M382.743,492h-19.2l-22.672-79.351c5.736-2.464,11.367-5.173,16.874-8.139L382.743,492z M256,410   c-55.907,0-106.384-23.659-141.972-61.479c3.269-6.822,6.864-13.237,10.727-19.341c1.24,0.537,2.586,0.835,3.975,0.84   c2.32,0,4.58-0.82,6.37-2.29c4.25-3.52,4.85-9.83,1.34-14.08c-0.15-0.182-0.295-0.368-0.444-0.551   c4.168-5.462,8.527-10.725,13.023-15.876C173.722,329.292,212.483,350,256,350c43.518,0,82.274-20.711,106.978-52.78   c4.495,5.15,8.853,10.411,13.02,15.871c-0.159,0.194-0.309,0.396-0.468,0.588c-3.51,4.25-2.91,10.57,1.34,14.08   c1.79,1.48,4.05,2.29,6.36,2.29c1.41,0,2.774-0.302,4.027-0.851c3.857,6.097,7.447,12.505,10.713,19.318   C362.381,386.338,311.907,410,256,410z M162.703,282.153c2.896-3.095,5.819-6.185,8.759-9.29   c21.807-23.036,44.357-46.857,61.092-78.518c9.806-18.552,17.409-40.683,23.446-62.245c6.038,21.563,13.64,43.693,23.446,62.246   c16.735,31.66,39.285,55.481,61.092,78.518c2.939,3.104,5.862,6.194,8.758,9.288C328.393,311.112,294.364,330,256,330   C217.636,330,183.606,311.113,162.703,282.153z M460.988,355.669c-3.409-1.207-7.204-0.48-9.924,1.902l-21.636,18.941   c-13.91-53.537-43.356-84.642-74.365-117.398c-20.883-22.061-42.478-44.872-57.935-74.114   c-15.084-28.54-25.128-68.769-31.371-96.547c-1.026-4.564-5.079-7.807-9.757-7.807c-4.678,0-8.731,3.243-9.757,7.807   c-6.243,27.778-16.287,68.007-31.371,96.547c-15.457,29.243-37.051,52.054-57.935,74.114   c-31.009,32.757-60.455,63.862-74.365,117.398l-21.636-18.941c-1.852-1.621-4.201-2.476-6.588-2.476   c-1.119,0-2.247,0.188-3.335,0.573l-27.499,9.734c17.505-71.114,57.363-113.218,89.853-147.54   c19.767-20.881,36.838-38.915,48.46-60.903c19.494-36.88,28.463-80.732,32.555-111.025C196.378,31.15,209.155,20,224.103,20h63.794   c14.948,0,27.725,11.15,29.722,25.936c4.092,30.293,13.062,74.146,32.555,111.025c11.622,21.989,28.693,40.022,48.46,60.903   l0.009-0.005l-0.007,0.007c32.488,34.319,72.346,76.424,89.851,147.538L460.988,355.669z"/>
	<path d="M377.034,238.652c-4.024,3.783-4.22,10.111-0.437,14.135c20.749,22.072,42.297,46.336,57.728,78.788   c1.713,3.602,5.299,5.708,9.038,5.708c1.439,0,2.901-0.313,4.288-0.971c4.987-2.372,7.108-8.338,4.737-13.326   c-16.672-35.061-39.384-60.671-61.218-83.897C387.386,235.064,381.057,234.869,377.034,238.652z"/>
	<path d="M120.831,239.089c-21.834,23.226-44.546,48.836-61.218,83.897c-2.372,4.988-0.25,10.954,4.737,13.326   c1.387,0.659,2.848,0.971,4.288,0.971c3.739,0,7.325-2.107,9.038-5.708c15.43-32.451,36.979-56.716,57.728-78.788   c3.783-4.024,3.587-10.353-0.437-14.135C130.943,234.869,124.614,235.065,120.831,239.089z"/>
</g>
</svg>
