<svg height="512pt" viewBox="-70 0 511 512" width="512pt" xmlns="http://www.w3.org/2000/svg"><path d="m361.101562 151.09375c-.742187-2.566406-1.789062-5.074219-3.175781-7.472656-3.199219-5.542969-3.199219-12.425782 0-17.96875 5.960938-10.324219 5.960938-22.644532 0-32.96875-5.957031-10.324219-16.632812-16.488282-28.550781-16.488282-6.398438 0-12.363281-3.441406-15.5625-8.984374-7.675781-13.292969-23.5-19.25-37.722656-15.191407-7.210938-12.359375-20.035156-19.734375-34.355469-19.734375-8.828125 0-17.050781-4.75-21.464844-12.394531-7.191406-12.453125-20.070312-19.890625-34.453125-19.890625-14.382812 0-27.261718 7.4375-34.453125 19.890625-4.414062 7.644531-12.636719 12.394531-21.464843 12.394531-14.320313 0-27.144532 7.375-34.355469 19.734375-14.222657-4.058593-30.046875 1.898438-37.722657 15.191407-3.199218 5.542968-9.160156 8.984374-15.5625 8.984374-11.917968 0-22.59375 6.164063-28.550781 16.488282-5.960937 10.320312-5.960937 22.644531 0 32.96875 3.199219 5.542968 3.199219 12.425781 0 17.96875-1.386719 2.398437-2.433593 4.90625-3.175781 7.472656-5.832031 2.046875-10.03125 7.597656-10.03125 14.121094v51.917968c0 8.257813 6.71875 14.976563 14.980469 14.976563h7.328125l85.117187 127.703125c-2.484375 3.40625-3.3125 7.667969-2.246093 11.769531l8.796874 33.824219c1.03125 3.976562 3.714844 7.171875 7.191407 8.953125l-14.332031 61.359375c-1.914063 8.179688-.273438 16.839844 4.496093 23.753906 4.636719 6.722656 11.882813 11.199219 19.878907 12.273438 1.238281.167968 2.550781.253906 3.894531.253906 8.769531 0 13.550781-3.570312 17.042969-6.179688 2.757812-2.0625 4.277343-3.195312 8.0625-3.195312 3.785156 0 5.304687 1.132812 8.0625 3.195312 3.492187 2.609376 8.277343 6.179688 17.042968 6.179688 8.769532 0 13.546875-3.570312 17.039063-6.179688 2.761719-2.058593 4.28125-3.195312 8.0625-3.195312 3.785156 0 5.304687 1.136719 8.066406 3.195312 3.488281 2.609376 8.273437 6.179688 17.039063 6.179688 1.34375 0 2.652343-.085938 3.898437-.253906 7.996094-1.074219 15.242187-5.550782 19.878906-12.273438 4.769531-6.917968 6.410157-15.574218 4.5-23.753906l-14.335937-61.359375c3.476562-1.777344 6.160156-4.972656 7.195312-8.949219l8.792969-33.828125c1.066406-4.097656.238281-8.359375-2.246094-11.769531l40.402344-60.617188c2.296875-3.445312 1.367187-8.101562-2.078125-10.398437-3.449219-2.296875-8.105469-1.367187-10.402344 2.082031l-42.09375 63.152344h-49.71875c-4.140625 0-7.5 3.355469-7.5 7.5 0 4.140625 3.359375 7.5 7.5 7.5h51.300782l-8.285157 31.875h-44.03125c-.023437 0-.042969 0-.066406 0h-25.820313c-.035156 0-.070312 0-.101562 0h-44.007812l-8.289063-31.875h52.277344c4.144531 0 7.5-3.359375 7.5-7.5 0-4.144531-3.355469-7.5-7.5-7.5h-50.691407l-81.265624-121.921875h289.964843l-23.777343 35.671875c-2.296876 3.445312-1.363282 8.101562 2.082031 10.398438 1.277343.851562 2.722656 1.261718 4.152343 1.261718 2.425782 0 4.804688-1.175781 6.25-3.34375l29.316407-43.988281h7.328125c8.261718 0 14.980468-6.71875 14.980468-14.980469v-51.914062c0-6.523438-4.199218-12.074219-10.03125-14.121094zm-113.648437 339.863281c-2.273437 3.300781-5.660156 5.402344-9.53125 5.925781-.582031.078126-1.222656.117188-1.898437.117188-3.785157 0-5.304688-1.136719-8.0625-3.195312-3.492188-2.609376-8.273438-6.179688-17.039063-6.179688-8.769531 0-13.550781 3.570312-17.042969 6.179688-2.757812 2.058593-4.277344 3.195312-8.0625 3.195312s-5.304687-1.136719-8.0625-3.195312c-3.492187-2.609376-8.273437-6.179688-17.042968-6.179688-8.765626 0-13.546876 3.570312-17.039063 6.179688-2.761719 2.058593-4.28125 3.195312-8.066406 3.195312-.675781 0-1.3125-.039062-1.890625-.117188-3.871094-.523437-7.257813-2.625-9.53125-5.921874-2.375-3.445313-3.191406-7.757813-2.242188-11.828126l14.773438-63.226562h25.769531l-11.15625 34.503906c-1.273437 3.941406.886719 8.171875 4.828125 9.445313.765625.25 1.542969.367187 2.308594.367187 3.164062 0 6.105468-2.019531 7.132812-5.195312l12.652344-39.121094h15.136719l12.652343 39.121094c1.027344 3.175781 3.96875 5.195312 7.132813 5.195312.765625 0 1.542969-.121094 2.3125-.367187 3.941406-1.273438 6.101563-5.503907 4.828125-9.445313l-11.160156-34.503906h25.773437l14.769531 63.226562c.949219 4.070313.132813 8.378907-2.242187 11.824219zm53.367187-416.246093c5.871094 10.167968 16.8125 16.484374 28.554688 16.484374 6.496094 0 12.3125 3.359376 15.5625 8.988282 3.25 5.625 3.25 12.339844 0 17.96875-5.871094 10.167968-5.871094 22.800781 0 32.96875 3.25 5.625 3.25 12.34375 0 17.96875-3.246094 5.625-9.066406 8.984375-15.5625 8.984375-11.742188 0-22.683594 6.316406-28.554688 16.484375-3.246093 5.628906-9.0625 8.988281-15.558593 8.988281-6.5 0-12.316407-3.359375-15.566407-8.988281-5.871093-10.167969-16.808593-16.484375-28.550781-16.484375-1.945312 0-3.816406-.296875-5.582031-.863281 1.992188-.515626 4.0625-.792969 6.171875-.792969 11.207031 0 21.492187-4.535157 28.894531-12.425781 4.519532 2.246093 9.542969 3.449218 14.628906 3.449218 18.089844 0 32.808594-14.714844 32.808594-32.804687 0-18.089844-14.71875-32.804688-32.808594-32.804688-4.292968 0-8.484374.839844-12.375 2.425781.015626-4.253906 1.113282-8.503906 3.304688-12.296874 4.621094-8.007813 6.257812-17.011719 4.9375-25.730469 6.957031-1.554688 15.273438.824219 19.695312 8.480469zm-150.824218 112.007812c.484375.675781.949218 1.367188 1.367187 2.089844 7.191407 12.457031 20.070313 19.894531 34.453125 19.894531 14.382813 0 27.261719-7.4375 34.453125-19.894531.417969-.722656.878907-1.410156 1.363281-2.078125 5.570313 4.125 12.292969 6.34375 19.511719 6.34375 6.398438 0 12.363281 3.445312 15.5625 8.988281 4.285157 7.421875 11.015625 12.675781 18.886719 15.050781l-179.585938.011719c7.882813-2.371094 14.628907-7.628906 18.917969-15.0625 3.203125-5.542969 9.164063-8.988281 15.5625-8.988281 7.179688 0 13.921875-2.226563 19.507813-6.355469zm127.257812-67.984375c2.460938-1.242187 5.191406-1.902344 8.003906-1.902344 9.820313 0 17.808594 7.988281 17.808594 17.804688 0 9.816406-7.988281 17.804687-17.808594 17.804687-2.269531 0-4.457031-.429687-6.503906-1.234375 4.199219-10.539062 3.699219-22.210937-1.5-32.472656zm-147.355468-71.449219c14.167968 0 27.371093-7.625 34.457031-19.894531 4.480469-7.757813 12.5-12.390625 21.460937-12.390625 8.960938 0 16.984375 4.632812 21.464844 12.394531 7.082031 12.265625 20.285156 19.890625 34.453125 19.890625 8.960937 0 16.984375 4.632813 21.464844 12.390625 4.476562 7.757813 4.476562 17.023438-.003907 24.785157-7.082031 12.269531-7.082031 27.511718 0 39.78125 4.480469 7.761718 4.480469 17.023437.003907 24.785156-4.480469 7.757812-12.503907 12.390625-21.464844 12.390625-14.167969 0-27.371094 7.621093-34.453125 19.890625-4.480469 7.761718-12.503906 12.394531-21.464844 12.394531-8.960937 0-16.980468-4.632813-21.460937-12.394531-7.085938-12.269532-20.289063-19.890625-34.457031-19.890625-8.957032 0-16.980469-4.632813-21.460938-12.394531-4.480469-7.757813-4.480469-17.023438 0-24.78125 7.082031-12.269532 7.082031-27.515626 0-39.785157-4.480469-7.757812-4.480469-17.023437 0-24.78125 4.480469-7.757812 12.503906-12.390625 21.460938-12.390625zm-37.015626 103.921875c-2.046874.804688-4.238281 1.234375-6.507812 1.234375-9.820312 0-17.808594-7.988281-17.808594-17.804687 0-9.816407 7.988282-17.804688 17.808594-17.804688 2.8125 0 5.546875.660157 8.007812 1.898438-5.203124 10.265625-5.699218 21.941406-1.5 32.476562zm-66.1875-33.054687c-3.246093-5.628906-3.246093-12.34375 0-17.96875 3.25-5.628906 9.066407-8.988282 15.566407-8.988282 11.738281 0 22.679687-6.3125 28.550781-16.484374 4.421875-7.65625 12.738281-10.035157 19.699219-8.480469-1.320313 8.71875.3125 17.722656 4.9375 25.730469 2.1875 3.792968 3.289062 8.042968 3.304687 12.296874-3.890625-1.585937-8.085937-2.425781-12.378906-2.425781-18.089844 0-32.804688 14.714844-32.804688 32.804688 0 18.089843 14.714844 32.804687 32.804688 32.804687 5.09375 0 10.113281-1.199218 14.632812-3.449218 7.398438 7.894531 17.683594 12.425781 28.894532 12.425781 2.105468 0 4.171875.277343 6.164062.792969-1.765625.566406-3.640625.867187-5.574218.867187-11.742188 0-22.683594 6.316406-28.554688 16.484375-3.246094 5.625-9.066406 8.984375-15.5625 8.984375s-12.3125-3.359375-15.5625-8.984375c-5.871094-10.167969-16.8125-16.484375-28.550781-16.484375-6.496094 0-12.316407-3.359375-15.566407-8.984375-3.246093-5.625-3.246093-12.34375 0-17.96875 5.871094-10.171875 5.871094-22.804688 0-32.972656zm-11.210937 61.171875c6.171875 8.660156 15.957031 13.75 26.777344 13.75 6.398437 0 12.359375 3.445312 15.5625 8.988281 4.289062 7.433594 11.035156 12.695312 18.921875 15.066406h-49.578125c-.230469-.011718-.460938-.011718-.691407 0l-10.972656.003906zm329.3125 37.785156c-.015625 0-.03125 0-.042969 0l-49.824218.003906c7.871093-2.375 14.597656-7.628906 18.882812-15.050781 3.199219-5.542969 9.164062-8.984375 15.5625-8.984375 10.8125 0 20.59375-5.085937 26.765625-13.738281l.011719 37.769531zm0 0"/><path d="m185.816406 145.519531c22.699219 0 41.167969-18.46875 41.167969-41.167969 0-22.699218-18.46875-41.167968-41.167969-41.167968-22.699218 0-41.167968 18.46875-41.167968 41.167968 0 22.699219 18.46875 41.167969 41.167968 41.167969zm0-67.335937c14.429688 0 26.167969 11.738281 26.167969 26.167968 0 14.425782-11.738281 26.167969-26.167969 26.167969-14.429687 0-26.167968-11.738281-26.167968-26.167969 0-14.429687 11.738281-26.167968 26.167968-26.167968zm0 0"/></svg>