<?xml version="1.0" encoding="utf-8"?>
<!-- Generator: Adobe Illustrator 25.3.1, SVG Export Plug-In . SVG Version: 6.00 Build 0)  -->
<svg version="1.1" id="Layer_1" xmlns="http://www.w3.org/2000/svg" xmlns:xlink="http://www.w3.org/1999/xlink" x="0px" y="0px"
	 viewBox="0 0 44.9 18" style="enable-background:new 0 0 44.9 18;" xml:space="preserve">
<style type="text/css">
	.st0{fill:#0F8B46;}
	.st1{enable-background:new    ;}
	.st2{fill:#1C9152;}
</style>
<g>
	<path class="st0" d="M38.2,1c3.1,0,5.7,2.6,5.7,5.9v4.2c0,3.2-2.6,5.9-5.7,5.9H6.7C3.5,17,1,14.4,1,11.1V6.9C1,3.6,3.5,1,6.7,1
		H38.2 M38.2,0H6.7C3,0,0,3.1,0,6.9v4.2C0,14.9,3,18,6.7,18h31.5c3.7,0,6.7-3.1,6.7-6.9V6.9C44.9,3.1,41.9,0,38.2,0L38.2,0z"/>
</g>
<g>
	<g class="st1">
		<path class="st2" d="M10.3,9.2H6.7V4.8h0.5v1.5h2.6V4.8h0.5v1.3h2.1V4.5h0.5v6.2h-0.5V8.3h-2.1V9.2z M9.8,8.7v-2H7.2v2H9.8z
			 M13,12.1v0.5H8v-2.3h0.5v1.8H13z M12.4,6.6h-2.1v1.3h2.1V6.6z"/>
		<path class="st2" d="M14.4,8.8c2-0.5,3.3-1.7,3.6-3.4c-0.7,0-1.6,0-2.3,0h-0.8V4.9h1.3c0.8,0,1.5,0,2.4,0
			c-0.2,2.2-1.5,3.6-3.9,4.3L14.4,8.8z M15.7,11.1c0-0.9,1-1.6,2.6-1.6s2.6,0.7,2.6,1.6s-1,1.6-2.6,1.6S15.7,12.1,15.7,11.1z
			 M20.4,11.2c0-0.6-0.7-1.2-2.1-1.2s-2.1,0.5-2.1,1.2c0,0.6,0.7,1.2,2.1,1.2C19.7,12.3,20.4,11.8,20.4,11.2z M18.8,6h1.6V4.5h0.5
			v4.9h-0.5V8h-1.8V7.6h1.8V6.4h-1.6V6z"/>
		<path class="st2" d="M27.1,6.6h-5V6.1h5V6.6z M24.6,7.3c1.1,0,1.9,0.8,1.9,1.8s-0.8,1.8-1.9,1.8c-1.1,0-1.9-0.7-1.9-1.8
			S23.5,7.3,24.6,7.3z M24.6,10.4c0.9,0,1.4-0.5,1.4-1.3s-0.5-1.3-1.4-1.3c-0.8,0-1.4,0.5-1.4,1.3C23.2,9.8,23.8,10.4,24.6,10.4z
			 M26,5.3h-2.8V4.8H26V5.3z M30,8.1v0.5h-1.5v4.1H28V4.5h0.5v3.6H30z"/>
		<path class="st2" d="M30.4,10.6c2.3-1.1,3.5-2.9,3.7-4.9c-0.7,0-1.5,0-2.2,0h-1.1V5.3h1.7c0.7,0,1.5,0,2.2,0
			c-0.2,2.5-1.5,4.4-3.9,5.7L30.4,10.6z M36.4,12.7V4.5h0.5v8.2H36.4z"/>
	</g>
</g>
</svg>
