<?xml version="1.0" encoding="utf-8"?>
<!-- Generator: Adobe Illustrator 26.0.1, SVG Export Plug-In . SVG Version: 6.00 Build 0)  -->
<svg version="1.1" id="레이어_1" xmlns="http://www.w3.org/2000/svg" xmlns:xlink="http://www.w3.org/1999/xlink" x="0px"
	 y="0px" viewBox="0 0 15.37 15.68" style="enable-background:new 0 0 15.37 15.68;" xml:space="preserve">
<style type="text/css">
	.st0{fill:#FAF0E6;}
</style>
<path class="st0" d="M13.79,12.8c-0.36-0.29-0.71-0.59-1.06-0.9c0.36-0.07,0.73-0.13,1.09-0.21c0.19-0.04,0.33-0.2,0.31-0.4
	c-0.02-0.18-0.21-0.35-0.4-0.31c-0.36,0.07-0.72,0.15-1.08,0.22c-0.17,0.03-0.35,0.07-0.52,0.1c-0.02,0-0.04,0.01-0.07,0.01
	c-0.37-0.33-0.74-0.66-1.1-1c0.44-0.13,0.87-0.26,1.31-0.39c0.18-0.06,0.27-0.3,0.2-0.46c-0.08-0.19-0.28-0.25-0.46-0.2
	c-0.55,0.17-1.09,0.33-1.64,0.5C9.72,9.17,9.09,8.57,8.45,7.98c0.65-0.2,1.3-0.4,1.96-0.6c0.53,0.36,1.09,0.67,1.68,0.91
	c0.17,0.07,0.4-0.01,0.47-0.19c0.07-0.18,0-0.39-0.19-0.47c-0.29-0.12-0.57-0.25-0.85-0.4c-0.07-0.04-0.15-0.08-0.21-0.12
	c0.47-0.14,0.94-0.29,1.41-0.43c0.53,0.28,1.07,0.54,1.6,0.82c0.16,0.09,0.41-0.02,0.47-0.19c0.07-0.2-0.01-0.37-0.19-0.47
	c-0.3-0.16-0.6-0.31-0.9-0.46c0.49-0.15,0.98-0.3,1.47-0.45c0.44-0.13,0.17-0.8-0.27-0.66c-0.46,0.14-0.92,0.28-1.38,0.42
	c0.11-0.25,0.22-0.51,0.32-0.76c0.07-0.17-0.01-0.4-0.19-0.47c-0.18-0.07-0.39,0-0.47,0.19c-0.19,0.44-0.37,0.88-0.56,1.32
	c-0.47,0.14-0.93,0.29-1.4,0.43c0.14-0.32,0.28-0.64,0.41-0.96c0.07-0.17,0-0.4-0.19-0.47c-0.18-0.07-0.4,0-0.47,0.19
	c-0.2,0.51-0.43,1.01-0.65,1.51c-0.66,0.2-1.32,0.4-1.99,0.61c0.14-0.61,0.28-1.23,0.43-1.84c0.58-0.34,1.15-0.72,1.74-1.06
	c0.17-0.1,0.18-0.36,0.07-0.5c-0.13-0.17-0.33-0.17-0.5-0.07C9.7,4.01,9.34,4.23,8.98,4.46C9.08,4,9.19,3.54,9.29,3.09
	c0.55-0.34,1.07-0.7,1.62-1.04c0.16-0.1,0.18-0.35,0.07-0.5c-0.12-0.17-0.34-0.17-0.5-0.07c-0.33,0.2-0.64,0.41-0.96,0.62
	c0.13-0.57,0.26-1.14,0.39-1.71c0.1-0.45-0.61-0.54-0.71-0.09c-0.13,0.55-0.25,1.1-0.38,1.65C8.59,1.62,8.35,1.29,8.11,0.96
	C7.83,0.6,7.26,1.02,7.54,1.39C7.9,1.88,8.25,2.38,8.61,2.87C8.5,3.35,8.39,3.84,8.28,4.32C8.02,3.97,7.77,3.63,7.5,3.29
	C7.22,2.93,6.64,3.36,6.93,3.72c0.39,0.49,0.76,1.01,1.14,1.51c-0.15,0.65-0.3,1.31-0.45,1.96C7.14,6.75,6.67,6.31,6.19,5.87
	C6.24,5.2,6.23,4.52,6.14,3.85C6.08,3.4,5.37,3.49,5.43,3.94C5.49,4.37,5.51,4.8,5.51,5.23c-0.32-0.3-0.65-0.6-0.97-0.91
	c0-0.01,0-0.02,0-0.04C4.52,3.65,4.47,3.02,4.45,2.38c-0.01-0.19-0.22-0.33-0.4-0.31C3.84,2.1,3.73,2.28,3.74,2.47
	c0.01,0.39,0.03,0.78,0.05,1.16C3.35,3.22,2.91,2.81,2.47,2.4C2.13,2.08,1.69,2.65,2.03,2.96c0.4,0.38,0.81,0.75,1.21,1.13
	C2.95,4.12,2.65,4.16,2.36,4.19C2.17,4.22,2.03,4.4,2.05,4.59c0.02,0.19,0.21,0.33,0.4,0.31c0.49-0.06,0.98-0.12,1.47-0.18
	C4.26,5.04,4.6,5.35,4.94,5.67C4.55,5.71,4.17,5.75,3.79,5.81C3.34,5.88,3.42,6.59,3.88,6.52c0.58-0.09,1.16-0.14,1.74-0.21
	c0.48,0.45,0.96,0.9,1.44,1.34c-0.66,0.2-1.32,0.4-1.98,0.6C4.6,7.91,4.1,7.59,3.61,7.25c-0.15-0.11-0.38-0.11-0.5,0.06
	C3.01,7.46,3.01,7.7,3.17,7.81c0.35,0.24,0.7,0.47,1.05,0.71C3.77,8.66,3.33,8.8,2.89,8.94C2.85,8.91,2.8,8.87,2.75,8.85
	C2.22,8.55,1.66,8.3,1.12,8.01C0.95,7.92,0.71,8.03,0.65,8.2C0.58,8.39,0.66,8.57,0.84,8.67c0.27,0.15,0.55,0.29,0.83,0.43
	c0.1,0.05,0.2,0.1,0.3,0.15c-0.59,0.2-1.17,0.4-1.75,0.62c-0.43,0.16-0.16,0.82,0.27,0.66c0.56-0.21,1.12-0.41,1.69-0.6
	c-0.01,0.06-0.03,0.13-0.04,0.19c-0.07,0.31-0.14,0.62-0.21,0.92c-0.04,0.18,0.13,0.39,0.31,0.4c0.21,0.02,0.36-0.11,0.4-0.31
	c0.08-0.38,0.17-0.75,0.26-1.12C2.91,9.9,2.94,9.78,2.97,9.67c0.5-0.16,0.99-0.32,1.49-0.48C4.37,9.57,4.28,9.95,4.2,10.33
	c-0.04,0.18,0.12,0.39,0.31,0.4c0.2,0.02,0.36-0.11,0.4-0.31c0.1-0.49,0.22-0.98,0.33-1.47c0.71-0.21,1.41-0.43,2.12-0.64
	C7.22,8.9,7.08,9.49,6.94,10.07c-0.56,0.25-1.1,0.53-1.65,0.79c-0.17,0.08-0.27,0.28-0.2,0.46c0.07,0.17,0.29,0.28,0.46,0.2
	c0.39-0.19,0.79-0.38,1.18-0.57c-0.13,0.55-0.25,1.11-0.37,1.66c-0.54,0.33-1.1,0.62-1.64,0.96c-0.16,0.1-0.18,0.35-0.07,0.5
	c0.12,0.17,0.34,0.17,0.5,0.07c0.29-0.18,0.58-0.34,0.88-0.51c0.05-0.03,0.09-0.05,0.14-0.08c-0.12,0.58-0.22,1.16-0.32,1.74
	c-0.08,0.45,0.63,0.55,0.71,0.09c0.11-0.65,0.23-1.29,0.36-1.93c0.11,0.1,0.22,0.21,0.33,0.31c0.23,0.22,0.47,0.44,0.7,0.65
	c0.14,0.13,0.39,0.09,0.5-0.06c0.13-0.16,0.08-0.37-0.06-0.5C8.09,13.57,7.79,13.28,7.48,13c-0.13-0.12-0.25-0.25-0.39-0.36
	c0.11-0.53,0.23-1.05,0.35-1.58c0.32,0.27,0.64,0.54,0.96,0.81c0.35,0.3,0.8-0.26,0.44-0.56c-0.41-0.34-0.82-0.69-1.23-1.03
	C7.76,9.7,7.9,9.13,8.03,8.56c0.64,0.59,1.27,1.19,1.91,1.78C9.85,10.89,9.79,11.45,9.71,12c-0.06,0.46,0.65,0.55,0.71,0.09
	c0.05-0.39,0.1-0.78,0.15-1.16c0.31,0.29,0.62,0.57,0.94,0.85c-0.02,0.1-0.02,0.21-0.03,0.32c-0.01,0.16-0.03,0.33-0.05,0.49
	c-0.03,0.32-0.06,0.63-0.08,0.95c-0.01,0.19,0.11,0.37,0.31,0.4c0.18,0.02,0.39-0.11,0.4-0.31c0.02-0.3,0.05-0.6,0.08-0.9
	c0.01-0.12,0.02-0.24,0.03-0.36c0.38,0.33,0.77,0.67,1.16,0.99C13.7,13.65,14.14,13.09,13.79,12.8z"/>
</svg>
