<?xml version="1.0" encoding="utf-8"?>
<!-- Generator: Adobe Illustrator 26.0.1, SVG Export Plug-In . SVG Version: 6.00 Build 0)  -->
<svg version="1.1" id="레이어_1" xmlns="http://www.w3.org/2000/svg" xmlns:xlink="http://www.w3.org/1999/xlink" x="0px"
	 y="0px" viewBox="0 0 22.28 20.78" style="enable-background:new 0 0 22.28 20.78;" xml:space="preserve">
<style type="text/css">
	.st0{fill:#FFFFFF;}
	.st1{fill:#231815;}
	.st2{fill:#E63232;}
</style>
<g>
	<g>
		<path class="st0" d="M21.79,7.28c0.01,0.7,0,0.98,0.02,1.68c0.02,0.6,0.02,1.08,0.02,1.49c0,0.4,0.04,1.17,0.01,1.57
			c-2.43,2.68-4.89,5.34-7.38,7.98c-0.16,0.17-0.34,0.35-0.57,0.36c-0.18,0.01-0.34-0.07-0.5-0.16c-4.41-2.41-8.71-5.04-12.87-7.85
			c-0.01-0.78-0.07-1.63-0.08-2.4C0.43,9.35,0.48,8.75,0.47,7.61"/>
		<g>
			<path class="st1" d="M21.35,7.28c0.01,0.86,0.02,1.72,0.03,2.58c0.01,0.71,0.06,1.44,0.01,2.15c0.04-0.1,0.09-0.21,0.13-0.31
				c-2.38,2.63-4.79,5.23-7.22,7.81c-0.1,0.11-0.25,0.33-0.4,0.38c-0.14,0.05-0.28-0.07-0.39-0.14c-0.39-0.21-0.78-0.43-1.17-0.65
				c-0.75-0.42-1.49-0.84-2.23-1.27c-1.48-0.86-2.95-1.74-4.4-2.65c-1.67-1.04-3.33-2.12-4.96-3.23c0.07,0.13,0.14,0.25,0.22,0.38
				c-0.01-0.88-0.09-1.76-0.08-2.64c0.01-0.7,0.04-1.39,0.04-2.09c0-0.56-0.88-0.56-0.87,0c0.01,0.97-0.06,1.95-0.02,2.92
				c0.01,0.31,0.03,0.63,0.04,0.94c0.01,0.3-0.04,0.7,0.04,0.99c0.08,0.28,0.48,0.45,0.71,0.6c0.29,0.2,0.59,0.39,0.88,0.59
				c2.17,1.44,4.38,2.82,6.63,4.15c1.14,0.67,2.28,1.34,3.44,1.98c0.55,0.31,1.1,0.68,1.68,0.91c0.63,0.26,1.08-0.12,1.49-0.56
				c1.84-1.96,3.67-3.93,5.49-5.91c0.5-0.55,1-1.1,1.5-1.65c0.12-0.13,0.29-0.27,0.34-0.45c0.03-0.12,0.02-0.27,0.03-0.39
				c0-0.28,0-0.57-0.01-0.85c-0.03-1.2-0.03-2.4-0.05-3.6C22.22,6.72,21.34,6.72,21.35,7.28L21.35,7.28z"/>
		</g>
	</g>
	<g>
		<path class="st0" d="M8.69,0.72c-2.77,2.27-5.52,4.57-8.24,6.9c4.16,2.82,8.46,5.44,12.87,7.85c0.16,0.09,0.32,0.17,0.5,0.16
			c0.23-0.02,0.41-0.2,0.57-0.36c2.48-2.64,4.94-5.3,7.38-7.98c-4.38-2.44-8.55-4.67-12.71-6.84L8.69,0.72z"/>
		<g>
			<path class="st1" d="M8.38,0.41C5.6,2.68,2.86,4.97,0.14,7.31C-0.09,7.5,0.01,7.85,0.23,7.99c2.99,2.02,6.05,3.95,9.17,5.76
				c0.8,0.47,1.61,0.93,2.43,1.38c0.36,0.2,0.72,0.4,1.07,0.6c0.38,0.21,0.75,0.42,1.2,0.27c0.35-0.12,0.59-0.43,0.83-0.68
				c0.34-0.36,0.68-0.72,1.02-1.08c0.63-0.67,1.25-1.34,1.87-2.01c1.43-1.54,2.84-3.08,4.25-4.64c0.18-0.2,0.17-0.54-0.09-0.69
				c-3.29-1.84-6.62-3.63-9.95-5.39c-0.92-0.49-1.84-0.97-2.76-1.45c-0.13-0.07-0.32-0.09-0.44,0C8.71,0.15,8.59,0.25,8.47,0.34
				c-0.19,0.14-0.28,0.38-0.16,0.6c0.11,0.19,0.41,0.3,0.6,0.16C9.03,1,9.15,0.91,9.28,0.82c-0.15,0-0.29,0-0.44,0
				c3.29,1.73,6.58,3.47,9.84,5.26c0.96,0.53,1.92,1.06,2.87,1.59c-0.03-0.23-0.06-0.46-0.09-0.69c-2.38,2.63-4.79,5.23-7.22,7.81
				c-0.1,0.11-0.25,0.33-0.4,0.38c-0.14,0.05-0.28-0.07-0.39-0.14c-0.39-0.21-0.78-0.43-1.17-0.65c-0.75-0.42-1.49-0.84-2.23-1.27
				c-1.48-0.86-2.95-1.74-4.4-2.65C3.96,9.42,2.3,8.34,0.67,7.24C0.7,7.47,0.73,7.7,0.76,7.92c2.72-2.33,5.46-4.63,8.24-6.9
				c0.18-0.15,0.15-0.46,0-0.62C8.82,0.23,8.56,0.26,8.38,0.41z"/>
		</g>
	</g>
	<g>
		<path class="st1" d="M13.37,15.61c-0.02,1.47,0.04,2.94,0.2,4.41c0.03,0.23,0.18,0.44,0.44,0.44c0.22,0,0.46-0.2,0.44-0.44
			c-0.16-1.46-0.22-2.93-0.2-4.41C14.25,15.05,13.38,15.05,13.37,15.61L13.37,15.61z"/>
	</g>
	<g>
		<path class="st2" d="M19.04,10.31c-2.07-1.07-3.99-2.11-5.88-3.16c1.01-0.97,2.03-1.93,3.05-2.91L13.7,2.97
			c-1.03,0.95-2.04,1.86-3.06,2.77C9.09,4.87,7.54,3.98,5.93,3.05L3.86,4.94c1.55,0.9,3.08,1.83,4.61,2.75
			c-1.11,0.98-2.22,1.96-3.38,2.97l-0.01,0.27c0,1.55-0.03,2.75-0.1,4.3l2.77,1.72c0-1.55,0.01-3.1,0.01-4.64l0-0.06
			c1.05-0.98,2.14-2.01,3.23-3.04c1.96,1.21,4,2.23,5.91,3.43l0.06,0.81c0.09,1.31,0.06,2.37,0.14,3.68l2.09-2.43
			C19.19,12.93,19.07,12.1,19.04,10.31z"/>
		<g>
			<path class="st1" d="M19.26,9.93c-1.97-1.02-3.93-2.08-5.88-3.16c0.03,0.23,0.06,0.46,0.09,0.69c1.02-0.97,2.03-1.94,3.05-2.91
				c0.19-0.19,0.16-0.56-0.09-0.69c-0.84-0.42-1.67-0.84-2.51-1.26c-0.18-0.09-0.38-0.07-0.53,0.07c-1.01,0.93-2.03,1.85-3.06,2.77
				c0.18-0.02,0.35-0.05,0.53-0.07C9.29,4.47,7.72,3.58,6.15,2.67c-0.17-0.1-0.39-0.06-0.53,0.07C4.93,3.37,4.24,4,3.55,4.63
				C3.34,4.82,3.4,5.18,3.64,5.32c1.55,0.89,3.08,1.82,4.61,2.75C8.22,7.84,8.19,7.61,8.16,7.38c-0.64,0.57-1.28,1.13-1.93,1.7
				C5.92,9.36,5.61,9.63,5.3,9.9c-0.27,0.24-0.63,0.44-0.65,0.83c-0.03,0.68-0.01,1.37-0.02,2.05c-0.02,0.82-0.05,1.64-0.08,2.46
				c-0.01,0.16,0.09,0.3,0.22,0.38c0.92,0.57,1.85,1.15,2.77,1.72c0.28,0.18,0.66-0.05,0.66-0.38c0-1.57,0.03-3.13,0.01-4.7
				c-0.04,0.1-0.09,0.21-0.13,0.31c1.08-1.01,2.15-2.03,3.23-3.04c-0.18,0.02-0.35,0.05-0.53,0.07c1.94,1.19,3.98,2.22,5.91,3.43
				c-0.07-0.13-0.14-0.25-0.22-0.38c0.11,1.5,0.11,3,0.21,4.5c0.02,0.35,0.48,0.62,0.75,0.31c0.48-0.56,0.96-1.11,1.44-1.67
				c0.21-0.24,0.43-0.49,0.63-0.73c0.2-0.24,0.15-0.53,0.15-0.83c-0.01-0.4-0.02-0.8-0.04-1.21c-0.04-0.9-0.1-1.8-0.11-2.71
				c-0.01-0.56-0.88-0.56-0.87,0c0.03,1.47,0.15,2.93,0.16,4.4c0.04-0.1,0.09-0.21,0.13-0.31c-0.7,0.81-1.4,1.62-2.09,2.43
				c0.25,0.1,0.5,0.21,0.75,0.31c-0.07-1.08-0.07-2.15-0.12-3.23c-0.01-0.3-0.04-0.59-0.06-0.89c-0.01-0.11-0.01-0.23-0.03-0.34
				c-0.02-0.24-0.12-0.34-0.31-0.47c-1.87-1.23-3.91-2.2-5.82-3.37c-0.17-0.1-0.39-0.06-0.53,0.07c-0.58,0.55-1.17,1.11-1.75,1.66
				c-0.29,0.27-0.58,0.54-0.86,0.81c-0.25,0.23-0.71,0.52-0.74,0.88c-0.05,0.73,0,1.48-0.01,2.21c0,0.83,0,1.66-0.01,2.5
				c0.22-0.13,0.44-0.25,0.66-0.38c-0.92-0.57-1.85-1.15-2.77-1.72c0.07,0.13,0.14,0.25,0.22,0.38c0.07-1.52,0.07-3.05,0.11-4.57
				c-0.04,0.1-0.09,0.21-0.13,0.31C6.53,9.99,7.66,8.99,8.78,8c0.22-0.19,0.14-0.55-0.09-0.69C7.16,6.39,5.63,5.46,4.08,4.57
				c0.03,0.23,0.06,0.46,0.09,0.69c0.69-0.63,1.38-1.26,2.07-1.89C6.06,3.38,5.88,3.4,5.71,3.43c1.57,0.9,3.14,1.8,4.72,2.69
				c0.18,0.1,0.38,0.06,0.53-0.07c1.02-0.92,2.05-1.84,3.06-2.77c-0.18,0.02-0.35,0.05-0.53,0.07c0.84,0.42,1.67,0.84,2.51,1.26
				c-0.03-0.23-0.06-0.46-0.09-0.69c-1.01,0.97-2.03,1.94-3.05,2.91c-0.2,0.19-0.15,0.55,0.09,0.69c1.95,1.08,3.9,2.13,5.88,3.16
				C19.32,10.94,19.76,10.19,19.26,9.93z"/>
		</g>
	</g>
	<g>
		<path class="st2" d="M9.08,8.22C9.05,8.27,9.01,8.31,8.95,8.35c-0.33,0.19-0.7,0.4-1.07,0.51c-0.37,0.11-0.73,0.22-1.1,0.29
			C6.32,9.24,5.82,9.32,5.37,9.2C4.83,9.07,4.75,8.51,4.67,8.04C4.63,7.77,4.58,7.56,4.62,7.28c0.04-0.36,0.15-0.71,0.33-1.03
			C5.1,5.98,5.33,5.7,5.62,5.59c0.57-0.22,1.18-0.28,1.79-0.18c0.51,0.09,1.1,0.18,1.49,0.56c0.2,0.19,0.29,0.35,0.22,0.6
			C9.03,6.86,9,7.17,9.02,7.47C9.04,7.72,9.2,8.02,9.08,8.22z"/>
		<g>
			<path class="st1" d="M8.7,8c0.05-0.07-0.02,0-0.04,0.01C8.61,8.03,8.57,8.07,8.52,8.09c-0.09,0.05-0.19,0.1-0.28,0.15
				c-0.2,0.1-0.39,0.17-0.61,0.23C7.19,8.61,6.74,8.74,6.27,8.8C6,8.83,5.51,8.9,5.31,8.68C5.16,8.52,5.13,8.17,5.09,7.93
				c-0.07-0.41-0.05-0.78,0.1-1.17C5.31,6.44,5.5,6.11,5.82,5.98c0.73-0.3,1.67-0.22,2.4,0.07c0.17,0.07,0.3,0.16,0.43,0.28
				C8.66,6.33,8.72,6.4,8.72,6.38c0.02,0.07-0.06,0.24-0.08,0.31C8.59,6.95,8.56,7.21,8.58,7.47C8.6,7.6,8.62,7.72,8.65,7.85
				c0.01,0.04,0.02,0.09,0.03,0.13C8.7,8.03,8.66,8.1,8.7,8c-0.1,0.22-0.06,0.47,0.16,0.6c0.19,0.11,0.5,0.06,0.6-0.16
				C9.58,8.17,9.57,7.94,9.5,7.65c-0.06-0.26-0.07-0.5-0.01-0.76C9.55,6.61,9.63,6.38,9.53,6.1C9.43,5.84,9.22,5.64,9,5.48
				C8.59,5.19,8.08,5.08,7.6,5C7,4.9,6.41,4.9,5.82,5.06C5.27,5.22,4.85,5.53,4.57,6.03C4.3,6.51,4.13,7.11,4.18,7.66
				c0.04,0.45,0.11,0.95,0.31,1.35C4.74,9.5,5.24,9.67,5.75,9.69c0.67,0.03,1.35-0.15,1.99-0.34C8.07,9.26,8.38,9.15,8.68,9
				c0.29-0.15,0.59-0.29,0.78-0.56c0.14-0.19,0.03-0.49-0.16-0.6C9.08,7.72,8.84,7.81,8.7,8z"/>
		</g>
	</g>
	<g>
		<path class="st2" d="M14.19,5.43c0.33-0.08,0.66-0.13,1-0.14c0.36-0.01,0.73,0.02,1.08,0.12c0.15,0.04,0.3,0.07,0.39,0.19
			c0.09,0.12,0.11,0.33,0.15,0.47c0.1,0.42,0.12,0.86,0.15,1.28c0.02,0.33,0.05,0.67,0.01,1c-0.09,0.64-0.39,1.11-1.04,1.29
			C14.95,9.93,13.85,9.3,13,8.92c-0.28-0.12-0.54-0.27-0.79-0.44c-0.25-0.17-0.28-0.18-0.24-0.48c0.04-0.32,0.07-0.65,0.07-0.97
			c0-0.29-0.11-0.5,0.16-0.67c0.28-0.18,0.57-0.35,0.87-0.5C13.42,5.67,13.8,5.53,14.19,5.43z"/>
		<g>
			<path class="st1" d="M14.3,5.86c0.48-0.11,0.99-0.17,1.49-0.09c0.11,0.02,0.48,0.07,0.51,0.13c0.04,0.05,0.04,0.18,0.05,0.25
				c0.03,0.13,0.05,0.25,0.07,0.38c0.07,0.5,0.11,1.03,0.1,1.53c0,0.32-0.07,0.67-0.28,0.92c-0.53,0.61-1.55,0.24-2.16-0.02
				c-0.41-0.17-0.82-0.36-1.21-0.57c-0.11-0.06-0.21-0.12-0.31-0.18c-0.03-0.02-0.23-0.18-0.26-0.17c0.07-0.03,0.02,0.26,0.07,0.07
				c0.03-0.12,0.03-0.26,0.05-0.39c0.03-0.28,0.05-0.57,0.03-0.85c0-0.04-0.01-0.08-0.01-0.12c-0.01-0.14,0.02-0.03-0.02-0.02
				c-0.07,0.03,0.05-0.02,0.06-0.03c0.08-0.04,0.16-0.1,0.23-0.14C13.22,6.23,13.74,6,14.3,5.86c0.55-0.14,0.31-0.98-0.23-0.84
				c-0.67,0.17-1.28,0.46-1.87,0.81c-0.25,0.15-0.5,0.3-0.59,0.59c-0.08,0.25-0.01,0.54-0.02,0.8c-0.01,0.31-0.08,0.62-0.08,0.93
				c0,0.28,0.13,0.46,0.35,0.62c0.47,0.35,1.01,0.58,1.54,0.82c0.99,0.45,2.27,0.93,3.25,0.19c0.97-0.73,0.79-2.13,0.66-3.19
				c-0.04-0.34-0.08-0.7-0.21-1.02c-0.14-0.35-0.43-0.49-0.78-0.58c-0.74-0.19-1.52-0.15-2.26,0.03C13.52,5.14,13.75,5.98,14.3,5.86
				z"/>
		</g>
	</g>
	<g>
		<path class="st2" d="M10.27,5.79c0.19-0.01,0.38,0,0.56,0.04c0.19,0.04,0.37,0.11,0.54,0.19c0.33,0.17,0.65,0.42,0.84,0.76
			c0.27,0.5,0.08,1.18-0.33,1.55c-0.41,0.37-0.99,0.48-1.53,0.41C9.87,8.69,9.36,8.48,9.1,8.04C8.96,7.8,8.9,7.5,8.92,7.21
			c0.01-0.2,0.06-0.39,0.13-0.57C9.27,6.12,9.73,5.83,10.27,5.79z"/>
		<g>
			<path class="st1" d="M10.27,6.23c0.56-0.03,1.2,0.21,1.49,0.66c0.09,0.13,0.1,0.16,0.13,0.32c-0.01-0.06,0,0.1,0,0.12
				c0,0.11,0.01,0.06-0.02,0.17c-0.05,0.23-0.15,0.41-0.34,0.57c-0.37,0.3-0.97,0.32-1.42,0.2C9.97,8.22,9.92,8.19,9.8,8.13
				C9.68,8.06,9.62,8.02,9.52,7.89C9.4,7.73,9.34,7.46,9.35,7.21C9.36,7.07,9.41,6.9,9.46,6.8c0.03-0.07,0.07-0.14,0.12-0.2
				c0.04-0.06-0.03,0.04,0.01-0.02C9.61,6.55,9.64,6.52,9.66,6.5c0.02-0.02,0.04-0.04,0.06-0.06c0.07-0.06-0.02,0,0.05-0.04
				C9.84,6.36,9.9,6.32,9.97,6.3c-0.02,0.01-0.06,0.02,0.02,0c0.04-0.01,0.08-0.03,0.13-0.04c0.03-0.01,0.06-0.01,0.09-0.02
				C10.29,6.21,10.17,6.23,10.27,6.23c0.24-0.02,0.44-0.19,0.44-0.44c0-0.22-0.2-0.46-0.44-0.44c-0.83,0.07-1.5,0.58-1.72,1.4
				c-0.23,0.87,0.1,1.81,0.94,2.2c0.73,0.34,1.67,0.36,2.37-0.06c0.68-0.41,1.11-1.29,0.84-2.07c-0.33-0.96-1.46-1.53-2.43-1.47
				c-0.24,0.01-0.44,0.19-0.44,0.44C9.83,6.01,10.03,6.24,10.27,6.23z"/>
		</g>
	</g>
	<g>
		<path class="st1" d="M16.67,8.01c-1.26-0.57-2.79-1.15-4.08-0.32c-0.2,0.13-0.28,0.39-0.16,0.6c0.12,0.2,0.4,0.28,0.6,0.16
			c1-0.64,2.23-0.11,3.2,0.32c0.22,0.1,0.47,0.06,0.6-0.16C16.94,8.42,16.89,8.1,16.67,8.01L16.67,8.01z"/>
	</g>
	<g>
		<path class="st1" d="M8.77,7.63C8.08,7.3,7.36,6.96,6.57,6.95C5.91,6.93,5.2,7.17,4.77,7.69c-0.15,0.18-0.18,0.44,0,0.62
			c0.15,0.15,0.47,0.18,0.62,0C5.7,7.93,6.14,7.8,6.62,7.82c0.6,0.03,1.17,0.31,1.71,0.57c0.21,0.1,0.47,0.06,0.6-0.16
			C9.04,8.04,8.99,7.73,8.77,7.63L8.77,7.63z"/>
	</g>
</g>
</svg>
