<?xml version="1.0" encoding="utf-8"?>
<!-- Generator: Adobe Illustrator 26.0.1, SVG Export Plug-In . SVG Version: 6.00 Build 0)  -->
<svg version="1.1" id="레이어_1" xmlns="http://www.w3.org/2000/svg" xmlns:xlink="http://www.w3.org/1999/xlink" x="0px"
	 y="0px" viewBox="0 0 23.81 40.98" style="enable-background:new 0 0 23.81 40.98;" xml:space="preserve">
<style type="text/css">
	.st0{fill:#FFF0E6;}
</style>
<text transform="matrix(1 0 0 1 210 460.4532)" style="font-family:'AdobeMyungjoStd-Medium-KSCpc-EUC-H'; font-size:12px;">40.9844 px</text>
<path class="st0" d="M1.94,22.81c0.93-0.25,1.86-0.5,2.78-0.76c0.51-0.14,0.68-0.11,0.54,0.47c-0.09,0.37-0.33,0.7-0.56,0.99
	c-0.46,0.57-1,1.18-1.49,1.71c-0.57,0.62-1.19,1.1-1.73,1.75c-0.25,0.29-1.05,0.94-0.94,1.38c0.16,0.64,1.99-0.15,2.41-0.26
	c2.21-0.57,4.45-1.1,6.72-1.34c-0.44,4.69-0.58,9.71-0.89,14.24h5.34c-0.44-4.78-0.96-7.46-1.22-12.64c1.9,0.91,3.83,1.76,5.8,2.5
	c0.94,0.36,1.89,0.69,2.85,1.01c0.36,0.12,2.34,1.03,2.25,0.17c-0.02-0.15-0.28-0.39-0.38-0.49c-0.44-0.45-0.88-0.89-1.33-1.34
	c-0.83-0.83-1.66-1.64-2.49-2.46c-0.72-0.71-1.54-1.39-2.18-2.17c-0.95-1.16,1.26-0.27,1.71-0.15c0.65,0.19,1.31,0.35,1.97,0.5
	c0.38,0.09,1.85,0.61,2.16,0.31c0.37-0.36-0.59-1.08-0.79-1.3c-0.41-0.44-0.82-0.88-1.22-1.33c-0.84-0.91-1.68-1.82-2.52-2.73
	c-0.46-0.5-0.92-1-1.37-1.51c-0.32-0.36-0.86-0.79-1.09-1.21c-0.42-0.78,1.05-0.12,1.41,0c0.65,0.21,1.31,0.4,1.97,0.57
	c0.57,0.15,1.38,0.48,1.97,0.44c0.48-0.03,0.43-0.29,0.15-0.67c-0.25-0.34-0.54-0.65-0.81-0.97c-0.51-0.62-1.03-1.24-1.54-1.86
	c-1.05-1.27-2.1-2.53-3.16-3.8c-0.27-0.32-1.62-1.7-1.39-2.08c0.28-0.48,1.53,0.03,1.87,0.12c0.8,0.21,1.61,0.39,2.41,0.57
	c0.62,0.14,1.6,0.41,0.91-0.49c-0.41-0.54-0.98-0.94-1.43-1.44c-0.52-0.58-1.03-1.17-1.54-1.76c-0.9-1.05-1.89-2.06-2.74-3.15
	c-0.47-0.6-0.93-1.2-1.4-1.8c-0.36-0.47-0.67-0.98-1.09-1.4c-0.69-0.7-0.98-0.54-1.48,0.24c-1.59,2.5-3.19,5-4.79,7.5
	c-0.91,1.43-1.83,2.86-2.74,4.3c-0.19,0.3-1.19,1.47-0.88,1.74c0.17,0.15,0.8-0.07,0.99-0.13c0.63-0.21,1.25-0.41,1.88-0.61
	c0.6-0.19,1.21-0.37,1.82-0.54c0.34-0.1,1.09-0.37,0.91,0.29C7.53,13.48,7.17,13.8,7.02,14c-0.39,0.51-0.78,1.02-1.19,1.52
	c-0.81,1-1.64,1.98-2.46,2.97c-0.82,0.99-1.64,1.97-2.43,2.99c-0.34,0.43-1.71,1.8-0.35,1.71C1.03,23.15,1.52,22.92,1.94,22.81z"/>
</svg>
