<?xml version="1.0" encoding="utf-8"?>
<!-- Generator: Adobe Illustrator 25.4.1, SVG Export Plug-In . SVG Version: 6.00 Build 0)  -->
<svg version="1.1" id="레이어_1" xmlns="http://www.w3.org/2000/svg" xmlns:xlink="http://www.w3.org/1999/xlink" x="0px"
	 y="0px" viewBox="0 0 32.58 29.64" style="enable-background:new 0 0 32.58 29.64;" xml:space="preserve">
<style type="text/css">
	.st0{fill:#E01E6E;}
</style>
<g>
	<path class="st0" d="M7.79,11.75c-0.08,2.73-0.19,5.45-0.29,8.18c-2.22-2.52-4.31-5.17-6.01-8.07c-0.35-0.59-1.26-0.33-1.27,0.34
		C0.13,15.47,0,18.74,0,22.01c0,0.88,1.37,0.88,1.36,0c0-2.52,0.08-5.04,0.15-7.56c1.81,2.73,3.91,5.27,6.12,7.69
		c0.42,0.46,1.14,0.08,1.16-0.48c0.13-3.3,0.26-6.6,0.36-9.91C9.18,10.87,7.81,10.87,7.79,11.75z"/>
	<path class="st0" d="M20.1,20.68c-2.41,0.05-4.81,0.1-7.21,0.19c0.02-1.24,0.04-2.48,0.05-3.72c2.32-0.05,4.64-0.06,6.97-0.11
		c0.88-0.02,0.88-1.38,0-1.36c-2.32,0.05-4.63,0.06-6.95,0.11c0.01-1.15,0.03-2.3,0.05-3.44c2.31-0.01,4.62-0.06,6.93-0.12
		c0.88-0.02,0.88-1.39,0-1.36c-2.53,0.06-5.07,0.12-7.6,0.12c-0.26,0-0.43,0.12-0.54,0.29c-0.08,0.1-0.14,0.23-0.14,0.39
		c-0.07,3.3-0.06,6.6-0.13,9.91c0,0.18,0.06,0.31,0.15,0.42c0.11,0.16,0.28,0.27,0.54,0.26c2.63-0.11,5.27-0.16,7.91-0.21
		C20.98,22.03,20.98,20.67,20.1,20.68z"/>
	<path class="st0" d="M31.21,11.11c-0.32,2.84-0.87,5.64-1.41,8.45c-0.24-0.46-0.46-0.93-0.63-1.43c-0.39-1.1-0.73-2.21-1.09-3.32
		c-0.22-0.68-1.07-0.61-1.32,0c-0.46,1.13-1.03,2.21-1.54,3.31c-0.21,0.45-0.44,0.9-0.68,1.34c-0.29-2.79-0.45-5.6-0.6-8.4
		c-0.05-0.87-1.41-0.88-1.36,0c0.19,3.5,0.38,7,0.84,10.48c0.09,0.66,0.87,0.94,1.27,0.34c0.68-1.01,1.26-2.09,1.77-3.2
		c0.28-0.6,0.57-1.2,0.85-1.79c0.19,0.59,0.39,1.18,0.6,1.76c0.41,1.12,0.98,2.15,1.63,3.16c0.29,0.45,1.13,0.45,1.25-0.16
		c0.65-3.51,1.38-6.99,1.78-10.54C32.68,10.24,31.31,10.24,31.21,11.11z"/>
	<path class="st0" d="M1.16,9.47c0.35-0.14,0.73-0.18,1.07-0.13C2.38,9.36,2.54,9.4,2.7,9.44c0.09,0.02,0.19,0.05,0.28,0.08
		c0.01,0,0.07,0.03,0.1,0.03c0.13,0.06,0.26,0.13,0.38,0.2C3.58,9.84,3.7,9.92,3.78,9.99c0.27,0.22,0.44,0.41,0.56,0.63
		c0.31,0.62,1.27,0.3,1.27-0.34c0-0.27,0-0.55,0.02-0.82c0.01-0.14,0.02-0.27,0.04-0.41C5.67,9.02,5.69,8.89,5.7,8.88
		C5.71,8.8,5.73,8.73,5.75,8.66c0.03-0.14,0.08-0.28,0.13-0.42c0.02-0.03,0.03-0.07,0.05-0.1C5.96,8.08,6,8.02,6.03,7.96
		C6.04,7.94,6.06,7.92,6.07,7.9C6.07,7.9,6.08,7.89,6.09,7.88c0.05-0.05,0.1-0.1,0.15-0.15c0.01,0,0,0,0.01-0.01
		C6.27,7.7,6.3,7.68,6.33,7.67C6.4,7.62,6.48,7.59,6.56,7.55c0.63-0.28,0.3-1.3-0.34-1.27C5.67,6.3,5.15,6.18,4.69,5.95
		C4.39,5.79,4.25,5.7,4.05,5.5C4.01,5.46,3.98,5.42,3.94,5.38c0-0.01-0.07-0.09-0.07-0.1c-0.04-0.05-0.06-0.11-0.1-0.17
		C3.76,5.09,3.76,5.08,3.75,5.07C3.74,5.04,3.73,5.01,3.72,4.98C3.72,4.96,3.7,4.95,3.7,4.93c-0.02-0.06-0.05-0.1-0.08-0.15
		C3.6,4.76,3.59,4.74,3.57,4.72C3.54,4.69,3.51,4.66,3.47,4.63C3.31,4.51,3.1,4.44,2.88,4.5C2.79,4.53,2.71,4.58,2.63,4.64
		c-0.11,0.08-0.18,0.2-0.22,0.35C2.4,5.04,2.39,5.08,2.39,5.13c0,0.01-0.01,0.02-0.01,0.03c0.01,0.4-0.01,0.52-0.08,0.86
		C2.23,6.36,2.12,6.66,2,6.89C1.84,7.22,1.69,7.45,1.48,7.66c-0.05,0.05-0.1,0.1-0.15,0.14c-0.03,0.03-0.06,0.06-0.1,0.08
		C1.22,7.9,1.21,7.9,1.19,7.92c-0.08,0.05-0.16,0.1-0.24,0.15C0.93,8.08,0.71,8.18,0.8,8.15C0.46,8.29,0.21,8.6,0.32,8.99
		C0.41,9.31,0.81,9.6,1.16,9.47z M4.76,7.44C4.55,7.82,4.43,8.26,4.36,8.72C4.13,8.57,3.9,8.43,3.68,8.34
		c-0.26-0.11-0.53-0.2-0.81-0.26C3.14,7.69,3.35,7.26,3.49,6.8C3.87,7.09,4.3,7.29,4.76,7.44z"/>
	<path class="st0" d="M12.69,2.66c-0.67-0.01-1.33-0.16-1.9-0.52c-0.46-0.29-0.8-0.74-0.85-1.21c-0.01-0.07-0.03-0.14-0.05-0.2
		c0-0.02,0.01-0.04,0.01-0.06c0.01-0.88-1.35-0.88-1.36,0C8.51,1.81,7.61,2.99,6.41,3.29C6.06,3.38,5.84,3.78,5.94,4.13
		c0.11,0.39,0.47,0.53,0.84,0.48C7.35,4.53,7.89,4.92,8.3,5.27C8.8,5.71,8.95,6.31,9.06,6.97c0.11,0.64,1.22,0.66,1.32,0
		c0.2-1.43,1.01-2.69,2.49-2.97C13.64,3.85,13.43,2.67,12.69,2.66z M9.68,4.81C9.52,4.58,9.34,4.37,9.12,4.18
		C8.9,4,8.67,3.84,8.44,3.71C8.79,3.4,9.1,3.03,9.33,2.63c0.36,0.41,0.81,0.73,1.33,0.96C10.27,3.93,9.94,4.35,9.68,4.81z"/>
	<path class="st0" d="M29.38,26.33c-0.29-0.09-0.56-0.2-0.81-0.38c-0.02-0.02-0.08-0.07-0.09-0.08c-0.05-0.05-0.1-0.1-0.14-0.15
		c-0.1-0.11-0.12-0.15-0.23-0.3c-0.43-0.64-0.29-1.32-0.26-2.06c0-0.01,0-0.01,0-0.02c0,0,0-0.01,0-0.01c0-0.33-0.2-0.53-0.45-0.6
		c-0.22-0.09-0.48-0.08-0.71,0.14c-0.88,0.89-2.06,1.95-3.43,1.6c-0.36-0.09-0.74,0.12-0.84,0.48c-0.11,0.39,0.13,0.7,0.48,0.84
		c0.28,0.11,0.52,0.2,0.79,0.36c0.21,0.12,0.32,0.23,0.45,0.45c0.39,0.69,0.44,1.46,0.13,2.18c-0.13,0.31,0.11,0.69,0.4,0.81
		c0.29,0.11,0.71,0.04,0.85-0.28c0.59-1.34,2.28-1.63,3.68-1.64C29.98,27.66,30.1,26.57,29.38,26.33z M25.74,27.11
		c-0.09-0.42-0.22-0.83-0.42-1.19c-0.06-0.11-0.14-0.19-0.21-0.28c0.48-0.18,0.94-0.45,1.37-0.77c0.07,0.47,0.22,0.9,0.5,1.3
		c0.09,0.13,0.19,0.24,0.29,0.36C26.72,26.66,26.2,26.84,25.74,27.11z"/>
</g>
</svg>
