<?xml version="1.0" encoding="utf-8"?>
<!-- Generator: Adobe Illustrator 25.4.1, SVG Export Plug-In . SVG Version: 6.00 Build 0)  -->
<svg version="1.1" id="레이어_1" xmlns="http://www.w3.org/2000/svg" xmlns:xlink="http://www.w3.org/1999/xlink" x="0px"
	 y="0px" viewBox="0 0 30.39 35.89" style="enable-background:new 0 0 30.39 35.89;" xml:space="preserve">
<style type="text/css">
	.st0{fill:#E01E6E;}
</style>
<g>
	<path class="st0" d="M0.55,11.03c-0.01,0.05-0.01,0.1-0.01,0.16c0,0.04,0,0.08,0.01,0.11c0,0.02,0,0.03,0,0.05
		c0.01,0.03,0.03,0.05,0.04,0.08c0.01,0.03,0.01,0.06,0.03,0.09c0.01,0.02,0.03,0.03,0.04,0.04c0.02,0.02,0.04,0.04,0.06,0.07
		c0.04,0.04,0.08,0.08,0.12,0.11c0.06,0.04,0.11,0.06,0.18,0.08c0.01,0,0.02,0.01,0.02,0.01c0.07,0.02,0.15,0.03,0.22,0.02
		c0.02,0,0.04,0,0.07-0.01c0.02-0.01,0.04,0,0.06-0.01c0.71-0.3,1.28-0.38,2.04-0.28c0.05,0.01,0.05,0.01,0,0
		c0.05,0.01,0.09,0.02,0.14,0.02c0.09,0.02,0.19,0.04,0.28,0.06c0.17,0.04,0.35,0.1,0.51,0.17c0.01,0.01,0.02,0.01,0.02,0.01
		c0.04,0.02,0.08,0.03,0.11,0.05c0.09,0.04,0.17,0.09,0.26,0.13c0.17,0.09,0.33,0.2,0.48,0.32c0.54,0.41,1.31-0.39,0.93-0.93
		c-0.1-0.14-0.19-0.29-0.27-0.45c-0.01-0.03-0.03-0.06-0.04-0.09c0-0.01-0.01-0.03-0.02-0.04c-0.03-0.08-0.06-0.16-0.08-0.25
		c-0.02-0.08-0.04-0.17-0.06-0.25c-0.01-0.04-0.01-0.07-0.02-0.11c0-0.01,0-0.01,0-0.03C5.67,9.96,5.66,9.78,5.67,9.59
		c0-0.04,0.01-0.09,0.01-0.13c0-0.01,0.01-0.05,0.01-0.07c0-0.02,0.01-0.07,0.01-0.07c0.01-0.04,0.02-0.09,0.03-0.13
		c0.04-0.17,0.09-0.34,0.15-0.5c0-0.01,0,0,0-0.01c0,0,0,0,0-0.01C5.9,8.64,5.92,8.6,5.94,8.56c0.04-0.08,0.08-0.15,0.13-0.23
		c0.05-0.07,0.09-0.15,0.14-0.22c0,0,0,0,0,0c0,0,0,0,0.01-0.01C6.26,8.06,6.3,8.02,6.34,7.98c0.23-0.25,0.27-0.62,0.05-0.9
		C6.19,6.83,5.8,6.72,5.51,6.9C4.86,7.32,4.2,7.56,3.44,7.5c-0.2-0.01-0.62-0.13-0.81-0.23C2.56,7.24,2.5,7.21,2.44,7.17
		c-0.02-0.01-0.22-0.15-0.15-0.1C2.21,7.01,2.14,6.95,2.08,6.88c-0.02-0.02-0.17-0.2-0.12-0.13C1.74,6.46,1.37,6.3,1.02,6.51
		c-0.3,0.18-0.45,0.63-0.24,0.93C0.9,7.61,1,7.8,1.09,7.99c0.05,0.1,0.09,0.19,0.14,0.29C1.24,8.3,1.34,8.54,1.31,8.45
		c0.06,0.16,0.11,0.33,0.15,0.49C1.46,8.96,1.5,9.23,1.49,9.11C1.5,9.2,1.51,9.29,1.51,9.37c0,0.05-0.03,0.27,0,0.08
		C1.49,9.53,1.48,9.6,1.46,9.67C1.45,9.73,1.43,9.78,1.41,9.84C1.4,9.87,1.39,9.9,1.38,9.94c0,0.01-0.01,0.01-0.01,0.03
		c-0.04,0.08-0.08,0.15-0.12,0.23c-0.01,0.02-0.16,0.22-0.08,0.13c-0.06,0.07-0.12,0.12-0.18,0.18c-0.01,0.01-0.01,0.01-0.02,0.02
		c-0.03,0.02-0.06,0.04-0.1,0.06c-0.1,0.06-0.17,0.15-0.23,0.24c-0.02,0.03-0.03,0.06-0.04,0.09C0.58,10.95,0.56,10.99,0.55,11.03z
		 M4.43,8.79C4.3,9.3,4.28,9.84,4.35,10.36c-0.52-0.15-1.06-0.22-1.61-0.2c0.07-0.22,0.11-0.44,0.12-0.67
		C2.88,9.25,2.86,9,2.81,8.75c0.16,0.04,0.32,0.08,0.48,0.1C3.67,8.9,4.06,8.86,4.43,8.79z"/>
	<path class="st0" d="M5.67,3.81c0.53,0.16,1,0.46,1.4,0.88c0.39,0.41,0.64,0.9,0.78,1.46C7.92,6.48,8.27,6.69,8.6,6.64
		c0.35-0.05,0.56-0.32,0.59-0.67c0.01-0.06,0-0.07,0-0.06c0-0.01,0-0.02,0.01-0.05c0.01-0.07,0.03-0.15,0.05-0.22
		c0.04-0.15,0.08-0.25,0.11-0.32c0.14-0.29,0.27-0.49,0.46-0.68c0.4-0.41,0.82-0.63,1.41-0.71c0.33-0.05,0.53-0.45,0.49-0.75
		c-0.05-0.36-0.32-0.55-0.67-0.59c-0.53-0.07-1.11-0.29-1.53-0.67c-0.22-0.2-0.37-0.36-0.5-0.58C8.9,1.11,8.87,0.95,8.89,0.68
		C8.9,0.31,8.56,0,8.2,0C7.8,0,7.56,0.31,7.52,0.68c-0.03,0.28-0.11,0.58-0.2,0.86c-0.06,0.18-0.18,0.36-0.3,0.49
		C6.86,2.2,6.8,2.24,6.56,2.36C6.5,2.39,6.37,2.44,6.27,2.46C6.19,2.48,6.06,2.5,6.03,2.49c-0.28-0.09-0.5,0.01-0.65,0.18
		C5.3,2.75,5.23,2.84,5.19,2.97C5.11,3.29,5.3,3.76,5.67,3.81z M7.94,3.04c0.14-0.14,0.25-0.3,0.36-0.46
		c0.09,0.1,0.17,0.2,0.27,0.29c0.2,0.19,0.42,0.34,0.65,0.47c-0.3,0.25-0.56,0.54-0.78,0.87c-0.24-0.33-0.53-0.64-0.85-0.9
		C7.71,3.24,7.83,3.15,7.94,3.04z"/>
	<path class="st0" d="M24.82,12.43c-0.59-1.87-2.34-2.45-4.15-2.29c-1.53,0.13-2.87,0.7-4.04,1.6c-0.44-2.71-1.82-5.55-5.12-4.69
		c-3.19,0.83-3.6,4.17-3.73,7c-2.95-0.68-7.23,0.36-7.73,3.71c-0.51,3.46,3.18,4.66,6.05,4.35c-0.65,1.38-1.23,2.79-1.12,4.37
		c0.1,1.55,0.89,3.07,2.6,3.18c2.29,0.15,4.18-1.48,5.3-3.51c-0.01,3.03,0,6.05,0.05,9.08c0.01,0.88,1.38,0.88,1.36,0
		c-0.05-3.43-0.06-6.86-0.04-10.29c1.8,1.81,4.47,2.45,6.75,0.42c2.16-1.93,1.65-4.96-0.23-6.72C23.47,17.91,25.76,15.4,24.82,12.43
		z M18.66,17.46c-0.8-0.08-0.88,1.11-0.18,1.34c2.34,0.76,3.55,3.84,1.54,5.59c-2.32,2.02-5.1,0.2-6.05-2.24
		c-0.27-0.69-1.32-0.63-1.34,0.18c-0.07,2.4-1.68,5.18-4.12,5.84c-1.79,0.48-2.27-1.01-2.17-2.47c0.11-1.51,0.92-2.84,1.54-4.19
		c0.23-0.5-0.16-1.21-0.77-1c-1.17,0.39-2.49,0.5-3.68,0.13c-1.31-0.4-2.46-1.74-1.89-3.16c0.98-2.41,4.59-2.69,6.7-1.88
		c0.35,0.14,0.61-0.04,0.74-0.3c0.07-0.1,0.12-0.21,0.13-0.36c0.08-2.15-0.11-5.11,2.08-6.31c3.15-1.72,4.12,2.26,4.24,4.5
		c0.03,0.57,0.74,0.93,1.16,0.48c0.95-1,2.05-1.73,3.41-2.02c1.49-0.31,3.27-0.2,3.6,1.59C24.11,15.97,21.07,17.7,18.66,17.46z"/>
	<path class="st0" d="M12.94,14.53c-1.34,0.11-2.32,1.05-2.74,2.31c-0.18,0.54-0.23,1.14-0.13,1.7c0.12,0.61,0.53,1.07,1.09,1.34
		c1.16,0.56,2.79,0.39,3.78-0.44c0.78-0.71,1.05-2.04,0.72-3.03C15.29,15.3,14.13,14.43,12.94,14.53z M13.26,15.9
		C13.19,15.89,13.23,15.89,13.26,15.9L13.26,15.9z M11.39,18.19C11.41,18.26,11.4,18.22,11.39,18.19L11.39,18.19z M11.48,18.45
		C11.45,18.42,11.44,18.38,11.48,18.45L11.48,18.45z M12.24,18.8C12.17,18.79,12.21,18.79,12.24,18.8L12.24,18.8z M13.38,18.74
		c-0.04,0.01-0.09,0.02-0.13,0.03c-0.01,0-0.08,0.01-0.11,0.02c-0.19,0.02-0.39,0.03-0.58,0.03c-0.09,0-0.19-0.01-0.28-0.02
		c-0.01,0-0.01,0-0.02,0c-0.06-0.01-0.13-0.02-0.19-0.04c-0.07-0.02-0.15-0.04-0.22-0.07c-0.02-0.01-0.06-0.03-0.08-0.04
		c-0.04-0.02-0.08-0.04-0.12-0.07c-0.01-0.01-0.07-0.05-0.08-0.05c-0.03-0.02-0.05-0.05-0.08-0.07c0,0,0,0,0,0
		c-0.01-0.02-0.04-0.08-0.04-0.09c-0.02-0.06-0.03-0.12-0.05-0.18c0,0,0-0.01,0-0.01c0-0.05-0.01-0.1-0.01-0.15
		c0-0.09,0-0.17,0.01-0.26c0-0.01,0-0.05,0.01-0.07c0.01-0.07,0.02-0.13,0.04-0.2c0.09-0.38,0.26-0.78,0.49-1.03
		c0.28-0.3,0.5-0.45,0.88-0.54c0.02,0,0.08-0.02,0.1-0.02c0.04,0,0.07-0.01,0.11-0.01c0.09,0,0.17,0,0.26,0c0.01,0,0.01,0,0.02,0
		c0.05,0.01,0.1,0.02,0.15,0.04c0.04,0.01,0.08,0.02,0.12,0.04c0.02,0.01,0.04,0.02,0.07,0.03c0.08,0.04,0.16,0.09,0.24,0.15
		c-0.1-0.07,0.07,0.06,0.11,0.09c0.07,0.07,0.14,0.14,0.2,0.21c0.01,0.01,0.04,0.06,0.06,0.07c0.02,0.03,0.07,0.11,0.08,0.14
		c0.05,0.1,0.05,0.1,0.09,0.25c0.01,0.04,0.02,0.08,0.03,0.12c0,0.02,0,0.04,0,0.06c0.01,0.1,0.01,0.2,0,0.3
		c0,0.04,0,0.08-0.01,0.12c0,0.02,0,0.03-0.01,0.05c0,0.01,0,0,0,0.02c-0.03,0.1-0.04,0.2-0.07,0.3c-0.01,0.04-0.02,0.08-0.04,0.12
		c-0.01,0.02-0.01,0.04-0.02,0.05c0,0,0,0-0.01,0.01c-0.05,0.09-0.09,0.18-0.15,0.26c0,0,0,0,0,0c0,0,0,0,0,0
		c-0.04,0.05-0.09,0.09-0.13,0.13c-0.02,0.02-0.05,0.04-0.06,0.05c-0.04,0.02-0.08,0.05-0.11,0.07c-0.05,0.03-0.1,0.05-0.14,0.07
		c-0.01,0-0.01,0-0.03,0.01C13.55,18.69,13.47,18.72,13.38,18.74z M13.68,18.65C13.7,18.64,13.73,18.63,13.68,18.65L13.68,18.65z"/>
	<path class="st0" d="M29.89,19.96c-0.69-0.1-1.09-0.48-1.57-1c-0.01-0.01-0.01-0.02-0.02-0.02c-0.02-0.03-0.04-0.05-0.06-0.08
		c-0.05-0.07-0.09-0.14-0.13-0.22c-0.07-0.13-0.16-0.32-0.2-0.4c-0.06-0.17-0.12-0.34-0.16-0.51c0-0.02-0.02-0.15-0.02-0.16
		c0-0.07-0.01-0.14,0-0.21c0.04-0.7-0.94-0.9-1.27-0.34c-0.3,0.51-0.57,0.95-0.94,1.33c-0.22,0.23-0.31,0.3-0.6,0.46
		c-0.03,0.02-0.03,0.02-0.04,0.03c-0.01,0-0.02,0-0.05,0.01c-0.07,0.02-0.13,0.04-0.2,0.05c-0.03,0.01-0.04,0.01-0.05,0.01
		c-0.01,0-0.02,0-0.05-0.01c-0.1,0-0.19,0-0.29-0.02c-0.69-0.08-0.91,0.97-0.34,1.27c0.46,0.25,0.86,0.62,1.15,1.06
		c0.16,0.25,0.25,0.44,0.32,0.71c0.04,0.14,0.04,0.2,0.04,0.27c0,0.07,0,0.15,0,0.22c0,0.03,0,0.05,0,0.05c0-0.01,0-0.01-0.02,0.06
		c0,0.02,0,0.03,0,0.05c-0.01,0.07-0.01,0.13-0.01,0.19c0,0.02,0,0.03,0.01,0.05c0.01,0.05,0.03,0.1,0.05,0.15
		c0.08,0.19,0.22,0.34,0.43,0.4c0.09,0.03,0.19,0.02,0.29,0.01c0.08-0.01,0.15-0.03,0.22-0.07c0,0,0.01,0,0.01,0
		c0.05-0.03,0.09-0.07,0.13-0.11c0.04-0.03,0.07-0.07,0.1-0.11c0.01-0.01,0.02-0.01,0.02-0.03c0.56-0.98,1.73-1.93,2.88-1.77
		c0.36,0.05,0.73-0.09,0.84-0.48C30.46,20.48,30.26,20.02,29.89,19.96z M26.53,21.07c-0.18-0.44-0.45-0.84-0.77-1.19
		c0.38-0.23,0.71-0.54,1-0.9c0.16,0.33,0.35,0.64,0.56,0.89c0.12,0.15,0.26,0.29,0.4,0.42C27.29,20.49,26.89,20.76,26.53,21.07z"/>
</g>
</svg>
