<?xml version="1.0" encoding="utf-8"?>
<!-- Generator: Adobe Illustrator 25.0.1, SVG Export Plug-In . SVG Version: 6.00 Build 0)  -->
<svg version="1.1" id="Layer_1" xmlns="http://www.w3.org/2000/svg" xmlns:xlink="http://www.w3.org/1999/xlink" x="0px" y="0px"
	 viewBox="0 0 30 30" style="enable-background:new 0 0 30 30;" xml:space="preserve">
<style type="text/css">
	.st0{fill:#189151;}
</style>
<path class="st0" d="M27.12,11.7c-0.85-2.63-3.68-4.07-6.31-3.21c-0.29,0.1-0.57,0.22-0.83,0.36c0.05-0.29,0.09-0.59,0.09-0.9
	c0-2.76-2.24-5.01-5.01-5.01c-2.76,0-5.01,2.24-5.01,5.01c0,0.31,0.03,0.61,0.09,0.9C9.87,8.71,9.6,8.58,9.3,8.49
	C6.67,7.63,3.85,9.07,3,11.7c-0.85,2.63,0.58,5.45,3.21,6.31c0.29,0.1,0.59,0.16,0.89,0.2c-0.22,0.21-0.42,0.43-0.6,0.68
	c-1.63,2.24-1.13,5.37,1.11,6.99c2.24,1.63,5.37,1.13,6.99-1.11c0.18-0.25,0.33-0.51,0.46-0.78c0.13,0.27,0.28,0.53,0.46,0.78
	c1.63,2.24,4.76,2.73,6.99,1.11c2.24-1.63,2.73-4.76,1.11-6.99c-0.18-0.25-0.38-0.47-0.6-0.68c0.3-0.04,0.59-0.1,0.89-0.2
	C26.53,17.16,27.97,14.33,27.12,11.7z M15.06,19.47c-2.27,0-4.1-1.84-4.1-4.1c0-2.27,1.84-4.1,4.1-4.1c2.27,0,4.1,1.84,4.1,4.1
	C19.16,17.64,17.32,19.47,15.06,19.47z"/>
</svg>
