<?xml version="1.0" encoding="utf-8"?>
<!-- Generator: Adobe Illustrator 26.0.1, SVG Export Plug-In . SVG Version: 6.00 Build 0)  -->
<svg version="1.1" id="레이어_1" xmlns="http://www.w3.org/2000/svg" xmlns:xlink="http://www.w3.org/1999/xlink" x="0px"
	 y="0px" viewBox="0 0 20.53 23.34" style="enable-background:new 0 0 20.53 23.34;" xml:space="preserve">
<style type="text/css">
	.st0{fill:#B0B0B0;}
</style>
<g>
	<path class="st0" d="M19.7,18.47c-1.44-1.84-2.98-3.67-4.66-5.31c0.9-1.29,1.46-2.68,1.45-4.31c0-1.96-0.81-3.81-2.03-5.31
		C12.72,1.42,10.05,0.03,7.29,0C4.63-0.03,2.11,1.35,0.93,3.78c-1.48,3.05-1.22,6.7,0.94,9.34c2.33,2.85,6.38,3.39,9.77,2.38
		c0.04,0.06,0.08,0.12,0.12,0.18c1.47,2.56,3,5.17,4.85,7.47c0.18,0.22,0.59,0.25,0.82,0.11c0.95-0.59,2.13-1.22,2.81-2.15
		C20.91,20.19,20.3,19.24,19.7,18.47z M19.17,20.29c-0.11,0.36-0.81,0.73-1.08,0.92c-0.27,0.19-0.56,0.37-0.84,0.55
		c-1.63-2.1-3-4.47-4.32-6.76c-0.14-0.21-0.27-0.42-0.41-0.64c-0.15-0.24-0.48-0.41-0.76-0.31c-2.46,0.86-5.71,0.91-7.85-0.78
		C1.4,11.29,0.84,8.03,1.84,5.12c1.64-4.8,7.64-4.52,10.83-1.51c1.27,1.2,2.21,2.79,2.43,4.54c0.22,1.83-0.44,3.34-1.52,4.76
		c-0.17,0.23-0.09,0.63,0.11,0.82c1.48,1.39,2.68,2.97,4.01,4.49C18.03,18.59,19.35,19.74,19.17,20.29z"/>
	<path class="st0" d="M10.7,3.25C8.58,1.83,5.7,1.95,3.83,3.77C2.08,5.48,1.74,8.4,2.94,10.51c0.73,1.29,2.01,2.31,3.36,2.9
		c1.26,0.55,2.53,0.53,3.85,0.24c0.95-0.24,1.83-0.88,2.57-1.51c0.76-0.64,1.14-1.7,1.27-2.67C14.33,6.89,12.79,4.65,10.7,3.25z
		 M11.87,11.11c-0.55,0.52-1.34,1.05-2.08,1.24c-0.87,0.19-1.71,0.26-2.57-0.02c-1.02-0.33-2.02-1.05-2.69-1.88
		c-1.2-1.47-1.28-3.73-0.14-5.27C5.52,3.65,7.7,3.2,9.37,4.04c1.73,0.87,3.27,2.61,3.32,4.62C12.7,9.49,12.5,10.51,11.87,11.11z"/>
</g>
</svg>
