<?xml version="1.0" encoding="utf-8"?>
<!-- Generator: Adobe Illustrator 26.0.1, SVG Export Plug-In . SVG Version: 6.00 Build 0)  -->
<svg version="1.1" id="레이어_1" xmlns="http://www.w3.org/2000/svg" xmlns:xlink="http://www.w3.org/1999/xlink" x="0px"
	 y="0px" viewBox="0 0 19.8 23.84" style="enable-background:new 0 0 19.8 23.84;" xml:space="preserve">
<style type="text/css">
	.st0{fill:#B0B0B0;}
</style>
<g>
	<path class="st0" d="M19.79,7.78c-0.02-1.1-0.05-2.2-0.07-3.29c-0.01-0.37-0.3-0.68-0.68-0.68c-0.39,0-0.79-0.02-1.18-0.04
		c-0.45-1.93-1.95-3.92-4.16-3.02c-0.21,0.09-0.41,0.21-0.6,0.33c-1.04-0.84-2.4-1.17-3.84-0.76C8.64,0.49,8.07,0.76,7.54,1.1
		c-0.47-0.58-1.02-1-1.66-1.08C3.92-0.24,2.63,2.29,2.01,3.99C1.58,3.99,1.15,4,0.73,4c-0.37,0-0.68,0.31-0.68,0.68
		c-0.01,2.95-0.02,5.9-0.03,8.85c0,1.72-0.01,3.45-0.01,5.17c0,1.14-0.08,2.39,0.19,3.51c0.17,0.74,0.68,1.35,1.46,1.49
		c1.38,0.25,2.99,0.06,4.39,0.07c2.86,0.01,5.73-0.11,8.59-0.12c1.45,0,2.9-0.02,4.35-0.03c0.37,0,0.67-0.31,0.68-0.68
		C19.74,17.89,19.84,12.83,19.79,7.78z M13.01,3.01c0.43,0.73,0.66,1.6,0.76,2.42c0.08,0.65,0.15,1.42-0.07,2.05
		c-0.33,0.94-1.38,1.23-1.87,0.24C11.1,6.22,12,4.18,13.01,3.01z M7.16,3.24C7.71,4.36,8.2,5.57,7.92,6.83
		c-0.15,0.65-0.47,1.62-1.31,1.4C5.95,8.06,5.8,7.51,5.79,6.9C5.75,5.55,6.27,4.25,7.16,3.24z M4.14,22.4
		c-0.53-0.01-2.04,0.25-2.47-0.13c-0.29-0.26-0.25-0.97-0.27-1.3c-0.11-1.87-0.04-3.77-0.04-5.64C1.38,12,1.39,8.67,1.4,5.35
		c0.37,0,0.73-0.01,1.1-0.01c0.31,0,0.56-0.21,0.65-0.5c0.34-1.07,0.89-2.3,1.73-3.07C5.55,1.16,6.06,1.46,6.46,2
		C5.45,3.03,4.74,4.36,4.54,5.78C4.28,7.5,4.69,9.56,6.84,9.64C9,9.71,9.62,6.64,9.26,5.02C9.1,4.29,8.77,3.22,8.27,2.26
		c1.05-0.7,2.37-1.12,3.49-0.51c0.1,0.06,0.19,0.13,0.29,0.19c-1.16,1.27-1.75,3.11-1.73,4.74c0.01,1.07,0.29,2.1,1.25,2.69
		c0.82,0.51,1.83,0.45,2.56-0.18c1.64-1.38,1.17-4.41,0.43-6.15c-0.15-0.34-0.33-0.65-0.53-0.95c0.41-0.23,0.86-0.32,1.34-0.06
		c0.88,0.48,1.15,1.65,1.28,2.56c0.04,0.29,0.38,0.49,0.65,0.5c0.36,0.01,0.72,0.03,1.08,0.04c0.02,0.88,0.04,1.76,0.06,2.64
		c0.05,4.83-0.04,9.67-0.12,14.5C13.6,22.33,8.87,22.48,4.14,22.4z"/>
	<path class="st0" d="M15.86,12.05c-2.13,0.02-4.25-0.02-6.38,0.02c-1.83,0.03-3.67,0.12-5.5,0.13c-0.87,0-0.87,1.35,0,1.35
		c1.84,0,3.67-0.1,5.5-0.13c2.13-0.04,4.25,0.01,6.38-0.02C16.73,13.4,16.73,12.04,15.86,12.05z"/>
	<path class="st0" d="M15.76,15.05c-3.9,0.07-7.79,0.27-11.69,0.22c-0.87-0.01-0.87,1.34,0,1.35c3.9,0.05,7.79-0.14,11.69-0.22
		C16.63,16.39,16.63,15.03,15.76,15.05z"/>
	<path class="st0" d="M15.75,18.51c-3.89,0-7.78,0.12-11.67,0.11c-0.87,0-0.87,1.35,0,1.35c3.89,0.01,7.78-0.11,11.67-0.11
		C16.62,19.87,16.62,18.51,15.75,18.51z"/>
</g>
</svg>
