<?xml version="1.0" encoding="utf-8"?>
<!-- Generator: Adobe Illustrator 25.0.1, SVG Export Plug-In . SVG Version: 6.00 Build 0)  -->
<svg version="1.1" id="Layer_1" xmlns="http://www.w3.org/2000/svg" xmlns:xlink="http://www.w3.org/1999/xlink" x="0px" y="0px"
	 viewBox="0 0 20 20" style="enable-background:new 0 0 20 20;" xml:space="preserve">
<style type="text/css">
	.st0{fill:#189151;}
	.st1{fill:none;stroke:#189151;stroke-miterlimit:10;}
</style>
<g>
	<g>
		<g>
			<g>
				<path class="st0" d="M12.56,4.25L18.31,10l-5.75,5.75H1.28V4.25H12.56 M12.97,3.25H0.28v13.49h12.7L19.72,10L12.97,3.25
					L12.97,3.25z"/>
			</g>
		</g>
		<g>
			<g>
				<path class="st0" d="M13.17,9.14c0.38,0,0.7,0.31,0.7,0.7s-0.31,0.7-0.7,0.7c-0.38,0-0.7-0.31-0.7-0.7S12.78,9.14,13.17,9.14
					 M13.17,8.14c-0.94,0-1.7,0.76-1.7,1.7s0.76,1.7,1.7,1.7s1.7-0.76,1.7-1.7S14.1,8.14,13.17,8.14L13.17,8.14z"/>
			</g>
		</g>
	</g>
	<line class="st1" x1="3.78" y1="3.5" x2="3.78" y2="16.5"/>
</g>
</svg>
