<?xml version="1.0" encoding="utf-8"?>
<!-- Generator: Adobe Illustrator 26.0.1, SVG Export Plug-In . SVG Version: 6.00 Build 0)  -->
<svg version="1.1" id="레이어_1" xmlns="http://www.w3.org/2000/svg" xmlns:xlink="http://www.w3.org/1999/xlink" x="0px"
	 y="0px" viewBox="0 0 19.68 24.03" style="enable-background:new 0 0 19.68 24.03;" xml:space="preserve">
<style type="text/css">
	.st0{fill:#B4B4B4;}
</style>
<g>
	<path class="st0" d="M15.05,12.95c0.3,0.08,0.61,0.15,0.92,0.17c1.27,0.09,2.73-0.56,2.99-1.92c0.22-1.18-0.67-2.49-1.55-3.18
		c-0.33-0.26-0.68-0.45-1.05-0.61c0.5-0.26,0.95-0.59,1.31-1.02c0.85-1.06,0.99-2.68,0.1-3.76c-0.83-1.01-2.47-0.97-3.61-0.58
		c-0.8,0.27-1.49,0.75-2.08,1.32c-0.4-1.87-1.77-3.64-3.83-3.34C5.86,0.38,5.6,2.79,6.16,4.76C4.05,4.19,1.28,4.33,0.69,6.56
		c-0.58,2.18,1.78,3.22,3.85,3.6c-0.7,0.58-1.29,1.27-1.71,2.16c-0.51,1.1-0.62,2.65,0.47,3.45c1.2,0.89,2.79,0.34,3.93-0.39
		c0.5-0.32,0.9-0.7,1.26-1.11c0.44,1.94,1.64,3.77,3.91,2.92c1.46-0.54,1.91-1.74,1.87-3.05c1.11,1.46,2.17,3,2.92,4.65
		c-0.15-0.03-0.3-0.07-0.45-0.08c-0.62-0.05-1.24,0.02-1.85,0.12c-0.08-0.02-0.15-0.03-0.24-0.03c-1.03-0.01-2.08,0.06-3.09-0.14
		c-1.33-0.26-2.62-0.69-3.99-0.59c-2.46,0.19-4.79,1.22-7.08,2.06c-0.72,0.26-0.6,1.27,0.18,1.33c1.43,0.11,2.59,1,3.87,1.54
		c1.36,0.57,2.84,0.74,4.3,0.56c1.37-0.18,2.65-0.66,3.83-1.39c0.59-0.37,1.15-0.79,1.69-1.24c0.28-0.24,0.6-0.48,0.84-0.78
		c0.01,0,0.03-0.01,0.04-0.01c0.05-0.01,0.1-0.01,0.15-0.02c0,0,0,0,0,0c0.16-0.02,0.31-0.04,0.47-0.05
		c0.28-0.02,0.56-0.03,0.83-0.01c0.05,0,0.1,0.01,0.15,0.01c0,0-0.01,0-0.01,0c0,0,0.01,0,0.02,0c0.01,0,0.02,0,0.03,0
		c0.04,0,0.04,0.01,0.03,0.01c0,0,0.01,0,0.01,0c0.12,0.02,0.24,0.05,0.36,0.08c0.12,0.03,0.24,0.07,0.35,0.11
		c0.06,0.02,0.11,0.04,0.16,0.06c0.31,0.98,0.51,1.98,0.54,3.03c0.02,0.87,1.38,0.87,1.35,0C19.58,19.43,17.42,16.02,15.05,12.95z
		 M11.46,21.3c-1.15,0.63-2.43,0.98-3.74,0.98c-1.36,0-2.54-0.42-3.74-1.04c-0.39-0.2-0.78-0.39-1.17-0.55
		c1.61-0.62,3.28-1.19,4.97-1.27c1.33-0.06,2.57,0.44,3.86,0.63c0.5,0.08,1,0.1,1.51,0.11c-0.02,0.01-0.03,0.03-0.05,0.04
		C12.59,20.61,12.04,20.99,11.46,21.3z M12.06,15.87c-2.12,1.01-2.48-2.44-2.42-3.72c0.02-0.17-0.03-0.32-0.13-0.43
		c-0.18-0.24-0.53-0.3-0.81-0.18c-0.02,0.01-0.04,0.02-0.06,0.03c-0.05,0.03-0.1,0.06-0.15,0.1c-0.03,0.03-0.05,0.06-0.07,0.09
		c-0.03,0.04-0.05,0.07-0.07,0.12c-0.01,0.02-0.03,0.04-0.04,0.06C8,12.8,7.56,13.48,6.83,14.02c-0.62,0.46-1.85,1.22-2.63,0.74
		c-0.91-0.56-0.15-1.96,0.27-2.57c0.62-0.9,1.39-1.41,2.33-1.94c0.58-0.33,0.33-1.28-0.34-1.26C5.43,9.01,1.65,8.64,2,6.92
		c0.21-1.05,1.73-1.11,2.54-1.06c0.87,0.05,1.79,0.26,2.55,0.71c0.57,0.34,1.29-0.34,0.93-0.93C7.34,4.58,6.43,1.67,8.43,1.37
		c1.78-0.26,2.65,2.26,2.36,3.64c-0.16,0.74,0.82,1.19,1.24,0.52c0.51-0.82,1.18-1.56,2.06-2c0.68-0.34,1.97-0.67,2.59-0.07
		c0.72,0.71,0.23,1.93-0.47,2.44c-0.77,0.57-1.76,0.8-2.68,1c-0.78,0.17-0.55,1.28,0.18,1.33c0.83,0.06,1.65,0.13,2.39,0.54
		c0.64,0.35,1.51,1.2,1.53,1.99c0.03,1.16-1.65,1.07-2.38,0.82c-0.79-0.27-1.51-0.66-2.19-1.13c-0.6-0.41-1.2,0.37-0.93,0.93
		C12.74,12.6,13.71,15.09,12.06,15.87z"/>
	<path class="st0" d="M16.84,20.08c0.02,0.01,0.05,0.01,0.06,0.01C16.88,20.09,16.86,20.09,16.84,20.08
		C16.84,20.08,16.84,20.08,16.84,20.08z"/>
	<path class="st0" d="M12.44,8.05c-0.11-0.48-0.41-0.88-0.81-1.16c-0.37-0.27-0.85-0.38-1.3-0.41c-0.62-0.03-1.2,0.19-1.66,0.59
		C8.09,7.6,7.86,8.52,8.12,9.26c0.31,0.87,1.14,1.43,2.06,1.44c0.84,0.01,1.68-0.49,2.07-1.24C12.48,9.02,12.55,8.53,12.44,8.05z
		 M10.9,8.02c0,0,0.01,0.01,0.01,0.01C10.85,8.01,10.84,7.97,10.9,8.02z M9.65,9.17c0,0,0.01,0.01,0.02,0.01
		C9.66,9.17,9.66,9.17,9.65,9.17C9.66,9.17,9.65,9.17,9.65,9.17z M11,8.91c0,0.01-0.01,0.01-0.01,0.02
		c-0.04,0.04-0.07,0.08-0.11,0.12c-0.02,0.02-0.04,0.04-0.06,0.05c-0.02,0.01-0.14,0.13-0.05,0.05c0.09-0.08-0.01,0-0.03,0.02
		c-0.02,0.01-0.04,0.03-0.07,0.04c-0.05,0.03-0.1,0.05-0.15,0.08c-0.02,0.01-0.05,0.02-0.07,0.02c-0.04,0.01-0.07,0.02-0.11,0.03
		c0.01,0,0.01,0,0.02,0c-0.01,0-0.03,0-0.05,0c-0.02,0-0.03,0-0.04,0c-0.04,0-0.07,0.01-0.11,0.01c-0.03,0-0.06,0-0.09,0
		c0.01,0,0.01,0,0.03,0.01c-0.01,0-0.03-0.01-0.04-0.01c-0.01,0-0.02,0-0.02,0c-0.02,0-0.02-0.01-0.03-0.01
		C10,9.32,9.97,9.31,9.93,9.3C9.9,9.29,9.87,9.28,9.83,9.27C9.78,9.24,9.72,9.21,9.67,9.18c0.01,0-0.05-0.04-0.06-0.05
		C9.57,9.09,9.53,9.05,9.5,9.02c0,0,0,0,0,0c0,0,0,0,0,0C9.49,9,9.48,8.99,9.47,8.98C9.49,9,9.48,9,9.49,9.01
		C9.47,8.97,9.45,8.94,9.43,8.9c0,0,0-0.01-0.01-0.01C9.42,8.87,9.41,8.85,9.4,8.83C9.4,8.81,9.39,8.78,9.39,8.76
		c0-0.01-0.01-0.03-0.01-0.06c0,0,0-0.01,0-0.01c0-0.04,0-0.07,0-0.11c0-0.03,0-0.05,0-0.08c0.01-0.06,0.03-0.13,0.05-0.19
		c0,0,0-0.01,0.01-0.02c0.01-0.02,0.02-0.04,0.02-0.04C9.47,8.22,9.48,8.2,9.49,8.18C9.5,8.16,9.53,8.14,9.54,8.12
		C9.53,8.13,9.51,8.15,9.48,8.18c0.05-0.05,0.09-0.1,0.14-0.15c0.01-0.01,0.01-0.01,0.01-0.01C9.66,8,9.69,7.98,9.71,7.97
		C9.75,7.94,9.79,7.92,9.83,7.9C9.88,7.87,10,7.86,10.05,7.84c0.01,0,0,0,0.01,0c0.01,0,0,0,0.01,0c0.05,0,0.1-0.01,0.15-0.01
		c0.08,0,0.16,0.01,0.24,0.01c-0.23-0.01-0.02,0,0.04,0.01c0.06,0.01,0.12,0.03,0.18,0.05c0,0,0.01,0,0.01,0.01
		c-0.01-0.01-0.02-0.01-0.03-0.02c0.03,0.02,0.07,0.03,0.1,0.05c0.04,0.02,0.1,0.07,0.14,0.09c0.02,0.02,0.04,0.03,0.06,0.05
		C10.99,8.1,11,8.12,11.02,8.14c0.02,0.03,0.03,0.05,0.05,0.08c0.01,0.01,0.02,0.03,0.02,0.04c0.01,0.05,0.03,0.11,0.05,0.16
		c0,0.03,0.01,0.07,0.01,0.09c0,0.02,0,0.04,0,0.07c-0.02,0.06-0.05,0.13-0.06,0.19c-0.01,0.02-0.03,0.05-0.04,0.07
		C11.03,8.87,11.02,8.89,11,8.91z"/>
	<path class="st0" d="M9.54,8.12C9.56,8.1,9.56,8.11,9.54,8.12L9.54,8.12z"/>
	<path class="st0" d="M10.7,7.92C10.79,7.97,10.75,7.94,10.7,7.92L10.7,7.92z"/>
	<path class="st0" d="M9.49,9.01C9.49,9.01,9.49,9.01,9.49,9.01C9.5,9.01,9.5,9.02,9.49,9.01C9.53,9.06,9.54,9.05,9.49,9.01z"/>
	<path class="st0" d="M10.04,9.33c0.02,0,0.03,0.01,0.05,0.01c0,0,0,0,0,0C10.05,9.33,10.03,9.32,10.04,9.33z"/>
	<path class="st0" d="M10.29,9.34c0.01,0,0.03,0,0.04,0c0.01,0,0.01,0,0.02,0c0,0,0,0,0.01,0C10.28,9.33,10.27,9.33,10.29,9.34z"/>
</g>
</svg>
