<?xml version="1.0" encoding="utf-8"?>
<!-- Generator: Adobe Illustrator 25.0.1, SVG Export Plug-In . SVG Version: 6.00 Build 0)  -->
<svg version="1.1" id="Layer_1" xmlns="http://www.w3.org/2000/svg" xmlns:xlink="http://www.w3.org/1999/xlink" x="0px" y="0px"
	 viewBox="0 0 20 20" style="enable-background:new 0 0 20 20;" xml:space="preserve">
<style type="text/css">
	.st0{fill:none;stroke:#189051;stroke-linecap:round;stroke-linejoin:round;stroke-miterlimit:10;}
</style>
<g>
	<g>
		<line class="st0" x1="3.52" y1="2.69" x2="3.52" y2="12.16"/>
		<circle class="st0" cx="3.52" cy="13.99" r="1.83"/>
		<line class="st0" x1="3.52" y1="15.82" x2="3.52" y2="17.31"/>
	</g>
	<g>
		<line class="st0" x1="10" y1="17.31" x2="10" y2="7.84"/>
		<path class="st0" d="M11.83,6.01c0,1.01-0.82,1.83-1.83,1.83c-1.01,0-1.83-0.82-1.83-1.83C8.17,5,8.99,4.18,10,4.18
			C11.01,4.18,11.83,5,11.83,6.01z"/>
		<line class="st0" x1="10" y1="4.18" x2="10" y2="2.69"/>
	</g>
	<g>
		<line class="st0" x1="16.48" y1="2.69" x2="16.48" y2="12.16"/>
		<path class="st0" d="M18.31,13.99c0-1.01-0.82-1.83-1.83-1.83c-1.01,0-1.83,0.82-1.83,1.83s0.82,1.83,1.83,1.83
			C17.49,15.82,18.31,15,18.31,13.99z"/>
		<line class="st0" x1="16.48" y1="15.82" x2="16.48" y2="17.31"/>
	</g>
</g>
</svg>
