<?xml version="1.0" encoding="utf-8"?>
<!-- Generator: Adobe Illustrator 26.0.1, SVG Export Plug-In . SVG Version: 6.00 Build 0)  -->
<svg version="1.1" id="레이어_1" xmlns="http://www.w3.org/2000/svg" xmlns:xlink="http://www.w3.org/1999/xlink" x="0px"
	 y="0px" viewBox="0 0 20.07 24.11" style="enable-background:new 0 0 20.07 24.11;" xml:space="preserve">
<style type="text/css">
	.st0{fill:#282828;}
	.st1{fill:#E61E6E;}
</style>
<g>
	<path class="st0" d="M20.06,7.91c-0.02-1.1-0.05-2.2-0.07-3.29c-0.01-0.44-0.36-0.81-0.81-0.81c-0.36,0-0.72-0.02-1.07-0.03
		c-0.49-1.97-2.06-3.93-4.3-3.02c-0.2,0.08-0.38,0.19-0.56,0.3c-1.06-0.82-2.43-1.14-3.89-0.73C8.77,0.48,8.21,0.74,7.7,1.06
		C7.23,0.5,6.66,0.09,6.01,0.02c-2-0.24-3.31,2.22-3.96,3.97C1.66,3.99,1.26,4,0.86,4C0.42,4.01,0.05,4.37,0.05,4.82
		c-0.01,2.95-0.02,5.9-0.03,8.85c0,1.72-0.01,3.45-0.01,5.17c0,1.15-0.08,2.41,0.19,3.55c0.19,0.8,0.74,1.44,1.57,1.58
		c1.39,0.25,3,0.06,4.41,0.07c2.86,0.01,5.73-0.11,8.59-0.12c1.45,0,2.9-0.02,4.35-0.03c0.44,0,0.81-0.37,0.81-0.81
		C20.01,18.03,20.11,12.97,20.06,7.91z M13.12,3.37c0.36,0.68,0.56,1.47,0.65,2.21c0.08,0.63,0.15,1.38-0.07,1.99
		c-0.3,0.82-1.17,1.1-1.61,0.22c-0.34-0.67-0.17-1.87,0.01-2.57C12.29,4.52,12.66,3.92,13.12,3.37z M7.27,3.63
		c0.5,1.03,0.91,2.15,0.66,3.3c-0.13,0.6-0.4,1.47-1.14,1.3c-0.6-0.13-0.71-0.67-0.72-1.2C6.02,5.79,6.48,4.59,7.27,3.63z
		 M4.28,22.4c-0.48-0.01-0.95-0.03-1.43-0.02c-0.23,0-0.75,0.11-0.94-0.07C1.66,22.08,1.7,21.4,1.68,21.1
		c-0.11-1.87-0.04-3.77-0.04-5.64c0.01-3.28,0.02-6.56,0.03-9.84c0.32,0,0.64-0.01,0.96-0.01c0.37,0,0.67-0.25,0.78-0.6
		C3.75,3.96,4.29,2.75,5.11,2C5.65,1.5,6.08,1.7,6.42,2.12C5.44,3.15,4.74,4.47,4.54,5.87C4.28,7.68,4.72,9.83,6.97,9.91
		c2.26,0.07,2.93-3.07,2.55-4.79C9.37,4.4,9.05,3.38,8.59,2.44c0.99-0.64,2.2-1,3.24-0.44c0.06,0.03,0.1,0.07,0.16,0.1
		c-1.11,1.29-1.68,3.1-1.67,4.71c0.01,1.11,0.31,2.19,1.32,2.81c0.87,0.53,1.95,0.47,2.73-0.2c1.68-1.43,1.22-4.5,0.46-6.3
		c-0.13-0.3-0.28-0.59-0.45-0.85c0.33-0.15,0.69-0.19,1.07,0.01c0.85,0.45,1.09,1.61,1.22,2.48c0.05,0.35,0.46,0.59,0.78,0.6
		c0.32,0.01,0.63,0.02,0.95,0.04c0.02,0.84,0.04,1.67,0.05,2.51c0.05,4.79-0.04,9.58-0.12,14.37C13.64,22.33,8.96,22.47,4.28,22.4z"
		/>
	<g>
		<g>
			<path class="st1" d="M4.11,13.68c1.84,0,3.67-0.1,5.5-0.13c2.13-0.04,4.25,0.01,6.38-0.02c0.87-0.01,0.87-1.36,0-1.35
				c-2.13,0.02-4.25-0.02-6.38,0.02c-1.83,0.03-3.67,0.12-5.5,0.13C3.24,12.33,3.24,13.68,4.11,13.68L4.11,13.68z"/>
		</g>
	</g>
	<g>
		<g>
			<path class="st1" d="M4.21,16.75c3.9,0.05,7.79-0.14,11.69-0.22c0.87-0.02,0.87-1.37,0-1.35C12,15.26,8.11,15.45,4.21,15.4
				C3.34,15.39,3.34,16.74,4.21,16.75L4.21,16.75z"/>
		</g>
	</g>
	<g>
		<g>
			<path class="st1" d="M4.22,20.11C8.11,20.12,12,20,15.89,20c0.87,0,0.87-1.35,0-1.35c-3.89,0-7.78,0.12-11.67,0.11
				C3.35,18.75,3.35,20.11,4.22,20.11L4.22,20.11z"/>
		</g>
	</g>
</g>
</svg>
