<?xml version="1.0" encoding="utf-8"?>
<!-- Generator: Adobe Illustrator 26.0.1, SVG Export Plug-In . SVG Version: 6.00 Build 0)  -->
<svg version="1.1" id="레이어_1" xmlns="http://www.w3.org/2000/svg" xmlns:xlink="http://www.w3.org/1999/xlink" x="0px"
	 y="0px" viewBox="0 0 19.62 23.57" style="enable-background:new 0 0 19.62 23.57;" xml:space="preserve">
<style type="text/css">
	.st0{fill:#E61E6E;}
	.st1{fill:#282828;}
</style>
<g>
	<g>
		<g>
			<path class="st0" d="M13.86,22.52c0-2.23,0-4.46-0.03-6.69c-0.02-1.47,0.14-3.36-1.26-4.29c-0.55-0.36-1.23-0.47-1.88-0.49
				c-0.83-0.02-1.77,0.03-2.52,0.42c-1.4,0.72-1.55,2.39-1.58,3.79c-0.05,2.49-0.1,4.98-0.08,7.47c0.01,0.87,1.36,0.87,1.35,0
				c-0.01-2.06-0.03-4.12,0.06-6.18c0.03-0.7,0.01-1.39,0.06-2.09c0.04-0.51,0.11-1.11,0.45-1.51c0.4-0.47,1.09-0.5,1.66-0.53
				c0.52-0.03,1.1-0.05,1.59,0.17c0.44,0.2,0.62,0.62,0.71,1.07c0.15,0.75,0.09,1.57,0.1,2.34c0.03,2.17,0.03,4.34,0.03,6.51
				C12.51,23.39,13.86,23.39,13.86,22.52L13.86,22.52z"/>
		</g>
	</g>
	<path class="st1" d="M19.42,9.9c-0.25-1.63-1.3-3.09-2.28-4.36c-1.12-1.47-2.36-2.82-3.82-3.96C12.5,0.93,11.41,0.05,10.3,0
		C9-0.05,7.81,0.92,6.9,1.73C5.7,2.78,4.62,3.98,3.52,5.14C2.35,6.37,1.19,7.71,0.54,9.31c-0.8,1.95-0.47,4.27-0.49,6.34
		c-0.02,2.37-0.04,4.74-0.04,7.11c0,0.21,0.08,0.37,0.18,0.5c0.02,0.03,0.04,0.06,0.07,0.09c0,0,0.01,0,0.01,0.01
		c0.13,0.13,0.31,0.22,0.55,0.22c5.94-0.06,11.89,0.04,17.83-0.02c0.44,0,0.81-0.37,0.81-0.81c0.02-2.19,0.07-4.39,0.09-6.58
		C19.58,14.11,19.73,11.93,19.42,9.9z M1.64,21.94c0.01-3.27,0.05-6.54,0.05-9.8c0.01-3.26,2.55-5.41,4.65-7.6
		C7.26,3.59,8.22,2.5,9.41,1.89c1.03-0.53,1.79,0.12,2.65,0.75c1.3,0.96,2.43,2.15,3.44,3.41c0.92,1.14,2.07,2.56,2.33,4.05
		c0.33,1.94,0.14,4.09,0.12,6.06c-0.02,1.93-0.06,3.85-0.08,5.78C12.45,21.98,7.05,21.9,1.64,21.94z"/>
</g>
</svg>
