<?xml version="1.0" encoding="utf-8"?>
<!-- Generator: Adobe Illustrator 26.0.1, SVG Export Plug-In . SVG Version: 6.00 Build 0)  -->
<svg version="1.1" id="레이어_1" xmlns="http://www.w3.org/2000/svg" xmlns:xlink="http://www.w3.org/1999/xlink" x="0px"
	 y="0px" viewBox="0 0 19.95 24.29" style="enable-background:new 0 0 19.95 24.29;" xml:space="preserve">
<style type="text/css">
	.st0{fill:#282828;}
	.st1{fill:#E61E6E;}
</style>
<g>
	<path class="st0" d="M15.51,13.3c0.19,0.04,0.39,0.07,0.58,0.08c1.34,0.1,2.85-0.61,3.12-2.03c0.23-1.23-0.69-2.59-1.62-3.32
		c-0.26-0.2-0.53-0.37-0.82-0.5c0.42-0.24,0.8-0.54,1.1-0.91c0.89-1.11,1.04-2.81,0.11-3.94c-0.87-1.05-2.56-1.04-3.75-0.63
		c-0.75,0.26-1.4,0.67-1.97,1.18c-0.48-1.84-1.88-3.48-3.92-3.2C5.96,0.36,5.61,2.7,6.1,4.7C3.96,4.18,1.28,4.43,0.69,6.66
		c-0.58,2.18,1.62,3.27,3.67,3.71c-0.62,0.56-1.14,1.2-1.52,2.02c-0.54,1.16-0.64,2.8,0.52,3.64c1.25,0.91,2.88,0.37,4.07-0.39
		c0.43-0.28,0.79-0.6,1.12-0.95c0.51,1.91,1.76,3.61,4.02,2.78c1.38-0.51,1.9-1.58,1.96-2.79c0.97,1.29,1.88,2.65,2.57,4.09
		c-0.08-0.01-0.15-0.03-0.23-0.04c-0.62-0.05-1.24,0.02-1.86,0.12c-0.08-0.01-0.15-0.03-0.24-0.03c-1.01-0.01-2.06,0.06-3.05-0.14
		c-1.34-0.27-2.65-0.7-4.03-0.59c-2.48,0.19-4.81,1.22-7.12,2.06c-0.87,0.32-0.72,1.52,0.22,1.6c1.41,0.11,2.57,1,3.84,1.53
		C6,23.84,7.5,24.02,8.97,23.83c1.4-0.18,2.7-0.67,3.89-1.41c0.6-0.38,1.17-0.8,1.71-1.26c0.28-0.23,0.57-0.47,0.81-0.75
		c0.01,0,0.01,0,0.02,0c0.04-0.01,0.09-0.01,0.13-0.02c0.15-0.02,0.3-0.04,0.45-0.05c0.28-0.02,0.56-0.03,0.83-0.01
		c0.06,0,0.11,0.01,0.17,0.02c0.01,0,0.01,0,0.02,0c0.12,0.02,0.24,0.05,0.36,0.08c0.12,0.03,0.24,0.07,0.35,0.11
		c0.03,0.01,0.06,0.02,0.09,0.03c0.3,0.94,0.48,1.92,0.51,2.93c0.03,1.04,1.65,1.05,1.62,0C19.85,19.66,17.81,16.32,15.51,13.3z
		 M11.53,21.32c-1.13,0.62-2.38,0.96-3.67,0.96c-1.34,0-2.5-0.41-3.67-1.02c-0.29-0.15-0.58-0.3-0.87-0.43
		c1.5-0.57,3.04-1.07,4.61-1.14c1.31-0.06,2.55,0.43,3.83,0.63c0.38,0.06,0.77,0.08,1.16,0.1C12.46,20.74,12.01,21.05,11.53,21.32z
		 M12.14,15.88c-1.99,0.96-2.29-2.41-2.23-3.59c0.03-0.21-0.03-0.38-0.15-0.52c-0.22-0.28-0.63-0.36-0.98-0.22
		c-0.02,0.01-0.05,0.03-0.07,0.04c-0.06,0.03-0.12,0.07-0.18,0.12c-0.03,0.03-0.06,0.07-0.09,0.11c-0.03,0.05-0.06,0.09-0.09,0.14
		C8.35,12,8.33,12.01,8.32,12.05c-0.3,0.82-0.73,1.46-1.42,1.99c-0.56,0.42-1.78,1.2-2.49,0.74c-0.82-0.53-0.05-1.84,0.31-2.38
		c0.6-0.88,1.36-1.38,2.28-1.89c0.7-0.39,0.4-1.53-0.41-1.51C5.64,9,1.98,8.68,2.26,7.09c0.17-0.98,1.68-1.01,2.41-0.96
		c0.85,0.05,1.74,0.26,2.48,0.69c0.69,0.4,1.55-0.41,1.11-1.11C7.65,4.73,6.7,1.92,8.58,1.64c0.78-0.12,1.42,0.55,1.81,1.14
		c0.46,0.69,0.57,1.52,0.4,2.32C10.6,6,11.77,6.53,12.27,5.73c0.5-0.8,1.15-1.52,2.01-1.95c0.61-0.31,1.85-0.65,2.43-0.09
		c0.66,0.64,0.17,1.77-0.44,2.24c-0.76,0.57-1.74,0.79-2.65,0.99c-0.94,0.21-0.65,1.53,0.22,1.6c0.8,0.06,1.61,0.12,2.32,0.52
		c0.59,0.33,1.46,1.15,1.47,1.9c0,1.04-1.57,0.89-2.21,0.67c-0.77-0.27-1.48-0.66-2.16-1.12c-0.72-0.49-1.44,0.44-1.11,1.11
		C12.71,12.72,13.69,15.14,12.14,15.88z"/>
	<g>
		<g>
			<path class="st1" d="M9.76,8.16c0.12-0.11-0.12,0.08,0.01-0.01C9.79,8.13,9.82,8.11,9.84,8.1c0.04-0.02,0.08-0.04,0.12-0.07
				c0.12-0.06-0.02,0-0.02,0.01C9.98,8,10.12,7.99,10.18,7.97c0.16-0.04-0.15,0,0.02,0c0.05,0,0.1-0.01,0.15-0.01
				c0.08,0,0.16,0.01,0.24,0.01c-0.23-0.01-0.02,0,0.04,0.01c0.06,0.01,0.12,0.03,0.18,0.05c0.06,0.02,0.13,0.08-0.02-0.01
				c0.03,0.02,0.07,0.03,0.1,0.05c0.04,0.02,0.11,0.09,0.16,0.1c-0.09-0.02-0.1-0.09-0.03-0.02c0.02,0.02,0.05,0.04,0.07,0.07
				c0.02,0.02,0.04,0.05,0.07,0.07c0.06,0.06-0.09-0.14-0.02-0.03c0.02,0.03,0.04,0.06,0.05,0.09c0.01,0.02,0.02,0.04,0.03,0.06
				c0.03,0.07,0.03,0.06-0.01-0.04c0,0.06,0.04,0.15,0.06,0.21c0.03,0.11-0.01-0.04-0.01-0.06c-0.01,0.02,0.01,0.09,0.01,0.12
				c0,0.03,0,0.05,0,0.08c0,0.14,0.04-0.16,0-0.02c-0.01,0.07-0.07,0.16-0.07,0.22c0-0.01,0.07-0.15,0.02-0.05
				c-0.02,0.03-0.04,0.07-0.06,0.1C11.16,9,11.15,9.02,11.13,9.04c-0.01,0.01-0.01,0.02-0.02,0.03c-0.04,0.06-0.03,0.04,0.04-0.04
				c-0.05,0.03-0.09,0.1-0.13,0.15C11,9.19,10.98,9.21,10.96,9.23c-0.02,0.01-0.14,0.13-0.05,0.05c0.09-0.08-0.01,0-0.03,0.02
				c-0.02,0.01-0.04,0.03-0.07,0.04c-0.06,0.03-0.11,0.06-0.17,0.09c-0.13,0.06,0.15-0.05,0.02-0.01c-0.02,0.01-0.05,0.02-0.07,0.02
				c-0.04,0.01-0.07,0.02-0.11,0.03c-0.09,0.02-0.11-0.02,0.03,0c-0.06-0.01-0.13,0.01-0.19,0.01c-0.04,0-0.08,0-0.12-0.01
				c-0.07,0-0.05-0.04,0.06,0.01c-0.06-0.02-0.13-0.03-0.19-0.04C10.03,9.42,9.99,9.41,9.95,9.4C9.83,9.36,10.08,9.47,9.97,9.4
				C9.91,9.37,9.85,9.34,9.79,9.3C9.78,9.29,9.66,9.22,9.76,9.28c0.1,0.06-0.01-0.01-0.03-0.03C9.69,9.22,9.65,9.15,9.6,9.11
				c0.1,0.08,0.07,0.1,0.03,0.03C9.6,9.11,9.58,9.07,9.56,9.03C9.55,9.01,9.54,8.99,9.53,8.97c0.04,0.11,0.05,0.13,0.03,0.06
				C9.55,9.01,9.54,8.98,9.54,8.96C9.53,8.94,9.52,8.91,9.52,8.89C9.51,8.86,9.49,8.7,9.5,8.84c0.02,0.13,0,0.01,0-0.02
				c0-0.04,0-0.07,0-0.11c0-0.04,0-0.07,0.01-0.11c0.01-0.13-0.04,0.17,0,0.04c0.02-0.07,0.03-0.14,0.05-0.21
				c0.01-0.02,0.05-0.13,0-0.02C9.51,8.54,9.58,8.4,9.59,8.38C9.6,8.36,9.61,8.34,9.62,8.32c0.03-0.06,0.13-0.15-0.01-0.01
				C9.66,8.26,9.7,8.21,9.76,8.16c0.26-0.24,0.26-0.72,0-0.96c-0.28-0.26-0.68-0.26-0.96,0C8.23,7.73,7.99,8.65,8.25,9.39
				c0.31,0.87,1.14,1.43,2.06,1.44c0.84,0.01,1.68-0.49,2.07-1.24c0.23-0.44,0.3-0.93,0.19-1.41c-0.11-0.48-0.41-0.88-0.81-1.16
				c-0.37-0.27-0.85-0.38-1.3-0.41C9.84,6.58,9.26,6.8,8.8,7.2c-0.27,0.23-0.26,0.72,0,0.96C9.08,8.42,9.47,8.41,9.76,8.16z"/>
		</g>
	</g>
</g>
</svg>
