<?xml version="1.0" encoding="utf-8"?>
<!-- Generator: Adobe Illustrator 26.0.1, SVG Export Plug-In . SVG Version: 6.00 Build 0)  -->
<svg version="1.1" id="레이어_1" xmlns="http://www.w3.org/2000/svg" xmlns:xlink="http://www.w3.org/1999/xlink" x="0px"
	 y="0px" viewBox="0 0 19.96 23.76" style="enable-background:new 0 0 19.96 23.76;" xml:space="preserve">
<style type="text/css">
	.st0{fill:#282828;}
	.st1{fill:#E61E6E;}
</style>
<g>
	<path class="st0" d="M17.46,15.92c-1.09-1.92-2.55-3.29-4.34-4.43c1.76-1.39,2.86-3.12,3.03-5.56c0.18-2.49-1.26-4.69-3.61-5.52
		c-2.31-0.82-5.34-0.4-7.15,1.31C3.88,3.14,3.24,5.36,3.53,7.4c0.27,1.89,1.35,3.48,2.91,4.43c-2.14,1.4-3.89,3.39-5.03,5.69
		C0.62,19.09-0.01,21.17,0,22.95c0,0.44,0.37,0.81,0.81,0.81c5.05-0.01,10.1-0.01,15.14,0c1.07,0,2.13,0,3.2,0
		c0.57,0,0.87-0.52,0.78-1.03C19.53,20.33,18.66,18.03,17.46,15.92z M8.63,12.43c0.65-0.32,0.44-1.3-0.19-1.48
		C4.35,9.78,3.8,3.38,8.04,1.99c2.3-0.76,5.53-0.33,6.34,2.33c0.37,1.22,0.12,2.7-0.41,3.85c-0.56,1.21-1.64,1.99-2.73,2.68
		c-0.5,0.32-0.55,1.1,0,1.4c2.07,1.15,3.69,2.46,4.85,4.54c0.94,1.68,1.63,3.47,2.06,5.34c-0.73,0-1.46,0-2.19,0
		c-4.76-0.01-9.51-0.01-14.27,0c0.14-1.29,0.58-2.71,1.12-3.81C4.07,15.78,6.08,13.7,8.63,12.43z"/>
	<g>
		<g>
			<path class="st1" d="M7.04,5.67c0-0.05,0-0.1,0-0.14c0-0.12-0.04,0.16-0.01,0.04c0.01-0.04,0.03-0.09,0.04-0.13
				C7.06,5.5,7,5.59,7.06,5.48C7.08,5.45,7.09,5.43,7.11,5.4c0.06-0.1-0.12,0.13,0,0C7.16,5.34,7.23,5.3,7.28,5.24
				C7.26,5.26,7.23,5.28,7.2,5.3c0.02-0.01,0.04-0.03,0.06-0.04c0.03-0.02,0.07-0.04,0.1-0.06c0.06-0.04,0.13-0.06,0.19-0.1
				c-0.19,0.1-0.07,0.03-0.01,0.01C7.56,5.1,7.59,5.09,7.62,5.09c0.03-0.01,0.06-0.02,0.1-0.02c0.07-0.01,0.15,0-0.05,0
				c0.08,0,0.16-0.01,0.25,0c0.13,0-0.17-0.04-0.04-0.01C7.91,5.06,7.96,5.07,8,5.08c0.04,0.01,0.08,0.03,0.12,0.04
				c0.12,0.04-0.13-0.07-0.03-0.01c0.08,0.04,0.15,0.08,0.22,0.13c0.1,0.06-0.13-0.11,0,0.01c0.03,0.02,0.05,0.05,0.08,0.08
				c0.02,0.02,0.12,0.14,0.04,0.04C8.35,5.27,8.44,5.39,8.46,5.41c0.02,0.03,0.03,0.07,0.05,0.1C8.46,5.4,8.45,5.38,8.48,5.45
				C8.49,5.47,8.5,5.49,8.5,5.51c0.01,0.03,0.01,0.08,0.02,0.11C8.51,5.5,8.51,5.48,8.52,5.55c0,0.03,0,0.05,0,0.08
				c0.01,0.35,0.31,0.69,0.68,0.68c0.36-0.02,0.68-0.3,0.68-0.68C9.86,4.74,9.19,3.99,8.34,3.77c-0.76-0.2-1.57,0.07-2.13,0.61
				C5.87,4.72,5.65,5.19,5.69,5.67c0.03,0.35,0.29,0.69,0.68,0.68C6.71,6.34,7.07,6.05,7.04,5.67L7.04,5.67z"/>
		</g>
	</g>
	<g>
		<g>
			<path class="st1" d="M11.55,5.98c0.07-0.17,0.15-0.33,0.23-0.49c0.04-0.07,0.08-0.13,0.12-0.2c0.03-0.05,0.1-0.11-0.03,0.04
				c0.03-0.03,0.05-0.06,0.08-0.09c0.02-0.02,0.04-0.04,0.06-0.06c0.1-0.1-0.08,0.05-0.04,0.03c0.05-0.03,0.1-0.06,0.16-0.09
				c0.09-0.06-0.18,0.07-0.03,0.01c0.03-0.01,0.06-0.02,0.09-0.03c0.04-0.01,0.07-0.02,0.11-0.02c0.15-0.04-0.16,0.01-0.03,0
				c0.09-0.01,0.18-0.01,0.27-0.01c0.04,0,0.08,0.01,0.12,0.01c-0.2,0-0.07-0.01-0.01,0.01c0.04,0.01,0.08,0.03,0.12,0.04
				c-0.17-0.03-0.09-0.04-0.03-0.01c0.04,0.02,0.08,0.06,0.12,0.08c-0.13-0.06-0.09-0.07-0.03-0.02c0.03,0.03,0.07,0.06,0.1,0.1
				c0.04,0.04,0.09,0.14-0.02-0.03c0.04,0.07,0.09,0.13,0.13,0.2c0.02,0.03,0.03,0.06,0.05,0.09c0.03,0.05,0.07,0.2,0-0.01
				c0.02,0.07,0.05,0.14,0.07,0.21c0.1,0.34,0.48,0.59,0.83,0.47c0.34-0.11,0.58-0.47,0.47-0.83c-0.13-0.42-0.35-0.85-0.68-1.15
				c-0.41-0.37-0.94-0.55-1.49-0.5c-0.48,0.04-0.92,0.19-1.27,0.53c-0.3,0.29-0.49,0.68-0.65,1.06c-0.07,0.17-0.12,0.33-0.07,0.52
				c0.04,0.16,0.16,0.33,0.31,0.4C10.91,6.38,11.4,6.33,11.55,5.98L11.55,5.98z"/>
		</g>
	</g>
</g>
</svg>
