<?xml version="1.0" encoding="utf-8"?>
<!-- Generator: Adobe Illustrator 26.0.2, SVG Export Plug-In . SVG Version: 6.00 Build 0)  -->
<svg version="1.1" id="레이어_1" xmlns="http://www.w3.org/2000/svg" xmlns:xlink="http://www.w3.org/1999/xlink" x="0px"
	 y="0px" viewBox="0 0 22.97 26.76" style="enable-background:new 0 0 22.97 26.76;" xml:space="preserve">
<style type="text/css">
	.st0{fill:#FFF0E6;}
	.st1{fill:#282828;}
	.st2{fill:#FF828C;}
	.st3{fill:#FFD2AA;}
	.st4{fill:#E6FFFF;}
	.st5{fill:#FFFFFF;}
</style>
<g>
	<g>
		<g>
			<path class="st0" d="M2.46,15.03c0.08,3.57,0.16,7.61,0.23,11.18l16.74-0.13c0.01-4.12,0.09-8.35,0.07-12.18"/>
		</g>
		<g>
			<g>
				<path class="st1" d="M1.92,15.03C2,18.76,2.07,22.49,2.15,26.22c0.01,0.29,0.24,0.54,0.54,0.54c4.87-0.04,9.74-0.07,14.62-0.11
					c0.71-0.01,1.42-0.01,2.13-0.02c0.29,0,0.54-0.25,0.54-0.54c0.01-4.06,0.09-8.12,0.07-12.18c0-0.7-1.09-0.7-1.08,0
					c0.02,4.06-0.06,8.12-0.07,12.18c0.18-0.18,0.36-0.36,0.54-0.54c-4.87,0.04-9.74,0.07-14.62,0.11
					c-0.71,0.01-1.42,0.01-2.13,0.02c0.18,0.18,0.36,0.36,0.54,0.54C3.16,22.49,3.08,18.76,3,15.03
					C2.99,14.34,1.91,14.34,1.92,15.03L1.92,15.03z"/>
			</g>
		</g>
	</g>
	<g>
		<g>
			<path class="st2" d="M6.81,5.93C6.4,8.78,6.08,11.25,5.65,14.2c0.53,1.04,1.45,1.98,2.61,2.04c1.16,0.06,2.32-1.1,2.96-2.08
				c0.01,0.01,0.02,0.03,0.03,0.04c-0.01-2.95-0.04-5.5-0.07-8.33C9.9,5.9,8.47,5.91,6.81,5.93z"/>
		</g>
		<g>
			<g>
				<path class="st1" d="M6.28,5.78c-0.23,1.58-0.44,3.16-0.66,4.75c-0.11,0.78-0.22,1.57-0.33,2.35c-0.06,0.41-0.16,0.84-0.18,1.25
					c-0.01,0.32,0.2,0.62,0.37,0.88c0.68,1,1.78,1.88,3.06,1.77c1.36-0.12,2.43-1.27,3.14-2.34c-0.31,0-0.63,0-0.94,0
					c0.01,0.01,0.02,0.03,0.03,0.04c0.29,0.43,1.02,0.29,1.02-0.28c-0.01-2.78-0.04-5.56-0.07-8.33c0-0.29-0.25-0.55-0.55-0.55
					C9.72,5.35,8.27,5.37,6.81,5.38c-0.7,0.01-0.7,1.1,0,1.09c1.46-0.01,2.92-0.03,4.37-0.05C11,6.24,10.82,6.06,10.64,5.87
					c0.02,2.78,0.06,5.56,0.07,8.33c0.34-0.09,0.68-0.18,1.02-0.28c-0.01-0.01-0.02-0.03-0.03-0.04c-0.24-0.35-0.71-0.35-0.94,0
					c-0.52,0.77-1.39,1.82-2.41,1.81c-1.03-0.01-1.77-0.94-2.21-1.77c0.02,0.14,0.04,0.28,0.06,0.42c0.4-2.76,0.76-5.52,1.15-8.28
					C7.43,5.38,6.38,5.09,6.28,5.78z"/>
			</g>
		</g>
	</g>
	<g>
		<g>
			<path class="st3" d="M5.17,5.94l-1.9,0.07c-0.9,2.4-1.61,4.48-2.47,6.9c-0.18,0.51-0.36,1.06-0.21,1.58
				c0.11,0.37,0.37,0.67,0.67,0.9c1.37,1.06,3.58,0.34,4.39-1.2c0,0,0.01,0.01,0.01,0.01c0.42-2.95,0.74-5.42,1.15-8.28
				C6.27,5.93,5.8,5.94,5.17,5.94z"/>
		</g>
		<g>
			<g>
				<path class="st1" d="M5.17,5.4C4.54,5.42,3.9,5.44,3.27,5.46c-0.26,0.01-0.44,0.17-0.53,0.4c-0.58,1.55-1.13,3.12-1.69,4.68
					c-0.28,0.79-0.57,1.58-0.84,2.37c-0.24,0.72-0.36,1.48,0.04,2.17c1.34,2.3,4.75,1.38,5.85-0.62c-0.31,0-0.63,0-0.94,0
					c0,0,0.01,0.01,0.01,0.01c0.22,0.35,0.93,0.37,1-0.13c0.4-2.76,0.76-5.52,1.15-8.28C7.38,5.73,7.2,5.38,6.81,5.38
					C6.26,5.39,5.72,5.39,5.17,5.4c-0.7,0-0.7,1.1,0,1.09c0.55,0,1.09-0.01,1.64-0.01C6.63,6.24,6.46,6.01,6.28,5.78
					c-0.4,2.76-0.76,5.52-1.15,8.28c0.33-0.04,0.66-0.09,1-0.13c0,0-0.01-0.01-0.01-0.01c-0.21-0.34-0.74-0.37-0.94,0
					c-0.43,0.79-1.25,1.34-2.15,1.43c-0.93,0.09-2.12-0.48-1.91-1.58c0.12-0.63,0.4-1.24,0.61-1.83c0.23-0.64,0.45-1.28,0.68-1.92
					C2.86,8.72,3.32,7.44,3.8,6.15c-0.18,0.13-0.35,0.27-0.53,0.4c0.63-0.02,1.27-0.05,1.9-0.07C5.87,6.46,5.87,5.37,5.17,5.4z"/>
			</g>
		</g>
	</g>
	<g>
		<g>
			<path class="st3" d="M15.13,5.79c-1.44,0.03-2.72,0.06-3.95,0.08c0.02,2.83,0.06,5.38,0.07,8.33c0.48,0.88,1.65,1.99,2.63,1.96
				c1-0.04,2.12-1.06,2.52-1.98c0.04,0.05,0.08,0.07,0.12,0.11c-0.27-1.79-0.54-3.4-0.82-5.14C15.5,7.88,15.32,6.84,15.13,5.79z"/>
		</g>
		<g>
			<g>
				<path class="st1" d="M15.13,5.25c-1.32,0.03-2.63,0.06-3.95,0.08c-0.29,0.01-0.55,0.25-0.55,0.55c0.01,1.6,0.03,3.19,0.05,4.79
					c0.01,0.78,0.01,1.55,0.02,2.33c0,0.39-0.05,0.83,0.01,1.21c0.05,0.3,0.23,0.54,0.41,0.79c0.66,0.87,1.73,1.82,2.9,1.7
					c1.23-0.12,2.34-1.16,2.85-2.24c-0.29,0.04-0.57,0.07-0.86,0.11c0.04,0.04,0.08,0.08,0.12,0.11c0.42,0.41,0.99-0.02,0.91-0.53
					c-0.42-2.84-0.9-5.68-1.39-8.51c-0.12-0.69-1.17-0.4-1.05,0.29c0.49,2.83,0.97,5.67,1.39,8.51c0.3-0.18,0.61-0.35,0.91-0.53
					c-0.04-0.04-0.08-0.08-0.12-0.11c-0.23-0.23-0.7-0.22-0.86,0.11c-0.37,0.78-1.3,1.87-2.28,1.69c-0.47-0.09-0.9-0.44-1.23-0.76
					c-0.18-0.17-0.34-0.36-0.49-0.57c-0.17-0.24-0.14-0.37-0.14-0.67c-0.01-2.57-0.04-5.15-0.07-7.72
					c-0.18,0.18-0.36,0.36-0.55,0.55c1.32-0.02,2.63-0.05,3.95-0.08C15.83,6.32,15.84,5.23,15.13,5.25z"/>
			</g>
		</g>
	</g>
	<g>
		<g>
			<path class="st2" d="M20.64,12.23c-0.85-2.08-1.59-3.86-2.45-5.94c-0.07-0.16-0.14-0.34-0.28-0.44c-0.18-0.13-1.02-0.1-1.24-0.1
				c-0.58,0.01-1.03,0.02-1.54,0.03c0.18,1.05,0.37,2.09,0.58,3.37c0.28,1.74,0.55,3.35,0.82,5.14c0.59,0.67,1.12,1.08,1.89,1.29
				c0.82,0.22,1.85-0.08,2.34-0.78C21.34,13.96,21.04,13.19,20.64,12.23z"/>
		</g>
		<g>
			<g>
				<path class="st1" d="M21.17,12.08c-0.76-1.86-1.54-3.72-2.3-5.58c-0.15-0.36-0.26-0.77-0.57-1.03
					c-0.23-0.19-0.52-0.23-0.81-0.25c-0.78-0.06-1.57,0.01-2.35,0.03c-0.38,0.01-0.59,0.34-0.53,0.69c0.28,1.61,0.55,3.22,0.81,4.83
					c0.14,0.85,0.27,1.7,0.41,2.54c0.06,0.38,0.04,0.92,0.23,1.26c0.16,0.3,0.53,0.59,0.79,0.8c1.03,0.83,2.46,1.15,3.63,0.41
					c0.57-0.35,0.99-0.93,1.11-1.6C21.72,13.45,21.44,12.76,21.17,12.08c-0.26-0.64-1.32-0.36-1.05,0.29
					c0.21,0.51,0.51,1.11,0.39,1.67c-0.11,0.54-0.58,0.89-1.08,1.02c-0.53,0.14-1.06,0-1.52-0.27c-0.21-0.12-0.39-0.27-0.56-0.43
					c-0.3-0.28-0.32-0.39-0.38-0.78c-0.4-2.65-0.85-5.3-1.31-7.94c-0.18,0.23-0.35,0.46-0.53,0.69c0.66-0.01,1.33-0.05,2-0.04
					c0.3,0,0.45-0.04,0.55,0.15c0.2,0.37,0.34,0.82,0.5,1.21c0.65,1.57,1.3,3.15,1.95,4.72C20.38,13.01,21.44,12.73,21.17,12.08z"/>
			</g>
		</g>
	</g>
	<g>
		<g>
			<path class="st4" d="M5.66,25.97c0.03-2.16-0.03-4.51,0-6.67c1.79-0.03,3.17-0.03,4.89-0.03c-0.02,2.26,0,4.21,0,6.68"/>
		</g>
		<g>
			<g>
				<path class="st1" d="M6.2,25.97c0.03-2.22-0.03-4.45,0-6.67c-0.18,0.18-0.36,0.36-0.54,0.54c1.63-0.03,3.26-0.03,4.89-0.03
					c-0.18-0.18-0.36-0.36-0.54-0.54c-0.02,2.23,0,4.45,0,6.68c0,0.7,1.08,0.7,1.08,0c0-2.23-0.02-4.45,0-6.68
					c0-0.29-0.25-0.54-0.54-0.54c-1.63,0-3.26,0-4.89,0.03C5.37,18.76,5.12,19,5.12,19.3c-0.03,2.22,0.03,4.45,0,6.67
					C5.11,26.67,6.2,26.67,6.2,25.97L6.2,25.97z"/>
			</g>
		</g>
	</g>
	<g>
		<g>
			<path class="st1" d="M8.29,22.54c0,0.27,0,0.54,0,0.81c0,0.14,0.06,0.28,0.16,0.38c0.09,0.09,0.25,0.16,0.38,0.16
				c0.29-0.01,0.54-0.24,0.54-0.54c0-0.27,0-0.54,0-0.81c0-0.14-0.06-0.28-0.16-0.38C9.12,22.06,8.97,21.99,8.83,22
				C8.54,22.01,8.29,22.23,8.29,22.54L8.29,22.54z"/>
		</g>
	</g>
	<g>
		<circle class="st5" cx="18.31" cy="4.67" r="4.12"/>
		<path class="st1" d="M18.31,9.33c-2.57,0-4.67-2.09-4.67-4.67c0-2.57,2.09-4.66,4.67-4.66c2.57,0,4.66,2.09,4.66,4.66
			C22.97,7.24,20.88,9.33,18.31,9.33z M18.31,1.09c-1.97,0-3.58,1.6-3.58,3.57s1.6,3.58,3.58,3.58s3.57-1.6,3.57-3.58
			S20.28,1.09,18.31,1.09z"/>
	</g>
	<g>
		<g>
			<path class="st1" d="M16.31,5.12c1.34-0.03,2.67,0,4.01-0.03c0.29-0.01,0.54-0.24,0.54-0.54c0-0.29-0.25-0.55-0.54-0.54
				c-1.34,0.03-2.67,0-4.01,0.03c-0.29,0.01-0.54,0.24-0.54,0.54C15.77,4.87,16.02,5.13,16.31,5.12L16.31,5.12z"/>
		</g>
	</g>
	<g>
		<g>
			<path class="st1" d="M17.76,2.59c0.01,1.38,0.01,2.76,0.02,4.14c0,0.7,1.09,0.7,1.08,0c-0.01-1.38-0.01-2.76-0.02-4.14
				C18.84,1.9,17.75,1.9,17.76,2.59L17.76,2.59z"/>
		</g>
	</g>
	<g>
		<g>
			<line class="st5" x1="2.7" y1="26.22" x2="19.44" y2="26.09"/>
		</g>
		<g>
			<g>
				<path class="st1" d="M2.7,26.76c4.88-0.04,9.76-0.07,14.64-0.11c0.7-0.01,1.4-0.01,2.11-0.02c0.7-0.01,0.7-1.09,0-1.08
					c-4.88,0.04-9.76,0.07-14.64,0.11c-0.7,0.01-1.4,0.01-2.11,0.02C2,25.68,2,26.76,2.7,26.76L2.7,26.76z"/>
			</g>
		</g>
	</g>
</g>
</svg>
