<?xml version="1.0" encoding="utf-8"?>
<!-- Generator: Adobe Illustrator 26.0.2, SVG Export Plug-In . SVG Version: 6.00 Build 0)  -->
<svg version="1.1" id="레이어_1" xmlns="http://www.w3.org/2000/svg" xmlns:xlink="http://www.w3.org/1999/xlink" x="0px"
	 y="0px" viewBox="0 0 23.04 24.79" style="enable-background:new 0 0 23.04 24.79;" xml:space="preserve">
<style type="text/css">
	.st0{fill:#FFB1CF;}
	.st1{fill:#282828;}
	.st2{fill:#FFFFFF;}
	.st3{fill:#FFEBF0;}
	.st4{fill:#FAFAFA;}
</style>
<g>
	<g>
		<path class="st0" d="M8.83,5.54c0.11-0.53,0.44-1.32,0.96-1.56c0.14-0.06,0.28-0.12,0.42-0.14c0.63-0.11,1.22,0,1.88,0.29
			c0.34,0.15,0.69,0.31,1,0.52c-0.03-0.02-0.06-0.14-0.07-0.17c-0.24-0.61-0.47-1.11-0.52-1.77c-0.03-0.43,0.06-0.91,0.27-1.28
			c0.5-0.9,1.61-1.17,2.44-0.52c0.25,0.2,0.51,0.56,0.64,0.85c0.07,0.15,0.12,0.3,0.16,0.46c0.07,0.31,0.08,0.61,0.06,0.93
			c-0.01,0.18-0.03,0.36-0.05,0.53c-0.01,0.09-0.02,0.18-0.03,0.27c-0.01,0.07,0,0.2-0.03,0.26c0.26-0.46,0.7-1.13,0.89-1.36
			c0.17-0.22,0.39-0.49,0.6-0.68c0.24-0.21,0.5-0.4,0.8-0.52c0.15-0.06,0.3-0.1,0.46-0.11c0.22-0.02,0.37,0,0.58,0.08
			c0.23,0.09,0.31,0.13,0.49,0.3c0.12,0.11,0.22,0.24,0.3,0.39c0.35,0.64,0.14,1.34-0.17,1.95c-0.21,0.42-0.93,1.2-1.54,1.6
			c0.6-0.16,1.22-0.3,1.84-0.35c0.48-0.03,0.9,0,1.32,0.24c0.31,0.18,0.57,0.44,0.74,0.75c0.13,0.22,0.24,0.49,0.25,0.74
			c0,0.15-0.02,0.3-0.07,0.45c-0.34,1.2-1.83,1.5-2.94,1.4c-0.35-0.03-0.69-0.1-1.02-0.2c-0.15-0.05-0.3-0.1-0.45-0.17
			c-0.11-0.05-0.3-0.11-0.38-0.2C17.83,8.7,17.92,8.88,18,9.02c0.1,0.17,0.18,0.35,0.26,0.53c0.23,0.55,0.31,1.12,0.14,1.7
			c-0.09,0.31-0.24,0.6-0.46,0.84c-0.35,0.37-0.89,0.58-1.4,0.49c-0.55-0.1-1.06-0.57-1.28-1.07c-0.17-0.38-0.42-1.45-0.41-1.98
			c0,0-0.37,0.62-0.74,1.11c-0.31,0.41-0.85,0.92-1.24,1.14c-0.55,0.31-1.28,0.3-1.76-0.14c-0.55-0.51-0.52-1.49-0.3-2.14
			c0.22-0.63,0.71-1,1.07-1.51c-0.72-0.21-1.28-0.77-1.94-1.11C9.5,6.66,8.7,6.17,8.83,5.54z"/>
		<path class="st1" d="M16.79,13.15c-0.11,0-0.22-0.01-0.34-0.03c-0.69-0.12-1.37-0.68-1.69-1.39c-0.07-0.16-0.15-0.43-0.23-0.74
			c-0.32,0.41-0.91,0.98-1.39,1.27c-0.8,0.45-1.78,0.37-2.4-0.21c-0.73-0.68-0.75-1.86-0.44-2.72c0.17-0.47,0.45-0.82,0.71-1.12
			c-0.22-0.13-0.43-0.27-0.64-0.41c-0.22-0.15-0.44-0.3-0.68-0.42C8.34,6.68,8.19,5.93,8.3,5.42l0,0C8.35,5.17,8.66,3.9,9.56,3.48
			c0.19-0.1,0.38-0.16,0.57-0.19c0.62-0.11,1.26-0.04,1.97,0.24c-0.06-0.25-0.12-0.51-0.13-0.8C11.92,2.2,12.05,1.6,12.3,1.16
			c0.33-0.59,0.87-0.99,1.5-1.12c0.59-0.12,1.24,0.03,1.75,0.44c0.3,0.24,0.61,0.65,0.79,1.05c0.08,0.17,0.15,0.36,0.2,0.56
			c0.02,0.07,0.03,0.14,0.04,0.2c0.15-0.19,0.33-0.38,0.49-0.53c0.34-0.3,0.64-0.5,0.97-0.62c0.2-0.08,0.4-0.13,0.61-0.15
			c0.33-0.02,0.54,0,0.83,0.11c0.27,0.1,0.43,0.18,0.67,0.41c0.16,0.16,0.29,0.33,0.4,0.52c0.38,0.7,0.33,1.5-0.17,2.46
			c-0.07,0.14-0.18,0.3-0.3,0.46c0.03,0,0.05,0,0.09-0.01c0.47-0.03,1.04-0.03,1.63,0.31c0.39,0.22,0.72,0.55,0.95,0.95
			c0.13,0.24,0.31,0.6,0.31,1c0,0.2-0.03,0.4-0.09,0.61c-0.43,1.52-2.19,1.9-3.51,1.79c-0.21-0.02-0.42-0.05-0.62-0.09
			c0.24,0.66,0.27,1.28,0.09,1.9c-0.11,0.4-0.31,0.77-0.58,1.06C17.94,12.9,17.36,13.15,16.79,13.15z M14.85,8.99
			c0.05,0,0.1,0.01,0.15,0.02c0.23,0.07,0.4,0.28,0.39,0.53c0,0.45,0.23,1.45,0.37,1.76c0.16,0.37,0.54,0.69,0.87,0.75
			c0.31,0.05,0.68-0.08,0.91-0.32c0.15-0.16,0.27-0.38,0.33-0.61c0.13-0.43,0.09-0.86-0.12-1.35c-0.06-0.17-0.14-0.32-0.22-0.47
			c-0.09-0.15-0.17-0.3-0.3-0.46l0,0c0,0-0.01,0-0.01-0.01c-0.19-0.23-0.15-0.58,0.09-0.76c0.22-0.18,0.58-0.15,0.76,0.08
			c0,0,0.01,0,0.01,0.01c-0.02-0.04,0.04-0.01,0.08,0.01c0.22,0.1,0.35,0.14,0.48,0.18c0.3,0.09,0.6,0.16,0.91,0.18
			c0.76,0.09,2.1-0.07,2.36-1c0.04-0.11,0.05-0.21,0.05-0.3c-0.01-0.11-0.06-0.27-0.18-0.48c-0.12-0.22-0.31-0.41-0.54-0.54
			c-0.27-0.15-0.56-0.2-1.01-0.17c-0.62,0.05-1.23,0.19-1.74,0.33c-0.27,0.06-0.54-0.06-0.64-0.3c-0.11-0.25-0.03-0.53,0.2-0.68
			c0.56-0.37,1.2-1.09,1.35-1.39c0.33-0.63,0.38-1.08,0.18-1.44c-0.05-0.09-0.12-0.18-0.2-0.26c-0.1-0.1-0.13-0.11-0.3-0.18
			c-0.11-0.04-0.15-0.05-0.34-0.04c-0.09,0.01-0.19,0.03-0.29,0.08c-0.21,0.08-0.41,0.21-0.64,0.42c-0.18,0.16-0.38,0.41-0.53,0.61
			c-0.17,0.21-0.6,0.86-0.84,1.29c-0.14,0.26-0.46,0.36-0.74,0.22c-0.26-0.14-0.36-0.47-0.22-0.73l0.01-0.34
			c0.02-0.17,0.04-0.32,0.05-0.48c0.02-0.32,0.01-0.56-0.05-0.78c-0.03-0.13-0.07-0.24-0.13-0.35c-0.11-0.24-0.31-0.52-0.48-0.66
			c-0.25-0.2-0.55-0.27-0.86-0.22c-0.31,0.06-0.59,0.27-0.76,0.58c-0.14,0.26-0.22,0.64-0.2,0.98c0.03,0.51,0.2,0.91,0.4,1.43
			l0.07,0.18c0.02,0.07,0.04,0.05-0.1-0.05c0.21,0.17,0.27,0.48,0.12,0.71c-0.15,0.25-0.48,0.33-0.74,0.18
			C12.81,5.11,12.8,5.1,12.8,5.1l0,0c-0.29-0.19-0.61-0.34-0.93-0.48c-0.6-0.26-1.07-0.35-1.56-0.25c-0.09,0.01-0.18,0.05-0.29,0.1
			C9.77,4.58,9.48,5.1,9.37,5.65v0C9.34,5.77,9.54,6.07,10.2,6.4c0.28,0.14,0.53,0.32,0.79,0.49c0.35,0.24,0.69,0.47,1.05,0.58
			c0.17,0.05,0.3,0.18,0.36,0.34c0.06,0.17,0.03,0.35-0.07,0.5C12.2,8.5,12.05,8.67,11.9,8.84c-0.25,0.29-0.46,0.53-0.57,0.85
			c-0.19,0.53-0.18,1.25,0.15,1.56c0.31,0.29,0.79,0.25,1.11,0.07c0.3-0.18,0.8-0.64,1.08-1c0.35-0.47,0.7-1.05,0.7-1.06
			C14.48,9.08,14.66,8.99,14.85,8.99z"/>
	</g>
	<g>
		<g>
			<path class="st2" d="M15.72,5.69c0.18,0.04,0.34,0.12,0.48,0.25c0.1,0.1,0.18,0.21,0.23,0.34c0.09,0.21,0.11,0.44,0.09,0.66
				c-0.04,0.44-0.28,0.84-0.74,0.94c-0.4,0.09-0.88,0.07-1.25-0.13c-0.36-0.2-0.51-0.53-0.5-0.93c0.02-0.35,0.23-0.62,0.5-0.84
				C14.88,5.72,15.29,5.59,15.72,5.69z"/>
		</g>
		<g>
			<g>
				<path class="st1" d="M15.57,6.21c0.03,0.01,0.05,0.01,0.08,0.02c0.01,0,0.13,0.05,0.04,0.01c-0.07-0.03,0.07,0.04,0.09,0.05
					c0.02,0.01,0.07,0.07,0.02,0.02c-0.06-0.06,0.03,0.03,0.03,0.04c0.01,0.01,0.05,0.05,0.06,0.06c-0.01-0.01-0.02-0.03-0.03-0.04
					c0.01,0.02,0.02,0.03,0.03,0.05c0.01,0.02,0.03,0.05,0.04,0.07c0.04,0.06-0.03-0.12,0,0.01c0.01,0.05,0.03,0.11,0.04,0.16
					c0.01,0.05,0.03,0.04,0-0.02c0.01,0.01,0,0.07,0.01,0.08c0,0.07,0,0.14-0.01,0.21c0,0.07-0.03,0,0.01-0.04
					c-0.01,0.01-0.01,0.06-0.01,0.07c-0.01,0.04-0.02,0.09-0.03,0.13c0,0.01-0.02,0.05-0.02,0.06c-0.01-0.06,0.05-0.1,0.02-0.04
					c-0.02,0.03-0.08,0.11-0.08,0.14c0-0.05,0.07-0.08,0.03-0.03c-0.01,0.01-0.03,0.03-0.04,0.05c-0.02,0.02-0.09,0.06-0.02,0.02
					c0.07-0.04,0.01-0.01-0.01,0c-0.02,0.01-0.04,0.02-0.06,0.03c-0.02,0.01-0.09,0.03-0.01,0.01c0.09-0.02-0.02,0-0.03,0.01
					c-0.03,0.01-0.06,0.02-0.09,0.02c-0.03,0.01-0.05,0.01-0.08,0.01c-0.02,0-0.11,0.01-0.03,0c0.09-0.01-0.04,0-0.05,0
					c-0.03,0-0.05,0-0.08,0c-0.05,0-0.11,0-0.16,0c-0.03,0-0.05,0-0.08-0.01c-0.13-0.01,0.11,0.03-0.02,0
					c-0.05-0.01-0.1-0.02-0.16-0.04c-0.03-0.01-0.05-0.02-0.08-0.02c-0.1-0.03,0.02,0,0.02,0.01c0-0.01-0.12-0.06-0.14-0.07
					c0,0-0.06-0.04-0.06-0.04c0.06,0.05,0.07,0.06,0.03,0.02c-0.01-0.01-0.02-0.02-0.03-0.02c-0.02-0.02-0.06-0.09-0.09-0.1
					c0.06,0.02,0.06,0.09,0.03,0.03c-0.01-0.02-0.03-0.05-0.04-0.07c-0.06-0.11,0.02,0.1-0.01-0.02C14.6,7.04,14.59,7.02,14.59,7
					c0-0.02-0.04-0.14-0.01-0.04c0.02,0.08,0,0.01,0-0.01c0-0.02,0-0.05,0-0.07c0-0.02,0-0.05,0-0.07c0-0.08-0.04,0.13,0,0.01
					c0.01-0.04,0.04-0.1,0.04-0.14c0,0.02-0.06,0.11-0.01,0.03c0.02-0.03,0.04-0.06,0.06-0.09c0.03-0.05,0-0.04-0.02,0.02
					c0.01-0.02,0.05-0.05,0.06-0.07c0.04-0.05,0.09-0.09,0.14-0.13c0.01-0.01,0.08-0.06,0.02-0.02c-0.06,0.05,0.03-0.02,0.04-0.03
					c0.06-0.04,0.12-0.07,0.18-0.1c0.02-0.01,0.05-0.03,0.07-0.03c-0.13,0.04,0,0.01,0.02,0c0.04-0.01,0.16-0.02,0.19-0.05
					C15.36,6.2,15.25,6.2,15.35,6.2c0.03,0,0.07,0,0.1,0c0.03,0,0.08-0.01,0.1,0.01c-0.02,0-0.04-0.01-0.06-0.01
					C15.52,6.2,15.55,6.2,15.57,6.21c0.28,0.06,0.6-0.08,0.67-0.38c0.06-0.27-0.08-0.6-0.38-0.67c-0.72-0.15-1.47,0.11-1.95,0.67
					c-0.25,0.29-0.41,0.63-0.42,1.02c-0.01,0.31,0.08,0.64,0.26,0.9C14.2,8.38,15,8.54,15.73,8.44c0.33-0.05,0.63-0.17,0.87-0.41
					c0.22-0.21,0.37-0.51,0.43-0.81c0.08-0.44,0.05-0.89-0.16-1.29c-0.2-0.39-0.58-0.66-1-0.77c-0.27-0.07-0.6,0.09-0.67,0.38
					C15.13,5.82,15.28,6.14,15.57,6.21z"/>
			</g>
		</g>
	</g>
	<g>
		<path class="st0" d="M6.27,10.71c-0.32,0.57-1.4,0.98-2.09,0.98c-0.3,0-0.6-0.09-0.79-0.34c-0.34-0.46-0.35-1.16-0.15-1.68
			c0.04-0.11,0.09-0.21,0.15-0.31c0.23-0.38,0.59-0.73,0.9-1.01C3.79,8.58,3.29,8.66,3.02,8.68C2.09,8.77,0.73,8.39,0.56,7.32
			c-0.08-0.51,0.22-1,0.62-1.3c0.1-0.08,0.22-0.15,0.34-0.19c0.52-0.2,1-0.2,1.61-0.06c0.32,0.07,0.64,0.15,0.94,0.28
			C4.04,6.03,4,5.93,3.98,5.91c-0.31-0.48-0.57-1.05-0.72-1.6C3.21,4.1,3.19,3.88,3.19,3.66C3.2,3.18,3.36,2.67,3.73,2.35
			c0.05-0.04,0.1-0.08,0.15-0.11C4.28,1.99,4.8,2.06,5.2,2.27C5.45,2.4,5.66,2.59,5.83,2.81c0.08,0.11,0.15,0.24,0.21,0.36
			c0.11,0.25,0.17,0.51,0.21,0.78C6.27,4.11,6.29,4.26,6.3,4.41C6.3,4.49,6.31,4.57,6.31,4.65c0,0.06,0.03,0.17,0.01,0.23
			C6.47,4.44,6.74,3.8,6.85,3.57c0.11-0.22,0.25-0.48,0.4-0.68c0.16-0.22,0.36-0.42,0.59-0.57c0.12-0.07,0.24-0.14,0.37-0.17
			c0.19-0.05,0.32-0.06,0.5-0.03c1.07,0.19,1.39,1.52,1.12,2.43C9.73,4.93,9.25,5.71,8.8,6.16c0.49-0.24,0.82-0.41,1.34-0.56
			c0.33-0.09,0.68-0.11,1.01-0.02c0.78,0.21,1.29,1,1.27,1.79c-0.02,0.9-0.81,1.26-1.6,1.34c-0.3,0.03-0.6,0.03-0.9,0
			C9.78,8.69,9.64,8.67,9.5,8.63C9.4,8.61,9.23,8.59,9.15,8.52c0.18,0.15,0.29,0.29,0.39,0.4c0.67,0.8,0.53,3.2-0.83,3.23
			c-0.49,0.01-1.07-0.4-1.35-0.79L6.27,10.71z"/>
		<path class="st1" d="M8.69,12.69c-0.64,0-1.32-0.44-1.7-0.92l-0.6-0.35c-0.6,0.54-1.58,0.82-2.21,0.82c-0.53,0-0.96-0.2-1.23-0.57
			c-0.42-0.58-0.5-1.44-0.22-2.2c0.03-0.07,0.06-0.15,0.1-0.24C1.53,9.26,0.22,8.67,0.02,7.4c-0.11-0.66,0.21-1.36,0.84-1.82
			C1,5.47,1.16,5.38,1.32,5.32c0.53-0.21,1.05-0.24,1.67-0.14C2.89,4.93,2.8,4.69,2.74,4.45c-0.07-0.24-0.1-0.51-0.09-0.8
			c0.02-0.7,0.28-1.32,0.71-1.71c0.09-0.07,0.15-0.12,0.23-0.17c0.53-0.31,1.23-0.31,1.86,0.02c0.31,0.16,0.59,0.4,0.81,0.7
			c0.11,0.15,0.2,0.3,0.27,0.46c0.01,0.01,0.01,0.02,0.02,0.03c0.08-0.15,0.17-0.29,0.26-0.41c0.23-0.3,0.47-0.54,0.74-0.71
			C7.73,1.74,7.9,1.67,8.07,1.62c0.27-0.08,0.5-0.09,0.75-0.05c0.53,0.1,0.98,0.4,1.28,0.89c0.38,0.62,0.49,1.49,0.27,2.23
			c-0.03,0.09-0.07,0.21-0.12,0.33c0.35-0.07,0.72-0.06,1.05,0.03c0.99,0.26,1.69,1.24,1.67,2.33c-0.02,1.04-0.8,1.74-2.09,1.87
			c-0.18,0.02-0.31,0.03-0.55,0.03c0.23,0.71,0.21,1.64-0.11,2.34c-0.3,0.67-0.85,1.06-1.5,1.07C8.7,12.69,8.69,12.69,8.69,12.69z
			 M6.27,10.17c0.1,0,0.19,0.03,0.28,0.08l1.09,0.64c0.06,0.04,0.12,0.09,0.17,0.15c0.21,0.3,0.62,0.59,0.9,0.56
			c0.08,0,0.33-0.01,0.52-0.43c0.28-0.63,0.18-1.57-0.1-1.9C9.03,9.16,8.95,9.06,8.81,8.95c-0.23-0.18-0.28-0.52-0.1-0.76
			c0.18-0.23,0.52-0.28,0.76-0.1c0.01,0,0.15,0.01,0.17,0.02c0.11,0.03,0.23,0.05,0.34,0.06c0.26,0.02,0.52,0.03,0.78,0
			c0.51-0.05,1.1-0.23,1.12-0.81c0.01-0.58-0.36-1.12-0.86-1.25c-0.22-0.06-0.46-0.05-0.73,0.02C9.85,6.24,9.57,6.38,9.14,6.59
			C8.9,6.72,8.56,6.67,8.4,6.45c-0.15-0.22-0.18-0.5,0.02-0.68c0.4-0.39,0.82-1.1,0.9-1.38c0.13-0.44,0.06-1-0.15-1.35
			C9.03,2.81,8.85,2.69,8.62,2.65C8.54,2.62,8.48,2.63,8.37,2.67C8.3,2.69,8.22,2.72,8.14,2.78c-0.15,0.1-0.3,0.25-0.45,0.44
			c-0.12,0.17-0.25,0.4-0.35,0.6C7.25,4.01,6.99,4.62,6.85,5.04C6.84,5.05,6.84,5.06,6.84,5.07C6.72,5.34,6.42,5.49,6.14,5.39
			C5.89,5.3,5.75,5.05,5.79,4.8C5.78,4.76,5.77,4.69,5.77,4.69L5.75,4.45C5.74,4.31,5.73,4.17,5.71,4.03
			C5.67,3.77,5.62,3.57,5.55,3.4C5.5,3.3,5.45,3.21,5.39,3.13C5.27,2.97,5.12,2.84,4.96,2.75c-0.22-0.12-0.57-0.19-0.8-0.05
			C3.87,2.94,3.75,3.28,3.74,3.67c0,0.18,0.02,0.34,0.06,0.48c0.13,0.49,0.36,1.01,0.64,1.46c0.03,0.05,0.04,0.03-0.09-0.04
			C4.57,5.7,4.67,5.98,4.58,6.23C4.48,6.5,4.16,6.65,3.9,6.56c-0.01,0-0.02-0.01-0.03-0.01l0,0C3.59,6.43,3.3,6.36,3.01,6.3
			C2.47,6.18,2.1,6.19,1.71,6.34C1.65,6.36,1.58,6.4,1.51,6.45C1.28,6.62,1.04,6.92,1.1,7.23c0.11,0.69,1.12,0.98,1.88,0.91
			c0.22-0.02,0.65-0.08,1.1-0.29c0.26-0.12,0.54-0.03,0.69,0.2c0.15,0.23,0.1,0.53-0.1,0.71C4.28,9.08,4.02,9.37,3.86,9.63
			C3.81,9.72,3.78,9.79,3.76,9.85c-0.16,0.42-0.12,0.91,0.07,1.18c0.06,0.08,0.18,0.12,0.35,0.12c0.58,0,1.42-0.37,1.61-0.7
			c0.07-0.13,0.19-0.22,0.34-0.26C6.17,10.17,6.22,10.17,6.27,10.17z"/>
	</g>
	<g>
		<g>
			<path class="st2" d="M5.67,7.01c0.05-0.16,0.14-0.3,0.27-0.41c0.1-0.08,0.21-0.14,0.33-0.18c0.19-0.06,0.41-0.05,0.6-0.01
				C7.27,6.49,7.6,6.75,7.65,7.17c0.04,0.37-0.02,0.8-0.24,1.11c-0.22,0.3-0.53,0.41-0.88,0.35c-0.31-0.05-0.54-0.27-0.7-0.53
				C5.62,7.76,5.54,7.38,5.67,7.01z"/>
		</g>
		<g>
			<g>
				<path class="st1" d="M6.19,7.15c0.04-0.1-0.01,0.03-0.01,0.03c0,0,0.04-0.07,0.04-0.08c0.01-0.02,0.03-0.04,0.04-0.06
					c0.04-0.06-0.07,0.07-0.02,0.03c0.02-0.02,0.03-0.03,0.05-0.05c0,0,0.01-0.01,0.01-0.01c0.04-0.04,0.04-0.03-0.02,0.02
					c0-0.01,0.06-0.04,0.06-0.04c0.02-0.01,0.11-0.07,0.04-0.02c-0.06,0.04,0,0,0.02-0.01c0.03-0.01,0.06-0.02,0.1-0.03
					c0.06-0.02,0.03-0.03-0.02,0c0.01-0.01,0.07,0,0.08,0c0.01,0,0.16,0.01,0.16,0.01c-0.01,0.01-0.11-0.02-0.02,0
					c0.03,0.01,0.07,0.01,0.1,0.02c0.04,0.01,0.08,0.02,0.11,0.03c0.08,0.03-0.04-0.02-0.05-0.02c0.01,0.01,0.04,0.02,0.05,0.03
					C6.94,7,6.97,7.02,7.01,7.04C7.1,7.09,6.93,6.97,6.98,7.02c0.02,0.02,0.04,0.03,0.05,0.05C7.04,7.08,7.05,7.09,7.07,7.1
					c0.06,0.06-0.03-0.03-0.03-0.04C7.04,7.09,7.08,7.14,7.1,7.17c0.04,0.06-0.04-0.11-0.02-0.05c0,0.02,0.01,0.04,0.02,0.06
					C7.1,7.19,7.1,7.23,7.11,7.25C7.1,7.22,7.1,7.11,7.11,7.22c0.01,0.1,0.01,0.2,0,0.3c0,0.02-0.01,0.05-0.01,0.07
					c0-0.01,0.02-0.13,0-0.04C7.1,7.61,7.09,7.66,7.07,7.72C7.06,7.76,7.03,7.81,7.03,7.85c0-0.01,0.06-0.12,0.01-0.03
					C7.03,7.84,7.02,7.86,7.01,7.88C7,7.89,6.93,8,6.93,8C6.92,7.99,7.01,7.91,6.95,7.97C6.93,7.99,6.91,8.02,6.89,8.04
					C6.83,8.1,6.91,8.02,6.92,8.02C6.91,8.02,6.89,8.04,6.87,8.05C6.86,8.06,6.84,8.07,6.82,8.08c-0.09,0.06,0.1-0.03,0.03-0.01
					C6.81,8.08,6.78,8.09,6.74,8.1c-0.02,0-0.09,0.02,0,0c0.1-0.02-0.01,0-0.04,0c-0.02,0-0.17-0.01-0.07,0c0.09,0.01,0.01,0-0.01,0
					C6.59,8.09,6.56,8.08,6.54,8.07C6.47,8.06,6.54,8.04,6.57,8.09C6.57,8.08,6.52,8.07,6.52,8.06C6.5,8.05,6.48,8.04,6.46,8.03
					C6.38,7.98,6.55,8.11,6.47,8.04C6.44,8,6.4,7.97,6.37,7.93C6.35,7.92,6.34,7.9,6.33,7.89c-0.03-0.04,0.07,0.1,0.01,0
					C6.3,7.84,6.27,7.8,6.25,7.75C6.24,7.73,6.23,7.71,6.21,7.68c-0.06-0.1,0.03,0.09-0.01-0.01C6.19,7.61,6.17,7.56,6.16,7.49
					c0-0.02-0.01-0.05-0.01-0.07c0.04,0.12,0.01,0.05,0.01,0c0-0.02,0-0.05,0-0.07c0-0.02,0.02-0.13,0-0.04
					C6.13,7.4,6.16,7.27,6.16,7.26C6.17,7.22,6.18,7.19,6.19,7.15c0.09-0.27-0.1-0.6-0.38-0.67c-0.3-0.07-0.57,0.09-0.67,0.38
					C4.93,7.52,5.16,8.25,5.64,8.74c0.45,0.47,1.22,0.6,1.78,0.25C7.98,8.64,8.22,7.94,8.2,7.3C8.18,6.96,8.09,6.65,7.87,6.38
					c-0.18-0.22-0.44-0.37-0.7-0.45C6.81,5.81,6.37,5.8,6.02,5.94C5.59,6.11,5.31,6.43,5.15,6.86c-0.1,0.27,0.11,0.6,0.38,0.67
					C5.83,7.6,6.09,7.43,6.19,7.15z"/>
			</g>
		</g>
	</g>
	<g>
		<g>
			<path class="st3" d="M18.61,9.88c0.25,4.28,0.4,8.85,0.66,14.02c-6.01,0.36-11.63,0.51-17.36,0.11c0.31-5.19,0.42-8.69,0.68-14
				C2.6,10.01,12.8,10.28,18.61,9.88z"/>
		</g>
		<g>
			<g>
				<path class="st1" d="M18.07,9.88c0.27,4.67,0.43,9.35,0.66,14.02c0.18-0.18,0.36-0.36,0.55-0.55C13.5,23.7,7.7,23.86,1.92,23.47
					c0.18,0.18,0.36,0.36,0.55,0.55c0.28-4.66,0.45-9.33,0.68-14c-0.18,0.18-0.36,0.36-0.55,0.55c5.33,0.14,10.7,0.22,16.02-0.13
					c0.7-0.05,0.7-1.14,0-1.09C13.29,9.69,7.93,9.61,2.6,9.47c-0.31-0.01-0.53,0.26-0.55,0.55c-0.23,4.67-0.4,9.34-0.68,14
					c-0.02,0.31,0.27,0.53,0.55,0.55c5.78,0.39,11.58,0.23,17.36-0.11c0.28-0.02,0.56-0.24,0.55-0.55
					c-0.24-4.67-0.39-9.35-0.66-14.02C19.12,9.18,18.03,9.18,18.07,9.88z"/>
			</g>
		</g>
	</g>
	<g>
		<g>
			<path class="st4" d="M8.43,12.47c-0.2,0.07-0.37,0.21-0.52,0.35c-0.42,0.4-0.76,0.89-1.09,1.37c-0.37,0.52-0.68,1.08-0.94,1.67
				c-0.4,0.91-0.42,2.02-0.25,2.99c0.33,1.88,2.01,3.41,3.96,3.55c0.47,0.03,0.95-0.02,1.4-0.16c0.9-0.27,1.71-0.81,2.34-1.49
				c0.32-0.34,0.59-0.73,0.81-1.15c0.26-0.51,0.44-1.06,0.56-1.62c0.33-1.54,0.18-3.06-0.13-4.68c-0.06-0.29-0.13-0.56-0.4-0.72
				c-0.12-0.07-0.27-0.13-0.41-0.14c-0.49-0.04-0.65,0.36-0.65,0.78c0,0.2,0.01,0.39,0.03,0.59c0.01,0.15,0.03,0.3,0.04,0.45
				c0.04,0.38,0.1,0.75,0.13,1.13c0.02,0.19,0.03,0.38,0.04,0.57c0.03,1.32-0.36,2.8-1.28,3.86c-0.2,0.23-0.44,0.43-0.7,0.6
				c-1.3,0.85-3.26,0.46-3.96-0.98c-0.33-0.68-0.38-1.47-0.28-2.2c0.08-0.6,0.27-1.14,0.55-1.67c0.11-0.21,0.24-0.41,0.38-0.61
				c0.26-0.37,0.56-0.72,0.87-1.05c0.09-0.09,0.18-0.19,0.26-0.28c0.23-0.27,0.43-0.73,0.11-1.02C9.08,12.4,8.7,12.38,8.43,12.47z"
				/>
		</g>
		<g>
			<g>
				<path class="st1" d="M8.16,12.01c-0.82,0.36-1.37,1.27-1.86,1.98c-0.52,0.76-1.01,1.62-1.19,2.52
					c-0.34,1.62-0.02,3.35,1.03,4.64c0.99,1.2,2.6,1.94,4.16,1.77c1.76-0.19,3.36-1.37,4.22-2.89c0.96-1.7,1.02-3.76,0.77-5.65
					c-0.11-0.82-0.13-1.92-0.98-2.33c-0.66-0.33-1.46-0.07-1.68,0.67c-0.25,0.86,0.07,1.9,0.14,2.77c0.07,0.88-0.01,1.75-0.31,2.58
					c-0.51,1.42-1.79,2.66-3.4,2.13c-2.06-0.68-1.58-3.41-0.65-4.82c0.28-0.43,0.63-0.81,0.97-1.18c0.27-0.29,0.51-0.59,0.58-0.99
					c0.18-1-0.85-1.49-1.69-1.25C7.62,12.14,7.9,13.18,8.58,13c0.43-0.12,0.35,0.09,0.14,0.34c-0.24,0.28-0.5,0.54-0.74,0.83
					c-0.49,0.6-0.89,1.25-1.15,1.99c-0.48,1.36-0.45,3.13,0.58,4.24c0.81,0.87,2.1,1.18,3.24,0.91c1.38-0.33,2.31-1.54,2.8-2.81
					c0.26-0.66,0.39-1.38,0.43-2.09c0.04-0.82-0.12-1.63-0.19-2.45c-0.01-0.17-0.16-0.85-0.01-0.97c0.29-0.23,0.42,0.73,0.44,0.84
					c0.15,0.88,0.25,1.78,0.22,2.67c-0.06,1.68-0.62,3.3-1.95,4.39c-1.19,0.97-2.8,1.28-4.19,0.54c-1.43-0.76-2.13-2.18-2.12-3.77
					c0.01-0.97,0.35-1.8,0.84-2.62c0.43-0.72,1.01-1.75,1.8-2.11C9.34,12.66,8.79,11.72,8.16,12.01z"/>
			</g>
		</g>
	</g>
</g>
</svg>
