<?xml version="1.0" encoding="utf-8"?>
<!-- Generator: Adobe Illustrator 26.0.2, SVG Export Plug-In . SVG Version: 6.00 Build 0)  -->
<svg version="1.1" id="레이어_1" xmlns="http://www.w3.org/2000/svg" xmlns:xlink="http://www.w3.org/1999/xlink" x="0px"
	 y="0px" viewBox="0 0 22.34 27.66" style="enable-background:new 0 0 22.34 27.66;" xml:space="preserve">
<style type="text/css">
	.st0{fill:#FFFFFF;}
	.st1{fill:#282828;}
	.st2{fill:#FFD9B1;}
	.st3{fill:#FFE6B4;}
	.st4{fill:#FFD56E;}
</style>
<g>
	<g>
		<g>
			<path class="st0" d="M0.8,4.88c0.36,8.53,0.08,13.71-0.26,22.24c2.06-0.05,4.13-0.1,6.19-0.15c1.47-0.04,3.38-0.05,4.63-0.11
				c1.24-0.06,2.18-1.05,2.97-1.93c0.86-0.96,1.61-1.84,2.12-2.65c0.48-0.76,1.3-1.86,1.4-2.75c0.19-1.66-0.02-3.22-0.05-4.22
				c-0.13-4.37-0.02-6.57-0.15-10.94C13.09,4.5,8.53,4.63,3.97,4.76L0.8,4.88z"/>
		</g>
		<g>
			<g>
				<path class="st1" d="M0.26,4.88C0.57,12.3,0.3,19.7,0,27.12c-0.01,0.29,0.26,0.55,0.54,0.54c3.5-0.09,7.02-0.06,10.52-0.25
					c2.72-0.15,4.65-3.01,6.01-5.1c0.77-1.18,1.32-2.17,1.38-3.6c0.07-1.56-0.11-3.13-0.14-4.69c-0.07-3.22-0.03-6.43-0.12-9.65
					c-0.01-0.29-0.24-0.55-0.54-0.54C12.03,3.99,6.42,4.12,0.8,4.34c-0.69,0.03-0.7,1.11,0,1.08C6.42,5.2,12.03,5.07,17.65,4.91
					c-0.18-0.18-0.36-0.36-0.54-0.54c0.08,2.82,0.06,5.65,0.1,8.47c0.02,1.39,0.08,2.77,0.15,4.16c0.08,1.61,0,2.86-0.88,4.24
					c-0.75,1.18-1.59,2.27-2.53,3.3c-0.48,0.53-0.98,1.1-1.62,1.46c-0.69,0.39-1.51,0.34-2.28,0.36c-3.17,0.08-6.34,0.14-9.51,0.22
					c0.18,0.18,0.36,0.36,0.54,0.54C1.38,19.7,1.65,12.3,1.35,4.88C1.32,4.18,0.23,4.18,0.26,4.88z"/>
			</g>
		</g>
	</g>
	<g>
		<g>
			<path class="st1" d="M11.15,27.41c1.18-0.18,2-1.14,2.34-2.24c0.41-1.35,0.12-2.93-0.19-4.27c-0.17,0.23-0.35,0.46-0.52,0.69
				c2.18,0.21,5.29-0.35,5.63-2.97c0.04-0.29-0.28-0.54-0.54-0.54c-0.32,0-0.5,0.25-0.54,0.54c-0.25,1.9-3.15,2.02-4.55,1.89
				c-0.37-0.04-0.59,0.37-0.52,0.69c0.36,1.56,0.94,4.83-1.4,5.18c-0.29,0.04-0.45,0.41-0.38,0.67
				C10.56,27.34,10.86,27.45,11.15,27.41L11.15,27.41z"/>
		</g>
	</g>
	<g>
		<g>
			<path class="st1" d="M3.99,9.2c3.23-0.05,6.46-0.11,9.69-0.16c0.7-0.01,0.7-1.09,0-1.08c-3.23,0.05-6.46,0.11-9.69,0.16
				C3.29,8.13,3.29,9.21,3.99,9.2L3.99,9.2z"/>
		</g>
	</g>
	<g>
		<g>
			<path class="st1" d="M4.75,13.5c2.72-0.17,5.44-0.29,8.16-0.38c0.69-0.02,0.7-1.11,0-1.08c-2.72,0.09-5.44,0.22-8.16,0.38
				C4.06,12.46,4.06,13.54,4.75,13.5L4.75,13.5z"/>
		</g>
	</g>
	<g>
		<g>
			<g>
				<path class="st2" d="M7.38,18.92c-0.06-0.84-0.03-1.16-0.09-1.66l-0.81,0.1c-0.29,0.03-0.86,0.11-1.4,0.18l-0.32,0.46
					c-0.03,0.68,0.01,1.41,0.06,2.14c0.94,0.26,1.75,0.89,2.26,1.73l2.36-0.96c0.06-0.08,0.16-0.22,0.24-0.32
					c-0.3-0.89-0.65-1.94-0.83-2.33C8.34,18.53,7.92,18.69,7.38,18.92z"/>
			</g>
			<g>
				<g>
					<path class="st1" d="M7.92,18.92c-0.04-0.55-0.03-1.11-0.09-1.66C7.8,17,7.6,16.68,7.29,16.72c-0.26,0.03-0.52,0.07-0.78,0.1
						c-0.21,0.02-0.42,0.05-0.63,0.08c-0.16,0.02-0.33,0.04-0.49,0.07c-0.18,0.03-0.42,0.02-0.58,0.12
						c-0.15,0.09-0.26,0.28-0.36,0.43c-0.12,0.17-0.22,0.29-0.24,0.51c-0.06,0.71,0.02,1.44,0.06,2.14c0.02,0.24,0.16,0.46,0.4,0.53
						c0.81,0.23,1.49,0.76,1.94,1.48C6.72,22.33,7,22.49,7.22,22.4c0.71-0.29,1.41-0.58,2.12-0.86c0.08-0.03,0.16-0.07,0.24-0.1
						c0.24-0.1,0.39-0.31,0.53-0.52c0.17-0.26,0.09-0.48,0-0.75c-0.25-0.73-0.48-1.47-0.79-2.18c-0.12-0.28-0.51-0.32-0.75-0.2
						C8.1,18.03,7.6,18.24,7.1,18.45c-0.27,0.12-0.33,0.51-0.2,0.75c0.16,0.28,0.47,0.31,0.75,0.2c0.5-0.21,1-0.42,1.48-0.66
						c-0.25-0.07-0.5-0.13-0.75-0.2c0.02,0.05,0.01,0.02-0.01-0.01c0.01,0.03,0.03,0.06,0.04,0.09c0.03,0.07,0.06,0.15,0.08,0.22
						c0.07,0.19,0.14,0.39,0.21,0.58c0.15,0.44,0.3,0.88,0.45,1.32c0.02-0.14,0.04-0.28,0.06-0.42c-0.08,0.11-0.16,0.22-0.24,0.32
						c0.11-0.08,0.22-0.17,0.33-0.25c-0.79,0.32-1.57,0.64-2.36,0.96c0.21,0.08,0.41,0.17,0.62,0.25c-0.59-0.96-1.5-1.67-2.59-1.98
						c0.13,0.18,0.27,0.35,0.4,0.53c-0.05-0.71-0.09-1.43-0.06-2.14c-0.02,0.09-0.05,0.18-0.07,0.28c0.11-0.15,0.21-0.31,0.32-0.46
						c-0.11,0.08-0.22,0.17-0.33,0.25c0.69-0.1,1.38-0.18,2.06-0.27c-0.18-0.18-0.36-0.36-0.55-0.55c0.06,0.55,0.05,1.11,0.09,1.66
						c0.02,0.29,0.24,0.55,0.55,0.55C7.66,19.47,7.94,19.22,7.92,18.92z"/>
				</g>
			</g>
		</g>
		<g>
			<g>
				<path class="st1" d="M4.82,20.15c0.06,0.88,0.12,1.76,0.12,2.6l2.14-0.87C6.57,21.04,5.76,20.4,4.82,20.15z"/>
			</g>
			<g>
				<g>
					<path class="st1" d="M4.27,20.15c0.06,0.87,0.12,1.73,0.12,2.6c0,0.32,0.36,0.66,0.69,0.53c0.63-0.26,1.25-0.51,1.88-0.77
						c0.09-0.04,0.18-0.07,0.27-0.11c0.16-0.07,0.28-0.15,0.35-0.32c0.07-0.16,0.06-0.34-0.03-0.49c-0.59-0.95-1.51-1.68-2.59-1.98
						C4.69,19.54,4.36,19.72,4.29,20c-0.07,0.29,0.09,0.59,0.38,0.67C4.78,20.7,4.89,20.74,5,20.78c0.03,0.01,0.07,0.02,0.09,0.04
						c-0.03-0.02-0.08-0.04-0.02-0.01c0.05,0.02,0.11,0.05,0.16,0.08c0.05,0.03,0.59,0.36,0.59,0.37c0,0-0.09-0.07-0.02-0.01
						c0.02,0.02,0.04,0.03,0.06,0.05c0.05,0.04,0.09,0.08,0.13,0.12c0.08,0.08,0.16,0.16,0.24,0.24c0.04,0.04,0.08,0.09,0.12,0.14
						c0.02,0.02,0.03,0.04,0.05,0.06c0.04,0.05-0.06-0.08,0,0c0.07,0.1,0.14,0.2,0.2,0.3c0.11-0.27,0.22-0.53,0.33-0.8
						c-0.63,0.26-1.25,0.51-1.88,0.77c-0.09,0.04-0.18,0.07-0.27,0.11c0.23,0.18,0.46,0.35,0.69,0.53c0-0.87-0.06-1.74-0.12-2.6
						c-0.02-0.28-0.24-0.56-0.55-0.55C4.54,19.61,4.25,19.84,4.27,20.15z"/>
				</g>
			</g>
		</g>
		<g>
			<g>
				<path class="st3" d="M21.79,3.13c-0.03-0.17-0.16-0.29-0.29-0.4c-1-0.87-2.15-1.86-3.47-2.15c-0.16-0.04-0.33-0.06-0.49-0.01
					c-0.19,0.07-0.3,0.24-0.42,0.41c-0.33,0.46-0.58,0.81-0.89,1.24c1.71,0.41,3.28,1.52,4.3,3.03c0.23-0.33,0.45-0.63,0.69-0.99
					C21.36,4.06,21.83,3.35,21.79,3.13z"/>
			</g>
			<g>
				<g>
					<path class="st1" d="M22.31,2.98c-0.11-0.36-0.36-0.58-0.63-0.82c-0.25-0.22-0.51-0.44-0.77-0.65
						c-0.55-0.43-1.11-0.84-1.75-1.12c-0.64-0.29-1.53-0.66-2.15-0.13c-0.25,0.22-0.43,0.53-0.62,0.8
						c-0.21,0.29-0.42,0.58-0.62,0.87c-0.2,0.29,0.01,0.72,0.33,0.8c1.61,0.4,3.03,1.41,3.97,2.78c0.24,0.35,0.7,0.35,0.94,0
						c0.29-0.42,0.6-0.83,0.87-1.27c0.2-0.31,0.49-0.74,0.45-1.12c-0.03-0.29-0.23-0.55-0.55-0.55c-0.27,0-0.58,0.25-0.55,0.55
						c0.01,0.07,0.01-0.02,0.01-0.04c-0.01,0.03-0.01,0.06-0.03,0.09c-0.02,0.05-0.03,0.07-0.08,0.16
						c-0.08,0.16-0.18,0.31-0.27,0.46c-0.26,0.4-0.54,0.78-0.81,1.17c0.31,0,0.63,0,0.94,0c-1.1-1.6-2.73-2.81-4.62-3.28
						c0.11,0.27,0.22,0.53,0.33,0.8c0.31-0.44,0.6-0.91,0.94-1.32c0.13-0.15,0.3-0.05,0.49,0c0.25,0.07,0.48,0.17,0.71,0.28
						c0.45,0.23,0.88,0.52,1.28,0.83c0.22,0.17,0.43,0.35,0.64,0.53c0.13,0.11,0.44,0.29,0.49,0.45
						C21.46,3.94,22.52,3.66,22.31,2.98z"/>
				</g>
			</g>
		</g>
		<g>
			<g>
				<path class="st4" d="M7.47,14.12l-2.4,3.43c0.54-0.07,1.12-0.16,1.4-0.18l0.81-0.1c0.06,0.49,0.03,0.82,0.09,1.66
					c0.54-0.23,0.96-0.39,1.48-0.66c0.17,0.39,0.52,1.44,0.83,2.33c1.48-1.98,5.96-8.3,7.1-10.06c1.04-1.61,2.26-3.14,3.76-5.28
					c-1.02-1.51-2.58-2.62-4.3-3.03C13.07,6.67,11.03,9.26,7.47,14.12z"/>
			</g>
			<g>
				<g>
					<path class="st1" d="M7,13.84c-0.8,1.14-1.6,2.29-2.4,3.43c-0.31,0.44,0.2,0.86,0.62,0.8c0.69-0.1,1.38-0.18,2.06-0.27
						c-0.18-0.18-0.36-0.36-0.55-0.55c0.05,0.55,0.06,1.11,0.09,1.66c0.03,0.45,0.43,0.64,0.82,0.47c0.5-0.21,0.99-0.42,1.48-0.66
						c-0.27-0.11-0.53-0.22-0.8-0.33c0.32,0.76,0.56,1.55,0.83,2.33c0.16,0.47,0.72,0.51,1,0.13c3.75-5.01,7.26-10.22,10.85-15.34
						c0.1-0.15,0.1-0.4,0-0.55c-1.14-1.61-2.71-2.78-4.62-3.28c-0.25-0.07-0.47,0.05-0.62,0.25C12.91,5.95,9.91,9.87,7,13.84
						c-0.42,0.57,0.53,1.11,0.94,0.55c2.91-3.97,5.91-7.89,8.77-11.9c-0.21,0.08-0.41,0.17-0.62,0.25c1.63,0.43,3,1.4,3.97,2.78
						c0-0.18,0-0.37,0-0.55c-3.6,5.12-7.1,10.33-10.85,15.34c0.33,0.04,0.66,0.09,1,0.13c-0.27-0.78-0.51-1.57-0.83-2.33
						c-0.14-0.34-0.45-0.5-0.8-0.33c-0.48,0.24-0.98,0.45-1.48,0.66c0.27,0.16,0.55,0.31,0.82,0.47c-0.04-0.55-0.04-1.11-0.09-1.66
						C7.81,17,7.6,16.68,7.29,16.72c-0.79,0.1-1.57,0.2-2.35,0.3c0.21,0.27,0.41,0.53,0.62,0.8c0.8-1.14,1.6-2.29,2.4-3.43
						C8.35,13.81,7.4,13.27,7,13.84z"/>
				</g>
			</g>
		</g>
		<g>
			<g>
				<path class="st1" d="M9.32,18.53C12.87,13.78,16.36,9,19.77,4.15c0.4-0.57-0.54-1.11-0.93-0.55
					c-3.42,4.84-6.91,9.63-10.45,14.38C7.97,18.54,8.91,19.08,9.32,18.53L9.32,18.53z"/>
			</g>
		</g>
		<g>
			<g>
				<path class="st1" d="M7.75,17.54c3.55-4.76,7.16-9.47,10.59-14.32c0.4-0.57-0.54-1.11-0.93-0.55
					c-3.42,4.85-7.03,9.56-10.59,14.32C6.4,17.55,7.34,18.09,7.75,17.54L7.75,17.54z"/>
			</g>
		</g>
	</g>
</g>
</svg>
