<?xml version="1.0" encoding="utf-8"?>
<!-- Generator: Adobe Illustrator 26.0.2, SVG Export Plug-In . SVG Version: 6.00 Build 0)  -->
<svg version="1.1" id="레이어_1" xmlns="http://www.w3.org/2000/svg" xmlns:xlink="http://www.w3.org/1999/xlink" x="0px"
	 y="0px" viewBox="0 0 32.1 32.1" style="enable-background:new 0 0 32.1 32.1;" xml:space="preserve">
<style type="text/css">
	.st0{opacity:0.9;}
	.st1{fill:#282828;}
	.st2{fill:#FFFFFF;}
</style>
<g>
	<g class="st0">
		<circle class="st1" cx="16" cy="16" r="16"/>
	</g>
	<g>
		<g>
			<g>
				<path class="st2" d="M19.3,13.7c0,2.4-1.5,4.6-3.8,5.4c-2.3,0.8-4.9,0.1-6.4-1.8c-1.5-1.8-1.7-4.5-0.5-6.6c1.2-2,3.6-3.2,6-2.7
					C17.3,8.6,19.2,11,19.3,13.7c0,0.9,1.4,0.9,1.4,0c0-3-1.9-5.6-4.6-6.7C13.2,6,9.9,6.9,8,9.2c-1.9,2.3-2.2,5.6-0.6,8.2
					c1.5,2.6,4.5,3.9,7.4,3.3c3.3-0.6,5.7-3.6,5.8-7C20.6,12.9,19.3,12.9,19.3,13.7z"/>
			</g>
		</g>
		<g>
			<g>
				<path class="st2" d="M17.8,18.5c1.6,1.6,3.3,3.3,4.9,4.9c0.2,0.2,0.5,0.5,0.7,0.7c0.6,0.6,1.6-0.3,1-1c-1.6-1.6-3.3-3.3-4.9-4.9
					c-0.2-0.2-0.5-0.5-0.7-0.7C18.1,17,17.2,17.9,17.8,18.5L17.8,18.5z"/>
			</g>
		</g>
	</g>
</g>
</svg>
