<?xml version="1.0" encoding="utf-8"?>
<!-- Generator: Adobe Illustrator 26.0.2, SVG Export Plug-In . SVG Version: 6.00 Build 0)  -->
<svg version="1.1" id="레이어_1" xmlns="http://www.w3.org/2000/svg" xmlns:xlink="http://www.w3.org/1999/xlink" x="0px"
	 y="0px" viewBox="0 0 32.1 32.1" style="enable-background:new 0 0 32.1 32.1;" xml:space="preserve">
<style type="text/css">
	.st0{opacity:0.9;}
	.st1{fill:#282828;}
	.st2{fill:#FFFFFF;}
</style>
<g>
	<g class="st0">
		<circle class="st1" cx="16" cy="16" r="16"/>
	</g>
	<g>
		<circle class="st2" cx="16" cy="16" r="2.7"/>
	</g>
	<g>
		<g>
			<path class="st2" d="M22.3,16c0,2.6-1.6,5-4.1,5.9c-2.5,0.9-5.3,0.1-7-1.9c-1.7-2-1.9-4.9-0.5-7.2c1.3-2.2,4-3.4,6.5-2.9
				C20.2,10.4,22.3,13,22.3,16c0,0.9,1.4,0.9,1.4,0c0-3.2-2-6-5-7.1c-3-1.1-6.5-0.2-8.6,2.3c-2,2.5-2.3,6-0.7,8.8
				c1.6,2.7,4.8,4.2,8,3.6c3.6-0.6,6.2-3.9,6.2-7.5C23.7,15.2,22.3,15.2,22.3,16z"/>
		</g>
	</g>
	<g>
		<g>
			<path class="st2" d="M15.4,23c0,1.1,0,2.2,0,3.3c0,0.2,0,0.3,0,0.5c0,0.4,0.3,0.7,0.7,0.7c0.4,0,0.7-0.3,0.7-0.7
				c0-1.1,0-2.2,0-3.3c0-0.2,0-0.3,0-0.5c0-0.4-0.3-0.7-0.7-0.7C15.7,22.3,15.4,22.6,15.4,23L15.4,23z"/>
		</g>
	</g>
	<g>
		<g>
			<path class="st2" d="M15.4,5.3c0,1.1,0,2.2,0,3.3c0,0.2,0,0.3,0,0.5c0,0.4,0.3,0.7,0.7,0.7c0.4,0,0.7-0.3,0.7-0.7
				c0-1.1,0-2.2,0-3.3c0-0.2,0-0.3,0-0.5c0-0.4-0.3-0.7-0.7-0.7C15.7,4.7,15.4,5,15.4,5.3L15.4,5.3z"/>
		</g>
	</g>
	<g>
		<g>
			<path class="st2" d="M23,16.7c1.1,0,2.2,0,3.3,0c0.2,0,0.3,0,0.5,0c0.4,0,0.7-0.3,0.7-0.7c0-0.4-0.3-0.7-0.7-0.7
				c-1.1,0-2.2,0-3.3,0c-0.2,0-0.3,0-0.5,0c-0.4,0-0.7,0.3-0.7,0.7C22.3,16.4,22.6,16.7,23,16.7L23,16.7z"/>
		</g>
	</g>
	<g>
		<g>
			<path class="st2" d="M5.3,16.7c1.1,0,2.2,0,3.3,0c0.2,0,0.3,0,0.5,0c0.4,0,0.7-0.3,0.7-0.7c0-0.4-0.3-0.7-0.7-0.7
				c-1.1,0-2.2,0-3.3,0c-0.2,0-0.3,0-0.5,0c-0.4,0-0.7,0.3-0.7,0.7C4.7,16.4,5,16.7,5.3,16.7L5.3,16.7z"/>
		</g>
	</g>
</g>
</svg>
