<?xml version="1.0" encoding="utf-8"?>
<!-- Generator: Adobe Illustrator 25.4.1, SVG Export Plug-In . SVG Version: 6.00 Build 0)  -->
<svg version="1.1" id="레이어_1" xmlns="http://www.w3.org/2000/svg" xmlns:xlink="http://www.w3.org/1999/xlink" x="0px"
	 y="0px" viewBox="0 0 16.91 18.62" style="enable-background:new 0 0 16.91 18.62;" xml:space="preserve">
<style type="text/css">
	.st0{fill:#282828;}
</style>
<g>
	<path class="st0" d="M12.45,0.76c-2.86-1.22-6.8-1-9.35,0.85c-2.41,1.76-3.8,5.4-2.74,8.26c0.7,1.89,2.34,3.15,3.75,4.49
		c1.47,1.39,2.9,2.81,4.44,4.13c0.09,0.07,0.18,0.11,0.27,0.12c0.16,0.04,0.34,0.02,0.49-0.12c2.87-2.65,6.02-5.5,7.27-9.34
		C17.72,5.63,15.75,2.17,12.45,0.76z M15.62,8.58c-0.52,1.85-1.77,3.68-3,5.13c-1.13,1.33-2.42,2.49-3.7,3.67
		c-0.99-0.86-1.97-1.76-2.91-2.67c-1.05-1.02-2.18-1.97-3.18-3.03c-1.15-1.22-1.85-2.6-1.72-4.31c0.11-1.44,0.73-2.9,1.67-3.99
		C6.75-1.24,17.6,1.53,15.62,8.58z"/>
	<path class="st0" d="M9.97,5.11c-0.7-0.35-1.49-0.48-2.25-0.27C7.05,5.04,6.47,5.45,6.05,6C5.28,7,5.1,8.53,5.89,9.58
		c0.78,1.04,2.16,1.32,3.37,0.99c1.08-0.3,1.99-1.16,2.24-2.27C11.78,6.99,11.13,5.74,9.97,5.11z M10.47,7.89
		c0,0.01-0.01,0.05-0.01,0.07c-0.02,0.11-0.05,0.21-0.08,0.31c-0.01,0.02-0.02,0.06-0.03,0.07c-0.01,0.03-0.03,0.07-0.05,0.1
		c-0.05,0.09-0.1,0.18-0.15,0.26c-0.01,0.02-0.08,0.12-0.06,0.08c0.03-0.04-0.07,0.08-0.08,0.09c-0.07,0.1-0.15,0.17-0.23,0.24
		C9.77,9.12,9.75,9.14,9.73,9.15C9.69,9.18,9.65,9.21,9.61,9.24C9.52,9.3,9.42,9.35,9.32,9.4C9.31,9.41,9.25,9.43,9.24,9.44
		C9.18,9.46,9.13,9.48,9.07,9.49c-0.12,0.04-0.24,0.07-0.36,0.1C8.53,9.62,8.28,9.63,8.05,9.62c-0.03,0-0.19-0.02-0.11-0.01
		C7.89,9.6,7.83,9.59,7.78,9.58c-0.11-0.03-0.22-0.06-0.33-0.1c-0.01-0.01-0.01,0-0.01,0C7.42,9.46,7.4,9.46,7.38,9.45
		C7.34,9.43,7.29,9.4,7.25,9.38C7.2,9.35,7.16,9.32,7.12,9.3C7.1,9.28,7.08,9.27,7.06,9.26c0,0-0.01,0-0.01-0.01
		C6.96,9.18,6.88,9.1,6.81,9.02C6.8,9,6.79,8.99,6.78,8.98l0,0c-0.03-0.05-0.07-0.1-0.1-0.15C6.65,8.78,6.63,8.73,6.6,8.69
		C6.59,8.67,6.59,8.66,6.59,8.66s0-0.01-0.01-0.03C6.54,8.51,6.5,8.39,6.48,8.27C6.47,8.24,6.47,8.23,6.47,8.23s0-0.02,0-0.04
		c0-0.06-0.01-0.11-0.01-0.17c0-0.11,0.01-0.27,0.02-0.35c0.02-0.2,0.11-0.49,0.18-0.64C6.91,6.55,7.28,6.16,7.8,5.95
		c0.21-0.08,0.48-0.14,0.72-0.13c0.3,0,0.6,0.08,0.89,0.23c0.1,0.05,0.2,0.11,0.3,0.18c0.02,0,0.08,0.04,0.09,0.05
		c0.05,0.04,0.1,0.08,0.15,0.13c0.07,0.07,0.13,0.14,0.19,0.21c0.01,0.02,0.04,0.05,0.05,0.06c0.03,0.05,0.06,0.1,0.09,0.14
		c0.02,0.04,0.05,0.08,0.07,0.13c0.01,0.01,0.01,0.03,0.02,0.04l0,0c0.04,0.1,0.07,0.21,0.09,0.31c0,0.01,0.01,0.06,0.02,0.08
		c0,0.02,0.01,0.08,0.01,0.09c0.01,0.1,0.01,0.2,0,0.3C10.48,7.82,10.48,7.86,10.47,7.89z"/>
</g>
</svg>
