<?xml version="1.0" encoding="utf-8"?>
<!-- Generator: Adobe Illustrator 26.0.1, SVG Export Plug-In . SVG Version: 6.00 Build 0)  -->
<svg version="1.1" id="레이어_1" xmlns="http://www.w3.org/2000/svg" xmlns:xlink="http://www.w3.org/1999/xlink" x="0px"
	 y="0px" viewBox="0 0 238.01 36.66" style="enable-background:new 0 0 238.01 36.66;" xml:space="preserve">
<style type="text/css">
	.st0{fill:#F0F0F0;}
	.st1{fill:#464646;}
</style>
<g>
	<g>
		<path class="st0" d="M228.35,0H19.53C14.2,0,9.87,4.32,9.87,9.66v3.47H0l9.87,10.15V27c0,5.33,4.32,9.66,9.66,9.66h208.82
			c5.33,0,9.66-4.32,9.66-9.66V9.66C238.01,4.32,233.69,0,228.35,0z"/>
	</g>
	<g>
		<path class="st1" d="M33.59,17.19c0,2.66-1.32,4.34-3.16,4.34c-1.84,0-3.17-1.68-3.17-4.34s1.33-4.36,3.17-4.36
			C32.27,12.83,33.59,14.53,33.59,17.19z M32.24,17.19c0-1.92-0.72-3.08-1.82-3.08s-1.82,1.16-1.82,3.08s0.72,3.08,1.82,3.08
			S32.24,19.11,32.24,17.19z M36.69,17.92v6.36h-1.41V11.93h1.41v4.82h1.92v1.16H36.69z"/>
		<path class="st1" d="M43.59,16.26c-0.55,1.31-1.58,2.32-3.06,2.85l-0.74-1.1c1.95-0.66,3.06-2.27,3.06-3.92v-0.23h-2.68v-1.13
			h6.74v1.13h-2.63v0.23c0,1.59,1.12,3.08,3.02,3.7l-0.71,1.09C45.17,18.43,44.14,17.48,43.59,16.26z M49.85,19.99v4.27h-1.41v-3.14
			h-6.9v-1.13H49.85z M49.85,19.38h-1.41v-7.45h1.41V19.38z"/>
		<path class="st1" d="M66.42,18.2H55.3v-1.13h5.09v-1.96h1.4v1.96h4.64V18.2z M65.49,23.16l-0.48,1.05c-1.92-0.23-3.4-1-4.16-2.09
			c-0.77,1.09-2.24,1.86-4.17,2.09l-0.48-1.05c2.16-0.22,3.69-1.21,3.91-2.3H56.7v-1.1h3.44v-1.13h1.43v1.13h3.44v1.1h-3.41
			C61.82,21.94,63.35,22.9,65.49,23.16z M58.63,13.5h-2.4v-1.13h3.78v0.56c0,0.78,0,1.91-0.59,3.5l-1.38-0.2
			C58.49,15.01,58.58,14.16,58.63,13.5z M63.88,13.5h-2.9v-1.13h4.28v0.59c0,0.76,0,1.91-0.37,3.45l-1.36-0.15
			C63.8,15.06,63.87,14.2,63.88,13.5z"/>
		<path class="st1" d="M71.73,15.93c-0.56,1.26-1.61,2.25-3.08,2.73l-0.71-1.11c1.94-0.63,3.06-2.09,3.06-3.7V13.8h-2.68v-1.13h6.74
			v1.13h-2.63v0.06c0,1.47,1.12,2.9,3.02,3.5l-0.68,1.09C73.34,18.01,72.29,17.1,71.73,15.93z M78,19.18v4.93h-8.06v-4.93h1.4v1.33
			h5.27v-1.33H78z M71.34,21.61v1.36h5.27v-1.36H71.34z M78,18.62h-1.41v-6.7H78V18.62z"/>
		<path class="st1" d="M88.41,12.17v11.51H87.1v-5.91h-1.31c-0.11,2.4-1.16,3.87-2.63,3.87c-1.58,0-2.65-1.69-2.65-4.38
			c0-2.71,1.07-4.37,2.65-4.37c1.49,0,2.47,1.41,2.62,3.71h1.32v-4.44H88.41z M84.53,17.26c0-1.98-0.49-3.05-1.36-3.05
			c-0.87,0-1.36,1.07-1.36,3.05c0,1.98,0.49,3.06,1.36,3.06C84.04,20.32,84.53,19.24,84.53,17.26z M90.91,24.25h-1.34V11.93h1.34
			V24.25z"/>
		<path class="st1" d="M107.14,18.86H96V17.7h11.14V18.86z M105.78,22.01c0,1.44-1.53,2.25-4.25,2.25c-2.64,0-4.25-0.82-4.25-2.25
			c0-1.42,1.61-2.24,4.25-2.24C104.18,19.77,105.78,20.59,105.78,22.01z M97.38,16.67v-4.32h8.4v1.13h-7.01v2.05h7.09v1.13H97.38z
			 M104.36,22.01c0-0.76-1.01-1.16-2.83-1.16s-2.81,0.39-2.81,1.16c0,0.77,1,1.16,2.81,1.16S104.36,22.77,104.36,22.01z"/>
		<path class="st1" d="M119.7,19.77h-11.18v-1.13h4.89v-1.12h-3.45v-3.18h6.95V13.3h-6.97v-1.08h8.37v3.13h-6.96v1.09h7.21v1.08
			h-3.73v1.12h4.89V19.77z M118.37,20.61v3.59h-1.41v-2.46h-7.18v-1.13H118.37z"/>
		<path class="st1" d="M121.31,19.7l-0.19-1.13c1.04,0,2.15-0.02,3.35-0.06V17h-2.28v-4.3h5.92v1.15h-4.52v2.01h4.59V17h-2.31v1.46
			c1.09-0.04,2.1-0.11,3.08-0.22l0.1,1.02C126.46,19.64,123.62,19.7,121.31,19.7z M131.62,24.03h-8.51v-3.48h1.41v2.33h7.1V24.03z
			 M129.83,21.19v-9.27h1.41v9.27H129.83z"/>
		<path class="st1" d="M144.41,19.77l0.15,1.15c-2.12,0.37-3.96,0.44-6.13,0.44h-1.05v-4.89h4.3v-2.29h-4.33v-1.15h5.75v4.58h-4.3
			v2.59C140.75,20.18,142.46,20.08,144.41,19.77z M146.85,24.29h-1.42V11.91h1.42V24.29z"/>
		<path class="st1" d="M157.71,20.18v4.1h-1.41v-4.1h-2.99v4.1h-1.42v-4.1h-2.67v-1.13h11.18v1.13H157.71z M150.57,17.72v-5.31h1.41
			v1.52h5.64v-1.52h1.41v5.31H150.57z M151.97,15.05v1.53h5.64v-1.53H151.97z"/>
		<path class="st1" d="M162.54,22.01l-0.78-1.08c2.99-1.55,4.64-3.73,4.93-6.55h-4.32v-1.15h5.72
			C168.1,16.81,166.57,19.98,162.54,22.01z M171.32,17.97v6.28h-1.41V11.92h1.41v4.87h1.87v1.17H171.32z"/>
		<path class="st1" d="M180.75,18.19c-1.86,0-3.21-1.17-3.21-2.88c0-1.68,1.35-2.85,3.21-2.85c1.61,0,2.88,0.9,3.14,2.25h2.3v-2.76
			h1.4v6.51h-1.4v-2.59h-2.28C183.64,17.26,182.38,18.19,180.75,18.19z M183.13,24.11h-4.37v-4.94h1.31v1.39h1.76v-1.39h1.3V24.11z
			 M180.75,17.03c1.08,0,1.87-0.68,1.87-1.72c0-1.03-0.78-1.69-1.87-1.69s-1.86,0.66-1.86,1.69
			C178.89,16.34,179.66,17.03,180.75,17.03z M180.07,21.6v1.43h1.76V21.6H180.07z M188.87,23.17l-0.69,1.07
			c-1.09-0.42-1.81-1.21-2.18-2.16c-0.43,0.93-1.11,1.72-2.16,2.16l-0.71-1.07c1.49-0.61,2.18-1.9,2.18-3.11v-0.98h1.39v0.98
			C186.7,21.37,187.38,22.63,188.87,23.17z"/>
		<path class="st1" d="M200.16,24.29h-1.42v-6.62h-2.39c-0.15,2.39-1.43,3.86-3.12,3.86c-1.81,0-3.11-1.68-3.11-4.36
			c0-2.65,1.3-4.34,3.11-4.34c1.65,0,2.92,1.44,3.1,3.69h2.4v-4.6h1.42V24.29z M195.03,17.17c0-1.92-0.7-3.07-1.79-3.07
			c-1.05,0-1.77,1.15-1.77,3.07c0,1.98,0.72,3.1,1.77,3.1C194.33,20.28,195.03,19.16,195.03,17.17z"/>
		<path class="st1" d="M213.64,22.75h-11.17V21.6h2.61v-3.21c-0.98-0.54-1.57-1.43-1.57-2.53c0-1.97,1.9-3.22,4.53-3.22
			c2.62,0,4.53,1.25,4.53,3.22c0,1.09-0.59,1.97-1.57,2.53v3.21h2.64V22.75z M204.87,15.86c0,1.31,1.29,2.13,3.16,2.13
			c1.86,0,3.15-0.82,3.15-2.13c0-1.29-1.29-2.12-3.15-2.12C206.17,13.75,204.87,14.57,204.87,15.86z M209.59,21.6v-2.69
			c-0.47,0.12-1.01,0.18-1.56,0.18c-0.56,0-1.08-0.05-1.56-0.17v2.68H209.59z"/>
		<path class="st1" d="M215.87,21.7h1.61v1.69h-1.61V21.7z M216.14,20.4l-0.22-5.86l-0.04-1.61h1.58l-0.27,7.47H216.14z"/>
	</g>
</g>
</svg>
