<?xml version="1.0" encoding="utf-8"?>
<!-- Generator: Adobe Illustrator 26.0.1, SVG Export Plug-In . SVG Version: 6.00 Build 0)  -->
<svg version="1.1" id="레이어_1" xmlns="http://www.w3.org/2000/svg" xmlns:xlink="http://www.w3.org/1999/xlink" x="0px"
	 y="0px" viewBox="0 0 44.37 54.25" style="enable-background:new 0 0 44.37 54.25;" xml:space="preserve">
<style type="text/css">
	.st0{fill:#78C864;}
	.st1{fill:#282828;}
	.st2{fill:#DCF0DC;}
	.st3{fill:#FFFFFF;}
</style>
<g>
	<g>
		<path class="st0" d="M32.58,47.44c0.6-3.28,0.91-5.31,1.73-9.86c-9.37,0-17.82,0.12-26.82,0.31c1.11,5.98,1.43,9.19,2.79,15.01
			l0.16,0.71c5.84,0.13,15.32,0.09,21.15-0.23L32.58,47.44z"/>
	</g>
	<g>
		<g>
			<path class="st1" d="M33.1,47.58c0.59-3.28,1.14-6.58,1.73-9.86c0.06-0.34-0.15-0.69-0.52-0.69c-8.94,0-17.88,0.12-26.82,0.31
				c-0.37,0.01-0.59,0.34-0.52,0.69c0.97,5.25,1.77,10.51,2.95,15.73c0.05,0.23,0.29,0.39,0.52,0.4c7.04,0.15,14.11,0.14,21.15-0.23
				c0.22-0.01,0.48-0.16,0.52-0.4C32.44,51.55,32.77,49.57,33.1,47.58c0.11-0.68-0.93-0.97-1.04-0.29c-0.33,1.98-0.66,3.96-1,5.95
				c0.17-0.13,0.35-0.26,0.52-0.4c-7.03,0.37-14.11,0.38-21.15,0.23c0.17,0.13,0.35,0.26,0.52,0.4c-1.17-5.21-1.98-10.47-2.95-15.73
				c-0.17,0.23-0.35,0.46-0.52,0.69c8.94-0.19,17.88-0.31,26.82-0.31c-0.17-0.23-0.35-0.46-0.52-0.69
				c-0.59,3.28-1.13,6.58-1.73,9.86C31.94,47.98,32.98,48.27,33.1,47.58z"/>
		</g>
	</g>
	<g>
		<path class="st1" d="M21.35,34.41c1.31-3.81,2.19-7.75,2.28-11.79c0.08-3.72-0.27-7.41-1.96-10.79c-0.31-0.62-1.25-0.08-0.93,0.55
			c1.66,3.31,1.92,6.99,1.81,10.64c-0.11,3.81-0.99,7.51-2.23,11.1C20.08,34.78,21.12,35.06,21.35,34.41L21.35,34.41z"/>
	</g>
	<path class="st2" d="M27.85,5.98c-0.41-0.22-1.08-0.3-1.54-0.28c-0.48,0.01-0.94,0.16-1.38,0.35c-0.67,0.29-1.38,0.83-1.75,1.13
		c0.53-0.78,0.81-1.59,0.92-2.04c0.41-1.53,0.17-3.91-1.58-4.5c-0.84-0.28-1.74,0.08-2.34,0.67c-0.16,0.15-0.3,0.32-0.42,0.51
		c-0.48,0.81-0.62,1.61-0.57,2.67c0.03,0.55,0.07,1.11,0.19,1.65c-0.01-0.05-0.16-0.15-0.2-0.18c-0.71-0.65-1.59-1.25-2.47-1.66
		c-0.33-0.15-0.69-0.25-1.05-0.31c-0.8-0.11-1.7-0.01-2.35,0.52c-0.08,0.07-0.16,0.14-0.23,0.22c-0.53,0.61-0.56,1.49-0.33,2.23
		c0.14,0.45,0.4,0.86,0.72,1.2c0.17,0.17,0.35,0.32,0.54,0.46c0.38,0.26,0.8,0.43,1.24,0.57c0.25,0.08,0.5,0.15,0.76,0.21
		c0.13,0.03,0.26,0.06,0.39,0.09c0.1,0.02,0.27,0.1,0.38,0.09c-0.77,0.11-1.92,0.38-2.33,0.51c-0.4,0.12-0.88,0.28-1.25,0.47
		c-0.41,0.21-0.81,0.48-1.13,0.82c-0.16,0.17-0.29,0.36-0.4,0.57c-0.14,0.29-0.2,0.51-0.2,0.83c0,0.36,0.02,0.5,0.16,0.83
		c0.09,0.22,0.22,0.43,0.37,0.61c0.69,0.82,1.77,0.89,2.77,0.78c0.68-0.08,2.13-0.65,3-1.28c-0.54,0.74-1.05,1.51-1.44,2.35
		c-0.3,0.64-0.47,1.23-0.36,1.94c0.08,0.51,0.31,1.01,0.64,1.41c0.24,0.29,0.54,0.59,0.89,0.73c0.21,0.08,0.43,0.12,0.65,0.14
		c1.82,0.16,3.01-1.73,3.45-3.3c0.14-0.49,0.22-1,0.25-1.51c0.01-0.23,0.01-0.47,0-0.7c-0.01-0.17,0-0.48-0.08-0.63
		c0.19,0.35,0.39,0.57,0.55,0.76c0.19,0.22,0.39,0.44,0.6,0.64c0.64,0.6,1.37,1,2.26,1.08c0.47,0.04,0.95-0.02,1.39-0.19
		c0.7-0.28,1.26-0.92,1.4-1.67c0.16-0.81-0.23-1.75-0.8-2.32c-0.43-0.43-1.78-1.33-2.51-1.6c0,0,0.88-0.13,1.73-0.48
		c0.6-0.25,1.21-0.51,1.71-0.92c0.22-0.18,0.41-0.39,0.56-0.63c0.16-0.26,0.24-0.57,0.27-0.87C29,7.79,29,7.64,28.99,7.49
		C28.94,6.72,28.53,6.34,27.85,5.98z"/>
	<path class="st1" d="M18.4,20.84c-0.09,0-0.17,0-0.26-0.01c-0.29-0.02-0.56-0.09-0.8-0.18c-0.38-0.15-0.75-0.44-1.12-0.89
		c-0.4-0.48-0.66-1.08-0.76-1.68c-0.15-0.91,0.12-1.65,0.4-2.25c0.11-0.23,0.22-0.45,0.34-0.67c-0.52,0.2-1.01,0.34-1.35,0.38
		c-1.5,0.16-2.55-0.15-3.25-0.97c-0.18-0.22-0.34-0.47-0.46-0.75c-0.18-0.42-0.2-0.64-0.21-1.04c0-0.4,0.07-0.7,0.25-1.07
		c0.12-0.24,0.27-0.47,0.48-0.7c0.33-0.36,0.75-0.67,1.28-0.94c0.42-0.21,0.94-0.38,1.34-0.51c0.06-0.02,0.14-0.04,0.23-0.06
		c-0.3-0.13-0.56-0.27-0.81-0.43c-0.22-0.15-0.43-0.33-0.63-0.53c-0.4-0.41-0.69-0.9-0.85-1.41c-0.33-1.03-0.17-2.06,0.43-2.75
		c0.09-0.1,0.19-0.2,0.3-0.29c0.68-0.56,1.68-0.8,2.77-0.63c0.42,0.06,0.83,0.18,1.2,0.35c0.58,0.27,1.17,0.62,1.72,1.02
		c-0.01-0.11-0.01-0.21-0.02-0.31c-0.06-1.23,0.13-2.12,0.64-2.97c0.13-0.21,0.29-0.41,0.51-0.62c0.84-0.82,1.96-1.12,2.9-0.79
		c2.09,0.71,2.38,3.44,1.93,5.15c-0.03,0.1-0.06,0.22-0.1,0.35c0.06-0.03,0.13-0.06,0.19-0.09c0.59-0.25,1.09-0.38,1.57-0.39
		c0.52-0.01,1.28,0.07,1.81,0.35c0,0,0,0,0,0c0.71,0.38,1.37,0.87,1.43,1.96c0.01,0.17,0.01,0.36-0.01,0.54
		c-0.04,0.41-0.16,0.77-0.35,1.09c-0.16,0.28-0.39,0.54-0.68,0.78c-0.56,0.45-1.22,0.74-1.85,1c-0.14,0.06-0.28,0.11-0.42,0.16
		c0.56,0.35,1.11,0.76,1.38,1.03c0.75,0.74,1.13,1.87,0.95,2.81c-0.17,0.91-0.83,1.7-1.73,2.07c-0.5,0.2-1.06,0.3-1.64,0.23
		c-0.96-0.08-1.8-0.48-2.59-1.23c-0.06-0.06-0.12-0.11-0.17-0.17c-0.04,0.45-0.13,0.91-0.25,1.36
		C21.64,19.01,20.28,20.84,18.4,20.84z M17.81,13.17c0.14,0,0.28,0.06,0.39,0.16c0.19,0.19,0.21,0.49,0.05,0.71
		c-0.43,0.6-0.99,1.39-1.39,2.26c-0.26,0.55-0.41,1.03-0.31,1.62c0.06,0.41,0.25,0.82,0.52,1.15c0.25,0.29,0.47,0.48,0.68,0.57
		c0.14,0.05,0.3,0.09,0.49,0.1c1.55,0.11,2.56-1.76,2.88-2.9c0.13-0.47,0.21-0.94,0.23-1.4c0.01-0.21,0.01-0.42,0-0.64
		c0-0.01-0.01-0.14-0.01-0.15c0-0.08-0.01-0.23-0.02-0.28c-0.14-0.26-0.04-0.58,0.22-0.72c0.27-0.15,0.6-0.03,0.74,0.23
		c0.15,0.27,0.31,0.46,0.44,0.62c0.22,0.27,0.41,0.47,0.61,0.65c0.6,0.57,1.24,0.87,1.94,0.94c0.39,0.02,0.8-0.02,1.14-0.16
		c0.54-0.22,0.96-0.71,1.06-1.26c0.11-0.58-0.16-1.35-0.64-1.83c-0.36-0.36-1.64-1.23-2.31-1.48c-0.23-0.09-0.38-0.32-0.35-0.57
		c0.03-0.25,0.22-0.45,0.46-0.48c0.01,0,0.83-0.13,1.6-0.44c0.58-0.24,1.13-0.48,1.58-0.84c0.19-0.15,0.33-0.31,0.43-0.48
		c0.11-0.18,0.18-0.4,0.2-0.65c0.01-0.12,0.02-0.24,0.01-0.35c-0.03-0.49-0.23-0.73-0.85-1.07l0,0c-0.28-0.14-0.82-0.29-1.27-0.22
		c-0.35,0.01-0.72,0.1-1.18,0.3c-0.68,0.29-1.41,0.88-1.62,1.05c-0.21,0.18-0.51,0.17-0.72-0.01c-0.2-0.18-0.24-0.49-0.08-0.71
		c0.5-0.73,0.74-1.49,0.85-1.87c0.34-1.27,0.18-3.36-1.23-3.84c-0.66-0.22-1.37,0.13-1.79,0.54c-0.14,0.14-0.25,0.27-0.32,0.39
		c-0.4,0.67-0.54,1.35-0.49,2.36c0.02,0.48,0.06,1.03,0.18,1.56l0,0c0,0,0,0.01,0,0.01c0.06,0.29-0.13,0.58-0.42,0.64
		c-0.26,0.06-0.53-0.09-0.62-0.35l-0.05,0.04c-0.7-0.64-1.53-1.2-2.34-1.57c-0.28-0.13-0.58-0.21-0.9-0.26
		c-0.77-0.12-1.47,0.03-1.93,0.4c-0.06,0.05-0.11,0.1-0.16,0.15c-0.41,0.47-0.38,1.19-0.22,1.7c0.11,0.35,0.32,0.69,0.6,0.98
		c0.14,0.15,0.3,0.28,0.46,0.38c0.29,0.2,0.63,0.36,1.1,0.51c0.24,0.07,0.48,0.14,0.72,0.2l0.38,0.09C16.57,8.96,16.69,9,16.71,9
		l0.01,0.03c0.03,0.01,0.06-0.01,0.09-0.01c0.27,0,0.5,0.19,0.54,0.46c0.05,0.3-0.16,0.58-0.45,0.62c0,0-0.01,0-0.01,0
		c-0.74,0.11-1.85,0.36-2.25,0.49c-0.36,0.11-0.82,0.26-1.16,0.43c-0.41,0.21-0.73,0.44-0.97,0.71c-0.13,0.14-0.23,0.29-0.3,0.44
		c-0.11,0.23-0.15,0.36-0.14,0.59c0,0.31,0.01,0.38,0.11,0.63c0.07,0.17,0.17,0.33,0.29,0.47c0.45,0.53,1.17,0.71,2.29,0.59
		c0.6-0.07,1.96-0.61,2.74-1.18C17.58,13.21,17.7,13.17,17.81,13.17z M19,6.22l0.13-0.03L19,6.22z"/>
	<g>
		<path class="st3" d="M19.67,8.87c-0.23,0.14-0.42,0.34-0.54,0.58c-0.09,0.18-0.15,0.38-0.16,0.59c-0.02,0.33,0.07,0.66,0.21,0.96
			c0.27,0.6,0.8,1.02,1.49,0.93c0.6-0.07,1.26-0.33,1.66-0.8c0.4-0.46,0.45-0.99,0.23-1.53c-0.2-0.48-0.63-0.75-1.11-0.91
			C20.85,8.5,20.21,8.52,19.67,8.87z"/>
	</g>
	<g>
		<g>
			<path class="st1" d="M19.4,8.4c-0.43,0.29-0.76,0.69-0.9,1.19c-0.13,0.5-0.06,1.03,0.13,1.5c0.33,0.8,1.06,1.47,1.98,1.39
				c0.9-0.08,1.9-0.51,2.36-1.33c0.5-0.89,0.2-2-0.59-2.59C21.54,7.93,20.29,7.85,19.4,8.4c-0.25,0.15-0.34,0.48-0.19,0.74
				c0.15,0.25,0.49,0.35,0.74,0.19c0.28-0.17,0.52-0.23,0.83-0.22c0.15,0.01,0.23,0.02,0.42,0.07c0.07,0.02,0.14,0.05,0.22,0.07
				c0.01,0,0.1,0.04,0.02,0c0.04,0.02,0.08,0.04,0.12,0.05c0.07,0.03,0.13,0.07,0.2,0.11c0.03,0.02,0.06,0.04,0.08,0.06
				c-0.02-0.02-0.06-0.06,0.01,0.01c0.05,0.05,0.1,0.09,0.14,0.14c-0.06-0.07,0,0,0.01,0.01c0.03,0.04,0.05,0.09,0.08,0.13
				c0,0.01,0.04,0.09,0.01,0.02c0.01,0.04,0.03,0.08,0.04,0.11c0.01,0.02,0.05,0.22,0.04,0.14c0.01,0.07,0.01,0.15,0.01,0.22
				c0,0.11,0,0.05,0,0.02c-0.01,0.06-0.03,0.11-0.04,0.16c-0.03,0.09-0.02,0.06-0.01,0.03c-0.02,0.04-0.03,0.07-0.05,0.1
				c-0.05,0.08-0.05,0.09-0.1,0.14c-0.05,0.06-0.11,0.12-0.17,0.17c-0.01,0.01-0.09,0.08-0.05,0.05c0.04-0.03-0.07,0.05-0.08,0.05
				c-0.11,0.08-0.3,0.17-0.38,0.21c-0.09,0.04-0.3,0.1-0.44,0.13c-0.04,0.01-0.07,0.02-0.11,0.02c-0.01,0-0.12,0.02-0.06,0.01
				c0.07-0.01-0.09,0.01-0.09,0.01c-0.03,0-0.07,0-0.1,0c-0.03,0-0.07,0-0.1-0.01c0.03,0,0.1,0.02,0,0
				c-0.03-0.01-0.06-0.01-0.09-0.02c-0.03-0.01-0.15-0.06-0.05-0.01c-0.06-0.03-0.11-0.06-0.16-0.09c-0.02-0.01-0.08-0.06,0,0
				c-0.02-0.02-0.05-0.04-0.07-0.06c-0.05-0.04-0.09-0.09-0.13-0.14c-0.07-0.07-0.02-0.02-0.01,0c-0.03-0.04-0.06-0.08-0.08-0.12
				c-0.17-0.28-0.26-0.59-0.25-0.91c0-0.11,0.01-0.06,0-0.04c0.01-0.06,0.03-0.12,0.04-0.18c0.02-0.08,0.02-0.07,0.01-0.04
				c0.02-0.05,0.05-0.11,0.08-0.16c0.07-0.12,0.17-0.21,0.29-0.29c0.24-0.16,0.35-0.48,0.19-0.74C20,8.35,19.64,8.24,19.4,8.4z"/>
		</g>
	</g>
	<g>
		<path class="st2" d="M35.77,18.83c0.16-1.56-0.08-3.75-0.68-4.75c-0.42-0.7-1.43-1.12-2.24-1c-0.39,0.06-0.77,0.27-1.08,0.49
			c-0.33,0.23-0.61,0.44-0.79,0.79c-0.46,0.91-0.31,1.83-0.18,2.85c0.12,0.96,0.4,1.95,1,2.98c-0.79-0.9-1.42-1.03-2.61-1.58
			c-0.16-0.07-0.32-0.13-0.49-0.19c-0.39-0.13-0.79-0.2-1.2-0.18c-0.2,0.01-0.4,0.03-0.6,0.08c-0.31,0.07-0.6,0.19-0.86,0.36
			c-0.78,0.52-0.95,1.41-0.56,2.21c0.32,0.65,0.76,1.38,1.36,1.81c1.1,0.8,1.95,0.94,3.5,1.09c-0.89,0.16-1.96,0.42-2.76,0.85
			c-0.71,0.38-1.16,0.7-1.67,1.43c-0.51,0.73-0.48,1.39,0.04,2.11c0.44,0.61,1.24,0.85,1.99,0.9c1.85,0.1,4.19-1.14,5.12-2.59
			c-0.34,1.23-0.31,2.96,0.78,4.18c0.68,0.76,1.57,1.15,2.58,0.99c1.24-0.19,1.99-1.55,1.83-2.96c-0.14-1.18-0.5-1.72-1.23-3.13
			c0.25,0.18,0.77,0.39,0.98,0.48c0.91,0.38,1.39,0.65,2.38,0.79c0.38,0.05,0.76,0.07,1.14,0.03c0.25-0.02,0.5-0.07,0.75-0.14
			c0.29-0.08,0.57-0.21,0.82-0.38c0.32-0.21,0.58-0.51,0.69-0.88c0.09-0.31,0.1-0.65,0.04-0.97c-0.05-0.28-0.15-0.56-0.28-0.81
			c-0.45-0.88-1.2-1.38-2.1-1.68c-0.95-0.32-1.83-0.56-3.06-0.54c1.09-0.57,1.78-0.97,2.34-1.62c0.64-0.74,1.18-1.49,1.42-2.32
			c0.15-0.52,0.35-1.4-0.3-1.96c-0.45-0.39-1.08-0.52-1.67-0.43s-1.64,0.54-2.13,0.88C37.16,16.59,36.4,17.15,35.77,18.83z"/>
	</g>
	<g>
		<g>
			<path class="st1" d="M36.31,18.83c0.21-2.3-0.14-6.79-3.53-6.28c-3.82,0.58-2.73,5.61-1.45,7.92c0.28-0.22,0.57-0.44,0.85-0.66
				c-0.91-0.98-2.34-1.68-3.63-1.99c-1.33-0.32-3.16,0.05-3.68,1.49c-0.47,1.31,0.5,2.87,1.47,3.68c1.15,0.96,2.54,1.19,3.99,1.34
				c-0.05-0.35-0.1-0.71-0.14-1.06c-1.52,0.29-3.16,0.74-4.25,1.9c-1.06,1.12-1.32,2.66-0.04,3.75c2.27,1.92,6.2-0.09,7.62-2.16
				c-0.33-0.14-0.66-0.28-0.99-0.42c-0.34,1.38-0.29,2.92,0.49,4.15c0.75,1.18,2.11,1.97,3.53,1.69c1.27-0.25,2.06-1.4,2.21-2.63
				c0.2-1.56-0.6-2.92-1.29-4.25c-0.25,0.25-0.49,0.49-0.74,0.74c1.17,0.72,2.68,1.29,4.05,1.38c1.31,0.08,3.07-0.37,3.49-1.8
				c0.39-1.32-0.39-2.78-1.47-3.52c-1.24-0.86-2.97-1.15-4.45-1.16c0.09,0.34,0.18,0.67,0.27,1.01c1.53-0.81,2.8-1.76,3.62-3.33
				c0.64-1.21,0.94-2.93-0.48-3.72c-1.27-0.7-2.82-0.1-3.95,0.6c-1.25,0.78-2.03,1.83-2.57,3.19c-0.26,0.65,0.79,0.93,1.04,0.29
				c0.4-0.99,0.95-1.77,1.83-2.38c0.73-0.5,1.79-1.09,2.7-0.89c1.64,0.35,0.6,2.32,0,3.13c-0.74,1.01-1.66,1.59-2.75,2.17
				c-0.49,0.26-0.25,1.01,0.27,1.01c1.04,0.01,2.06,0.19,3.04,0.56c1,0.38,2.3,1.52,1.84,2.75c-0.45,1.2-2.34,1.11-3.32,0.88
				c-0.88-0.21-1.86-0.62-2.63-1.1c-0.48-0.3-0.98,0.28-0.74,0.74c0.43,0.84,0.95,1.67,1.12,2.62c0.17,0.98-0.08,2.28-1.17,2.62
				c-1.09,0.35-2.19-0.47-2.68-1.38c-0.5-0.94-0.5-2.07-0.25-3.08c0.15-0.61-0.65-0.92-0.99-0.42c-1.06,1.54-3.63,2.89-5.5,2.15
				c-1.69-0.67-0.76-2.3,0.33-3c0.92-0.59,2.01-0.84,3.07-1.05c0.64-0.12,0.42-1.01-0.14-1.06c-0.93-0.09-1.86-0.2-2.69-0.67
				c-0.81-0.46-2.02-1.71-1.8-2.75c0.32-1.48,2.4-1.03,3.34-0.62c0.84,0.37,1.59,0.69,2.23,1.37c0.43,0.46,1.14-0.13,0.85-0.66
				c-0.63-1.13-0.92-2.31-1.03-3.6c-0.1-1.28,0.5-2.82,2.05-2.71c2.21,0.16,2.09,3.64,1.95,5.21
				C35.16,19.52,36.25,19.52,36.31,18.83z"/>
		</g>
	</g>
	<g>
		<path class="st3" d="M35.85,23.89c-0.12,0.13-0.27,0.25-0.42,0.34c-0.17,0.1-0.35,0.18-0.53,0.24c-0.21,0.06-0.42,0.1-0.64,0.11
			c-0.62,0.03-1.28-0.14-1.64-0.69c-0.61-0.94,0.08-2.03,0.95-2.51c0.66-0.36,1.54-0.35,2.16,0.1
			C36.53,22.04,36.48,23.22,35.85,23.89z"/>
	</g>
	<g>
		<g>
			<path class="st1" d="M35.47,23.51c-0.16,0.17-0.2,0.2-0.41,0.31c-0.09,0.05-0.14,0.07-0.19,0.09c-0.11,0.04-0.22,0.07-0.34,0.09
				c0,0-0.19,0.03-0.09,0.02c-0.06,0.01-0.12,0.01-0.18,0.01c-0.08,0-0.15,0-0.23,0c-0.04,0-0.08,0-0.11-0.01
				c-0.03,0-0.13-0.02-0.02,0c-0.09-0.01-0.18-0.03-0.27-0.06c-0.04-0.01-0.09-0.03-0.13-0.04c-0.14-0.04,0.09,0.05-0.04-0.01
				c-0.07-0.04-0.13-0.07-0.19-0.11c-0.12-0.07,0.04,0.05-0.02-0.01c-0.03-0.03-0.06-0.05-0.08-0.08c-0.03-0.03-0.06-0.07-0.09-0.1
				c0.07,0.09-0.01-0.03-0.03-0.05c-0.03-0.04-0.05-0.09-0.07-0.13c0.05,0.1-0.01-0.03-0.02-0.05c-0.01-0.03-0.02-0.06-0.03-0.09
				c-0.01-0.02-0.02-0.17-0.01-0.04c-0.01-0.07-0.01-0.15-0.01-0.22c0-0.03,0.03-0.16,0-0.03c0.01-0.04,0.02-0.09,0.03-0.13
				c0.01-0.04,0.03-0.09,0.04-0.13c0.04-0.14-0.05,0.09,0.01-0.04c0.03-0.07,0.07-0.14,0.11-0.2c0.02-0.03,0.04-0.07,0.06-0.1
				c0.02-0.02,0.08-0.1,0.01-0.02c0.06-0.07,0.12-0.14,0.19-0.21c0.03-0.03,0.07-0.07,0.1-0.1c0.01-0.01,0.13-0.11,0.04-0.03
				c0.06-0.05,0.13-0.09,0.19-0.13c0.07-0.04,0.14-0.08,0.21-0.11c0.13-0.07-0.1,0.03,0.05-0.02c0.05-0.02,0.09-0.03,0.14-0.05
				c0.09-0.03,0.19-0.05,0.28-0.06c-0.02,0-0.1,0.01,0,0c0.05,0,0.1-0.01,0.15-0.01c0.08,0,0.16,0,0.24,0.01
				c0.15,0.01-0.1-0.03,0.05,0.01c0.05,0.01,0.09,0.02,0.14,0.03c0.05,0.01,0.09,0.03,0.14,0.04c0,0,0.14,0.06,0.07,0.03
				c-0.07-0.03,0.07,0.04,0.07,0.04c0.04,0.02,0.08,0.05,0.13,0.07c0,0,0.13,0.09,0.06,0.04c-0.06-0.05,0.04,0.04,0.05,0.04
				c0.03,0.03,0.06,0.06,0.09,0.09c0.09,0.09-0.05-0.09,0.02,0.02c0.05,0.07,0.08,0.14,0.12,0.21c-0.06-0.12,0-0.01,0.01,0.02
				c0.02,0.05,0.03,0.1,0.04,0.16c0.01,0.03,0.01,0.05,0.02,0.08c-0.03-0.15,0,0.02,0,0.06c0,0.08,0,0.16-0.01,0.25
				c-0.01,0.13,0.03-0.07,0,0c-0.02,0.04-0.02,0.1-0.03,0.14c-0.01,0.04-0.02,0.08-0.04,0.12c-0.01,0.03-0.06,0.14-0.01,0.03
				c-0.04,0.08-0.07,0.15-0.12,0.22c-0.02,0.04-0.05,0.07-0.07,0.1C35.59,23.34,35.49,23.48,35.47,23.51
				c-0.19,0.21-0.22,0.56,0,0.77c0.21,0.19,0.56,0.22,0.77,0c0.63-0.68,0.81-1.67,0.43-2.51c-0.43-0.94-1.54-1.28-2.5-1.15
				c-0.94,0.13-1.78,0.82-2.14,1.69c-0.39,0.93-0.04,2.07,0.89,2.54c1.07,0.53,2.5,0.29,3.33-0.57c0.2-0.2,0.22-0.57,0-0.77
				C36.02,23.31,35.68,23.29,35.47,23.51z"/>
		</g>
	</g>
	<g>
		<path class="st1" d="M12.94,27.99c1.64,0.22,3.06,1.01,4.28,2.09c1.21,1.07,2.3,2.22,3.14,3.62c0.36,0.6,1.29,0.05,0.93-0.55
			c-0.93-1.55-2.15-2.85-3.52-4.02c-1.4-1.2-3-1.98-4.83-2.23c-0.29-0.04-0.54,0.28-0.54,0.54C12.39,27.78,12.65,27.95,12.94,27.99
			L12.94,27.99z"/>
	</g>
	<g>
		<path class="st1" d="M32.37,27.23c-0.72,0.87-1.39,1.78-1.94,2.76c-0.54,0.99-0.95,2.04-1.25,3.12c-0.18,0.67,0.86,0.96,1.04,0.29
			c0.55-2.03,1.58-3.79,2.91-5.41c0.19-0.23,0.22-0.54,0-0.77C32.94,27.04,32.56,27.01,32.37,27.23L32.37,27.23z"/>
	</g>
	<g>
		<path class="st0" d="M5.47,33.81c9.08-0.38,18.17-0.51,27.26-0.38c1.49,0.02,1.35,0.03,2.83,0.08c-0.01,0.69-0.01,1.39-0.02,2.08
			c0,0.27-0.01,0.54-0.02,0.81c0,0.14-0.01,0.28-0.01,0.42c-0.01,0.17,0.01,0.36-0.07,0.52c-0.11,0.21-0.29,0.23-0.5,0.23
			c-0.26,0-0.53,0.01-0.79,0.01c-0.71,0.01-1.42,0.01-2.14,0.01c-0.65,0-1.29,0-1.94,0.01c-0.79,0-1.58,0.01-2.37,0.02
			c-0.86,0.01-1.72,0.02-2.57,0.03c-6.51,0.08-13.03,0.17-19.54,0.25c-0.07-1.24-0.08-2.86-0.09-3.32L5.47,33.81z"/>
	</g>
	<g>
		<g>
			<path class="st1" d="M5.47,34.35c10.01-0.41,20.07-0.67,30.09-0.3c-0.18-0.18-0.36-0.36-0.54-0.54c-0.01,0.83,0.36,3.2-0.49,3.52
				c-0.33,0.12-1.13,0.01-1.46,0.01c-0.68,0-1.36,0.01-2.04,0.01c-2.66,0.01-5.32,0.05-7.98,0.09c-5.82,0.07-11.65,0.15-17.47,0.22
				c0.18,0.18,0.36,0.36,0.54,0.54c-0.07-1.36-0.08-2.73-0.11-4.1c-0.01-0.7-1.1-0.7-1.08,0c0.03,1.37,0.04,2.73,0.11,4.1
				c0.01,0.29,0.24,0.55,0.54,0.54c6.77-0.09,13.54-0.17,20.32-0.26c2.93-0.04,5.91,0.11,8.83-0.08c2.07-0.13,1.36-3.15,1.37-4.6
				c0-0.3-0.25-0.53-0.54-0.54c-10.01-0.37-20.08-0.11-30.09,0.3C4.77,33.3,4.77,34.38,5.47,34.35z"/>
		</g>
	</g>
	<g>
		<path class="st2" d="M6.54,25.83c-1.76,0.42-2.87,0.06-4.42-0.88c-0.99-0.6-1.9-1.94-1.47-3.01c0.35-0.87,1.88-1.48,2.82-1.46
			c1.73,0.04,3.13,0.42,4.6,1.55c-0.11-1.11-0.25-1.68-0.1-2.78c0.09-0.65,0.31-1.45,0.63-2.03c0.32-0.57,1.16-1.08,1.81-1.21
			c0.95-0.18,1.59,0.66,2.02,1.52c0.43,0.87,0.43,1.88,0.3,2.84c-0.13,0.96-0.22,1.47-0.55,2.6c1.01-0.41,1.37-0.47,2.29-0.68
			c1.03-0.24,2.17-0.25,3.07,0.3c0.9,0.55,1.44,1.77,0.95,2.71c-0.22,0.42-0.6,0.73-1,0.99c-1.52,0.98-3,0.93-4.78,0.64
			c1.11,0.98,1.87,2.46,2.4,3.85c0.53,1.39,0.16,2.99-1.16,3.68c-1.26,0.66-2.73-0.25-3.48-1.21c-0.87-1.12-1.12-2.37-1.35-3.97
			c-0.91,1.69-2.44,2.49-3.36,2.89c-0.44,0.19-2.36,0.64-2.83,0.56c-0.73-0.13-1.22-0.9-1.23-1.64c-0.01-0.74,0.35-1.44,0.78-2.04
			C3.62,27.45,4.61,26.29,6.54,25.83z"/>
	</g>
	<g>
		<g>
			<path class="st1" d="M6.4,25.3c-1.27,0.28-2.33,0.1-3.47-0.51c-0.9-0.49-2.55-1.83-1.55-2.95c1.59-1.8,4.9-0.46,6.42,0.67
				c0.32,0.23,0.86-0.08,0.81-0.47c-0.11-1.06-0.26-2.09-0.03-3.15c0.21-0.99,0.83-2.4,2.08-2.35c1.33,0.05,1.64,2.27,1.59,3.2
				c-0.06,1.05-0.31,2.09-0.6,3.1c-0.1,0.37,0.27,0.82,0.67,0.67c1.58-0.62,4.73-1.71,5.66,0.4c0.56,1.27-0.8,2.1-1.84,2.44
				c-1.07,0.35-2.2,0.24-3.29,0.07c-0.49-0.08-0.96,0.5-0.53,0.9c1.38,1.28,3.71,4.78,1.71,6.43c-1.17,0.96-2.65-0.07-3.34-1.11
				c-0.69-1.04-0.88-2.3-1.06-3.5c-0.07-0.48-0.78-0.5-0.99-0.13c-1.04,1.83-3.21,3.14-5.35,3.18c-0.84,0.02-1.17-0.81-1-1.57
				c0.17-0.76,0.74-1.45,1.22-2.05c0.86-1.09,1.83-1.87,3.18-2.23C7.36,26.17,7.07,25.13,6.4,25.3c-1.78,0.47-2.99,1.59-4.07,3.04
				c-0.97,1.31-1.97,3.58-0.13,4.69c1,0.6,2.7,0.05,3.69-0.34c1.55-0.6,2.86-1.7,3.68-3.14c-0.33-0.04-0.66-0.09-0.99-0.13
				c0.25,1.65,0.6,3.36,1.83,4.59c1.08,1.08,2.77,1.67,4.12,0.71c2.87-2.04,0.48-6.38-1.45-8.17c-0.18,0.3-0.35,0.6-0.53,0.9
				c1.48,0.23,2.99,0.35,4.4-0.27c1.25-0.55,2.46-1.56,2.21-3.06c-0.57-3.42-4.89-2.55-7.14-1.66c0.22,0.22,0.44,0.44,0.67,0.67
				c0.42-1.47,0.82-3.13,0.57-4.67c-0.19-1.2-1.03-2.82-2.38-2.99c-1.27-0.16-2.51,0.84-2.99,1.94c-0.65,1.51-0.55,3.03-0.38,4.62
				c0.27-0.16,0.54-0.31,0.81-0.47c-1.43-1.07-3.17-1.68-4.97-1.63c-1.19,0.04-2.8,0.65-3.24,1.86c-0.52,1.42,0.59,2.89,1.72,3.62
				c1.51,0.97,3.08,1.31,4.84,0.93C7.37,26.2,7.08,25.15,6.4,25.3z"/>
		</g>
	</g>
	<g>
		<path class="st3" d="M9.05,23.82c-0.21,0.14-0.39,0.33-0.52,0.54c-0.23,0.39-0.28,0.75-0.23,1.18c0.06,0.53,0.35,1.05,0.8,1.36
			c0.14,0.1,0.31,0.17,0.49,0.21c0.26,0.05,0.54-0.01,0.79-0.11c0.33-0.14,0.64-0.34,0.87-0.61c0.84-0.97,0.28-2.59-0.98-2.81
			c-0.07-0.01-0.14-0.02-0.2-0.02c-0.12-0.01-0.24,0-0.36,0.02C9.46,23.61,9.24,23.7,9.05,23.82z"/>
	</g>
	<g>
		<g>
			<path class="st1" d="M8.77,23.36c-0.88,0.6-1.24,1.69-0.92,2.7c0.32,1.01,1.27,1.81,2.36,1.56c0.87-0.19,1.7-0.91,1.9-1.79
				c0.17-0.75-0.04-1.54-0.55-2.11C10.86,22.93,9.65,22.81,8.77,23.36c-0.25,0.15-0.34,0.48-0.19,0.74
				c0.14,0.25,0.49,0.35,0.74,0.19c0.26-0.16,0.52-0.23,0.82-0.19c0.06,0.01,0.13,0.03,0.19,0.05c0.03,0.01,0.05,0.02,0.08,0.03
				c-0.1-0.03-0.04-0.02-0.01-0.01c0.06,0.03,0.12,0.06,0.18,0.1c0.02,0.01,0.04,0.03,0.07,0.05c-0.07-0.05-0.03-0.02,0.02,0.02
				c0.04,0.04,0.08,0.07,0.12,0.11c0.02,0.02,0.04,0.05,0.07,0.08c0.05,0.05-0.04-0.08-0.01-0.01c0.03,0.05,0.07,0.1,0.1,0.15
				c0.02,0.03,0.1,0.22,0.05,0.09c0.04,0.11,0.08,0.23,0.1,0.35c0.01,0.03,0.01,0.05,0.01,0.08c-0.02-0.13-0.01-0.05-0.01-0.02
				c0,0.07,0.01,0.15,0,0.22c0,0.03-0.01,0.05-0.01,0.08c0,0.08,0.03-0.13,0,0c-0.01,0.05-0.02,0.11-0.04,0.16
				c-0.01,0.03-0.07,0.19-0.04,0.13c0.03-0.08-0.02,0.05-0.03,0.05c-0.02,0.04-0.04,0.07-0.06,0.11c-0.02,0.03-0.12,0.15-0.04,0.07
				c-0.06,0.06-0.11,0.12-0.17,0.18c-0.11,0.11-0.23,0.18-0.4,0.27c-0.15,0.08-0.26,0.13-0.44,0.16c0.03,0,0.07,0-0.04,0
				c-0.04,0-0.08,0-0.12,0c0.06,0.01-0.03-0.01-0.04-0.01c0,0-0.17-0.05-0.09-0.02c-0.09-0.04-0.17-0.09-0.25-0.15
				c0.06,0.05-0.09-0.08-0.1-0.09c-0.03-0.03-0.05-0.05-0.07-0.08c-0.12-0.12,0.02,0.04-0.03-0.04c-0.05-0.07-0.1-0.15-0.14-0.23
				c-0.07-0.13-0.11-0.25-0.14-0.46c0,0.03,0.01,0.1,0-0.02c-0.01-0.06-0.01-0.12-0.01-0.18c0-0.04,0-0.08,0-0.11
				c0,0,0.02-0.17,0-0.08c0.06-0.36,0.24-0.65,0.5-0.82c0.24-0.16,0.35-0.48,0.19-0.74C9.37,23.31,9.02,23.19,8.77,23.36z"/>
		</g>
	</g>
</g>
</svg>
