<?xml version="1.0" encoding="utf-8"?>
<!-- Generator: Adobe Illustrator 26.0.2, SVG Export Plug-In . SVG Version: 6.00 Build 0)  -->
<svg version="1.1" id="레이어_1" xmlns="http://www.w3.org/2000/svg" xmlns:xlink="http://www.w3.org/1999/xlink" x="0px"
	 y="0px" viewBox="0 0 45 40" style="enable-background:new 0 0 45 40;" xml:space="preserve">
<style type="text/css">
	.st0{fill:#282828;}
	.st1{fill:#FFFFFF;}
	.st2{fill:#FFF0FF;}
	.st3{fill:#FFB1CF;}
</style>
<g>
	<g>
		<g>
			<path class="st0" d="M34.7,6.3c1.6-0.6,3.2-1.4,4.7-2.4c0.6-0.4,0-1.3-0.5-0.9c-1.4,0.9-2.9,1.6-4.4,2.2
				c-0.3,0.1-0.5,0.4-0.4,0.7C34.1,6.2,34.4,6.4,34.7,6.3L34.7,6.3z"/>
		</g>
	</g>
	<g>
		<g>
			<path class="st0" d="M36.6,1.7c-0.2,2-0.3,4.1-0.5,6.1c0,0.3,0.3,0.5,0.5,0.5c0.3,0,0.5-0.2,0.5-0.5c0.2-2,0.3-4.1,0.5-6.1
				c0-0.3-0.3-0.5-0.5-0.5C36.9,1.2,36.7,1.4,36.6,1.7L36.6,1.7z"/>
		</g>
	</g>
	<g>
		<g>
			<path class="st0" d="M34.2,3.5c1.7,1.2,3.3,2.4,5,3.6c0.2,0.2,0.6,0,0.7-0.2c0.2-0.3,0-0.6-0.2-0.7c-1.7-1.2-3.3-2.4-5-3.6
				c-0.2-0.2-0.6,0-0.7,0.2C33.8,3,33.9,3.3,34.2,3.5L34.2,3.5z"/>
		</g>
	</g>
	<g>
		<g>
			<path class="st0" d="M12.5,28.9c-0.4,1.7-0.6,3.4-0.7,5.2c0,0.7,1.1,0.7,1.1,0c0.1-1.7,0.3-3.3,0.7-4.9
				C13.7,28.5,12.6,28.2,12.5,28.9L12.5,28.9z"/>
		</g>
	</g>
	<g>
		<g>
			<path class="st0" d="M15.2,33.2c-1.6-1.3-3.1-2.6-4.7-3.9c-0.2-0.2-0.6-0.2-0.8,0c-0.2,0.2-0.2,0.6,0,0.8
				c1.6,1.3,3.1,2.6,4.7,3.9c0.2,0.2,0.6,0.2,0.8,0C15.4,33.8,15.4,33.4,15.2,33.2L15.2,33.2z"/>
		</g>
	</g>
	<g>
		<g>
			<path class="st0" d="M15.2,30.1c-1.9,0.7-3.9,1.3-5.8,2c-0.6,0.2-0.4,1.3,0.3,1c1.9-0.7,3.8-1.3,5.8-2
				C16.1,30.9,15.8,29.9,15.2,30.1L15.2,30.1z"/>
		</g>
	</g>
	<g>
		<g>
			<g>
				<path class="st1" d="M32.1,27.3c0-0.1,0-0.2-0.1-0.2c-1.3,1.5-2.9,2.7-4.8,3.4c2.1,2.1,3.6,4.9,4.1,8.8c0.5-1.2,1.1-2.5,2.3-3.1
					c1.1-0.5,2.3-0.2,3.5-0.4c1.6-0.3,2.9-1.5,3.4-3C36.4,32.9,33.4,30.2,32.1,27.3z"/>
			</g>
			<g>
				<g>
					<path class="st0" d="M32.6,27.1c0-0.1-0.1-0.2-0.1-0.2c-0.1-0.4-0.7-0.4-0.9-0.1c-1.2,1.4-2.8,2.5-4.5,3.2
						c-0.4,0.2-0.4,0.7-0.1,0.9c2.3,2.3,3.5,5.3,3.9,8.5c0.1,0.5,0.8,0.7,1,0.2c0.4-0.9,0.8-2,1.7-2.6c1-0.7,2.3-0.4,3.5-0.5
						c1.9-0.2,3.5-1.6,4-3.4c0.1-0.4-0.1-0.8-0.6-0.8C37,32.3,34,30.2,32.6,27.1c-0.3-0.6-1.3-0.2-1,0.4c1.6,3.6,5,5.8,8.9,5.9
						c-0.2-0.3-0.4-0.5-0.6-0.8c-0.3,1-0.9,1.8-1.9,2.3c-1,0.5-2.1,0.4-3.2,0.5c-2.2,0.1-3.3,1.8-4.1,3.7c0.3,0.1,0.7,0.1,1,0.2
						c-0.4-3.5-1.7-6.7-4.3-9.2c0,0.3-0.1,0.6-0.1,0.9c1.9-0.8,3.6-2,5-3.6c-0.3,0-0.6-0.1-0.9-0.1c0,0.1,0.1,0.2,0.1,0.2
						C31.9,28.2,32.9,27.8,32.6,27.1z"/>
				</g>
			</g>
		</g>
		<g>
			<g>
				<path class="st1" d="M31.1,23.2c-0.2-1.4-0.2-2.7-0.4-4.3c-0.4-3.4-0.1-4.7-2.1-9.2L14.2,25.3c3.6,0.5,7,1.3,9.9,2.9
					c1.6-0.3,3.1-0.9,4.3-1.8C29.5,25.5,30.3,24.4,31.1,23.2z"/>
			</g>
			<g>
				<g>
					<path class="st0" d="M31.6,23.1c-0.3-2.4-0.4-4.9-0.7-7.3c-0.2-2.2-0.9-4.3-1.8-6.3c-0.2-0.4-0.7-0.4-0.9-0.1
						C24,13.9,19.8,18.5,15.6,23c-0.6,0.6-1.2,1.3-1.8,1.9c-0.3,0.3,0,0.8,0.3,0.9c1.7,0.2,3.4,0.5,5.1,1c0.9,0.2,1.7,0.5,2.6,0.9
						c0.7,0.3,1.5,0.8,2.2,1c0.6,0.1,1.5-0.3,2-0.5c0.8-0.3,1.5-0.6,2.2-1.1c1.4-0.9,2.4-2.2,3.3-3.6c0.4-0.6-0.5-1.3-0.8-0.7
						c-0.8,1.3-1.8,2.6-3.1,3.4c-0.8,0.5-1.6,0.9-2.5,1.1c-0.3,0.1-0.7,0.2-1.1,0.2c-0.3-0.1-0.7-0.4-1-0.5
						c-2.7-1.2-5.7-1.9-8.7-2.3c0.1,0.3,0.2,0.6,0.3,0.9c4.2-4.6,8.4-9.1,12.6-13.7c0.6-0.6,1.2-1.3,1.8-1.9c-0.3,0-0.6-0.1-0.9-0.1
						c0.9,2,1.5,4,1.8,6.2c0.2,2.4,0.4,4.8,0.7,7.1C30.6,23.9,31.7,23.8,31.6,23.1z"/>
				</g>
			</g>
		</g>
		<g>
			<g>
				<path class="st2" d="M32,27.1c-0.6-1.4-0.8-2.6-1-3.9c-0.7,1.2-1.6,2.3-2.7,3.1c-1.3,1-2.8,1.6-4.3,1.8c1.2,0.6,2.3,1.4,3.2,2.3
					C29.1,29.7,30.8,28.6,32,27.1z"/>
			</g>
			<g>
				<g>
					<path class="st0" d="M32.6,26.9c-0.5-1.2-0.8-2.4-0.9-3.7c0-0.4-0.7-0.7-1-0.3C29.9,24,29.1,25.1,28,26
						c-1.2,0.9-2.5,1.4-3.9,1.7c-0.5,0.1-0.6,0.8-0.2,1c1.1,0.6,2.2,1.3,3.1,2.2c0.1,0.1,0.4,0.1,0.5,0.1c1.9-0.8,3.6-2,5-3.6
						c0.5-0.5-0.4-1.2-0.8-0.7c-1.2,1.4-2.8,2.5-4.5,3.2c0.2,0,0.4,0.1,0.5,0.1c-1-0.9-2.1-1.7-3.3-2.4c-0.1,0.3-0.1,0.7-0.2,1
						c1.6-0.3,3.1-0.9,4.4-1.8c1.2-0.9,2.2-2.1,3-3.4c-0.3-0.1-0.6-0.2-1-0.3c0.2,1.4,0.5,2.7,1,4C31.8,27.9,32.8,27.5,32.6,26.9z"
						/>
				</g>
			</g>
		</g>
		<g>
			<g>
				<path class="st2" d="M25.8,28.5c-0.4,0-1,0.5-1.3,0.8c-1.1,1.5-0.4,2.3-1.4,4.3c-1,1.9-3.9,2.4-5.6,2.7c1.4,0.1,3.3,1,3.7,2.6
					c0.3-0.6,0.5-0.9,0.9-1.5c0.4-0.5,1.2-1.2,1.7-1.6c1.9-1.6,2-2.9,1.7-5.1c-0.1-0.9,0.2-1.3,0.5-2C26,28.6,25.8,28.5,25.8,28.5z"
					/>
			</g>
			<g>
				<g>
					<path class="st0" d="M25.7,28c-1.1,0.1-1.9,1.2-2.3,2.2c-0.1,0.5-0.2,0.9-0.3,1.4c-0.1,0.6-0.2,1.2-0.5,1.7
						c-0.9,1.8-3.4,2.2-5.2,2.4c-0.6,0.1-0.7,1,0,1.1c1.4,0.1,2.9,0.9,3.2,2.3c0.1,0.5,0.8,0.4,1,0c0.5-1,1.2-1.8,2-2.5
						c0.8-0.7,1.5-1.3,2-2.2c0.4-0.8,0.5-1.7,0.5-2.5c0-0.5-0.1-1-0.2-1.5c0-0.6,0.3-1,0.5-1.5c0.1-0.2,0-0.5-0.2-0.6
						C26.3,28.1,26.2,28,26,28c-0.7-0.2-1.1,0.8-0.4,1c0.1,0,0.1,0,0.2,0.1c-0.1-0.2-0.1-0.4-0.2-0.6c-0.2,0.5-0.5,0.9-0.6,1.5
						c-0.1,0.5,0,1.1,0.1,1.6c0.1,0.8,0.1,1.7-0.3,2.5c-0.5,0.9-1.4,1.5-2.1,2.1c-0.8,0.7-1.4,1.6-1.9,2.5c0.3,0,0.7,0,1,0
						c-0.5-1.7-2.4-2.8-4.1-2.9c0,0.4,0,0.7,0,1.1c1.9-0.3,4.1-0.7,5.5-2.2c0.8-0.8,1-2,1.2-3.1c0.1-0.5,0.1-0.9,0.3-1.3
						c0.2-0.4,0.7-1.1,1.2-1.1C26.6,28.9,26.4,27.9,25.7,28z"/>
				</g>
			</g>
		</g>
		<g>
			<g>
				<path class="st2" d="M24.4,28c0.6-0.3,1.3-0.2,1.9,0c0.7,0.3,1.1,0.7,1.4,1.3c0.2,0.4,0.2,0.9-0.1,1.2c-0.4,0.4-1,0.6-1.6,0.5
					c-0.5-0.1-1-0.3-1.3-0.6c-0.3-0.3-0.7-0.6-0.8-1.1C23.7,28.9,23.9,28.3,24.4,28z"/>
			</g>
			<g>
				<g>
					<path class="st0" d="M24.6,28.5c0.1,0,0.1-0.1,0.2-0.1c0,0,0.1,0,0.1,0c-0.1,0,0,0,0,0c0.1,0,0.2,0,0.3,0c0.1,0,0.1,0,0.2,0
						c0.4,0,0.6,0.1,0.9,0.3c0,0,0.2,0.1,0.1,0.1c0.1,0,0.1,0.1,0.2,0.1c0.2,0.1,0.2,0.1,0.3,0.3c0,0.1,0.1,0.1,0.1,0.2
						c0.1,0.1,0,0,0,0c0,0,0,0.1,0.1,0.1c0,0.1,0.1,0.1,0.1,0.2c0,0,0,0.1,0,0.1c0,0.1,0-0.1,0,0.1c0,0,0,0.2,0,0.1c0,0,0,0.1,0,0.1
						c0,0,0,0.1,0,0c0,0,0,0.1,0,0.1c0-0.1,0,0,0,0c-0.1,0.1,0,0.1,0,0c0,0-0.1,0.1-0.1,0.1c-0.1,0.1-0.2,0.1-0.4,0.2c0,0-0.1,0,0,0
						c0,0-0.1,0-0.1,0c0,0-0.1,0-0.1,0c0,0-0.2,0-0.1,0c-0.6,0-1.2-0.3-1.6-0.8c0,0-0.1-0.1-0.2-0.2c-0.1-0.1-0.1-0.1-0.1-0.2
						c0,0,0-0.1,0-0.1c-0.1-0.1,0,0,0-0.1c0,0,0-0.1,0-0.1c0,0.1,0,0,0,0c0,0,0-0.1,0-0.1c0-0.1,0,0,0,0c0-0.1,0.1-0.2,0.1-0.2
						c0,0.1,0,0,0,0C24.5,28.6,24.5,28.6,24.6,28.5C24.6,28.6,24.5,28.6,24.6,28.5c0.1,0,0.1,0,0.1-0.1c0.3-0.1,0.3-0.5,0.1-0.8
						c-0.2-0.3-0.5-0.3-0.8-0.1c-0.4,0.2-0.7,0.7-0.8,1.1c-0.1,0.5,0,0.9,0.2,1.3c0.2,0.4,0.6,0.7,1,1c0.4,0.3,0.9,0.5,1.3,0.5
						c1,0.2,2.2-0.3,2.4-1.3c0.2-0.9-0.4-1.8-1.1-2.3c-0.8-0.6-2.1-0.9-3-0.4c-0.3,0.1-0.4,0.4-0.3,0.7C24,28.5,24.3,28.7,24.6,28.5
						z"/>
				</g>
			</g>
		</g>
		<g>
			<path class="st3" d="M14.4,23.3c0.1,0,4.3,0.2,4.3,0.2l8-5.4l2.8-3.2l-3.8-2.3l-5.8-0.3l-3.5,1l-0.7,2.2L13.4,22L14.4,23.3z"/>
		</g>
		<g>
			<g>
				<path class="st3" d="M17.4,5.4C17,4.1,17.2,3.3,17.8,2c0.4-0.8,1.4-1.6,2.2-1.3c0.7,0.2,1.2,1.3,1.3,2.1
					c0.1,1.3-0.1,2.4-0.9,3.6c0.8-0.2,1.3-0.3,2.1-0.3c0.5,0,1.1,0.1,1.6,0.4c0.5,0.2,0.9,0.8,1,1.3c0.2,0.7-0.4,1.3-1,1.6
					c-0.6,0.4-1.4,0.4-2.1,0.4c-0.7,0-1.1-0.1-2-0.3c0.4,0.7,0.4,1,0.7,1.7c0.2,0.8,0.3,1.6,0,2.3c-0.4,0.7-1.3,1.2-2,0.9
					c-0.3-0.1-0.6-0.4-0.8-0.7c-0.8-1.1-0.9-2.2-0.8-3.6c-0.7,0.9-1.7,1.6-2.8,2s-2.3,0.3-2.9-0.7c-0.6-0.9,0-2.1,0.7-2.7
					c0.8-0.7,1.7-1,2.9-1.3c-1.3-0.6-2-1.7-2.4-2.4c-0.2-0.3-0.6-1.8-0.6-2.1c0-0.6,0.6-1,1.2-1c0.6-0.1,1.1,0.2,1.6,0.5
					C16,3.3,16.9,4,17.4,5.4z"/>
			</g>
			<g>
				<g>
					<path class="st0" d="M17.9,5.3c-0.3-0.9-0.2-1.7,0.2-2.6c0.3-0.6,1.1-1.9,1.9-1.3c0.6,0.4,0.8,1.3,0.8,2c0,1-0.3,1.9-0.8,2.7
						c-0.2,0.4,0,1,0.5,0.9c0.8-0.1,1.6-0.3,2.4-0.2c0.7,0.1,1.9,0.5,1.7,1.4C24.4,9,23,9.3,22.3,9.3c-0.8,0-1.6-0.1-2.4-0.3
						c-0.4-0.1-0.8,0.4-0.6,0.7c0.5,1.1,1.6,3.4,0.1,4.1c-0.8,0.4-1.5-0.5-1.8-1.2c-0.3-0.8-0.3-1.6-0.2-2.4c0-0.5-0.6-0.9-1-0.4
						c-0.8,1-3.3,3-4.6,1.7c-0.7-0.7-0.1-1.8,0.6-2.3c0.7-0.6,1.6-0.8,2.5-1c0.5-0.1,0.7-0.8,0.2-1c-0.9-0.4-1.6-1.1-2.1-2
						c-0.3-0.5-0.6-1.3-0.6-1.9c0.1-1.3,2.1-0.2,2.6,0.2c0.9,0.6,1.5,1.2,1.8,2.2C17.1,6.3,18.1,5.9,17.9,5.3
						c-0.5-1.4-1.5-2.3-2.7-3c-1.1-0.7-2.8-1.2-3.6,0.2c-0.5,0.9,0,2.2,0.4,3c0.6,1.2,1.5,2.1,2.7,2.7c0.1-0.3,0.1-0.7,0.2-1
						c-1.2,0.3-2.5,0.6-3.4,1.6c-0.8,0.9-1.3,2.3-0.5,3.3c1.7,2.4,5.1,0.2,6.4-1.5c-0.3-0.1-0.6-0.3-1-0.4c-0.1,1.2-0.1,2.4,0.5,3.4
						c0.5,1,1.4,1.8,2.6,1.5c2.6-0.7,1.7-4,0.9-5.7c-0.2,0.2-0.4,0.5-0.6,0.7c1.2,0.2,2.5,0.4,3.6,0.1c0.9-0.2,2.1-1,2.2-2.1
						c0.1-1-0.8-2-1.7-2.3c-1.2-0.4-2.4-0.3-3.6,0c0.2,0.3,0.3,0.6,0.5,0.9c0.8-1.2,1.1-2.5,1-4c-0.1-1-0.7-2.2-1.7-2.5
						c-1.2-0.4-2.3,0.6-2.8,1.6c-0.7,1.2-0.8,2.5-0.4,3.8C17.1,6.3,18.1,5.9,17.9,5.3z"/>
				</g>
			</g>
		</g>
		<g>
			<g>
				<path class="st1" d="M19.1,7.3C19,7.1,18.8,7,18.7,6.9c-0.3-0.2-0.6-0.2-0.9-0.1c-0.4,0.1-0.8,0.3-1,0.7
					c-0.1,0.1-0.1,0.2-0.1,0.4c0,0.2,0,0.4,0.1,0.6C16.8,8.7,17,8.9,17.2,9c0.8,0.6,2,0.1,2.1-0.9c0-0.1,0-0.1,0-0.2
					c0-0.1,0-0.2,0-0.3C19.3,7.6,19.2,7.4,19.1,7.3z"/>
			</g>
			<g>
				<g>
					<path class="st0" d="M19.5,7c-0.5-0.7-1.4-0.9-2.2-0.6c-0.4,0.1-0.7,0.4-0.9,0.7c-0.3,0.4-0.4,0.9-0.2,1.3
						c0.2,0.7,0.8,1.3,1.5,1.4c0.6,0.1,1.2-0.1,1.7-0.6C20,8.6,20,7.6,19.5,7c-0.2-0.2-0.5-0.3-0.8-0.1c-0.2,0.2-0.3,0.5-0.1,0.8
						c0,0,0.1,0.1,0,0.1c0-0.1,0,0.1,0,0.1c0,0,0,0.1,0,0.1c0,0,0,0.1,0,0c0,0.1,0,0.1,0,0.2c0,0,0,0.1,0,0c0,0,0,0.1,0,0.1
						c0,0,0,0.1,0,0.1c0,0.1,0,0,0,0c0,0,0,0.1,0,0.1c0,0,0,0,0,0.1c0,0,0,0,0,0c0,0-0.1,0.1-0.1,0.1c0,0-0.1,0.1-0.1,0.1
						c0.1-0.1,0,0-0.1,0c0,0-0.1,0-0.1,0.1c-0.1,0.1,0.1,0,0,0c0,0-0.1,0-0.1,0c0,0-0.1,0-0.1,0.1c0,0,0,0-0.1,0c-0.1,0,0,0,0,0
						c0,0-0.1,0-0.1,0c0,0-0.1,0-0.2,0c0,0,0.1,0,0.1,0c0,0,0,0-0.1,0c-0.1,0-0.1,0-0.1,0c-0.1,0,0,0,0,0c0,0-0.1,0-0.1,0
						c-0.1,0-0.1,0-0.1-0.1c-0.1,0,0.1,0.1,0,0c0,0,0,0-0.1,0c-0.1,0-0.1-0.1-0.1-0.1c0.1,0.1,0,0,0,0c0,0,0-0.1-0.1-0.1
						c0,0,0,0,0-0.1c0,0-0.1-0.1,0-0.1c0,0.1,0-0.1,0-0.1c0,0,0-0.1,0-0.1c0,0,0-0.1,0-0.1c-0.1-0.1,0,0.1,0,0c0,0,0-0.1,0-0.1
						c0-0.1,0,0.1,0,0c0,0,0-0.1,0-0.1c0,0.1,0,0,0,0c0,0,0-0.1,0-0.1c0,0.1,0,0,0,0c0,0,0.1-0.1,0.1-0.2c0,0-0.1,0.1,0,0
						c0,0,0,0,0.1-0.1c0,0,0.1,0,0.1-0.1c0.1,0,0.1,0,0,0c0.1,0,0.1-0.1,0.2-0.1c0,0,0.1,0,0.1,0c0,0,0,0-0.1,0c0,0,0,0,0.1,0
						c0.1,0,0.2,0,0.2,0c0,0,0.1,0,0.1,0c-0.1,0-0.1,0,0,0c0,0,0,0,0.1,0c0,0,0.1,0,0.1,0c0,0,0,0,0.1,0c0,0,0,0,0,0
						c0,0,0.2,0.1,0.2,0.1c0.1,0.1,0,0,0,0c0,0,0.1,0,0.1,0.1c0,0,0.1,0.1,0,0c0,0,0.1,0.1,0.1,0.1c0.2,0.2,0.5,0.3,0.8,0.1
						C19.6,7.5,19.7,7.2,19.5,7z"/>
				</g>
			</g>
		</g>
		<g>
			<g>
				<path class="st3" d="M21.7,17.4c-0.8-1.2-0.8-2.2-0.5-3.6c0.2-0.9,1-2,1.9-1.9c0.8,0,1.6,1,1.9,1.8c0.4,1.3,0.5,2.5,0,3.9
					c0.8-0.4,1.2-0.6,2.1-0.8c0.5-0.1,1.2-0.2,1.7,0c0.5,0.1,1.1,0.6,1.4,1.1c0.4,0.7-0.1,1.4-0.6,2c-0.6,0.6-1.3,0.8-2.1,1
					c-0.8,0.2-1.2,0.2-2.1,0.3c0.6,0.7,0.7,0.9,1.1,1.6c0.5,0.7,0.8,1.6,0.6,2.4c-0.2,0.8-1,1.6-1.8,1.4c-0.4-0.1-0.7-0.3-1-0.5
					c-1.1-0.9-1.5-2-1.8-3.5c-0.5,1.1-1.4,2.1-2.3,2.8c-0.9,0.8-2.2,0.9-3.1,0.1c-0.8-0.8-0.5-2.2,0-3c0.6-1,1.5-1.5,2.7-2.1
					c-1.5-0.2-2.5-1.2-3.1-1.8c-0.3-0.3-1.1-1.6-1.2-2c-0.1-0.6,0.4-1.2,0.9-1.4c0.6-0.2,1.2-0.1,1.8,0.1
					C19.6,15.6,20.8,16.1,21.7,17.4z"/>
			</g>
			<g>
				<g>
					<path class="st0" d="M22.1,17.1c-0.5-0.9-0.7-1.7-0.5-2.7c0.1-0.7,0.6-2.1,1.6-2c0.8,0.1,1.3,1.3,1.4,2c0.2,1,0.2,2-0.1,2.9
						c-0.1,0.4,0.2,0.9,0.7,0.7c0.8-0.4,1.5-0.7,2.4-0.8c0.7-0.1,2.1,0,2.2,1c0.1,1-1.3,1.7-2.1,1.8c-0.8,0.2-1.6,0.3-2.5,0.3
						c-0.4,0-0.6,0.6-0.4,0.9c0.8,1,2.7,3.4,1,4.4c-0.8,0.5-1.7-0.5-2.1-1.1c-0.5-0.7-0.6-1.5-0.8-2.3c-0.1-0.5-0.8-0.7-1-0.2
						c-0.6,1.3-2.8,4.2-4.4,2.9c-0.8-0.6-0.5-1.8,0.1-2.5c0.6-0.8,1.5-1.3,2.3-1.7c0.5-0.2,0.4-0.9-0.1-1c-1-0.2-1.9-0.7-2.7-1.5
						c-0.4-0.5-1-1.2-1.1-1.8c-0.2-0.7,0.7-1,1.3-1c0.5,0.1,1.1,0.3,1.6,0.4c1,0.4,1.8,0.9,2.3,1.8C21.6,18.3,22.5,17.7,22.1,17.1
						c-0.8-1.2-2-1.9-3.4-2.3c-1.3-0.4-3.4-0.6-3.8,1.1c-0.2,1,0.6,2.1,1.2,2.8c0.9,1.1,2.1,1.8,3.5,2.1c0-0.3-0.1-0.7-0.1-1
						c-1.2,0.6-2.4,1.3-3.1,2.5c-0.6,1.1-0.7,2.6,0.2,3.5c2.3,2.1,5.4-1.1,6.3-3.1c-0.3-0.1-0.7-0.1-1-0.2c0.2,1.2,0.5,2.3,1.3,3.2
						c0.8,0.9,1.9,1.6,3,1.1c2.7-1.3,0.8-4.6-0.5-6.1c-0.1,0.3-0.2,0.6-0.4,0.9c1.2-0.1,2.6-0.2,3.7-0.8c0.9-0.5,2-1.6,1.7-2.8
						c-0.2-1-1.4-1.7-2.4-1.8c-1.3-0.1-2.5,0.4-3.7,0.9c0.2,0.2,0.5,0.5,0.7,0.7c0.5-1.4,0.5-2.9,0-4.3c-0.3-1-1.3-2.1-2.4-2.1
						c-1.2,0-2.1,1.2-2.4,2.3c-0.4,1.5-0.2,2.8,0.6,4.1C21.6,18.3,22.5,17.7,22.1,17.1z"/>
				</g>
			</g>
		</g>
		<g>
			<g>
				<path class="st1" d="M23.9,18.8c-0.2-0.1-0.4-0.2-0.6-0.3c-0.4-0.1-0.7,0-1,0.1c-0.4,0.2-0.7,0.5-0.8,1c0,0.1,0,0.3,0,0.4
					c0,0.2,0.1,0.4,0.3,0.6c0.2,0.2,0.4,0.4,0.7,0.5c1,0.4,2.1-0.5,1.9-1.5c0-0.1,0-0.1,0-0.2c0-0.1-0.1-0.2-0.1-0.3
					C24.1,19.1,24,18.9,23.9,18.8z"/>
			</g>
			<g>
				<g>
					<path class="st0" d="M24.2,18.4c-0.7-0.6-1.7-0.5-2.5,0c-0.7,0.5-1,1.5-0.6,2.2c0.4,0.7,1.2,1.2,2,1.1c0.7,0,1.3-0.5,1.6-1.1
						C25.1,19.9,24.9,18.9,24.2,18.4c-0.2-0.2-0.6-0.1-0.8,0.1c-0.2,0.2-0.1,0.6,0.1,0.8c0,0,0,0,0.1,0.1c0.1,0.1,0,0,0,0
						c0,0.1,0.1,0.1,0.1,0.2c0,0,0,0.1,0,0c0,0,0,0.1,0,0.1c0,0,0,0.1,0,0.1c0,0.1,0-0.1,0,0.1c0,0,0,0.1,0,0.1c0,0.1,0,0,0,0
						c0,0,0,0.1,0,0.1c0,0.1,0,0.1,0,0.2c0,0.1,0,0,0,0c0,0,0,0,0,0c0,0,0,0,0,0.1c0,0,0,0.1-0.1,0.1c0,0.1,0,0,0,0s0,0.1,0,0.1
						c0,0-0.1,0.1-0.1,0.1l0,0.1c0.1,0,0.1-0.1,0,0c0,0,0,0,0,0c0,0-0.1,0.1-0.1,0.1c0,0-0.1,0-0.1,0c-0.1,0,0.1,0,0,0
						c0,0-0.1,0.1-0.1,0.1c0,0,0,0-0.1,0c0,0-0.1,0,0,0c0.1,0-0.1,0-0.1,0c0,0-0.1,0-0.1,0c0,0,0.1,0,0,0c0,0-0.1,0-0.1,0
						c0,0-0.2,0-0.2,0c0,0,0,0,0.1,0c0,0,0,0-0.1,0c0,0-0.1,0-0.1,0c0,0-0.1,0-0.1,0c-0.1,0-0.1-0.1-0.1,0c-0.1,0-0.1-0.1-0.2-0.1
						c0,0,0,0-0.1-0.1c0,0-0.1-0.1,0,0c0,0-0.1-0.1-0.1-0.2c0,0,0-0.1-0.1-0.1c0,0.1,0,0,0,0c0,0-0.1-0.1,0-0.1c0,0.1,0,0,0,0
						c0,0,0-0.1,0,0c0,0.1,0-0.1,0-0.1c0,0,0-0.1,0-0.1c0-0.1,0,0.1,0,0c0-0.1,0-0.1,0.1-0.2c0,0,0.1-0.1,0,0c0,0,0,0,0-0.1
						c0-0.1,0.1-0.1,0.1-0.2c0.1-0.1,0,0,0,0c0,0,0.1-0.1,0.1-0.1c0.1,0,0.1-0.1,0.2-0.1c0,0-0.1,0.1,0,0c0,0,0.1,0,0.1-0.1
						c0,0,0.1,0,0.1,0c0.1,0-0.1,0,0.1,0c0,0,0.1,0,0.1,0c0,0,0.2,0,0.1,0c0.1,0,0.2,0,0.2,0c0.1,0-0.1,0,0,0c0,0,0.1,0,0.1,0
						c0,0,0.1,0,0.1,0c-0.1-0.1,0,0,0,0c0.2,0.2,0.6,0.2,0.8-0.1C24.4,18.9,24.4,18.6,24.2,18.4z"/>
				</g>
			</g>
		</g>
		<g>
			<path class="st3" d="M30.5,5.4c0.1,0.2,0.1,0.3,0.1,0.5c0,0.2,0,0.4,0,0.6c0,0.3-0.2,1-0.4,1.3c-0.2,0.4-0.7,1-0.9,1.3
				c0.6-0.3,1.1-0.5,1.4-0.5c1.1-0.2,2.7,0.1,3,1.3c0.2,0.6-0.1,1.2-0.6,1.6c-0.1,0.1-0.2,0.2-0.4,0.3c-0.6,0.3-1.1,0.3-1.9,0.3
				c-0.4,0-0.8-0.1-1.1-0.2c0,0,0.1,0.1,0.1,0.1c0.4,0.5,0.8,1.2,1,1.8c0.1,0.2,0.1,0.5,0.2,0.7c0,0.6-0.1,1.2-0.5,1.6
				c-0.1,0.1-0.1,0.1-0.2,0.1c-0.4,0.3-1.1,0.3-1.6,0.1c-0.3-0.1-0.6-0.3-0.8-0.6c-0.1-0.1-0.2-0.3-0.3-0.4
				c-0.2-0.3-0.3-0.6-0.3-0.9c0-0.2-0.1-0.4-0.1-0.5c0-0.1,0-0.2-0.1-0.3c0-0.1-0.1-0.2,0-0.3c-0.1,0.5-0.4,1.3-0.5,1.6
				c-0.1,0.3-0.2,0.6-0.4,0.8c-0.2,0.3-0.4,0.5-0.6,0.7c-0.1,0.1-0.3,0.2-0.4,0.2c-0.2,0.1-0.4,0.1-0.6,0.1c-0.2,0-0.3,0-0.6-0.1
				c-0.1-0.1-0.3-0.2-0.4-0.3c-0.5-0.5-0.5-1.3-0.4-1.9c0.1-0.5,0.6-1.4,1-2c-0.5,0.3-1.1,0.7-1.7,0.9c-0.5,0.2-0.9,0.3-1.4,0.1
				c-0.4-0.1-0.7-0.3-0.9-0.5c-0.2-0.2-0.4-0.4-0.5-0.7c0-0.1-0.1-0.3-0.1-0.5c0-1.3,1.3-2,2.5-2.2c0.3-0.1,0.7-0.1,1.1-0.1
				c0.2,0,0.3,0,0.5,0c0.1,0,0.3,0,0.4,0.1c-0.2-0.1-0.4-0.3-0.5-0.4c-0.1-0.1-0.3-0.3-0.4-0.4c-0.4-0.5-0.6-1-0.6-1.6
				c0-0.3,0.1-0.7,0.2-0.9c0.2-0.5,0.7-0.8,1.2-0.9c0.6-0.1,1.2,0.2,1.6,0.7c0.3,0.3,0.8,1.3,1,1.8c0,0,0.2-0.7,0.4-1.3
				C27.4,6,27.8,5.4,28.1,5c0.4-0.5,1.2-0.7,1.8-0.4C30.1,4.8,30.3,5.1,30.5,5.4z"/>
			<path class="st0" d="M29.9,16.9c-0.4,0-0.8,0-1.2-0.2c-0.4-0.1-0.7-0.4-1-0.7c-0.1-0.2-0.3-0.3-0.4-0.5c0-0.1-0.1-0.1-0.1-0.2
				c-0.1,0.2-0.2,0.5-0.3,0.7c-0.2,0.4-0.5,0.7-0.7,0.9c-0.2,0.1-0.4,0.3-0.5,0.3c-0.3,0.1-0.5,0.2-0.8,0.1c-0.3,0-0.5-0.1-0.8-0.2
				c-0.2-0.1-0.4-0.2-0.5-0.4c-0.6-0.6-0.8-1.4-0.6-2.5c0-0.1,0.1-0.3,0.2-0.6c0,0-0.1,0-0.1,0c-0.4,0.2-1,0.3-1.7,0.2
				c-0.5-0.1-0.9-0.3-1.2-0.7c-0.3-0.3-0.5-0.6-0.6-0.9c-0.1-0.2-0.1-0.4-0.1-0.6c0-1.5,1.4-2.5,2.9-2.8C22.5,9,22.7,9,22.9,9
				c-0.4-0.6-0.6-1.2-0.7-1.8c0-0.4,0.1-0.8,0.3-1.2c0.3-0.6,0.9-1.1,1.6-1.2c0,0,0,0,0,0c0.7-0.1,1.5,0.3,2,0.9
				c0.1,0.1,0.3,0.4,0.5,0.7c0.2-0.5,0.6-1.2,1-1.7c0.6-0.7,1.6-0.9,2.4-0.5c0.4,0.2,0.7,0.6,0.9,1.1l0,0c0.1,0.2,0.1,0.4,0.1,0.6
				c0,0.2,0,0.5,0,0.7c0,0.4-0.2,1.1-0.4,1.4c1.5-0.3,3.2,0.3,3.6,1.7c0.2,0.7-0.1,1.5-0.7,2.1c-0.1,0.1-0.3,0.2-0.5,0.3
				c-0.6,0.3-1.2,0.4-2.1,0.3c0.2,0.3,0.3,0.6,0.5,1c0.1,0.3,0.2,0.6,0.2,0.9c0.1,0.8-0.2,1.5-0.6,2c-0.1,0.1-0.1,0.1-0.2,0.2
				C30.5,16.8,30.2,16.9,29.9,16.9z M27.2,12.8c0,0,0.1,0,0.2,0c0.3,0.1,0.5,0.3,0.4,0.6l0.1,0.3c0,0.2,0.1,0.3,0.1,0.5
				c0.1,0.3,0.2,0.5,0.3,0.7c0.1,0.1,0.1,0.2,0.2,0.3c0.2,0.2,0.4,0.3,0.6,0.4c0.3,0.1,0.8,0.2,1,0c0.3-0.3,0.4-0.8,0.4-1.3
				c0-0.2-0.1-0.4-0.1-0.6c-0.2-0.6-0.5-1.1-0.9-1.6c-0.1-0.1,0,0,0.2,0c0,0,0,0,0,0c-0.3-0.1-0.4-0.4-0.4-0.7
				c0.1-0.3,0.4-0.5,0.6-0.4c0,0,0,0,0,0l0,0c0.4,0.1,0.7,0.2,1,0.2c0.7,0.1,1.1,0,1.6-0.2c0.1,0,0.2-0.1,0.3-0.2
				c0.2-0.2,0.5-0.6,0.4-1C33,9.1,31.7,8.9,30.8,9c-0.3,0-0.8,0.2-1.3,0.5c-0.2,0.1-0.5,0.1-0.7-0.1s-0.2-0.5,0-0.7
				c0.2-0.2,0.6-0.8,0.8-1.1C29.8,7.3,30,6.7,30,6.4c0-0.1,0-0.3,0-0.5c0-0.1-0.1-0.3-0.1-0.4l0,0c0-0.1-0.2-0.4-0.4-0.5
				c-0.4-0.2-0.8,0-1.1,0.3c-0.2,0.3-0.6,0.8-0.8,1.3c-0.2,0.6-0.4,1.2-0.4,1.2c-0.1,0.2-0.3,0.4-0.5,0.4c-0.3,0-0.5-0.2-0.5-0.4
				c-0.1-0.5-0.7-1.4-0.9-1.6c-0.3-0.3-0.7-0.5-1.1-0.5l0,0c-0.3,0-0.6,0.3-0.8,0.6c-0.1,0.2-0.2,0.4-0.1,0.7c0,0.5,0.2,0.9,0.5,1.3
				c0.1,0.1,0.2,0.3,0.4,0.4c0.1,0.1,0.2,0.2,0.4,0.3l0,0c0.2,0.2,0.3,0.5,0.2,0.8c-0.2,0.3-0.5,0.3-0.8,0.2l0,0c0,0-0.1,0-0.1,0
				c-0.2,0-0.4,0-0.5,0c-0.3,0-0.6,0-0.9,0.1c-0.8,0.2-2,0.7-2,1.7c0,0.1,0,0.2,0,0.3c0,0.1,0.1,0.2,0.3,0.4
				c0.2,0.2,0.4,0.3,0.7,0.4c0.3,0.1,0.6,0,1-0.1c0.6-0.2,1.2-0.6,1.6-0.8c0.2-0.1,0.5-0.1,0.7,0.1c0.2,0.2,0.2,0.5,0,0.7
				c-0.4,0.5-0.8,1.4-0.9,1.8c-0.1,0.7-0.1,1.2,0.3,1.5c0.1,0.1,0.2,0.1,0.3,0.2c0.1,0.1,0.2,0.1,0.4,0.1c0.1,0,0.2,0,0.3-0.1
				c0.1,0,0.2-0.1,0.3-0.2c0.2-0.1,0.3-0.3,0.5-0.6c0.1-0.2,0.3-0.5,0.3-0.8c0.1-0.3,0.3-1,0.4-1.5C26.8,13,27,12.8,27.2,12.8z"/>
		</g>
		<g>
			<g>
				<path class="st1" d="M27.9,11.4c-0.1,0.2-0.3,0.3-0.4,0.3c-0.1,0.1-0.3,0.1-0.4,0.1c-0.2,0-0.5-0.1-0.7-0.2
					c-0.4-0.2-0.7-0.6-0.6-1.1c0.1-0.4,0.3-0.8,0.6-1.1c0.3-0.2,0.7-0.3,1.1-0.1c0.3,0.2,0.5,0.5,0.6,0.8
					C28.2,10.6,28.2,11,27.9,11.4z"/>
			</g>
			<g>
				<g>
					<path class="st0" d="M27.5,11C27.5,11.1,27.5,11.1,27.5,11C27.5,11.1,27.4,11.2,27.5,11c0,0-0.1,0.1-0.1,0.1c0,0,0,0-0.1,0
						c0,0-0.1,0.1,0,0c0.1,0,0,0,0,0c0,0,0,0-0.1,0c-0.1,0,0.1,0,0,0c0,0-0.1,0-0.1,0c0,0-0.1,0,0,0c0,0-0.1,0-0.2,0
						c0,0-0.1,0-0.1,0c0,0,0.1,0,0,0c-0.1,0-0.1,0-0.2-0.1c0,0,0,0-0.1,0c-0.1,0,0,0,0,0c0,0-0.1-0.1-0.1-0.1c0,0,0,0-0.1,0
						c-0.1,0,0.1,0.1,0,0c0,0-0.1-0.1-0.1-0.1c0-0.1,0,0.1,0,0c0,0,0,0,0-0.1c0,0,0-0.1,0-0.1c0,0,0,0.1,0,0c0,0,0-0.1,0-0.1
						c0,0.1,0,0.1,0,0c0,0,0-0.1,0-0.1c0-0.1,0-0.1,0-0.1c0,0.1,0,0.1,0,0c0,0,0-0.1,0-0.1c0-0.1,0.1-0.2,0.1-0.3c-0.1,0.1,0,0,0,0
						c0,0,0,0,0-0.1c0,0,0.1-0.1,0.1-0.1l0,0c0,0,0,0,0,0c0,0,0.1,0,0.1,0c0,0,0,0,0.1,0c0.1-0.1-0.1,0,0,0c0,0,0.1,0,0.2-0.1
						c0,0-0.1,0,0,0c0,0,0,0,0.1,0c0.1,0,0,0,0,0s0.1,0,0.1,0c0,0,0.1,0,0.1,0c-0.1,0-0.1,0,0,0c0,0,0,0,0,0c0,0,0.1,0,0.1,0
						c0.1,0,0,0,0,0c0,0,0.1,0.1,0.1,0.1c0.1,0-0.1-0.1,0,0c0,0,0,0,0,0.1c0,0,0,0,0,0.1c0.1,0.1,0-0.1,0,0c0,0.1,0.1,0.1,0.1,0.2
						c0,0,0.1,0.1,0,0.2c0,0,0-0.1,0,0c0,0,0,0.1,0,0.1c0,0.1,0,0.1,0,0.2c0,0.1,0,0,0,0c0,0,0,0.1,0,0.1c0,0,0,0.1,0,0.1
						c0,0,0,0,0,0.1c0,0,0,0,0,0C27.6,10.9,27.6,10.9,27.5,11C27.6,11,27.5,11,27.5,11C27.5,11,27.5,11,27.5,11
						C27.5,11,27.5,11,27.5,11c-0.2,0.2-0.2,0.6,0.1,0.8c0.2,0.2,0.6,0.2,0.8-0.1c0.4-0.6,0.5-1.4,0.2-2c-0.1-0.3-0.4-0.6-0.7-0.8
						c-0.4-0.2-0.8-0.2-1.2-0.1c-0.7,0.2-1.1,0.9-1.3,1.5C25.2,11,25.5,11.6,26,12c0.4,0.2,0.8,0.4,1.2,0.3c0.4,0,0.8-0.3,1.1-0.6
						c0.2-0.2,0.2-0.6-0.1-0.8C28,10.8,27.7,10.8,27.5,11z"/>
				</g>
			</g>
		</g>
		<g>
			<path class="st3" d="M13.5,25.7c-0.2-0.1-0.4-0.2-0.5-0.3c-0.2-0.1-0.3-0.3-0.5-0.5c-0.3-0.3-0.6-1-0.8-1.4
				c-0.2-0.6-0.3-1.5-0.3-1.8c-0.2,0.7-0.5,1.3-0.8,1.7c-0.7,1.1-2.3,2.2-3.6,1.4c-0.6-0.4-0.9-1.1-0.9-1.8c0-0.2,0-0.4,0.1-0.5
				c0.2-0.7,0.7-1.3,1.3-1.8c0.4-0.3,0.7-0.6,1.1-0.8c0,0-0.2,0-0.2,0c-0.8-0.1-1.6-0.3-2.3-0.6c-0.3-0.1-0.5-0.3-0.8-0.5
				c-0.5-0.4-0.9-1-0.9-1.7c0-0.1,0-0.2,0-0.3c0.1-0.7,0.6-1.1,1.2-1.4c0.4-0.1,0.7-0.2,1.1-0.2c0.2,0,0.4,0,0.6,0.1
				c0.4,0.1,0.7,0.3,1,0.5c0.2,0.1,0.4,0.2,0.5,0.4c0.1,0.1,0.2,0.1,0.3,0.2c0.1,0.1,0.2,0.1,0.3,0.2c-0.3-0.5-0.8-1.4-0.9-1.7
				c-0.1-0.3-0.3-0.7-0.4-1C8,13.4,8,13,8,12.6c0-0.2,0.1-0.4,0.1-0.5c0.1-0.2,0.2-0.4,0.4-0.6c0.2-0.2,0.3-0.3,0.6-0.3
				c0.2-0.1,0.4-0.1,0.6-0.1c0.9,0,1.5,0.6,2,1.3c0.3,0.5,0.7,1.7,0.8,2.5c0.2-0.7,0.4-1.5,0.7-2.1c0.2-0.5,0.5-1,1-1.3
				c0.4-0.2,0.8-0.4,1.2-0.4c0.3,0,0.7,0,0.9,0.2c0.2,0.1,0.3,0.2,0.4,0.3c1.1,1,0.6,2.8-0.2,3.9c-0.2,0.3-0.5,0.7-0.8,1
				c-0.1,0.1-0.3,0.3-0.4,0.4c-0.1,0.1-0.3,0.3-0.4,0.3c0.3-0.1,0.6-0.1,0.8-0.1c0.2,0,0.5,0,0.7,0c0.7,0.1,1.4,0.3,1.9,0.8
				c0.3,0.3,0.5,0.6,0.6,1c0.2,0.6,0.1,1.3-0.3,1.8c-0.4,0.5-1.2,0.8-1.9,0.8c-0.5,0-1.8-0.4-2.3-0.7c0,0,0.4,0.7,0.8,1.4
				c0.3,0.6,0.5,1.4,0.5,2c0,0.8-0.4,1.5-1.1,1.8C14.2,26,13.8,25.9,13.5,25.7z"/>
			<path class="st0" d="M14.4,26.5c-0.4,0-0.8,0-1.2-0.2l0,0c-0.2-0.1-0.5-0.2-0.6-0.4c-0.2-0.2-0.4-0.3-0.6-0.5
				c-0.3-0.4-0.7-1.1-0.9-1.6c0,0,0-0.1,0-0.1c0,0,0,0.1,0,0.1c-0.8,1.2-2.7,2.6-4.4,1.6C6,24.9,5.6,24,5.7,23c0-0.2,0-0.4,0.1-0.7
				c0.3-0.8,0.7-1.4,1.5-2c0,0,0,0,0,0C6.8,20.1,6.4,20,6,19.8c-0.3-0.1-0.6-0.3-0.9-0.6c-0.4-0.4-1.1-1.1-1.1-2.1
				c0-0.1,0-0.2,0-0.3c0.1-0.8,0.7-1.5,1.5-1.8c0.4-0.2,0.9-0.3,1.4-0.2c0.2,0,0.5,0,0.7,0.1c0.2,0,0.3,0.1,0.5,0.2
				c-0.1-0.3-0.3-0.7-0.4-1c-0.1-0.5-0.2-0.9-0.1-1.3c0-0.3,0.1-0.5,0.2-0.7c0.1-0.3,0.3-0.5,0.5-0.8c0.3-0.2,0.4-0.3,0.8-0.5
				c0.2-0.1,0.5-0.1,0.7-0.1c1.4,0,2.2,1.1,2.4,1.5c0.1,0.2,0.3,0.5,0.4,0.8c0-0.1,0.1-0.2,0.1-0.3C13,12,13.3,11.5,14,11
				c0.4-0.3,1-0.4,1.5-0.4c0.5,0,0.9,0.1,1.2,0.2c0.2,0.1,0.4,0.3,0.6,0.4c1.2,1.2,0.8,3.1-0.1,4.6c-0.2,0.3-0.4,0.5-0.6,0.7
				c0.9,0.1,1.6,0.4,2.2,1c0.3,0.3,0.6,0.7,0.8,1.2c0.3,0.8,0.1,1.6-0.4,2.3c-0.5,0.6-1.5,1-2.3,1c-0.3,0-0.7-0.1-1.1-0.2
				c0,0.1,0.1,0.1,0.1,0.2c0.3,0.6,0.5,1.5,0.6,2.2c0,1-0.6,2-1.5,2.3C14.7,26.4,14.6,26.4,14.4,26.5z M11.4,21.2c0,0,0.1,0,0.1,0
				c0.3,0,0.5,0.3,0.5,0.5c0,0.4,0.1,1.2,0.3,1.7c0.1,0.3,0.5,0.9,0.7,1.2c0.1,0.2,0.3,0.3,0.4,0.4c0.1,0.1,0.3,0.2,0.4,0.3l0,0
				c0.2,0.1,0.5,0.2,0.7,0.1c0.5-0.2,0.8-0.7,0.8-1.3c0-0.4-0.2-1.2-0.5-1.8C14.5,21.7,14,21,14,21c-0.1-0.2-0.1-0.5,0.1-0.7
				c0.2-0.2,0.4-0.2,0.7-0.1c0.5,0.3,1.7,0.6,2.1,0.6c0.5,0.1,1.1-0.2,1.4-0.5c0.3-0.3,0.3-0.8,0.2-1.2c-0.1-0.3-0.3-0.5-0.5-0.7
				c-0.4-0.4-0.9-0.6-1.6-0.7c-0.2,0-0.4,0-0.6,0c-0.3,0-0.4,0-0.7,0.1l0,0c-0.3,0.1-0.6-0.1-0.6-0.4s0.1-0.6,0.4-0.7
				c0,0,0,0,0.1-0.1c0,0,0.1-0.1,0.1-0.1c0.1-0.1,0.2-0.2,0.4-0.3c0.3-0.3,0.5-0.5,0.7-0.9c0.5-0.8,1.2-2.3,0.3-3.2
				c-0.1-0.1-0.2-0.2-0.3-0.2c-0.1-0.1-0.4-0.1-0.7-0.1c-0.3,0-0.7,0.1-0.9,0.3c-0.3,0.2-0.6,0.5-0.8,1c-0.3,0.7-0.5,1.4-0.6,2.1
				c-0.1,0.3-0.3,0.4-0.6,0.4c-0.3,0-0.5-0.2-0.5-0.5c-0.1-0.8-0.5-1.9-0.7-2.3c-0.5-0.7-1-1.1-1.5-1.1c-0.1,0-0.3,0-0.4,0.1
				c-0.2,0.1-0.2,0.1-0.4,0.2c-0.1,0.1-0.2,0.2-0.3,0.4c-0.1,0.1-0.1,0.3-0.1,0.4c0,0.3,0,0.6,0.1,0.9c0.1,0.3,0.2,0.6,0.4,0.9
				c0.1,0.3,0.6,1.1,0.9,1.6c0,0.1,0.1,0.2,0.1,0.2c0,0.2-0.1,0.4-0.2,0.5c-0.3,0.2-0.6,0.1-0.8-0.2l-0.4-0.2
				c-0.2-0.1-0.4-0.2-0.5-0.3c-0.3-0.2-0.6-0.3-0.9-0.4c-0.2,0-0.3-0.1-0.5-0.1c-0.3,0-0.6,0-0.9,0.2c-0.4,0.2-0.8,0.5-0.9,1
				c0,0,0,0.1,0,0.1c0,0.5,0.3,0.9,0.8,1.3c0.2,0.2,0.4,0.3,0.6,0.4c0.7,0.3,1.4,0.5,2.2,0.6c0,0,0.1,0,0.1,0c0.2,0,0.4,0.1,0.5,0.3
				c0.1,0.3,0,0.6-0.2,0.7l0,0l0,0c-0.4,0.2-0.7,0.5-1,0.7c-0.6,0.5-1,0.9-1.2,1.5c0,0.1,0,0.2-0.1,0.4c0,0.4,0.1,1,0.6,1.3
				c1,0.6,2.3-0.4,2.9-1.3c0.2-0.3,0.5-0.8,0.7-1.5C10.9,21.4,11.1,21.2,11.4,21.2z"/>
		</g>
		<g>
			<g>
				<path class="st1" d="M10.6,18.7c0-0.2,0-0.4,0.1-0.7c0.1-0.2,0.2-0.3,0.3-0.4c0.2-0.2,0.4-0.3,0.7-0.4c0.5-0.1,1.1-0.1,1.4,0.4
					c0.3,0.4,0.5,1,0.4,1.5c-0.1,0.5-0.4,0.8-0.8,1c-0.4,0.1-0.8,0-1.2-0.2C11,19.6,10.7,19.2,10.6,18.7z"/>
			</g>
			<g>
				<g>
					<path class="st0" d="M11.1,18.6C11.1,18.6,11.1,18.5,11.1,18.6c0-0.1,0-0.3,0-0.2c0,0.1,0,0,0-0.1c0,0,0-0.1,0-0.1
						c0,0.1,0-0.1,0-0.1c0-0.1,0,0,0,0c0,0,0.1-0.1,0.1-0.1c0,0,0,0,0.1-0.1c-0.1,0.1,0,0,0,0c0.1,0,0.1-0.1,0.2-0.1
						c0.1,0-0.1,0,0,0c0,0,0.1,0,0.1-0.1c0.1,0,0.1-0.1,0.2-0.1c0,0,0.1-0.1,0,0c0,0,0.1,0,0.1,0c0,0,0.1,0,0.2,0c0,0,0.1,0,0.1,0
						c-0.1,0,0,0,0,0c0,0,0.1,0,0.2,0c-0.1-0.1-0.1,0,0,0c0,0,0.1,0,0.1,0c0.1,0,0.1,0,0,0c0,0,0.1,0,0.1,0c0,0,0,0,0.1,0.1
						c-0.1-0.1,0,0,0,0c0,0.1,0.1,0.1,0.1,0.2c0,0,0,0.1,0,0.1c0-0.1,0,0,0,0c0,0.1,0.1,0.1,0.1,0.2c0,0.1,0,0.1,0.1,0.2
						c0,0,0,0.1,0,0c0,0,0,0.1,0,0.1c0,0.1,0,0.1,0,0.2c0,0.1,0,0,0,0c0,0,0,0.1,0,0.1c0,0.1,0,0.1,0,0.2c0,0.1,0-0.1,0,0
						c0,0,0,0.1,0,0.1c0,0,0,0,0,0.1c0,0.1,0.1-0.1,0,0c0,0-0.1,0.1-0.1,0.1c0,0,0.1-0.1,0,0c0,0,0,0-0.1,0c0,0,0,0-0.1,0
						c-0.1,0.1,0.1,0,0,0c-0.1,0-0.1,0.1-0.2,0.1c0,0-0.1,0,0,0c0.1,0,0,0,0,0c0,0-0.1,0-0.1,0c0,0,0.1,0,0,0c0,0-0.1,0-0.1,0
						c0,0-0.2,0-0.1,0c-0.1,0-0.2-0.1-0.2-0.1c0,0-0.1,0-0.1,0c0,0-0.2-0.1,0,0c-0.1,0-0.1-0.1-0.2-0.1c0,0,0,0-0.1-0.1
						c0,0-0.1-0.1,0,0c0,0-0.1-0.1-0.1-0.1c0,0,0-0.1-0.1-0.1c-0.1-0.1,0,0,0,0c0-0.1-0.1-0.1-0.1-0.2
						C11.1,18.7,11.1,18.7,11.1,18.6C11.1,18.7,11.1,18.6,11.1,18.6c-0.1-0.3-0.3-0.5-0.6-0.5c-0.3,0-0.5,0.3-0.5,0.6
						c0.1,0.8,0.7,1.4,1.4,1.8c0.4,0.2,0.9,0.2,1.3,0.1c0.3-0.1,0.6-0.3,0.8-0.6c0.5-0.7,0.4-1.6,0-2.3c-0.2-0.4-0.4-0.7-0.8-0.9
						c-0.3-0.2-0.7-0.2-1.1-0.1c-0.5,0.1-0.9,0.3-1.3,0.7c-0.4,0.4-0.5,0.9-0.4,1.4c0,0.3,0.3,0.5,0.6,0.5
						C10.9,19.1,11.1,18.9,11.1,18.6z"/>
				</g>
			</g>
		</g>
	</g>
</g>
</svg>
