<?xml version="1.0" encoding="utf-8"?>
<!-- Generator: Adobe Illustrator 26.0.2, SVG Export Plug-In . SVG Version: 6.00 Build 0)  -->
<svg version="1.1" id="레이어_1" xmlns="http://www.w3.org/2000/svg" xmlns:xlink="http://www.w3.org/1999/xlink" x="0px"
	 y="0px" viewBox="0 0 45 40" style="enable-background:new 0 0 45 40;" xml:space="preserve">
<style type="text/css">
	.st0{fill:#FFD56E;}
	.st1{fill:#282828;}
	.st2{fill:#FFD9BB;}
</style>
<g>
	<g>
		<g>
			<path class="st0" d="M15.4,16c0.9,1.6,3.1,2.8,4.8,2.6c2.6-0.3,4.3-1.4,5-2.9c0.8-1.5,0.4-4.6-0.5-6.2c-0.3,1.3-1.5,2.2-2.6,2.4
				s-2.2-0.5-3.1-1.2c0.2,1.2,0.3,2.4-0.5,3.3c-0.8,0.9-2.8,1.1-3.9,0.8L15.4,16z"/>
		</g>
		<g>
			<g>
				<path class="st1" d="M14.9,16.3c0.7,1.2,1.9,2.1,3.2,2.6c1.4,0.5,2.8,0.3,4.1-0.1c1.1-0.4,2.2-1,2.9-2c0.7-1,1-2.1,1-3.3
					c0-1.4-0.3-2.9-0.9-4.2c-0.2-0.4-0.9-0.3-1,0.1c-0.2,0.9-0.9,1.6-1.8,1.9c-1.1,0.4-2.1-0.3-3-0.9c-0.4-0.3-1,0-0.9,0.5
					c0.2,1.1,0.4,2.5-0.8,3.2c-0.9,0.5-2,0.5-3,0.3c-0.4-0.1-0.9,0.4-0.6,0.8C14.4,15.5,14.7,15.9,14.9,16.3c0.4,0.6,1.3,0,0.9-0.6
					c-0.2-0.4-0.5-0.8-0.7-1.2c-0.2,0.3-0.4,0.5-0.6,0.8c1.3,0.3,2.9,0.2,4-0.5c1.4-1,1.3-2.7,1.1-4.2c-0.3,0.2-0.6,0.3-0.9,0.5
					c1.1,0.9,2.5,1.7,4,1.2c1.2-0.4,2.2-1.4,2.5-2.7c-0.3,0-0.7,0.1-1,0.1c0.6,1.2,0.8,2.6,0.8,3.9c0,1.3-0.5,2.3-1.5,3.1
					c-1.1,0.8-2.7,1.4-4,1.3C18,18,16.6,17,15.8,15.8C15.5,15.2,14.5,15.7,14.9,16.3z"/>
			</g>
		</g>
	</g>
	<g>
		<g>
			<path class="st1" d="M21.9,18.7c1.7,3.5,1.6,8,0.4,11.7c-0.2,0.7,0.8,1,1,0.3c1.3-3.9,1.3-8.7-0.5-12.5
				C22.6,17.5,21.7,18,21.9,18.7L21.9,18.7z"/>
		</g>
	</g>
	<g>
		<g>
			<path class="st2" d="M25.9,19.9c0.4-0.9,0.7-1.3,1.1-1.8c0.2-0.3,0.5-0.5,0.8-0.8c0.6-0.6,1.4-0.9,2.2-1.2s1.4-0.5,2.2-0.8
				c1.1-0.3,2.1-0.5,3-1c-0.8,1-1.2,1.8-1.7,2.7c-0.6,1.1-2.1,2-3.5,2.4c-1.4,0.5-2.8,0.8-4.3,0.9L25.9,19.9z"/>
		</g>
		<g>
			<g>
				<path class="st1" d="M26.3,20.2c0.3-0.7,0.7-1.4,1.3-1.9c0.7-0.7,1.4-1.1,2.3-1.5c0.9-0.4,1.8-0.7,2.7-0.9c1-0.3,2-0.5,2.8-1
					c-0.2-0.3-0.4-0.6-0.7-0.9c-0.6,0.7-1.1,1.5-1.5,2.3c-0.2,0.4-0.4,0.7-0.6,1c-0.3,0.3-0.7,0.6-1,0.8c-1.8,1.1-3.9,1.5-5.9,1.8
					c0.2,0.2,0.4,0.5,0.5,0.7c0.1-0.2,0.1-0.4,0.2-0.5c0.2-0.7-0.8-0.9-1-0.3c-0.1,0.2-0.1,0.4-0.2,0.5C25,20.6,25.3,21,25.7,21
					c2.2-0.2,4.5-0.7,6.4-1.8c0.8-0.5,1.5-1,1.9-1.9c0.5-0.9,0.9-1.8,1.6-2.6c0.4-0.5-0.1-1.2-0.7-0.9c-0.9,0.5-2,0.7-3,1
					c-1,0.3-1.9,0.6-2.8,1c-1.7,0.8-2.9,2-3.7,3.7C25.1,20.3,26,20.8,26.3,20.2z"/>
			</g>
		</g>
	</g>
	<g>
		<g>
			<path class="st1" d="M24.3,23.4c0.4-0.5,0.8-1,1.2-1.5c0.4-0.5,0.6-1.1,0.9-1.7c0.1-0.3-0.1-0.6-0.4-0.7
				c-0.3-0.1-0.5,0.1-0.7,0.4c0,0.1,0,0.1-0.1,0.1c0,0-0.1,0.1,0,0.1c0-0.1,0,0,0,0.1c0,0,0,0.1,0,0.1c-0.1,0.1-0.1,0.2-0.2,0.4
				c-0.1,0.2-0.3,0.5-0.4,0.7c-0.1,0.1-0.1,0.2-0.2,0.3c-0.1,0.1,0-0.1,0,0c0,0,0,0.1-0.1,0.1c0,0.1-0.1,0.1-0.1,0.2
				c-0.2,0.3-0.4,0.5-0.6,0.8c-0.2,0.2-0.2,0.6,0,0.8C23.7,23.6,24.1,23.7,24.3,23.4L24.3,23.4z"/>
		</g>
	</g>
	<g>
		<g>
			<path class="st2" d="M21,23.3c-0.8-0.7-1.2-1-1.8-1.2c-0.3-0.2-0.7-0.3-1.1-0.4c-0.8-0.3-1.7-0.3-2.6-0.2s-1.5,0.1-2.4,0.2
				c-1.1,0.1-2.2,0.4-3.3,0.3c1.2,0.6,1.9,1.2,2.7,1.9c1,0.8,2.9,1,4.3,0.9s3-0.4,4.5-0.9L21,23.3z"/>
		</g>
		<g>
			<g>
				<path class="st1" d="M21.4,23c-1.4-1.3-3-2.1-5-2.1c-1.1,0-2.1,0-3.2,0.2c-1.1,0.1-2.2,0.4-3.3,0.3c-0.5-0.1-0.7,0.8-0.3,1
					c0.9,0.5,1.8,1.1,2.6,1.8c0.7,0.6,1.6,0.9,2.5,1c2.3,0.3,4.7-0.2,6.9-0.8c0.4-0.1,0.5-0.6,0.2-0.9C21.6,23.2,21.5,23.1,21.4,23
					c-0.5-0.5-1.2,0.3-0.8,0.8c0.1,0.1,0.3,0.3,0.4,0.4c0.1-0.3,0.2-0.6,0.2-0.9c-2,0.6-4.3,1.1-6.5,0.8c-0.9-0.1-1.6-0.5-2.3-1.1
					c-0.7-0.6-1.5-1.1-2.3-1.6c-0.1,0.3-0.2,0.7-0.3,1c1,0.1,2-0.1,3.1-0.2c1-0.1,1.9-0.2,2.9-0.2c1,0,1.9,0.1,2.8,0.5
					c0.8,0.3,1.4,0.8,2,1.3C21.1,24.2,21.9,23.4,21.4,23z"/>
			</g>
		</g>
	</g>
	<g>
		<g>
			<path class="st1" d="M23.9,24.7c-0.5-0.2-0.9-0.4-1.3-0.7c-0.1-0.1-0.2-0.1-0.3-0.2c0,0-0.1-0.1-0.1-0.1c-0.1-0.1,0.1,0.1,0,0
				c0,0,0,0-0.1-0.1c-0.2-0.2-0.4-0.4-0.6-0.6c-0.2-0.2-0.6-0.2-0.8,0c-0.2,0.2-0.2,0.5,0,0.8c0.4,0.4,0.8,0.8,1.3,1
				c0.4,0.3,0.9,0.5,1.4,0.7c0.2,0.1,0.6,0.1,0.7-0.2C24.2,25.2,24.2,24.9,23.9,24.7L23.9,24.7z"/>
		</g>
	</g>
</g>
</svg>
