<?xml version="1.0" encoding="utf-8"?>
<!-- Generator: Adobe Illustrator 26.0.2, SVG Export Plug-In . SVG Version: 6.00 Build 0)  -->
<svg version="1.1" id="레이어_1" xmlns="http://www.w3.org/2000/svg" xmlns:xlink="http://www.w3.org/1999/xlink" x="0px"
	 y="0px" viewBox="0 0 45 40" style="enable-background:new 0 0 45 40;" xml:space="preserve">
<style type="text/css">
	.st0{fill:#CFE3CF;}
	.st1{fill:#282828;}
	.st2{fill:#FFFFFF;}
</style>
<g>
	<g>
		<g>
			<path class="st0" d="M22.2,17.5c0.3-1.8,1.2-3.6,2.5-5c0.5-0.5,1-1,1.7-1.2c0.6-0.2,1.4-0.2,1.9,0.3c0.3,0.3,0.4,0.9,0.4,1.3
				c-0.1,0.5-0.3,1-0.5,1.4c-0.9,1.5-2.5,3.1-4.1,4"/>
		</g>
		<g>
			<g>
				<path class="st1" d="M22.8,17.7c0.2-1.1,0.5-2.1,1.1-3c0.5-0.9,1.3-1.9,2.2-2.5c0.7-0.4,2-0.7,2.1,0.4c0,0.6-0.3,1.1-0.5,1.6
					c-0.3,0.5-0.6,0.9-0.9,1.3c-0.8,1-1.8,1.8-2.9,2.4c-0.6,0.3-0.1,1.3,0.5,0.9c1.2-0.7,2.2-1.6,3.1-2.6c0.8-1,1.8-2.3,1.8-3.6
					c0-1.4-1.3-2.2-2.6-1.9c-1.3,0.3-2.4,1.5-3.1,2.5c-0.9,1.2-1.5,2.7-1.8,4.1C21.6,18.1,22.6,18.4,22.8,17.7L22.8,17.7z"/>
			</g>
		</g>
	</g>
	<g>
		<g>
			<path class="st0" d="M20.7,21.6c-1,1.6-1.5,3.4-1.5,5.2c0,0.9,0.1,1.8,0.7,2.5c0.3,0.3,0.6,0.5,1,0.5c0.3,0,0.6-0.2,0.8-0.4
				c0.6-0.5,0.9-1.1,1.1-1.8s0.2-1.4,0.3-2.2c0.1-1.1,0.1-2.6-0.1-3.7"/>
		</g>
		<g>
			<g>
				<path class="st1" d="M20.2,21.3c-0.7,1.2-1.2,2.5-1.5,3.9c-0.2,1.3-0.3,2.8,0.3,3.9c0.3,0.5,0.8,1,1.4,1.1
					c0.7,0.2,1.3-0.2,1.8-0.6c1-1,1.3-2.4,1.4-3.8c0.1-1.4,0.1-2.9-0.1-4.3c-0.1-0.7-1.2-0.4-1,0.3c0.2,1.2,0.2,2.6,0.1,3.8
					c0,0.7-0.1,1.5-0.4,2.2c-0.2,0.5-0.7,1.3-1.3,1.3c-0.6,0-1-0.8-1.1-1.3c-0.1-0.7-0.1-1.4,0-2c0.1-1.4,0.6-2.8,1.4-4.1
					C21.5,21.2,20.6,20.7,20.2,21.3L20.2,21.3z"/>
			</g>
		</g>
	</g>
	<g>
		<g>
			<path class="st0" d="M22.9,21.3c0.5,1.2,1.5,3.1,2.3,4.1c0.6,0.8,1.4,1.5,2.3,1.8c0.5,0.2,1.2,0.2,1.7,0c0.5-0.3,0.7-0.8,0.8-1.3
				c0-0.5-0.1-1-0.3-1.5c-0.3-0.6-0.8-1.2-1.4-1.6c-1.2-1-3-2-4.4-2.5"/>
		</g>
		<g>
			<g>
				<path class="st1" d="M22.4,21.6c0.5,1.2,1.1,2.4,1.9,3.6c0.8,1.1,1.8,2.2,3.2,2.7c0.7,0.2,1.5,0.2,2.1-0.2
					c0.5-0.4,0.9-1.1,0.9-1.7c0.1-1.5-1.1-2.8-2.2-3.7c-1.3-1-2.8-1.8-4.3-2.4c-0.3-0.1-0.6,0.1-0.7,0.4c-0.1,0.3,0.1,0.6,0.4,0.7
					c1.1,0.4,2.2,1,3.2,1.7c1,0.6,2,1.5,2.4,2.6c0.2,0.5,0.2,1.1-0.2,1.5c-0.4,0.4-1,0.3-1.5,0.1c-1-0.4-1.8-1.3-2.5-2.2
					c-0.7-1.1-1.3-2.2-1.8-3.4c-0.1-0.3-0.5-0.3-0.7-0.2C22.3,21,22.3,21.3,22.4,21.6L22.4,21.6z"/>
			</g>
		</g>
	</g>
	<g>
		<g>
			<path class="st0" d="M24,20.2c0.8,0.1,2,0.4,2.9,0.5c0.8,0.1,1.7,0.2,2.5,0.2c0.8,0,1.7-0.2,2.4-0.7c0.2-0.2,0.5-0.4,0.6-0.6
				c0.4-0.7,0.3-1.6-0.1-2.2c-0.5-0.6-1.3-1-2-1c-0.3,0-0.7,0.1-1,0.2c-1.8,0.4-3.7,1.2-5.3,2.1"/>
		</g>
		<g>
			<g>
				<path class="st1" d="M23.9,20.7c1.5,0.2,2.9,0.6,4.4,0.7c1.5,0.1,3.1,0,4.2-1.1c1-1,1-2.6,0-3.6c-1.1-1.1-2.6-1-3.9-0.6
					c-1.7,0.5-3.3,1.2-4.9,2.1c-0.6,0.4-0.1,1.3,0.5,0.9c1.1-0.6,2.2-1.2,3.4-1.6c1-0.4,2.4-0.9,3.5-0.5c1,0.4,1.4,1.7,0.6,2.5
					c-0.9,0.9-2.3,0.9-3.5,0.8c-1.4-0.1-2.7-0.4-4.1-0.6c-0.3,0-0.6,0.1-0.7,0.4C23.4,20.3,23.6,20.7,23.9,20.7L23.9,20.7z"/>
			</g>
		</g>
	</g>
	<g>
		<g>
			<path class="st0" d="M21,21.2c-0.8,1.6-2.6,3-4.3,3.9c-0.5,0.2-1.1,0.4-1.8,0.4s-1.4-0.4-1.8-1c-0.2-0.4-0.2-0.8-0.1-1.1
				c0.1-0.3,0.4-0.6,0.6-0.9c1.6-1.5,4-2,6.4-2.3"/>
		</g>
		<g>
			<g>
				<path class="st1" d="M20.6,21c-0.5,1-1.2,1.8-2.1,2.5c-0.8,0.6-1.9,1.4-3,1.5c-0.9,0.1-2.4-0.6-1.8-1.6c0.5-0.9,1.7-1.4,2.6-1.8
					c1.2-0.5,2.5-0.7,3.8-0.9c0.3,0,0.5-0.2,0.5-0.5c0-0.3-0.2-0.6-0.5-0.5c-1.4,0.2-2.9,0.4-4.2,0.9c-1.1,0.5-2.6,1.2-3.2,2.3
					c-0.7,1.4,0.3,2.7,1.7,3.1c1.4,0.4,2.8-0.3,3.9-1.1c1.3-0.8,2.5-1.9,3.2-3.3C21.8,20.9,20.9,20.4,20.6,21L20.6,21z"/>
			</g>
		</g>
	</g>
	<g>
		<g>
			<path class="st0" d="M20.5,18.4c-1.4-1.5-2.5-3.5-2.9-5.5c-0.1-0.4-0.2-0.9-0.1-1.4c0.1-0.4,0.3-0.9,0.7-1.1
				c0.5-0.3,1.3-0.2,1.8,0.1c0.8,0.5,1.2,1.3,1.5,2.1c0.6,1.5,0.9,3.1,1,4.7"/>
		</g>
		<g>
			<g>
				<path class="st1" d="M20.9,18c-0.9-1-1.7-2.2-2.2-3.6c-0.3-0.8-1.2-3.1,0-3.6c0.6-0.2,1.2,0.1,1.5,0.5c0.4,0.4,0.7,1,0.9,1.6
					c0.5,1.4,0.9,2.9,0.9,4.4c0,0.7,1.1,0.7,1.1,0c0-1.5-0.3-2.9-0.8-4.3c-0.4-1.1-0.9-2.4-2-3c-1.1-0.6-2.6-0.4-3.1,0.9
					c-0.5,1.2,0,2.8,0.5,3.9c0.6,1.4,1.4,2.7,2.4,3.9C20.6,19.3,21.3,18.5,20.9,18L20.9,18z"/>
			</g>
		</g>
	</g>
	<g>
		<g>
			<path class="st0" d="M20.7,18.3c-0.4-0.3-0.9-0.5-1.3-0.8c-0.5-0.3-1-0.5-1.5-0.8c-0.2-0.1-0.5-0.3-0.7-0.4
				c-0.3-0.2-0.7-0.3-1-0.5c-0.5-0.2-1-0.3-1.5-0.3c-0.6,0-1.1,0.2-1.6,0.6c-0.4,0.3-0.9,1-0.8,1.5c0.1,0.7,0.6,1.3,1.1,1.6
				c0.5,0.4,1,0.5,1.6,0.7c0.8,0.2,1.5,0.2,2.3,0.2c1,0,1.9-0.2,2.9-0.2"/>
		</g>
		<g>
			<g>
				<path class="st1" d="M21.1,18c-0.5-0.5-1.2-0.8-1.8-1.1c-0.6-0.4-1.2-0.7-1.9-1c-1.3-0.7-2.7-1.1-4.1-0.4
					c-1.1,0.6-1.9,1.9-1.3,3.1c0.5,1.2,1.8,1.8,3,2.1c1.8,0.4,3.5,0,5.3,0c0.7,0,0.7-1.1,0-1.1c-1.6,0-3.2,0.4-4.8,0.1
					c-0.6-0.1-1.3-0.3-1.8-0.7c-0.4-0.3-1.1-0.9-0.8-1.5c0.2-0.6,0.8-1,1.4-1.2c0.7-0.2,1.5,0.1,2.2,0.4c0.7,0.3,1.3,0.7,2,1.1
					c0.6,0.4,1.4,0.6,1.9,1.1C20.8,19.2,21.6,18.4,21.1,18L21.1,18z"/>
			</g>
		</g>
	</g>
	<g>
		<g>
			<path class="st2" d="M20.8,18.3c0.4-0.4,1-0.6,1.5-0.6c0.5,0.1,1,0.3,1.3,0.7c0,0,0.1,0.1,0.1,0.1c0.6,0.9,0.2,2.1-0.6,2.7
				c-0.8,0.5-1.8,0.4-2.5-0.3C20,20.1,20.2,19,20.8,18.3z"/>
		</g>
		<g>
			<g>
				<path class="st1" d="M21.2,18.7c0.1-0.1,0.1-0.1,0.2-0.2c-0.1,0.1,0.1,0,0.1,0c0,0,0.1-0.1,0.1-0.1c0,0,0.1,0,0.1-0.1
					c-0.1,0,0,0,0,0c0,0,0.1,0,0.1,0c0,0,0.1,0,0.1,0c0,0,0,0,0,0c0.1,0,0.2,0,0.3,0c0,0,0.1,0,0.1,0c-0.1,0,0.1,0,0.1,0
					c0.1,0,0.2,0.1,0.3,0.1c0,0,0.1,0,0,0c0.1,0,0.1,0.1,0.2,0.1c0,0,0.1,0.1,0.1,0.1c0,0,0.1,0.1,0.1,0c0.1,0.1,0.1,0.1,0.2,0.2
					c0,0,0.1,0.1,0.1,0.1c0-0.1,0,0.1,0,0.1c0,0,0,0.1,0,0.1c0,0,0,0.1,0,0.1c0-0.1,0-0.1,0,0c0,0.1,0,0.2,0.1,0.2c0,0.1,0,0,0,0
					c0,0.1,0,0.1,0,0.1c0,0.1,0,0.1,0,0.2c0,0.1,0,0,0,0c0,0.1,0,0.1,0,0.2c0,0.1,0,0.2-0.1,0.2c0-0.1,0,0,0,0c0,0,0,0.1-0.1,0.1
					c0,0.1-0.1,0.1-0.1,0.2c-0.1,0.1,0,0,0,0c0,0-0.1,0.1-0.1,0.1c0,0.1-0.1,0.1-0.2,0.2c-0.1,0.1,0,0,0,0c0,0-0.1,0-0.1,0.1
					c-0.1,0-0.1,0.1-0.2,0.1c0.1-0.1,0,0,0,0c0,0-0.1,0-0.1,0c0,0-0.1,0-0.1,0c-0.1,0,0.1,0,0,0c-0.1,0-0.2,0-0.2,0c0,0-0.1,0-0.1,0
					c0,0,0.1,0,0,0c-0.1,0-0.2,0-0.3-0.1c-0.1,0,0.1,0,0,0c0,0-0.1,0-0.1,0c-0.1,0-0.1-0.1-0.2-0.1c-0.1-0.1,0.1,0.1,0,0
					c0,0,0,0-0.1-0.1c0,0-0.1-0.1-0.1-0.1c-0.1-0.1,0,0.1,0-0.1c0-0.1-0.1-0.2-0.1-0.3c0,0.1,0,0,0,0c0-0.1,0-0.1,0-0.1
					c0,0,0-0.1,0-0.1c0,0.1,0-0.1,0-0.1c0-0.1,0-0.2,0-0.3c0,0.1,0,0,0,0c0-0.1,0-0.1,0-0.2c0,0,0-0.1,0-0.1c0,0,0-0.1,0-0.1
					c0,0.1,0,0.1,0,0c0-0.1,0.1-0.2,0.1-0.2C21.1,18.8,21.1,18.7,21.2,18.7C21.1,18.8,21.2,18.7,21.2,18.7c0.2-0.2,0.2-0.6,0-0.8
					c-0.2-0.2-0.6-0.2-0.8,0c-0.7,0.8-0.9,1.8-0.5,2.7c0.4,0.9,1.4,1.4,2.4,1.4c1-0.1,1.8-0.8,2.2-1.7c0.4-0.9,0-2-0.7-2.6
					c-1-0.8-2.4-0.7-3.3,0.2c-0.2,0.2-0.2,0.6,0,0.8C20.7,18.8,21,18.9,21.2,18.7z"/>
			</g>
		</g>
	</g>
</g>
</svg>
