<?xml version="1.0" encoding="utf-8"?>
<!-- Generator: Adobe Illustrator 26.0.2, SVG Export Plug-In . SVG Version: 6.00 Build 0)  -->
<svg version="1.1" id="레이어_1" xmlns="http://www.w3.org/2000/svg" xmlns:xlink="http://www.w3.org/1999/xlink" x="0px"
	 y="0px" viewBox="0 0 40 40" style="enable-background:new 0 0 40 40;" xml:space="preserve">
<style type="text/css">
	.st0{fill:#282828;}
	.st1{fill:#78C564;}
</style>
<g>
	<g>
		<g>
			<path class="st0" d="M17.9,33c0-2.1,0.2-4.3,0.8-6.3c0.4-1.2,1-2.4,1.6-3.5c1.6-2.9,2.3-5.9,2.4-9.3c0-0.7-1.1-0.7-1.1,0
				c-0.1,2-0.3,4-0.9,5.9c-0.4,1.2-1,2.3-1.6,3.4c-1.7,3.1-2.2,6.3-2.2,9.8C16.8,33.7,17.9,33.7,17.9,33L17.9,33z"/>
		</g>
	</g>
	<g>
		<g>
			<path class="st1" d="M17.5,29.8c-0.2-1-1.3-1.5-2.3-1.7s-2.1-0.2-2.9-0.7c-1.4-0.8-1.8-2.5-2.1-4.1c-0.2-0.7-0.3-1.5-0.5-2.2
				c1.9,0.8,4.2-0.1,6,0.8c1.5,0.8,2,2,2,3.7C17.7,26.6,17.2,28.9,17.5,29.8L17.5,29.8z"/>
		</g>
		<g>
			<g>
				<path class="st0" d="M18,29.7c-0.3-1-1.2-1.6-2.1-1.9c-1.1-0.3-2.4-0.2-3.4-0.7c-0.9-0.5-1.3-1.5-1.6-2.4
					c-0.3-1.2-0.5-2.4-0.8-3.6c-0.2,0.2-0.5,0.4-0.7,0.7c1.3,0.6,2.8,0.3,4.2,0.4c1.2,0,2.5,0.4,3.1,1.5c1.1,2-0.3,4.3,0.2,6.3
					C17.1,30.7,18.2,30.4,18,29.7c-0.1-0.5-0.1-1.1,0-1.6c0.1-0.6,0.1-1.2,0.2-1.8c0.1-1.1,0-2.4-0.6-3.4c-0.7-1.2-2-1.7-3.3-1.9
					c-1.5-0.1-3,0.2-4.4-0.4C9.4,20.5,9,21,9.1,21.4c0.2,1.2,0.5,2.4,0.8,3.6c0.3,1,0.7,2,1.5,2.6c0.9,0.8,2.1,0.9,3.2,1.1
					c0.9,0.1,2.1,0.4,2.4,1.4C17.2,30.7,18.2,30.4,18,29.7z"/>
			</g>
		</g>
	</g>
	<g>
		<g>
			<path class="st1" d="M20.2,22.7c0.3-2.1,2.1-3.9,4.2-4.2c0.8-0.1,1.7,0,2.5-0.1c1.2,0,2.3-0.2,3.4-0.7c-0.2,0.5-0.4,1-0.5,1.5
				c-0.2,0.9-0.2,1.9-0.7,2.8c-0.8,1.5-2.5,2.2-4.1,2.2C23.4,24.2,21.7,23.3,20.2,22.7L20.2,22.7z"/>
		</g>
		<g>
			<g>
				<path class="st0" d="M20.7,22.8c0.3-1.7,1.6-3.2,3.3-3.7c1-0.3,2.1-0.1,3.2-0.2c1.1-0.1,2.2-0.3,3.3-0.7
					c-0.2-0.2-0.5-0.4-0.7-0.7c-0.5,1.2-0.5,2.4-0.9,3.6c-0.3,1-1,1.8-2,2.2c-2.3,0.9-4.5-0.3-6.6-1.2c-0.6-0.3-0.9,0.8-0.3,1
					c1.3,0.5,2.5,1.2,3.9,1.5c1.2,0.2,2.4,0.1,3.5-0.4c1-0.5,1.9-1.2,2.4-2.3c0.5-1.3,0.5-2.8,1-4.1c0.1-0.4-0.3-0.8-0.7-0.7
					c-1.2,0.4-2.4,0.7-3.6,0.7c-1.1,0-2.3-0.1-3.4,0.4c-1.8,0.7-3.2,2.4-3.5,4.3C19.5,23.2,20.6,23.5,20.7,22.8z"/>
			</g>
		</g>
	</g>
	<g>
		<g>
			<path class="st0" d="M12.5,24.4c1.9,0.6,3.5,2.3,4,4.2c0.2,0.7,1.3,0.4,1.1-0.3c-0.7-2.3-2.5-4.2-4.8-5c-0.3-0.1-0.6,0.1-0.7,0.4
				C12,24,12.2,24.3,12.5,24.4L12.5,24.4z"/>
		</g>
	</g>
	<g>
		<g>
			<path class="st0" d="M20.9,22.9c0.5-0.2,1-0.4,1.5-0.5c0.5-0.1,1-0.2,1.5-0.3c0.9-0.2,1.9-0.4,2.7-1c0.2-0.2,0.4-0.5,0.2-0.8
				c-0.1-0.2-0.5-0.4-0.8-0.2c-0.8,0.5-1.6,0.7-2.5,0.9c-0.5,0.1-1,0.1-1.5,0.3c-0.5,0.1-1,0.3-1.5,0.5c-0.3,0.1-0.5,0.4-0.4,0.7
				C20.3,22.8,20.6,23,20.9,22.9L20.9,22.9z"/>
		</g>
	</g>
	<g>
		<g>
			<path class="st1" d="M22.1,14.1c-0.9-2.6,0.3-4.8,2.1-5.8c1.2-0.6,3.4-0.5,4.5-1.2C28,7.8,27.9,8.9,27.9,10
				c0,1.2,0.1,1.8-0.3,2.7c-0.3,0.6-1,1.4-1.6,1.6c-1.1,0.4-2.1,0.5-3.6,0L22.1,14.1z"/>
		</g>
		<g>
			<g>
				<path class="st0" d="M22.6,14c-0.6-1.8-0.2-3.7,1.3-4.9c1.5-1.1,3.5-0.6,5-1.6c-0.2-0.3-0.4-0.6-0.7-0.9c-0.8,0.9-1,2-1,3.1
					c0,0.9,0.2,1.8-0.2,2.7c-0.2,0.5-0.5,0.9-1,1.2c-0.4,0.3-0.9,0.4-1.3,0.4c-0.5,0.1-1,0.1-1.4,0C23.3,14,23.2,14,23,14
					c-0.1,0-0.2,0-0.3-0.1C22.6,13.8,22.6,13.8,22.6,14C22.7,14,22.7,14,22.6,14c0-0.1,0-0.1,0-0.1c0,0-0.1-0.1-0.1-0.1
					c-0.5-0.5-1.3,0.3-0.8,0.8c0.1,0.1,0.2,0.2,0.2,0.3c0.3,0.2,0.7,0.3,1,0.3c0.6,0.1,1.1,0.2,1.7,0.1c1.2-0.1,2.2-0.5,2.9-1.5
					c0.7-0.8,0.9-1.8,0.9-2.9c0-1.1-0.2-2.4,0.6-3.4C29.5,7,29,6.2,28.4,6.6c-0.9,0.5-1.9,0.6-2.9,0.7c-1,0.2-1.8,0.5-2.6,1.2
					c-1.6,1.4-2.1,3.7-1.4,5.8C21.8,14.9,22.8,14.6,22.6,14z"/>
			</g>
		</g>
	</g>
	<g>
		<g>
			<path class="st0" d="M22.7,14.5c0.6-0.3,1.1-0.7,1.6-1.2c0.7-0.7,1.3-1.5,1.8-2.4c0.1-0.2,0.1-0.6-0.2-0.8
				c-0.3-0.1-0.6-0.1-0.8,0.2c-0.3,0.5-0.6,0.9-0.9,1.4c0.1-0.1,0,0,0,0.1c0,0-0.1,0.1-0.1,0.1c-0.1,0.1-0.1,0.2-0.2,0.2
				c-0.1,0.2-0.3,0.3-0.4,0.4c-0.1,0.1-0.2,0.2-0.4,0.3c0,0-0.1,0.1-0.1,0.1c-0.1,0.1,0.1-0.1,0,0c-0.1,0.1-0.1,0.1-0.2,0.1
				c-0.2,0.2-0.5,0.3-0.7,0.5c-0.2,0.1-0.4,0.5-0.2,0.8C22.1,14.6,22.4,14.7,22.7,14.5L22.7,14.5z"/>
		</g>
	</g>
	<g>
		<g>
			<path class="st1" d="M21.4,17.7c0-1.3-0.8-3-1.7-3.7c-0.9-0.7-2.2-1.1-3.4-1.6c-1.1-0.5-1.7-0.9-2.6-1.8
				c-0.6,1.7-0.4,3.7,0.5,5.1c0.8,1.4,2.2,2.2,3.7,2.4C18.8,18.3,20.2,18.4,21.4,17.7L21.4,17.7z"/>
		</g>
		<g>
			<g>
				<path class="st0" d="M21.9,17.7c-0.1-1.8-1-3.8-2.7-4.6c-0.9-0.5-2-0.8-2.9-1.2c-0.9-0.4-1.6-0.9-2.3-1.6
					c-0.3-0.3-0.8-0.1-0.9,0.2c-0.8,2.4-0.3,5.4,1.7,7c0.9,0.7,2,1.1,3.1,1.2c1.2,0.2,2.5,0.1,3.6-0.5c0.6-0.4,0.1-1.3-0.6-0.9
					c-0.9,0.5-2,0.5-3,0.4c-0.9-0.1-1.8-0.4-2.5-1c-1.7-1.4-2-3.9-1.4-5.9c-0.3,0.1-0.6,0.2-0.9,0.2c0.6,0.6,1.3,1.2,2.1,1.6
					c0.9,0.5,1.8,0.8,2.8,1.1c0.8,0.3,1.4,0.7,1.9,1.5c0.4,0.7,0.8,1.6,0.8,2.4C20.8,18.4,21.9,18.4,21.9,17.7z"/>
			</g>
		</g>
	</g>
	<g>
		<g>
			<path class="st0" d="M16.2,15.3c1.2,1.1,2.7,1.9,4.3,2.4c0.7,0.2,1-0.9,0.3-1c-1.4-0.4-2.8-1.1-3.9-2.1c-0.2-0.2-0.6-0.2-0.8,0
				C16,14.7,16,15.1,16.2,15.3L16.2,15.3z"/>
		</g>
	</g>
</g>
</svg>
