<?xml version="1.0" encoding="utf-8"?>
<!-- Generator: Adobe Illustrator 26.0.2, SVG Export Plug-In . SVG Version: 6.00 Build 0)  -->
<svg version="1.1" id="레이어_1" xmlns="http://www.w3.org/2000/svg" xmlns:xlink="http://www.w3.org/1999/xlink" x="0px"
	 y="0px" viewBox="0 0 40 40" style="enable-background:new 0 0 40 40;" xml:space="preserve">
<style type="text/css">
	.st0{fill:#FFB1CF;}
	.st1{fill:#282828;}
	.st2{fill:#FFFFC5;}
	.st3{fill:#FFFFFF;}
	.st4{fill:#FFE35A;}
</style>
<g>
	<g>
		<path class="st0" d="M11.5,16.3c-0.1-0.1-0.2-0.2-0.2-0.4c-0.1-0.1-0.1-0.3-0.1-0.4c-0.1-0.3,0-0.8,0-1.1c0.1-0.4,0.3-1,0.4-1.2
			c-0.4,0.4-0.8,0.6-1,0.7c-0.8,0.4-2.1,0.5-2.6-0.4c-0.2-0.4-0.2-0.9,0.1-1.4c0.1-0.1,0.1-0.2,0.2-0.3c0.4-0.4,0.8-0.5,1.4-0.6
			c0.3-0.1,0.6-0.1,0.9-0.1c0,0-0.1-0.1-0.1-0.1c-0.4-0.3-0.9-0.7-1.2-1.2C9.3,9.9,9.2,9.7,9.1,9.5c-0.1-0.4-0.2-0.9,0-1.3
			c0-0.1,0.1-0.1,0.1-0.2c0.3-0.3,0.8-0.5,1.2-0.4c0.2,0,0.5,0.1,0.7,0.3c0.1,0.1,0.2,0.1,0.3,0.2c0.2,0.2,0.3,0.4,0.4,0.6
			C11.9,8.9,12,9,12.1,9.1c0,0.1,0.1,0.1,0.1,0.2c0,0.1,0.1,0.1,0.1,0.2c0-0.4,0-1.1,0-1.3c0-0.2,0.1-0.5,0.1-0.7
			c0.1-0.2,0.2-0.5,0.3-0.7c0.1-0.1,0.2-0.2,0.3-0.3c0.1-0.1,0.3-0.2,0.4-0.2c0.2,0,0.3-0.1,0.5,0c0.1,0,0.3,0.1,0.4,0.1
			c0.5,0.3,0.7,0.9,0.7,1.4c0,0.4-0.1,1.2-0.4,1.8c0.3-0.4,0.7-0.7,1.1-1.1c0.3-0.2,0.6-0.4,1-0.4c0.3,0,0.6,0.1,0.8,0.2
			c0.2,0.1,0.4,0.2,0.5,0.4c0.1,0.1,0.1,0.2,0.1,0.3c0.3,1-0.6,1.8-1.4,2.2c-0.2,0.1-0.5,0.2-0.8,0.3c-0.1,0-0.3,0.1-0.4,0.1
			c-0.1,0-0.3,0-0.4,0c0.2,0.1,0.4,0.1,0.5,0.2c0.1,0.1,0.3,0.2,0.4,0.2c0.4,0.3,0.7,0.6,0.8,1.1c0.1,0.2,0.1,0.5,0.1,0.8
			c-0.1,0.4-0.4,0.8-0.8,0.9c-0.4,0.2-1,0.1-1.4-0.2c-0.3-0.2-0.9-0.8-1.1-1.2c0,0,0,0.6,0,1.1c0,0.4-0.2,1-0.3,1.3
			c-0.2,0.5-0.8,0.8-1.3,0.7C11.9,16.7,11.7,16.5,11.5,16.3z"/>
		<path class="st1" d="M12.4,17.3c-0.1,0-0.2,0-0.3,0c-0.4-0.1-0.7-0.3-1-0.7l0,0c-0.1-0.1-0.2-0.3-0.3-0.5
			c-0.1-0.1-0.1-0.3-0.1-0.5c0-0.2-0.1-0.7,0-1c-1.1,0.4-2.5,0.4-3.1-0.7c-0.3-0.6-0.3-1.3,0.1-1.9c0.1-0.2,0.2-0.3,0.3-0.4
			c0.4-0.3,0.8-0.6,1.4-0.7c-0.2-0.2-0.3-0.3-0.4-0.5C8.8,10.2,8.7,10,8.6,9.7C8.4,9.1,8.4,8.4,8.6,7.9c0-0.1,0.1-0.1,0.1-0.2
			c0.4-0.5,1-0.7,1.7-0.7c0.3,0,0.7,0.2,1,0.3c0.1,0.1,0.3,0.2,0.4,0.3c0-0.1,0.1-0.3,0.1-0.4C12,7,12.1,6.7,12.3,6.4
			c0.1-0.2,0.2-0.3,0.4-0.4c0.2-0.2,0.4-0.2,0.6-0.3c0.2-0.1,0.4-0.1,0.7,0c0.2,0,0.4,0.1,0.5,0.2c0.9,0.5,1,1.5,1,1.8
			c0,0.1,0,0.2,0,0.3c0.3-0.2,0.7-0.4,1.2-0.4c0.4-0.1,0.8,0.1,1.1,0.3c0.3,0.2,0.5,0.4,0.7,0.6c0.1,0.1,0.2,0.3,0.2,0.5
			c0.4,1.2-0.6,2.3-1.7,2.9c-0.1,0.1-0.2,0.1-0.3,0.1c0.4,0.3,0.7,0.7,0.8,1.2c0.1,0.3,0.1,0.7,0.1,1c-0.1,0.6-0.5,1.1-1.1,1.4
			c-0.5,0.2-1.3,0.1-1.9-0.2c-0.1-0.1-0.2-0.2-0.4-0.3c-0.1,0.4-0.2,1-0.4,1.3C13.6,17,13,17.3,12.4,17.3z M11.7,12.7
			c0.1,0,0.2,0,0.3,0.1c0.2,0.2,0.3,0.5,0.1,0.7c-0.1,0.2-0.3,0.7-0.4,1c0,0.2-0.1,0.7,0,0.9c0,0.1,0.1,0.2,0.1,0.3
			c0,0.1,0.1,0.2,0.1,0.3c0,0,0,0,0,0c0.1,0.1,0.2,0.2,0.3,0.2c0.3,0,0.6-0.2,0.7-0.4c0.1-0.2,0.3-0.8,0.3-1.1c0-0.5,0-1,0-1
			c0-0.2,0.2-0.5,0.4-0.5c0.2-0.1,0.5,0,0.6,0.2c0.2,0.3,0.8,0.9,1,1c0.3,0.2,0.6,0.2,0.9,0.1c0.2-0.1,0.4-0.3,0.4-0.5
			c0-0.2,0-0.4,0-0.5c-0.1-0.3-0.3-0.6-0.6-0.8c-0.1-0.1-0.2-0.1-0.4-0.2c-0.1-0.1-0.3-0.1-0.4-0.2l0,0l0,0
			c-0.3-0.1-0.4-0.4-0.4-0.7c0.1-0.3,0.4-0.5,0.7-0.4l0,0l0,0c0.2-0.1,0.3-0.1,0.4-0.1c0.2-0.1,0.5-0.1,0.7-0.3
			c0.5-0.2,1.4-0.9,1.1-1.6c0-0.1-0.1-0.1-0.1-0.2c0,0-0.1-0.1-0.3-0.2c-0.2-0.1-0.4-0.1-0.6-0.1c-0.2,0-0.4,0.1-0.7,0.3
			c-0.4,0.3-0.7,0.6-1,1c-0.2,0.2-0.5,0.2-0.7,0.1c-0.2-0.1-0.3-0.4-0.2-0.7c0.2-0.5,0.3-1.2,0.3-1.5c-0.1-0.7-0.3-0.9-0.4-1
			c-0.1,0-0.2-0.1-0.2-0.1c-0.1,0-0.1,0-0.3,0c-0.1,0-0.1,0-0.2,0.1c-0.1,0-0.1,0.1-0.2,0.2c-0.1,0.1-0.2,0.3-0.2,0.5
			c-0.1,0.2-0.1,0.4-0.1,0.7c0,0.2,0,0.8,0,1.2c0,0.3-0.2,0.6-0.5,0.6s-0.6-0.2-0.6-0.5c0,0.1,0,0-0.1,0l0.1,0c0-0.1,0-0.1,0-0.2
			l-0.1,0.1c-0.1-0.1-0.1-0.2-0.2-0.4c-0.1-0.2-0.2-0.4-0.3-0.5c-0.1-0.1-0.2-0.1-0.2-0.2c-0.1-0.1-0.3-0.2-0.5-0.2
			c-0.2,0-0.5,0-0.7,0.2c-0.2,0.3-0.1,0.6,0,1c0,0.2,0.1,0.3,0.2,0.4c0.3,0.4,0.7,0.8,1.1,1c0.1,0,0,0-0.1,0c0.3,0,0.5,0.3,0.5,0.5
			c0,0.3-0.3,0.5-0.5,0.5l0,0c-0.3,0-0.6,0-0.8,0.1C9.3,12,9,12.1,8.7,12.4c0,0-0.1,0.1-0.1,0.2c-0.1,0.2-0.2,0.5-0.1,0.8
			c0.3,0.6,1.3,0.4,1.9,0.1c0.1-0.1,0.5-0.3,0.9-0.6C11.4,12.8,11.5,12.7,11.7,12.7z"/>
	</g>
	<g>
		<path class="st2" d="M12.2,11.2c0-0.1,0.1-0.3,0.3-0.4c0.1-0.1,0.2-0.1,0.3-0.1c0.2-0.1,0.4,0,0.6,0c0.4,0.1,0.6,0.3,0.7,0.7
			c0,0.3,0,0.7-0.2,1c-0.2,0.3-0.5,0.4-0.8,0.3c-0.3-0.1-0.5-0.2-0.6-0.5C12.1,11.8,12.1,11.5,12.2,11.2z"/>
	</g>
	<g>
		<g>
			<path class="st1" d="M25.1,36.2c-1.4-5-3.5-9.5-6.2-13.9c-0.4-0.6-1.3,0-0.9,0.5c2.6,4.3,4.7,8.8,6.1,13.6
				C24.2,37.2,25.3,36.9,25.1,36.2L25.1,36.2z"/>
		</g>
	</g>
	<g>
		<g>
			<path class="st1" d="M26.4,34.2c-1.7-5.1-2.5-10.4-3.8-15.6c-0.2-0.7-1.2-0.4-1,0.3c1.3,5.2,2.1,10.5,3.8,15.6
				C25.6,35.2,26.6,34.9,26.4,34.2L26.4,34.2z"/>
		</g>
	</g>
	<g>
		<g>
			<path class="st1" d="M28.6,34.2c-1.2-2.2-1.8-4.7-2.3-7.1c-0.6-2.7-1-5.5-1.5-8.3c-0.1-0.7-1.2-0.4-1,0.3
				c0.8,5.2,1.4,10.9,3.9,15.6C28,35.4,29,34.8,28.6,34.2L28.6,34.2z"/>
		</g>
	</g>
	<g>
		<g>
			<path class="st1" d="M23.5,27.9c-1.1-3.1-2.3-6.3-4.1-9c-0.4-0.6-1.3,0-0.9,0.5c1.8,2.7,2.9,5.8,4,8.8
				C22.7,28.8,23.7,28.5,23.5,27.9L23.5,27.9z"/>
		</g>
	</g>
	<g>
		<g>
			<path class="st3" d="M21,27.1c1.9-0.9,2.6-1.4,4.4-2.4c0.4,1.6,0.7,2.5,0.9,3.6c0,0.1,0,0.2,0,0.3c0,0.1-0.1,0.2-0.3,0.2
				c-1.2,0.7-2.4,1.1-3.6,1.8c0,0-0.1,0-0.1,0c-0.1,0-0.1-0.1-0.1-0.2c-0.4-0.7-1.2-2.5-1.6-3.3L21,27.1z"/>
		</g>
		<g>
			<g>
				<path class="st1" d="M21.3,27.6c1.5-0.7,3-1.5,4.4-2.4c-0.3-0.1-0.5-0.2-0.8-0.3c0.2,0.6,0.4,1.3,0.5,1.9
					c0.1,0.3,0.1,0.5,0.2,0.8c0,0.3,0.1,0.6,0.1,0.8c0,0.1,0,0.1,0.1,0c0,0-0.1,0-0.1,0.1c-0.2,0.1-0.3,0.2-0.5,0.3
					c-0.3,0.2-0.7,0.3-1,0.5c-0.7,0.3-1.4,0.7-2.1,1c0.1,0,0.2,0,0.3-0.1c0,0,0,0-0.1,0c0.1,0,0.2,0,0.3,0.1c0.1,0,0,0,0-0.1
					c0-0.1-0.1-0.1-0.1-0.2c-0.1-0.1-0.1-0.2-0.2-0.4c-0.1-0.3-0.3-0.6-0.4-0.9c-0.3-0.6-0.5-1.1-0.8-1.7c-0.1,0.2-0.1,0.5-0.2,0.8
					C21,27.8,21.2,27.7,21.3,27.6c0.6-0.3,0.1-1.3-0.5-0.9c-0.1,0.1-0.3,0.2-0.4,0.2c-0.3,0.1-0.3,0.5-0.2,0.8c0.4,0.6,0.6,1.3,1,2
					c0.2,0.4,0.3,0.7,0.5,1c0.2,0.4,0.5,0.8,1,0.6c0.2-0.1,0.5-0.2,0.7-0.4c0.2-0.1,0.5-0.3,0.8-0.4c0.5-0.2,1-0.5,1.5-0.7
					c0.4-0.2,1-0.4,1.2-0.9c0.2-0.4,0-1,0-1.4c-0.2-1-0.5-1.9-0.7-2.9c-0.1-0.4-0.5-0.5-0.8-0.3c-1.5,0.8-2.9,1.6-4.4,2.4
					c-0.3,0.1-0.3,0.5-0.2,0.8C20.7,27.7,21,27.7,21.3,27.6z"/>
			</g>
		</g>
	</g>
	<g>
		<path class="st0" d="M11.8,25.7c-0.1-0.2-0.1-0.3-0.1-0.5c0-0.2,0-0.4,0-0.5c0-0.3,0.3-0.9,0.4-1.1c0.2-0.4,0.7-0.9,0.9-1.1
			c-0.5,0.3-1.1,0.4-1.4,0.4c-1,0.1-2.4-0.2-2.7-1.4c-0.1-0.5,0.2-1.1,0.6-1.4c0.1-0.1,0.2-0.2,0.3-0.2c0.5-0.2,1.1-0.2,1.7-0.1
			c0.3,0.1,0.7,0.1,1,0.3c0,0-0.1-0.1-0.1-0.1c-0.3-0.5-0.6-1.1-0.8-1.7c-0.1-0.2-0.1-0.5-0.1-0.7c0-0.5,0.1-1.1,0.5-1.4
			c0.1-0.1,0.1-0.1,0.2-0.1c0.4-0.3,1-0.2,1.4,0c0.3,0.1,0.5,0.3,0.7,0.6c0.1,0.1,0.2,0.2,0.2,0.4c0.1,0.3,0.2,0.5,0.2,0.8
			c0,0.2,0.1,0.3,0.1,0.5c0,0.1,0,0.2,0,0.2c0,0.1,0,0.2,0,0.2c0.1-0.5,0.4-1.2,0.5-1.4c0.1-0.2,0.2-0.5,0.4-0.7
			c0.2-0.2,0.4-0.5,0.6-0.6c0.1-0.1,0.2-0.1,0.4-0.2c0.2-0.1,0.3-0.1,0.5-0.1c0.2,0,0.3,0.1,0.5,0.2c0.1,0.1,0.2,0.2,0.3,0.3
			c0.5,0.5,0.4,1.2,0.2,1.8c-0.1,0.4-0.6,1.3-1,1.8c0.5-0.3,1-0.5,1.6-0.7c0.4-0.1,0.8-0.2,1.2-0.1c0.3,0.1,0.6,0.3,0.8,0.5
			c0.2,0.2,0.3,0.4,0.4,0.6c0,0.1,0,0.3,0,0.4c0,1.1-1.3,1.7-2.4,1.9c-0.3,0-0.6,0-1,0c-0.2,0-0.3,0-0.4-0.1c-0.1,0-0.3,0-0.4-0.1
			c0.2,0.1,0.3,0.3,0.4,0.4c0.1,0.1,0.2,0.3,0.4,0.4c0.3,0.5,0.5,0.9,0.5,1.5c0,0.3-0.1,0.6-0.2,0.9c-0.2,0.4-0.7,0.7-1.2,0.7
			c-0.5,0-1.1-0.3-1.4-0.7c-0.2-0.3-0.7-1.2-0.8-1.7c0,0-0.2,0.6-0.4,1.1c-0.2,0.4-0.6,1-0.9,1.3c-0.4,0.4-1.1,0.5-1.6,0.2
			C12,26.2,11.8,26,11.8,25.7z"/>
		<path class="st1" d="M12.9,27.1c-0.3,0-0.6-0.1-0.9-0.2c-0.4-0.2-0.6-0.6-0.8-1c0,0,0,0,0,0c0-0.2-0.1-0.4-0.1-0.6
			c0-0.2,0-0.4,0-0.6c0-0.3,0.2-0.9,0.4-1.2c-1.2,0.1-2.8-0.4-3.1-1.8c-0.1-0.7,0.2-1.4,0.8-1.9c0.2-0.1,0.3-0.2,0.5-0.3
			c0.6-0.2,1.1-0.3,1.8-0.2c-0.1-0.3-0.2-0.6-0.3-0.8c-0.1-0.3-0.1-0.5-0.1-0.8c0-0.7,0.2-1.4,0.7-1.8c0.1-0.1,0.2-0.1,0.2-0.2
			c0.5-0.4,1.2-0.4,1.9-0.1c0.3,0.2,0.6,0.4,0.9,0.7c0.1,0.1,0.2,0.3,0.3,0.5c0,0,0,0.1,0,0.1c0.1-0.2,0.2-0.4,0.3-0.5
			c0.2-0.3,0.5-0.6,0.7-0.8c0.2-0.1,0.4-0.2,0.5-0.3c0.3-0.1,0.5-0.1,0.8-0.1c0.3,0,0.4,0.1,0.7,0.2c0.2,0.1,0.3,0.2,0.5,0.4
			c0.8,0.8,0.5,1.9,0.4,2.3c0,0.1-0.1,0.3-0.1,0.4c0.4-0.1,0.9-0.2,1.5-0.1c0.4,0.1,0.8,0.4,1.1,0.7c0.2,0.2,0.4,0.5,0.5,0.9
			c0,0.2,0.1,0.4,0,0.6c-0.1,1.4-1.5,2.2-2.8,2.4c-0.2,0-0.3,0-0.5,0c0.3,0.5,0.5,1.1,0.4,1.6c0,0.4-0.1,0.8-0.3,1.1
			c-0.3,0.6-1,1-1.6,1c0,0-0.1,0-0.1,0c-0.6,0-1.3-0.4-1.7-0.9c-0.1-0.1-0.2-0.3-0.3-0.5c-0.2,0.4-0.6,1-0.9,1.4
			C13.9,26.9,13.4,27.1,12.9,27.1z M12.3,25.5c0,0.1,0.1,0.3,0.3,0.4c0.3,0.2,0.7,0,1-0.2s0.6-0.7,0.8-1.1c0.2-0.5,0.4-1.1,0.4-1.1
			c0.1-0.2,0.3-0.4,0.5-0.4c0,0,0,0,0,0c0.2,0,0.5,0.2,0.5,0.4c0.1,0.4,0.5,1.2,0.7,1.5c0.2,0.3,0.6,0.5,0.9,0.5
			c0.3,0,0.6-0.2,0.7-0.5c0.1-0.2,0.1-0.4,0.2-0.6c0-0.4-0.1-0.8-0.4-1.2c-0.1-0.1-0.2-0.3-0.3-0.4c-0.1-0.1-0.2-0.2-0.4-0.3
			c0,0,0,0,0,0c-0.2-0.2-0.3-0.5-0.1-0.8c0.2-0.2,0.5-0.3,0.8-0.1v0l0,0c0,0,0.1,0,0.2,0c0.1,0,0.2,0,0.4,0c0.3,0,0.6,0,0.8,0
			c0.6-0.1,1.8-0.5,1.9-1.4c0-0.1,0-0.2,0-0.3S21,20,20.8,19.8c-0.1-0.2-0.4-0.3-0.6-0.4c-0.3-0.1-0.5-0.1-0.9,0.1
			c-0.5,0.2-1.1,0.4-1.5,0.7c-0.2,0.1-0.5,0.1-0.7-0.1c-0.2-0.2-0.1-0.5,0-0.7c0.4-0.5,0.8-1.2,0.9-1.5c0.2-0.8,0-1.1-0.1-1.3
			c-0.1-0.1-0.1-0.1-0.2-0.2c-0.1-0.1-0.1-0.1-0.3-0.1c-0.1,0-0.2,0-0.3,0c-0.1,0-0.2,0.1-0.3,0.1c-0.1,0.1-0.3,0.3-0.5,0.5
			c-0.1,0.2-0.2,0.4-0.4,0.7c-0.1,0.2-0.3,0.9-0.5,1.3c0,0,0,0,0,0c-0.1,0.3-0.4,0.4-0.7,0.3c-0.2-0.1-0.4-0.3-0.4-0.6
			c0-0.1,0-0.2,0-0.2l0-0.2c0-0.2,0-0.3-0.1-0.5c0-0.2-0.1-0.4-0.2-0.7c-0.1-0.1-0.1-0.2-0.2-0.3c-0.1-0.2-0.3-0.3-0.5-0.4
			c-0.3-0.1-0.6-0.2-0.9,0c-0.3,0.3-0.4,0.6-0.4,1.1c0,0.2,0,0.4,0.1,0.5c0.2,0.5,0.4,1.1,0.8,1.5c0,0.1,0,0-0.1,0
			c0.2,0.1,0.3,0.4,0.2,0.7c-0.1,0.3-0.4,0.4-0.7,0.3c-0.3-0.1-0.6-0.2-0.9-0.2c-0.6-0.1-1-0.1-1.4,0.1c-0.1,0-0.1,0.1-0.2,0.1
			c-0.2,0.2-0.5,0.5-0.4,0.9c0.1,0.8,1.3,1,2.1,0.9c0.2,0,0.7-0.1,1.2-0.4c0.2-0.1,0.5,0,0.7,0.2c0.1,0.2,0.1,0.5-0.1,0.7
			c-0.2,0.2-0.6,0.7-0.8,1c-0.1,0.2-0.3,0.7-0.3,0.9c0,0.1,0,0.3,0,0.4C12.2,25.3,12.2,25.4,12.3,25.5z M12.9,19.5L12.9,19.5
			L12.9,19.5z M12.9,19.5L12.9,19.5L12.9,19.5z M12.9,19.5L12.9,19.5L12.9,19.5z"/>
	</g>
	<g>
		<path class="st2" d="M14.4,20.4c0.1-0.1,0.2-0.2,0.4-0.3c0.1,0,0.2-0.1,0.4,0c0.2,0,0.4,0.1,0.6,0.2c0.4,0.2,0.6,0.6,0.5,1
			c-0.1,0.4-0.3,0.8-0.6,1c-0.3,0.2-0.6,0.2-1,0c-0.3-0.2-0.4-0.5-0.5-0.8C14.1,21.1,14.1,20.7,14.4,20.4z"/>
	</g>
	<g>
		<g>
			<path class="st0" d="M25.3,17.8c-1,0.3-1.6,0.2-2.6-0.2c-0.6-0.3-1.2-1-1.1-1.6c0.1-0.5,0.9-1,1.5-1c1-0.1,1.8,0.1,2.8,0.6
				c-0.2-0.6-0.3-0.9-0.3-1.6c0-0.4,0-0.9,0.2-1.2c0.1-0.4,0.6-0.7,0.9-0.8c0.5-0.2,1,0.3,1.3,0.8c0.3,0.5,0.4,1.1,0.4,1.6
				s0,0.9-0.1,1.5c0.5-0.3,0.7-0.4,1.2-0.5c0.6-0.2,1.2-0.3,1.8,0s1,0.9,0.8,1.5c-0.1,0.2-0.3,0.4-0.5,0.6c-0.8,0.6-1.6,0.7-2.7,0.6
				c0.7,0.5,1.3,1.3,1.7,2.1s0.3,1.7-0.4,2.2c-0.7,0.5-1.6,0-2.1-0.5c-0.6-0.6-0.8-1.3-1.1-2.2c-0.4,1-1.2,1.6-1.7,1.9
				c-0.2,0.1-1.3,0.5-1.6,0.5c-0.4,0-0.8-0.4-0.8-0.9s0.1-0.8,0.3-1.2C23.8,18.9,24.2,18.2,25.3,17.8z"/>
		</g>
		<g>
			<g>
				<path class="st1" d="M25.2,17.3c-0.7,0.2-1.2,0.2-1.9-0.1c-0.4-0.1-1.4-0.7-1.1-1.2c0.2-0.5,1-0.5,1.4-0.5c0.7,0,1.4,0.2,2,0.6
					c0.4,0.2,0.9-0.2,0.8-0.6c-0.1-0.6-0.3-1.1-0.3-1.7c0-0.4,0.3-1.4,1-1.1c0.5,0.3,0.7,1.1,0.8,1.6c0,0.6,0,1.1-0.1,1.7
					c-0.1,0.4,0.5,0.6,0.8,0.5c0.7-0.4,2.5-1.2,3,0c0.2,0.5-0.5,0.9-0.9,1.1c-0.5,0.2-1.1,0.2-1.7,0.2c-0.6,0-0.7,0.7-0.3,1
					c0.7,0.5,2.5,2.5,1.4,3.3c-0.5,0.4-1.2-0.1-1.5-0.5c-0.5-0.5-0.7-1.2-0.9-1.8c-0.2-0.6-0.9-0.5-1,0c-0.2,0.6-0.7,1.1-1.2,1.4
					c-0.4,0.2-0.9,0.5-1.3,0.5c-0.9,0-0.1-1.4,0-1.7c0.4-0.6,0.8-1.1,1.5-1.4C26.1,18.1,25.8,17,25.2,17.3c-1,0.4-1.7,1.1-2.2,2.1
					c-0.5,1-0.9,2.5,0.4,3c0.7,0.3,1.7-0.1,2.3-0.4c0.9-0.5,1.6-1.2,1.9-2.2c-0.4,0-0.7,0-1,0c0.3,1,0.6,2,1.5,2.6
					c0.7,0.6,1.8,0.9,2.6,0.3c1.9-1.4-0.1-4.1-1.5-5.1c-0.1,0.3-0.2,0.7-0.3,1c0.9,0,1.8,0,2.6-0.5c0.8-0.5,1.3-1.2,1-2.1
					c-0.7-2.1-3.2-1.4-4.6-0.6c0.3,0.2,0.5,0.3,0.8,0.5C29,15,29,14,28.8,13.1c-0.2-0.8-0.9-1.7-1.8-1.7c-0.9,0-1.6,0.7-1.8,1.5
					c-0.2,0.9,0,1.9,0.2,2.8c0.3-0.2,0.5-0.4,0.8-0.6c-0.9-0.5-2-0.8-3-0.7c-0.8,0.1-1.8,0.6-2,1.4c-0.2,0.9,0.5,1.8,1.3,2.2
					c1,0.5,2,0.7,3.1,0.3C26.1,18.1,25.8,17,25.2,17.3z"/>
			</g>
		</g>
	</g>
	<g>
		<path class="st2" d="M26.6,16.5c-0.1,0.1-0.2,0.2-0.2,0.3c-0.1,0.2-0.1,0.5,0,0.7c0.1,0.3,0.3,0.6,0.6,0.7
			c0.1,0.1,0.2,0.1,0.3,0.1c0.1,0,0.3,0,0.4-0.1c0.2-0.1,0.3-0.2,0.4-0.4c0.4-0.6-0.1-1.5-0.8-1.5c0,0-0.1,0-0.1,0
			c-0.1,0-0.1,0-0.2,0C26.8,16.4,26.7,16.4,26.6,16.5z"/>
	</g>
	<g>
		<path class="st0" d="M16.9,19.8c-0.1-0.1-0.1-0.3-0.1-0.4c0-0.2,0-0.3,0-0.5c0-0.3,0.2-0.8,0.4-1.1c0.2-0.4,0.6-0.9,0.8-1.1
			c-0.5,0.3-1,0.4-1.2,0.4c-0.9,0.2-2.3-0.1-2.6-1.2c-0.1-0.5,0.1-1,0.5-1.3c0.1-0.1,0.2-0.2,0.3-0.2c0.5-0.2,1-0.3,1.6-0.2
			c0.3,0.1,0.6,0.1,1,0.2c0,0-0.1-0.1-0.1-0.1c-0.3-0.4-0.6-1-0.8-1.5c-0.1-0.2-0.1-0.4-0.1-0.6c0-0.5,0.1-1,0.4-1.4
			c0,0,0.1-0.1,0.1-0.1c0.4-0.3,0.9-0.2,1.3-0.1c0.3,0.1,0.5,0.3,0.7,0.5c0.1,0.1,0.2,0.2,0.2,0.4c0.1,0.2,0.2,0.5,0.3,0.8
			c0,0.1,0.1,0.3,0.1,0.5c0,0.1,0,0.2,0,0.2c0,0.1,0,0.2,0,0.2c0.1-0.4,0.3-1.1,0.4-1.3c0.1-0.2,0.2-0.5,0.3-0.7
			c0.2-0.2,0.3-0.4,0.6-0.6c0.1-0.1,0.2-0.1,0.4-0.2c0.2-0.1,0.3-0.1,0.5-0.1c0.2,0,0.3,0,0.5,0.1c0.1,0.1,0.2,0.2,0.3,0.2
			c0.4,0.4,0.4,1.1,0.3,1.7c-0.1,0.4-0.5,1.2-0.9,1.7c0.5-0.3,1-0.5,1.5-0.7c0.4-0.1,0.8-0.2,1.2-0.1c0.3,0.1,0.6,0.2,0.8,0.4
			c0.2,0.2,0.3,0.4,0.4,0.6c0,0.1,0,0.3,0,0.4c0,1.1-1.2,1.7-2.1,1.9c-0.3,0-0.6,0.1-0.9,0.1c-0.1,0-0.3,0-0.4,0
			c-0.1,0-0.3,0-0.4-0.1c0.2,0.1,0.3,0.3,0.4,0.4c0.1,0.1,0.2,0.2,0.3,0.4c0.3,0.4,0.5,0.9,0.5,1.4c0,0.3-0.1,0.6-0.2,0.8
			C23,19.7,22.6,20,22.1,20c-0.5,0-1-0.2-1.3-0.6c-0.2-0.3-0.7-1.1-0.8-1.6c0,0-0.2,0.6-0.4,1.1c-0.2,0.4-0.5,1-0.8,1.2
			c-0.4,0.4-1,0.5-1.5,0.3C17.1,20.4,17,20.1,16.9,19.8z"/>
		<path class="st1" d="M17.9,21.2c-0.3,0-0.5-0.1-0.8-0.2c-0.4-0.2-0.6-0.5-0.8-1v0c-0.1-0.2-0.1-0.3-0.1-0.5c0-0.2,0-0.4,0-0.6
			c0-0.3,0.2-0.8,0.3-1.1c-1.3,0.1-2.7-0.4-3-1.6c-0.1-0.7,0.1-1.4,0.7-1.9c0.1-0.1,0.3-0.2,0.4-0.3c0.5-0.2,1-0.3,1.6-0.3
			c-0.1-0.2-0.2-0.5-0.3-0.7c-0.1-0.2-0.1-0.5-0.1-0.8c0-0.7,0.2-1.3,0.6-1.8c0.1-0.1,0.1-0.1,0.2-0.2c0.5-0.3,1.2-0.4,1.8-0.1
			c0.3,0.1,0.6,0.4,0.9,0.6c0.1,0.1,0.2,0.3,0.3,0.4c0,0,0,0,0,0c0.1-0.2,0.2-0.3,0.2-0.4c0.2-0.3,0.4-0.6,0.7-0.8
			c0.2-0.1,0.3-0.2,0.5-0.3c0.3-0.1,0.5-0.1,0.8-0.1c0.3,0,0.4,0.1,0.7,0.2c0.2,0.1,0.3,0.2,0.5,0.4c0.5,0.5,0.6,1.2,0.5,2.2
			c0,0.1,0,0.2-0.1,0.3c0.4-0.1,0.8-0.2,1.4-0.1c0.4,0.1,0.8,0.3,1,0.6c0.2,0.2,0.4,0.4,0.5,0.8c0,0.1,0.1,0.3,0.1,0.5
			c0,1.3-1.3,2.2-2.6,2.4c-0.1,0-0.3,0-0.4,0.1c0.3,0.5,0.5,1,0.5,1.5c0,0.4-0.1,0.7-0.2,1.1c-0.3,0.6-0.9,1-1.5,1
			c-0.7,0-1.4-0.3-1.8-0.8c-0.1-0.1-0.2-0.3-0.3-0.5c-0.2,0.5-0.5,1-0.8,1.3C18.9,21,18.4,21.2,17.9,21.2z M17.4,19.7
			c0,0.1,0.1,0.3,0.2,0.3c0.3,0.2,0.7,0,0.9-0.2c0.2-0.2,0.5-0.7,0.6-1.1c0.2-0.5,0.3-1,0.3-1c0.1-0.2,0.3-0.4,0.5-0.4l0,0
			c0.2,0,0.5,0.2,0.5,0.4c0.1,0.4,0.5,1.2,0.7,1.4c0.2,0.3,0.6,0.4,0.8,0.4c0.2,0,0.5-0.2,0.6-0.4c0.1-0.2,0.1-0.4,0.1-0.6
			c0-0.4-0.1-0.7-0.4-1.1c-0.1-0.1-0.2-0.2-0.3-0.3c-0.1-0.1-0.2-0.2-0.3-0.3c-0.2-0.2-0.3-0.5-0.1-0.8c0.2-0.3,0.5-0.3,0.8-0.1l0,0
			c0,0,0.1,0,0.1,0c0.1,0,0.3,0,0.5,0c0.2,0,0.4,0,0.7-0.1c0.6-0.1,1.7-0.5,1.7-1.3c0-0.1,0-0.2,0-0.2c0-0.1-0.1-0.2-0.2-0.3
			c-0.1-0.1-0.4-0.3-0.5-0.3c-0.2-0.1-0.5,0-0.8,0.1c-0.5,0.2-1,0.4-1.4,0.7c-0.2,0.1-0.5,0.1-0.7-0.1c-0.2-0.2-0.2-0.5,0-0.7
			c0.4-0.4,0.7-1.1,0.8-1.4c0.1-0.7,0-1-0.2-1.2c-0.1-0.1-0.1-0.1-0.2-0.1c-0.1-0.1-0.1-0.1-0.3-0.1c-0.1,0-0.1,0-0.2,0
			c-0.1,0-0.1,0.1-0.2,0.1c-0.1,0.1-0.3,0.3-0.4,0.5c-0.1,0.2-0.2,0.4-0.3,0.6c-0.1,0.2-0.3,0.9-0.4,1.3c-0.1,0.3-0.3,0.5-0.6,0.4
			c-0.3-0.1-0.5-0.3-0.4-0.6l0-0.2c0-0.2-0.1-0.3-0.1-0.5c-0.1-0.3-0.1-0.4-0.2-0.6c-0.1-0.1-0.1-0.2-0.2-0.2
			c-0.1-0.2-0.3-0.3-0.5-0.4c-0.2-0.1-0.6-0.1-0.8,0c-0.3,0.3-0.4,0.6-0.3,1c0,0.2,0,0.3,0.1,0.5c0.2,0.5,0.4,1,0.8,1.4
			c0,0.1,0,0-0.1,0c0.2,0.1,0.4,0.4,0.3,0.7c-0.1,0.3-0.4,0.4-0.7,0.3c-0.3-0.1-0.6-0.1-0.9-0.2c-0.6-0.1-0.9,0-1.3,0.1
			c-0.1,0-0.1,0.1-0.2,0.1c-0.2,0.2-0.4,0.5-0.3,0.8c0.2,0.7,1.2,0.9,1.9,0.8c0.2,0,0.6-0.1,1.1-0.4c0.2-0.1,0.5-0.1,0.7,0.2
			c0.2,0.2,0.1,0.5,0,0.7c-0.2,0.2-0.5,0.6-0.7,1c-0.1,0.2-0.3,0.7-0.3,0.9c0,0.1,0,0.2,0,0.4C17.3,19.5,17.3,19.6,17.4,19.7z
			 M17.7,14L17.7,14L17.7,14z M17.7,14L17.7,14L17.7,14z"/>
	</g>
	<g>
		<path class="st2" d="M19.1,14.8c0.1-0.1,0.2-0.2,0.4-0.3c0.1,0,0.2-0.1,0.4-0.1c0.2,0,0.4,0.1,0.5,0.2c0.3,0.2,0.6,0.5,0.5,0.9
			c-0.1,0.4-0.3,0.7-0.6,0.9c-0.3,0.2-0.6,0.2-0.9,0.1c-0.3-0.1-0.4-0.4-0.5-0.7C18.8,15.5,18.9,15.1,19.1,14.8z"/>
	</g>
	<g>
		<g>
			<path class="st1" d="M23.2,10.7c0.2-0.7,0.4-1.4,0.7-2.1c0.2-0.7,0.5-1.2,0.8-1.9c0.1-0.3,0.1-0.6-0.2-0.8
				c-0.2-0.1-0.6-0.1-0.8,0.2c-0.3,0.7-0.6,1.4-0.9,2.1c-0.3,0.7-0.5,1.4-0.7,2.2C22,11.1,23,11.4,23.2,10.7L23.2,10.7z"/>
		</g>
	</g>
	<g>
		<g>
			<path class="st4" d="M25.7,5.9c-0.2,0.2-0.4,0.3-0.7,0.3c-0.4,0-0.7,0-1-0.2c-0.5-0.3-0.7-0.9-0.6-1.4c0-0.3,0.2-0.5,0.4-0.7
				c0.1-0.1,0.2-0.2,0.4-0.2c0.6-0.2,1.3,0.1,1.7,0.6C26.1,4.8,26.1,5.4,25.7,5.9z"/>
		</g>
		<g>
			<g>
				<path class="st1" d="M25.3,5.6C25.3,5.6,25.2,5.6,25.3,5.6L25.3,5.6C25.2,5.7,25.2,5.7,25.3,5.6c-0.1,0.1-0.2,0.1-0.2,0.1
					c-0.1,0.1,0.1,0,0,0c0,0,0,0-0.1,0c-0.1,0,0,0,0,0c0,0-0.1,0-0.1,0c-0.1,0-0.1,0-0.2,0c0,0-0.1,0-0.1,0c0.1,0,0.1,0,0,0
					c-0.1,0-0.1,0-0.2-0.1c-0.1,0,0,0,0,0c0,0-0.1,0-0.1-0.1c0,0-0.1-0.1-0.2-0.1c0,0,0.1,0.1,0,0c0,0,0,0-0.1,0
					c0,0-0.1-0.1-0.1-0.1c0,0,0.1,0.1,0,0c0,0,0-0.1-0.1-0.1c0,0,0-0.1,0-0.1c0,0,0,0,0,0c0,0,0,0,0,0c0,0,0-0.1,0-0.1
					c0,0,0-0.1,0-0.1c0-0.1,0,0,0,0c0,0,0-0.2,0-0.2c0,0,0-0.1,0,0c0,0.1,0,0,0,0c0,0,0,0,0-0.1c0-0.1,0,0,0,0c0,0,0.1-0.1,0.1-0.2
					c0-0.1,0,0,0,0c0,0,0.1-0.1,0.1-0.1c0,0,0.1-0.1,0,0c-0.1,0.1,0,0,0,0c0,0,0.1-0.1,0.1-0.1c-0.1,0,0,0,0,0c0,0,0.1,0,0.1,0
					c0,0,0,0,0.1,0c-0.1,0-0.1,0-0.1,0c0,0,0,0,0,0c0.1,0,0.1,0,0.2,0c0,0,0,0,0.1,0c-0.1,0-0.1,0,0,0c0.1,0,0.1,0,0.2,0
					c0,0,0,0,0.1,0c0,0,0.1,0.1,0,0c0.1,0.1,0.2,0.1,0.3,0.2c0.1,0.1-0.1-0.1,0,0c0,0,0,0,0.1,0.1c0,0,0.1,0.1,0.1,0.1
					c0.1,0.1,0,0,0,0s0,0.1,0.1,0.1c0,0,0,0,0,0.1c0,0,0,0,0,0c0,0,0,0,0,0.1c0,0.1,0,0.1,0,0.2c0-0.1,0-0.1,0,0c0,0,0,0.1,0,0.1
					c0,0,0,0,0,0c0,0,0,0,0,0c0-0.1,0-0.1,0,0c0,0,0,0,0,0.1c0,0.1,0,0.2-0.1,0.2c0.1-0.1,0,0,0,0C25.4,5.4,25.4,5.4,25.3,5.6
					c0,0,0,0.1-0.1,0.1c-0.1,0.1-0.1,0.3-0.1,0.4c0,0.1,0.1,0.3,0.2,0.3c0.3,0.2,0.6,0.1,0.8-0.2c0.5-0.6,0.6-1.5,0.2-2.1
					c-0.3-0.6-1-1-1.7-1c-0.8,0-1.5,0.5-1.7,1.3s0.2,1.5,0.8,2c0.3,0.2,0.8,0.4,1.2,0.4c0.5,0,0.9-0.2,1.2-0.5
					c0.2-0.2,0.2-0.6,0-0.8C25.8,5.4,25.5,5.3,25.3,5.6z"/>
			</g>
		</g>
	</g>
	<g>
		<g>
			<path class="st1" d="M23.6,9.3c1,0.1,2,0,2.9-0.3c0.3-0.1,0.5-0.4,0.4-0.7c-0.1-0.3-0.4-0.5-0.7-0.4C26,8,25.8,8.1,25.5,8.1
				c-0.1,0-0.2,0-0.3,0.1c-0.1,0-0.1,0-0.2,0c-0.1,0,0.1,0-0.1,0c-0.5,0.1-0.9,0.1-1.4,0c-0.3,0-0.6,0.3-0.5,0.6
				C23.1,9.1,23.3,9.3,23.6,9.3L23.6,9.3z"/>
		</g>
	</g>
	<g>
		<g>
			<path class="st4" d="M27,7.3c-0.1,0.2-0.1,0.4-0.1,0.6c0,0.4,0.1,0.8,0.3,1.1c0.2,0.2,0.7,0.3,1,0.2c0.4-0.1,0.7-0.3,0.9-0.7
				c0.2-0.3,0.2-0.8,0-1.1C28.7,6.6,27.4,6.5,27,7.3z"/>
		</g>
		<g>
			<g>
				<path class="st1" d="M26.5,7.2c-0.2,0.4-0.2,0.8-0.1,1.2c0.1,0.3,0.2,0.7,0.5,1c0.6,0.5,1.5,0.4,2.1,0c0.7-0.5,0.9-1.4,0.5-2.2
					c-0.3-0.5-0.8-0.8-1.4-0.9c-0.7-0.1-1.4,0.2-1.7,0.8c-0.1,0.1-0.1,0.3-0.1,0.4c0,0.1,0.1,0.3,0.3,0.3c0.2,0.1,0.6,0.1,0.8-0.2
					c0-0.1,0-0.1,0.1-0.1c0,0,0,0,0-0.1c-0.1,0.1-0.1,0.1,0,0.1s0.1-0.1,0.1-0.1c0.1-0.1-0.1,0.1,0,0c0,0,0,0,0.1,0c0,0,0.2-0.1,0,0
					c0,0,0.1,0,0.1,0c0,0,0.1,0,0.1,0c-0.2,0,0,0,0,0c0,0,0.1,0,0.1,0c0.1,0-0.1,0,0,0c0,0,0,0,0.1,0c0,0,0.1,0,0.1,0c0,0,0,0,0.1,0
					c0.1,0.1-0.1-0.1,0,0s0.1,0.1,0.2,0.1c0.1,0.1-0.1,0,0,0s0,0,0,0.1c0,0,0.1,0.1,0.1,0.1c-0.1-0.1,0-0.1,0,0c0,0,0,0.1,0,0.1
					c0.1,0.1,0-0.1,0,0c0,0,0,0.2,0,0.2c0,0,0-0.1,0-0.1c0,0,0,0.1,0,0.1c0,0.1,0,0.1,0,0.1c0,0,0,0,0,0c0,0,0,0,0,0c0,0,0,0,0,0
					c0,0,0,0.1,0,0.1c0,0,0,0.1,0,0.1c0,0,0,0,0,0c0,0.1,0,0,0,0c0,0-0.1,0.1-0.1,0.2c0,0,0,0.1,0,0.1c0,0.1,0,0,0,0c0,0,0,0,0,0
					c0,0-0.1,0.1-0.1,0.1c-0.1,0.1,0.1-0.1,0,0c0,0,0,0-0.1,0c0,0-0.1,0.1-0.1,0.1c0.1-0.1,0,0,0,0c0,0-0.1,0-0.1,0c0,0-0.1,0-0.1,0
					c0,0,0.1,0,0.1,0c-0.1,0-0.1,0-0.2,0c0,0-0.1,0,0,0c0,0,0,0-0.1,0c0,0-0.1,0-0.1,0c0,0,0,0-0.1,0c0,0,0,0,0,0c0,0,0,0-0.1,0
					c0,0,0,0,0,0c0,0,0,0,0,0c0,0,0,0-0.1-0.1c0,0,0,0,0,0c0,0,0,0,0-0.1c0,0,0-0.1,0-0.1c0,0,0-0.1,0-0.1c0,0,0,0,0,0.1
					c0,0,0,0,0-0.1c0,0,0-0.1,0-0.1c0,0,0,0,0-0.1c0,0,0-0.1,0-0.1c0,0.1,0,0.1,0,0c0-0.1,0-0.2,0-0.2c0,0,0-0.1,0-0.1
					c0,0,0-0.1,0-0.1c0,0.1,0,0.1,0,0c0-0.1,0-0.2,0.1-0.3c0-0.1,0-0.3-0.1-0.4c-0.1-0.1-0.2-0.2-0.3-0.2c-0.1,0-0.3,0-0.4,0.1
					C26.6,6.9,26.5,7.1,26.5,7.2z"/>
			</g>
		</g>
	</g>
</g>
</svg>
