<?xml version="1.0" encoding="utf-8"?>
<!-- Generator: Adobe Illustrator 26.0.2, SVG Export Plug-In . SVG Version: 6.00 Build 0)  -->
<svg version="1.1" id="레이어_1" xmlns="http://www.w3.org/2000/svg" xmlns:xlink="http://www.w3.org/1999/xlink" x="0px"
	 y="0px" viewBox="0 0 40 40" style="enable-background:new 0 0 40 40;" xml:space="preserve">
<style type="text/css">
	.st0{fill:#EDBBB1;}
	.st1{fill:#282828;}
	.st2{fill:#FFB1CF;}
	.st3{fill:#FFFFC5;}
</style>
<g>
	<g>
		<g>
			<path class="st0" d="M11.4,20.6c1.2,3.2,2.7,7.6,2.4,11.4c0,0.2,0.2,0.6,0.4,0.7c0.4,0,1.1,0.1,1.3,0.1c3.7,0.1,4.9,0.1,9.2,0
				c0.3-4.1,1.5-8.7,3.2-12.5"/>
		</g>
		<g>
			<g>
				<path class="st1" d="M10.9,20.7c0.8,2.1,1.5,4.2,2,6.4c0.2,1.2,0.4,2.4,0.5,3.6c0,0.7-0.2,1.8,0.5,2.3c0.6,0.3,1.6,0.3,2.2,0.3
					c0.9,0,1.9,0,2.9,0.1c2,0,3.9,0,5.9,0c0.3,0,0.5-0.2,0.5-0.5c0.4-4.2,1.5-8.4,3.2-12.2c0.3-0.6-0.7-1.2-0.9-0.5
					c-1.8,4-2.9,8.4-3.3,12.8c0.2-0.2,0.4-0.4,0.5-0.5c-1.8,0-3.6,0.1-5.5,0c-0.8,0-1.5,0-2.3,0c-0.5,0-1,0-1.5,0
					c-0.2,0-0.8,0-1-0.1c-0.2-0.2-0.1-0.9-0.1-1.2c0-0.5,0-1-0.1-1.5c-0.1-1-0.3-2.1-0.5-3.1c-0.5-2-1.1-4-1.9-5.9
					C11.7,19.8,10.7,20.1,10.9,20.7L10.9,20.7z"/>
			</g>
		</g>
	</g>
	<g>
		<g>
			<path class="st0" d="M14.4,19.8c0.2-0.4,0-1-0.1-1.4c-0.1-0.6-0.2-1.1-0.2-1.6c0-0.5-0.1-1.1-0.1-1.6c0-1.6,0.4-3.2,1.3-4.4
				c0.6-0.7,1.3-1.2,2-1.6c2.4-1.2,5.5-0.7,7.2,1.6c0.6,0.8,1,1.7,1.2,2.7c0.1,0.5,0.2,1.1,0.3,1.6c0,0.3,0,0.6,0.1,0.8
				c0.1,1.2-0.1,1.9-0.3,3.1c-0.1,0.3-0.1,0.9,0.3,0.9c1.1,0,1.3-1.9,1.4-2.7c0-0.5,0.1-0.6,0.1-1.1c0-2.4-0.5-4.7-1.9-6.5
				c-2.1-2.6-5.9-3.1-8.9-1.8c-0.9,0.4-1.8,1-2.5,1.8c-1.1,1.3-1.6,3.2-1.6,5c0,0.6,0,1.2,0.1,1.7c0.1,0.5,0.1,1,0.2,1.5
				c0.1,0.5,0.2,1.1,0.3,1.6C13.3,19.9,14,20.4,14.4,19.8z"/>
		</g>
		<g>
			<g>
				<path class="st1" d="M14.9,20c0.2-0.5,0.1-0.9,0-1.4c-0.1-0.8-0.3-1.5-0.3-2.3c-0.1-1.4,0-2.8,0.6-4c0.9-2.2,3.5-3.5,5.9-3.1
					c2.5,0.4,4,2.6,4.4,5c0.2,1.3,0.3,2.7,0,4c-0.1,0.7-0.6,2,0.4,2.3c0.8,0.3,1.4-0.4,1.7-1c0.3-0.8,0.4-1.6,0.5-2.4
					c0.3-2.2-0.2-4.8-1.3-6.7c-2.2-3.9-7.5-4.8-11.2-2.5c-2.4,1.5-3.4,4.2-3.4,6.9c0,1.5,0.1,3.1,0.5,4.6c0.2,1,1.3,1.9,2.2,0.9
					c0.5-0.5-0.3-1.3-0.8-0.8c-0.2,0.2-0.5-1.2-0.5-1.4c-0.1-0.6-0.2-1.2-0.2-1.9c-0.1-1.2-0.1-2.4,0.2-3.6c0.6-2.3,2.2-3.9,4.4-4.6
					c1.9-0.6,4-0.4,5.7,0.6c1.9,1.1,2.9,3.1,3.3,5.2c0.2,1,0.3,2.1,0.2,3.1c-0.1,0.7-0.1,1.5-0.4,2.1c-0.1,0.2-0.2,0.3-0.3,0.4
					c0.1-0.1,0.1,0.2,0.1,0c0-0.1,0-0.1,0-0.2c0.1-0.5,0.2-1.1,0.3-1.6c0.1-1.1,0.1-2.2-0.1-3.3c-0.3-1.9-1.1-3.8-2.8-5.1
					c-1.4-1.1-3.3-1.4-5-1.1c-2.2,0.4-3.9,1.9-4.7,4c-0.4,1.2-0.6,2.5-0.5,3.8c0,0.6,0.1,1.3,0.2,1.9c0.1,0.6,0.4,1.4,0.2,1.9
					C13.6,20.4,14.7,20.6,14.9,20z"/>
			</g>
		</g>
	</g>
	<g>
		<g>
			<path class="st2" d="M25.4,17.3c-1,0-1.5-0.4-2.3-1.1c-0.5-0.5-0.8-1.3-0.5-1.8c0.3-0.4,1.2-0.6,1.7-0.4c0.9,0.2,1.6,0.6,2.3,1.4
				c0.1-0.6,0-0.9,0.2-1.5c0.1-0.3,0.3-0.8,0.6-1c0.2-0.3,0.7-0.4,1.1-0.4c0.5,0,0.8,0.6,0.9,1.1s0,1.1-0.1,1.6s-0.3,0.8-0.6,1.3
				c0.6-0.1,0.8-0.1,1.3-0.1c0.6,0,1.2,0.1,1.6,0.6s0.6,1.1,0.2,1.6c-0.2,0.2-0.4,0.3-0.6,0.4c-0.9,0.3-1.7,0.1-2.6-0.3
				c0.5,0.7,0.7,1.6,0.9,2.4c0.1,0.8-0.2,1.6-1,1.8c-0.7,0.2-1.4-0.5-1.7-1.1c-0.3-0.7-0.3-1.4-0.3-2.3c-0.7,0.8-1.6,1-2.1,1.1
				c-0.2,0-1.3,0-1.6-0.1c-0.4-0.2-0.5-0.6-0.5-1s0.3-0.7,0.6-1C23.7,17.8,24.3,17.3,25.4,17.3z"/>
		</g>
		<g>
			<g>
				<path class="st1" d="M25.4,16.7c-0.6,0-1.1-0.2-1.6-0.6c-0.3-0.3-1.1-1.1-0.6-1.5c0.4-0.3,1.1-0.1,1.5,0
					c0.6,0.2,1.2,0.6,1.6,1.2c0.3,0.4,0.9,0,0.9-0.4c0-0.6,0.1-1.1,0.3-1.6c0.2-0.3,0.6-1,1.1-0.7c0.4,0.3,0.4,1.2,0.2,1.6
					c-0.1,0.5-0.4,1.1-0.6,1.6c-0.2,0.4,0.1,0.9,0.6,0.8c0.8-0.1,2.3-0.2,2.6,0.7c0.2,0.5-0.3,0.8-0.8,0.9c-0.6,0.1-1.3-0.1-1.8-0.3
					c-0.4-0.2-1.1,0.2-0.7,0.7c0.4,0.6,0.6,1.2,0.7,1.9c0.1,0.5,0.1,1.2-0.4,1.4c-0.6,0.3-1.1-0.3-1.3-0.8c-0.3-0.6-0.2-1.4-0.2-2.1
					c0-0.5-0.6-0.7-0.9-0.4c-0.5,0.5-1,0.8-1.7,0.9c-0.4,0.1-1,0.1-1.3,0c-0.7-0.3,0.2-1.2,0.5-1.4c0.6-0.5,1.1-0.8,1.9-0.8
					C26.1,17.8,26.1,16.7,25.4,16.7c-1.1,0-2,0.5-2.8,1.3c-0.8,0.7-1.4,1.8-0.5,2.7c0.5,0.6,1.5,0.5,2.2,0.4c1-0.1,1.9-0.6,2.5-1.3
					c-0.3-0.1-0.6-0.3-0.9-0.4c0,1,0,2.1,0.5,2.9c0.5,0.8,1.4,1.3,2.4,1c2-0.8,1.2-3.7,0.3-5c-0.2,0.2-0.5,0.5-0.7,0.7
					c0.9,0.4,1.9,0.7,2.9,0.4c0.8-0.2,1.5-0.8,1.4-1.7c-0.1-2-2.5-2.1-4-1.9c0.2,0.3,0.4,0.5,0.6,0.8c0.4-0.8,0.8-1.7,0.9-2.6
					c0-0.8-0.3-1.9-1.1-2.2c-0.7-0.3-1.6,0.1-2.1,0.7c-0.6,0.8-0.7,1.7-0.8,2.7c0.3-0.1,0.6-0.3,0.9-0.4c-0.6-0.8-1.5-1.4-2.5-1.6
					c-0.8-0.2-1.8-0.1-2.3,0.7c-0.5,0.8,0,1.9,0.6,2.5c0.7,0.7,1.5,1.1,2.6,1.2C26.1,17.9,26.1,16.8,25.4,16.7z"/>
			</g>
		</g>
	</g>
	<g>
		<path class="st3" d="M27,16.5c-0.1,0.1-0.2,0.1-0.3,0.2c-0.2,0.2-0.2,0.4-0.2,0.6c0,0.3,0.1,0.6,0.3,0.9c0.1,0.1,0.1,0.1,0.2,0.2
			c0.1,0.1,0.3,0.1,0.4,0c0.2,0,0.4-0.1,0.5-0.2c0.5-0.4,0.4-1.4-0.2-1.7c0,0-0.1,0-0.1,0c-0.1,0-0.1,0-0.2,0
			C27.2,16.5,27.1,16.5,27,16.5z"/>
	</g>
	<g>
		<path class="st2" d="M17.5,25.1c0-0.1,0-0.3,0-0.4c0-0.1,0.1-0.3,0.1-0.4c0.1-0.2,0.4-0.6,0.5-0.8c0.2-0.3,0.7-0.6,0.9-0.7
			c-0.5,0.1-0.9,0.1-1.1,0.1c-0.8-0.1-1.9-0.6-1.9-1.5c0-0.4,0.3-0.8,0.7-1c0.1,0,0.2-0.1,0.3-0.1c0.5-0.1,0.9,0,1.4,0.2
			c0.3,0.1,0.5,0.2,0.8,0.4c0,0,0-0.1,0-0.1c-0.2-0.4-0.3-1-0.4-1.4c0-0.2,0-0.4,0-0.6c0.1-0.4,0.3-0.8,0.6-1c0,0,0.1-0.1,0.1-0.1
			c0.4-0.1,0.8,0,1.1,0.2c0.2,0.1,0.3,0.3,0.4,0.5c0.1,0.1,0.1,0.2,0.1,0.3c0.1,0.2,0.1,0.5,0.1,0.7c0,0.1,0,0.3,0,0.4
			c0,0.1,0,0.1,0,0.2c0,0,0,0.1,0,0.2c0.2-0.3,0.5-0.8,0.6-1c0.1-0.2,0.3-0.4,0.4-0.5c0.2-0.2,0.4-0.3,0.6-0.4
			c0.1-0.1,0.2-0.1,0.3-0.1c0.2,0,0.3,0,0.4,0c0.2,0.1,0.2,0.1,0.4,0.2c0.1,0.1,0.2,0.2,0.2,0.3c0.3,0.5,0.1,1-0.1,1.5
			c-0.1,0.3-0.7,0.9-1.1,1.2c0.4-0.1,0.9-0.2,1.4-0.3c0.4,0,0.7,0,1,0.2c0.2,0.1,0.4,0.3,0.6,0.5c0.1,0.2,0.2,0.4,0.2,0.6
			c0,0.1,0,0.2,0,0.3c-0.2,0.9-1.3,1.1-2.2,1.1c-0.3,0-0.5-0.1-0.8-0.1c-0.1,0-0.2-0.1-0.3-0.1c-0.1,0-0.2-0.1-0.3-0.1
			c0.1,0.1,0.2,0.3,0.3,0.4c0.1,0.1,0.1,0.3,0.2,0.4c0.2,0.4,0.2,0.8,0.1,1.3c-0.1,0.2-0.2,0.5-0.3,0.6c-0.2,0.3-0.6,0.4-1,0.4
			c-0.4-0.1-0.8-0.4-1-0.8c-0.1-0.3-0.3-1.1-0.3-1.5c0,0-0.3,0.5-0.5,0.8c-0.2,0.3-0.6,0.7-0.9,0.9c-0.4,0.2-1,0.2-1.3-0.1
			C17.6,25.5,17.6,25.3,17.5,25.1z"/>
		<path class="st1" d="M22,26.9c-0.1,0-0.2,0-0.2,0c-0.6-0.1-1.1-0.5-1.4-1.1c0-0.1-0.1-0.2-0.1-0.3c-0.2,0.3-0.6,0.6-0.9,0.8
			c-0.6,0.4-1.4,0.3-2-0.1c-0.3-0.2-0.4-0.6-0.5-1c0,0,0,0,0,0c0-0.2,0-0.3,0-0.5c0-0.1,0.1-0.3,0.1-0.5c0.1-0.2,0.3-0.5,0.4-0.8
			c-1-0.2-2.1-0.9-2-2c0-0.6,0.4-1.2,1-1.5c0.1-0.1,0.3-0.1,0.4-0.2c0.5-0.1,0.9,0,1.3,0.1c0-0.2-0.1-0.4-0.1-0.5c0-0.2,0-0.5,0-0.7
			c0.1-0.6,0.4-1.1,0.9-1.4c0.1,0,0.1-0.1,0.2-0.1c0.6-0.2,1.2-0.1,1.7,0.3c0.2,0.2,0.5,0.5,0.6,0.8c0,0.1,0.1,0.2,0.1,0.3
			c0.1-0.1,0.1-0.1,0.2-0.2c0.2-0.2,0.5-0.4,0.8-0.5c0.1-0.1,0.3-0.1,0.5-0.1c0.3,0,0.5,0,0.7,0.1c0.2,0.1,0.4,0.1,0.5,0.3
			c0.1,0.1,0.2,0.3,0.3,0.4c0.5,0.8,0,1.7-0.1,2c0,0,0,0.1-0.1,0.1c0.3,0,0.7,0,1.1,0.2c0.3,0.2,0.6,0.4,0.8,0.7
			c0.2,0.3,0.3,0.5,0.3,0.8c0,0.2,0,0.3-0.1,0.5c-0.3,1.1-1.6,1.6-2.7,1.5c-0.1,0-0.2,0-0.2,0c0.1,0.4,0.1,0.9,0,1.3
			c-0.1,0.3-0.2,0.6-0.5,0.9C23,26.7,22.5,26.9,22,26.9z M20.6,23.5c0,0,0.1,0,0.1,0c0.2,0.1,0.4,0.3,0.4,0.5c0,0.3,0.2,1,0.3,1.2
			c0.1,0.2,0.4,0.4,0.5,0.5c0.2,0,0.4-0.1,0.5-0.2c0.1-0.1,0.2-0.2,0.2-0.4c0.1-0.3,0-0.6-0.1-0.9c0-0.1-0.1-0.2-0.2-0.4
			c0-0.1-0.1-0.2-0.2-0.3c-0.2-0.2-0.2-0.6,0-0.8c0.2-0.2,0.6-0.2,0.8,0c0.2,0,0.3,0.1,0.4,0.1c0.2,0.1,0.4,0.1,0.6,0.1
			c0.5,0,1.4,0,1.6-0.7c0-0.1,0-0.1,0-0.2c0,0,0-0.1-0.1-0.3c-0.1-0.1-0.2-0.3-0.4-0.4c-0.2-0.1-0.4-0.1-0.7-0.1
			c-0.4,0-0.9,0.1-1.3,0.3c-0.3,0.1-0.5-0.1-0.6-0.3c-0.1-0.2,0-0.5,0.2-0.7c0.4-0.3,0.8-0.8,0.9-1c0.3-0.5,0.2-0.8,0.1-0.9
			c0,0-0.1-0.1-0.1-0.2c0,0,0,0-0.2-0.1c-0.1,0-0.1,0-0.2,0c0,0-0.1,0-0.2,0.1c-0.1,0-0.3,0.1-0.4,0.3c-0.1,0.1-0.3,0.3-0.4,0.4
			c-0.1,0.2-0.4,0.6-0.6,0.9c-0.1,0.3-0.5,0.4-0.7,0.2c-0.3-0.1-0.4-0.4-0.3-0.7v-0.2c0-0.1,0-0.3,0-0.4c0-0.2,0-0.4,0-0.5
			c0-0.1-0.1-0.1-0.1-0.2c-0.1-0.1-0.2-0.3-0.3-0.4c-0.1-0.1-0.4-0.2-0.6-0.1c-0.2,0.1-0.4,0.4-0.4,0.7c0,0.1,0,0.3,0,0.4
			c0,0.4,0.1,0.9,0.3,1.3c0,0,0,0-0.1-0.1c0.2,0.2,0.2,0.5,0.1,0.7c-0.2,0.2-0.5,0.3-0.7,0.1c-0.2-0.1-0.4-0.2-0.7-0.3
			c-0.4-0.2-0.7-0.2-1-0.1c-0.1,0-0.1,0-0.2,0.1c-0.2,0.1-0.4,0.3-0.4,0.5c0,0.5,0.8,0.9,1.4,1c0.1,0,0.5,0,0.9-0.1
			c0.3-0.1,0.5,0.1,0.6,0.3s0,0.5-0.2,0.7c-0.2,0.1-0.6,0.4-0.8,0.6c-0.1,0.1-0.4,0.5-0.4,0.6c0,0.1-0.1,0.2-0.1,0.3
			c0,0.1,0,0.2,0,0.3c0,0.1,0,0.2,0.1,0.3c0.2,0.2,0.5,0.1,0.7,0c0.2-0.1,0.6-0.5,0.8-0.7c0.2-0.4,0.5-0.8,0.5-0.8
			C20.2,23.6,20.4,23.5,20.6,23.5z M19.6,20.3L19.6,20.3L19.6,20.3z M19.6,20.3L19.6,20.3L19.6,20.3z"/>
	</g>
	<g>
		<path class="st3" d="M20.5,21.4c0.1-0.1,0.2-0.1,0.4-0.2c0.1,0,0.2,0,0.3,0c0.2,0.1,0.3,0.1,0.4,0.3c0.2,0.2,0.4,0.6,0.2,0.9
			c-0.1,0.3-0.4,0.5-0.7,0.6c-0.3,0.1-0.6,0-0.8-0.1c-0.2-0.2-0.2-0.4-0.2-0.7C20.1,21.9,20.2,21.6,20.5,21.4z"/>
	</g>
	<g>
		<path class="st2" d="M9.6,21.9c0-0.1,0-0.3,0-0.4c0-0.1,0.1-0.3,0.1-0.4c0.1-0.2,0.3-0.7,0.5-0.9c0.3-0.3,0.7-0.7,0.9-0.8
			c-0.5,0.1-1,0.1-1.2,0.1c-0.8,0-2-0.5-2-1.5c0-0.5,0.3-0.9,0.7-1.1c0.1-0.1,0.2-0.1,0.3-0.1c0.5-0.1,0.9,0,1.5,0.1
			c0.3,0.1,0.6,0.2,0.8,0.4c0,0-0.1-0.1-0.1-0.1c-0.2-0.5-0.4-1-0.4-1.5c0-0.2,0-0.4,0-0.6c0.1-0.4,0.3-0.9,0.7-1.1
			c0.1,0,0.1-0.1,0.1-0.1c0.4-0.2,0.9,0,1.2,0.2c0.2,0.2,0.4,0.3,0.5,0.6c0.1,0.1,0.1,0.2,0.1,0.4c0.1,0.2,0.1,0.5,0.1,0.7
			c0,0.1,0,0.3,0,0.4c0,0.1,0,0.1,0,0.2c0,0.1,0,0.2,0,0.2c0.2-0.4,0.5-0.9,0.6-1.1c0.1-0.2,0.3-0.4,0.4-0.6
			c0.2-0.2,0.4-0.3,0.6-0.4c0.1-0.1,0.2-0.1,0.4-0.1c0.2,0,0.3,0,0.5,0c0.2,0.1,0.3,0.1,0.4,0.2c0.1,0.1,0.2,0.2,0.2,0.3
			c0.3,0.5,0.2,1.1-0.1,1.5c-0.1,0.3-0.7,1-1.1,1.3c0.5-0.1,1-0.3,1.4-0.4c0.4-0.1,0.7,0,1,0.1c0.2,0.1,0.5,0.3,0.6,0.6
			c0.1,0.2,0.2,0.4,0.2,0.6c0,0.1,0,0.2,0,0.4c-0.2,1-1.4,1.3-2.2,1.2c-0.3,0-0.6,0-0.8-0.1c-0.1,0-0.2-0.1-0.4-0.1
			c-0.1,0-0.2-0.1-0.3-0.1c0.1,0.2,0.2,0.3,0.3,0.4c0.1,0.1,0.2,0.3,0.2,0.4c0.2,0.4,0.3,0.9,0.2,1.3c-0.1,0.2-0.2,0.5-0.3,0.7
			c-0.3,0.3-0.7,0.5-1.1,0.4c-0.4,0-0.9-0.4-1.1-0.8c-0.1-0.3-0.4-1.1-0.4-1.6c0,0-0.3,0.5-0.5,0.9c-0.2,0.3-0.6,0.8-0.9,1
			c-0.4,0.3-1,0.3-1.4,0C9.8,22.4,9.7,22.2,9.6,21.9z"/>
		<path class="st1" d="M14.4,23.7c-0.1,0-0.1,0-0.2,0c-0.7-0.1-1.2-0.6-1.5-1.1c-0.1-0.1-0.1-0.2-0.2-0.4c-0.3,0.3-0.6,0.7-0.9,0.9
			c-0.7,0.4-1.5,0.4-2-0.1c-0.3-0.2-0.5-0.6-0.5-1c0-0.2,0-0.4,0-0.5c0-0.2,0.1-0.4,0.1-0.5c0.1-0.2,0.3-0.6,0.5-0.9
			c-1.1-0.1-2.2-0.9-2.3-2c0-0.6,0.4-1.2,1-1.6c0.1-0.1,0.3-0.1,0.5-0.2c0.5-0.1,0.9-0.1,1.4,0c-0.1-0.2-0.1-0.4-0.1-0.6
			c0-0.2,0-0.5,0-0.8c0.1-0.6,0.4-1.2,0.9-1.5c0.1,0,0.1-0.1,0.2-0.1c0.5-0.2,1.2-0.1,1.7,0.2c0.3,0.2,0.5,0.4,0.6,0.8
			c0.1,0.1,0.1,0.3,0.2,0.4c0.1-0.1,0.2-0.2,0.2-0.3c0.2-0.2,0.5-0.4,0.8-0.6c0.1-0.1,0.3-0.1,0.5-0.1c0.3,0,0.5,0,0.7,0.1
			c0.2,0.1,0.4,0.1,0.6,0.3c0.1,0.1,0.2,0.2,0.4,0.4c0.4,0.6,0.4,1.3,0,2.1c0,0.1-0.1,0.1-0.1,0.2c0.4,0,0.8,0,1.2,0.2
			c0.3,0.2,0.6,0.4,0.8,0.8c0.2,0.3,0.3,0.6,0.3,0.8c0,0.2,0,0.4,0,0.5c-0.3,1.2-1.6,1.8-2.8,1.6c-0.1,0-0.2,0-0.3,0
			c0.2,0.5,0.2,0.9,0.1,1.4c-0.1,0.3-0.2,0.6-0.4,0.9C15.4,23.4,14.9,23.7,14.4,23.7z M12.8,20.2c0,0,0.1,0,0.1,0
			c0.2,0,0.4,0.3,0.4,0.5c0,0.3,0.2,1.1,0.4,1.3c0.1,0.2,0.4,0.5,0.6,0.5c0.2,0.1,0.5-0.1,0.6-0.2c0.1-0.1,0.2-0.3,0.2-0.4
			c0.1-0.3,0-0.6-0.1-1c-0.1-0.1-0.1-0.2-0.2-0.4c-0.1-0.1-0.1-0.2-0.2-0.3c0,0,0,0,0,0c-0.2-0.2-0.2-0.6,0-0.8
			c0.2-0.2,0.6-0.2,0.8,0l0,0c0.2,0,0.3,0.1,0.4,0.1c0.3,0.1,0.5,0.1,0.8,0.1c0.5,0,1.5-0.2,1.6-0.8c0-0.1,0-0.1,0-0.2
			c0,0,0-0.1-0.1-0.3c-0.1-0.1-0.2-0.3-0.4-0.4c-0.2-0.1-0.4-0.1-0.7-0.1c-0.5,0.1-0.9,0.2-1.3,0.3c-0.3,0.1-0.5,0-0.7-0.3
			c-0.1-0.2-0.1-0.5,0.2-0.7c0.4-0.3,0.9-0.9,1-1.1c0.3-0.7,0.1-0.9,0.1-1c0-0.1-0.1-0.1-0.1-0.1c-0.1-0.1-0.1-0.1-0.2-0.1
			c-0.1,0-0.1,0-0.2,0c-0.1,0-0.1,0-0.2,0.1c-0.2,0-0.3,0.2-0.5,0.3c-0.1,0.1-0.3,0.3-0.4,0.5c-0.1,0.2-0.4,0.7-0.6,1
			c-0.1,0.3-0.4,0.4-0.7,0.3c-0.3-0.1-0.4-0.4-0.3-0.7l0-0.2l0-0.4c0-0.2,0-0.4-0.1-0.6c0-0.1-0.1-0.2-0.1-0.3
			c-0.1-0.1-0.2-0.3-0.3-0.4c-0.2-0.1-0.4-0.2-0.7-0.1c-0.3,0.2-0.4,0.4-0.5,0.8c0,0.2,0,0.3,0,0.4c0.1,0.5,0.2,1,0.4,1.4
			c0,0,0,0,0,0c0,0-0.1-0.1-0.2-0.1l0,0c0.2,0.1,0.3,0.5,0.2,0.7s-0.4,0.4-0.7,0.3c0,0-0.1,0-0.1,0h0c-0.2-0.1-0.5-0.2-0.7-0.3
			c-0.4-0.2-0.8-0.2-1.1-0.1c-0.1,0-0.1,0.1-0.2,0.1c-0.2,0.1-0.4,0.3-0.4,0.6c0,0.6,0.9,1,1.5,1c0.2,0,0.6,0,1-0.1
			c0.3-0.1,0.5,0.1,0.7,0.3c0.1,0.2,0,0.5-0.2,0.7c-0.2,0.1-0.6,0.4-0.8,0.7c-0.1,0.1-0.3,0.5-0.4,0.7c0,0.1-0.1,0.2-0.1,0.3
			c0,0.1,0,0.2,0,0.3v0c0,0.1,0,0.2,0.1,0.3c0.2,0.2,0.5,0.1,0.7,0c0.2-0.1,0.6-0.5,0.8-0.8c0.2-0.4,0.5-0.8,0.5-0.9
			C12.4,20.4,12.6,20.2,12.8,20.2z"/>
	</g>
	<g>
		<path class="st3" d="M12.6,17.9c0.1-0.1,0.2-0.2,0.4-0.2c0.1,0,0.2,0,0.3,0c0.2,0,0.3,0.1,0.5,0.3c0.3,0.2,0.4,0.6,0.2,0.9
			c-0.1,0.3-0.4,0.6-0.7,0.7c-0.3,0.1-0.6,0.1-0.8-0.1c-0.2-0.2-0.3-0.4-0.3-0.7C12.2,18.4,12.4,18.1,12.6,17.9z"/>
	</g>
</g>
</svg>
