<?xml version="1.0" encoding="utf-8"?>
<!-- Generator: Adobe Illustrator 26.0.2, SVG Export Plug-In . SVG Version: 6.00 Build 0)  -->
<svg version="1.1" id="레이어_1" xmlns="http://www.w3.org/2000/svg" xmlns:xlink="http://www.w3.org/1999/xlink" x="0px"
	 y="0px" viewBox="0 0 40 40" style="enable-background:new 0 0 40 40;" xml:space="preserve">
<style type="text/css">
	.st0{fill:#FFF2F7;}
	.st1{fill:#282828;}
	.st2{fill:#FFBBCF;}
	.st3{fill:#FFB1CF;}
	.st4{fill:#FFFFC5;}
</style>
<g>
	<g>
		<g>
			<path class="st0" d="M32,30.6c0.1-0.1,0.2-0.2,0.2-0.3c-0.4-0.2-1.4-1-1.9-1.7c-0.4-0.5-0.7-1.6-0.9-2.3c-0.2-0.7-0.2-1-0.5-2.2
				c-0.8,0.5-1.4,0.9-2.2,1.4c-0.9,0.5-1.9,0.8-2.8,1.3c0.9,0.8,1.9,2.1,2.3,3.3c0.3,0.9,0.3,2,0.4,2.9c0.7-0.2,1.2-1.5,2-1.8
				c0.8-0.4,1.6,0,2.4-0.2C31.2,30.9,31.7,30.8,32,30.6z"/>
		</g>
		<g>
			<g>
				<path class="st1" d="M32.3,30.9c0.1-0.1,0.2-0.2,0.3-0.4c0.1-0.2,0.1-0.6-0.2-0.8c-0.5-0.2-0.9-0.6-1.2-1c-0.5-0.5-0.7-1-1-1.6
					c-0.4-1-0.6-2.2-0.8-3.2c-0.1-0.3-0.5-0.5-0.8-0.3c-0.8,0.5-1.6,1-2.5,1.5c-0.8,0.4-1.7,0.7-2.5,1.2c-0.3,0.2-0.4,0.6-0.1,0.9
					c0.8,0.8,1.6,1.7,2,2.7c0.4,1,0.4,2.1,0.5,3.1c0,0.3,0.3,0.7,0.7,0.5c0.5-0.2,0.8-0.5,1.1-0.9c0.3-0.3,0.6-0.8,1-1
					c0.6-0.2,1.3,0,2-0.1C31.4,31.5,31.9,31.3,32.3,30.9c0.5-0.4-0.2-1.2-0.8-0.8c-0.4,0.3-1,0.4-1.5,0.4c-0.6,0-1.2-0.1-1.8,0.2
					c-0.4,0.2-0.7,0.5-1,0.9c-0.2,0.3-0.5,0.7-0.8,0.9c0.2,0.2,0.5,0.4,0.7,0.5c-0.1-1.2-0.1-2.4-0.6-3.5c-0.5-1.2-1.3-2.2-2.2-3.1
					c0,0.3-0.1,0.6-0.1,0.9c0.8-0.4,1.7-0.7,2.5-1.2c0.9-0.5,1.7-1,2.5-1.5c-0.3-0.1-0.5-0.2-0.8-0.3c0.2,1.2,0.5,2.5,0.9,3.6
					c0.3,0.6,0.6,1.1,1.1,1.6c0.4,0.4,0.9,0.9,1.5,1.1c-0.1-0.2-0.1-0.5-0.2-0.8c0,0.1-0.1,0.1-0.1,0.2
					C31.1,30.7,31.9,31.4,32.3,30.9z"/>
			</g>
		</g>
	</g>
	<g>
		<g>
			<path class="st0" d="M28.3,8.9c0.1-0.3,0.4-0.8,0.8-0.7c0.3,0.1,0.4,0.5,0.5,0.8c0,0.2,0,0.4,0.1,0.6c0,0.6-0.2,0.8-0.3,1.4
				c0,0.7-0.1,1.4-0.3,2.2c-0.2,1.4-0.4,2.1-0.5,3.4c0,0.6-0.1,1.6-0.1,2.3c0,0.2,0,0.7,0,0.9c0,0.1,0,0.3,0,0.4
				c-0.4,0.4-0.6,0.6-1,0.9c-1.1,0.9-2.4,1.6-3.7,2.2c-0.8,0.4-1.6,0.6-2.5,0.9c-0.1,0-0.5-0.3-0.6-0.4c-0.4-0.3-1.4-0.9-1.9-1
				c-1.1-0.4-1.6-0.5-2.7-0.9c-0.3-0.1-0.7-0.2-1-0.3c-0.5-0.1-0.9-0.4-1.3-0.7c-0.4-0.3-0.8-0.7-1.2-1.1c-0.2-0.3-0.4-0.6-0.6-1
				c2.1-1.3,3.4-2.4,5.6-3.6c2.4-1.4,4.8-2.8,7.2-4.3C26,10.2,27.1,9.6,28.3,8.9z"/>
		</g>
		<g>
			<g>
				<path class="st1" d="M28.8,9.2C29,8.8,29,8.8,29,9.4c0,0.3,0,0.5-0.1,0.8c-0.1,0.6-0.2,1.2-0.3,1.8c-0.2,1.4-0.5,2.7-0.6,4.1
					c-0.1,1.2-0.2,2.3-0.1,3.5c0,0.6-0.2,0.7-0.7,1.1c-0.6,0.5-1.2,1-1.9,1.4c-0.6,0.4-1.3,0.7-1.9,1c-0.4,0.1-0.7,0.3-1.1,0.4
					c-0.2,0.1-0.8,0.4-1,0.4c-0.3,0-0.8-0.5-1.1-0.7c-0.4-0.2-0.9-0.5-1.3-0.7c-1.1-0.4-2.3-0.8-3.5-1.1c-1.4-0.5-2.3-1.4-3-2.7
					c-0.1,0.2-0.1,0.5-0.2,0.8c2.6-1.6,5.1-3.3,7.7-4.9c2.9-1.7,5.7-3.4,8.6-5.1C29.2,9,28.6,8.1,28,8.4c-2.9,1.7-5.7,3.4-8.6,5.1
					c-2.6,1.6-5.1,3.3-7.7,4.9c-0.3,0.2-0.3,0.5-0.2,0.8c0.6,1.1,1.3,2,2.4,2.6c1,0.6,2.2,0.8,3.3,1.2c1.1,0.4,2.1,0.8,3.1,1.5
					c0.3,0.2,0.5,0.4,0.9,0.5c0.6,0,1.4-0.4,2-0.6c1.3-0.5,2.6-1.2,3.8-2.1c0.8-0.5,2-1.2,2-2.3c0-1.1,0-2.1,0-3.2
					c0.1-1.5,0.5-2.9,0.7-4.3c0.1-0.7,0.2-1.4,0.4-2.2c0.1-0.6,0-1.3-0.2-1.8c-0.6-1.1-1.6-0.6-2,0.3C27.5,9.2,28.4,9.8,28.8,9.2z"
					/>
			</g>
		</g>
	</g>
	<g>
		<g>
			<path class="st2" d="M29,24.1c-0.2-0.7-0.2-0.9-0.3-1.7c-0.1-0.8-0.1-1-0.2-2.3c0,0,0,0,0,0c-0.4,0.4-0.7,0.7-1.2,1.1
				c-1.1,0.9-2.4,1.6-3.7,2.2c-0.8,0.4-1.6,0.6-2.5,0.9c0.5,0.3,1,0.7,1.3,1c0.8,0.8,0.9,0.8,1.5,1.5c1-0.4,1.9-0.8,2.8-1.3
				C27.5,25.1,28.3,24.6,29,24.1z"/>
		</g>
		<g>
			<g>
				<path class="st1" d="M29.6,24c-0.2-0.7-0.3-1.3-0.4-2c0-0.2,0-0.5-0.1-0.7c0-0.2,0-0.3,0-0.5c0-0.1,0-0.2,0-0.3
					c0-0.1,0-0.5,0-0.2c0.1-0.5-0.5-0.9-0.9-0.5c-1,0.9-2,1.8-3.2,2.4c-1.2,0.7-2.5,1.2-3.9,1.6c-0.5,0.1-0.5,0.7-0.1,1
					c1,0.7,1.9,1.5,2.6,2.4c0.1,0.1,0.4,0.2,0.5,0.1c1.8-0.7,3.6-1.6,5.2-2.8c0.6-0.4,0-1.3-0.5-0.9c-1.6,1-3.2,1.9-5,2.6
					c0.2,0,0.4,0.1,0.5,0.1c-0.8-1-1.8-1.9-2.8-2.6c0,0.3-0.1,0.7-0.1,1c1.4-0.4,2.8-1,4.2-1.7c1.3-0.7,2.4-1.6,3.4-2.6
					c-0.3-0.2-0.6-0.4-0.9-0.5c-0.1,0.4,0,0.8,0,1.1c0,0.3,0,0.6,0.1,0.8c0.1,0.8,0.2,1.6,0.4,2.3C28.7,24.9,29.7,24.6,29.6,24z"/>
			</g>
		</g>
	</g>
	<g>
		<g>
			<path class="st2" d="M22.3,25.4c-1.6-0.5-3.3,0.3-4.5,1.6s-1.7,2.4-2.6,3.9s-2.1,2.9-3.7,3.5c0.8,0.6,1.2,0.9,2.2,1.3
				c0.2,0.1,0.3,0.2,0.5,0.2c0.2,0,0.3-0.1,0.4-0.2c1.2-0.9,1.9-2.1,2.7-3.5c0.6-1.2,1-2.6,1.7-3.7c0.7-1.2,1.9-2.1,3.2-1.9
				L22.3,25.4z"/>
		</g>
		<g>
			<g>
				<path class="st1" d="M22.5,24.9c-2.5-0.8-4.9,1.2-6.2,3.1c-1.4,2.1-2.4,4.9-5,5.8c-0.4,0.2-0.5,0.7-0.1,1c0.5,0.4,1,0.7,1.5,1
					c0.3,0.1,0.6,0.2,0.9,0.4c0.3,0.1,0.5,0.2,0.8,0.2c0.6-0.2,1.2-0.8,1.6-1.3c0.4-0.5,0.8-1,1.1-1.6c0.8-1.3,1.2-2.7,1.8-4
					c0.6-1.2,1.6-2.6,3.2-2.5c0.3,0,0.5-0.3,0.5-0.5c0-0.3,0.1-0.7,0.1-1c0.1-0.7-1-0.7-1.1,0c0,0.3-0.1,0.7-0.1,1
					c0.2-0.2,0.4-0.4,0.5-0.5c-3.1-0.3-4.2,3.3-5.2,5.5c-0.6,1.2-1.2,2.5-2.2,3.4c-0.1,0.1-0.3,0.2-0.4,0.3
					c-0.2,0.2-0.1,0.1-0.3,0.1c-0.3,0-0.6-0.2-0.9-0.4c-0.5-0.2-1-0.6-1.5-1c0,0.3-0.1,0.7-0.1,1c2.4-0.9,3.7-3.1,4.9-5.2
					c1.1-1.9,3.1-4.5,5.7-3.8C22.8,26.1,23.1,25.1,22.5,24.9z"/>
			</g>
		</g>
	</g>
	<g>
		<g>
			<path class="st2" d="M22.1,26.7c-1,1.2-1.3,2.5-1.2,4.3s0.4,3.5,0.2,5.2c1.1-0.5,1.8-1.5,2.6-2.5c-0.9-1.6-1.4-3.4-0.9-5.5
				c0.2-0.8,0.6-1.4,0.6-2.2c0-0.8,0.2-1.6-0.4-1.7L22.1,26.7z"/>
		</g>
		<g>
			<g>
				<path class="st1" d="M21.7,26.3c-2.4,2.9-0.8,6.5-1.2,9.9c-0.1,0.4,0.5,0.6,0.8,0.5c1.1-0.6,1.9-1.6,2.8-2.6
					c0.2-0.2,0.2-0.4,0.1-0.7c-1-1.8-1.4-3.7-0.7-5.6c0.4-1,1.3-3.6-0.3-4c-0.3-0.1-0.6,0.1-0.7,0.4c-0.3,0.8-0.6,1.6-0.9,2.4
					c-0.2,0.6,0.8,0.9,1,0.3c0.3-0.8,0.6-1.6,0.9-2.4c-0.2,0.1-0.4,0.2-0.7,0.4c0.3,0.1-0.1,1.8-0.2,2c-0.3,0.8-0.5,1.6-0.6,2.5
					c-0.1,1.7,0.4,3.3,1.2,4.7c0-0.2,0.1-0.4,0.1-0.7c-0.8,0.9-1.5,1.9-2.5,2.4c0.3,0.2,0.5,0.3,0.8,0.5c0.2-1.8-0.1-3.5-0.2-5.2
					c-0.1-1.4,0.1-2.8,1.1-3.9C22.9,26.6,22.2,25.8,21.7,26.3z"/>
			</g>
		</g>
	</g>
	<g>
		<g>
			<path class="st2" d="M22,23.9c-0.7,0.1-1.3,0.6-1.4,1.3c-0.1,0.6,0.2,1.3,0.7,1.8c0.2,0.2,0.4,0.4,0.7,0.5c0.7,0.2,1.5,0,1.9-0.6
				C24.9,25.6,23.5,23.8,22,23.9z"/>
		</g>
		<g>
			<g>
				<path class="st1" d="M22,23.4c-0.5,0.1-1,0.2-1.4,0.6c-0.4,0.4-0.6,0.8-0.6,1.3c0,1.1,0.8,2.2,1.7,2.6c0.9,0.4,2.1,0,2.6-0.8
					c0.5-0.7,0.4-1.7,0-2.4C24,23.9,23,23.3,22,23.4c-0.3,0-0.6,0.2-0.5,0.5c0,0.3,0.2,0.6,0.5,0.5c0.1,0,0.1,0,0.2,0
					c0,0,0.1,0,0.1,0c0,0-0.1,0,0,0c0.1,0,0.1,0,0.2,0c0,0,0.1,0,0.1,0c0.1,0-0.1,0,0,0c0.1,0.1,0.2,0.1,0.4,0.2c-0.1-0.1,0,0,0,0
					c0,0,0.1,0.1,0.1,0.1c0.1,0,0.1,0.1,0.2,0.2c0,0,0,0.1,0.1,0.1c-0.1-0.1,0,0,0,0c0,0.1,0.1,0.1,0.1,0.2c0,0,0,0.1,0,0.1
					c0,0,0.1,0.1,0,0c0-0.1,0,0,0,0c0,0,0,0.1,0,0.1c0,0.1,0,0.1,0,0.2c0-0.1,0,0.1,0,0.1c0,0.1,0,0.1,0,0.2c0-0.1,0,0,0,0
					c0,0,0,0.1,0,0.1c0,0,0,0,0,0.1c0-0.1,0,0,0,0c0,0-0.1,0.2-0.1,0.1c0,0.1-0.1,0.1-0.2,0.2c0,0,0,0-0.1,0.1c0.1-0.1,0,0-0.1,0
					c-0.1,0-0.1,0.1-0.2,0.1c0.1,0,0,0,0,0c0,0-0.1,0-0.1,0c0,0-0.1,0-0.1,0c0.1,0,0,0,0,0c-0.1,0-0.2,0-0.3,0c0.1,0,0,0,0,0
					c0,0-0.1,0-0.1,0c0,0-0.1,0-0.1,0c0.1,0-0.1,0-0.1,0c-0.1,0-0.2-0.1-0.2-0.1c0,0,0,0,0,0c-0.1,0-0.1-0.1-0.2-0.1
					c-0.2-0.2-0.4-0.5-0.5-0.8c0,0,0-0.1,0-0.2c0,0.1,0-0.1,0-0.1c0,0,0-0.1,0-0.1c0,0,0-0.1,0-0.1c0,0.1,0,0.1,0,0c0,0,0-0.1,0-0.1
					s0-0.1,0-0.1c0,0.1,0,0.1,0,0c0-0.1,0.1-0.1,0.1-0.2c-0.1,0.1,0,0,0,0c0,0,0.1-0.1,0.1-0.1c0,0,0.1-0.1,0,0c0,0,0.1,0,0.1-0.1
					c0,0,0.1,0,0.1-0.1c0,0,0,0,0,0c0,0,0.1,0,0.1,0s0.1,0,0.1,0c0,0,0.2,0,0.1,0c0.3,0,0.6-0.2,0.5-0.5
					C22.6,23.7,22.4,23.4,22,23.4z"/>
			</g>
		</g>
	</g>
	<g>
		<path class="st3" d="M15,13.3c-0.1-0.1-0.1-0.3-0.1-0.4c0-0.1-0.1-0.3-0.1-0.4c0-0.3,0.1-0.8,0.2-1c0.1-0.4,0.5-0.9,0.6-1.1
			c-0.4,0.3-0.8,0.5-1.1,0.5c-0.8,0.2-2.2,0.2-2.5-0.8c-0.2-0.5,0-1,0.3-1.3c0.1-0.1,0.2-0.2,0.3-0.2c0.4-0.3,0.9-0.4,1.5-0.4
			c0.3,0,0.6,0,0.9,0.1c0,0-0.1-0.1-0.1-0.1c-0.4-0.4-0.7-0.9-1-1.3c-0.1-0.2-0.2-0.4-0.2-0.6c-0.1-0.4,0-0.9,0.2-1.3
			c0-0.1,0.1-0.1,0.1-0.1c0.3-0.3,0.8-0.3,1.2-0.2C15.6,4.7,15.8,4.8,16,5c0.1,0.1,0.2,0.2,0.3,0.3c0.1,0.2,0.2,0.4,0.3,0.7
			c0.1,0.1,0.1,0.3,0.1,0.4c0,0.1,0,0.1,0.1,0.2c0,0.1,0.1,0.2,0.1,0.2c0-0.4,0.2-1.1,0.2-1.3c0.1-0.2,0.1-0.5,0.2-0.7
			c0.1-0.2,0.2-0.5,0.4-0.6C17.9,4,18,4,18.1,3.9c0.2-0.1,0.3-0.1,0.5-0.1c0.2,0,0.3,0,0.5,0.1c0.1,0,0.2,0.1,0.3,0.2
			c0.5,0.4,0.5,1,0.5,1.5c0,0.4-0.3,1.2-0.6,1.7c0.4-0.3,0.8-0.6,1.3-0.8c0.4-0.2,0.7-0.3,1.1-0.2c0.3,0,0.6,0.2,0.8,0.3
			c0.2,0.1,0.3,0.3,0.4,0.5c0,0.1,0.1,0.2,0.1,0.3c0.1,1-0.9,1.7-1.8,2c-0.3,0.1-0.6,0.1-0.8,0.2c-0.1,0-0.3,0-0.4,0
			c-0.1,0-0.3,0-0.4,0c0.2,0.1,0.3,0.2,0.4,0.3c0.1,0.1,0.2,0.2,0.4,0.3c0.3,0.3,0.6,0.7,0.6,1.2c0,0.3,0,0.5-0.1,0.8
			c-0.1,0.4-0.5,0.7-0.9,0.8c-0.4,0.1-1-0.1-1.3-0.4c-0.2-0.2-0.8-0.9-0.9-1.3c0,0-0.1,0.6-0.2,1.1c-0.1,0.4-0.4,1-0.6,1.2
			c-0.3,0.4-0.9,0.6-1.4,0.4C15.3,13.8,15.2,13.6,15,13.3z"/>
		<path class="st1" d="M16,14.5c-0.2,0-0.4,0-0.6-0.1c-0.3-0.1-0.6-0.4-0.8-0.8c-0.1-0.1-0.1-0.3-0.2-0.5c0-0.2-0.1-0.4-0.1-0.6
			c0-0.3,0.1-0.7,0.1-1c-1.1,0.2-2.5-0.1-2.9-1.2C11.3,9.7,11.5,9,12,8.4c0.1-0.1,0.2-0.2,0.4-0.3c0.4-0.3,0.9-0.4,1.5-0.5
			c-0.1-0.2-0.2-0.4-0.3-0.6c-0.1-0.2-0.2-0.4-0.2-0.7c-0.1-0.7,0-1.3,0.4-1.7c0.1-0.1,0.1-0.2,0.2-0.2c0.4-0.4,1.1-0.5,1.7-0.3
			c0.3,0.1,0.6,0.3,0.9,0.5c0.1,0.1,0.2,0.2,0.3,0.4c0-0.1,0.1-0.3,0.1-0.4C17,4.2,17.2,4,17.4,3.8c0.1-0.1,0.3-0.2,0.4-0.3
			c0.3-0.1,0.5-0.2,0.8-0.2c0.2,0,0.4,0,0.6,0.1c0.1,0,0.3,0.1,0.5,0.3c0.8,0.6,0.7,1.7,0.7,2c0,0.1,0,0.2,0,0.2
			c0.3-0.2,0.7-0.3,1.2-0.2c0.4,0,0.8,0.2,1.1,0.4c0.2,0.2,0.4,0.4,0.6,0.7c0.1,0.2,0.1,0.3,0.1,0.5c0.2,1.3-1,2.2-2.1,2.6
			c-0.1,0-0.2,0.1-0.3,0.1c0.3,0.4,0.5,0.8,0.6,1.3c0,0.4,0,0.7-0.1,1c-0.2,0.6-0.7,1-1.3,1.1c-0.6,0.1-1.3-0.1-1.8-0.5
			c-0.1-0.1-0.2-0.2-0.3-0.3c-0.1,0.4-0.4,0.9-0.6,1.2C17,14.2,16.5,14.5,16,14.5z M15.7,9.8c0.1,0,0.3,0.1,0.4,0.2
			c0.2,0.2,0.2,0.5,0,0.7c-0.1,0.2-0.4,0.6-0.6,1c-0.1,0.2-0.2,0.6-0.2,0.8c0,0.1,0,0.2,0,0.4c0,0.1,0.1,0.2,0.1,0.2v0
			c0,0.1,0.1,0.2,0.2,0.3c0.3,0.1,0.6-0.1,0.7-0.3c0.2-0.2,0.4-0.7,0.5-1.1c0.1-0.5,0.2-1,0.2-1c0-0.2,0.2-0.4,0.5-0.5
			c0.2,0,0.5,0.1,0.6,0.3c0.1,0.3,0.6,1,0.8,1.2c0.2,0.2,0.6,0.3,0.8,0.3c0.2-0.1,0.4-0.2,0.5-0.5c0-0.1,0.1-0.3,0-0.5
			c0-0.3-0.2-0.6-0.5-0.9c-0.1-0.1-0.2-0.2-0.3-0.3c-0.1-0.1-0.2-0.2-0.4-0.2C19,9.8,18.9,9.5,19,9.2C19.2,9,19.5,8.9,19.8,9
			c0.2,0,0.3,0,0.4,0c0.2,0,0.5-0.1,0.7-0.2c0.5-0.2,1.5-0.7,1.4-1.4c0-0.1,0-0.2,0-0.2c0,0-0.1-0.1-0.3-0.3
			c-0.1-0.1-0.3-0.2-0.5-0.2c-0.2,0-0.4,0-0.8,0.2c-0.5,0.2-0.9,0.5-1.2,0.8c-0.2,0.2-0.5,0.2-0.7,0c-0.2-0.2-0.2-0.5-0.1-0.7
			c0.3-0.4,0.5-1.1,0.6-1.4c0.1-0.7-0.1-0.9-0.3-1c-0.1,0-0.1-0.1-0.2-0.1c-0.1,0-0.1,0-0.3,0c-0.1,0-0.1,0-0.2,0.1
			c-0.1,0-0.1,0.1-0.2,0.1c-0.1,0.1-0.2,0.3-0.3,0.5c-0.1,0.2-0.1,0.4-0.2,0.6c0,0.2-0.2,0.8-0.2,1.2c0,0.3-0.3,0.5-0.6,0.5
			c-0.3,0-0.5-0.2-0.5-0.5c0,0,0-0.1,0-0.1l-0.1-0.2c0-0.1-0.1-0.3-0.1-0.4C16,5.9,16,5.7,15.9,5.6c-0.1-0.1-0.1-0.1-0.2-0.2
			c-0.1-0.1-0.3-0.2-0.4-0.2c-0.2,0-0.5-0.1-0.7,0.1c-0.2,0.3-0.2,0.6-0.2,0.9c0,0.2,0.1,0.3,0.1,0.4C14.7,7,15,7.4,15.3,7.8
			c0,0,0,0-0.1,0c0.2,0.1,0.4,0.3,0.3,0.6c-0.1,0.3-0.3,0.5-0.6,0.4l0,0l0,0c0,0,0,0,0,0c-0.3-0.1-0.5-0.1-0.9-0.1
			c-0.5,0-0.8,0.1-1.1,0.3c-0.1,0-0.1,0.1-0.2,0.1c-0.2,0.2-0.3,0.5-0.2,0.8c0.2,0.6,1.2,0.6,1.8,0.5c0.2-0.1,0.6-0.2,0.9-0.5
			C15.5,9.8,15.6,9.8,15.7,9.8z M15.2,7.7L15.2,7.7L15.2,7.7z M15.1,7.7L15.1,7.7L15.1,7.7z M15.1,7.7L15.1,7.7L15.1,7.7z"/>
	</g>
	<g>
		<path class="st4" d="M16.5,8.4c0.1-0.1,0.2-0.2,0.3-0.3C17,8,17.1,8,17.2,8c0.2,0,0.4,0,0.5,0.1c0.3,0.1,0.6,0.4,0.5,0.8
			c0,0.3-0.2,0.7-0.4,0.9c-0.2,0.2-0.5,0.3-0.8,0.2c-0.3-0.1-0.4-0.3-0.5-0.6C16.4,9,16.4,8.7,16.5,8.4z"/>
	</g>
	<g>
		<g>
			<path class="st3" d="M25.1,9.3c-0.9-0.6-1.1-1.1-1.4-2.1c-0.1-0.6,0-1.5,0.6-1.8c0.5-0.2,1.3,0.2,1.7,0.6c0.6,0.7,1,1.4,1.1,2.5
				c0.4-0.5,0.6-0.8,1.1-1.1c0.3-0.2,0.7-0.4,1.1-0.5c0.4-0.1,0.9,0,1.2,0.3C31,7.4,30.9,8,30.7,8.5s-0.6,0.9-1,1.2
				c-0.4,0.3-0.7,0.5-1.3,0.8c0.6,0.2,0.7,0.4,1.2,0.7c0.5,0.3,0.9,0.8,1.1,1.4s-0.2,1.3-0.7,1.4c-0.2,0.1-0.5,0-0.8,0
				c-1-0.2-1.5-0.9-2.1-1.7c0,0.8-0.3,1.7-0.6,2.4s-1.1,1.2-1.9,1c-0.8-0.2-1-1.2-0.9-1.9c0.1-0.8,0.5-1.4,1.1-2.1
				c-1,0.3-2,0-2.5-0.2c-0.2-0.1-1.2-0.7-1.3-0.9c-0.2-0.3-0.1-0.8,0.2-1.1c0.3-0.3,0.7-0.4,1.1-0.5C23.3,8.7,24.2,8.7,25.1,9.3z"/>
		</g>
		<g>
			<g>
				<path class="st1" d="M25.4,8.8c-0.5-0.3-0.8-0.7-1-1.2c-0.1-0.4-0.4-1.2,0.1-1.6c0.4-0.4,1.2,0.3,1.4,0.6
					c0.4,0.5,0.7,1.2,0.8,1.8c0,0.4,0.6,0.8,0.9,0.4c0.3-0.4,0.7-0.8,1.1-1.1c0.3-0.2,0.6-0.4,0.9-0.4c0.2,0,0.6,0.1,0.7,0.3
					c0.2,0.5-0.4,1.2-0.7,1.5c-0.4,0.4-1,0.7-1.5,0.9c-0.3,0.2-0.4,0.8,0,0.9c0.7,0.3,2.4,1.1,1.9,2.1c-0.2,0.5-1,0.3-1.4,0.1
					c-0.5-0.3-0.9-0.8-1.2-1.2c-0.3-0.4-1-0.3-1,0.3c0,0.8-0.2,1.6-0.6,2.2c-0.2,0.5-0.9,0.9-1.4,0.6c-0.4-0.3-0.4-0.9-0.4-1.3
					c0.1-0.7,0.6-1.3,1-1.8c0.3-0.4-0.2-0.9-0.6-0.8c-0.7,0.2-1.5,0.1-2.1-0.2c-0.3-0.1-0.9-0.4-1.1-0.7c-0.4-0.6,1-0.8,1.4-0.8
					c0.8-0.1,1.4,0,2.1,0.4C25.4,10.1,26,9.2,25.4,8.8c-1-0.6-2-0.6-3.1-0.5c-1,0.1-2.1,0.7-2,1.9c0.1,0.8,0.9,1.2,1.5,1.6
					c0.9,0.5,2,0.6,3,0.4c-0.2-0.3-0.4-0.5-0.6-0.8c-0.6,0.8-1.2,1.6-1.2,2.6c0,0.8,0.4,1.7,1.1,2.1c2.2,0.9,3.4-2.2,3.4-3.9
					c-0.3,0.1-0.7,0.2-1,0.3c0.5,0.7,1.1,1.4,1.9,1.8c0.8,0.3,1.8,0.4,2.4-0.4c1.2-1.7-0.8-3.2-2.2-3.8c0,0.3,0,0.6,0,0.9
					c0.8-0.4,1.6-0.9,2.1-1.6c0.5-0.6,0.9-1.7,0.3-2.4c-0.5-0.7-1.5-0.8-2.2-0.5c-0.9,0.3-1.5,1-2.1,1.7c0.3,0.1,0.6,0.3,0.9,0.4
					c-0.1-1.1-0.5-2.1-1.3-2.8c-0.6-0.6-1.7-1.1-2.5-0.5c-0.8,0.5-0.9,1.6-0.6,2.5c0.2,1,0.7,1.7,1.5,2.2C25.4,10.2,26,9.2,25.4,8.8
					z"/>
			</g>
		</g>
	</g>
	<g>
		<path class="st4" d="M26.9,9.5c-0.1,0-0.3,0-0.4,0c-0.2,0.1-0.4,0.2-0.6,0.4c-0.2,0.2-0.3,0.6-0.2,0.8c0,0.1,0,0.2,0.1,0.3
			c0.1,0.1,0.2,0.2,0.4,0.3c0.2,0.1,0.4,0.1,0.6,0.1c0.7,0,1.1-0.9,0.8-1.5c0,0,0-0.1-0.1-0.1c0-0.1-0.1-0.1-0.1-0.1
			C27.1,9.6,27,9.6,26.9,9.5z"/>
	</g>
	<g>
		<path class="st3" d="M19.5,20.6c-0.1-0.1-0.1-0.2-0.2-0.4c0-0.1-0.1-0.3-0.1-0.4c0-0.2,0-0.8,0.1-1c0.1-0.4,0.4-0.9,0.5-1.1
			c-0.4,0.3-0.8,0.5-1,0.6c-0.8,0.3-2,0.3-2.4-0.5c-0.2-0.4-0.1-0.9,0.2-1.2c0.1-0.1,0.1-0.2,0.2-0.2c0.4-0.3,0.8-0.4,1.3-0.5
			c0.3,0,0.6,0,0.9,0c0,0-0.1-0.1-0.1-0.1c-0.4-0.3-0.7-0.7-1-1.2c-0.1-0.2-0.2-0.3-0.2-0.5c-0.1-0.4-0.1-0.9,0.1-1.2
			c0-0.1,0.1-0.1,0.1-0.1c0.3-0.3,0.7-0.4,1.1-0.3c0.2,0.1,0.5,0.1,0.7,0.3c0.1,0.1,0.2,0.2,0.3,0.2c0.2,0.2,0.3,0.4,0.4,0.6
			c0.1,0.1,0.1,0.2,0.2,0.4c0,0.1,0.1,0.1,0.1,0.2c0,0.1,0.1,0.1,0.1,0.2c0-0.4,0.1-1,0.1-1.2c0-0.2,0.1-0.5,0.2-0.7
			c0.1-0.2,0.2-0.4,0.4-0.6c0.1-0.1,0.2-0.2,0.3-0.2c0.1-0.1,0.2-0.1,0.4-0.1c0.2,0,0.3,0,0.4,0c0.1,0,0.2,0.1,0.3,0.1
			c0.5,0.3,0.6,0.9,0.6,1.4c0,0.4-0.2,1.1-0.5,1.6c0.4-0.3,0.7-0.6,1.1-0.9c0.3-0.2,0.6-0.3,1-0.3c0.3,0,0.5,0.1,0.8,0.2
			c0.2,0.1,0.3,0.2,0.4,0.4c0,0.1,0.1,0.2,0.1,0.3c0.2,0.9-0.7,1.7-1.5,2c-0.2,0.1-0.5,0.2-0.8,0.2c-0.1,0-0.2,0-0.4,0
			c-0.1,0-0.2,0-0.3,0c0.2,0.1,0.3,0.2,0.4,0.2c0.1,0.1,0.2,0.2,0.4,0.3c0.4,0.3,0.6,0.6,0.7,1.1c0,0.2,0,0.5,0,0.7
			c-0.1,0.4-0.4,0.7-0.8,0.8c-0.4,0.1-0.9,0-1.2-0.3c-0.2-0.2-0.8-0.8-1-1.2c0,0,0,0.5-0.1,1c-0.1,0.4-0.2,0.9-0.4,1.2
			c-0.3,0.4-0.8,0.7-1.2,0.5C19.8,21,19.6,20.8,19.5,20.6z"/>
		<path class="st1" d="M20.3,21.6c-0.1,0-0.3,0-0.4,0c-0.4-0.1-0.7-0.4-0.9-0.7c-0.1-0.1-0.2-0.3-0.2-0.5c0-0.2-0.1-0.4-0.1-0.5
			c0-0.2,0-0.6,0.1-0.9c-1.1,0.3-2.3,0.1-2.8-0.9c-0.3-0.6-0.2-1.2,0.2-1.8c0.1-0.1,0.2-0.2,0.3-0.4c0.4-0.3,0.8-0.4,1.3-0.5
			c-0.1-0.1-0.2-0.3-0.3-0.5c-0.1-0.2-0.2-0.4-0.3-0.7c-0.2-0.6-0.1-1.2,0.2-1.7c0.1-0.1,0.1-0.2,0.2-0.2c0.4-0.4,1-0.6,1.6-0.5
			c0.3,0,0.6,0.2,0.9,0.4c0.1,0.1,0.2,0.2,0.3,0.3c0-0.1,0.1-0.2,0.1-0.3c0.1-0.3,0.3-0.6,0.5-0.8c0.1-0.1,0.2-0.2,0.4-0.3
			c0.2-0.1,0.4-0.2,0.6-0.2c0.2,0,0.4,0,0.7,0.1c0.2,0,0.3,0.1,0.5,0.2c0.8,0.5,0.8,1.5,0.8,1.8c0,0.1,0,0.1,0,0.2
			c0.3-0.2,0.7-0.3,1.1-0.3c0.4,0,0.7,0.1,1,0.3c0.3,0.2,0.5,0.4,0.6,0.6c0.1,0.1,0.1,0.3,0.2,0.5c0.3,1.2-0.8,2.2-1.8,2.6
			c-0.1,0-0.2,0.1-0.2,0.1c0.3,0.3,0.5,0.7,0.6,1.2c0.1,0.3,0.1,0.7,0,1c-0.1,0.6-0.6,1-1.1,1.2c-0.5,0.2-1.3,0-1.8-0.4
			c-0.1-0.1-0.2-0.1-0.3-0.2c-0.1,0.4-0.3,0.9-0.5,1.1C21.5,21.3,20.9,21.6,20.3,21.6z M19.9,17.2c0.1,0,0.2,0,0.4,0.1
			c0.2,0.2,0.2,0.5,0.1,0.7c-0.1,0.2-0.4,0.6-0.4,0.9c-0.1,0.2-0.1,0.6-0.1,0.8c0,0.1,0,0.2,0.1,0.3s0.1,0.2,0.1,0.2c0,0,0,0,0,0
			c0,0.1,0.1,0.2,0.2,0.2c0.3,0.1,0.5-0.1,0.6-0.3c0.1-0.2,0.3-0.7,0.4-1c0.1-0.4,0.1-0.9,0.1-0.9c0-0.2,0.2-0.4,0.4-0.5
			c0.2-0.1,0.5,0.1,0.6,0.3c0.1,0.3,0.6,0.9,0.8,1c0.2,0.2,0.5,0.2,0.7,0.2c0.2-0.1,0.4-0.2,0.4-0.5c0-0.1,0-0.3,0-0.5
			c-0.1-0.3-0.2-0.6-0.5-0.8c-0.1-0.1-0.2-0.1-0.3-0.2c-0.1-0.1-0.2-0.1-0.3-0.2c0,0,0,0,0,0c-0.3-0.1-0.4-0.4-0.3-0.7
			c0.1-0.3,0.5-0.4,0.7-0.3c0,0,0,0,0,0c0.2,0,0.3-0.1,0.4-0.1c0.2,0,0.4-0.1,0.6-0.2c0.5-0.2,1.3-0.7,1.2-1.4c0-0.1,0-0.1-0.1-0.2
			c0,0,0-0.1-0.2-0.2c-0.1-0.1-0.3-0.1-0.5-0.2c-0.2,0-0.4,0.1-0.7,0.2c-0.4,0.2-0.7,0.5-1,0.8c-0.2,0.2-0.5,0.2-0.7,0
			c-0.2-0.2-0.3-0.5-0.1-0.7c0.2-0.4,0.4-1.1,0.4-1.4c0-0.6-0.2-0.8-0.3-0.9c-0.1,0-0.1-0.1-0.2-0.1c-0.1,0-0.1,0-0.2,0
			c-0.1,0-0.1,0-0.2,0.1c0,0-0.1,0.1-0.1,0.1c-0.1,0.2-0.2,0.3-0.3,0.5c-0.1,0.1-0.1,0.4-0.1,0.5c0,0.3-0.1,0.8-0.1,1.2
			c0,0.3-0.2,0.5-0.5,0.5h0c-0.3,0-0.5-0.2-0.5-0.5c0,0-0.1-0.2-0.1-0.2l-0.1-0.3c-0.1-0.2-0.2-0.4-0.3-0.5c0-0.1-0.1-0.1-0.2-0.2
			C19.3,13,19.1,13,19,12.9c-0.2,0-0.5,0-0.6,0.1c-0.2,0.2-0.2,0.6-0.1,0.9c0,0.1,0.1,0.3,0.2,0.4c0.2,0.4,0.6,0.8,0.9,1
			c0,0,0,0-0.1,0c0.3,0.1,0.4,0.3,0.4,0.6c-0.1,0.3-0.3,0.5-0.6,0.5c-0.3,0-0.5,0-0.8,0c-0.5,0-0.8,0.1-1,0.4c0,0-0.1,0.1-0.1,0.1
			c-0.1,0.2-0.2,0.5-0.1,0.7c0.3,0.5,1.2,0.5,1.7,0.3c0.3-0.1,0.6-0.3,0.8-0.5C19.6,17.2,19.7,17.2,19.9,17.2z M19.2,15.3L19.2,15.3
			L19.2,15.3z M19.2,15.3L19.2,15.3L19.2,15.3z M19.2,15.3L19.2,15.3L19.2,15.3z"/>
	</g>
	<g>
		<path class="st4" d="M20.5,15.8c0.1-0.1,0.1-0.2,0.3-0.3c0.1-0.1,0.2-0.1,0.3-0.1c0.2,0,0.4,0,0.5,0.1c0.3,0.1,0.6,0.4,0.6,0.7
			c0,0.3-0.1,0.7-0.3,0.9c-0.2,0.2-0.5,0.3-0.8,0.2c-0.3-0.1-0.4-0.3-0.5-0.5C20.4,16.4,20.4,16.1,20.5,15.8z"/>
	</g>
	<g>
		<path class="st3" d="M11.4,21.1c-0.1-0.1-0.2-0.2-0.2-0.4c-0.1-0.1-0.1-0.3-0.1-0.4c0-0.3,0-0.8,0-1.1c0.1-0.4,0.3-1,0.5-1.2
			c-0.4,0.4-0.8,0.6-1,0.7c-0.8,0.4-2.1,0.5-2.6-0.4C7.7,18,7.8,17.4,8.1,17c0.1-0.1,0.1-0.2,0.2-0.3c0.4-0.3,0.8-0.5,1.4-0.6
			c0.3,0,0.6-0.1,0.9-0.1c0,0-0.1-0.1-0.1-0.1c-0.4-0.3-0.8-0.7-1.1-1.2c-0.1-0.2-0.2-0.4-0.3-0.5c-0.1-0.4-0.2-0.9,0-1.3
			c0-0.1,0.1-0.1,0.1-0.1c0.3-0.3,0.7-0.5,1.2-0.4c0.3,0,0.5,0.1,0.7,0.3c0.1,0.1,0.2,0.2,0.3,0.2c0.2,0.2,0.3,0.4,0.4,0.6
			c0.1,0.1,0.1,0.3,0.2,0.4c0,0.1,0.1,0.1,0.1,0.2c0,0.1,0.1,0.1,0.1,0.2c0-0.4,0-1.1,0-1.3c0-0.2,0.1-0.5,0.1-0.7
			c0.1-0.2,0.2-0.5,0.3-0.7c0.1-0.1,0.2-0.2,0.3-0.3c0.1-0.1,0.3-0.2,0.4-0.2c0.2,0,0.3,0,0.5,0c0.1,0,0.2,0.1,0.4,0.1
			c0.5,0.3,0.7,0.9,0.7,1.4c0,0.4-0.1,1.2-0.4,1.8c0.4-0.4,0.7-0.7,1.1-1c0.3-0.2,0.6-0.4,1-0.4c0.3,0,0.6,0.1,0.8,0.2
			c0.2,0.1,0.4,0.2,0.5,0.4c0.1,0.1,0.1,0.2,0.1,0.3c0.3,1-0.6,1.8-1.4,2.2c-0.2,0.1-0.5,0.2-0.8,0.3c-0.1,0-0.2,0.1-0.4,0.1
			c-0.1,0-0.3,0-0.4,0c0.2,0.1,0.4,0.1,0.5,0.2c0.1,0.1,0.3,0.2,0.4,0.3c0.4,0.3,0.7,0.6,0.8,1.1c0.1,0.2,0.1,0.5,0,0.8
			c-0.1,0.4-0.4,0.8-0.8,0.9c-0.4,0.2-1,0-1.3-0.2c-0.3-0.2-0.9-0.8-1.1-1.2c0,0,0,0.6,0,1.1c0,0.4-0.2,1-0.4,1.3
			c-0.2,0.5-0.8,0.8-1.3,0.6C11.7,21.5,11.5,21.3,11.4,21.1z"/>
		<path class="st1" d="M12.2,22.1c-0.1,0-0.2,0-0.3,0c-0.4-0.1-0.7-0.3-1-0.7c0,0,0,0,0,0c-0.1-0.1-0.2-0.3-0.2-0.5
			c-0.1-0.2-0.1-0.4-0.1-0.5c0-0.3,0-0.7,0-1c-1.1,0.4-2.5,0.3-3-0.7c-0.3-0.6-0.3-1.3,0.2-1.9c0.1-0.1,0.2-0.3,0.3-0.4
			c0.4-0.3,0.8-0.5,1.4-0.7c-0.1-0.2-0.3-0.3-0.4-0.5c-0.1-0.2-0.3-0.4-0.3-0.7c-0.2-0.6-0.2-1.3,0.1-1.8c0.1-0.1,0.1-0.2,0.1-0.2
			c0.4-0.5,1-0.7,1.7-0.6c0.3,0.1,0.7,0.2,1,0.4c0.1,0.1,0.2,0.2,0.4,0.3c0-0.1,0.1-0.3,0.1-0.4c0.1-0.3,0.2-0.6,0.4-0.9
			c0.1-0.2,0.2-0.3,0.4-0.4c0.2-0.2,0.4-0.2,0.6-0.3c0.2,0,0.4-0.1,0.7,0c0.2,0.1,0.4,0.1,0.5,0.2c0.6,0.3,0.9,1,1,1.9
			c0,0.1,0,0.1,0,0.2c0.3-0.2,0.7-0.4,1.2-0.4c0,0,0,0,0,0c0.4,0,0.8,0.1,1.1,0.3c0.2,0.1,0.5,0.3,0.7,0.6c0.1,0.1,0.2,0.3,0.2,0.5
			c0.4,1.3-0.7,2.3-1.7,2.8c-0.1,0.1-0.2,0.1-0.3,0.1c0.4,0.3,0.6,0.7,0.8,1.2c0.1,0.4,0.1,0.7,0,1c-0.1,0.6-0.6,1.1-1.1,1.3
			c-0.6,0.2-1.3,0.1-1.8-0.3c-0.1-0.1-0.2-0.2-0.4-0.3c-0.1,0.4-0.2,1-0.4,1.3C13.4,21.8,12.8,22.1,12.2,22.1z M11.8,20.8
			c0.1,0.1,0.2,0.2,0.3,0.2c0.2,0,0.5-0.1,0.7-0.4c0.1-0.2,0.3-0.8,0.3-1.1c0.1-0.5,0-1,0-1c0-0.2,0.1-0.5,0.4-0.5
			c0.3-0.1,0.5,0,0.6,0.2c0.2,0.3,0.8,0.9,1,1c0.2,0.2,0.6,0.2,0.8,0.1c0.2-0.1,0.4-0.3,0.4-0.5c0-0.2,0-0.3,0-0.5
			c-0.1-0.3-0.3-0.6-0.6-0.8c-0.1-0.1-0.2-0.2-0.4-0.2c-0.1-0.1-0.2-0.1-0.4-0.2l0,0l0,0c-0.3-0.1-0.4-0.4-0.4-0.7
			c0.1-0.3,0.4-0.5,0.7-0.4l0,0c0.2,0,0.3-0.1,0.4-0.1c0.2-0.1,0.5-0.1,0.7-0.2c0.5-0.2,1.4-0.9,1.2-1.6c0-0.1-0.1-0.1-0.1-0.2
			c0-0.1-0.1-0.1-0.3-0.2c-0.2-0.1-0.4-0.1-0.6-0.1c-0.2,0-0.4,0.1-0.7,0.3c-0.4,0.3-0.8,0.6-1.1,0.9c-0.2,0.2-0.5,0.2-0.7,0.1
			c-0.2-0.1-0.3-0.4-0.2-0.7c0.2-0.5,0.4-1.2,0.3-1.5c-0.1-0.8-0.3-0.9-0.4-1c-0.1,0-0.1-0.1-0.2-0.1c-0.1,0-0.1,0-0.2,0
			c-0.1,0-0.1,0-0.2,0.1c-0.1,0-0.1,0.1-0.2,0.2c-0.1,0.1-0.2,0.3-0.2,0.5c-0.1,0.2-0.1,0.4-0.1,0.6c0,0.2-0.1,0.8,0,1.2
			c0,0,0,0,0,0c0,0.3-0.2,0.5-0.5,0.5c-0.2,0-0.5-0.2-0.5-0.4c0,0-0.1-0.1-0.1-0.1l0,0c0-0.1,0-0.1,0-0.2l-0.1,0
			c-0.1-0.1-0.1-0.3-0.2-0.4c-0.1-0.2-0.2-0.4-0.3-0.5c-0.1-0.1-0.1-0.1-0.2-0.2c-0.2-0.1-0.3-0.2-0.5-0.2c-0.2,0-0.5,0-0.7,0.2
			c-0.2,0.3-0.2,0.6-0.1,0.9c0.1,0.1,0.1,0.3,0.2,0.4c0.3,0.4,0.7,0.8,1,1.1c0.1,0.1,0,0-0.1,0c0.3,0.1,0.4,0.3,0.4,0.6
			c0,0.3-0.3,0.5-0.5,0.5c0,0-0.1,0-0.1,0c-0.2,0-0.5,0-0.7,0.1c-0.5,0.1-0.8,0.2-1.1,0.4c0,0-0.1,0.1-0.1,0.2
			c-0.1,0.2-0.2,0.5-0.1,0.8c0.3,0.5,1.3,0.5,1.9,0.2c0.1-0.1,0.5-0.3,0.9-0.6c0.2-0.2,0.5-0.2,0.7-0.1c0.2,0.2,0.3,0.5,0.2,0.7
			c-0.1,0.2-0.3,0.7-0.4,1c0,0.2-0.1,0.7,0,0.9c0,0.1,0.1,0.2,0.1,0.3C11.7,20.6,11.8,20.7,11.8,20.8z M10.7,15.6L10.7,15.6
			L10.7,15.6z M10.7,15.6L10.7,15.6L10.7,15.6z M11.7,14.4L11.7,14.4L11.7,14.4z"/>
	</g>
	<g>
		<path class="st4" d="M12.1,16c0.1-0.1,0.1-0.3,0.3-0.4c0.1-0.1,0.2-0.1,0.3-0.1c0.2,0,0.4,0,0.5,0c0.4,0.1,0.6,0.3,0.7,0.7
			c0,0.3-0.1,0.7-0.3,1c-0.2,0.3-0.5,0.3-0.8,0.3c-0.3-0.1-0.5-0.3-0.6-0.5C12,16.7,12,16.3,12.1,16z"/>
	</g>
</g>
</svg>
