<?xml version="1.0" encoding="utf-8"?>
<!-- Generator: Adobe Illustrator 26.0.2, SVG Export Plug-In . SVG Version: 6.00 Build 0)  -->
<svg version="1.1" id="레이어_1" xmlns="http://www.w3.org/2000/svg" xmlns:xlink="http://www.w3.org/1999/xlink" x="0px"
	 y="0px" viewBox="0 0 40 40" style="enable-background:new 0 0 40 40;" xml:space="preserve">
<style type="text/css">
	.st0{fill:#282828;}
	.st1{fill:#FFF2F7;}
	.st2{fill:#FFB1CF;}
	.st3{fill:#FFFFC5;}
	.st4{fill:#FFE8F2;}
</style>
<g>
	<g>
		<g>
			<path class="st0" d="M20.9,14.8c-1.6,2.8-3.3,5.7-4.3,8.8c-0.9,2.9-1.1,5.9-1.3,9c0,0.7,1.1,0.7,1.1,0c0.1-2.9,0.4-5.9,1.3-8.7
				c1-3,2.6-5.8,4.1-8.5C22.2,14.8,21.3,14.2,20.9,14.8L20.9,14.8z"/>
		</g>
	</g>
	<g>
		<g>
			<path class="st1" d="M19.1,15.6c0,2.1-1.5,4.9-2,5.8c-0.4,0.8-1.1,1.7-1.8,2.8c-0.7,1-1.8,2-2.7,2.9c-0.1,0.1-0.2,0.2-0.2,0.3
				c0,0.2,0.2,0.4,0.4,0.3s0.4-0.1,0.6-0.2c1-0.4,1.4-0.4,2.4,0.1c0.2,0.1,0.4,0.2,0.6,0.2c0.2,0,0.4-0.1,0.6-0.2
				c0.8-0.5,1.8-0.5,2.4,0.2c-0.3-2-0.6-3.4-0.5-4.5c0.1-1.4,0.6-4.6,3-8.1"/>
		</g>
		<g>
			<g>
				<path class="st0" d="M18.6,15.6c0,1.7-0.8,3.4-1.6,5c-0.9,1.6-1.9,3.3-3.2,4.6c-0.4,0.4-0.8,0.8-1.1,1.1c-0.3,0.3-0.7,0.6-0.8,1
					c0,0.4,0.2,0.7,0.5,0.9c0.4,0.2,0.8,0,1.2-0.1c0.4-0.1,0.8-0.3,1.3-0.1c0.5,0.1,0.9,0.5,1.4,0.5s0.9-0.3,1.3-0.5
					c0.5-0.2,1-0.1,1.4,0.3c0.4,0.4,1,0,0.9-0.5c-0.3-1.9-0.7-3.8-0.3-5.7c0.4-2.3,1.4-4.5,2.8-6.5c0.4-0.6-0.5-1.1-0.9-0.6
					c-1.4,2.1-2.5,4.4-2.9,6.9c-0.4,2.1,0,4.1,0.3,6.1c0.3-0.2,0.6-0.4,0.9-0.5c-0.6-0.6-1.5-0.9-2.3-0.7c-0.2,0-0.4,0.1-0.6,0.2
					c-0.4,0.2-0.6,0.2-1,0c-0.4-0.1-0.7-0.3-1.1-0.4c-0.4,0-0.8,0-1.1,0.1c-0.1,0-0.8,0.2-0.8,0.3c-0.2,0.7,0.5-0.1,0.6-0.1
					c0.7-0.7,1.5-1.4,2.1-2.2c1-1.3,1.9-2.8,2.7-4.3c0.8-1.5,1.5-3.2,1.5-5C19.7,14.9,18.6,14.9,18.6,15.6L18.6,15.6z"/>
			</g>
		</g>
	</g>
	<g>
		<path class="st2" d="M17.4,15.2c0-0.1,0.1-0.3,0.1-0.4c0.1-0.1,0.1-0.3,0.2-0.4c0.2-0.2,0.6-0.6,0.8-0.8c0.3-0.2,0.9-0.5,1.2-0.6
			c-0.5,0-1-0.1-1.3-0.2c-0.9-0.3-1.9-1.1-1.7-2.1c0.1-0.5,0.6-0.8,1-0.9c0.1,0,0.2-0.1,0.4,0c0.5,0,1,0.2,1.5,0.5
			c0.3,0.2,0.5,0.4,0.7,0.6c0,0,0-0.1,0-0.1c-0.1-0.5-0.1-1.1,0-1.7c0-0.2,0.1-0.4,0.2-0.6c0.2-0.4,0.5-0.8,1-1c0.1,0,0.1,0,0.2,0
			c0.5-0.1,0.9,0.2,1.2,0.5c0.2,0.2,0.3,0.5,0.4,0.7c0,0.1,0,0.3,0,0.4c0,0.3,0,0.5-0.1,0.8c0,0.1-0.1,0.3-0.1,0.4
			c0,0.1,0,0.1-0.1,0.2c0,0.1,0,0.2-0.1,0.2c0.3-0.3,0.8-0.8,1-1c0.2-0.1,0.4-0.3,0.6-0.4c0.2-0.1,0.5-0.2,0.7-0.3
			c0.1,0,0.3,0,0.4,0c0.2,0,0.3,0.1,0.5,0.2c0.2,0.1,0.2,0.2,0.4,0.3c0.1,0.1,0.1,0.2,0.2,0.4c0.2,0.6-0.1,1.1-0.5,1.6
			c-0.2,0.3-1,0.8-1.5,1c0.5,0,1,0,1.6,0c0.4,0,0.7,0.1,1,0.4c0.2,0.2,0.4,0.5,0.5,0.7c0.1,0.2,0.1,0.4,0.1,0.6
			c0,0.1-0.1,0.2-0.1,0.4c-0.5,0.9-1.8,0.9-2.6,0.6c-0.3-0.1-0.5-0.2-0.8-0.3c-0.1-0.1-0.2-0.1-0.3-0.2c-0.1-0.1-0.2-0.1-0.3-0.2
			c0.1,0.2,0.1,0.4,0.2,0.5c0,0.2,0.1,0.3,0.1,0.5c0.1,0.5,0.1,1-0.2,1.4c-0.1,0.2-0.3,0.5-0.5,0.6c-0.4,0.2-0.8,0.3-1.2,0.2
			C21.4,17.5,21,17,21,16.6c-0.1-0.3-0.1-1.2,0-1.7c0,0-0.4,0.4-0.8,0.8c-0.3,0.3-0.9,0.6-1.2,0.7c-0.5,0.2-1.1,0-1.4-0.4
			C17.4,15.7,17.3,15.5,17.4,15.2z"/>
		<path class="st0" d="M22.3,18.3c-0.2,0-0.5,0-0.7-0.1c-0.6-0.2-1.1-0.8-1.2-1.5c0-0.1-0.1-0.3-0.1-0.5c-0.4,0.3-0.9,0.6-1.2,0.7
			c-0.8,0.2-1.6,0-2-0.6c-0.2-0.3-0.3-0.7-0.2-1.2c0-0.2,0.1-0.4,0.1-0.5s0.2-0.3,0.3-0.5c0.2-0.2,0.5-0.6,0.8-0.8
			c-1.1-0.5-2.1-1.5-1.8-2.7c0.2-0.6,0.7-1.1,1.4-1.3c0.2,0,0.3-0.1,0.5-0.1c0.5,0,1,0.2,1.5,0.5c0-0.2,0-0.5,0.1-0.7
			c0-0.2,0.1-0.5,0.2-0.7c0.2-0.4,0.6-1,1.3-1.3c0.1,0,0.2,0,0.3-0.1c0.6-0.1,1.2,0.2,1.6,0.7c0.2,0.3,0.4,0.6,0.5,1
			c0,0.1,0.1,0.3,0.1,0.5C23.8,9,23.9,8.9,24,8.8c0.3-0.2,0.6-0.3,0.9-0.4c0.2,0,0.4,0,0.5,0c0.3,0,0.5,0.1,0.7,0.2
			c0.2,0.1,0.3,0.2,0.5,0.5c0.1,0.2,0.2,0.3,0.2,0.5c0.3,1-0.4,1.8-0.6,2.1c0,0.1-0.1,0.1-0.2,0.2c0.4,0.1,0.8,0.2,1.2,0.5
			c0.3,0.3,0.5,0.6,0.6,1c0.1,0.2,0.2,0.6,0.1,0.9c0,0.2-0.1,0.3-0.2,0.5c-0.6,1.1-2.1,1.3-3.3,0.9c-0.1,0-0.2-0.1-0.4-0.1
			c0,0.5,0,1-0.3,1.5c-0.2,0.3-0.4,0.6-0.7,0.8C23,18.2,22.6,18.3,22.3,18.3z M20.9,14.3c0.1,0,0.2,0,0.2,0.1
			c0.2,0.1,0.3,0.4,0.3,0.6c-0.1,0.4-0.1,1.2,0,1.5c0.1,0.3,0.3,0.6,0.5,0.7c0.2,0.1,0.5,0,0.7-0.1c0.1-0.1,0.3-0.2,0.4-0.4
			c0.2-0.3,0.2-0.7,0.1-1.1c0-0.1-0.1-0.3-0.1-0.4c0-0.2-0.1-0.3-0.1-0.4c0,0,0,0,0,0c-0.1-0.3,0-0.6,0.2-0.7
			c0.3-0.2,0.6-0.1,0.7,0.2c0,0,0,0,0,0l0,0c0.2,0.1,0.3,0.2,0.4,0.2c0.2,0.1,0.4,0.2,0.7,0.3c0.5,0.2,1.6,0.3,2-0.4
			c0-0.1,0.1-0.1,0.1-0.2c0-0.1,0-0.2-0.1-0.4c-0.1-0.2-0.2-0.4-0.3-0.5c-0.2-0.2-0.4-0.2-0.8-0.3c-0.5-0.1-1-0.1-1.5,0
			c-0.3,0-0.5-0.2-0.6-0.4s0.1-0.5,0.3-0.6c0.5-0.2,1.1-0.7,1.3-0.9c0.5-0.6,0.4-0.9,0.4-1.1c0-0.1-0.1-0.2-0.1-0.2
			c-0.1-0.1-0.1-0.1-0.2-0.2c-0.1-0.1-0.1-0.1-0.2-0.1c-0.1,0-0.1,0-0.2,0c-0.2,0-0.4,0.1-0.6,0.2c-0.2,0.1-0.4,0.3-0.5,0.4
			c-0.2,0.1-0.6,0.6-0.9,0.9l0,0c-0.2,0.2-0.5,0.2-0.8,0.1c-0.2-0.2-0.2-0.5-0.1-0.7c0-0.1,0-0.1,0-0.1l0.1-0.2
			c0-0.1,0.1-0.2,0.1-0.4c0.1-0.3,0.1-0.4,0.1-0.6c0-0.1,0-0.2,0-0.3c0-0.2-0.1-0.4-0.2-0.5C22.2,8.1,21.9,8,21.7,8
			c-0.3,0.1-0.6,0.3-0.7,0.7c-0.1,0.1-0.1,0.3-0.1,0.4c-0.1,0.5-0.1,1,0,1.5c0,0.1,0,0.1-0.1-0.1c0.1,0.2,0.1,0.5-0.1,0.7
			c-0.2,0.2-0.6,0.2-0.8,0c0,0,0,0,0,0l0,0c-0.2-0.2-0.4-0.4-0.7-0.5c-0.4-0.3-0.8-0.4-1.1-0.5c-0.1,0-0.2,0-0.2,0
			c-0.3,0.1-0.6,0.2-0.6,0.5c-0.2,0.7,0.7,1.3,1.3,1.5c0.2,0.1,0.6,0.2,1.1,0.2c0,0,0,0,0,0c0.3,0,0.5,0.2,0.5,0.4
			c0.1,0.3-0.1,0.5-0.4,0.6c-0.2,0.1-0.8,0.3-1,0.5c-0.2,0.1-0.5,0.5-0.6,0.6C18.1,14.8,18,14.9,18,15c0,0.1-0.1,0.2-0.1,0.3v0
			c0,0.1,0,0.3,0.1,0.4c0.2,0.2,0.5,0.3,0.8,0.2c0.3-0.1,0.7-0.4,1-0.6c0.4-0.3,0.7-0.7,0.7-0.7C20.6,14.4,20.8,14.3,20.9,14.3z
			 M22.4,10.4L22.4,10.4z"/>
	</g>
	<g>
		<path class="st3" d="M21.5,11.9c0.1-0.1,0.3-0.1,0.5-0.1c0.1,0,0.2,0.1,0.3,0.1c0.2,0.1,0.3,0.2,0.4,0.4c0.2,0.3,0.2,0.7,0,1
			c-0.2,0.3-0.5,0.5-0.9,0.6c-0.3,0-0.6-0.1-0.8-0.4c-0.2-0.2-0.2-0.5-0.1-0.8C21,12.3,21.2,12,21.5,11.9z"/>
	</g>
	<g>
		<g>
			<path class="st1" d="M19.6,19.2c1.5,0.1,3,0.2,4.4,0.2c-0.3,0.4-0.6,0.9-0.8,1.4c-0.2,0.6-0.1,1.5-0.6,1.8
				c-0.4-0.2-1.1-0.8-1.5-1c-0.5-0.4-0.6-0.4-1.3-0.9c-0.3-0.2-0.8-0.6-1.2-0.7L19.6,19.2z"/>
		</g>
		<g>
			<g>
				<path class="st0" d="M19.6,19.7c1.5,0.1,3,0.2,4.4,0.2c-0.2-0.3-0.3-0.6-0.5-0.8c-0.4,0.5-0.8,1.1-0.9,1.8
					c0,0.2-0.1,0.5-0.1,0.8c0,0.1,0,0.2-0.1,0.3c0,0-0.1,0.1-0.1,0.1c0.2,0,0.4,0,0.5,0c-0.7-0.4-1.2-0.9-1.8-1.3
					c-0.3-0.2-0.6-0.4-0.9-0.6c-0.4-0.3-0.9-0.6-1.4-0.8c0.1,0.3,0.2,0.6,0.2,0.9c0.3-0.3,0.6-0.5,0.9-0.8c0.2-0.2,0.2-0.6,0-0.8
					c-0.2-0.2-0.5-0.2-0.8,0c-0.3,0.3-0.6,0.5-0.9,0.8c-0.3,0.3-0.1,0.8,0.2,0.9c0.4,0.2,0.8,0.5,1.2,0.7c0.3,0.2,0.6,0.4,0.9,0.6
					c0.3,0.2,0.5,0.4,0.8,0.6c0.3,0.2,0.6,0.5,1,0.6c0.2,0.1,0.4,0.1,0.5,0c0.5-0.4,0.6-1,0.7-1.6c0.1-0.7,0.5-1.2,0.9-1.8
					c0.2-0.4-0.1-0.8-0.5-0.8c-1.5-0.1-3-0.2-4.5-0.2C18.9,18.6,18.9,19.7,19.6,19.7z"/>
			</g>
		</g>
	</g>
	<g>
		<g>
			<path class="st1" d="M18.4,18.6c-1.1-0.6-2.2-1.2-3.2-2c0,0.6-0.1,1.1-0.3,1.6c-0.1,0.3-0.6,0.8-0.6,1.2c1.2-0.1,2.6,0,3.8,0.2
				L18.4,18.6z"/>
		</g>
		<g>
			<g>
				<path class="st0" d="M18.6,18.1c-1.1-0.5-2.1-1.2-3.1-1.9c-0.2-0.1-0.4-0.2-0.6-0.1c-0.2,0.1-0.3,0.3-0.3,0.5
					c0,0.5-0.1,1-0.3,1.4c-0.2,0.5-0.6,0.8-0.7,1.4c0,0.3,0.3,0.6,0.6,0.6c1.3-0.1,2.6,0,3.8,0.2c0.2,0,0.5-0.2,0.5-0.4
					c0.1-0.3,0.2-0.6,0.4-1c0.1-0.3-0.1-0.6-0.4-0.7c-0.3-0.1-0.6,0.1-0.7,0.4c-0.1,0.3-0.2,0.6-0.4,1c0.2-0.1,0.4-0.3,0.5-0.4
					c-1.3-0.1-2.5-0.2-3.8-0.2c0.2,0.2,0.4,0.4,0.6,0.5c0-0.1,0-0.1,0,0c0,0,0,0,0,0c-0.1,0.1,0,0,0-0.1c0.1-0.1,0.1-0.2,0.2-0.3
					c0.1-0.2,0.3-0.4,0.4-0.7c0.2-0.5,0.3-1.1,0.3-1.7c-0.3,0.1-0.6,0.3-0.9,0.4c1,0.8,2.1,1.5,3.3,2.1c0.3,0.1,0.6,0.1,0.8-0.2
					C19,18.6,18.9,18.3,18.6,18.1z"/>
			</g>
		</g>
	</g>
	<g>
		<g>
			<path class="st4" d="M17.5,18.9c0.1-0.2,0.2-0.3,0.4-0.4c0.8-0.4,1.9-0.1,2.1,0.8c0.1,0.5-0.1,1-0.6,1.3s-1,0.3-1.4,0
				c-0.5-0.3-0.7-0.9-0.6-1.4C17.5,19.1,17.5,19,17.5,18.9z"/>
		</g>
		<g>
			<g>
				<path class="st0" d="M18,19.2c0,0,0-0.1,0.1-0.1C18.1,19.1,18,19.2,18,19.2c0.1-0.1,0.1-0.1,0.1-0.1c0.1-0.1,0,0,0,0
					c0,0,0.2-0.1,0.2-0.1c0,0,0,0,0.1,0c-0.1,0.1-0.1,0,0,0c0.1,0,0.2,0,0.3-0.1c-0.1,0-0.1,0,0,0c0,0,0,0,0.1,0c0.1,0,0.1,0,0.2,0
					c0,0,0,0,0.1,0c0.1,0,0.1,0,0,0c0,0,0.1,0,0.1,0c0,0,0.1,0,0.1,0c0,0,0.1,0,0,0c0,0,0,0,0.1,0c0,0,0.1,0.1,0.1,0.1c0,0,0,0,0,0
					c-0.1-0.1-0.1-0.1,0,0c0,0,0.1,0.1,0.1,0.1c0,0,0,0.1,0,0c0,0,0,0,0.1,0.1c0,0,0,0.1,0.1,0.1c-0.1-0.1,0-0.1,0,0
					c0,0,0,0.1,0,0.1c0,0,0,0,0,0.1c0,0,0,0,0,0c0,0.1,0,0.1,0,0c0,0,0,0,0,0c0,0,0,0,0,0.1c0,0,0,0.1,0,0.1c0,0.1,0-0.1,0,0
					c0,0,0,0.1,0,0.1c0,0,0,0,0,0.1c0,0,0,0.1,0,0c0-0.1,0,0,0,0c0,0,0,0,0,0.1c0,0,0,0.1-0.1,0.1c-0.1,0.1,0.1-0.1,0,0
					c0,0-0.1,0.1-0.1,0.1c0,0,0.1-0.1,0,0c0,0-0.1,0-0.1,0.1s-0.1,0-0.1,0.1c0.1,0,0.1,0,0,0c-0.1,0-0.2,0.1-0.2,0.1
					c0.1,0,0.1,0,0,0s-0.1,0-0.1,0c0,0,0,0-0.1,0c-0.1,0,0.1,0,0,0c-0.1,0-0.1,0-0.2-0.1c0,0,0,0,0,0c-0.1,0,0,0,0,0
					c0,0-0.1,0-0.1-0.1c0,0,0,0-0.1,0c-0.1-0.1,0.1,0.1,0,0c0,0-0.1-0.1-0.1-0.2c0.1,0.1,0,0.1,0,0c0,0,0-0.1-0.1-0.1
					c0,0,0-0.1,0-0.1c0,0.1,0,0.1,0,0c0,0,0,0,0-0.1c0-0.1,0-0.1-0.1-0.2c0-0.1,0,0,0,0c0,0,0-0.1,0-0.1C18,19.4,18,19.3,18,19.2
					C17.9,19.4,18.1,19,18,19.2c0.1-0.3,0.1-0.6-0.2-0.8c-0.2-0.1-0.6-0.1-0.8,0.2c-0.3,0.7-0.1,1.7,0.5,2.2
					c0.6,0.6,1.6,0.7,2.3,0.2c0.6-0.5,1-1.3,0.7-2.1c-0.2-0.6-0.7-1.1-1.4-1.2c-0.8-0.1-1.7,0.1-2.1,0.8c-0.1,0.2-0.1,0.6,0.2,0.8
					C17.5,19.5,17.9,19.4,18,19.2z"/>
			</g>
		</g>
	</g>
</g>
</svg>
