<?xml version="1.0" encoding="utf-8"?>
<!-- Generator: Adobe Illustrator 26.0.2, SVG Export Plug-In . SVG Version: 6.00 Build 0)  -->
<svg version="1.1" id="레이어_1" xmlns="http://www.w3.org/2000/svg" xmlns:xlink="http://www.w3.org/1999/xlink" x="0px"
	 y="0px" viewBox="0 0 40 40" style="enable-background:new 0 0 40 40;" xml:space="preserve">
<style type="text/css">
	.st0{fill:#282828;}
	.st1{fill:#FFB1CF;}
	.st2{fill:#FFFFC5;}
	.st3{fill:#78C564;}
</style>
<g>
	<g>
		<g>
			<path class="st0" d="M17.7,33.1c-0.1-2.4-0.1-4.9,0.2-7.3c0.2-1.9,0.6-3.8,1.4-5.6c0.3-0.6-0.8-0.9-1.1-0.3
				c-0.8,1.8-1.1,3.8-1.4,5.7c-0.3,2.5-0.4,5-0.3,7.4C16.6,33.8,17.7,33.8,17.7,33.1L17.7,33.1z"/>
		</g>
	</g>
	<g>
		<g>
			<path class="st1" d="M17.3,15.5c-0.9-0.9-1-1.6-1-2.8c0-0.8,0.4-1.8,1.2-1.9c0.6-0.1,1.5,0.6,1.8,1.1c0.6,1,0.8,1.9,0.7,3.2
				c0.6-0.4,0.9-0.7,1.5-1c0.4-0.2,0.9-0.3,1.4-0.3s1,0.3,1.3,0.6c0.4,0.5,0.2,1.1-0.2,1.7c-0.3,0.6-0.9,0.9-1.5,1.1
				c-0.6,0.3-0.9,0.4-1.7,0.6c0.6,0.4,0.7,0.6,1.2,1.1c0.5,0.5,0.9,1.1,0.9,1.9s-0.5,1.4-1.2,1.5c-0.3,0-0.6-0.1-0.9-0.2
				c-1.1-0.5-1.6-1.4-2-2.5c-0.2,1-0.8,1.9-1.4,2.7c-0.6,0.8-1.7,1.1-2.5,0.6c-0.8-0.5-0.8-1.6-0.5-2.4c0.3-0.9,1-1.4,1.8-2.1
				c-1.3,0.1-2.3-0.5-2.8-0.9c-0.3-0.2-1.2-1.1-1.3-1.4c-0.2-0.5,0.1-1,0.5-1.3c0.4-0.3,0.9-0.3,1.4-0.3
				C15.4,14.4,16.4,14.5,17.3,15.5z"/>
		</g>
		<g>
			<g>
				<path class="st0" d="M17.7,15.1c-0.5-0.6-0.8-1.1-0.8-1.9c0-0.6,0-1.6,0.6-1.8c0.7-0.3,1.3,0.6,1.6,1.1c0.4,0.8,0.5,1.6,0.4,2.5
					c0,0.4,0.5,0.7,0.8,0.5c0.5-0.4,1-0.8,1.6-1c0.6-0.2,1.6-0.5,2,0.2c0.4,0.7-0.8,1.5-1.2,1.8c-0.6,0.3-1.2,0.5-1.9,0.7
					c-0.5,0.1-0.5,0.7-0.1,1c0.8,0.6,2.6,2.2,1.5,3.2c-0.5,0.4-1.4-0.2-1.8-0.6c-0.4-0.4-0.7-1-0.9-1.6c-0.2-0.4-0.9-0.6-1,0
					c-0.2,1-1.6,4.1-3.1,2.9c-0.5-0.4-0.4-1.2-0.2-1.7c0.3-0.8,1-1.4,1.6-1.9c0.4-0.3,0.1-0.9-0.4-0.9c-0.9,0-1.7-0.2-2.4-0.8
					c-0.4-0.3-1-0.8-1.1-1.2c-0.4-1,1.4-0.9,1.9-0.8c0.9,0.1,1.7,0.4,2.3,1C17.5,16.3,18.2,15.6,17.7,15.1c-0.9-0.9-2-1.2-3.3-1.3
					c-1.1-0.1-2.7,0.1-2.9,1.6c-0.1,0.9,0.8,1.7,1.4,2.2c0.9,0.7,2.1,1.1,3.2,1.1c-0.1-0.3-0.3-0.6-0.4-0.9
					c-0.9,0.8-1.8,1.6-2.1,2.8c-0.2,0.9,0,2,0.8,2.6c2.3,1.5,4.3-1.7,4.7-3.6c-0.4,0-0.7,0-1,0c0.4,0.9,0.8,1.8,1.6,2.4
					c0.8,0.6,1.9,1,2.8,0.3c0.8-0.6,1-1.7,0.6-2.6c-0.4-1-1.3-1.7-2.1-2.4c0,0.3-0.1,0.7-0.1,1c1-0.3,2-0.6,2.9-1.3
					c0.7-0.6,1.4-1.7,1-2.6c-0.4-0.8-1.4-1.3-2.3-1.1c-1.1,0.1-2,0.7-2.9,1.4c0.3,0.2,0.5,0.3,0.8,0.5c0.1-1.2-0.1-2.5-0.9-3.5
					c-0.5-0.8-1.7-1.6-2.7-1.1c-1,0.4-1.3,1.6-1.3,2.6c0,1.1,0.4,2.1,1.2,2.9C17.4,16.4,18.2,15.6,17.7,15.1z"/>
			</g>
		</g>
	</g>
	<g>
		<path class="st2" d="M19.3,16.2c-0.1-0.1-0.3-0.1-0.5-0.1c-0.3,0-0.5,0.1-0.8,0.3c-0.3,0.2-0.5,0.6-0.5,0.9c0,0.1,0,0.2,0,0.3
			c0.1,0.2,0.2,0.3,0.3,0.4c0.2,0.1,0.4,0.2,0.6,0.3c0.8,0.1,1.6-0.7,1.3-1.5c0,0,0-0.1-0.1-0.1c0-0.1-0.1-0.1-0.1-0.2
			C19.6,16.4,19.5,16.3,19.3,16.2z"/>
	</g>
	<g>
		<g>
			<path class="st3" d="M17.6,27.5c0.4-0.9,1.7-2.3,2.6-2.9c1-0.6,1.5-0.7,2.8-0.7c1.2,0,2.2,0.6,3.4,0c-0.4,0.4-0.4,0.8-0.5,1.3
				c-0.1,0.6-0.1,0.8-0.4,1.3c-0.6,1.2-2.1,1.9-3.7,1.9S19,28.2,17.6,27.5L17.6,27.5z"/>
		</g>
		<g>
			<g>
				<path class="st0" d="M18.1,27.8c0.3-0.7,0.9-1.3,1.4-1.9c0.5-0.5,1.2-1,1.9-1.2c1.8-0.6,3.6,0.6,5.4-0.3
					c-0.2-0.3-0.4-0.6-0.7-0.9c-0.6,0.7-0.5,1.5-0.8,2.3s-0.9,1.4-1.6,1.7c-1.8,0.8-4,0.3-5.7-0.5c-0.6-0.3-1.2,0.6-0.5,0.9
					c2,0.9,4.3,1.5,6.4,0.7c0.9-0.3,1.8-0.9,2.2-1.8c0.2-0.4,0.4-0.8,0.5-1.2c0.1-0.5,0.1-1,0.4-1.3c0.4-0.5-0.1-1.1-0.7-0.9
					c-1,0.5-2.1-0.1-3.1-0.1c-0.8,0-1.6,0.1-2.4,0.4s-1.4,0.9-2,1.5c-0.6,0.6-1.2,1.2-1.5,2C16.8,27.9,17.8,28.4,18.1,27.8z"/>
			</g>
		</g>
	</g>
	<g>
		<g>
			<path class="st0" d="M18.2,27.5c1.8-0.1,3.7-0.4,5.3-1.3c0.6-0.3,0.1-1.3-0.5-0.9c-1.4,0.8-3.2,1-4.8,1.1c-0.3,0-0.5,0.2-0.5,0.5
				C17.6,27.3,17.9,27.6,18.2,27.5L18.2,27.5z"/>
		</g>
	</g>
	<g>
		<g>
			<path class="st0" d="M9.5,10.4c1.5-0.3,2.9-0.7,4.3-1.2c0.3-0.1,0.5-0.4,0.4-0.7c-0.1-0.3-0.4-0.5-0.7-0.4
				c-1.4,0.5-2.8,0.9-4.3,1.2c-0.3,0.1-0.4,0.4-0.4,0.7C8.9,10.4,9.2,10.5,9.5,10.4L9.5,10.4z"/>
		</g>
	</g>
	<g>
		<g>
			<path class="st0" d="M11.8,6.7c-0.5,1.7-1,3.4-1.5,5.2c-0.2,0.7,0.9,1,1,0.3c0.5-1.7,1-3.4,1.5-5.2C13.1,6.4,12,6.1,11.8,6.7
				L11.8,6.7z"/>
		</g>
	</g>
	<g>
		<g>
			<path class="st0" d="M9.4,7.9c1.2,1.3,2.4,2.6,3.6,4c0.2,0.2,0.6,0.2,0.8,0c0.2-0.2,0.2-0.6,0-0.8c-1.2-1.3-2.4-2.6-3.6-4
				c-0.2-0.2-0.6-0.2-0.8,0C9.2,7.3,9.2,7.7,9.4,7.9L9.4,7.9z"/>
		</g>
	</g>
	<g>
		<g>
			<path class="st0" d="M26.5,21.6c1.4-1.1,2.6-2.3,3.9-3.5c0.2-0.2,0.2-0.6,0-0.8c-0.2-0.2-0.5-0.2-0.8,0c-1.3,1.2-2.5,2.4-3.9,3.5
				c-0.2,0.2-0.2,0.6,0,0.8C25.9,21.8,26.2,21.8,26.5,21.6L26.5,21.6z"/>
		</g>
	</g>
	<g>
		<g>
			<path class="st0" d="M27,16.9c0.4,1.8,0.8,3.5,1.2,5.3c0.1,0.7,1.2,0.4,1-0.3c-0.4-1.8-0.8-3.5-1.2-5.3
				C27.9,15.9,26.9,16.2,27,16.9L27,16.9z"/>
		</g>
	</g>
	<g>
		<g>
			<path class="st0" d="M25.4,19c1.7,0.6,3.4,1.1,5.1,1.7c0.7,0.2,1-0.8,0.3-1c-1.7-0.6-3.4-1.1-5.1-1.7C25,17.8,24.8,18.8,25.4,19
				L25.4,19z"/>
		</g>
	</g>
</g>
</svg>
