<?xml version="1.0" encoding="utf-8"?>
<!-- Generator: Adobe Illustrator 25.4.1, SVG Export Plug-In . SVG Version: 6.00 Build 0)  -->
<svg version="1.1" id="레이어_1" xmlns="http://www.w3.org/2000/svg" xmlns:xlink="http://www.w3.org/1999/xlink" x="0px"
	 y="0px" viewBox="0 0 15.39 17.41" style="enable-background:new 0 0 15.39 17.41;" xml:space="preserve">
<style type="text/css">
	.st0{fill:#FFFFFF;}
	.st1{fill:#1E1E28;}
</style>
<g>
	<g>
		<g>
			<path class="st0" d="M5.01,13.55c-0.19,1.5-0.01,2.68,1.48,3.26c1.27,0.49,2.86,0.51,3.59-0.91c0.28-0.54,0.52-1.66,0.06-2.47"/>
		</g>
		<g>
			<g>
				<path class="st1" d="M4.47,13.55c-0.09,0.74-0.11,1.52,0.17,2.22c0.33,0.79,0.97,1.28,1.76,1.58c1.5,0.56,3.41,0.35,4.17-1.25
					c0.43-0.91,0.51-2.04,0.03-2.95c-0.33-0.62-1.26-0.07-0.93,0.55c0.29,0.55,0.2,1.26-0.02,1.83c-0.17,0.44-0.61,0.84-1.1,0.97
					c-0.53,0.14-1.12,0.05-1.67-0.13c-0.56-0.18-0.97-0.45-1.21-0.94c-0.09-0.18-0.16-0.53-0.17-0.76
					c-0.02-0.38,0.01-0.75,0.05-1.12C5.59,13.26,5.28,13,5.01,13C4.69,13,4.51,13.25,4.47,13.55L4.47,13.55z"/>
			</g>
		</g>
	</g>
	<g>
		<g>
			<path class="st0" d="M0.99,13.36c2.91,0,5.64,0,8.53,0c1.35,0,2.71-0.03,4.06-0.09c0.86-0.04,1.24,0,1.24-0.97
				c0-0.87-0.35-0.96-1.14-1.16c-0.76-0.19-1.14,0.06-1.35-0.82c-0.13-0.55-0.15-1.3-0.25-2.2c-0.14-1.3-0.35-2.92-1.34-3.82
				C8.8,2.51,4.89,2.44,3.77,5.48c-0.54,1.45-0.28,3.17-0.61,4.64c-0.26,1.16-0.84,0.8-1.83,1.13c-0.66,0.22-0.8,0.58-0.8,1.42
				C0.53,13.01,0.63,13.36,0.99,13.36z"/>
		</g>
		<g>
			<g>
				<path class="st1" d="M0.99,13.9c4.29,0,8.65,0.2,12.93-0.11c0.47-0.03,0.93-0.1,1.22-0.52c0.33-0.48,0.32-1.36,0.05-1.86
					c-0.24-0.45-0.71-0.63-1.18-0.75c-0.26-0.07-0.66-0.04-0.89-0.16c-0.28-0.14-0.28-0.42-0.33-0.74
					c-0.23-1.65-0.14-3.44-0.96-4.95C11.2,3.66,9.93,2.93,8.67,2.65C7.46,2.39,6.14,2.49,5.05,3.13C3.8,3.85,3.17,5.14,2.96,6.53
					C2.8,7.66,2.93,8.86,2.64,9.98c-0.09,0.36-0.15,0.47-0.51,0.56c-0.37,0.09-0.74,0.11-1.1,0.26c-0.61,0.24-0.93,0.7-1.01,1.34
					c-0.09,0.7-0.02,1.61,0.83,1.76c0.68,0.12,0.97-0.93,0.29-1.04c-0.11-0.02-0.07-0.59-0.02-0.71c0.09-0.24,0.21-0.29,0.45-0.38
					c0.47-0.17,1-0.11,1.43-0.38c1.01-0.64,0.86-2.43,0.92-3.45c0.07-1.35,0.24-2.83,1.41-3.69C6.2,3.6,7.36,3.47,8.39,3.7
					c1.08,0.24,2.11,0.82,2.59,1.85c0.62,1.33,0.55,2.9,0.73,4.32c0.06,0.47,0.13,1.02,0.49,1.37c0.33,0.32,0.76,0.31,1.17,0.39
					c0.49,0.09,0.9,0.12,0.91,0.67c0,0.34,0.03,0.32-0.21,0.41c-0.28,0.1-0.73,0.04-1.03,0.05C9.03,12.91,5,12.82,0.99,12.82
					C0.29,12.82,0.29,13.9,0.99,13.9z"/>
			</g>
		</g>
	</g>
	<g>
		<g>
			<path class="st0" d="M7.62,2.95C7.68,2.03,7.7,1.47,7.65,0.76"/>
		</g>
		<g>
			<g>
				<path class="st1" d="M8.16,2.95C8.2,2.22,8.24,1.49,8.19,0.76C8.18,0.48,7.96,0.2,7.65,0.22C7.37,0.23,7.09,0.45,7.11,0.76
					c0.04,0.73,0.01,1.46-0.03,2.19C7.06,3.24,7.34,3.51,7.62,3.49C7.93,3.48,8.14,3.26,8.16,2.95L8.16,2.95z"/>
			</g>
		</g>
	</g>
</g>
</svg>
