<?xml version="1.0" encoding="utf-8"?>
<!-- Generator: Adobe Illustrator 26.0.2, SVG Export Plug-In . SVG Version: 6.00 Build 0)  -->
<svg version="1.1" id="레이어_1" xmlns="http://www.w3.org/2000/svg" xmlns:xlink="http://www.w3.org/1999/xlink" x="0px"
	 y="0px" viewBox="0 0 40 40" style="enable-background:new 0 0 40 40;" xml:space="preserve">
<style type="text/css">
	.st0{fill:#FFD0A8;}
	.st1{fill:#282828;}
	.st2{fill:#D0FFFF;}
	.st3{fill:#E9C69E;}
	.st4{fill:#DAFFE4;}
	.st5{fill:#E4DAD0;}
</style>
<g>
	<g>
		<path class="st0" d="M34.3,30.8c0.2-5.4,0-6.2-0.1-10.4c0-1-1.2-1.7-2.5-1.7c-10.4,0-2.4-0.1-14.3,0h-9c-1.4,0-2.5,0.8-2.5,1.7
			c0,4.2-0.3,6.2-0.3,10.4c15.6,0,13.6,0,25.8,0H34.3z"/>
		<g>
			<path class="st1" d="M34.8,30.8c0.1-2.3,0.1-4.6,0-6.9c-0.1-1.6,0.5-4.1-1.1-5.1c-1.7-1.1-4.3-0.6-6.2-0.6c-0.8,0-1.6,0-2.4,0
				c-5.5-0.1-11-0.1-16.5,0c-1.7,0-3.2,0.7-3.3,2.6c-0.2,3.4-0.3,6.7-0.3,10.1c0,0.3,0.2,0.5,0.5,0.5c9.6,0,19.1,0,28.7,0
				c0.7,0,0.7-1.1,0-1.1c-9.6,0-19.1,0-28.7,0c0.2,0.2,0.4,0.4,0.5,0.5c0-2.5,0.1-5,0.2-7.6c0-0.7,0-1.3,0.1-2c0-1.2,0.4-1.8,1.6-2
				c0.4-0.1,0.7-0.1,1-0.1c2.6,0,5.2,0,7.7,0c4.2,0,8.5,0,12.7,0c1.5,0,4-0.4,4.2,1.6c0.1,1,0,2,0.1,3.1c0.1,2.3,0.1,4.6,0,6.9
				C33.7,31.5,34.8,31.5,34.8,30.8z"/>
		</g>
	</g>
	<g>
		<path class="st2" d="M8.6,21.6c0,1.2-0.1,1.5-0.1,2.7c1,0,2.7,0,3.7-0.1c0.1-0.9,0.1-2.1,0-2.7c-0.9,0-2,0-3,0L8.6,21.6z"/>
		<g>
			<path class="st1" d="M8.1,21.6c0,0.9-0.1,1.8-0.1,2.7c0,0.3,0.2,0.5,0.5,0.5c1.2,0,2.5,0,3.7-0.1c0.3,0,0.5-0.2,0.5-0.5
				c0.1-0.9,0.1-1.8,0-2.7c0-0.3-0.2-0.5-0.5-0.5c-1.2,0-2.5,0-3.7,0C8.3,21.1,8.1,21.3,8.1,21.6c0,0.3,0.2,0.5,0.5,0.5
				c1.2,0,2.5,0,3.7,0c-0.2-0.2-0.4-0.4-0.5-0.5c0,0.9,0,1.8,0,2.7c0.2-0.2,0.4-0.4,0.5-0.5c-1.2,0.1-2.5,0.1-3.7,0.1
				c0.2,0.2,0.4,0.4,0.5,0.5c0-0.9,0.1-1.8,0.1-2.7c0-0.3-0.2-0.5-0.5-0.5C8.3,21,8.1,21.3,8.1,21.6z"/>
		</g>
	</g>
	<g>
		<path class="st2" d="M27.7,21.6c0,1.2,0,1.5-0.1,2.7c1,0,2.7,0,3.7-0.1c0-0.9,0-1.5,0-2.7c-1,0-1.5,0-2.4,0L27.7,21.6z"/>
		<g>
			<path class="st1" d="M27.2,21.6c0,0.9,0,1.8-0.1,2.7c0,0.3,0.2,0.5,0.5,0.5c1.2,0,2.5,0,3.7-0.1c0.3,0,0.5-0.2,0.5-0.5
				c0-0.9,0-1.8,0-2.7c0-0.3-0.2-0.5-0.5-0.5c-1.2,0-2.5,0-3.7,0C27.4,21,27.2,21.3,27.2,21.6c0,0.3,0.2,0.5,0.5,0.5
				c1.2,0,2.5,0,3.7,0c-0.2-0.2-0.4-0.4-0.5-0.5c0,0.9,0,1.8,0,2.7c0.2-0.2,0.4-0.4,0.5-0.5c-1.2,0.1-2.5,0.1-3.7,0.1
				c0.2,0.2,0.4,0.4,0.5,0.5c0-0.9,0-1.8,0.1-2.7c0-0.3-0.2-0.5-0.5-0.5C27.4,21,27.2,21.3,27.2,21.6z"/>
		</g>
	</g>
	<g>
		<path class="st3" d="M26.4,15.4c-2.5-2.4-3.7-3.7-6.7-6.3c-2.7,2.8-3,3.2-6.1,6.3h1c0.1,0,0.1,0,0.2,0c0,6.3-0.1,9.6-0.1,15.4
			c4.2,0,6.3,0,9.6,0h0.8c0.1-7.5,0-8.6,0-15.4C25.3,15.4,26.2,15.4,26.4,15.4z"/>
		<g>
			<path class="st1" d="M26.8,15c-2.2-2.1-4.4-4.3-6.7-6.3c-0.2-0.2-0.6-0.2-0.8,0c-2,2.1-4,4.2-6.1,6.3c-0.3,0.3-0.1,0.9,0.4,0.9
				c0.4,0,0.8,0,1.2,0c-0.2-0.2-0.4-0.4-0.6-0.6c0,5.1-0.1,10.3-0.1,15.4c0,0.3,0.2,0.5,0.6,0.5c3.5,0,6.9,0,10.4,0
				c0.3,0,0.5-0.2,0.5-0.5c0-5.1,0-10.3,0-15.4c-0.2,0.2-0.4,0.4-0.5,0.6c0.4,0,0.9,0,1.3,0c0.7,0,0.7-1.1,0-1.1c-0.4,0-0.9,0-1.3,0
				c-0.3,0-0.5,0.2-0.5,0.6c0,5.2,0.1,10.3,0,15.4c0.2-0.2,0.4-0.4,0.5-0.5c-3.5,0-6.9,0-10.4,0c0.2,0.2,0.4,0.4,0.6,0.5
				c0-5.1,0.1-10.3,0.1-15.4c0-0.3-0.2-0.6-0.6-0.6c-0.4,0-0.8,0-1.2,0c0.1,0.3,0.3,0.6,0.4,0.9c2.1-2.1,4.1-4.2,6.1-6.3
				c-0.3,0-0.5,0-0.8,0c2.3,2,4.5,4.1,6.7,6.3C26.5,16.3,27.3,15.5,26.8,15z"/>
		</g>
	</g>
	<g>
		<path class="st4" d="M21.5,14c-0.7-0.4-1.4-0.6-2.2-0.4c-0.5,0.1-0.9,0.3-1.3,0.6c-0.3,0.3-0.6,0.6-0.7,1c-0.4,1-0.3,2.4,0.3,3.2
			c0.5,0.8,1.5,1.3,2.4,1.3c0.9,0,1.9-0.4,2.5-1.2C23.6,17.1,23.1,14.9,21.5,14z"/>
		<g>
			<path class="st1" d="M21.8,13.5c-1.5-0.8-3.4-0.7-4.5,0.7c-0.9,1.1-0.9,2.9-0.3,4.2c0.7,1.4,2.3,2.1,3.8,1.8
				c1.4-0.3,2.6-1.5,2.8-2.9C23.8,15.8,23.1,14.3,21.8,13.5c-0.6-0.4-1.1,0.6-0.5,0.9c0.8,0.5,1.3,1.3,1.3,2.2c0,1-0.5,1.9-1.5,2.3
				c-1,0.4-2.2,0.1-2.9-0.7c-0.6-0.8-0.8-2-0.4-2.9c0.6-1.3,2.2-1.5,3.4-0.9C21.8,14.8,22.4,13.8,21.8,13.5z"/>
		</g>
	</g>
	<g>
		<path class="st1" d="M20.3,16.9c0.2-0.1,0.5-0.2,0.7-0.3c0.2-0.1,0.4-0.2,0.6-0.3c0.2-0.1,0.4-0.5,0.2-0.7
			c-0.2-0.2-0.5-0.3-0.7-0.2c-0.2,0.1-0.4,0.2-0.6,0.3c-0.2,0.1-0.5,0.2-0.7,0.3c-0.2,0.1-0.4,0.5-0.2,0.7
			C19.7,17,20,17.1,20.3,16.9L20.3,16.9z"/>
	</g>
	<g>
		<path class="st1" d="M19.5,16.5c0,0.5,0,1.1,0,1.6c0,0.3,0.2,0.6,0.5,0.5c0.3,0,0.5-0.2,0.5-0.5c0-0.5,0-1.1,0-1.6
			c0-0.3-0.2-0.6-0.5-0.5C19.7,16,19.4,16.2,19.5,16.5L19.5,16.5z"/>
	</g>
	<g>
		<path class="st5" d="M22.9,30.8c0-2.1,0-2.6,0-4.5c0-1.6-0.2-2.6-1.4-3.3c-0.6-0.4-1.3-0.5-2-0.4c-0.4,0.1-0.9,0.3-1.2,0.6
			c-0.3,0.3-0.5,0.6-0.7,0.9c-0.1,0.4-0.2,1-0.2,1.4V27c-0.1,2-0.1,2.2-0.1,3.8L22.9,30.8L22.9,30.8z"/>
		<g>
			<path class="st1" d="M23.4,30.8c0-1.5,0-3,0-4.5c0-1.4-0.2-2.8-1.4-3.6c-1.5-1-3.6-0.8-4.6,0.8c-0.6,1-0.5,2.2-0.5,3.3
				c0,1.4-0.1,2.7-0.1,4c0,0.3,0.2,0.5,0.6,0.5c1.9,0,3.7,0,5.6,0c0.7,0,0.7-1.1,0-1.1c-1.9,0-3.7,0-5.6,0c0.2,0.2,0.4,0.4,0.5,0.5
				c0-1.1,0-2.2,0.1-3.4c0-0.8,0-1.5,0-2.3c0.1-0.7,0.3-1.3,0.9-1.7c0.7-0.4,1.5-0.4,2.2,0c1.1,0.6,1.2,1.8,1.2,3c0,1.5,0,3,0,4.4
				C22.3,31.6,23.4,31.6,23.4,30.8z"/>
		</g>
	</g>
	<g>
		<path class="st1" d="M19.7,23c0,2.6,0,5.2-0.1,7.7c0,0.7,1,0.7,1.1,0c0.1-2.6,0.1-5.1,0.1-7.7C20.8,22.3,19.7,22.3,19.7,23
			L19.7,23z"/>
	</g>
</g>
</svg>
