<?xml version="1.0" encoding="utf-8"?>
<!-- Generator: Adobe Illustrator 26.0.2, SVG Export Plug-In . SVG Version: 6.00 Build 0)  -->
<svg version="1.1" id="레이어_1" xmlns="http://www.w3.org/2000/svg" xmlns:xlink="http://www.w3.org/1999/xlink" x="0px"
	 y="0px" viewBox="0 0 40 40" style="enable-background:new 0 0 40 40;" xml:space="preserve">
<style type="text/css">
	.st0{fill:#D0D0D0;}
	.st1{fill:#282828;}
	.st2{fill:#FFE4E4;}
	.st3{fill:#FFC6D5;}
	.st4{fill:#FFC6BC;}
</style>
<g>
	<g>
		<path class="st0" d="M24.4,15.6c1.1-0.4,2.3-1.1,2.6-2.1c0.2,0.3,0.4,0.6,0.6,0.9c0.2,0.4,0.5,0.7,0.8,1c0.6,0.5,1,0.6,1.5,0.7
			c0-0.1,0-0.2,0-0.3c-0.1-1.5-0.7-2.9-2.1-3.6c-1.2-0.6-3-0.7-4.2,0c-0.9,0.5-1.3,1.4-1.6,2.4C22,14.9,22,15.4,22,15.9
			C22.8,15.9,23.7,15.8,24.4,15.6z"/>
		<g>
			<path class="st1" d="M24.6,16.1c1.3-0.4,2.5-1.2,3-2.5c-0.3,0-0.7,0.1-1,0.1c0.4,0.7,0.9,1.4,1.5,1.9c0.6,0.5,1.2,0.8,2,0.9
				c0.3,0,0.5-0.3,0.5-0.6c0.1-1.2-0.4-2.5-1.2-3.4c-0.8-0.9-2-1.4-3.2-1.5c-1.2-0.1-2.5,0.2-3.4,1.1c-1,1-1.3,2.4-1.3,3.8
				c0,0.3,0.2,0.5,0.5,0.6C22.9,16.5,23.7,16.4,24.6,16.1c0.7-0.2,0.4-1.3-0.3-1c-0.7,0.2-1.5,0.4-2.3,0.3c0.2,0.2,0.4,0.4,0.5,0.6
				c0-1,0.2-2.1,0.9-2.9c0.7-0.7,1.7-1,2.7-0.9c0.9,0.1,1.8,0.5,2.4,1.2c0.6,0.7,0.9,1.8,0.9,2.7c0.2-0.2,0.4-0.4,0.5-0.6
				c-1.2-0.1-1.9-1.4-2.5-2.3c-0.3-0.4-0.8-0.3-1,0.1c-0.3,0.9-1.3,1.5-2.2,1.8C23.6,15.3,23.9,16.3,24.6,16.1z"/>
		</g>
	</g>
	<g>
		<path class="st2" d="M28.5,15.3c-0.3-0.3-0.6-0.6-0.8-1c-0.2-0.3-0.4-0.6-0.6-0.9c-0.3,1.1-1.5,1.8-2.6,2.1
			c-0.8,0.3-1.6,0.4-2.4,0.3c0,1.3,0.5,2.6,1.6,3.3c0.4,0.3,0.9,0.4,1.3,0.5c1.5,0.4,3.4,0.2,4.3-1c0.6-0.8,0.8-1.8,0.7-2.7
			C29.5,15.9,29,15.8,28.5,15.3z"/>
		<g>
			<path class="st1" d="M28.8,14.9c-0.6-0.5-0.9-1.1-1.3-1.7c-0.3-0.4-0.8-0.3-1,0.1c-0.3,0.8-1,1.2-1.7,1.6
				c-0.9,0.4-1.9,0.6-2.8,0.5c-0.3,0-0.6,0.3-0.5,0.6c0,1.2,0.4,2.4,1.2,3.3c0.9,0.9,2.2,1.2,3.4,1.3c1.1,0,2.3-0.2,3.1-1
				c1-0.9,1.3-2.3,1.2-3.5c0-0.3-0.2-0.5-0.5-0.6C29.6,15.4,29.2,15.2,28.8,14.9c-0.2-0.2-0.5-0.2-0.8,0c-0.2,0.2-0.2,0.6,0,0.8
				c0.6,0.5,1.2,0.8,1.9,0.9c-0.2-0.2-0.4-0.4-0.5-0.6c0,1-0.1,2.1-0.9,2.8c-0.6,0.6-1.5,0.7-2.4,0.6c-0.9,0-2-0.3-2.6-1
				c-0.6-0.6-0.9-1.6-0.9-2.5c-0.2,0.2-0.3,0.4-0.5,0.6c2.1,0.1,4.8-0.7,5.6-2.9c-0.3,0-0.7,0.1-1,0.1c0.5,0.7,0.9,1.4,1.5,2
				C28.6,16.1,29.4,15.4,28.8,14.9z"/>
		</g>
	</g>
	<g>
		<path class="st0" d="M29.3,11.8c-0.7,0.3-1.6,0.1-2-0.5C27,10.7,27.4,9.8,28,9.6c0.4-0.2,1.2-0.1,1.5,0.2c0.4,0.3,0.6,0.9,0.5,1.4
			C29.9,11.4,29.6,11.7,29.3,11.8z"/>
		<g>
			<path class="st1" d="M29.1,11.3C28.9,11.4,29.2,11.3,29.1,11.3C29,11.3,29,11.4,29.1,11.3c-0.1,0-0.2,0.1-0.2,0.1c0,0-0.1,0,0,0
				c0.1,0,0,0,0,0c-0.1,0-0.1,0-0.2,0c0,0,0,0-0.1,0c-0.1,0,0.1,0,0,0c0,0-0.1,0-0.1,0c-0.1,0-0.1,0-0.2-0.1c-0.1,0,0.1,0.1,0,0
				c0,0-0.1,0-0.1-0.1c0,0-0.1-0.1-0.1-0.1c0,0,0.1,0.1,0,0c0,0,0-0.1-0.1-0.1c0,0,0,0,0-0.1c0,0,0,0,0,0c0,0,0,0,0,0
				c0,0-0.1-0.1-0.1-0.1c0,0,0,0,0,0.1c0,0,0,0,0-0.1c0,0,0,0,0-0.1c0-0.1,0,0.1,0,0c0,0,0,0,0-0.1s0-0.1,0-0.1c0-0.1,0,0,0,0
				c0,0,0-0.2,0-0.2c0,0,0,0,0-0.1c0-0.1,0,0.1,0,0c0,0,0-0.1,0.1-0.1c0,0,0.1-0.2,0.1-0.2c0,0-0.1,0.1,0,0c0,0,0,0,0.1-0.1
				c0,0,0,0,0.1-0.1c0,0,0.1,0,0,0c0,0,0.1-0.1,0.1-0.1c0,0,0,0,0,0c0,0,0.1,0,0.1,0c0,0,0.1,0,0.2,0c0.1,0-0.1,0,0,0c0,0,0,0,0.1,0
				c0.1,0,0.1,0,0.2,0c0,0,0.1,0,0.1,0c0.1,0-0.1,0,0,0c0.1,0,0.1,0,0.2,0.1c0,0,0.1,0,0.1,0c0,0-0.1-0.1,0,0c0,0,0.1,0.1,0.1,0.1
				c0,0-0.1-0.1,0,0c0,0,0,0,0.1,0.1c0,0,0,0.1,0.1,0.1c0.1,0.1,0-0.1,0,0c0,0.1,0.1,0.1,0.1,0.2c0,0,0,0.1,0,0c0,0,0,0.1,0,0.1
				s0,0.1,0,0.1c0,0.1,0-0.1,0,0c0,0,0,0.1,0,0.1c0,0.1,0-0.1,0,0c0,0,0,0.1,0,0.1c0,0.1,0-0.1,0,0c0,0,0,0.1,0,0.1c0-0.1,0-0.1,0,0
				c0,0,0,0,0,0c0,0,0,0-0.1,0.1c-0.1,0.1,0.1,0,0,0C29.2,11.3,29.1,11.3,29.1,11.3c-0.2,0.1-0.4,0.5-0.2,0.7
				c0.2,0.3,0.5,0.3,0.7,0.2c0.4-0.2,0.7-0.5,0.9-0.9c0.2-0.4,0.1-0.9-0.1-1.3c-0.1-0.4-0.4-0.7-0.8-0.9c-0.3-0.2-0.7-0.3-1.1-0.3
				c-0.3,0-0.7,0.1-1,0.3C27.3,9.4,27,9.6,26.9,10c-0.2,0.4-0.2,0.7-0.2,1.1c0.1,0.3,0.3,0.7,0.5,0.9c0.7,0.6,1.6,0.6,2.4,0.3
				c0.3-0.1,0.3-0.5,0.2-0.7C29.6,11.3,29.3,11.2,29.1,11.3z"/>
		</g>
	</g>
	<g>
		<path class="st2" d="M24.1,22.2c1.7,0.7,4.1,0.4,5.5-1c-1.8-1.5-4.3-1.9-6.1-0.3c-0.2,0.1-0.3,0.3-0.5,0.5
			C23.3,21.8,23.6,22.1,24.1,22.2z"/>
		<g>
			<path class="st1" d="M23.9,22.8c2,0.8,4.4,0.4,6-1.1c0.2-0.2,0.2-0.6,0-0.8c-1.1-0.9-2.3-1.5-3.7-1.5c-0.7,0-1.3,0.1-1.9,0.4
				c-0.7,0.3-1.2,0.8-1.7,1.3c-0.2,0.2-0.2,0.5,0,0.8c0.4,0.4,0.8,0.7,1.2,0.9c0.3,0.1,0.6,0.1,0.8-0.2c0.1-0.2,0.1-0.6-0.2-0.8
				c-0.4-0.2-0.7-0.4-1-0.7c0,0.3,0,0.5,0,0.8c0.4-0.4,0.8-0.8,1.4-1.1c0.5-0.2,1-0.3,1.5-0.3c1.1,0,2.1,0.5,3,1.2
				c0-0.3,0-0.5,0-0.8c-1.3,1.2-3.3,1.5-4.9,0.8c-0.3-0.1-0.6,0.1-0.7,0.4C23.4,22.4,23.6,22.7,23.9,22.8z"/>
		</g>
	</g>
	<g>
		<path class="st3" d="M33.4,29.9c-0.1-1.4-0.4-2.3-0.8-3.6c-0.6-1.9-1.5-3.7-3-5c0,0,0,0,0,0c-1.4,1.4-3.7,1.7-5.5,1
			c-0.4-0.2-0.8-0.5-1.1-0.8c-0.4,0.4-0.7,0.7-1,1.1c-1.7,2.1-2.5,4.7-3.3,7.3c-0.1,0.3-0.1,0.7,0.1,0.8c0.1,0,0.2,0,0.3,0
			c4.6,0.1,9.2,0.1,13.8,0.2c0.2,0,0.4,0,0.5-0.1C33.4,30.6,33.4,30.1,33.4,29.9z"/>
		<g>
			<path class="st1" d="M33.9,29.9c-0.2-1.8-0.7-3.5-1.4-5.2c-0.6-1.4-1.5-3.1-2.8-3.9c-0.2-0.1-0.5-0.1-0.7,0.1
				c-1.5,1.4-4.3,1.7-5.8,0.2c-0.2-0.2-0.6-0.2-0.8,0c-1.7,1.7-2.8,3.7-3.6,6c-0.2,0.6-0.4,1.3-0.6,1.9c-0.1,0.5-0.4,1-0.3,1.4
				c0.2,1.1,1.5,0.9,2.4,0.9c2.8,0,5.7,0.1,8.5,0.1c1.4,0,2.8,0.2,4.1,0C33.9,31.3,34,30.7,33.9,29.9c0-0.7-1.1-0.7-1.1,0
				c0,0.1,0,0.3,0,0.4c0,0.2,0.2,0.1-0.3,0.1c-0.5,0-1.1,0-1.6,0c-1.1,0-2.1,0-3.2,0c-2.2,0-4.4-0.1-6.6-0.1c-0.5,0-1.1,0-1.6,0
				c-0.1,0-0.5-0.1-0.4,0c0-0.1,0.2-0.6,0.2-0.7c0.3-0.9,0.5-1.8,0.9-2.6c0.7-1.9,1.7-3.6,3.2-5c-0.3,0-0.5,0-0.8,0
				c1.9,2,5.4,1.6,7.4-0.2c-0.2,0-0.4,0.1-0.7,0.1c1.2,0.7,1.9,2.4,2.4,3.7c0.6,1.4,1,3,1.2,4.5C32.9,30.6,34,30.6,33.9,29.9z"/>
		</g>
	</g>
	<g>
		<path class="st0" d="M17,9.6c-1.4-0.7-3.3-0.8-4.7,0c-0.9,0.6-1.5,1.6-1.8,2.7c2.8,0,5.7,0,8.5,0.1C18.8,11.2,18.2,10.2,17,9.6z"
			/>
		<g>
			<path class="st1" d="M17.3,9.1c-1.3-0.7-3-0.9-4.4-0.3c-1.5,0.6-2.4,1.9-2.8,3.4c-0.1,0.3,0.2,0.7,0.5,0.7c2.8,0,5.7,0,8.5,0.1
				c0.4,0,0.6-0.3,0.5-0.7C19.3,10.9,18.5,9.8,17.3,9.1c-0.6-0.3-1.2,0.6-0.5,0.9c1,0.5,1.5,1.4,1.9,2.4c0.2-0.2,0.4-0.5,0.5-0.7
				c-2.8,0-5.7,0-8.5-0.1c0.2,0.2,0.3,0.5,0.5,0.7c0.3-1.2,1-2.2,2.2-2.6c1.1-0.4,2.4-0.2,3.4,0.3C17.4,10.4,17.9,9.5,17.3,9.1z"/>
		</g>
	</g>
	<g>
		<path class="st2" d="M10.7,12.3C10.7,12.3,10.7,12.3,10.7,12.3c-0.5,2,0,4.3,1.6,5.3c0.4,0.3,1,0.5,1.5,0.6
			c1.7,0.4,3.8,0.2,4.8-1.2c0.7-1,0.9-2.2,0.8-3.4c0-0.4-0.1-0.9-0.3-1.3C16.3,12.4,13.5,12.3,10.7,12.3z"/>
		<g>
			<path class="st1" d="M10.1,12.2c-0.2,0.5-0.2,1.2-0.2,1.8c0,0.6,0.1,1.2,0.3,1.8c0.4,1.2,1.2,2.2,2.3,2.7c2.2,1,5.4,0.9,6.8-1.3
				c0.9-1.5,0.9-3.3,0.4-4.8c-0.1-0.2-0.3-0.4-0.5-0.4c-2.8,0-5.7,0-8.5-0.1c-0.7,0-0.7,1.1,0,1.1c2.8,0,5.7,0,8.5,0.1
				c-0.2-0.1-0.4-0.3-0.5-0.4c0.4,1.4,0.5,3.2-0.6,4.4c-0.8,0.9-2.2,1.1-3.4,1c-1.3-0.2-2.6-0.7-3.2-1.9c-0.3-0.5-0.4-1.1-0.5-1.7
				C11,13.7,11,13,11.2,12.5C11.5,11.8,10.4,11.5,10.1,12.2z"/>
		</g>
	</g>
	<g>
		<path class="st2" d="M18.4,19.7c-2-1.4-4.5-1.8-6.4-0.1c-0.1,0.1-0.2,0.2-0.3,0.3c1.3,0.7,2.6,1.4,3.8,2.1
			C16.4,21.2,17.4,20.4,18.4,19.7z"/>
		<g>
			<path class="st1" d="M18.7,19.2c-1.1-0.8-2.4-1.3-3.8-1.3c-1.4,0-2.6,0.6-3.6,1.6c-0.2,0.2-0.2,0.7,0.1,0.9
				c1.3,0.7,2.6,1.4,3.8,2.2c0.2,0.1,0.5,0.1,0.7-0.1c0.9-0.8,1.8-1.6,2.8-2.3c0.2-0.2,0.4-0.5,0.2-0.8c-0.1-0.2-0.5-0.4-0.8-0.2
				c-1,0.8-2.1,1.6-3,2.5c0.2,0,0.4-0.1,0.7-0.1c-1.2-0.8-2.5-1.5-3.8-2.1c0,0.3,0.1,0.6,0.1,0.9c0.8-0.8,1.8-1.3,2.9-1.3
				c1.1,0,2.2,0.5,3.1,1.1C18.7,20.5,19.2,19.6,18.7,19.2z"/>
		</g>
	</g>
	<g>
		<path class="st4" d="M22.3,25.6c-0.7-2.1-1.7-4.1-3.3-5.6c-0.2-0.1-0.4-0.2-0.5-0.3c-1,0.8-2,1.5-2.9,2.4
			c-1.2-0.8-2.5-1.5-3.8-2.1c-0.5,0.5-0.9,0.9-1.4,1.4c-1.9,2.4-2.8,5.3-3.7,8.2c-0.1,0.4-0.1,0.8,0.2,1c0.1,0,0.2,0.1,0.3,0.1
			c5.2,0.1,10.3,0.1,15.5,0.2c0.2,0,0.4,0,0.5-0.2c0.1-0.1,0.1-0.3,0.1-0.5C23.1,28.6,22.8,27,22.3,25.6z"/>
		<g>
			<path class="st1" d="M22.8,25.4c-0.8-2.4-1.9-4.9-4.1-6.2c-0.1-0.1-0.4-0.1-0.5,0c-1,0.8-2.1,1.6-3,2.5c0.2,0,0.4-0.1,0.7-0.1
				c-1.2-0.8-2.5-1.5-3.8-2.1c-0.2-0.1-0.5-0.1-0.7,0.1c-1.7,1.6-2.9,3.4-3.7,5.6c-0.4,1.1-0.8,2.2-1.2,3.4c-0.2,0.7-0.7,1.8,0,2.4
				c0.3,0.2,0.7,0.2,1.1,0.2c0.7,0,1.4,0,2.1,0c1.4,0,2.9,0,4.3,0c2.7,0,5.5,0.1,8.2,0.1c1.2,0,1.8-0.3,1.6-1.6
				C23.6,28.2,23.2,26.8,22.8,25.4c-0.2-0.7-1.3-0.4-1,0.3c0.4,1.2,1,2.8,0.9,4.1c0,0.4,0.1,0.3-0.4,0.4c-0.3,0-0.7,0-1,0
				c-0.7,0-1.3,0-2,0c-2.8,0-5.6-0.1-8.4-0.1c-0.7,0-1.4,0-2.1,0c-0.3,0-1.5,0.1-1.7,0c-0.2-0.2,0.4-1.4,0.5-1.6
				c0.2-0.6,0.4-1.2,0.6-1.8c0.9-2.4,2.1-4.5,3.9-6.3c-0.2,0-0.4,0.1-0.7,0.1c1.3,0.7,2.5,1.4,3.8,2.1c0.2,0.1,0.5,0.1,0.7-0.1
				c0.9-0.8,1.8-1.6,2.8-2.3c-0.2,0-0.4,0-0.6,0c1.9,1.2,2.9,3.5,3.6,5.6C22,26.4,23,26.1,22.8,25.4z"/>
		</g>
	</g>
	<g>
		<path class="st1" d="M13.4,16.4c1,0.6,2.2,0.7,3.2,0.1c0.2-0.2,0.4-0.5,0.2-0.7c-0.1-0.2-0.5-0.4-0.7-0.2
			c-0.1,0.1-0.2,0.1-0.2,0.1c0,0,0,0-0.1,0c0.1,0,0.1,0,0,0c-0.1,0-0.1,0-0.1,0.1c-0.1,0-0.2,0.1-0.3,0.1c-0.1,0-0.1,0,0,0
			c0,0-0.1,0-0.1,0c-0.1,0-0.1,0-0.1,0c-0.1,0-0.2,0-0.3,0c0.1,0,0,0-0.1,0c-0.1,0-0.1,0-0.2,0c-0.1,0-0.1,0-0.2-0.1
			c0,0-0.2-0.1-0.1,0c-0.1-0.1-0.2-0.1-0.4-0.2c-0.2-0.2-0.6-0.1-0.7,0.2C13.1,16,13.1,16.3,13.4,16.4L13.4,16.4z"/>
	</g>
	<g>
		<path class="st1" d="M25.2,18.5c0.3,0.1,0.7,0.2,1,0.2c0.4,0,0.8-0.1,1.2-0.3c0.2-0.1,0.4-0.5,0.2-0.7c-0.2-0.2-0.5-0.3-0.7-0.2
			c0,0-0.1,0-0.1,0.1c0,0,0.1,0,0.1-0.1c-0.1,0.1-0.3,0.1-0.4,0.1c0,0,0.1,0,0.1,0c-0.2,0-0.5,0-0.7,0c0,0,0.1,0,0.1,0
			c-0.2,0-0.4-0.1-0.5-0.1c-0.1-0.1-0.3,0-0.4,0c-0.1,0.1-0.2,0.2-0.2,0.3c0,0.1,0,0.3,0,0.4C25,18.4,25.1,18.5,25.2,18.5L25.2,18.5
			z"/>
	</g>
</g>
</svg>
