<?xml version="1.0" encoding="utf-8"?>
<!-- Generator: Adobe Illustrator 26.0.2, SVG Export Plug-In . SVG Version: 6.00 Build 0)  -->
<svg version="1.1" id="레이어_1" xmlns="http://www.w3.org/2000/svg" xmlns:xlink="http://www.w3.org/1999/xlink" x="0px"
	 y="0px" viewBox="0 0 40 40" style="enable-background:new 0 0 40 40;" xml:space="preserve">
<style type="text/css">
	.st0{fill:#FFFFFF;}
	.st1{fill:#282828;}
	.st2{fill:#D0FFFF;}
	.st3{fill:#DADADA;}
	.st4{fill:#E4283C;}
</style>
<g>
	<g>
		<path class="st0" d="M7.8,11.8c-0.2,5.8-0.2,15.5-0.3,21.2c4.9,0,12.9,0,16.7,0c0.2,0,0.5,0,0.7-0.2c0.1-0.1,0.2-0.3,0.2-0.5
			c0.1-7.2,0-13.9,0-20.5c-4,0.1-12.2-0.1-16.1,0C8.9,11.8,7.8,11.8,7.8,11.8z"/>
		<g>
			<path class="st1" d="M7.2,11.8C7,18.9,7.1,26,6.9,33.1c0,0.3,0.3,0.5,0.5,0.5c3.1,0,6.2,0,9.2,0c1.5,0,3,0,4.6,0
				c0.6,0,1.3,0,1.9,0c0.5,0,1.1,0.1,1.6-0.1c0.5-0.2,0.7-0.5,0.8-1c0.2-1,0-2.1,0-3c0-2,0-4,0-6c0-3.9,0-7.7,0-11.6
				c0-0.3-0.2-0.6-0.5-0.5c-5.7,0.1-11.5,0-17.2,0c-0.7,0-0.7,1.1,0,1.1c5.7,0,11.5,0.1,17.2,0c-0.2-0.2-0.4-0.4-0.5-0.5
				c0,3.5,0,6.9,0,10.4c0,1.9,0,3.7,0,5.6c0,1,0,1.9,0,2.9c0,0.4,0.1,0.9,0,1.2c-0.2,0.7-0.4,0.6-0.9,0.6c-5.4,0-10.8,0-16.2,0
				c0.2,0.2,0.4,0.4,0.5,0.5C8.1,26,8.1,18.9,8.3,11.8C8.4,11.2,7.3,11.2,7.2,11.8z"/>
		</g>
	</g>
	<g>
		<g>
			<path class="st2" d="M15.1,14.6c0,1.2,0,2.1-0.1,3.3c0.8,0,1.6,0,2.3-0.1c0.1-1.3,0.1-2,0-3.3c-0.7,0-1.1,0-1.8,0L15.1,14.6z"/>
			<g>
				<path class="st1" d="M14.6,14.6c0,1.1,0,2.2-0.1,3.3c0,0.3,0.2,0.5,0.5,0.5c0.8,0,1.6,0,2.3-0.1c0.3,0,0.5-0.2,0.5-0.5
					c0.1-1.1,0.1-2.2,0-3.3c0-0.3-0.2-0.5-0.5-0.5c-0.8,0-1.5,0-2.3,0C14.8,14.1,14.6,14.3,14.6,14.6c0,0.3,0.2,0.6,0.5,0.5
					c0.8,0,1.5,0,2.3,0c-0.2-0.2-0.4-0.4-0.5-0.5c0,1.1,0,2.2,0,3.3c0.2-0.2,0.4-0.4,0.5-0.5c-0.8,0.1-1.6,0.1-2.3,0.1
					c0.2,0.2,0.4,0.4,0.5,0.5c0-1.1,0-2.2,0.1-3.3c0-0.3-0.2-0.6-0.5-0.5C14.8,14.1,14.6,14.3,14.6,14.6z"/>
			</g>
		</g>
		<g>
			<path class="st2" d="M19.7,14.6c0,1.2,0,2.1,0,3.3c0.8,0,1.6,0,2.3-0.1c0.1-1.3,0.1-2,0-3.3c-0.7,0-1.1,0-1.8,0L19.7,14.6z"/>
			<g>
				<path class="st1" d="M19.2,14.6c0,1.1,0,2.2,0,3.3c0,0.3,0.2,0.5,0.5,0.5c0.8,0,1.6,0,2.3-0.1c0.3,0,0.5-0.2,0.5-0.5
					c0.1-1.1,0.1-2.2,0-3.3c0-0.3-0.2-0.5-0.5-0.5c-0.8,0-1.5,0-2.3,0C19.4,14.1,19.2,14.3,19.2,14.6c0,0.3,0.2,0.6,0.5,0.5
					c0.8,0,1.5,0,2.3,0c-0.2-0.2-0.4-0.4-0.5-0.5c0,1.1,0,2.2,0,3.3c0.2-0.2,0.4-0.4,0.5-0.5c-0.8,0.1-1.5,0.1-2.3,0.1
					c0.2,0.2,0.4,0.4,0.5,0.5c0-1.1,0-2.2,0-3.3c0-0.3-0.2-0.6-0.5-0.5C19.4,14.1,19.2,14.3,19.2,14.6z"/>
			</g>
		</g>
		<g>
			<path class="st2" d="M15.1,20.1c0,1.2,0,2.1-0.1,3.3c0.8,0,1.6,0,2.3-0.1c0.1-1.3,0.1-2,0-3.2c-0.7,0-1.1,0-1.8,0L15.1,20.1z"/>
			<g>
				<path class="st1" d="M14.6,20.1c0,1.1,0,2.2-0.1,3.3c0,0.3,0.2,0.5,0.5,0.5c0.8,0,1.6,0,2.3-0.1c0.3,0,0.5-0.2,0.5-0.5
					c0.1-1.1,0.1-2.2,0-3.2c0-0.3-0.2-0.5-0.5-0.5c-0.8,0-1.5,0-2.3,0C14.8,19.5,14.6,19.8,14.6,20.1c0,0.3,0.2,0.6,0.5,0.5
					c0.8,0,1.5,0,2.3,0c-0.2-0.2-0.4-0.4-0.5-0.5c0,1.1,0,2.2,0,3.3c0.2-0.2,0.4-0.4,0.5-0.5c-0.8,0.1-1.6,0.1-2.3,0.1
					c0.2,0.2,0.4,0.4,0.5,0.5c0-1.1,0-2.2,0.1-3.3c0-0.3-0.2-0.5-0.5-0.5C14.8,19.5,14.6,19.8,14.6,20.1z"/>
			</g>
		</g>
		<g>
			<path class="st2" d="M10.6,14.6c0,1.2,0,2.1-0.1,3.3c0.8,0,1.6,0,2.3-0.1c0.1-1.3,0.1-2,0-3.3c-0.7,0-1.1,0-1.8,0L10.6,14.6z"/>
			<g>
				<path class="st1" d="M10,14.6c0,1.1,0,2.2,0,3.3c0,0.3,0.2,0.5,0.5,0.5c0.8,0,1.6,0,2.3-0.1c0.3,0,0.5-0.2,0.5-0.5
					c0.1-1.1,0.1-2.2,0-3.3c0-0.3-0.2-0.5-0.5-0.5c-0.8,0-1.5,0-2.3,0C10.3,14.1,10,14.3,10,14.6c0,0.3,0.2,0.6,0.5,0.5
					c0.8,0,1.5,0,2.3,0c-0.2-0.2-0.4-0.4-0.5-0.5c0,1.1,0,2.2,0,3.3c0.2-0.2,0.4-0.4,0.5-0.5c-0.8,0.1-1.6,0.1-2.3,0.1
					c0.2,0.2,0.4,0.4,0.5,0.5c0-1.1,0-2.2,0.1-3.3c0-0.3-0.2-0.6-0.5-0.5C10.3,14.1,10,14.3,10,14.6z"/>
			</g>
		</g>
		<g>
			<path class="st2" d="M10.6,20.1c0,1.2,0,2.1-0.1,3.3c0.8,0,1.6,0,2.3-0.1c0.1-1.3,0.1-2,0-3.2c-0.7,0-1.1,0-1.8,0L10.6,20.1z"/>
			<g>
				<path class="st1" d="M10,20.1c0,1.1,0,2.2,0,3.3c0,0.3,0.2,0.5,0.5,0.5c0.8,0,1.6,0,2.3-0.1c0.3,0,0.5-0.2,0.5-0.5
					c0.1-1.1,0.1-2.2,0-3.2c0-0.3-0.2-0.5-0.5-0.5c-0.8,0-1.5,0-2.3,0C10.3,19.5,10,19.8,10,20.1c0,0.3,0.2,0.6,0.5,0.5
					c0.8,0,1.5,0,2.3,0c-0.2-0.2-0.4-0.4-0.5-0.5c0,1.1,0,2.2,0,3.3c0.2-0.2,0.4-0.4,0.5-0.5c-0.8,0.1-1.6,0.1-2.3,0.1
					c0.2,0.2,0.4,0.4,0.5,0.5c0-1.1,0-2.2,0.1-3.3c0-0.3-0.2-0.5-0.5-0.5C10.3,19.5,10,19.8,10,20.1z"/>
			</g>
		</g>
		<g>
			<path class="st2" d="M19.7,20.1c0,1.2,0,2.1,0,3.3c0.8,0,1.6,0,2.3-0.1c0.1-1.3,0.1-2,0-3.2c-0.7,0-1.1,0-1.8,0L19.7,20.1z"/>
			<g>
				<path class="st1" d="M19.2,20.1c0,1.1,0,2.2,0,3.3c0,0.3,0.2,0.5,0.5,0.5c0.8,0,1.6,0,2.3-0.1c0.3,0,0.5-0.2,0.5-0.5
					c0.1-1.1,0.1-2.2,0-3.2c0-0.3-0.2-0.5-0.5-0.5c-0.8,0-1.5,0-2.3,0C19.4,19.5,19.2,19.8,19.2,20.1c0,0.3,0.2,0.6,0.5,0.5
					c0.8,0,1.5,0,2.3,0c-0.2-0.2-0.4-0.4-0.5-0.5c0,1.1,0,2.2,0,3.3c0.2-0.2,0.4-0.4,0.5-0.5c-0.8,0.1-1.5,0.1-2.3,0.1
					c0.2,0.2,0.4,0.4,0.5,0.5c0-1.1,0-2.2,0-3.3c0-0.3-0.2-0.5-0.5-0.5C19.4,19.5,19.2,19.8,19.2,20.1z"/>
			</g>
		</g>
	</g>
	<g>
		<path class="st3" d="M19.1,33.1c0-0.9,0-1.6,0-3.5c0-1.6-0.2-2.6-1.4-3.3c-0.6-0.4-1.3-0.5-2.1-0.4c-0.4,0.1-0.9,0.3-1.2,0.6
			c-0.3,0.3-0.5,0.6-0.7,0.9c-0.1,0.4-0.2,1-0.2,1.4v1.4c-0.1,2-0.1,2.3-0.1,2.8L19.1,33.1L19.1,33.1z"/>
		<g>
			<path class="st1" d="M19.6,33.1c0-1.2,0-2.5,0-3.7c0-1.4-0.3-2.7-1.5-3.5c-1.5-1-3.7-0.6-4.6,0.9c-0.6,1-0.4,2.2-0.4,3.3
				c0,1-0.1,2-0.1,3c0,0.3,0.3,0.5,0.6,0.5c1.9,0,3.7,0,5.6,0c0.7,0,0.7-1.1,0-1.1c-1.9,0-3.7,0-5.6,0c0.2,0.2,0.4,0.4,0.6,0.5
				c0-0.8,0.1-1.6,0.1-2.4c0-0.8,0-1.6,0-2.4c0.1-0.7,0.3-1.3,0.9-1.6c0.6-0.4,1.4-0.4,2.1-0.1c0.5,0.2,0.9,0.6,1.1,1.1
				c0.2,0.5,0.2,1.1,0.2,1.6c0,1.3,0,2.5,0,3.8C18.5,33.8,19.6,33.8,19.6,33.1z"/>
		</g>
	</g>
	<g>
		<path class="st0" d="M29.2,7.6C28.5,7.2,27.8,7,27,6.9c-1.7-0.3-3.8,0.6-5,1.8c-0.5,0.4-0.8,1-1.1,1.5c-0.2,0.4-0.4,0.9-0.5,1.4
			c-0.3,1.5-0.1,3,0.7,4.3c0.6,1.1,1.6,1.8,2.7,2.5c0.7,0.4,1.4,0.6,2.2,0.6c1.3,0,2.5-0.4,3.5-1.1c1.2-0.8,2.2-2,2.6-3.4
			C33.1,11.8,31.7,8.9,29.2,7.6z"/>
		<g>
			<path class="st1" d="M29.5,7.1C27,5.8,24.1,6.2,22,8c-2.2,1.9-2.7,5.3-1.5,7.9c1.3,2.5,4.2,4.1,7,3.5c2.6-0.6,5-2.8,5.5-5.5
				C33.5,11.2,31.9,8.4,29.5,7.1C28.9,6.7,28.3,7.7,29,8c1.7,0.9,3,2.8,3,4.8c0,2.2-1.5,4.2-3.5,5.2c-1.1,0.5-2.5,0.7-3.7,0.3
				c-1-0.4-2.1-1.2-2.8-2c-1.5-1.9-1.5-4.8,0-6.7C23.7,7.5,26.6,6.8,29,8C29.6,8.3,30.1,7.4,29.5,7.1z"/>
		</g>
	</g>
	<g>
		<path class="st4" d="M23,11.9c0,0.7-0.1,1.4-0.1,2.1c0.9,0,1.6,0,2.4,0c0,0.9,0,1.6,0,2.5c0.8,0,1.5-0.1,2.3-0.1
			c-0.1-0.9,0-1.6-0.1-2.4c0.7,0,1.3-0.1,2,0c0-0.6,0-0.9-0.1-1.5l0-0.7l-2.1,0c0-0.7,0-1.7-0.1-2.3c-0.6,0-0.8,0-1.5,0l-0.4,0
			c0,0.8,0,1.4,0,2.2c-0.9,0-1.6,0-2.4,0L23,11.9z"/>
		<g>
			<path class="st1" d="M22.4,11.9c0,0.7-0.1,1.4-0.1,2.1c0,0.3,0.2,0.5,0.5,0.5c0.8,0,1.6,0,2.4,0c-0.2-0.2-0.4-0.4-0.5-0.5
				c0,0.8,0,1.7,0,2.5c0,0.3,0.2,0.6,0.5,0.5c0.8,0,1.6-0.1,2.3-0.1c0.3,0,0.6-0.2,0.5-0.5c0-0.8,0-1.6-0.1-2.4
				c-0.2,0.2-0.4,0.4-0.5,0.5c0.7,0,1.4-0.1,2,0c0.3,0,0.5-0.2,0.5-0.5c0-0.8,0-1.5-0.1-2.3c0-0.3-0.2-0.5-0.5-0.5
				c-0.7,0-1.4,0-2.1,0c0.2,0.2,0.4,0.4,0.5,0.5c0-0.8,0-1.6-0.1-2.3c0-0.3-0.2-0.6-0.5-0.5c-0.6,0-1.3,0-1.9,0
				c-0.3,0-0.5,0.2-0.5,0.5c0,0.8,0,1.5,0,2.2c0.2-0.2,0.4-0.4,0.5-0.5c-0.8,0-1.6,0-2.4,0c-0.3,0-0.5,0.2-0.5,0.5
				C22.4,11.7,22.4,11.8,22.4,11.9c0,0.7,1,0.7,1.1,0c0-0.1,0-0.2,0-0.3c-0.2,0.2-0.4,0.4-0.5,0.5c0.8,0,1.6,0,2.4,0
				c0.3,0,0.5-0.2,0.5-0.5c0-0.8,0-1.5,0-2.2c-0.2,0.2-0.4,0.4-0.5,0.5c0.6,0,1.3,0,1.9,0c-0.2-0.2-0.4-0.4-0.5-0.5
				c0,0.8,0,1.6,0.1,2.3c0,0.3,0.2,0.5,0.5,0.5c0.7,0,1.4,0,2.1,0c-0.2-0.2-0.4-0.4-0.5-0.5c0,0.8,0.1,1.5,0.1,2.3
				c0.2-0.2,0.4-0.4,0.5-0.5c-0.7,0-1.4,0.1-2,0c-0.3,0-0.5,0.2-0.5,0.5c0,0.8,0,1.6,0.1,2.4c0.2-0.2,0.4-0.4,0.5-0.5
				c-0.8,0-1.6,0.1-2.3,0.1c0.2,0.2,0.4,0.4,0.5,0.5c0-0.8,0-1.7,0-2.5c0-0.3-0.2-0.6-0.5-0.5c-0.8,0-1.6,0-2.4,0
				c0.2,0.2,0.4,0.4,0.5,0.5c0-0.7,0-1.4,0.1-2.1C23.6,11.2,22.5,11.2,22.4,11.9z"/>
		</g>
	</g>
	<g>
		<path class="st1" d="M16.9,32.9c-0.2-2.2-0.2-4.3-0.1-6.5c0-0.7-1.1-0.7-1.1,0c-0.1,2.2-0.1,4.4,0.1,6.5
			C15.9,33.6,17,33.6,16.9,32.9L16.9,32.9z"/>
	</g>
</g>
</svg>
