<?xml version="1.0" encoding="utf-8"?>
<!-- Generator: Adobe Illustrator 26.0.2, SVG Export Plug-In . SVG Version: 6.00 Build 0)  -->
<svg version="1.1" id="레이어_1" xmlns="http://www.w3.org/2000/svg" xmlns:xlink="http://www.w3.org/1999/xlink" x="0px"
	 y="0px" viewBox="0 0 40 40" style="enable-background:new 0 0 40 40;" xml:space="preserve">
<style type="text/css">
	.st0{fill:#282828;}
	.st1{fill:#FFD56E;}
	.st2{fill:#FFD0DA;}
	.st3{clip-path:url(#SVGID_00000013172877822717946460000009707957539518556817_);}
	.st4{fill:#FFA7CF;}
	.st5{clip-path:url(#SVGID_00000087399404860433190500000002771437853500028297_);}
	.st6{clip-path:url(#SVGID_00000148646942235844516950000006647440962484346519_);}
	.st7{clip-path:url(#SVGID_00000049187044338302956020000017667414936225246899_);}
	.st8{clip-path:url(#SVGID_00000016755342444758884270000002958456528552105382_);}
	.st9{clip-path:url(#SVGID_00000020361783537274408820000002611919090179260604_);}
</style>
<g>
	<g>
		<path class="st0" d="M23.9,11c-0.3,0.7-0.5,1.6-0.3,2.3c0.2,0.8,0.8,1.3,0.8,2.1c0.1,0.8-0.5,1.2-0.8,1.8c-0.4,0.6-0.4,1.3-0.4,2
			c0,0.7,1.1,0.7,1.1,0c0-0.3,0-0.7,0.1-1c0.1-0.4,0.3-0.6,0.5-0.9c0.4-0.6,0.7-1.1,0.7-1.8c0-0.7-0.3-1.4-0.6-2.1
			c-0.2-0.4-0.4-0.7-0.3-1.1c0-0.4,0.2-0.8,0.4-1.2C25.2,10.6,24.2,10.4,23.9,11L23.9,11z"/>
	</g>
	<g>
		<path class="st1" d="M26.8,9.1c-0.2,0.6-0.6,1.2-1.1,1.6c-0.3,0.2-0.7,0.4-1.1,0.4c-0.3,0-0.6,0-0.9-0.1c-0.5-0.2-1-0.5-1.4-1
			c-0.4-0.6-0.7-1.3-0.6-2c0.1-0.6,0.5-1.2,1-1.5c0.3-0.2,0.5-0.3,0.9-0.3c1-0.2,2,0.2,2.7,1c0.2,0.2,0.3,0.4,0.4,0.7
			C26.9,8.2,26.9,8.7,26.8,9.1z"/>
		<g>
			<path class="st0" d="M26.3,9c-0.2,0.7-0.8,1.4-1.5,1.5c-0.8,0.1-1.7-0.5-2.1-1.2c-0.4-0.7-0.5-1.6,0.1-2.2
				c0.6-0.6,1.5-0.7,2.2-0.4C25.9,7.1,26.5,8,26.3,9c-0.2,0.7,0.9,1,1,0.3c0.2-0.7,0.1-1.4-0.2-2c-0.2-0.5-0.7-1-1.3-1.3
				c-1.1-0.6-2.4-0.6-3.4,0.1c-1,0.8-1.4,2.1-1,3.3c0.5,1.2,1.5,2.1,2.8,2.2c1.4,0.1,2.6-1,3-2.3C27.5,8.6,26.5,8.3,26.3,9z"/>
		</g>
	</g>
	<g>
		<path class="st1" d="M31.3,14.4c-0.4,0.6-1.1,0.9-1.9,0.9c-0.7,0-1.4-0.4-1.8-1c-0.5-0.6-0.5-1.7-0.2-2.4c0.1-0.3,0.3-0.6,0.5-0.8
			c0.3-0.2,0.6-0.4,1-0.5c0.6-0.1,1.2,0,1.7,0.3C31.8,11.6,32.1,13.3,31.3,14.4z"/>
		<g>
			<path class="st0" d="M30.9,14c-0.5,0.6-1.3,0.9-2.1,0.6c-0.7-0.3-1.1-1-1.1-1.8c0-0.4,0-0.7,0.3-1.1c0.2-0.3,0.6-0.6,1-0.6
				c0.4-0.1,0.8,0,1.2,0.2c0.3,0.2,0.6,0.4,0.7,0.7c0.4,0.6,0.4,1.4-0.1,2c-0.2,0.2,0,0.6,0.2,0.7c0.3,0.2,0.6,0,0.7-0.2
				c0.6-0.9,0.6-2,0.2-2.9c-0.5-1.1-1.7-1.8-2.9-1.7c-0.7,0.1-1.3,0.3-1.7,0.8c-0.4,0.5-0.6,1-0.7,1.6c-0.1,1.2,0.4,2.3,1.4,2.9
				c1.2,0.7,2.8,0.4,3.6-0.7c0.2-0.2,0.2-0.5,0-0.8C31.5,13.8,31.1,13.7,30.9,14z"/>
		</g>
	</g>
	<g>
		<path class="st0" d="M28.6,15.5c0.4,0.8,0.5,1.7,0.2,2.6c-0.3,0.9-0.5,1.8-0.2,2.8c0.1,0.3,0.4,0.5,0.7,0.4
			c0.3-0.1,0.5-0.4,0.4-0.7c-0.3-0.9,0.1-1.8,0.3-2.7c0.2-1,0-2-0.5-3c-0.1-0.3-0.5-0.3-0.7-0.2C28.5,14.9,28.5,15.3,28.6,15.5
			L28.6,15.5z"/>
	</g>
	<g>
		<path class="st2" d="M8.2,27.1c-0.1,1-0.4,2.3-0.4,3.2c0,0.4-0.1,0.8-0.3,1.1c-0.4,0.6-1.2,0.6-1.3,1.3c0,0.7,0.9,1.1,1.6,1.1
			c1.2,0,2.5,0.1,3.7-0.2c0.4-0.1,0.9-0.4,0.9-0.8c0.1-0.5-0.3-0.7-0.5-1c-0.2-0.4-0.3-0.8-0.3-1.3c-0.1-4.3,1.1-9.8,6.4-11.3
			c0.9-0.3,3-0.2,4,0.1c2.2,0.8,3.3,1.4,4.5,3.1c1,1.4,1.5,3.3,1.9,5.4c0.2,1.1,0.5,4,0.2,4.5c-0.3,0.5-0.9,0.6-0.9,0.9
			c0,0.2,0.1,0.3,0.4,0.5c1.5,0.6,2.7,0.5,4.5,0c0.3-0.1,1.2-0.5,1.3-0.8c0.1-0.4-0.3-0.6-0.6-0.9c-0.8-0.9-1-2.6-1.2-4.1
			c-0.6-3-1.3-6.4-3.2-8.8c-2.6-3.1-7.9-4.5-11.7-3.4c-1,0.3-3.1,1.4-4,2c-2.2,1.7-4.2,4.6-4.6,8.2L8.2,27.1z"/>
		<g>
			<path class="st0" d="M7.7,27.1C7.6,28,7.5,29,7.3,30c-0.1,0.4-0.2,1-0.5,1.4c-0.1,0.1-0.3,0.2-0.5,0.3c-0.2,0.2-0.4,0.3-0.5,0.5
				c-0.6,1.2,0.7,2,1.7,2.1c1.4,0.2,4.1,0.4,5.2-0.8c0.3-0.4,0.5-0.8,0.3-1.3c-0.1-0.3-0.4-0.5-0.5-0.8c-0.3-0.6-0.2-1.4-0.2-2.1
				c0.1-3.4,1.2-7.3,4.4-9.1c3.7-2,8.6-0.1,10.2,3.7c0.8,1.9,1.1,4,1.3,6c0.1,0.8,0.2,1.6-0.4,2.2c-0.4,0.4-0.8,0.6-0.6,1.2
				c0.4,1.2,2.9,1.1,3.8,1c0.9-0.1,3.3-0.4,3.4-1.7c0.1-0.7-0.5-1-0.8-1.5c-0.6-0.9-0.7-2.1-0.9-3.1c-0.4-2.1-0.8-4.3-1.6-6.3
				c-1.4-3.5-4-5.8-7.5-6.8c-3.8-1.1-7.6-0.4-10.8,2c-3.2,2.4-4.4,5.9-5,9.8c-0.1,0.7,0.9,1,1,0.3c0.5-3.3,1.3-6.2,3.9-8.6
				c2.6-2.4,6.1-3.3,9.4-2.7c3.9,0.7,6.8,3.1,8.1,6.9c0.6,1.8,1,3.6,1.3,5.5c0.1,0.8,0.3,1.6,0.5,2.4c0.2,0.6,0.7,1.1,0.9,1.6
				c0.2,0.8-1.2,0.9-1.9,1c-0.5,0.1-0.9,0.1-1.4,0.1c-0.2,0-0.6-0.1-0.8-0.2c-0.4-0.2-0.4,0-0.3-0.3c0.1-0.4,0.6-0.6,0.7-1.1
				c0.1-0.6,0-1.2,0-1.8c-0.2-3.1-0.8-6.5-2.9-8.8c-1.9-2.1-5-3.1-7.8-2.7c-2.7,0.4-4.9,2.4-6.1,4.8c-1.2,2.6-1.8,6.1-0.9,8.8
				c0,0.1,0.3,0.3,0.3,0.4c0,0.4-0.7,0.6-0.9,0.7c-0.6,0.2-1.3,0.1-2,0.1c-0.6,0-1.6,0.2-1.8-0.5c-0.1-0.6,0.1-0.4,0.5-0.8
				c0.5-0.5,0.6-1.1,0.6-1.7c0.1-1.1,0.3-2.2,0.4-3.2C8.9,26.4,7.8,26.4,7.7,27.1z"/>
		</g>
	</g>
	<g>
		<g>
			<defs>
				<path id="SVGID_1_" d="M8.2,27.1c-0.1,1-0.4,2.3-0.4,3.2c0,0.4-0.1,0.8-0.3,1.1c-0.4,0.6-1.2,0.6-1.3,1.3c0,0.7,0.9,1.1,1.6,1.1
					c1.2,0,2.5,0.1,3.7-0.2c0.4-0.1,0.9-0.4,0.9-0.8c0.1-0.5-0.3-0.7-0.5-1c-0.2-0.4-0.3-0.8-0.3-1.3c-0.1-4.3,1.1-9.8,6.4-11.3
					c0.9-0.3,3-0.2,4,0.1c2.2,0.8,3.3,1.4,4.5,3.1c1,1.4,1.5,3.3,1.9,5.4c0.2,1.1,0.5,4,0.2,4.5c-0.3,0.5-0.9,0.6-0.9,0.9
					c0,0.2,0.1,0.3,0.4,0.5c1.5,0.6,2.7,0.5,4.5,0c0.3-0.1,1.2-0.5,1.3-0.8c0.1-0.4-0.3-0.6-0.6-0.9c-0.8-0.9-1-2.6-1.2-4.1
					c-0.6-3-1.3-6.4-3.2-8.8c-2.6-3.1-7.9-4.5-11.7-3.4c-1,0.3-3.1,1.4-4,2c-2.2,1.7-4.2,4.6-4.6,8.2L8.2,27.1z"/>
			</defs>
			<clipPath id="SVGID_00000085230991271838655180000012897358048291265715_">
				<use xlink:href="#SVGID_1_"  style="overflow:visible;"/>
			</clipPath>
			<g style="clip-path:url(#SVGID_00000085230991271838655180000012897358048291265715_);">
				<path class="st4" d="M14.2,26.3c-2.6-1.1-5.6-0.9-8,0.4l0.1,2.2c2-1.3,4.5-1.5,6.7-0.6L14.2,26.3z"/>
				<g>
					<path class="st0" d="M14.4,25.7c-2.7-1.1-5.8-0.9-8.4,0.5c-0.2,0.1-0.3,0.3-0.3,0.5c0,0.7,0,1.5,0,2.2c0,0.4,0.5,0.7,0.8,0.5
						c1.9-1.2,4.2-1.4,6.3-0.5c0.2,0.1,0.5-0.1,0.6-0.2c0.4-0.7,0.8-1.4,1.2-2.1c0.4-0.6-0.6-1.1-0.9-0.5c-0.4,0.7-0.8,1.4-1.2,2.1
						c0.2-0.1,0.4-0.2,0.6-0.2c-2.3-0.9-5-0.7-7.1,0.6c0.3,0.2,0.5,0.3,0.8,0.5c0-0.7,0-1.5-0.1-2.2c-0.1,0.2-0.2,0.3-0.3,0.5
						c2.3-1.2,5.1-1.4,7.6-0.4c0.3,0.1,0.6-0.1,0.7-0.4C14.8,26.1,14.6,25.9,14.4,25.7z"/>
				</g>
			</g>
		</g>
		<g>
			<defs>
				<path id="SVGID_00000082366876610356953110000006414286632039074945_" d="M8.2,27.1c-0.1,1-0.4,2.3-0.4,3.2
					c0,0.4-0.1,0.8-0.3,1.1c-0.4,0.6-1.2,0.6-1.3,1.3c0,0.7,0.9,1.1,1.6,1.1c1.2,0,2.5,0.1,3.7-0.2c0.4-0.1,0.9-0.4,0.9-0.8
					c0.1-0.5-0.3-0.7-0.5-1c-0.2-0.4-0.3-0.8-0.3-1.3c-0.1-4.3,1.1-9.8,6.4-11.3c0.9-0.3,3-0.2,4,0.1c2.2,0.8,3.3,1.4,4.5,3.1
					c1,1.4,1.5,3.3,1.9,5.4c0.2,1.1,0.5,4,0.2,4.5c-0.3,0.5-0.9,0.6-0.9,0.9c0,0.2,0.1,0.3,0.4,0.5c1.5,0.6,2.7,0.5,4.5,0
					c0.3-0.1,1.2-0.5,1.3-0.8c0.1-0.4-0.3-0.6-0.6-0.9c-0.8-0.9-1-2.6-1.2-4.1c-0.6-3-1.3-6.4-3.2-8.8c-2.6-3.1-7.9-4.5-11.7-3.4
					c-1,0.3-3.1,1.4-4,2c-2.2,1.7-4.2,4.6-4.6,8.2L8.2,27.1z"/>
			</defs>
			<clipPath id="SVGID_00000053509467042364082890000004003394162657227658_">
				<use xlink:href="#SVGID_00000082366876610356953110000006414286632039074945_"  style="overflow:visible;"/>
			</clipPath>
			<g style="clip-path:url(#SVGID_00000053509467042364082890000004003394162657227658_);">
				<path class="st4" d="M15.9,22.3c-1.9-2-4.7-3.2-7.3-3.1l-0.7,1.9c2.2-0.2,4.6,0.7,6.2,2.4L15.9,22.3z"/>
				<g>
					<path class="st0" d="M16.3,21.9c-2-2.1-4.8-3.3-7.7-3.3c-0.3,0-0.4,0.2-0.5,0.4c-0.2,0.6-0.5,1.3-0.7,1.9
						c-0.1,0.3,0.2,0.7,0.5,0.7c2.2-0.2,4.3,0.7,5.8,2.2c0.2,0.2,0.5,0.2,0.7,0.1c0.6-0.4,1.2-0.8,1.8-1.2c0.6-0.4,0-1.3-0.6-0.9
						c-0.6,0.4-1.2,0.8-1.8,1.2c0.2,0,0.4,0.1,0.7,0.1c-1.7-1.7-4.2-2.8-6.6-2.6C8,20.8,8.2,21,8.4,21.2c0.2-0.6,0.5-1.3,0.7-1.9
						c-0.2,0.1-0.3,0.3-0.5,0.4c2.6,0,5.1,1.1,6.9,3C16,23.2,16.8,22.4,16.3,21.9z"/>
				</g>
			</g>
		</g>
		<g>
			<defs>
				<path id="SVGID_00000043420072970510236590000004899524380362559398_" d="M8.2,27.1c-0.1,1-0.4,2.3-0.4,3.2
					c0,0.4-0.1,0.8-0.3,1.1c-0.4,0.6-1.2,0.6-1.3,1.3c0,0.7,0.9,1.1,1.6,1.1c1.2,0,2.5,0.1,3.7-0.2c0.4-0.1,0.9-0.4,0.9-0.8
					c0.1-0.5-0.3-0.7-0.5-1c-0.2-0.4-0.3-0.8-0.3-1.3c-0.1-4.3,1.1-9.8,6.4-11.3c0.9-0.3,3-0.2,4,0.1c2.2,0.8,3.3,1.4,4.5,3.1
					c1,1.4,1.5,3.3,1.9,5.4c0.2,1.1,0.5,4,0.2,4.5c-0.3,0.5-0.9,0.6-0.9,0.9c0,0.2,0.1,0.3,0.4,0.5c1.5,0.6,2.7,0.5,4.5,0
					c0.3-0.1,1.2-0.5,1.3-0.8c0.1-0.4-0.3-0.6-0.6-0.9c-0.8-0.9-1-2.6-1.2-4.1c-0.6-3-1.3-6.4-3.2-8.8c-2.6-3.1-7.9-4.5-11.7-3.4
					c-1,0.3-3.1,1.4-4,2c-2.2,1.7-4.2,4.6-4.6,8.2L8.2,27.1z"/>
			</defs>
			<clipPath id="SVGID_00000098912032122874730910000005869214511355245712_">
				<use xlink:href="#SVGID_00000043420072970510236590000004899524380362559398_"  style="overflow:visible;"/>
			</clipPath>
			<g style="clip-path:url(#SVGID_00000098912032122874730910000005869214511355245712_);">
				<path class="st4" d="M19.8,20.8c-0.6-2.8-2.3-5.3-4.5-6.7l-1.6,1.2c2,1,3.5,3.2,4,5.5L19.8,20.8z"/>
				<g>
					<path class="st0" d="M20.4,20.6c-0.6-2.8-2.3-5.4-4.8-7c-0.1-0.1-0.4-0.1-0.6,0c-0.5,0.4-1.1,0.8-1.6,1.2
						c-0.3,0.2-0.4,0.7,0,0.9c1.9,1.1,3.3,3,3.7,5.2c0,0.2,0.3,0.4,0.5,0.4c0.7,0,1.4,0,2.2,0c0.7,0,0.7-1.1,0-1.1
						c-0.7,0-1.4,0-2.2,0c0.2,0.1,0.4,0.3,0.5,0.4c-0.5-2.4-2-4.6-4.2-5.8c0,0.3,0,0.6,0,0.9c0.5-0.4,1.1-0.8,1.6-1.2
						c-0.2,0-0.4,0-0.6,0c2.2,1.4,3.7,3.8,4.3,6.4C19.5,21.6,20.5,21.3,20.4,20.6z"/>
				</g>
			</g>
		</g>
		<g>
			<defs>
				<path id="SVGID_00000121258621032131765290000007306424334255305097_" d="M8.2,27.1c-0.1,1-0.4,2.3-0.4,3.2
					c0,0.4-0.1,0.8-0.3,1.1c-0.4,0.6-1.2,0.6-1.3,1.3c0,0.7,0.9,1.1,1.6,1.1c1.2,0,2.5,0.1,3.7-0.2c0.4-0.1,0.9-0.4,0.9-0.8
					c0.1-0.5-0.3-0.7-0.5-1c-0.2-0.4-0.3-0.8-0.3-1.3c-0.1-4.3,1.1-9.8,6.4-11.3c0.9-0.3,3-0.2,4,0.1c2.2,0.8,3.3,1.4,4.5,3.1
					c1,1.4,1.5,3.3,1.9,5.4c0.2,1.1,0.5,4,0.2,4.5c-0.3,0.5-0.9,0.6-0.9,0.9c0,0.2,0.1,0.3,0.4,0.5c1.5,0.6,2.7,0.5,4.5,0
					c0.3-0.1,1.2-0.5,1.3-0.8c0.1-0.4-0.3-0.6-0.6-0.9c-0.8-0.9-1-2.6-1.2-4.1c-0.6-3-1.3-6.4-3.2-8.8c-2.6-3.1-7.9-4.5-11.7-3.4
					c-1,0.3-3.1,1.4-4,2c-2.2,1.7-4.2,4.6-4.6,8.2L8.2,27.1z"/>
			</defs>
			<clipPath id="SVGID_00000167391345263433756670000000188007919930759053_">
				<use xlink:href="#SVGID_00000121258621032131765290000007306424334255305097_"  style="overflow:visible;"/>
			</clipPath>
			<g style="clip-path:url(#SVGID_00000167391345263433756670000000188007919930759053_);">
				<path class="st4" d="M23.7,22.2c1.3-2.5,1.6-5.5,0.8-8.1l-2-0.2c0.8,2.1,0.7,4.7-0.4,6.8L23.7,22.2z"/>
				<g>
					<path class="st0" d="M24.1,22.5c1.3-2.6,1.7-5.7,0.8-8.5c-0.1-0.2-0.3-0.4-0.5-0.4c-0.7-0.1-1.3-0.1-2-0.2
						c-0.3,0-0.6,0.4-0.5,0.7c0.8,2.1,0.6,4.4-0.4,6.4c-0.1,0.2-0.1,0.5,0.1,0.7c0.5,0.5,1.1,1,1.6,1.5c0.5,0.5,1.3-0.3,0.8-0.8
						c-0.5-0.5-1.1-1-1.6-1.5c0,0.2,0.1,0.4,0.1,0.7c1.1-2.2,1.4-4.9,0.5-7.2c-0.2,0.2-0.4,0.5-0.5,0.7c0.7,0.1,1.3,0.1,2,0.2
						c-0.2-0.1-0.4-0.3-0.5-0.4c0.8,2.5,0.5,5.3-0.7,7.7C22.9,22.6,23.8,23.1,24.1,22.5z"/>
				</g>
			</g>
		</g>
		<g>
			<defs>
				<path id="SVGID_00000026132604114236354480000005726770983333366677_" d="M8.2,27.1c-0.1,1-0.4,2.3-0.4,3.2
					c0,0.4-0.1,0.8-0.3,1.1c-0.4,0.6-1.2,0.6-1.3,1.3c0,0.7,0.9,1.1,1.6,1.1c1.2,0,2.5,0.1,3.7-0.2c0.4-0.1,0.9-0.4,0.9-0.8
					c0.1-0.5-0.3-0.7-0.5-1c-0.2-0.4-0.3-0.8-0.3-1.3c-0.1-4.3,1.1-9.8,6.4-11.3c0.9-0.3,3-0.2,4,0.1c2.2,0.8,3.3,1.4,4.5,3.1
					c1,1.4,1.5,3.3,1.9,5.4c0.2,1.1,0.5,4,0.2,4.5c-0.3,0.5-0.9,0.6-0.9,0.9c0,0.2,0.1,0.3,0.4,0.5c1.5,0.6,2.7,0.5,4.5,0
					c0.3-0.1,1.2-0.5,1.3-0.8c0.1-0.4-0.3-0.6-0.6-0.9c-0.8-0.9-1-2.6-1.2-4.1c-0.6-3-1.3-6.4-3.2-8.8c-2.6-3.1-7.9-4.5-11.7-3.4
					c-1,0.3-3.1,1.4-4,2c-2.2,1.7-4.2,4.6-4.6,8.2L8.2,27.1z"/>
			</defs>
			<clipPath id="SVGID_00000168800206152159338820000013132412780163196325_">
				<use xlink:href="#SVGID_00000026132604114236354480000005726770983333366677_"  style="overflow:visible;"/>
			</clipPath>
			<g style="clip-path:url(#SVGID_00000168800206152159338820000013132412780163196325_);">
				<path class="st4" d="M26.1,25.4c2.3-1.6,3.9-4.1,4.4-6.8l-1.7-1.1c-0.2,2.3-1.6,4.5-3.5,5.8L26.1,25.4z"/>
				<g>
					<path class="st0" d="M26.4,25.8c2.4-1.7,4.1-4.2,4.6-7.1c0-0.2,0-0.5-0.2-0.6c-0.6-0.4-1.1-0.7-1.7-1.1
						c-0.4-0.2-0.8,0.1-0.8,0.5c-0.2,2.1-1.5,4.1-3.2,5.4c-0.2,0.1-0.3,0.4-0.2,0.6c0.3,0.7,0.5,1.4,0.8,2.1c0.2,0.6,1.3,0.4,1-0.3
						c-0.3-0.7-0.5-1.4-0.8-2.1c-0.1,0.2-0.2,0.4-0.2,0.6c2.1-1.5,3.5-3.8,3.8-6.3c-0.3,0.2-0.5,0.3-0.8,0.5
						c0.6,0.4,1.1,0.7,1.7,1.1c-0.1-0.2-0.2-0.4-0.2-0.6c-0.5,2.6-2,5-4.1,6.5C25.3,25.3,25.8,26.2,26.4,25.8z"/>
				</g>
			</g>
		</g>
		<g>
			<defs>
				<path id="SVGID_00000039849663870293996440000004775676256872585133_" d="M8.2,27.1c-0.1,1-0.4,2.3-0.4,3.2
					c0,0.4-0.1,0.8-0.3,1.1c-0.4,0.6-1.2,0.6-1.3,1.3c0,0.7,0.9,1.1,1.6,1.1c1.2,0,2.5,0.1,3.7-0.2c0.4-0.1,0.9-0.4,0.9-0.8
					c0.1-0.5-0.3-0.7-0.5-1c-0.2-0.4-0.3-0.8-0.3-1.3c-0.1-4.3,1.1-9.8,6.4-11.3c0.9-0.3,3-0.2,4,0.1c2.2,0.8,3.3,1.4,4.5,3.1
					c1,1.4,1.5,3.3,1.9,5.4c0.2,1.1,0.5,4,0.2,4.5c-0.3,0.5-0.9,0.6-0.9,0.9c0,0.2,0.1,0.3,0.4,0.5c1.5,0.6,2.7,0.5,4.5,0
					c0.3-0.1,1.2-0.5,1.3-0.8c0.1-0.4-0.3-0.6-0.6-0.9c-0.8-0.9-1-2.6-1.2-4.1c-0.6-3-1.3-6.4-3.2-8.8c-2.6-3.1-7.9-4.5-11.7-3.4
					c-1,0.3-3.1,1.4-4,2c-2.2,1.7-4.2,4.6-4.6,8.2L8.2,27.1z"/>
			</defs>
			<clipPath id="SVGID_00000024685213733308474330000015244706285963438742_">
				<use xlink:href="#SVGID_00000039849663870293996440000004775676256872585133_"  style="overflow:visible;"/>
			</clipPath>
			<g style="clip-path:url(#SVGID_00000024685213733308474330000015244706285963438742_);">
				<path class="st4" d="M26.8,29.7c2.7-0.3,5.4-1.7,7-3.9l-1-1.8c-1.2,1.9-3.4,3.2-5.7,3.5L26.8,29.7z"/>
				<g>
					<path class="st0" d="M26.8,30.3c2.9-0.3,5.6-1.8,7.4-4.2c0.1-0.1,0.1-0.4,0-0.5c-0.3-0.6-0.7-1.2-1-1.8c-0.2-0.4-0.7-0.3-0.9,0
						c-1.2,1.8-3.2,3-5.3,3.2c-0.3,0-0.5,0.2-0.5,0.5c-0.1,0.7-0.2,1.5-0.2,2.2C26.2,30,26.5,30.3,26.8,30.3c0.3,0,0.5-0.2,0.5-0.5
						c0.1-0.7,0.2-1.5,0.2-2.2c-0.2,0.2-0.4,0.4-0.5,0.5c2.5-0.3,4.8-1.6,6.2-3.7c-0.3,0-0.6,0-0.9,0c0.3,0.6,0.6,1.2,1,1.8
						c0-0.2,0-0.4,0-0.5c-1.5,2-4,3.4-6.5,3.6c-0.3,0-0.5,0.2-0.5,0.5C26.2,30,26.5,30.3,26.8,30.3z"/>
				</g>
			</g>
		</g>
	</g>
	<g>
		<path class="st0" d="M7.7,27.1C7.6,28,7.5,29,7.3,30c-0.1,0.4-0.2,1-0.5,1.4c-0.1,0.1-0.3,0.2-0.5,0.3c-0.2,0.2-0.4,0.3-0.5,0.5
			c-0.6,1.2,0.7,2,1.7,2.1c1.4,0.2,4.1,0.4,5.2-0.8c0.3-0.4,0.5-0.8,0.3-1.3c-0.1-0.3-0.4-0.5-0.5-0.8c-0.3-0.6-0.2-1.4-0.2-2.1
			c0.1-3.4,1.2-7.3,4.4-9.1c3.7-2,8.6-0.1,10.2,3.7c0.8,1.9,1.1,4,1.3,6c0.1,0.8,0.2,1.6-0.4,2.2c-0.4,0.4-0.8,0.6-0.6,1.2
			c0.4,1.2,2.9,1.1,3.8,1c0.9-0.1,3.3-0.4,3.4-1.7c0.1-0.7-0.5-1-0.8-1.5c-0.6-0.9-0.7-2.1-0.9-3.1c-0.4-2.1-0.8-4.3-1.6-6.3
			c-1.4-3.5-4-5.8-7.5-6.8c-3.8-1.1-7.6-0.4-10.8,2c-3.2,2.4-4.4,5.9-5,9.8c-0.1,0.7,0.9,1,1,0.3c0.5-3.3,1.3-6.2,3.9-8.6
			c2.6-2.4,6.1-3.3,9.4-2.7c3.9,0.7,6.8,3.1,8.1,6.9c0.6,1.8,1,3.6,1.3,5.5c0.1,0.8,0.3,1.6,0.5,2.4c0.2,0.6,0.7,1.1,0.9,1.6
			c0.2,0.8-1.2,0.9-1.9,1c-0.5,0.1-0.9,0.1-1.4,0.1c-0.2,0-0.6-0.1-0.8-0.2c-0.4-0.2-0.4,0-0.3-0.3c0.1-0.4,0.6-0.6,0.7-1.1
			c0.1-0.6,0-1.2,0-1.8c-0.2-3.1-0.8-6.5-2.9-8.8c-1.9-2.1-5-3.1-7.8-2.7c-2.7,0.4-4.9,2.4-6.1,4.8c-1.2,2.6-1.8,6.1-0.9,8.8
			c0,0.1,0.3,0.3,0.3,0.4c0,0.4-0.7,0.6-0.9,0.7c-0.6,0.2-1.3,0.1-2,0.1c-0.6,0-1.6,0.2-1.8-0.5c-0.1-0.6,0.1-0.4,0.5-0.8
			c0.5-0.5,0.6-1.1,0.6-1.7c0.1-1.1,0.3-2.2,0.4-3.2C8.9,26.4,7.8,26.4,7.7,27.1z"/>
	</g>
</g>
</svg>
