<?xml version="1.0" encoding="utf-8"?>
<!-- Generator: Adobe Illustrator 26.0.2, SVG Export Plug-In . SVG Version: 6.00 Build 0)  -->
<svg version="1.1" id="레이어_1" xmlns="http://www.w3.org/2000/svg" xmlns:xlink="http://www.w3.org/1999/xlink" x="0px"
	 y="0px" viewBox="0 0 40 40" style="enable-background:new 0 0 40 40;" xml:space="preserve">
<style type="text/css">
	.st0{fill:#FFD978;}
	.st1{fill:#282828;}
	.st2{fill:#E4E4E4;}
</style>
<g>
	<g>
		<path class="st0" d="M19.6,10.3c-1.8,0.2-2.1,0.1-4,0.2c0.9,1,1,1.3,1.7,2c-1,0.8-5.6,5-6.7,5.8c-0.1,0.1-0.2,0.2-0.2,0.3
			c0,0.1,0.1,0.2,0.1,0.2c0.7,0.7,1.4,1.4,2,2.1c1-1.3,5.5-5.9,6.3-6.9c0.7,0.6,1.2,1.2,1.8,1.8c0.3-2.1,0.4-3.5,0.6-5.6L19.6,10.3z
			"/>
		<g>
			<path class="st1" d="M19.6,9.8c-1.3,0.1-2.7,0.1-4,0.2c-0.5,0-0.7,0.6-0.4,0.9c0.6,0.7,1.1,1.4,1.7,2c0-0.3,0-0.5,0-0.8
				c-1.6,1.2-3,2.6-4.5,4c-0.7,0.6-1.3,1.2-2,1.8c-0.5,0.4-0.6,0.9-0.2,1.4c0.6,0.7,1.4,1.4,2,2.1c0.2,0.2,0.6,0.2,0.8,0
				c1.9-2.4,4.3-4.5,6.3-6.9c-0.3,0-0.5,0-0.8,0c0.6,0.6,1.2,1.2,1.8,1.8c0.3,0.3,0.8,0.2,0.9-0.2c0.3-1.9,0.4-3.8,0.6-5.7
				c0-0.3-0.3-0.6-0.5-0.6C20.7,9.8,20.1,9.8,19.6,9.8c-0.7,0-0.7,1.1,0,1.1c0.6,0,1.2,0,1.8,0c-0.2-0.2-0.4-0.4-0.5-0.5
				c-0.2,1.8-0.3,3.6-0.6,5.5c0.3-0.1,0.6-0.2,0.9-0.2c-0.6-0.6-1.2-1.2-1.8-1.8c-0.2-0.2-0.6-0.2-0.8,0c-2,2.4-4.3,4.4-6.3,6.9
				c0.3,0,0.5,0,0.8,0c-0.3-0.4-0.7-0.7-1-1.1c-0.3-0.3-0.6-0.7-0.9-0.9c-0.2-0.2-0.2-0.2-0.2,0.2c0,0,0.1-0.1,0.1-0.1
				c0.1,0,0.1-0.1,0.1-0.1c0.1-0.1,0.2-0.2,0.3-0.3c0.7-0.6,1.4-1.2,2.1-1.8c1.4-1.2,2.7-2.5,4.1-3.6c0.2-0.2,0.2-0.6,0-0.8
				c-0.6-0.6-1.1-1.3-1.7-2c-0.1,0.3-0.3,0.6-0.4,0.9c1.3,0,2.7,0,4-0.2C20.3,10.8,20.3,9.7,19.6,9.8z"/>
		</g>
	</g>
	<g>
		<path class="st2" d="M12.5,24.4c0,1.4,0,3.9,0,5.3h3.2c7.1,0,8.5,0,13.9-0.1V13.9c-2.1-0.1-3.6-0.1-5.7-0.1c0,2.1-0.1,3.4-0.1,5.3
			c-1.8,0.1-3.3,0-5.4,0c0,2.2,0,3.5-0.1,5.2c-1.9,0-1.6,0.1-3.6,0.1L12.5,24.4z"/>
		<g>
			<path class="st1" d="M11.9,24.4c0,1.8,0,3.5,0,5.3c0,0.3,0.2,0.5,0.5,0.5c5.7,0,11.4,0,17-0.1c0.3,0,0.5-0.2,0.5-0.5
				c0-4.6,0-9.1,0-13.7c0-0.7,0-1.3,0-2c0-0.3-0.2-0.5-0.5-0.5c-1.9-0.1-3.8-0.1-5.7-0.1c-0.3,0-0.5,0.2-0.5,0.5
				c0,1.8-0.1,3.5-0.1,5.3c0.2-0.2,0.4-0.4,0.5-0.5c-1.8,0.1-3.6,0-5.4,0c-0.3,0-0.5,0.2-0.5,0.5c0,1.7,0,3.5,0,5.2
				c0.2-0.2,0.4-0.4,0.5-0.5c-1.9,0-3.8,0.1-5.7,0.1c-0.7,0-0.7,1.1,0,1.1c1.9,0,3.8-0.1,5.7-0.1c0.3,0,0.5-0.2,0.5-0.5
				c0-1.7,0.1-3.5,0.1-5.2c-0.2,0.2-0.4,0.4-0.5,0.5c1.8,0,3.6,0.1,5.4,0c0.3,0,0.5-0.2,0.5-0.5c0-1.8,0.1-3.5,0.1-5.3
				c-0.2,0.2-0.4,0.4-0.5,0.5c1.9,0,3.8,0.1,5.7,0.1c-0.2-0.2-0.4-0.4-0.5-0.5c0,4.6,0,9.1,0,13.7c0,0.6,0,1.3,0,2
				c0.2-0.2,0.4-0.4,0.5-0.5c-5.7,0.1-11.4,0.1-17,0.1c0.2,0.2,0.4,0.4,0.5,0.5c0-1.8,0-3.5,0-5.3C13,23.7,11.9,23.7,11.9,24.4z"/>
		</g>
	</g>
</g>
</svg>
