<?xml version="1.0" encoding="utf-8"?>
<!-- Generator: Adobe Illustrator 26.0.2, SVG Export Plug-In . SVG Version: 6.00 Build 0)  -->
<svg version="1.1" id="레이어_1" xmlns="http://www.w3.org/2000/svg" xmlns:xlink="http://www.w3.org/1999/xlink" x="0px"
	 y="0px" viewBox="0 0 40 40" style="enable-background:new 0 0 40 40;" xml:space="preserve">
<style type="text/css">
	.st0{fill:#BCBCBC;}
	.st1{fill:#282828;}
	.st2{fill:#FFB395;}
	.st3{fill:#FFD1BD;}
</style>
<g>
	<g>
		<path class="st0" d="M9.5,12.9c-0.4,0.5-1,1.2-1.3,1.8c0.7,0.9,1.2,1.6,1.6,2.2c0,0,0,0.1,0.1,0.1c0,0,0.1,0,0.1,0
			c0.8-0.2,1.5-0.4,2.3-0.6c0.2-1,0.2-1.8,0.4-2.8c-1.2-0.4-1.5-0.6-2.8-1.1L9.5,12.9z"/>
		<g>
			<path class="st1" d="M9,12.6c-0.4,0.6-0.9,1.1-1.3,1.8c-0.1,0.2-0.1,0.5,0.1,0.6c0.5,0.7,1,1.3,1.5,2c0.2,0.3,0.4,0.4,0.8,0.4
				c0.2,0,0.5-0.1,0.8-0.2c0.5-0.1,1.1-0.3,1.6-0.5c0.2,0,0.3-0.2,0.4-0.4c0.2-0.9,0.2-1.9,0.4-2.8c0.1-0.3-0.1-0.6-0.4-0.7
				c-1-0.3-1.7-0.7-2.6-1.1c-0.3-0.1-0.6-0.1-0.7,0.2C9.3,12.2,9.1,12.4,9,12.6c-0.2,0.2,0,0.6,0.2,0.7c0.3,0.2,0.6,0.1,0.7-0.2
				c0.1-0.2,0.3-0.4,0.4-0.6c-0.2,0.1-0.5,0.1-0.7,0.2c0.9,0.4,1.9,0.8,2.9,1.2c-0.1-0.2-0.3-0.4-0.4-0.7c-0.1,0.9-0.2,1.9-0.4,2.8
				c0.1-0.1,0.3-0.2,0.4-0.4c-0.8,0.2-1.6,0.5-2.4,0.7c0.1,0,0.2,0,0.3,0c0,0,0,0-0.1,0c0.1,0,0.2,0.1,0.2,0.1c0.1,0,0,0,0,0
				c0,0-0.1-0.1-0.1-0.1c-0.1-0.1-0.1-0.2-0.2-0.2c-0.1-0.2-0.2-0.4-0.4-0.5c-0.3-0.4-0.7-0.9-1-1.3c0,0.2,0.1,0.4,0.1,0.7
				c0.4-0.6,0.9-1.2,1.3-1.8c0.2-0.2,0-0.6-0.2-0.7C9.5,12.3,9.2,12.4,9,12.6z"/>
		</g>
	</g>
	<g>
		<path class="st0" d="M16.9,13.1c-0.3-1.1-0.8-2.2-1.7-3.1c-0.4,0.8-0.8,1.5-1.1,2.3C15.1,12.6,16,12.9,16.9,13.1z"/>
		<g>
			<path class="st1" d="M17.4,13c-0.3-1.2-0.9-2.3-1.8-3.3c-0.2-0.2-0.7-0.2-0.9,0.1c-0.4,0.8-0.8,1.6-1.1,2.4
				c-0.1,0.3,0.1,0.6,0.4,0.7c0.9,0.2,1.8,0.5,2.7,0.8c0.3,0.1,0.6-0.1,0.7-0.4c0.1-0.3-0.1-0.6-0.4-0.7c-0.9-0.3-1.8-0.6-2.7-0.8
				c0.1,0.2,0.2,0.4,0.4,0.7c0,0,0.1-0.1,0-0.1c0,0,0-0.1,0.1-0.1c0-0.1,0.1-0.2,0.1-0.3c0.1-0.2,0.2-0.4,0.3-0.6
				c0.2-0.4,0.4-0.7,0.6-1.1c-0.3,0-0.6,0.1-0.9,0.1c0.1,0.1,0.2,0.2,0.3,0.3c0,0,0,0.1,0.1,0.1c0.1,0.1,0-0.1,0,0
				c0,0.1,0.1,0.1,0.1,0.2c0.2,0.2,0.3,0.5,0.4,0.7c0.1,0.1,0.1,0.2,0.2,0.4c0,0,0,0.1,0.1,0.1c0,0,0,0.1,0,0.1s0,0,0,0.1
				c0,0,0,0.1,0,0.1c0.1,0.3,0.2,0.6,0.3,0.8c0.1,0.3,0.4,0.5,0.7,0.4C17.3,13.6,17.5,13.3,17.4,13z"/>
		</g>
	</g>
	<g>
		<path class="st0" d="M10.5,7.9c-1-0.1-2,0-2.9,0.4c-0.4,0.2-0.7,0.4-1,0.6C6.5,9,6.4,9.1,6.3,9.2c1,0.4,2.1,0.9,3.1,1.2
			C9.8,9.6,10.2,8.7,10.5,7.9z"/>
		<g>
			<path class="st1" d="M10.5,7.3C9.7,7.3,8.8,7.3,8,7.6C7.6,7.7,7.2,7.8,6.9,8C6.7,8.1,6.5,8.3,6.4,8.4C6.3,8.4,6.2,8.5,6.1,8.6
				C6.1,8.7,6,8.8,5.9,8.8C5.7,9,5.7,9.5,6.1,9.7c1.1,0.5,2.1,0.9,3.2,1.3c0.2,0.1,0.5,0,0.6-0.2C10.3,9.8,10.6,9,11,8.1
				c0.1-0.3,0.1-0.6-0.2-0.8c-0.2-0.1-0.6-0.1-0.8,0.2c-0.4,0.8-0.7,1.7-1.1,2.5c0.2-0.1,0.4-0.2,0.6-0.2c-1-0.4-2-0.8-3-1.2
				c0,0.3,0.1,0.6,0.1,0.9C6.8,9.5,6.9,9.3,7,9.3C7.1,9.1,7.3,9.1,7.4,9C7.7,8.8,8,8.7,8.4,8.6c0.7-0.2,1.4-0.2,2.1-0.2
				c0.3,0,0.6-0.3,0.6-0.6C11.1,7.6,10.8,7.3,10.5,7.3z"/>
		</g>
	</g>
	<g>
		<path class="st0" d="M6.4,14.5c0-0.1-0.1-0.1-0.1-0.2c-0.7-0.5-1.4-1-2.1-1.4c0,0.2-0.2,0.3-0.2,0.5c-0.2,1.3,0.1,2.5,0.6,3.7
			c0.6-0.8,1.2-1.5,1.7-2.4C6.4,14.6,6.4,14.5,6.4,14.5z"/>
		<g>
			<path class="st1" d="M7,14.3c-0.1-0.3-0.3-0.4-0.5-0.6c-0.2-0.2-0.4-0.3-0.7-0.5c-0.4-0.3-0.8-0.6-1.3-0.8
				c-0.3-0.2-0.7,0-0.8,0.3c0,0.2-0.2,0.3-0.2,0.5c0,0.2,0,0.4-0.1,0.6c0,0.4,0,0.8,0,1.2c0.1,0.8,0.3,1.6,0.7,2.3
				c0.1,0.3,0.7,0.4,0.9,0.1C5.4,17,5.8,16.5,6.1,16c0.2-0.2,0.3-0.5,0.5-0.7C6.8,15.1,7,14.8,7,14.5c0-0.3-0.3-0.6-0.6-0.6
				c-0.3,0-0.5,0.2-0.5,0.6c0-0.1,0-0.1,0,0c0,0-0.1,0.1-0.1,0.2c-0.1,0.1-0.1,0.2-0.2,0.3c-0.1,0.2-0.3,0.4-0.4,0.6
				c-0.3,0.4-0.6,0.7-0.9,1.1c0.3,0,0.6,0.1,0.9,0.1c-0.3-0.6-0.5-1.2-0.5-1.9c0-0.3-0.1-0.7,0-1c0-0.1,0-0.3,0-0.4
				c0-0.2,0.1-0.3,0.2-0.5c-0.3,0.1-0.5,0.2-0.8,0.3C4.3,13.6,4.7,13.8,5,14c0.2,0.1,0.3,0.2,0.5,0.4c0.1,0,0.2,0.1,0.2,0.2
				c0,0,0.1,0.1,0.1,0.1c0.1,0.1,0.1,0.1,0,0C6.1,15.3,7.2,15,7,14.3z"/>
		</g>
	</g>
	<g>
		<path class="st0" d="M16.7,17.4c-0.8,0-1.6,0.1-2.3,0.1c0.1,0.9,0.2,1.8,0.2,2.7C15.6,19.5,16.3,18.5,16.7,17.4z"/>
		<g>
			<path class="st1" d="M16.7,16.8c-0.8,0-1.6,0.1-2.3,0.1c-0.3,0-0.6,0.2-0.6,0.5c0.1,0.9,0.2,1.8,0.2,2.7c0,0.2,0.1,0.4,0.3,0.5
				c0.2,0.1,0.4,0.1,0.6,0c1.1-0.8,1.9-1.9,2.4-3.1c0.1-0.3-0.1-0.6-0.4-0.7c-0.3-0.1-0.6,0.1-0.7,0.4c0,0,0,0.1,0,0.1
				c0,0-0.1,0.1,0,0c0,0.1-0.1,0.1-0.1,0.2c-0.1,0.1-0.1,0.3-0.2,0.4c-0.1,0.3-0.3,0.5-0.5,0.7c0,0,0,0.1-0.1,0.1c0,0.1,0.1-0.1,0,0
				c-0.1,0.1-0.1,0.1-0.1,0.2c-0.1,0.1-0.2,0.2-0.3,0.3c-0.1,0.1-0.2,0.2-0.3,0.3c0,0-0.1,0-0.1,0.1c-0.1,0.1,0.1-0.1,0,0
				c-0.1,0-0.1,0.1-0.2,0.1c0.3,0.2,0.6,0.3,0.8,0.5c-0.1-0.9-0.2-1.8-0.2-2.7c-0.2,0.2-0.4,0.4-0.6,0.6c0.8-0.1,1.6-0.1,2.3-0.1
				c0.3,0,0.6-0.2,0.6-0.5C17.3,17.1,17,16.8,16.7,16.8z"/>
		</g>
	</g>
	<g>
		<path class="st1" d="M17.3,17.5c0.5-1.3,0.6-2.6,0.3-4c-0.1-0.7-0.3-0.9-1-1.1c-0.7-0.2-1.5-0.4-2.2-0.6c0.1,0.2,0.2,0.4,0.4,0.7
			c0.3-0.7,0.7-1.4,1-2.1c0.1-0.2,0.1-0.5-0.1-0.7c-1.3-1.5-3.2-2.2-5.1-2.4c-0.2,0-0.4,0.1-0.5,0.3c-0.4,0.8-0.7,1.7-1.1,2.5
			c0.2-0.1,0.4-0.2,0.6-0.2c-1-0.4-2-0.8-3-1.2C6.4,8.6,6.1,8.6,5.9,8.8c-1.1,1.1-1.9,2.4-2.2,3.9c-0.1,0.2,0,0.5,0.2,0.6
			C4.3,13.5,4.7,13.8,5,14c0.3,0.2,0.8,0.4,0.9,0.8c0-0.1,0-0.3,0-0.4c-0.3,0.8-1.1,1.6-1.6,2.3c-0.2,0.2-0.2,0.4-0.1,0.7
			c0.5,1,1.1,2,2,2.7c0.6,0.4,0.8,0.2,1.5,0c0.6-0.2,1.2-0.5,1.8-0.7c-0.2-0.1-0.5-0.1-0.8-0.2c0.2,0.5,0.4,1,0.7,1.5
			c0.2,0.4,0.3,0.9,0.7,1.1c0.8,0.3,2,0.1,2.8-0.1c0.6-0.1,1.9-0.4,2.3-1.1c0.2-0.3,0-0.9,0-1.2c-0.1-0.6-0.1-1.1-0.1-1.7
			c-0.2,0.2-0.4,0.4-0.6,0.6c0.8-0.1,1.6-0.1,2.3-0.1c0.7,0,0.7-1.1,0-1.1c-0.8,0-1.6,0.1-2.3,0.1c-0.3,0-0.6,0.2-0.6,0.5
			c0.1,0.9,0.2,1.8,0.2,2.7c0.1-0.1,0.1-0.3,0.2-0.4c-1,0.9-2.8,0.9-4,0.8c0.2,0.1,0.3,0.2,0.5,0.3c-0.4-0.8-0.7-1.5-1-2.3
			c-0.1-0.3-0.5-0.3-0.8-0.2c-0.7,0.3-1.5,0.6-2.2,0.9c0.1,0,0.3,0,0.4,0.1c-0.9-0.6-1.5-1.5-2-2.5c0,0.2,0,0.4-0.1,0.7
			c0.4-0.5,0.8-1,1.1-1.5C6.5,15.6,7,15,7,14.4c-0.1-0.4-0.5-0.7-0.8-0.9c-0.5-0.4-1.1-0.7-1.6-1.1c0.1,0.2,0.2,0.4,0.2,0.6
			c0.3-1.3,1-2.5,2-3.4c-0.2,0-0.4,0-0.7,0.1c1.1,0.5,2.1,0.9,3.2,1.3c0.2,0.1,0.5,0,0.6-0.2C10.3,9.8,10.6,9,11,8.1
			c-0.2,0.1-0.3,0.2-0.5,0.3c1.7,0.1,3.3,0.7,4.4,2c0-0.2-0.1-0.4-0.1-0.7c-0.4,0.8-0.8,1.6-1.1,2.4c-0.1,0.3,0.1,0.6,0.4,0.7
			c0.9,0.2,1.8,0.5,2.7,0.8c-0.1-0.1-0.2-0.2-0.4-0.4c0.3,1.4,0.3,2.6-0.2,4C16,17.9,17,18.2,17.3,17.5z"/>
	</g>
	<g>
		<path class="st0" d="M6.8,19.7c1,0.7,2.2,1.2,3.4,1.4c-0.3-0.8-0.7-1.5-1-2.3C8.4,19.1,7.6,19.4,6.8,19.7z"/>
		<g>
			<path class="st1" d="M6.5,20.2c1.1,0.8,2.3,1.3,3.7,1.4c0.2,0,0.4-0.1,0.5-0.3c0.1-0.2,0.1-0.4,0-0.6c-0.4-0.8-0.7-1.5-1-2.3
				c-0.1-0.3-0.5-0.3-0.8-0.2c-0.7,0.3-1.5,0.6-2.2,0.9c-0.3,0.1-0.5,0.4-0.4,0.7c0.1,0.3,0.4,0.5,0.7,0.4c0.8-0.3,1.7-0.6,2.5-1
				c-0.2-0.1-0.5-0.1-0.8-0.2c0.4,0.8,0.7,1.5,1,2.3c0.2-0.3,0.3-0.5,0.5-0.8c0.1,0-0.1,0-0.1,0c-0.1,0-0.1,0-0.2,0
				c-0.2,0-0.3-0.1-0.4-0.1c-0.3-0.1-0.6-0.2-0.8-0.3c-0.1,0-0.1,0,0,0c0,0-0.1,0-0.1,0c-0.1,0-0.1-0.1-0.2-0.1
				c-0.1-0.1-0.2-0.1-0.4-0.2c-0.3-0.1-0.5-0.3-0.8-0.5c-0.2-0.2-0.6,0-0.8,0.2C6.2,19.7,6.3,20,6.5,20.2z"/>
		</g>
	</g>
	<g>
		<path class="st1" d="M8.8,10.5c0.2,0.6,0.4,1.2,0.6,1.8c0.1,0.3,0.4,0.5,0.7,0.4c0.3-0.1,0.5-0.4,0.4-0.7
			c-0.2-0.6-0.4-1.2-0.6-1.9C9.8,10,9.7,9.9,9.6,9.8c-0.1-0.1-0.3-0.1-0.4,0C8.9,9.9,8.7,10.2,8.8,10.5L8.8,10.5z"/>
	</g>
	<g>
		<path class="st1" d="M6.4,15c0.6,0.1,1.2,0.1,1.7,0.2c0.3,0,0.6-0.3,0.5-0.5c0-0.3-0.2-0.5-0.5-0.5C7.5,14.1,7,14,6.4,14
			c-0.1,0-0.3,0.1-0.4,0.1c-0.1,0.1-0.2,0.2-0.2,0.4c0,0.1,0.1,0.3,0.2,0.4c0,0,0.1,0,0.1,0.1C6.2,15,6.3,15,6.4,15L6.4,15z"/>
	</g>
	<g>
		<path class="st1" d="M9.7,19c0.3-0.6,0.5-1.2,0.8-1.8c0.1-0.1,0-0.3,0-0.4c-0.1-0.1-0.2-0.2-0.3-0.2c-0.1,0-0.3,0-0.4,0.1
			c-0.1,0.1-0.2,0.2-0.2,0.3c-0.1,0.2-0.2,0.4-0.2,0.6c0,0,0-0.1,0.1-0.1c-0.1,0.4-0.3,0.7-0.5,1.1c-0.1,0.1-0.1,0.3-0.1,0.4
			c0,0.1,0.1,0.3,0.2,0.3C9.2,19.3,9.6,19.2,9.7,19L9.7,19z"/>
	</g>
	<g>
		<path class="st1" d="M14.8,17.2c-0.7-0.5-1.4-1.1-2.2-1.5c-0.2-0.2-0.6-0.1-0.7,0.2c-0.1,0.3-0.1,0.6,0.2,0.7
			c0.4,0.2,0.7,0.4,1,0.7c0.2,0.1,0.3,0.2,0.5,0.4c0,0,0.1,0.1,0.1,0.1c0,0,0.1,0.1,0,0c-0.1-0.1,0,0,0,0c0.1,0.1,0.2,0.1,0.2,0.2
			c0.1,0.1,0.2,0.2,0.4,0.2c0.1,0,0.3-0.1,0.4-0.2C15,17.7,15.1,17.4,14.8,17.2L14.8,17.2z"/>
	</g>
	<g>
		<path class="st1" d="M12.9,13.9c0.6-0.4,1.1-0.7,1.7-1.1c0.2-0.2,0.4-0.5,0.2-0.7c-0.1-0.2-0.5-0.4-0.7-0.2
			c-0.6,0.4-1.1,0.7-1.7,1.1c-0.2,0.2-0.3,0.5-0.2,0.7C12.3,13.9,12.7,14.1,12.9,13.9L12.9,13.9z"/>
	</g>
	<g>
		<path class="st2" d="M23.5,19c-0.7,0.4-1.4,0.7-2.1,1.1c-0.8,0.4-1.2,0.7-2,1.2c-0.2,0.1-0.4,0.3-0.6,0.4s-0.4,0.3-0.5,0.5
			c-0.2,0.3-0.2,0.7,0,1.1c0.4,0.5,0.6,0.4,1.3,0.3c0.9-0.2,1.2-0.7,2-0.9c0.4-0.1,0.8,0.3,0.7,0.7c0,0.4-0.5,0.8-0.7,1.1
			c-0.5,0.5-0.7,1-0.9,1.6c-0.1,0.6,0.1,1.3,0.3,1.9c0.2,0.7,0.1,1.5,0.6,2c0.2,0.2,0.4,0.4,0.8,0.2c0.3-0.2,0.8-0.5,1-0.8
			c0.4-0.4,1.3-1.1,1.9-1c1,0.1,1.1,1.6,1.4,2.3c0.1,0.2,0.1,0.4,0.3,0.6c0.3,0.2,0.5,0,0.9,0.1c0.2,0,0.5,0.1,0.7,0.1
			c0.7-0.2,0.8-1.2,1.2-1.8c0.1-0.1,0.1-0.3,0.2-0.5c0.1-0.2,0.2-0.4,0.4-0.5c0.3-0.5,0.2-0.9,0-1.4c-0.1-0.4-0.2-0.7-0.2-1.1
			c0-0.3,0-0.6,0.1-0.8c0.2-0.5,0.3-0.6,0.9-0.4c0.4,0.1,0.5,0.5,0.7,0.8c0.3,0.6,0.4,1,0.8,1.4c0.5,0.5,1.1,0.3,1.4-0.2
			c0.2-0.2,0.2-0.5,0.1-1.1c-0.6-2.1-1.9-3.9-3.5-5.9"/>
		<g>
			<path class="st1" d="M23.2,18.5c-1,0.5-2,1-3,1.6c-0.8,0.5-1.7,1-2.3,1.7c-0.4,0.6-0.4,1.3,0,1.8c0.5,0.7,1.2,0.6,2,0.4
				c0.4-0.1,0.7-0.3,1-0.5c0.1-0.1,0.5-0.4,0.6-0.3c0.5,0.1,0,0.5-0.1,0.6c-0.6,0.7-1.1,1.4-1.2,2.3c-0.1,0.9,0.3,1.7,0.5,2.6
				c0.1,0.8,0.5,1.8,1.4,1.9c1.1,0.2,3.1-3,3.8-1.2c0.2,0.6,0.2,1.3,0.6,1.9c0.2,0.3,0.5,0.5,0.8,0.5c0.2,0,0.3,0,0.5,0
				c0.3,0,0.6,0.1,0.9,0.1c0.6-0.1,1-0.6,1.2-1.1c0.1-0.3,0.3-0.7,0.4-1c0.2-0.4,0.5-0.8,0.7-1.2c0.4-1-0.3-1.8-0.2-2.8
				c0.1-1,0.5-0.2,0.7,0.2c0.2,0.4,0.4,0.8,0.7,1.1c0.5,0.6,1.4,0.8,2,0.2c0.7-0.6,0.7-1.4,0.5-2.2c-0.6-2.2-2.2-4.1-3.6-5.9
				c-0.4-0.6-1.2,0.2-0.8,0.8c1.2,1.5,2.4,3,3.1,4.7c0.1,0.4,0.4,0.9,0.4,1.3c0,0.3-0.1,0.3-0.3,0.4c-0.3,0.1-0.4,0-0.6-0.3
				c-0.4-0.6-0.5-1.3-1-1.8c-1.2-1-2.1,0.4-2.1,1.6c0,0.4,0.2,0.8,0.3,1.2c0.2,0.6,0,0.9-0.2,1.4c-0.3,0.6-0.5,1.2-0.8,1.8
				c-0.2,0.5-0.5,0.4-1,0.3c-0.4,0-0.6,0.1-0.8-0.4c-0.2-0.5-0.2-1.1-0.5-1.6c-0.6-1.2-1.9-1.1-2.9-0.4c-0.4,0.3-1.1,1.2-1.6,1.2
				c-0.4,0-0.4-0.7-0.5-1c-0.1-0.5-0.3-1-0.4-1.5c-0.2-1,0.3-1.7,0.9-2.5c0.5-0.5,0.8-1.1,0.5-1.8c-0.8-1.9-2.7,0.5-3.8,0.4
				c-1-0.2,0.5-1.2,0.6-1.4c0.4-0.2,0.7-0.5,1.1-0.7c1-0.6,2-1.1,3-1.6C24.4,19.1,23.9,18.2,23.2,18.5L23.2,18.5z"/>
		</g>
	</g>
	<g>
		<path class="st2" d="M31,13c0.4-1,1.7-1.5,2.8-1.2s1.8,1.4,2.1,2.4c0.2,0.8,0.1,1.6-0.3,2.2c-0.4,0.6-1.3,1.1-2,0.8"/>
		<g>
			<path class="st1" d="M31.5,13.1c0.3-0.6,1-0.9,1.6-0.9c0.7,0,1.4,0.5,1.8,1.1c0.4,0.7,0.7,1.6,0.4,2.4c-0.2,0.7-0.9,1.3-1.6,1.1
				c-0.7-0.2-1,0.9-0.3,1c0.9,0.2,1.8-0.1,2.4-0.8c0.7-0.8,0.8-1.9,0.6-2.8c-0.4-1.7-1.9-3.3-3.8-3c-1,0.1-1.8,0.7-2.2,1.7
				c-0.1,0.3,0.1,0.6,0.4,0.7C31.2,13.6,31.4,13.4,31.5,13.1L31.5,13.1z"/>
		</g>
	</g>
	<g>
		<path class="st2" d="M26,12.9c0-0.4,0-0.9-0.1-1.3c-0.2-0.6-0.7-1.2-1.4-1.4c-0.6-0.2-1.2-0.2-1.8,0.1c-1,0.4-1.7,1.4-1.9,2.4
			c-0.1,0.3-0.1,0.7-0.1,1.1c0.1,0.6,0.5,1.1,1,1.3c0.5,0.3,1.4,0.3,1.9,0.2"/>
		<g>
			<path class="st1" d="M26.5,12.9c0-1-0.2-2-1-2.7c-0.9-0.8-2.1-0.9-3.1-0.4c-1.8,0.8-3.2,3.4-1.9,5.1c0.7,0.9,1.9,1,3,0.9
				c0.3,0,0.5-0.2,0.5-0.5c0-0.3-0.2-0.6-0.5-0.5c-0.6,0.1-1.4,0.1-1.9-0.3c-0.6-0.5-0.5-1.2-0.3-1.9c0.5-1.3,2-2.6,3.4-1.6
				c0.6,0.5,0.8,1.2,0.8,2C25.4,13.6,26.5,13.6,26.5,12.9L26.5,12.9z"/>
		</g>
	</g>
	<g>
		<path class="st2" d="M28.3,11.6c-0.8-0.1-1.6-0.1-2.4,0.1c-0.9,0.2-1.7,0.6-2.3,1.2c-1.2,1.2-1.8,3-1.6,4.7
			c0.2,1.7,1.1,3.3,2.4,4.5c0.4,0.4,0.8,0.7,1.2,0.9c1,0.5,3.3,0.4,4.3,0c1.2-0.4,2.6-1.2,3.3-2.3c0.6-0.9,0.9-2,0.9-3.1
			c0-0.5-0.1-1.1-0.1-1.6c-0.1-0.4-0.3-0.8-0.5-1.2c-0.3-0.6-0.8-1.1-1.3-1.5c-0.4-0.3-0.8-0.6-1.2-0.8
			C30.2,11.9,29.3,11.7,28.3,11.6z"/>
		<g>
			<path class="st1" d="M28.3,11c-1.4-0.1-3,0-4.3,0.8c-1.1,0.7-1.9,1.8-2.3,3.1c-0.8,2.6,0.2,5.4,2,7.3c0.9,0.9,1.8,1.5,3.1,1.6
				c1.1,0.1,2.3,0,3.3-0.4c1.2-0.4,2.4-1.1,3.2-2.1c0.9-1.1,1.3-2.6,1.3-4c0-1.7-0.6-3.1-1.8-4.3C31.6,11.9,30,11.2,28.3,11
				c-0.7-0.1-0.7,1,0,1.1c2.4,0.3,4.9,2,5.2,4.6c0.1,1.2,0,2.5-0.7,3.6c-0.6,0.9-1.6,1.5-2.6,2c-1.6,0.7-3.9,0.9-5.3-0.3
				c-1.7-1.4-2.8-3.7-2.5-6c0.2-1.2,0.8-2.4,1.8-3.1c1.1-0.8,2.6-0.9,4-0.8C29,12.2,29,11.1,28.3,11z"/>
		</g>
	</g>
	<path class="st1" d="M26.5,17.6c0.2-0.2,0.5-0.2,0.7-0.2c0.4,0,0.8,0.1,1.1,0.2c0.4,0.1,0.8,0.3,0.9,0.7c0.2,0.4-0.1,0.9-0.4,1.1
		c-0.3,0.3-0.8,0.4-1.2,0.4c-0.6,0-1-0.6-1.2-1.1C26.3,18.4,26.3,17.9,26.5,17.6z"/>
	<circle class="st1" cx="25.5" cy="16.1" r="0.7"/>
	<circle class="st1" cx="30.8" cy="17.2" r="0.7"/>
	<g>
		<path class="st3" d="M31.3,27.4c-0.3-0.2-0.6-0.4-1-0.4c-0.4,0-0.7,0-1.1,0.1c-0.8,0.2-1.5,0.8-1.9,1.5c-0.4,0.6-0.6,1.3-0.5,1.9
			c0.1,0.5,0.3,0.8,0.6,1.1c0.5,0.5,1.3,0.7,2,0.5c0.4-0.1,0.7-0.3,1-0.6c0.8-0.7,1.5-1.7,1.5-2.7C31.9,28.2,31.7,27.7,31.3,27.4z"
			/>
		<g>
			<path class="st1" d="M31.7,27c-2.1-1.7-5.6,0.6-5.5,3.1c0,1.2,1,2.4,2.3,2.5c1.4,0.2,2.5-0.8,3.2-1.8C32.4,29.7,32.8,28,31.7,27
				c-0.5-0.5-1.3,0.3-0.8,0.8c0.6,0.6,0.4,1.5,0,2.1c-0.2,0.4-0.5,0.7-0.8,1c-0.3,0.3-0.7,0.6-1.1,0.7c-0.7,0.1-1.6-0.5-1.7-1.2
				c-0.2-0.8,0.4-1.7,1-2.2c0.6-0.5,1.9-1,2.6-0.4c0.2,0.2,0.5,0.2,0.8,0C31.9,27.6,32,27.2,31.7,27z"/>
		</g>
	</g>
	<g>
		<path class="st3" d="M20.5,24.8c0.4-0.1,0.8,0,1.2,0.2c0.3,0.2,0.6,0.4,0.9,0.7c0.5,0.6,0.9,1.4,1,2.2c0,0.7-0.1,1.4-0.5,1.9
			c-0.3,0.4-0.7,0.5-1.2,0.6c-0.7,0.1-1.5,0-2-0.6c-0.2-0.3-0.4-0.6-0.5-1c-0.4-1-0.4-2.2,0.1-3.1C19.6,25.1,20.1,24.9,20.5,24.8z"
			/>
		<g>
			<path class="st1" d="M20.7,25.3c0.9-0.1,1.7,0.8,2.1,1.5c0.4,0.7,0.4,1.7,0,2.4c-0.4,0.6-1.4,0.8-2.1,0.5c-0.8-0.4-1-1.5-1.1-2.2
				C19.5,26.6,19.7,25.5,20.7,25.3c0.3-0.1,0.5-0.4,0.4-0.7c-0.1-0.3-0.4-0.4-0.7-0.4c-1.3,0.2-1.9,1.6-1.9,2.8
				c-0.1,1.2,0.4,2.8,1.4,3.5c1,0.7,2.5,0.5,3.4-0.3c0.9-0.9,1-2.5,0.5-3.6c-0.5-1.4-1.9-2.6-3.5-2.4c-0.3,0-0.5,0.4-0.4,0.7
				C20.1,25.2,20.4,25.3,20.7,25.3z"/>
		</g>
	</g>
	<g>
		<path class="st1" d="M27.1,19.2c0,0.1,0,0.2-0.1,0.2c0,0,0-0.1,0-0.1c0,0.1-0.1,0.2-0.2,0.3c0,0,0.1-0.1,0.1-0.1
			c-0.1,0.1-0.2,0.2-0.3,0.3c0,0,0.1-0.1,0.1-0.1c-0.1,0.1-0.2,0.1-0.3,0.2c0,0,0.1,0,0.1,0c-0.1,0-0.3,0.1-0.4,0.1c0,0,0.1,0,0.1,0
			c-0.1,0-0.2,0-0.2,0c-0.3,0-0.5,0.2-0.5,0.5c0,0.3,0.2,0.5,0.5,0.5c1,0,1.8-0.6,2.1-1.6c0.1-0.3-0.1-0.6-0.4-0.7
			C27.5,18.7,27.1,18.9,27.1,19.2L27.1,19.2z"/>
	</g>
	<g>
		<path class="st1" d="M27.2,19.2c0,0.5,0.1,1,0.4,1.4c0.3,0.4,0.7,0.7,1.2,0.9c0.3,0.1,0.6-0.1,0.7-0.4c0.1-0.3-0.1-0.6-0.4-0.7
			c-0.1,0-0.2-0.1-0.3-0.1c0,0,0.1,0,0.1,0c-0.1,0-0.1-0.1-0.2-0.1c0,0-0.1-0.1,0,0c0.1,0.1,0,0,0,0c0,0,0,0,0,0c0,0,0-0.1-0.1-0.1
			c0-0.1,0,0,0,0l0,0c0-0.1-0.1-0.1-0.1-0.2c0,0,0,0.1,0,0.1c-0.1-0.3-0.2-0.6-0.2-0.8c0,0,0,0.1,0,0.1c0-0.1,0-0.1,0-0.2
			c0-0.1,0-0.3-0.2-0.4c-0.1-0.1-0.2-0.2-0.4-0.2C27.5,18.6,27.2,18.9,27.2,19.2L27.2,19.2z"/>
	</g>
</g>
</svg>
