<?xml version="1.0" encoding="utf-8"?>
<!-- Generator: Adobe Illustrator 26.0.2, SVG Export Plug-In . SVG Version: 6.00 Build 0)  -->
<svg version="1.1" id="레이어_1" xmlns="http://www.w3.org/2000/svg" xmlns:xlink="http://www.w3.org/1999/xlink" x="0px"
	 y="0px" viewBox="0 0 40 40" style="enable-background:new 0 0 40 40;" xml:space="preserve">
<style type="text/css">
	.st0{fill:#E4E4E4;}
	.st1{fill:#282828;}
	.st2{fill:#FFFFFF;}
	.st3{fill:#FFDD83;}
	.st4{fill:#FFC6D5;}
</style>
<g>
	<g>
		<path class="st0" d="M19.3,26.5c-0.2,1.9-0.1,3.7-0.1,5.7c0,0.6,0.1,2.6-0.2,3.1c-0.2,0.5-0.6,0.9-1.1,1.2
			C17.1,37,16.9,37,16,37.2c1.9,0.5,2.5,0.7,4,0.6c1.5,0,2.4-0.1,4.1-0.7c-1.2-0.5-1.1-0.3-1.9-0.8c-0.3-0.2-0.7-0.7-0.9-1
			c-0.2-0.3-0.2-2.6-0.2-2.9c0-1.6,0.1-3.4,0.1-6.5"/>
		<g>
			<path class="st1" d="M18.7,26.5c-0.2,2.2-0.2,4.4-0.1,6.6c0,0.7,0.1,1.6-0.3,2.2c-0.6,0.9-1.5,1.1-2.5,1.3c-0.5,0.1-0.5,0.9,0,1
				c1.3,0.4,2.6,0.7,4,0.7c1.5,0,3-0.2,4.4-0.7c0.4-0.1,0.6-0.8,0.1-1c-0.8-0.3-2.2-0.6-2.6-1.6c0,0.1,0-0.2,0-0.3
				c0-0.2,0-0.4,0-0.7c0-0.5,0-0.9,0-1.4c0-2.3,0.1-4.5,0.1-6.8c0-0.7-1.1-0.7-1.1,0c0,2.4-0.1,4.8-0.1,7.2c0,0.9-0.1,2,0.4,2.7
				c0.7,1,1.7,1.2,2.8,1.7c0-0.3,0.1-0.7,0.1-1c-1.4,0.5-2.7,0.7-4.2,0.7c-1.3,0-2.5-0.3-3.7-0.6c0,0.3,0,0.7,0,1
				c1-0.2,2-0.5,2.8-1.4c0.6-0.8,0.7-1.6,0.8-2.5c0-2.4,0-4.9,0.1-7.3C19.9,25.8,18.8,25.8,18.7,26.5L18.7,26.5z"/>
		</g>
	</g>
	<g>
		<path class="st2" d="M10.4,19.4c0.3,3.6,0.6,4.8-0.1,7.4c-0.1,0.3-0.3,0.8-0.2,1.1c0,0.5,0.5,0.9,1,0.9c0.5,0,1-0.2,1.3-0.6
			s0.5-0.5,0.9-0.7c0.4-0.2,1-0.4,1.4-0.2c0.4,0.2,0.7,0.6,1.1,1c0.6,0.5,1.5,0.6,2.2,0.2c0.6-0.3,1-0.9,1.7-1.1
			c0.9-0.2,1.6,0.5,2.2,1.2c0.6,0.6,1.4,1.3,2.2,1.1c0.6-0.2,1-0.8,1.4-1.3s0.9-1.1,1.5-1c0.9,0.1,1.1,1.1,2,1
			c0.5-0.1,0.8-0.6,0.8-1.1c0.1-0.9-0.3-1.7-0.6-2.5c-0.8-2-0.3-2.6-0.4-5.5L10.4,19.4z"/>
		<g>
			<path class="st1" d="M9.9,19.4c0.1,1.5,0.4,3,0.4,4.4c0,0.6-0.1,1.2-0.2,1.8c-0.1,0.6-0.4,1.3-0.5,1.9c-0.1,1.2,1.1,1.9,2.1,1.6
				c0.7-0.2,1.2-0.7,1.8-1.1c1.1-0.8,1.7,0.5,2.6,0.9c0.5,0.2,1.1,0.3,1.7,0.1c0.8-0.2,1.5-1.2,2.2-1.2c0.8,0,1.5,1.1,2.1,1.6
				c0.5,0.4,1.1,0.8,1.8,0.8c0.6,0,1.1-0.4,1.5-0.8c0.5-0.6,1-1.9,2-1.3c0.4,0.3,0.7,0.7,1.2,0.8s1-0.2,1.4-0.6
				c1-1.4-0.1-3.1-0.5-4.5c-0.4-1.4,0-3,0-4.5c0-0.3-0.2-0.5-0.5-0.5c-5.4,0-10.8,0.1-16.2,0.1c-0.8,0-1.5,0-2.3,0
				c-0.7,0-0.7,1.1,0,1.1c5.4,0,10.8-0.1,16.2-0.1c0.8,0,1.5,0,2.3,0c-0.2-0.2-0.4-0.4-0.5-0.5c0,1.2-0.2,2.4-0.1,3.5
				c0.1,1.1,0.5,2.1,0.9,3.2c0.1,0.4,0.3,1,0.1,1.4c-0.3,0.6-0.7,0.4-1,0.1c-0.4-0.3-0.7-0.5-1.2-0.6c-1.3-0.1-1.8,1.1-2.5,1.9
				c-1.3,1.3-2.6-1.2-3.8-1.7c-0.5-0.2-1-0.2-1.5-0.1c-0.6,0.2-1.1,0.9-1.7,1.1c-1.4,0.5-2-1.6-3.5-1.4c-0.6,0.1-1,0.3-1.4,0.7
				c-0.3,0.2-0.5,0.5-0.8,0.6c-0.5,0.3-0.6,0.3-0.9-0.1c-0.3-0.4-0.2-0.3-0.1-0.6c0.1-0.6,0.3-1.2,0.4-1.9c0.1-0.5,0.1-1,0.1-1.5
				c0-1.5-0.2-3-0.4-4.4C10.9,18.7,9.8,18.7,9.9,19.4z"/>
		</g>
	</g>
	<g>
		<path class="st2" d="M25.8,17.2c-0.9-0.2-1.7-0.4-2.6-0.5c-0.8-0.1-1.7-0.1-2.5-0.1c-1.2,0-2.4,0.1-3.7,0.3c-2,0.2-6,0.8-6.5,2.4
			c-0.2,0.7,0.5,1.7,1.3,2.1c1.1,0.7,2.7,0.9,4.2,1c2.7,0.2,5.4,0.2,8-0.1c1.2-0.1,2.4-0.4,3.4-0.8s1.7-1.2,1.6-2
			C28.8,18.4,27.3,17.6,25.8,17.2z"/>
		<g>
			<path class="st1" d="M26,16.7c-3.3-0.9-6.7-0.7-10.1-0.3c-1.8,0.2-5.1,0.6-5.9,2.5c-0.5,1.2,0.5,2.3,1.5,2.9
				c1.4,0.8,3.1,1,4.6,1.1c1.9,0.2,3.9,0.2,5.8,0c1.7-0.1,3.5-0.2,5.2-0.9c1.2-0.4,2.6-1.4,2.4-2.9C29.2,17.8,27.2,17.1,26,16.7
				c-0.7-0.2-1,0.9-0.3,1c0.8,0.2,1.7,0.5,2.3,1.1c0.8,0.8,0.1,1.5-0.7,2c-1.5,0.8-3.4,0.9-5.1,1c-1.8,0.1-3.5,0.1-5.2,0
				c-1.6-0.1-3.5-0.2-5-1c-0.6-0.4-1.3-1.1-0.8-1.8c0.2-0.4,0.8-0.6,1.2-0.7c1.1-0.4,2.2-0.6,3.4-0.8c3.3-0.5,6.7-0.7,9.9,0.2
				C26.3,17.9,26.6,16.9,26,16.7z"/>
		</g>
	</g>
	<g>
		<path class="st1" d="M14.8,27.3c0.2-1,0.3-1.9,0.3-2.9c0-0.3-0.2-0.5-0.5-0.5c-0.3,0-0.6,0.2-0.5,0.5c0,0.5,0,0.9-0.1,1.4
			c0,0.1,0,0.2,0,0.4c0,0.1,0-0.1,0,0.1c0,0,0,0.1,0,0.2c0,0.2-0.1,0.5-0.1,0.7c-0.1,0.3,0.1,0.6,0.4,0.7
			C14.4,27.7,14.8,27.6,14.8,27.3L14.8,27.3z"/>
	</g>
	<g>
		<path class="st1" d="M20.8,27.4c0-0.8,0-1.5,0-2.2c0-0.3-0.2-0.5-0.5-0.5c-0.3,0-0.5,0.2-0.5,0.5c0,0.8,0,1.5,0,2.2
			c0,0.3,0.2,0.5,0.5,0.5C20.5,27.9,20.8,27.7,20.8,27.4L20.8,27.4z"/>
	</g>
	<g>
		<path class="st1" d="M27.3,27.1c-0.3-0.5-0.5-1-0.7-1.6c-0.2-0.6-0.4-1.1-0.5-1.7c-0.1-0.3-0.4-0.5-0.7-0.4
			c-0.3,0.1-0.4,0.4-0.4,0.7c0.2,1.2,0.7,2.5,1.2,3.6c0.1,0.2,0.5,0.4,0.7,0.2C27.3,27.7,27.4,27.4,27.3,27.1L27.3,27.1z"/>
	</g>
	<g>
		<path class="st3" d="M19,3c-0.3-0.2-0.6-0.4-0.9-0.4c-0.4,0-0.9,0.2-1.1,0.5C17,3.3,17,3.4,17,3.5C17,3.8,17,4,17.2,4.2
			c0.3,0.4,0.8,0.6,1.2,0.6c-0.3,0.3-0.6,0.6-0.8,0.9c-0.2,0.4,0,1,0.3,1.2c0.4,0.2,0.9,0.1,1.2-0.2c0.3-0.2,0.6-0.6,0.7-1
			c0.3,0.4,0.6,0.7,1,0.9c0.4,0.2,1,0.4,1.4,0.1c0.4-0.3,0.3-0.9,0-1.3s-0.6-0.7-1.1-0.9c0,0,0.2-0.2,0.3-0.2
			c0.1-0.1,0.1-0.1,0.2-0.2C21.8,4,21.9,3.8,22,3.6s0.1-0.4,0.1-0.7c0-0.2,0-0.5-0.2-0.6c-0.2-0.2-0.5-0.2-0.8-0.2
			c-0.7,0.1-1.1,0.5-1.6,1.3c-0.1-0.1-0.1-0.1-0.2-0.2C19.2,3.2,19.1,3.1,19,3z"/>
		<g>
			<path class="st1" d="M19.3,2.5C18.5,1.9,17,1.9,16.5,3c-0.5,1.2,0.8,2.3,1.9,2.3c-0.1-0.3-0.3-0.6-0.4-0.9
				c-0.4,0.4-0.9,0.8-1,1.4c-0.1,0.5,0,1.1,0.4,1.5c0.5,0.4,1.2,0.4,1.7,0.1c0.5-0.3,0.9-0.9,1.2-1.4c-0.3,0-0.7,0.1-1,0.1
				c0.4,0.5,0.8,1,1.4,1.3c0.6,0.3,1.4,0.3,1.9-0.3c0.8-1-0.3-2.5-1.3-2.9c-0.1,0.3-0.2,0.7-0.3,1c0.6-0.1,1-0.8,1.3-1.2
				c0.3-0.7,0.4-1.7-0.3-2.1c-0.5-0.4-1.2-0.2-1.8,0.1c-0.6,0.3-0.9,0.8-1.2,1.3c0.3,0,0.6-0.1,0.9-0.1c-0.2-0.2-0.3-0.3-0.5-0.5
				c-0.2-0.2-0.5-0.2-0.8,0c-0.2,0.2-0.2,0.6,0,0.8c0.2,0.1,0.3,0.3,0.5,0.5C19.4,4.1,19.9,4,20,3.7c0.1-0.3,0.4-0.6,0.6-0.8
				c0.2-0.1,0.6-0.3,0.8-0.2c0.1,0,0.1,0,0.1,0.2c0,0.2,0,0.4-0.1,0.6c-0.1,0.2-0.2,0.4-0.3,0.5C21.1,4,21,4,21,4.1c0,0,0,0-0.1,0.1
				c-0.1,0,0.1-0.1,0,0c0.1,0,0.2-0.1,0.3-0.1c0,0,0,0,0,0c-0.2,0-0.5,0.2-0.5,0.4c-0.1,0.2,0,0.5,0.2,0.6c0.4,0.2,0.6,0.4,0.9,0.7
				c0.1,0.1,0.2,0.2,0.2,0.4c0,0.1,0,0.2,0,0.2c-0.1,0.2-0.5,0-0.7-0.1c-0.4-0.2-0.6-0.5-0.9-0.8c-0.3-0.4-0.8-0.3-1,0.1
				C19.2,6,19,6.3,18.8,6.4c-0.2,0.1-0.4,0.2-0.5,0.1c-0.1-0.1-0.1-0.4-0.1-0.5c0.1-0.3,0.4-0.5,0.7-0.8c0.4-0.3,0.1-0.9-0.4-0.9
				c-0.4,0-1.1-0.4-0.9-0.9c0.2-0.5,0.9-0.2,1.2,0.1c0.2,0.2,0.6,0,0.7-0.2C19.7,3,19.6,2.7,19.3,2.5z"/>
		</g>
	</g>
	<g>
		<path class="st1" d="M20.6,10.6c0-0.1,0-0.1,0-0.2c0-0.1,0,0.1,0,0c0-0.1,0-0.1,0-0.1c0-0.2,0-0.4,0-0.5c0-0.4,0-0.8,0-1.3
			c0-0.8,0-1.5-0.1-2.2c0-0.3-0.2-0.5-0.5-0.5c-0.3,0-0.6,0.2-0.5,0.5c0.1,0.8,0.1,1.5,0.1,2.3c0,0.8,0,1.6,0.2,2.4
			c0.1,0.3,0.4,0.4,0.7,0.4C20.5,11.2,20.7,10.9,20.6,10.6L20.6,10.6z"/>
	</g>
	<g>
		<path class="st4" d="M18.5,19.4c0.9,0,1.8,0,2.8,0c0.1,0,0.2,0,0.4-0.1c0.1,0,0.1-0.1,0.2-0.2c0.7-1.4,0.9-3.2,0.2-4.6
			c-0.6-1.4-1.1-2.6-0.7-4.8c0-0.1,0-0.2,0-0.3c-0.1-0.1-0.2-0.1-0.3-0.1c-0.6,0-1.2,0-1.9,0c-0.1,0-0.3,0-0.3,0.1
			c0,0.1,0,0.1,0,0.1c0.1,0.8,0.4,1.7,0.2,2.4c-0.2,0.7-0.9,1.7-1.1,2.4c-0.7,1.6-0.4,3.3,0.5,4.8L18.5,19.4z"/>
		<g>
			<path class="st1" d="M18.5,20c0.5,0,1.1,0,1.6,0c0.5,0,1.1,0.1,1.6-0.1c0.4-0.1,0.6-0.6,0.8-1c0.2-0.5,0.4-1,0.4-1.6
				c0.1-1,0.1-2-0.3-2.9c-0.3-0.8-0.7-1.5-0.9-2.3c-0.1-0.4-0.1-0.8-0.1-1.2c0-0.5,0.3-1.2,0.1-1.6c-0.3-0.8-1.8-0.5-2.5-0.5
				c-0.4,0-0.9,0-1,0.5c-0.1,0.4,0.1,1.1,0.2,1.5c0.1,0.5,0.1,1-0.1,1.5c-0.2,0.4-0.4,0.9-0.7,1.3c-0.5,1-0.8,2.1-0.7,3.2
				c0.1,1.1,0.6,2,1.1,2.9c0.3,0.6,1.3,0.1,0.9-0.5c-0.4-0.7-0.8-1.4-0.9-2.2c-0.1-0.9,0-1.8,0.4-2.6c0.4-0.7,0.8-1.4,1-2.1
				c0.1-0.4,0.1-0.9,0-1.4c-0.1-0.4-0.2-0.9-0.2-1.4c-0.1,0.1-0.1,0.3-0.2,0.4c-0.1,0.1-0.1,0.1,0,0.1c0.1,0,0.2,0,0.3,0
				c0.2,0,0.4,0,0.5,0c0.3,0,0.7,0.1,0.9,0c0.2,0,0.1,0-0.1-0.1c0,0.1,0,0.1,0,0.2c-0.1,0.1,0,0.4-0.1,0.5c0,0.3,0,0.6,0,1
				c0,1,0.3,2,0.8,2.9c0.5,1.2,0.7,2.3,0.3,3.5c-0.1,0.3-0.2,0.6-0.3,0.9c-0.1,0.1,0,0.1,0,0.1c-0.1,0-0.1,0-0.2,0
				c-0.2,0-0.3,0-0.5,0c-0.8,0-1.5,0-2.2,0C17.8,18.9,17.8,20,18.5,20z"/>
		</g>
	</g>
</g>
</svg>
