<?xml version="1.0" encoding="utf-8"?>
<!-- Generator: Adobe Illustrator 25.4.1, SVG Export Plug-In . SVG Version: 6.00 Build 0)  -->
<svg version="1.1" id="레이어_1" xmlns="http://www.w3.org/2000/svg" xmlns:xlink="http://www.w3.org/1999/xlink" x="0px"
	 y="0px" viewBox="0 0 15.21 10.83" style="enable-background:new 0 0 15.21 10.83;" xml:space="preserve">
<style type="text/css">
	.st0{fill:#E81E6E;}
</style>
<g>
	<g>
		<g>
			<path class="st0" d="M6.78,0.93C7.88,2.06,8.14,3.8,8.05,5.3C8.01,6.16,7.85,7,7.61,7.82C7.39,8.61,7.02,9.3,6.65,10.01
				c0.25-0.06,0.49-0.13,0.74-0.19c-0.46-0.35-1-0.6-1.43-0.99C5.5,8.41,5.09,7.95,4.66,7.52C4.31,7.18,3.96,6.9,3.47,6.85
				c-0.38-0.04-0.78,0-1.17,0c-0.34,0-0.69,0.01-1.03,0.01C1.22,6.86,1.02,6.83,1,6.85C0.94,6.9,1.11,6.96,1.12,6.96
				c0,0-0.03-0.49-0.02-0.52c0.05-0.99,0.12-1.91-0.05-2.9C0.93,3.76,0.8,3.98,0.68,4.21C1.31,4.06,1.96,4.1,2.61,4.13
				C3.2,4.17,3.74,4.18,4.17,3.71c0.45-0.49,0.8-1.03,1.3-1.49c0.46-0.43,1.12-1.03,1.75-1.19C7.07,1.01,6.93,0.99,6.79,0.97
				C6.83,0.99,6.86,1,6.89,1.02c0.63,0.29,1.18-0.64,0.55-0.93C6.78-0.22,6.07,0.37,5.56,0.75C4.95,1.19,4.39,1.71,3.91,2.28
				C3.73,2.49,3.54,2.87,3.32,3.02c-0.21,0.15-0.6,0.03-0.84,0.02C1.77,3.01,1.09,3,0.39,3.16c-0.3,0.07-0.43,0.39-0.38,0.67
				C0.11,4.4,0.14,5.01,0.09,5.6c-0.03,0.39-0.1,0.78-0.08,1.17c0.02,0.38,0.11,0.82,0.47,1.04C0.83,8.02,1.3,7.93,1.69,7.93
				c0.38,0,0.76,0.01,1.14,0c0.49-0.01,0.69-0.01,1.06,0.36C4.37,8.75,4.8,9.27,5.31,9.7c0.47,0.41,1.03,0.68,1.53,1.05
				c0.23,0.17,0.62,0.04,0.74-0.19C8,9.76,8.41,8.98,8.66,8.11c0.28-0.97,0.45-1.99,0.49-3c0.06-1.73-0.35-3.67-1.6-4.94
				C7.06-0.33,6.29,0.44,6.78,0.93z"/>
		</g>
	</g>
	<g>
		<g>
			<path class="st0" d="M10.6,2.44c0.61,0.85,0.69,1.86,0.65,2.88c-0.05,1-0.28,1.98-0.76,2.87c-0.33,0.61,0.61,1.16,0.93,0.55
				c0.56-1.06,0.85-2.22,0.9-3.41c0.06-1.19-0.09-2.43-0.79-3.43c-0.17-0.24-0.47-0.35-0.74-0.19C10.56,1.83,10.43,2.2,10.6,2.44
				L10.6,2.44z"/>
		</g>
	</g>
	<g>
		<g>
			<path class="st0" d="M12.99,1.16c1.69,2.68,1.4,5.98-0.31,8.57c-0.38,0.58,0.55,1.13,0.93,0.55c1.91-2.9,2.19-6.68,0.31-9.67
				C13.56,0.03,12.62,0.57,12.99,1.16L12.99,1.16z"/>
		</g>
	</g>
</g>
</svg>
