<?xml version="1.0" encoding="utf-8"?>
<!-- Generator: Adobe Illustrator 26.0.1, SVG Export Plug-In . SVG Version: 6.00 Build 0)  -->
<svg version="1.1" id="레이어_1" xmlns="http://www.w3.org/2000/svg" xmlns:xlink="http://www.w3.org/1999/xlink" x="0px"
	 y="0px" viewBox="0 0 20.49 20.49" style="enable-background:new 0 0 20.49 20.49;" xml:space="preserve">
<style type="text/css">
	.st0{fill:#FFDCA0;}
	.st1{fill:#282828;}
</style>
<circle class="st0" cx="10.25" cy="10.25" r="10.25"/>
<path class="st1" d="M14.16,10.2c-0.38,0-0.68,0.31-0.68,0.68c0,1.78-1.45,3.23-3.23,3.23c-1.78,0-3.23-1.45-3.23-3.23
	s1.45-3.23,3.23-3.23h1.25L10.45,8.7c-0.27,0.27-0.27,0.7,0,0.96c0.13,0.13,0.31,0.2,0.48,0.2c0.17,0,0.35-0.07,0.48-0.2l2.7-2.7
	l-2.46-2.46c-0.27-0.27-0.7-0.27-0.96,0c-0.27,0.27-0.27,0.7,0,0.96l0.81,0.81h-1.26c-2.54,0-4.6,2.06-4.6,4.6
	c0,2.54,2.06,4.6,4.6,4.6c2.53,0,4.6-2.06,4.6-4.6C14.84,10.51,14.54,10.2,14.16,10.2z"/>
</svg>
