<?xml version="1.0" encoding="utf-8"?>
<!-- Generator: Adobe Illustrator 26.0.3, SVG Export Plug-In . SVG Version: 6.00 Build 0)  -->
<svg version="1.1" id="레이어_1" xmlns="http://www.w3.org/2000/svg" xmlns:xlink="http://www.w3.org/1999/xlink" x="0px"
	 y="0px" viewBox="0 0 21 18" enable-background="new 0 0 21 18" xml:space="preserve">
<g>
	<path fill="#B4B4B4" d="M14.8,3.6c-0.2-0.1-0.1-0.4-0.1-0.6c0.1-0.5,0.2-0.9,0.4-1.4c0.2-0.3,0.4-0.6,0.7-0.8
		c0.3-0.2,0.7-0.4,1-0.5c0.4-0.1,0.8-0.1,1.1,0c0.3,0.1,0.5,0.2,0.7,0.3c1.1,0.8,1.3,2.4,0.5,3.5c-0.3,0.4-0.7,0.7-1.1,1
		c-0.4,0.2-0.9,0.5-1.3,0.2C16.3,4.8,15.5,4.2,14.8,3.6z"/>
	<path fill="#B4B4B4" d="M6.5,3.3c0.2-0.1,0.1-0.4,0.1-0.6C6.4,2.3,6.3,1.8,6.1,1.4C5.9,1.1,5.7,0.8,5.4,0.6c-0.3-0.2-0.7-0.4-1-0.5
		C4,0,3.7,0,3.3,0.1C3,0.1,2.8,0.2,2.5,0.4C1.5,1.2,1.3,2.8,2,3.9c0.3,0.4,0.7,0.7,1.1,1C3.4,5.1,4,5.4,4.3,5.1
		C5.1,4.5,5.8,3.9,6.5,3.3z"/>
	<path fill="#282828" d="M15.7,3.1c-0.2-1.3,0.9-2.4,2.2-2c0.8,0.2,1.3,1,1.2,1.8c-0.1,0.6-0.4,1.2-1,1.4c0.3-0.7,0.4-1.8-0.4-2.2
		c-0.4-0.2-0.9-0.1-1.3,0.2C16.2,2.5,16,2.7,15.7,3.1L15.7,3.1z"/>
	<path fill="#282828" d="M3.9,4.3c-0.7,0-1.3-0.5-1.6-1.1C1.9,2.3,2.4,1.1,3.4,0.8c0.9-0.3,2,0.3,2.2,1.3c0.1,0.3,0.1,0.6,0,1
		C5.5,2.7,5.4,2.4,5.2,2.2C5,2,4.8,1.9,4.6,1.8C3.7,1.4,3.1,2.1,3.1,3c0,0.2,0.1,0.5,0.2,0.7C3.5,3.9,3.7,4.1,3.9,4.3L3.9,4.3z"/>
	<path fill="#B4B4B4" d="M19,15.6c-0.1,0-0.1,0.1-0.2,0.2c-0.2,0.2-0.5,0.5-0.8,0.7c-0.5,0.4-0.9,0.6-1.5,0.8c-1.9,0.6-4,0.7-6,0.7
		c-1.1,0-2.3-0.1-3.4-0.3c-1.3-0.3-2.6-0.8-3.8-1.5c-0.5-0.3-1-0.7-1.4-1.1c-0.9-1-0.7-0.7-0.9-0.3c0,0-0.1,0-0.1,0
		c-0.2-0.4-0.1-1.1-0.2-1.6c-0.1,0.1-0.3,0.3-0.3,0.4c-0.1,0.1-0.1-0.2-0.1-0.3c0-0.5,0.1-0.8,0.2-1.4c-0.2,0.1-0.5,0.5-0.4,0.3
		c0-0.3,0.4-1,0.4-1.6c-0.4,0.2-0.6,0.5-0.5,0c0.1-0.2,0.6-1.1,0.7-1.7C1,8.1,1.2,7.4,1.6,6.8c0.7-1.2,1.6-2.2,2.5-3.2
		c0.6-0.6,1.3-1.1,2.1-1.4C7.4,1.8,8.8,1.6,10,1.6c1.5-0.1,2.9,0,4.3,0.4c1.3,0.4,2.5,1.3,3.4,2.3c0.5,0.5,0.9,1.1,1.3,1.7
		c0.5,0.8,1,1.6,1.3,2.4c0.2,0.4,0.3,0.9,0.4,1.3c0.1,0.5,0.1,1,0.2,1.5c0,0.2,0.1,0.9-0.1,0.8c-0.1-0.1-0.2-0.2-0.2-0.3
		c-0.1,0.6,0,0.9,0,1.2c0,0.1,0,0.8-0.1,0.6c-0.1-0.1-0.2-0.3-0.3-0.3c-0.2,0.6-0.1,0.8-0.2,1.2c0,0.1-0.1,0.5-0.2,0.3
		c-0.1-0.1-0.2-0.4-0.3-0.5c0,0.3-0.1,0.6-0.1,0.7c0,0.1-0.2,1-0.3,0.8c0-0.1-0.1-0.1-0.1-0.2C19.1,15.6,19,15.6,19,15.6z"/>
	<path fill="#282828" d="M8.4,2.6c1.3-0.8,3.4-0.8,4.8-0.1c-0.8,0.2-1.6,0.2-2.4,0.2C9.9,2.8,9.2,2.8,8.4,2.6L8.4,2.6z"/>
	<path fill="#282828" d="M8.6,3.7c1.2-0.5,3-0.6,4.2-0.1C11.7,4.1,9.8,4.1,8.6,3.7L8.6,3.7z"/>
	<path fill="#282828" d="M17.9,7.3c0.6,0.3,1.1,0.9,1.4,1.5c0.8,1.6,0.6,3.6-0.5,4.9c-0.2,0.3-0.5,0.5-0.7,0.7
		c0.2-0.6,0.5-1.2,0.6-1.8C19.1,10.8,18.9,8.9,17.9,7.3L17.9,7.3z"/>
	<path fill="#282828" d="M16.8,8.6c0.4,0.2,0.8,0.6,1,1c0.5,1.1,0.4,2.5-0.5,3.4c-0.2,0.2-0.3,0.3-0.6,0.4c0.2-0.4,0.4-0.8,0.5-1.2
		C17.6,11,17.4,9.7,16.8,8.6L16.8,8.6z"/>
	<path fill="#282828" d="M5.6,15.1c-0.7,0.1-1.4-0.3-2-0.7c-1.4-1-2.2-3-1.7-4.7C2,9.4,2.1,9.1,2.3,8.8c0.1,0.7,0.1,1.3,0.3,1.9
		C3,12.5,4.1,14.1,5.6,15.1L5.6,15.1z"/>
	<path fill="#282828" d="M6.2,13.7c-0.5,0-0.9-0.2-1.2-0.6c-1-0.9-1.3-2.6-0.6-3.8c0.1,0.4,0.1,0.9,0.2,1.2
		C4.8,11.8,5.3,12.9,6.2,13.7L6.2,13.7z"/>
	<path fill="#282828" d="M8,5.3c1.6-0.9,4.3-1,6-0.2c-1,0.2-2,0.3-3,0.3C9.9,5.4,9,5.4,8,5.3L8,5.3z"/>
	<g>
		<defs>
			<path id="SVGID_1_" d="M19.1,15.6c-0.7,0.7-1.5,1.3-2.6,1.7c-1.9,0.6-4,0.7-6,0.7c-1.1,0-2.3-0.1-3.4-0.3c-1.8-0.4-3.6-1.2-5-2.5
				c-0.7-0.7-1.3-1.5-1.5-2.5c-0.2-0.9-0.2-1.8-0.1-2.8c0.2-2.3,1.9-4.6,3.5-6.2c0.6-0.6,1.3-1.1,2.1-1.4C7.4,1.8,8.8,1.6,10,1.6
				c1.5-0.1,2.9,0,4.3,0.4c1.3,0.4,2.5,1.3,3.4,2.3c0.5,0.5,0.9,1.1,1.3,1.7c0.9,1.4,1.7,3,1.8,4.8C20.9,12.2,20,14.7,19.1,15.6z"/>
		</defs>
		<clipPath id="SVGID_00000034078904890283554070000011013039366042763451_">
			<use xlink:href="#SVGID_1_"  overflow="visible"/>
		</clipPath>
		<g clip-path="url(#SVGID_00000034078904890283554070000011013039366042763451_)">
			<path fill="#282828" d="M11.3,4.9c-0.3-1.7-0.1-3.6,0.1-4.1c0.1-0.4-1.7-0.4-1.5,0c0.5,1.3,0.6,2.5,0.6,4.1
				C10.5,5.4,11.4,5.4,11.3,4.9L11.3,4.9z"/>
		</g>
	</g>
	<path fill="#282828" d="M9.4,9C9.3,9.1,9,9,8.8,8.9C8.7,8.8,8.6,8.6,8.7,8.4C8.8,8.3,8.9,8.3,9,8.2c0.2,0,0.3,0,0.5,0.1
		C9.7,8.4,9.6,8.7,9.4,9C9.5,8.9,9.4,8.9,9.4,9z"/>
	<path fill="#282828" d="M13,8.8C12.9,8.8,12.9,8.8,13,8.8c-0.2,0-0.4-0.1-0.4-0.2c-0.1-0.1-0.1-0.3,0-0.4c0.2-0.4,1-0.1,0.8,0.3
		C13.3,8.7,13.2,8.8,13,8.8z"/>
	<path fill="#282828" d="M12.5,7.8c0.4-0.7,1.4-0.7,1.9-0.3c0,0,0,0,0,0c-0.5,0-1,0-1.5,0.1C12.8,7.7,12.7,7.7,12.5,7.8L12.5,7.8
		L12.5,7.8z"/>
	<path fill="#282828" d="M9.7,7.8c-0.3,0-0.5,0-0.8,0c-0.3,0-0.5,0-0.7,0c-0.2,0-0.3,0-0.6-0.1l0,0c0.3-0.1,0.7-0.2,1.1-0.2
		C9,7.5,9.4,7.6,9.7,7.8C9.7,7.8,9.7,7.8,9.7,7.8L9.7,7.8z"/>
	<path fill="#282828" d="M9.5,13.8c0.1,0.3,0.1,0.5,0.2,0.8c0,0.1,0.1,0.3,0.1,0.3c0.1,0.1,0.2-0.2,0.2-0.2c0-0.2,0.1-0.3,0.1-0.5
		c0-0.1,0.1-0.3,0.1-0.4c0-0.1,0-0.2,0-0.2c-0.1,0-0.2,0-0.3,0.1C9.8,13.7,9.7,13.7,9.5,13.8z"/>
	<path fill="#282828" d="M12.4,13.6c0,0.3,0.1,0.5,0.1,0.8c0,0.1,0.1,0.3,0.1,0.3c0.1,0.1,0.2-0.2,0.2-0.2c0.1-0.2,0.1-0.3,0.2-0.5
		c0.1-0.1,0.1-0.3,0.1-0.4c0-0.1,0.1-0.2,0-0.2c-0.1,0-0.2,0-0.3,0.1C12.7,13.5,12.6,13.5,12.4,13.6z"/>
	<path fill="#E6E6E6" d="M9.9,10.7c-0.6,0.2-1.2,0.5-1.6,1c-0.4,0.5-0.5,1.2-0.2,1.7c0.4,0.7,1.4,0.9,2.2,0.7c0.4-0.1,0.7-0.3,1-0.5
		c0.5,0.3,0.6,0.3,1,0.4c0.5,0.1,1.2,0.1,1.7-0.2c0.4-0.3,0.5-0.8,0.5-1.2c-0.1-0.6-0.5-1.1-1-1.5c-0.6-0.4-1.5-0.6-2.2-0.6
		C10.8,10.5,10.3,10.5,9.9,10.7z"/>
	<path fill="#282828" d="M9.5,10.1C9.6,10,9.8,9.9,10,9.9c0.4-0.1,0.9-0.1,1.4-0.1c0.4,0,0.8,0,1.1,0.2c0.2,0.2,0.1,0.5,0,0.7
		c-0.2,0.3-0.3,0.6-0.6,0.9c-0.1,0.2-0.3,0.3-0.5,0.4c-0.3,0.1-0.7-0.1-0.9-0.3c-0.3-0.2-0.5-0.4-0.7-0.7
		C9.6,10.7,9.4,10.5,9.5,10.1C9.5,10.2,9.5,10.1,9.5,10.1z"/>
	<path fill="#282828" d="M13.1,11.4c0.5-0.2,0.9-0.4,1.4-0.6c0.5-0.2,1-0.2,1.5-0.1c0,0,0,0,0,0c-0.5,0.1-1,0.2-1.5,0.3
		C14.1,11.1,13.6,11.2,13.1,11.4L13.1,11.4L13.1,11.4z"/>
	<path fill="#282828" d="M13.5,12.4c0.4-0.1,1.1-0.2,1.5-0.2c0.5-0.1,1-0.1,1.5,0c0,0,0,0,0,0c-0.5,0.2-1,0.2-1.5,0.2
		C14.7,12.3,13.9,12.4,13.5,12.4L13.5,12.4L13.5,12.4z"/>
	<path fill="#282828" d="M13.5,13.3c0.5,0.1,0.9,0.3,1.4,0.3c0.5,0.1,1,0.1,1.4,0.3c0,0,0,0,0,0c-0.5,0.1-1,0-1.5-0.1
		C14.4,13.7,14,13.5,13.5,13.3L13.5,13.3L13.5,13.3z"/>
	<path fill="#282828" d="M8.7,11.8c-0.5-0.2-1.1-0.4-1.6-0.6C6.5,11.1,6,11,5.4,10.8c0,0,0,0,0,0C6,10.7,6.6,10.8,7.1,11
		C7.7,11.2,8.2,11.5,8.7,11.8L8.7,11.8L8.7,11.8z"/>
	<path fill="#282828" d="M8.7,12.7c-0.5,0.1-1,0.2-1.4,0.3c-0.5,0.1-1,0.3-1.5,0.2l0,0c0.4-0.2,0.9-0.3,1.4-0.4
		C7.7,12.8,8.2,12.7,8.7,12.7L8.7,12.7L8.7,12.7z"/>
	<path fill="#282828" d="M9.1,13.5c-0.4,0.4-0.8,0.7-1.3,0.9c-0.2,0.1-0.4,0.3-0.7,0.4c-0.2,0.1-0.5,0.2-0.8,0.3l0,0
		c0.3-0.3,0.6-0.5,1-0.6c0.3-0.2,0.7-0.3,1.1-0.5C8.7,13.8,8.9,13.7,9.1,13.5L9.1,13.5L9.1,13.5z"/>
</g>
</svg>
