<?xml version="1.0" encoding="utf-8"?>
<!-- Generator: Adobe Illustrator 26.0.1, SVG Export Plug-In . SVG Version: 6.00 Build 0)  -->
<svg version="1.1" id="레이어_1" xmlns="http://www.w3.org/2000/svg" xmlns:xlink="http://www.w3.org/1999/xlink" x="0px"
	 y="0px" viewBox="0 0 56.26 51.28" style="enable-background:new 0 0 56.26 51.28;" xml:space="preserve">
<style type="text/css">
	.st0{fill:#FFFFFF;}
	.st1{fill:#282828;}
	.st2{fill:#F1F1F1;}
	.st3{fill:#231815;}
	.st4{fill:#FFF0DC;}
	.st5{fill:#FFE26E;}
</style>
<g>
	<g>
		<path class="st0" d="M9.84,34c-1.83,0.93-3.25,3.93-4.22,5.61c-0.64,1.12-2.48,4.76,0.63,4.22c2.2-0.39,3.56-3.56,4.43-5.14
			c0.81-1.47,2.41-3.92-0.43-4.55L9.84,34z"/>
	</g>
	<g>
		<g>
			<path class="st1" d="M9.57,33.53c-2.06,1.1-3.16,3.57-4.25,5.51c-0.66,1.19-1.65,2.79-1.31,4.21c0.19,0.8,0.9,1.17,1.68,1.17
				c1.08,0,2.03-0.52,2.78-1.27c0.81-0.81,1.41-1.81,1.95-2.81c0.43-0.8,0.88-1.6,1.3-2.41c0.43-0.83,0.9-1.85,0.62-2.8
				c-0.31-1.09-1.4-1.35-2.36-1.65c-0.67-0.21-0.95,0.84-0.29,1.04c0.56,0.18,1.44,0.27,1.61,0.94c0.16,0.6-0.21,1.32-0.48,1.84
				c-0.35,0.68-0.74,1.35-1.1,2.03c-0.43,0.81-0.87,1.63-1.42,2.36c-0.53,0.7-1.21,1.39-2.09,1.59c-0.28,0.06-0.66,0.12-0.94,0
				c-0.16-0.07-0.2-0.15-0.23-0.35c-0.16-1.01,0.61-2.28,1.1-3.15c0.54-0.96,1.05-1.94,1.65-2.87c0.6-0.94,1.31-1.91,2.32-2.45
				C10.73,34.14,10.18,33.2,9.57,33.53z"/>
		</g>
	</g>
	<g>
		<path class="st2" d="M24.19,36.87c0.92,1.74,3.15,4.97,4.38,6.49c0.93,1.14,3.52,3.16,3.89,0.72c0.31-2.01-2.83-7.35-4.85-9.13
			c-0.9-0.79-1.21,0.08-2.21,0.95L24.19,36.87z"/>
	</g>
	<g>
		<g>
			<path class="st3" d="M23.72,37.14c1.1,2.06,2.47,4.01,3.89,5.86c0.59,0.77,1.19,1.46,1.98,2.03c0.67,0.48,1.61,0.98,2.44,0.63
				c0.82-0.35,1.07-1.38,0.99-2.19c-0.09-0.94-0.44-1.83-0.82-2.69c-0.88-1.99-2.08-3.95-3.54-5.56c-0.36-0.39-0.77-0.88-1.28-1.05
				c-0.65-0.22-1.17,0.17-1.61,0.62c-0.61,0.63-1.27,1.16-1.95,1.7c-0.54,0.44,0.23,1.2,0.77,0.77c0.4-0.32,0.82-0.64,1.21-0.97
				c0.21-0.18,0.4-0.38,0.59-0.58c0.14-0.14,0.33-0.43,0.53-0.5c0.27-0.09,0.65,0.42,0.82,0.6c1.3,1.37,2.33,3.05,3.17,4.74
				c0.38,0.77,0.74,1.58,0.94,2.42c0.11,0.44,0.29,1.34-0.16,1.66c-0.43,0.3-1.28-0.34-1.62-0.6c-0.62-0.47-1.11-1.05-1.58-1.67
				c-1.39-1.83-2.74-3.75-3.82-5.77C24.33,35.98,23.4,36.52,23.72,37.14z"/>
		</g>
	</g>
	<path class="st1" d="M9.61,13.37c-0.18,0-0.36-0.09-0.46-0.26L3.71,4.48C3.55,4.22,3.62,3.89,3.88,3.73
		C4.13,3.56,4.47,3.64,4.63,3.9l5.44,8.64c0.16,0.26,0.09,0.59-0.17,0.75C9.81,13.35,9.71,13.37,9.61,13.37z"/>
	<path class="st1" d="M26.59,12.53c-0.11,0-0.22-0.03-0.32-0.1c-0.25-0.18-0.3-0.52-0.12-0.76l5.49-7.59
		c0.18-0.25,0.52-0.3,0.76-0.12c0.25,0.18,0.3,0.52,0.12,0.76l-5.49,7.59C26.93,12.45,26.76,12.53,26.59,12.53z"/>
	<g>
		<path class="st4" d="M2.78,10.28c-0.28,0.01-0.56-0.11-0.82-0.46c-0.29-0.39-0.51-0.83-0.7-1.28c-0.34-0.8-0.64-1.69-0.7-2.56
			c-0.12-1.87,0.93-4.46,3-5.04c1.67-0.47,3.89,0.51,5.23,1.42c2.43,1.66,2.31,2.31-0.55,4.32C6.57,7.86,6.36,7.82,4.31,9.4
			C3.84,9.75,3.3,10.25,2.78,10.28z"/>
	</g>
	<g>
		<g>
			<path class="st1" d="M2.78,9.74c-0.42,0-0.7-0.71-0.86-1.03C1.65,8.16,1.43,7.58,1.27,6.98c-0.23-0.88-0.24-1.75,0-2.63
				C1.7,2.76,2.85,1.31,4.63,1.36c1.03,0.03,2.05,0.43,2.95,0.91c0.75,0.4,1.58,0.9,2.14,1.55c0.32,0.37,0.27,0.61-0.04,0.98
				C9.06,5.53,8.19,6.07,7.41,6.59C6.81,7,6.19,7.37,5.59,7.79C5.16,8.08,4.74,8.4,4.32,8.72C3.9,9.04,3.32,9.67,2.78,9.74
				c-0.68,0.08-0.69,1.17,0,1.08c0.64-0.08,1.11-0.41,1.61-0.8c0.5-0.39,1.01-0.78,1.53-1.14C6.59,8.4,7.29,7.99,7.96,7.53
				c1.17-0.79,3.98-2.37,2.77-4.15c-0.55-0.81-1.52-1.42-2.36-1.9C7.3,0.86,6.09,0.39,4.84,0.29C2.56,0.12,0.9,1.83,0.27,3.89
				c-0.37,1.23-0.33,2.48,0.05,3.7c0.23,0.74,0.53,1.5,0.94,2.16c0.35,0.57,0.8,1.06,1.52,1.07C3.47,10.83,3.47,9.75,2.78,9.74z"/>
		</g>
	</g>
	<g>
		<path class="st4" d="M27.49,4.06c-0.11-0.24-0.13-0.51,0-0.8c0.2-0.48,0.86-0.97,1.26-1.29c2.02-1.65,4.97-2.24,6.64,0.22
			c1.09,1.6,1.11,3.19,0.35,4.9c-0.22,0.5-0.64,1.79-1.52,1.96c-0.77,0.15-1.78-0.81-2.15-1.12c-0.86-0.73-1.71-1.38-2.6-2.06
			C28.93,5.44,27.82,4.79,27.49,4.06z"/>
	</g>
	<g>
		<g>
			<path class="st1" d="M28.01,3.91c-0.27-0.71,0.83-1.36,1.32-1.72c0.58-0.43,1.23-0.77,1.93-0.96c1.4-0.39,2.81-0.01,3.66,1.23
				c0.53,0.77,0.84,1.65,0.8,2.6c-0.04,0.79-0.33,1.52-0.64,2.23c-0.18,0.41-0.49,1.22-1.03,1.23c-0.56,0.01-1.14-0.6-1.54-0.94
				c-0.89-0.76-1.82-1.48-2.76-2.18c-0.62-0.47-1.43-0.88-1.79-1.6c-0.31-0.63-1.24-0.08-0.93,0.55c0.41,0.85,1.3,1.35,2.03,1.89
				c0.96,0.7,1.89,1.44,2.79,2.21c0.6,0.52,1.35,1.16,2.2,1.16c0.9,0,1.5-0.78,1.86-1.52c0.42-0.87,0.78-1.76,0.88-2.76
				c0.11-1.1-0.18-2.21-0.76-3.15C35,0.49,33.25-0.29,31.33,0.1c-1.02,0.2-1.98,0.71-2.79,1.34c-0.85,0.66-2.03,1.53-1.57,2.76
				C27.21,4.85,28.26,4.57,28.01,3.91z"/>
		</g>
	</g>
	<g>
		<path class="st4" d="M18.36,5.94c-6.35,0.54-12.46,4.51-15.7,9.85c-3.33,5.49-2.73,12.88,1.74,17.4c3.4,3.45,8.34,5.63,13.19,5.74
			c4.89,0.11,9.56-2.12,13.02-5.56c6.2-6.17,5.3-19.15-1.74-24.36c-2.47-1.83-4.11-2.69-7.16-3.03C20.59,5.85,19.47,5.84,18.36,5.94
			z"/>
	</g>
	<g>
		<g>
			<path class="st1" d="M18.36,5.4C10.97,6.13,3.49,11.07,0.9,18.22c-2.59,7.15,0.57,14.5,6.92,18.34c7.1,4.29,15.7,3.65,22.01-1.74
				c4.87-4.16,6.33-10.87,4.97-16.98C33.07,10.02,26.39,4.84,18.36,5.4c-0.69,0.05-0.7,1.13,0,1.08c6.54-0.45,12.43,3.07,14.72,9.3
				c1.89,5.15,1.57,11.66-1.89,16.11c-4.53,5.83-12.54,7.86-19.37,5.4C4.86,34.76-0.1,28.4,1.33,20.79
				c1.47-7.83,9.4-13.55,17.03-14.31C19.05,6.41,19.05,5.33,18.36,5.4z"/>
		</g>
	</g>
	<g>
		<path class="st0" d="M8.59,14.29c1.78-1.77,4.04-3.13,6.59-4.16c2.89-1.17,6.71-0.65,9.42,0.73c5.77,2.93,7.54,9.3,5.94,15.33
			c-1.34,5.07-7.09,8.72-12.19,8.72c-5.2,0-10.22-1.96-12.8-6.4c-1.2-2.07-1.27-5.09-0.74-7.42C5.44,18.33,6.76,16.1,8.59,14.29z"/>
	</g>
	<g>
		<g>
			<path class="st1" d="M8.97,14.67c1.95-1.88,4.48-3.49,7.09-4.27c2.68-0.8,5.8-0.31,8.27,0.93c4.4,2.21,6.51,6.87,6.2,11.66
				c-0.33,5.1-3.52,9.1-8.37,10.73c-4.51,1.52-10.28,0.46-13.87-2.71c-2.37-2.09-3.44-4.81-3.22-7.96
				C5.29,19.86,6.74,16.94,8.97,14.67c0.49-0.5-0.28-1.26-0.77-0.77c-3.97,4.04-6.03,11.08-2.39,16c3.24,4.37,9.48,6.3,14.74,5.35
				c5.31-0.96,9.87-4.95,10.82-10.34c0.89-5.07-0.59-10.48-4.92-13.56c-2.59-1.84-5.96-2.71-9.11-2.31
				c-3.37,0.43-6.74,2.54-9.14,4.87C7.7,14.39,8.47,15.16,8.97,14.67z"/>
		</g>
	</g>
	<g>
		<path class="st4" d="M17.14,23.46c0.84-3.26-0.59-6.47,0.75-9.59c0.28-0.66,1.01-1.41,1.84-0.84c0.55,0.37,0.66,1.76,0.69,2.32
			c0.08,1.43,0.03,2.34-0.11,3.75c-0.11,1.06,0.14,3.57-0.83,4.3L17.14,23.46z"/>
	</g>
	<g>
		<g>
			<path class="st1" d="M17.66,23.6c0.39-1.62,0.3-3.25,0.21-4.9c-0.04-0.82-0.08-1.65-0.01-2.48c0.07-0.77,0.21-1.71,0.64-2.37
				c0.33-0.51,0.88-0.66,1.12-0.02c0.18,0.48,0.22,1,0.25,1.51c0.09,1.44-0.1,2.84-0.14,4.27c-0.02,0.63-0.01,1.25-0.08,1.88
				c-0.05,0.52-0.13,1.16-0.56,1.51c0.13-0.05,0.26-0.11,0.38-0.16c-0.78,0.02-1.56,0.05-2.34,0.07c-0.7,0.02-0.7,1.1,0,1.08
				c0.49-0.01,0.98-0.03,1.48-0.04c0.52-0.02,1.03,0.07,1.42-0.35c1.05-1.14,0.69-3.11,0.81-4.52c0.1-1.15,0.18-2.29,0.13-3.45
				c-0.04-0.8-0.09-1.65-0.42-2.39c-0.37-0.82-1.35-1.22-2.17-0.76c-0.9,0.51-1.25,1.65-1.44,2.6c-0.56,2.73,0.34,5.52-0.33,8.23
				C16.45,23.99,17.49,24.28,17.66,23.6z"/>
		</g>
	</g>
	<g>
		<path class="st4" d="M17.54,22.4c-1.55-0.08-3.06-0.08-4.59,0c-1.13,0.06-3.44-0.19-4.39,0.45c-1.44,0.97,0.39,2.25,1.4,2.31
			c1.51,0.09,3.05,0.06,4.56-0.01c0.83-0.03,3.13,0.02,3.59-0.82L17.54,22.4z"/>
	</g>
	<g>
		<g>
			<path class="st1" d="M17.54,21.85c-2.19-0.11-4.39-0.02-6.59,0.01c-0.83,0.01-1.76,0.04-2.51,0.43
				c-0.72,0.37-1.19,1.15-0.83,1.94c0.82,1.8,3.31,1.55,4.9,1.53c0.96-0.01,1.92-0.05,2.88-0.08c0.76-0.03,1.57-0.07,2.29-0.36
				c0.33-0.13,0.7-0.34,0.87-0.67c0.15-0.27,0.06-0.49-0.01-0.75c-0.16-0.55-0.32-1.1-0.48-1.65c-0.19-0.67-1.24-0.38-1.04,0.29
				c0.19,0.65,0.38,1.3,0.56,1.95c0.02-0.14,0.04-0.28,0.05-0.42c-0.19,0.31-0.78,0.38-1.11,0.43c-0.49,0.08-0.99,0.09-1.49,0.11
				c-1.51,0.04-3.02,0.11-4.54,0.05c-0.57-0.02-1.06-0.09-1.53-0.45c-0.36-0.27-0.58-0.58-0.15-0.89c0.4-0.29,0.99-0.32,1.46-0.35
				c0.62-0.04,1.25-0.02,1.87-0.02c1.8,0.02,3.58-0.11,5.38-0.01C18.24,22.97,18.24,21.89,17.54,21.85z"/>
		</g>
	</g>
	<g>
		<path class="st0" d="M17.58,21.19c-0.97,0.32-1.51,1.24-1.61,2.14c-0.16,1.41,0.93,2.54,2.58,2.21c1.36-0.27,2.35-1.53,2.23-2.68
			C20.63,21.42,18.75,20.8,17.58,21.19z"/>
	</g>
	<g>
		<g>
			<path class="st1" d="M17.44,20.67c-1.24,0.43-2.04,1.66-2.02,2.97c0.02,1.14,0.77,2.16,1.9,2.42c1.3,0.3,2.65-0.29,3.44-1.34
				c0.72-0.96,0.8-2.29-0.02-3.21C19.95,20.65,18.53,20.32,17.44,20.67c-0.66,0.21-0.38,1.26,0.29,1.04
				c0.09-0.03,0.18-0.05,0.27-0.07c0.02-0.01,0.14-0.02,0.04-0.01c0.04-0.01,0.09-0.01,0.13-0.01c0.1-0.01,0.2-0.01,0.3,0
				c0.04,0,0.07,0,0.11,0.01c0.04,0,0.07,0.01,0.11,0.01c-0.04-0.01-0.04,0,0,0c0.42,0.07,0.7,0.17,1.04,0.41
				c0.23,0.16,0.42,0.41,0.49,0.72c0.07,0.29,0.01,0.68-0.15,0.99c-0.4,0.79-1.25,1.31-2.15,1.29c-0.73-0.02-1.26-0.45-1.4-1.15
				c-0.07-0.35,0-0.86,0.19-1.24c0.22-0.43,0.54-0.78,1.01-0.95c0.28-0.1,0.46-0.37,0.38-0.67C18.03,20.78,17.71,20.57,17.44,20.67z
				"/>
		</g>
	</g>
	<g>
		<path class="st5" d="M24.75,26.32c-0.09,1.11-0.01,2.27-0.01,3.39c0,1.08,0,2.17,0,3.25c0,2.82-0.01,5.64-0.01,8.46
			c-0.98,0.06-2.96,0.16-3.93,0.22c4.88,3.57,8.18,5.95,12.89,9.09c4.58-3.63,6.42-5.06,11.66-9.27c-1.32,0.02-2.52-0.03-3.72-0.02
			c0.11-4.98,0-10.06-0.06-14.96c0-0.1-0.03-0.21-0.1-0.28c-0.07-0.05-0.16-0.06-0.24-0.06c-2.54-0.02-5.39,0.02-7.93,0.04
			c-1.32,0.01-3.6,0.03-4.92,0.05C27.03,26.27,26.09,26.19,24.75,26.32z"/>
	</g>
	<g>
		<g>
			<path class="st1" d="M24.21,26.32c-0.16,2.43-0.01,4.91-0.01,7.35c0,2.59-0.01,5.17-0.01,7.76c0.18-0.18,0.36-0.36,0.54-0.54
				c-1.31,0.08-2.62,0.14-3.93,0.22c-0.56,0.03-0.7,0.69-0.27,1.01c4.24,3.11,8.51,6.17,12.89,9.09c0.22,0.14,0.47,0.06,0.66-0.08
				c3.89-3.08,7.79-6.16,11.66-9.27c0.38-0.3,0.05-0.93-0.38-0.92c-1.24,0.01-2.48-0.02-3.72-0.02c0.18,0.18,0.36,0.36,0.54,0.54
				c0.06-3.13,0.05-6.26,0.01-9.39c-0.02-1.55-0.04-3.1-0.06-4.65c-0.01-1.03,0.04-1.71-1.11-1.8c-2.8-0.2-5.7,0.02-8.51,0.05
				c-2.57,0.02-5.19-0.1-7.75,0.12c-0.69,0.06-0.7,1.14,0,1.08c2.56-0.21,5.18-0.1,7.75-0.12c1.36-0.01,2.72-0.02,4.08-0.04
				c0.75-0.01,1.49-0.01,2.24-0.01c0.77,0,1.75-0.14,2.49,0.05c-0.13-0.13-0.25-0.25-0.38-0.38c0.4,1.06,0.12,2.71,0.13,3.83
				c0.02,1.25,0.03,2.5,0.04,3.75c0.02,2.5,0.02,5.01-0.03,7.51C41.07,41.75,41.33,42,41.62,42c1.24,0,2.48,0.03,3.72,0.02
				c-0.13-0.31-0.26-0.62-0.38-0.92c-3.87,3.11-7.77,6.18-11.66,9.27c0.22-0.03,0.44-0.06,0.66-0.08
				c-4.38-2.92-8.64-5.99-12.89-9.09c-0.09,0.34-0.18,0.67-0.27,1.01c1.31-0.08,2.62-0.14,3.93-0.22c0.29-0.02,0.54-0.23,0.54-0.54
				c0-2.59,0.01-5.17,0.01-7.76c0-2.44-0.14-4.92,0.01-7.35C25.34,25.62,24.25,25.63,24.21,26.32z"/>
		</g>
	</g>
	<g>
		<path class="st0" d="M31.29,30.79c-0.04-0.1-0.09-0.2-0.15-0.28c-0.42-0.56-1.22-0.74-1.88-0.61c-1.39,0.26-1.87,2.1-0.77,3
			c0.47,0.39,1.12,0.44,1.68,0.22C31.09,32.75,31.67,31.76,31.29,30.79z"/>
	</g>
	<g>
		<g>
			<path class="st1" d="M31.81,30.64c-0.23-0.55-0.62-0.92-1.17-1.14c-0.43-0.18-0.91-0.21-1.37-0.15c-0.85,0.11-1.51,0.7-1.8,1.5
				c-0.28,0.76-0.1,1.61,0.41,2.22c0.7,0.83,1.92,0.9,2.83,0.39C31.68,32.9,32.21,31.71,31.81,30.64c-0.1-0.26-0.37-0.47-0.67-0.38
				c-0.26,0.08-0.49,0.38-0.38,0.67c0.03,0.09,0.06,0.18,0.08,0.27c0.01,0.02,0.02,0.17,0.01,0.04c0,0.03,0.01,0.06,0.01,0.09
				c0,0.09,0,0.18-0.01,0.27c0.02-0.14,0,0-0.01,0.03c-0.01,0.04-0.02,0.08-0.03,0.13c-0.01,0.04-0.03,0.08-0.04,0.12
				c0.05-0.12-0.01,0.01-0.02,0.03c-0.03,0.06-0.07,0.13-0.11,0.19c-0.01,0.02-0.1,0.13-0.02,0.03c-0.03,0.03-0.06,0.07-0.09,0.1
				c-0.06,0.07-0.13,0.12-0.2,0.18c0.1-0.08-0.02,0.01-0.04,0.02c-0.04,0.03-0.08,0.05-0.12,0.07c-0.07,0.04-0.14,0.07-0.21,0.1
				c0.12-0.05-0.04,0.01-0.05,0.01c-0.05,0.02-0.1,0.03-0.14,0.04c-0.05,0.01-0.1,0.02-0.15,0.03c0.1-0.02-0.02,0-0.05,0
				c-0.1,0.01-0.2,0-0.29-0.01c0.13,0.02-0.03-0.01-0.05-0.01c-0.03-0.01-0.06-0.02-0.09-0.03c-0.01,0-0.16-0.06-0.05-0.01
				c-0.05-0.02-0.09-0.04-0.13-0.07c-0.04-0.02-0.09-0.05-0.13-0.08c0.06,0.04-0.01-0.01-0.03-0.03c-0.06-0.05-0.11-0.11-0.16-0.16
				c-0.08-0.09,0.04,0.07,0.01,0.01c-0.01-0.03-0.04-0.05-0.05-0.08c-0.01-0.02-0.11-0.18-0.1-0.19c0,0,0.04,0.12,0.01,0.01
				c-0.01-0.04-0.03-0.08-0.04-0.12c-0.01-0.04-0.02-0.18-0.05-0.2c0.04,0.04,0.01,0.12,0,0.02c0-0.03,0-0.06-0.01-0.09
				c0-0.07,0-0.14,0.01-0.21c0-0.02,0-0.13,0-0.03c0,0.09,0.01-0.04,0.01-0.06c0.01-0.07,0.03-0.14,0.06-0.2
				c0.01-0.02,0.02-0.04,0.02-0.07c0.04-0.12-0.06,0.11,0,0c0.03-0.06,0.06-0.12,0.1-0.18c0.01-0.02,0.03-0.04,0.04-0.06
				c0.09-0.12-0.04,0.04,0.02-0.03c0.05-0.05,0.09-0.1,0.15-0.15c0.02-0.02,0.04-0.03,0.05-0.05c0.09-0.08-0.1,0.06,0,0
				c0.06-0.04,0.12-0.08,0.18-0.11c0.02-0.01,0.04-0.02,0.07-0.03c0.05-0.02,0.04-0.02-0.03,0.01c0.02-0.01,0.05-0.02,0.07-0.03
				c0.08-0.03,0.17-0.03,0.24-0.06c0.08-0.03-0.13,0.01,0.01,0c0.06,0,0.12-0.01,0.18-0.01c0.09,0,0.18,0,0.27,0.01
				c0.15,0.01-0.11-0.03,0.04,0.01c0.06,0.01,0.12,0.02,0.18,0.04c0.04,0.01,0.09,0.03,0.13,0.04c0.03,0.01,0.15,0.06,0.04,0.01
				c0.1,0.05,0.18,0.1,0.27,0.16c-0.08-0.05-0.02-0.02,0,0c0.04,0.04,0.09,0.08,0.13,0.12c0.1,0.09-0.05-0.09,0.03,0.04
				c0.01,0.02,0.1,0.19,0.07,0.11c0.11,0.26,0.36,0.48,0.67,0.38C31.68,31.23,31.92,30.92,31.81,30.64z"/>
		</g>
	</g>
	<g>
		<path class="st0" d="M36.11,38.71c0.15-0.03,0.3-0.05,0.46-0.05c0.39,0.01,0.77,0.15,1.07,0.39c0.28,0.23,0.47,0.57,0.56,0.93
			c0.09,0.36,0.05,0.66-0.1,1c-0.28,0.63-0.94,1.01-1.61,1.05c-0.68,0.05-1.34-0.28-1.61-0.93c-0.03-0.08-0.06-0.16-0.08-0.24
			c-0.08-0.3-0.06-0.62,0.02-0.92C35,39.31,35.49,38.86,36.11,38.71z"/>
	</g>
	<g>
		<g>
			<path class="st1" d="M36.25,39.24c-0.01,0,0.17-0.03,0.1-0.02c-0.06,0.01,0.06,0,0.07,0c0.09,0,0.17,0,0.26,0
				c-0.02,0-0.09-0.02,0.02,0c0.04,0.01,0.07,0.01,0.11,0.02c0.04,0.01,0.09,0.02,0.13,0.04c0.02,0.01,0.12,0.04,0.05,0.02
				c0.09,0.04,0.16,0.09,0.24,0.13c0.01,0.01,0.08,0.06,0.02,0.01c0.03,0.02,0.05,0.05,0.08,0.07c0.01,0.01,0.14,0.16,0.09,0.09
				c0.06,0.07,0.11,0.16,0.15,0.24c0.01,0.01,0.05,0.11,0.03,0.05c-0.03-0.07,0.03,0.09,0.03,0.08c0.02,0.07,0.04,0.14,0.06,0.21
				c0.03,0.1,0.01,0.06,0.01,0.03c0.01,0.05,0.01,0.09,0.01,0.14c0,0.04,0,0.07,0,0.11c0,0.04,0,0.04,0-0.01
				c0,0.03-0.01,0.05-0.02,0.08c-0.04,0.16-0.06,0.21-0.14,0.35c-0.02,0.03-0.04,0.06-0.05,0.08c-0.08,0.13,0.04-0.04-0.02,0.03
				c-0.05,0.06-0.11,0.12-0.17,0.17c-0.02,0.02-0.1,0.08-0.02,0.02c-0.03,0.02-0.05,0.04-0.08,0.06c-0.05,0.04-0.11,0.07-0.17,0.1
				c0.01,0-0.14,0.06-0.07,0.03c0.06-0.03-0.04,0.01-0.05,0.02c-0.09,0.03-0.17,0.05-0.26,0.07c-0.03,0.01-0.06,0.01-0.1,0.02
				c0.02,0,0.1-0.01,0,0c-0.07,0.01-0.14,0.01-0.22,0.01c-0.03,0-0.06,0-0.1,0c-0.03,0-0.13-0.02-0.02,0
				c-0.08-0.02-0.15-0.03-0.23-0.06c-0.03-0.01-0.06-0.02-0.09-0.03c0.09,0.03,0.02,0.01,0,0c-0.06-0.03-0.12-0.06-0.18-0.1
				c-0.02-0.02-0.1-0.08-0.02-0.01c-0.02-0.02-0.05-0.04-0.07-0.06c-0.02-0.02-0.04-0.04-0.07-0.07c-0.01-0.01-0.1-0.13-0.04-0.04
				c-0.19-0.26-0.24-0.48-0.21-0.81c0.01-0.12,0.01-0.07,0-0.04c0.01-0.06,0.02-0.12,0.04-0.18c0.01-0.03,0.02-0.06,0.03-0.09
				c0.01-0.03,0.06-0.14,0.02-0.05c0.04-0.07,0.07-0.14,0.11-0.21c0.02-0.03,0.03-0.05,0.05-0.08c-0.06,0.09,0.01-0.02,0.03-0.04
				c0.05-0.06,0.11-0.11,0.17-0.16c0.1-0.1-0.05,0.03,0.02-0.01c0.04-0.02,0.08-0.05,0.12-0.07c0.03-0.02,0.05-0.03,0.08-0.04
				c0.02-0.01,0.14-0.06,0.08-0.04c-0.06,0.02,0.03-0.01,0.04-0.01C36.15,39.26,36.2,39.25,36.25,39.24
				c0.28-0.07,0.47-0.39,0.38-0.67c-0.09-0.29-0.37-0.45-0.67-0.38c-0.84,0.21-1.52,0.89-1.7,1.74c-0.2,0.95,0.18,2,1.09,2.42
				c0.79,0.36,1.74,0.28,2.45-0.22c0.79-0.57,1.18-1.58,0.83-2.51c-0.19-0.51-0.52-0.95-1.01-1.21c-0.52-0.28-1.1-0.34-1.66-0.22
				c-0.28,0.06-0.46,0.4-0.38,0.67C35.68,39.15,35.95,39.3,36.25,39.24z"/>
		</g>
	</g>
	<g>
		<path class="st0" d="M36.04,30.35c-0.18,0.21-0.34,0.42-0.37,0.46c-0.33,0.43-0.67,0.87-1,1.3c-0.67,0.87-1.34,1.73-2.02,2.59
			c-1.36,1.72-2.73,3.42-4.16,5.09c-0.27,0.31-0.67,0.79-0.6,1.01c0.04,0.13,0.45,0.48,0.65,0.63c0.2,0.15,0.27,0.21,0.48,0.36
			c0.07,0.05,0.42,0.28,0.42,0.28s0.36-0.4,0.43-0.48c3.04-3.33,5.7-6.56,8.4-10.17c-0.61-0.7-0.81-0.85-1.7-1.56
			C36.5,29.81,36.25,30.09,36.04,30.35z"/>
	</g>
	<g>
		<g>
			<path class="st1" d="M35.65,29.96c-2.05,2.47-3.92,5.08-5.97,7.56c-0.52,0.63-1.05,1.26-1.59,1.89
				c-0.31,0.37-0.77,0.83-0.76,1.34c0.02,0.77,1.25,1.42,1.82,1.78c0.19,0.12,0.5,0.09,0.66-0.08c3.13-3.47,6.12-7.02,8.92-10.76
				c0.15-0.2,0.06-0.49-0.08-0.66c-0.44-0.5-0.92-0.93-1.44-1.35c-0.24-0.2-0.44-0.41-0.77-0.35C36.1,29.4,35.86,29.72,35.65,29.96
				c-0.45,0.53,0.31,1.29,0.77,0.77c0.03-0.04,0.41-0.36,0.15-0.33c-0.13-0.05-0.26-0.11-0.38-0.16c0.61,0.49,1.18,0.97,1.7,1.56
				c-0.03-0.22-0.06-0.44-0.08-0.66c-2.74,3.66-5.68,7.14-8.75,10.54c0.22-0.03,0.44-0.06,0.66-0.08c-0.26-0.17-0.52-0.35-0.77-0.54
				c-0.11-0.08-0.4-0.43-0.51-0.44c-0.06-0.08-0.07-0.06-0.02,0.03c0.02,0.1,0.04,0.11,0.07,0.01c0.08-0.03,0.2-0.28,0.28-0.37
				c0.88-1.07,1.78-2.12,2.66-3.19c1.7-2.1,3.28-4.3,5-6.38C36.86,30.2,36.1,29.43,35.65,29.96z"/>
		</g>
	</g>
	<g>
		<path class="st4" d="M42.92,25.96c-1.04,1.06-2.15,2.82-2.29,3.92c-0.1,0.77,0.4,1.67,1.07,2.06c0.32,0.19,0.73,0.25,1.09,0.27
			c0.38,0.02,0.71,0.03,1.05-0.12c0.88-0.4,1.31-1.18,1.81-2c0.48-0.78,0.85-1.68,1.02-2.8c0.06,1.13,0.44,1.6,1,2.71
			c0.07,0.15,0.16,0.29,0.25,0.43c0.21,0.32,0.47,0.61,0.78,0.84c0.15,0.11,0.32,0.21,0.49,0.3c0.27,0.13,0.56,0.22,0.85,0.24
			c0.88,0.07,1.54-0.48,1.72-1.31c0.15-0.67,0.25-1.47,0.06-2.14c-0.35-1.24-0.89-1.85-1.95-2.87c0.76,0.41,1.7,0.85,2.55,1
			c0.75,0.14,1.28,0.16,2.08-0.07c0.81-0.24,1.18-0.74,1.22-1.59c0.03-0.71-0.41-1.36-0.95-1.84c-1.31-1.17-3.77-1.63-5.32-1.1
			c0.97-0.71,2.14-2.59,2.06-4.14c-0.05-0.97-0.49-1.77-1.33-2.25c-1.03-0.59-2.17,0-2.88,1.13c-0.6,0.96-1.02,2.13-1.32,3.61
			c-0.08-0.28-0.34-0.74-0.44-0.93c-0.45-0.82-0.64-1.3-1.3-1.98c-0.25-0.26-0.52-0.5-0.82-0.7c-0.2-0.13-0.41-0.25-0.64-0.34
			c-0.26-0.11-0.55-0.17-0.83-0.2c-0.36-0.04-0.73,0.04-1.03,0.25c-0.25,0.18-0.45,0.42-0.6,0.7c-0.13,0.24-0.22,0.5-0.27,0.76
			c-0.18,0.92,0.08,1.73,0.57,2.48c0.52,0.79,1.03,1.49,1.95,2.2c-1.15-0.22-1.89-0.33-2.69-0.18c-0.91,0.17-1.75,0.41-2.42,0.88
			c-0.42,0.29-1.08,0.83-0.93,1.63c0.1,0.55,0.5,1.02,0.98,1.31s1.54,0.57,2.1,0.61C40.57,26.79,41.46,26.83,42.92,25.96z"/>
	</g>
	<g>
		<g>
			<path class="st1" d="M42.54,25.58c-1.54,1.62-4.12,5.55-0.86,6.95c3.13,1.35,5.1-2.61,5.52-5.09c-0.35-0.05-0.71-0.1-1.06-0.14
				c0.18,2.11,2.39,6.34,5.12,4.79c1.12-0.64,1.33-2.27,1.17-3.43c-0.19-1.47-1.15-2.55-2.17-3.54c-0.22,0.28-0.44,0.57-0.66,0.85
				c1.39,0.73,2.96,1.39,4.56,1.09c1.3-0.24,2.22-1.13,2.08-2.52c-0.29-2.92-4.65-3.85-6.94-3.16c0.18,0.3,0.35,0.6,0.53,0.9
				c1.96-1.55,3.36-5.31,0.89-7.07c-3.04-2.16-4.82,2.74-5.27,4.88c0.35,0,0.7,0,1.04,0c-0.71-1.97-2.96-5.51-5.55-4.38
				c-1.24,0.54-1.69,2.17-1.42,3.4c0.32,1.48,1.51,2.83,2.65,3.75c0.18-0.3,0.35-0.6,0.53-0.9c-1.63-0.31-3.11-0.36-4.68,0.3
				c-1.06,0.45-2.3,1.39-2.03,2.7c0.3,1.45,1.84,2.03,3.14,2.25c1.46,0.24,2.77-0.05,4.06-0.78c0.61-0.34,0.06-1.28-0.55-0.93
				c-0.88,0.5-1.72,0.77-2.74,0.71c-0.88-0.05-2.28-0.27-2.73-1.14c-0.59-1.13,1.15-1.82,1.95-2.04c1.14-0.32,2.14-0.23,3.29-0.02
				c0.47,0.09,0.99-0.53,0.53-0.9c-0.81-0.65-1.52-1.43-2.02-2.35c-0.52-0.96-0.66-3.07,0.89-3.11c1.79-0.04,3.11,2.28,3.63,3.74
				c0.17,0.46,0.93,0.56,1.04,0c0.28-1.35,1.64-6.15,3.8-4.12c1.58,1.48,0.12,4.18-1.24,5.25c-0.43,0.34,0.04,1.05,0.53,0.9
				c1.69-0.52,4.3-0.05,5.31,1.55c0.8,1.27-0.28,2.05-1.47,2.08c-1.17,0.03-2.28-0.49-3.29-1.02c-0.53-0.28-1.11,0.41-0.66,0.85
				c0.64,0.62,1.29,1.25,1.63,2.1c0.32,0.78,0.48,2.3-0.17,2.98c-0.84,0.87-2.14-0.15-2.62-0.91c-0.53-0.82-1.03-1.78-1.11-2.76
				c-0.05-0.56-0.96-0.79-1.06-0.14c-0.29,1.74-1.5,5.02-3.78,4.47c-2.77-0.68-0.03-4.26,0.93-5.27
				C43.78,25.84,43.02,25.07,42.54,25.58z"/>
		</g>
	</g>
	<g>
		<path class="st0" d="M45.84,22.16c0.17-0.02,0.34-0.03,0.51-0.01c0.18,0.02,0.36,0.07,0.53,0.14c0.19,0.08,0.37,0.18,0.54,0.3
			c0.47,0.34,0.87,0.86,0.81,1.48c-0.1,1.06-1.26,1.46-2.18,1.3c-0.7-0.12-1.35-0.65-1.55-1.35C44.25,23.13,44.98,22.28,45.84,22.16
			z"/>
	</g>
	<g>
		<g>
			<path class="st1" d="M45.84,22.7c0.38-0.05,0.71,0.01,1.02,0.18c0.08,0.04,0.16,0.09,0.24,0.14c0.03,0.02,0.06,0.04,0.09,0.07
				c-0.06-0.05,0.03,0.03,0.04,0.04c0.06,0.06,0.12,0.11,0.18,0.17c0.02,0.03,0.05,0.05,0.07,0.08c-0.05-0.06,0.05,0.07,0.05,0.07
				c0.11,0.16,0.11,0.18,0.16,0.37c0,0.02,0.01,0.1,0,0.02c0,0.04,0,0.08,0,0.11c0-0.01-0.01,0.18,0,0.09
				c0.01-0.06-0.02,0.08-0.02,0.1c-0.01,0.03-0.08,0.21-0.03,0.11c-0.03,0.05-0.06,0.1-0.09,0.15c-0.07,0.12,0.05-0.05-0.01,0.01
				c-0.02,0.02-0.04,0.04-0.06,0.06c-0.03,0.03-0.05,0.05-0.08,0.08c-0.02,0.02-0.13,0.09-0.03,0.02c-0.05,0.03-0.1,0.07-0.15,0.09
				c-0.03,0.02-0.07,0.03-0.1,0.05c-0.07,0.04,0.08-0.03,0.01,0c-0.14,0.05-0.27,0.09-0.42,0.12c-0.14,0.03,0.07,0-0.02,0
				c-0.03,0-0.06,0.01-0.09,0.01c-0.07,0-0.14,0.01-0.21,0c-0.07,0-0.14-0.01-0.2-0.01c-0.08,0,0.09,0.02,0.01,0
				c-0.05-0.01-0.1-0.02-0.15-0.03c-0.08-0.02-0.16-0.04-0.23-0.07c0.08,0.03-0.01,0-0.02-0.01c-0.04-0.02-0.08-0.04-0.12-0.06
				c-0.07-0.04-0.14-0.08-0.21-0.13c0.02,0.01,0.06,0.06-0.02-0.02c-0.04-0.04-0.08-0.07-0.12-0.11c-0.14-0.14-0.15-0.15-0.24-0.32
				c-0.02-0.03-0.03-0.06-0.05-0.1c0.03,0.07,0-0.01-0.01-0.02c-0.01-0.04-0.03-0.09-0.04-0.13c-0.01-0.03-0.03-0.12-0.01-0.04
				c-0.01-0.04-0.01-0.09-0.01-0.13c0-0.02,0.01-0.17,0-0.11c-0.01,0.08,0.02-0.08,0.02-0.08c0.01-0.04,0.02-0.08,0.03-0.12
				c0.01-0.03,0.05-0.12,0.01-0.03c0.02-0.04,0.04-0.09,0.07-0.13c0.02-0.03,0.04-0.06,0.05-0.08c0.08-0.12-0.06,0.06,0.04-0.05
				c0.06-0.06,0.12-0.12,0.18-0.17c-0.07,0.06,0,0,0.01-0.01c0.04-0.03,0.08-0.06,0.13-0.08c0.04-0.02,0.07-0.04,0.11-0.06
				c0.05-0.02-0.06,0.01,0.04-0.01c0.1-0.03,0.19-0.06,0.3-0.07c0.29-0.05,0.45-0.41,0.38-0.67c-0.08-0.31-0.38-0.42-0.67-0.38
				c-0.93,0.15-1.68,0.94-1.78,1.87c-0.1,0.95,0.6,1.84,1.44,2.21c0.77,0.34,1.72,0.31,2.45-0.12c0.77-0.46,1.17-1.41,0.85-2.27
				c-0.41-1.09-1.67-1.85-2.83-1.71c-0.29,0.04-0.54,0.22-0.54,0.54C45.3,22.43,45.55,22.74,45.84,22.7z"/>
		</g>
	</g>
</g>
</svg>
