<?xml version="1.0" encoding="utf-8"?>
<!-- Generator: Adobe Illustrator 26.0.1, SVG Export Plug-In . SVG Version: 6.00 Build 0)  -->
<svg version="1.1" id="레이어_1" xmlns="http://www.w3.org/2000/svg" xmlns:xlink="http://www.w3.org/1999/xlink" x="0px"
	 y="0px" viewBox="0 0 51.25 50.54" style="enable-background:new 0 0 51.25 50.54;" xml:space="preserve">
<style type="text/css">
	.st0{fill:#FFE6EB;}
	.st1{fill:#282828;}
	.st2{fill:#FF8C64;}
	.st3{fill:#F1F1F1;}
	.st4{fill:#FFFFFF;}
	.st5{fill:#1E1E28;}
</style>
<g>
	<g>
		<path class="st0" d="M27.54,13.69c-0.32,0.05-0.63,0.03-0.95-0.02c-0.33-0.06-0.68-0.15-0.96-0.35c-0.24-0.17-0.4-0.42-0.47-0.7
			c-0.18-0.67-0.04-1.41,0.59-1.79c0.18-0.11,0.39-0.18,0.6-0.22c0.35-0.06,0.66,0,0.99,0.1c0.18,0.05,0.35,0.13,0.5,0.24
			c0.34,0.23,0.62,0.58,0.75,0.97c0.12,0.36,0.15,0.77-0.03,1.11c-0.1,0.19-0.27,0.35-0.46,0.46c-0.09,0.06-0.19,0.1-0.3,0.14
			C27.71,13.66,27.62,13.68,27.54,13.69z"/>
	</g>
	<g>
		<g>
			<path class="st1" d="M27.39,13.17c-0.26,0.04-0.61,0-0.89-0.07c-0.07-0.02-0.15-0.04-0.22-0.06c-0.04-0.01-0.07-0.02-0.11-0.04
				c-0.01,0-0.09-0.04-0.03-0.01c-0.07-0.03-0.13-0.07-0.2-0.11c-0.01-0.01-0.09-0.07-0.02-0.01c-0.03-0.03-0.06-0.06-0.09-0.09
				c-0.01-0.01-0.07-0.09-0.04-0.04c0.04,0.05-0.02-0.04-0.03-0.05c-0.02-0.03-0.03-0.06-0.05-0.09c-0.04-0.08,0.02,0.07-0.01-0.01
				c-0.02-0.06-0.04-0.13-0.06-0.19c-0.01-0.03-0.03-0.23-0.02-0.12c-0.01-0.13-0.01-0.25,0-0.38c0,0.12,0.01-0.04,0.02-0.08
				c0.01-0.03,0.02-0.06,0.02-0.09c0.01-0.02,0.06-0.15,0.01-0.04c0.03-0.06,0.05-0.11,0.09-0.16c0.02-0.03,0.03-0.05,0.05-0.08
				c-0.01,0.02-0.07,0.07,0,0c0.05-0.05,0.09-0.09,0.14-0.13c-0.02,0.02-0.08,0.05,0.01,0c0.04-0.02,0.08-0.05,0.12-0.07
				c0.08-0.04,0.19-0.08,0.33-0.11c0.05-0.01,0.09-0.01,0.17-0.01c0.04,0,0.08,0,0.12,0c0.17,0.01-0.06-0.02,0.1,0.01
				c0.16,0.03,0.33,0.07,0.48,0.13c-0.02-0.01-0.07-0.03,0.04,0.02c0.04,0.02,0.07,0.04,0.11,0.06c0.04,0.02,0.07,0.04,0.1,0.07
				c0.08,0.05,0-0.01,0.04,0.03c0.06,0.05,0.11,0.1,0.16,0.15c0.03,0.03,0.05,0.05,0.07,0.08c0.01,0.01,0.08,0.1,0.04,0.05
				c-0.03-0.04,0.03,0.05,0.04,0.06c0.02,0.03,0.04,0.06,0.06,0.09c0.02,0.03,0.04,0.06,0.05,0.1c0.01,0.03,0.05,0.11,0.02,0.04
				c0.03,0.09,0.06,0.18,0.08,0.27c0,0.01,0.02,0.11,0.01,0.03c0.01,0.05,0.01,0.1,0.01,0.14c0,0.04,0,0.08,0,0.11
				c0,0.04,0,0.04,0,0c0,0.02-0.01,0.04-0.01,0.06c-0.01,0.04-0.02,0.07-0.03,0.11c0.02-0.07-0.04,0.07-0.04,0.08
				c-0.01,0.01-0.06,0.08-0.01,0.02c-0.03,0.04-0.06,0.07-0.1,0.1c-0.01,0.01-0.1,0.08-0.05,0.04c0.04-0.03-0.07,0.04-0.08,0.05
				c-0.03,0.02-0.06,0.04-0.1,0.05c-0.14,0.07,0.07-0.02-0.07,0.03C27.57,13.13,27.48,13.16,27.39,13.17
				c-0.28,0.05-0.46,0.41-0.38,0.67c0.1,0.3,0.37,0.43,0.67,0.38c0.44-0.07,0.89-0.31,1.17-0.66c0.33-0.42,0.43-0.92,0.34-1.44
				c-0.15-0.91-0.87-1.67-1.74-1.92c-0.48-0.14-0.99-0.19-1.47-0.04c-0.44,0.13-0.82,0.39-1.08,0.77c-0.46,0.64-0.46,1.63-0.07,2.31
				c0.55,0.94,1.88,1.13,2.86,0.99c0.28-0.04,0.46-0.41,0.38-0.67C27.96,13.24,27.69,13.13,27.39,13.17z"/>
		</g>
	</g>
	<g>
		<path class="st0" d="M35.82,10.9c-0.69-0.11-1.19-0.84-1.33-1.47c-0.03-0.15-0.05-0.31-0.04-0.48c0.01-0.18,0.04-0.36,0.11-0.52
			c0.03-0.08,0.07-0.15,0.12-0.22c0.49-0.75,1.6-0.79,2.17-0.28c0.07,0.06,0.13,0.13,0.19,0.21c0.11,0.14,0.19,0.3,0.25,0.47
			c0.09,0.25,0.14,0.53,0.13,0.8c0,0.14-0.02,0.28-0.05,0.42c-0.03,0.12-0.06,0.24-0.13,0.36C36.94,10.67,36.35,10.98,35.82,10.9z"
			/>
	</g>
	<g>
		<g>
			<path class="st1" d="M35.96,10.37c-0.07-0.01-0.13-0.03-0.2-0.05c-0.12-0.04,0.07,0.04,0,0c-0.03-0.02-0.06-0.03-0.09-0.05
				c-0.03-0.02-0.2-0.14-0.09-0.05c-0.05-0.04-0.1-0.09-0.15-0.14c-0.02-0.03-0.16-0.19-0.08-0.08c-0.04-0.06-0.08-0.11-0.12-0.17
				c-0.04-0.06-0.07-0.12-0.1-0.18c-0.01-0.02-0.02-0.05-0.04-0.08c0.06,0.12,0,0.01-0.01-0.02c-0.02-0.06-0.04-0.13-0.06-0.19
				c-0.01-0.03-0.02-0.07-0.02-0.1C35,9.23,34.98,9.12,34.99,9.21c-0.01-0.09-0.01-0.18-0.01-0.27c0-0.04,0-0.07,0.01-0.11
				c-0.01,0.1,0.02-0.07,0.03-0.09c0.01-0.04,0.03-0.09,0.04-0.13c-0.03,0.08,0,0.01,0.01-0.01c0.03-0.06,0.07-0.14,0.12-0.19
				c-0.11,0.11,0.05-0.04,0.07-0.06c0,0,0.05-0.05,0.06-0.05c-0.06,0.05-0.07,0.05-0.02,0.02c0.02-0.01,0.03-0.02,0.05-0.03
				c0.05-0.03,0.1-0.05,0.14-0.08c0.11-0.06-0.11,0.04,0,0c0.02-0.01,0.05-0.02,0.07-0.02c0.06-0.02,0.12-0.03,0.18-0.04
				c0.1-0.03-0.03,0.01-0.04,0c0,0,0.12-0.01,0.13-0.01c0.05,0,0.11,0,0.16,0c0.12,0.01,0.02,0.03,0,0c0,0,0.07,0.01,0.07,0.01
				c0.06,0.01,0.11,0.03,0.17,0.04c0.02,0.01,0.04,0.02,0.07,0.02c0.1,0.03-0.1-0.06,0.01,0.01c0.04,0.03,0.09,0.05,0.13,0.08
				c0.1,0.06-0.08-0.08,0,0c0.02,0.02,0.04,0.04,0.06,0.05c0.03,0.03,0.06,0.06,0.08,0.09c0.02,0.02,0.08,0.1,0.02,0.02
				c0.05,0.07,0.1,0.15,0.14,0.23c0.01,0.02,0.05,0.12,0.02,0.03c0.01,0.03,0.02,0.06,0.03,0.1c0.03,0.09,0.05,0.17,0.07,0.26
				c0-0.01,0.02,0.16,0.02,0.09c-0.01-0.07,0.01,0.1,0.01,0.09c0.01,0.11,0,0.21-0.01,0.32c0,0.02-0.02,0.1,0,0.01
				c-0.01,0.05-0.02,0.1-0.03,0.15c-0.01,0.05-0.02,0.09-0.04,0.14c-0.03,0.1,0.04-0.05-0.02,0.04c-0.02,0.02-0.03,0.05-0.05,0.07
				c-0.06,0.09,0.05-0.06-0.04,0.04c-0.05,0.06-0.11,0.11-0.18,0.17c0.09-0.07,0.01-0.01-0.02,0.01c-0.04,0.03-0.09,0.05-0.13,0.08
				c-0.03,0.01-0.05,0.03-0.08,0.04c0.11-0.05,0,0-0.03,0.01c-0.04,0.01-0.08,0.02-0.12,0.03c-0.01,0-0.03,0.01-0.04,0.01
				c-0.06,0.01-0.06,0.01,0.02,0C36.1,10.39,35.77,10.35,35.96,10.37c-0.28-0.04-0.6,0.07-0.67,0.38c-0.06,0.26,0.08,0.62,0.38,0.67
				c0.46,0.07,0.91-0.01,1.31-0.25c0.4-0.24,0.74-0.61,0.87-1.06c0.26-0.88,0.05-2.01-0.68-2.61C36.56,7,35.72,6.92,35,7.24
				c-0.87,0.39-1.22,1.37-1.04,2.27c0.16,0.84,0.83,1.74,1.72,1.9c0.28,0.05,0.6-0.08,0.67-0.38C36.4,10.78,36.26,10.43,35.96,10.37
				z"/>
		</g>
	</g>
	<g>
		<path class="st0" d="M27.03,7.81c-0.25,0.21-0.54,0.29-0.87,0.3c-0.14,0-0.29-0.01-0.43-0.03c-0.33-0.04-0.66-0.16-0.92-0.38
			c-0.39-0.34-0.55-0.8-0.54-1.3c0-0.48,0.2-0.97,0.66-1.16c0.33-0.14,0.69-0.12,1.03-0.05c0.15,0.03,0.3,0.07,0.44,0.12
			c0.47,0.18,0.86,0.52,1.02,1.02C27.6,6.86,27.44,7.45,27.03,7.81z"/>
	</g>
	<g>
		<g>
			<path class="st1" d="M26.64,7.43c0.07-0.05,0,0-0.01,0.01c-0.03,0.02-0.07,0.04-0.11,0.06c-0.06,0.05,0.07-0.02,0,0
				c-0.04,0.01-0.08,0.03-0.11,0.04c-0.03,0.01-0.06,0.01-0.09,0.02c0.02,0,0.11-0.01,0,0c-0.09,0.01-0.18,0.01-0.27,0
				c-0.08,0-0.16-0.01-0.25-0.02c-0.13-0.01-0.04-0.01-0.02,0c-0.03-0.01-0.07-0.01-0.1-0.02c-0.07-0.02-0.14-0.05-0.22-0.06
				c-0.08-0.02,0.06,0.03-0.01,0c-0.05-0.02-0.09-0.04-0.13-0.07c-0.03-0.02-0.06-0.04-0.09-0.05c-0.07-0.05,0.05,0.05-0.01-0.01
				c-0.06-0.05-0.11-0.1-0.16-0.15c-0.01-0.01-0.06-0.08-0.01,0C25.03,7.16,25.02,7.13,25,7.1c-0.04-0.06-0.08-0.13-0.11-0.2
				c0.05,0.1-0.01-0.05-0.02-0.09c-0.02-0.07-0.03-0.14-0.05-0.2c-0.02-0.08,0,0.09,0,0c0-0.04-0.01-0.08-0.01-0.12
				c0-0.07,0-0.14,0-0.2c0-0.03,0.02-0.13,0-0.01c0.01-0.03,0.01-0.06,0.02-0.09c0.01-0.06,0.03-0.11,0.05-0.17
				c0.03-0.09,0-0.01-0.01,0.01c0.01-0.03,0.02-0.05,0.04-0.08c0.02-0.03,0.04-0.06,0.05-0.09c0.03-0.05-0.06,0.06,0.01-0.01
				c0.02-0.02,0.05-0.05,0.07-0.08c0.05-0.06-0.07,0.04-0.01,0c0.02-0.01,0.18-0.09,0.1-0.06c0.07-0.03,0.14-0.04,0.21-0.06
				c-0.02,0-0.09,0.01,0.02,0c0.05,0,0.11,0,0.16,0c0.07,0,0.15,0.01,0.22,0.02c-0.08-0.01,0.01,0,0.02,0
				c0.04,0.01,0.07,0.01,0.11,0.02c0.08,0.02,0.17,0.04,0.25,0.06c0.04,0.01,0.07,0.03,0.11,0.04c0.04,0.02,0.04,0.01-0.02-0.01
				c0.02,0.01,0.04,0.02,0.06,0.03c0.06,0.03,0.12,0.06,0.18,0.1c0.03,0.02,0.16,0.12,0.07,0.04c0.05,0.04,0.09,0.08,0.13,0.12
				c0.02,0.02,0.04,0.04,0.06,0.06c0.03,0.03,0.08,0.11,0.03,0.03c0.04,0.06,0.08,0.13,0.12,0.19c0.05,0.09,0.01,0.02,0,0
				c0.02,0.04,0.03,0.09,0.05,0.13c0.01,0.03,0.02,0.06,0.02,0.09c0.04,0.14,0-0.1,0.01,0.05c0,0.08,0,0.16,0,0.24
				c0,0.03-0.03,0.09,0-0.01c-0.01,0.04-0.02,0.09-0.03,0.14c-0.01,0.03-0.02,0.06-0.03,0.09c-0.03,0.09,0.02-0.03-0.01,0.02
				c-0.02,0.03-0.04,0.07-0.06,0.1c-0.01,0.01-0.08,0.12-0.04,0.06c0.04-0.06-0.05,0.05-0.05,0.05C26.71,7.37,26.68,7.4,26.64,7.43
				c-0.21,0.19-0.21,0.57,0,0.77c0.23,0.21,0.54,0.2,0.77,0c0.66-0.6,0.79-1.58,0.4-2.36c-0.4-0.78-1.26-1.14-2.09-1.23
				c-0.44-0.05-0.92,0.03-1.29,0.3c-0.33,0.25-0.56,0.6-0.65,1.01c-0.17,0.8,0.06,1.72,0.72,2.23c0.42,0.33,0.91,0.46,1.44,0.5
				c0.55,0.04,1.04-0.09,1.46-0.45c0.22-0.18,0.2-0.58,0-0.77C27.18,7.22,26.88,7.24,26.64,7.43z"/>
		</g>
	</g>
	<g>
		<path class="st0" d="M34.87,5.05c-0.3,0.09-0.62,0.11-1.03,0.04c-0.71-0.17-1.23-0.84-1.01-1.58c0.04-0.12,0.09-0.23,0.15-0.33
			c0.13-0.21,0.31-0.38,0.53-0.49c0.22-0.11,0.46-0.17,0.7-0.18c0.12,0,0.25,0.01,0.37,0.03c0.29,0.05,0.57,0.18,0.8,0.37
			c0.11,0.1,0.22,0.21,0.3,0.33c0.16,0.25,0.22,0.52,0.15,0.81c-0.08,0.32-0.28,0.6-0.54,0.79C35.16,4.94,35.02,5.01,34.87,5.05z"/>
	</g>
	<g>
		<g>
			<path class="st1" d="M34.72,4.53c-0.05,0.02-0.11,0.03-0.17,0.04c-0.03,0.01-0.06,0.01-0.09,0.02c0.02,0,0.12-0.01,0.01,0
				c-0.14,0.01-0.27,0.01-0.41,0c-0.01,0-0.12-0.01-0.06-0.01c0.06,0.01-0.04-0.01-0.04-0.01c-0.05-0.01-0.11-0.03-0.16-0.05
				c-0.09-0.03,0,0,0.01,0.01c-0.02-0.01-0.05-0.02-0.07-0.04c-0.05-0.03-0.1-0.06-0.16-0.09c-0.06-0.04,0.07,0.06,0.01,0.01
				c-0.02-0.02-0.04-0.03-0.06-0.05c-0.04-0.04-0.07-0.08-0.11-0.11c-0.05-0.05,0.05,0.08,0.01,0.02c-0.01-0.02-0.03-0.04-0.04-0.07
				c-0.01-0.02-0.02-0.03-0.03-0.05c-0.01-0.02-0.02-0.03-0.03-0.05c-0.02-0.04-0.01-0.02,0.02,0.04c-0.03-0.03-0.04-0.11-0.05-0.15
				c0-0.02-0.02-0.07-0.02-0.08c0,0,0.01,0.14,0.01,0.03c0-0.05,0-0.09,0-0.14c0-0.02,0.02-0.1,0-0.03
				c-0.02,0.08,0.01-0.04,0.02-0.05c0.01-0.02,0.07-0.19,0.03-0.11c0.03-0.06,0.07-0.12,0.1-0.18c0.01-0.02,0.06-0.07,0-0.01
				c0.02-0.02,0.04-0.05,0.07-0.07c0.02-0.02,0.05-0.04,0.07-0.07c0.07-0.07-0.02,0.01,0.02-0.02c0.05-0.03,0.1-0.06,0.14-0.09
				c0.09-0.05,0.04-0.02,0.01-0.01c0.03-0.01,0.07-0.02,0.1-0.04c0.07-0.02,0.13-0.04,0.2-0.05c0.11-0.02,0.03,0,0.01,0
				c0.04,0,0.09-0.01,0.13-0.01c0.04,0,0.07,0,0.11,0c0.01,0,0.12,0.01,0.06,0c-0.06-0.01,0.04,0.01,0.06,0.01
				c0.03,0.01,0.06,0.01,0.1,0.02c0.06,0.01,0.11,0.03,0.16,0.05c0.1,0.03,0.03,0.01,0.01,0c0.04,0.02,0.09,0.04,0.13,0.07
				c0.06,0.03,0.11,0.07,0.17,0.11c-0.08-0.06,0.04,0.04,0.06,0.06c0.02,0.02,0.05,0.05,0.07,0.07c0.01,0.01,0.07,0.09,0.04,0.04
				c-0.04-0.05,0.02,0.04,0.03,0.05c0.02,0.04,0.04,0.07,0.06,0.11c-0.04-0.08,0-0.01,0,0.01c0.01,0.04,0.02,0.08,0.03,0.12
				c0.02,0.07,0.01-0.08,0,0c0,0.04,0,0.08,0,0.12c0.01-0.09,0-0.01-0.01,0.01C35.29,3.96,35.28,4,35.26,4.05
				c-0.01,0.03-0.05,0.08,0,0c-0.02,0.03-0.03,0.06-0.04,0.08c-0.02,0.03-0.03,0.05-0.05,0.08c-0.07,0.12,0.07-0.06-0.03,0.04
				c-0.05,0.05-0.1,0.1-0.15,0.15c-0.06,0.06,0.07-0.04,0,0c-0.04,0.02-0.07,0.05-0.11,0.07c-0.03,0.02-0.06,0.03-0.09,0.05
				C34.87,4.47,34.75,4.52,34.72,4.53c-0.27,0.08-0.47,0.38-0.38,0.67c0.09,0.27,0.38,0.47,0.67,0.38c0.78-0.24,1.46-1,1.37-1.86
				c-0.08-0.86-0.83-1.53-1.66-1.69c-0.87-0.16-1.78,0.15-2.24,0.93c-0.4,0.68-0.3,1.52,0.24,2.1c0.58,0.62,1.51,0.74,2.29,0.52
				c0.27-0.08,0.47-0.39,0.38-0.67C35.3,4.63,35.02,4.44,34.72,4.53z"/>
		</g>
	</g>
	<g>
		<path class="st0" d="M37.35,16.12c-0.31,0.11-0.66,0.1-0.96,0.03c-0.33-0.07-0.64-0.22-0.87-0.47c-0.38-0.42-0.51-1.1-0.34-1.63
			c0.1-0.33,0.34-0.59,0.65-0.73c0.31-0.13,0.65-0.16,0.97-0.08c0.16,0.04,0.32,0.1,0.46,0.18c0.35,0.19,0.63,0.51,0.78,0.88
			c0.13,0.33,0.09,0.69,0.04,1.03C38.02,15.71,37.69,16.01,37.35,16.12z"/>
	</g>
	<g>
		<g>
			<path class="st1" d="M37.21,15.6c-0.07,0.02-0.15,0.04-0.22,0.06c-0.09,0.02,0.12,0-0.04,0c-0.03,0-0.07,0-0.1,0
				c-0.07,0-0.14,0-0.21-0.01c-0.11-0.01-0.03-0.01-0.01,0c-0.05-0.01-0.1-0.02-0.14-0.03c-0.07-0.02-0.13-0.04-0.2-0.06
				c-0.03-0.01-0.12-0.05-0.02,0c-0.03-0.01-0.06-0.03-0.08-0.04c-0.05-0.03-0.11-0.06-0.16-0.09c-0.08-0.05-0.02-0.01,0,0
				c-0.04-0.03-0.07-0.06-0.1-0.09c-0.03-0.03-0.05-0.05-0.07-0.08c-0.05-0.06,0.05,0.08,0.01,0.01c-0.03-0.06-0.07-0.11-0.1-0.16
				c-0.01-0.03-0.02-0.05-0.04-0.08c0.05,0.1,0.01,0.04,0.01,0.01c-0.02-0.07-0.05-0.14-0.06-0.21c-0.01-0.04-0.01-0.07-0.02-0.11
				c-0.02-0.08,0.01,0.1,0,0.02c0-0.06-0.01-0.13-0.01-0.19c0-0.06,0-0.11,0.01-0.17c0.01-0.11-0.01,0.01,0,0.02
				c-0.01-0.03,0.02-0.09,0.02-0.12c0.01-0.03,0.02-0.07,0.03-0.1c0.01-0.02,0.04-0.1,0.01-0.03c-0.04,0.08,0.03-0.04,0.03-0.05
				c0.01-0.02,0.03-0.05,0.04-0.07c0.02-0.03,0.06-0.06-0.01,0.01c0.02-0.02,0.04-0.04,0.06-0.06c0.02-0.02,0.04-0.04,0.06-0.06
				c0.08-0.08-0.07,0.04,0.02-0.02c0.03-0.02,0.06-0.04,0.09-0.05c0.01-0.01,0.09-0.05,0.03-0.02c-0.07,0.04,0.07-0.02,0.07-0.02
				c0.03-0.01,0.06-0.02,0.1-0.03c0.03-0.01,0.06-0.01,0.1-0.02c-0.1,0.02-0.02,0,0,0c0.08,0,0.16,0,0.25,0c0.11,0.01,0.03,0,0,0
				c0.04,0.01,0.08,0.02,0.12,0.03c0.07,0.02,0.14,0.04,0.21,0.07c-0.09-0.03,0.07,0.03,0.1,0.05c0.06,0.04,0.13,0.08,0.19,0.12
				c-0.09-0.06-0.02-0.02-0.01,0c0.03,0.03,0.06,0.05,0.08,0.08c0.05,0.05,0.09,0.1,0.13,0.15c-0.07-0.08,0.02,0.04,0.04,0.07
				c0.04,0.06,0.07,0.13,0.11,0.2c-0.05-0.1-0.01-0.02,0,0c0.01,0.05,0.03,0.1,0.04,0.15c0.04,0.15,0.01-0.05,0,0.04
				c0,0.04,0,0.09,0,0.13c0,0.09-0.01,0.17-0.02,0.26c0-0.01-0.02,0.16-0.01,0.08c0.01-0.07-0.01,0.06-0.01,0.07
				c0,0-0.03,0.14-0.01,0.06c0.02-0.07-0.03,0.05-0.04,0.07c-0.01,0.01-0.06,0.09-0.02,0.03c0.04-0.06-0.05,0.05-0.06,0.06
				c-0.02,0.02-0.04,0.04-0.06,0.06c-0.03,0.02-0.02,0.02,0.02-0.02c-0.02,0.01-0.04,0.02-0.05,0.04c-0.02,0.02-0.05,0.03-0.07,0.04
				C37.13,15.65,37.31,15.56,37.21,15.6c-0.26,0.1-0.47,0.37-0.38,0.67c0.08,0.26,0.38,0.48,0.67,0.38c0.39-0.15,0.77-0.4,0.97-0.79
				c0.11-0.22,0.14-0.42,0.17-0.67c0.03-0.24,0.03-0.47,0-0.72c-0.12-0.82-0.82-1.49-1.6-1.72c-0.82-0.24-1.8,0.03-2.23,0.8
				c-0.38,0.67-0.31,1.62,0.12,2.25c0.54,0.8,1.66,1.14,2.58,0.84c0.27-0.09,0.47-0.38,0.38-0.67
				C37.79,15.71,37.49,15.51,37.21,15.6z"/>
		</g>
	</g>
	<g>
		<path class="st0" d="M29.92,3.26c-0.34,0.04-0.7,0.04-1.02-0.08c-0.22-0.09-0.43-0.23-0.58-0.42C27.92,2.26,27.93,1.49,28.32,1
			c0.13-0.16,0.3-0.29,0.49-0.37c0.12-0.05,0.25-0.07,0.37-0.08c0.16-0.01,0.33-0.01,0.49,0c0.27,0.02,0.56,0.08,0.77,0.25
			c0.15,0.11,0.29,0.29,0.38,0.46c0.19,0.35,0.26,0.76,0.16,1.14c-0.03,0.1-0.06,0.19-0.11,0.28c-0.07,0.12-0.14,0.19-0.24,0.28
			C30.43,3.14,30.19,3.22,29.92,3.26z"/>
	</g>
	<g>
		<g>
			<path class="st1" d="M29.92,2.72c-0.14,0.02-0.28,0.03-0.42,0.02c-0.03,0-0.06,0-0.09,0c0,0-0.15-0.02-0.07,0
				c0.07,0.01-0.03-0.01-0.04-0.01c-0.05-0.01-0.09-0.02-0.14-0.03c-0.03-0.01-0.08-0.02-0.11-0.04c0.01,0.01,0.1,0.05,0.01,0
				C29,2.63,28.95,2.6,28.91,2.57c0,0-0.11-0.09-0.05-0.03c0.06,0.06-0.04-0.04-0.04-0.04c-0.02-0.02-0.04-0.04-0.06-0.06
				c-0.08-0.08,0.04,0.08-0.02-0.02c-0.03-0.04-0.06-0.09-0.08-0.13c0-0.01-0.06-0.12-0.02-0.04c0.03,0.07,0-0.01-0.01-0.03
				c-0.02-0.06-0.03-0.11-0.05-0.17c0-0.01-0.02-0.06-0.01-0.08c0.01,0.07,0.01,0.09,0.01,0.05c0-0.02,0-0.04,0-0.06
				c0-0.06,0-0.12,0-0.18c0-0.01,0-0.01,0-0.02c0.01-0.06,0-0.05,0,0.03c0-0.01,0.01-0.07,0.01-0.08c0.01-0.05,0.03-0.1,0.04-0.15
				c0-0.01,0.06-0.12,0.02-0.04c-0.04,0.07,0.03-0.04,0.03-0.06c0.01-0.02,0.11-0.2,0.04-0.07c0.03-0.05,0.08-0.09,0.12-0.13
				c0.02-0.02,0.04-0.04,0.07-0.06c-0.09,0.07-0.01,0.01,0.02-0.01c0.03-0.02,0.06-0.04,0.1-0.05c-0.09,0.05,0,0,0.04-0.01
				c0.03-0.01,0.06-0.02,0.09-0.02c0.02-0.01,0.1-0.01,0,0c0.07-0.01,0.15-0.01,0.22-0.01c0.07,0,0.15,0,0.22,0
				c0.03,0,0.07,0,0.1,0.01c0.02,0,0.04,0,0.06,0.01c0.04,0,0.03,0-0.04-0.01c0.04-0.01,0.13,0.02,0.17,0.03
				c0.04,0.01,0.07,0.02,0.11,0.03c0.03,0.01,0.12,0.05,0.01,0c0.05,0.02,0.1,0.06,0.15,0.08c-0.08-0.04-0.03-0.03-0.01,0
				c0.03,0.03,0.07,0.07,0.1,0.1c0.1,0.1-0.03-0.05,0.02,0.02c0.02,0.03,0.04,0.06,0.06,0.1c0.03,0.05,0.06,0.1,0.09,0.16
				c0.05,0.09,0.01,0.02,0,0c0.01,0.04,0.03,0.07,0.04,0.11c0.01,0.03,0.02,0.06,0.02,0.09c0,0.02,0.04,0.16,0.02,0.08
				c-0.02-0.08,0,0.06,0,0.06c0,0.05,0,0.09,0,0.14c0,0.02,0,0.08-0.01,0.09c0-0.02,0.01-0.04,0.01-0.05c0,0.03-0.01,0.06-0.02,0.09
				c-0.01,0.03-0.02,0.06-0.03,0.09c-0.01,0.02-0.07,0.14-0.02,0.06c-0.02,0.03-0.03,0.06-0.05,0.08c-0.06,0.11,0.07-0.06-0.01,0.02
				c-0.05,0.05-0.1,0.1-0.15,0.14c0.08-0.07,0.03-0.02,0.01-0.01c-0.04,0.02-0.07,0.04-0.11,0.06c-0.11,0.06,0.07-0.02,0,0
				C30.08,2.67,30.04,2.68,30,2.69c-0.08,0.02-0.15,0.03-0.23,0.04c-0.28,0.04-0.46,0.41-0.38,0.67c0.1,0.31,0.36,0.42,0.67,0.38
				c0.39-0.05,0.74-0.22,1.02-0.5c0.33-0.31,0.48-0.76,0.49-1.2c0.03-0.84-0.49-1.71-1.31-1.97c-0.36-0.11-0.76-0.13-1.13-0.1
				c-0.45,0.04-0.87,0.22-1.17,0.57c-0.52,0.6-0.62,1.44-0.29,2.16c0.17,0.38,0.49,0.69,0.87,0.87c0.43,0.2,0.9,0.25,1.37,0.19
				c0.28-0.03,0.56-0.23,0.54-0.54C30.45,2.99,30.22,2.68,29.92,2.72z"/>
		</g>
	</g>
	<g>
		<path class="st1" d="M30.11,22.14c0.76-3.28,1.59-6.61,1.9-9.97c0.15-1.55-0.25-2.79-0.77-4.23c-0.54-1.48-0.86-3-0.94-4.58
			c-0.04-0.69-1.12-0.7-1.08,0c0.07,1.33,0.28,2.64,0.66,3.92c0.47,1.55,1.18,2.88,1.08,4.55c-0.22,3.37-1.14,6.74-1.89,10.02
			C28.91,22.53,29.95,22.82,30.11,22.14L30.11,22.14z"/>
	</g>
	<g>
		<path class="st1" d="M30.32,7.14c-0.03,0-0.07-0.01-0.1-0.01c0.05,0.01,0.06,0.01,0.02,0c-0.06-0.01-0.11-0.02-0.17-0.02
			c-0.1-0.01-0.2-0.03-0.29-0.05c-0.22-0.04-0.44-0.08-0.65-0.13c-0.43-0.09-0.85-0.21-1.26-0.34c-0.27-0.09-0.6,0.1-0.67,0.38
			c-0.07,0.29,0.09,0.57,0.38,0.67c0.9,0.28,1.81,0.47,2.74,0.59c0.28,0.03,0.55-0.27,0.54-0.54C30.85,7.36,30.63,7.18,30.32,7.14
			L30.32,7.14z"/>
	</g>
	<g>
		<path class="st1" d="M31.72,11.96c0.44-0.14,0.88-0.29,1.28-0.52c0.53-0.3,1.06-0.62,1.58-0.93c0.24-0.14,0.35-0.49,0.19-0.74
			c-0.16-0.25-0.48-0.35-0.74-0.19c-0.52,0.3-1.03,0.62-1.55,0.91c-0.07,0.04-0.15,0.08-0.23,0.12c-0.04,0.02-0.08,0.04-0.12,0.06
			c-0.02,0.01-0.04,0.01-0.06,0.02c0.02-0.01,0.11-0.05,0.04-0.02c-0.23,0.09-0.46,0.17-0.69,0.24c-0.27,0.08-0.47,0.38-0.38,0.67
			C31.14,11.86,31.43,12.05,31.72,11.96L31.72,11.96z"/>
	</g>
	<g>
		<path class="st1" d="M31.45,16.49c1.27-0.21,2.49-0.62,3.64-1.2c0.26-0.13,0.33-0.5,0.19-0.74c-0.16-0.27-0.48-0.32-0.74-0.19
			c-1.05,0.52-2.2,0.89-3.38,1.09c-0.29,0.05-0.45,0.4-0.38,0.67C30.87,16.42,31.16,16.54,31.45,16.49L31.45,16.49z"/>
	</g>
	<g>
		<path class="st1" d="M30.86,7.52c0.52-0.28,1.04-0.56,1.51-0.91c0.5-0.38,0.93-0.81,1.33-1.3c0.18-0.22,0.23-0.55,0-0.77
			c-0.2-0.18-0.58-0.24-0.77,0c-0.19,0.24-0.39,0.47-0.61,0.69c-0.1,0.1-0.2,0.19-0.3,0.28c-0.05,0.04-0.1,0.09-0.15,0.13
			c-0.02,0.02-0.05,0.05-0.07,0.06c0.06-0.04,0.07-0.05,0.04-0.03c-0.01,0.01-0.03,0.02-0.04,0.03c-0.46,0.34-0.97,0.62-1.48,0.89
			c-0.25,0.13-0.35,0.5-0.19,0.74C30.29,7.58,30.6,7.66,30.86,7.52L30.86,7.52z"/>
	</g>
	<g>
		<path class="st1" d="M27.54,13.94c0.76,1.08,1.63,2.07,2.61,2.94c0.18,0.16,0.44,0.21,0.66,0.08c0.27-0.15,0.34-0.43,0.3-0.71
			c-0.04-0.28-0.41-0.46-0.67-0.38c-0.31,0.1-0.42,0.37-0.38,0.67c0,0.01,0,0.02,0,0.03c0-0.1,0-0.19,0-0.29
			c0.01-0.02,0.02-0.05,0.03-0.07c0.06-0.06,0.13-0.13,0.19-0.19c-0.01,0.01-0.02,0.01-0.03,0.02c0.22,0.03,0.44,0.06,0.66,0.08
			c-0.47-0.42-0.91-0.86-1.33-1.33c-0.2-0.23-0.4-0.46-0.59-0.7c-0.03-0.03-0.05-0.07-0.08-0.1c-0.01-0.01-0.08-0.1-0.02-0.03
			c-0.05-0.06-0.09-0.12-0.14-0.18c-0.1-0.13-0.19-0.26-0.28-0.39c-0.16-0.23-0.48-0.36-0.74-0.19
			C27.51,13.34,27.37,13.69,27.54,13.94L27.54,13.94z"/>
	</g>
	<g>
		<path class="st0" d="M19.88,36.7c-0.14-0.02-0.27-0.03-0.41-0.05c-0.21-0.03-0.99-0.16-1.2-0.19c-2.04-0.31-3.55-0.91-5.68-1.49
			c-2.09-0.56-3.98-0.29-6.01-0.06c-1.52,0.17-4.06,0.9-6.04,1.37c2.14,0.36,3.43,1.68,5.3,2.78c2.26,1.32,5.03,1.67,7.6,1.16
			c0.86-0.17,1.69-0.45,2.49-0.8c1.21-0.53,2.36-1.22,3.43-1.98c0.12-0.09,0.25-0.17,0.36-0.26c0.08-0.06,0.16-0.11,0.23-0.18
			c0.04-0.04,0.17-0.14,0.15-0.2C20.07,36.71,19.95,36.71,19.88,36.7z"/>
	</g>
	<g>
		<g>
			<path class="st1" d="M19.88,36.16c-1.39-0.18-2.77-0.44-4.11-0.83c-1.82-0.52-3.6-1.18-5.51-1.24C6.88,34,3.63,34.97,0.39,35.75
				c-0.5,0.12-0.53,0.94,0,1.04c1.9,0.37,3.29,1.58,4.9,2.56c1.63,0.99,3.47,1.53,5.37,1.61c1.86,0.08,3.68-0.3,5.38-1.02
				c0.99-0.42,1.94-0.95,2.84-1.53c0.52-0.34,1.39-0.76,1.68-1.34c0.1-0.2,0.11-0.5-0.08-0.66c-0.15-0.12-0.26-0.2-0.45-0.23
				c-0.68-0.09-0.98,0.95-0.29,1.04c-0.01-0.02-0.02-0.03-0.03-0.05c-0.03-0.22-0.06-0.44-0.08-0.66c-0.29,0.58-1.52,1.12-2.06,1.43
				c-0.86,0.51-1.76,0.96-2.7,1.3c-1.68,0.6-3.5,0.79-5.27,0.53c-1.8-0.26-3.31-1.04-4.8-2.04c-1.3-0.87-2.55-1.69-4.11-1.99
				c0,0.35,0,0.7,0,1.04c3.26-0.78,6.54-1.8,9.93-1.6c1.89,0.11,3.69,0.88,5.51,1.36c1.23,0.32,2.5,0.53,3.76,0.69
				C20.57,37.33,20.56,36.25,19.88,36.16z"/>
		</g>
	</g>
	<g>
		<path class="st1" d="M17.07,26.38c3.75,4.6,8.03,9.89,8.19,16.11c0.02,0.7,1.1,0.7,1.08,0c-0.17-6.54-4.57-12.03-8.51-16.88
			C17.4,25.08,16.64,25.85,17.07,26.38L17.07,26.38z"/>
	</g>
	<g>
		<path class="st1" d="M26.63,50.02c0.01-1.45-0.05-2.89-0.11-4.33c-0.08-1.78-0.41-3.75-0.03-5.5c0.38-1.74,1.6-3.1,2.73-4.42
			c1.12-1.3,2.27-2.57,3.3-3.94c0.42-0.56-0.52-1.1-0.93-0.55c-1.15,1.54-2.48,2.95-3.72,4.41c-1.05,1.24-2.06,2.59-2.42,4.21
			c-0.38,1.73-0.11,3.57-0.03,5.32c0.07,1.6,0.14,3.19,0.13,4.79C25.55,50.72,26.63,50.72,26.63,50.02L26.63,50.02z"/>
	</g>
	<g>
		<path class="st1" d="M20.09,37.33c0.83-0.05,1.73-0.06,2.49,0.09c0.72,0.14,1.26,0.36,1.87,0.74c0.6,0.36,1.14-0.57,0.55-0.93
			c-0.66-0.4-1.38-0.7-2.13-0.84c-0.92-0.18-1.85-0.18-2.78-0.13c-0.29,0.02-0.54,0.24-0.54,0.54
			C19.55,37.07,19.8,37.35,20.09,37.33L20.09,37.33z"/>
	</g>
	<g>
		<path class="st0" d="M13.67,7.58c0.97,1.18,2.92,1.99,4.32,1.6c2.19-0.61,3.4-1.7,3.87-3.07c0.46-1.36-0.28-3.94-1.14-5.12
			c-0.06,1.1-1.01,2.08-1.89,2.36c-0.88,0.27-1.92-0.16-2.71-0.63c0.32,0.97,0.58,2,0.02,2.85c-0.56,0.85-2.21,1.27-3.22,1.13
			L13.67,7.58z"/>
	</g>
	<g>
		<g>
			<path class="st1" d="M13.29,7.96c0.75,0.88,1.84,1.51,2.97,1.75c1.2,0.26,2.32-0.06,3.41-0.58C20.6,8.68,21.46,8,21.99,7.1
				c0.53-0.9,0.61-1.87,0.47-2.89C22.3,3,21.9,1.72,21.19,0.72c-0.32-0.45-0.96-0.28-1.01,0.27c-0.07,0.76-0.65,1.48-1.35,1.78
				c-0.81,0.35-1.74-0.11-2.44-0.52c-0.39-0.23-0.94,0.15-0.8,0.61c0.29,0.9,0.66,2.12-0.28,2.76c-0.67,0.46-1.59,0.63-2.39,0.53
				c-0.51-0.06-0.65,0.61-0.38,0.92C12.79,7.37,13.04,7.67,13.29,7.96c0.45,0.53,1.22-0.24,0.77-0.77c-0.25-0.29-0.5-0.58-0.75-0.88
				c-0.13,0.31-0.26,0.62-0.38,0.92c1.09,0.13,2.37-0.19,3.22-0.89c1.16-0.96,0.91-2.51,0.5-3.78c-0.27,0.2-0.53,0.41-0.8,0.61
				c1.07,0.61,2.34,1.08,3.52,0.52c1.06-0.5,1.79-1.56,1.89-2.72c-0.34,0.09-0.67,0.18-1.01,0.27c0.67,0.95,1.08,2.18,1.18,3.34
				c0.09,1.03-0.18,1.92-0.92,2.66c-0.42,0.41-0.92,0.72-1.45,0.97c-0.54,0.25-1.15,0.49-1.75,0.51c-1.23,0.03-2.47-0.62-3.25-1.54
				C13.6,6.66,12.84,7.43,13.29,7.96z"/>
		</g>
	</g>
	<g>
		<path class="st2" d="M42.89,19.13c-0.73,1.19-0.83,3.11-0.07,4.2c1.18,1.7,2.49,2.42,3.81,2.4c1.31-0.02,3.31-1.43,4.06-2.53
			c-0.96,0.28-2.1-0.24-2.6-0.91c-0.5-0.67-0.44-1.7-0.28-2.52c-0.74,0.57-1.55,1.1-2.45,0.88c-0.9-0.22-1.76-1.51-1.94-2.42
			L42.89,19.13z"/>
	</g>
	<g>
		<g>
			<path class="st1" d="M42.43,18.86c-0.53,0.9-0.75,2-0.64,3.04c0.13,1.15,0.71,2.06,1.52,2.87c0.7,0.7,1.58,1.28,2.58,1.44
				c0.98,0.17,1.86-0.08,2.73-0.55c0.98-0.53,1.91-1.27,2.55-2.18c0.28-0.4-0.18-0.91-0.61-0.8c-0.68,0.18-1.48-0.09-1.95-0.62
				c-0.5-0.57-0.4-1.46-0.27-2.15c0.07-0.4-0.38-0.93-0.8-0.61c-0.63,0.48-1.54,1.19-2.34,0.69c-0.64-0.4-1.09-1.19-1.25-1.91
				c-0.1-0.46-0.76-0.52-0.99-0.13C42.78,18.25,42.6,18.55,42.43,18.86c-0.35,0.6,0.59,1.15,0.93,0.55c0.18-0.3,0.35-0.61,0.53-0.91
				c-0.33-0.04-0.66-0.09-0.99-0.13c0.22,1.01,0.92,2.1,1.84,2.61c1.18,0.64,2.39-0.01,3.35-0.74c-0.27-0.2-0.53-0.41-0.8-0.61
				c-0.2,1.09-0.25,2.33,0.55,3.2c0.74,0.8,1.95,1.17,3,0.9c-0.2-0.27-0.41-0.53-0.61-0.8c-0.57,0.82-1.48,1.46-2.36,1.9
				c-0.85,0.42-1.73,0.48-2.59,0.05c-0.49-0.24-0.91-0.58-1.29-0.98c-0.39-0.4-0.8-0.87-0.97-1.41c-0.33-1-0.18-2.19,0.35-3.09
				C43.72,18.8,42.78,18.25,42.43,18.86z"/>
		</g>
	</g>
	<g>
		<path class="st1" d="M19.23,8.75c1.15,1.82,1.68,3.95,1.52,6.1c-0.03,0.44,0.64,0.75,0.92,0.38c0.03-0.04,0.06-0.08,0.1-0.12
			c0.18-0.23,0.22-0.54,0-0.77c-0.19-0.19-0.58-0.23-0.77,0c-0.03,0.04-0.06,0.08-0.1,0.12c0.31,0.13,0.62,0.26,0.92,0.38
			c0.17-2.32-0.42-4.68-1.67-6.65C19.79,7.61,18.85,8.16,19.23,8.75L19.23,8.75z"/>
	</g>
	<g>
		<path class="st2" d="M12,26.02c-0.32,1.8-0.23,4.39,0.39,5.6c0.43,0.85,1.57,1.43,2.53,1.36c0.46-0.03,0.92-0.25,1.31-0.48
			c0.41-0.24,0.74-0.46,0.99-0.86c0.62-1.03,0.51-2.11,0.46-3.31c-0.06-1.13-0.3-2.31-0.91-3.56c0.85,1.12,1.57,1.33,2.91,2.07
			c0.18,0.1,0.36,0.18,0.55,0.26c0.44,0.18,0.91,0.3,1.38,0.32c0.24,0.01,0.47,0,0.71-0.04c0.36-0.05,0.72-0.17,1.04-0.35
			c0.95-0.54,1.23-1.56,0.84-2.53c-0.32-0.79-0.77-1.67-1.43-2.22c-1.22-1.02-2.2-1.27-3.99-1.57c1.06-0.11,2.33-0.32,3.3-0.76
			c0.87-0.39,1.42-0.72,2.08-1.53c0.66-0.8,0.68-1.58,0.14-2.47c-0.46-0.75-1.37-1.1-2.25-1.22c-2.16-0.27-4.99,0.97-6.2,2.59
			c0.5-1.41,0.38-4.14-0.79-5.66c-0.73-0.95-1.73-1.47-2.93-1.38c-1.46,0.12-2.22,1.51-2.15,3.16c0.06,1.39,0.44,2.89,1.17,4.6
			c-0.28-0.23-0.86-0.52-1.1-0.64C9,16.88,8.47,16.53,7.33,16.28C6.89,16.19,6.45,16.14,6,16.15c-0.3,0-0.59,0.04-0.88,0.1
			c-0.34,0.07-0.68,0.2-0.99,0.37c-0.4,0.22-0.72,0.55-0.88,0.97c-0.14,0.36-0.17,0.75-0.13,1.13c0.04,0.33,0.13,0.66,0.26,0.97
			c0.46,1.07,1.29,1.71,2.3,2.14c1.08,0.45,2.09,0.81,3.53,0.89c-1.33,0.57-2.16,0.98-2.88,1.69c-0.82,0.81-1.5,1.64-1.85,2.58
			c-0.22,0.59-0.52,1.61,0.19,2.32c0.49,0.49,1.22,0.7,1.91,0.65c0.69-0.05,1.96-0.49,2.56-0.84C10.18,28.51,11.12,27.92,12,26.02z"
			/>
	</g>
	<g>
		<g>
			<path class="st1" d="M11.48,25.87c-0.43,2.63-0.53,7.87,3.44,7.65c1.73-0.1,3.05-1.51,3.28-3.15c0.28-1.97-0.15-4.1-0.98-5.88
				c-0.28,0.22-0.57,0.44-0.85,0.66c1.6,1.98,6.69,4.57,8.29,1.24c0.66-1.38-0.24-3.12-1.17-4.16c-1.19-1.33-2.88-1.76-4.57-2.06
				c-0.05,0.35-0.1,0.71-0.14,1.06c1.81-0.21,3.75-0.56,5.15-1.81c1.25-1.11,1.78-2.76,0.54-4.12c-2.33-2.58-7.21-0.62-9.02,1.63
				c0.3,0.18,0.6,0.35,0.9,0.53c0.9-2.85-0.16-7.53-3.76-7.73c-4.6-0.25-2.98,6.05-1.99,8.45c0.27-0.2,0.53-0.41,0.8-0.61
				c-1.24-0.9-2.89-1.68-4.41-1.89c-1.51-0.22-3.52,0.06-4.21,1.63c-0.64,1.44,0.14,3.22,1.27,4.17c1.38,1.16,3.4,1.64,5.15,1.78
				c-0.09-0.34-0.18-0.67-0.27-1.01c-1.84,0.81-3.39,1.81-4.47,3.56c-0.78,1.26-1.27,3.05,0.08,4.1c1.32,1.03,3.15,0.5,4.52-0.15
				c1.57-0.75,2.64-1.91,3.41-3.47c0.31-0.62-0.63-1.17-0.93-0.55c-0.54,1.11-1.2,2-2.25,2.66c-0.95,0.59-2.45,1.32-3.59,0.91
				c-1.95-0.71-0.31-3.07,0.5-3.98c0.93-1.04,2.03-1.6,3.29-2.15c0.54-0.24,0.2-0.97-0.27-1.01c-1.31-0.11-2.69-0.44-3.84-1.1
				c-1.24-0.71-2.67-2.93-0.97-3.99c1.93-1.2,4.85,0.26,6.46,1.43c0.36,0.26,0.97-0.18,0.8-0.61c-0.69-1.66-2.64-7.45,1.02-7.07
				c2.78,0.29,3.32,4.2,2.64,6.34c-0.16,0.49,0.56,0.96,0.9,0.53c1.38-1.73,4.12-2.94,6.33-2.32c0.84,0.24,1.75,1,1.56,1.98
				c-0.13,0.64-0.8,1.23-1.32,1.58c-1.17,0.79-2.63,1.05-4.01,1.21c-0.55,0.06-0.8,0.95-0.14,1.06c1.07,0.19,2.17,0.37,3.1,0.96
				c0.96,0.6,2.32,2.14,2.06,3.39c-0.39,1.85-2.83,1.32-4.01,0.71c-1.01-0.53-1.91-1-2.64-1.89c-0.41-0.51-1.09,0.14-0.85,0.66
				c0.61,1.31,0.84,2.64,0.88,4.07c0.04,1.54-0.65,3.44-2.54,3.33c-2.77-0.16-2.41-4.4-2.1-6.28
				C12.64,25.48,11.59,25.19,11.48,25.87z"/>
		</g>
	</g>
	<g>
		<path class="st3" d="M12.34,20.1c0.16-0.14,0.33-0.27,0.51-0.36c0.2-0.11,0.42-0.18,0.64-0.23c0.25-0.06,0.5-0.08,0.76-0.07
			c0.72,0.02,1.49,0.27,1.86,0.95c0.63,1.15-0.26,2.37-1.32,2.84c-0.8,0.36-1.83,0.28-2.52-0.3C11.39,22.2,11.55,20.83,12.34,20.1z"
			/>
	</g>
	<g>
		<g>
			<path class="st1" d="M12.72,20.49c0.29-0.26,0.72-0.44,1.11-0.49c0.21-0.03,0.42-0.02,0.63,0c0.17,0.01-0.1-0.02,0.07,0.01
				c0.04,0.01,0.07,0.01,0.11,0.02c0.11,0.02,0.21,0.05,0.32,0.09c0,0,0.17,0.07,0.07,0.03c0.04,0.02,0.08,0.04,0.12,0.06
				c0.04,0.02,0.08,0.04,0.12,0.07c0,0,0.14,0.1,0.06,0.04c0.18,0.15,0.23,0.23,0.33,0.41c0.09,0.16-0.01-0.03,0.03,0.06
				c0.02,0.05,0.03,0.09,0.04,0.14c0.01,0.05,0.03,0.11,0.03,0.16c0-0.03,0-0.08,0,0.02c0,0.09,0,0.18-0.01,0.27
				c0.02-0.11-0.02,0.06-0.02,0.07c-0.01,0.05-0.03,0.1-0.05,0.16c0,0-0.07,0.16-0.03,0.07c-0.02,0.04-0.04,0.08-0.06,0.12
				c-0.05,0.09-0.1,0.18-0.16,0.26c0.01-0.02,0.05-0.06-0.02,0.02c-0.04,0.04-0.07,0.09-0.11,0.13c-0.08,0.08-0.16,0.16-0.25,0.23
				c-0.04,0.03-0.07,0.06-0.16,0.12c-0.08,0.05-0.16,0.1-0.24,0.14c-0.15,0.08-0.28,0.13-0.5,0.18c-0.06,0.01-0.11,0.02-0.17,0.03
				c0.09-0.01-0.03,0-0.05,0c-0.1,0.01-0.21,0.01-0.31,0c-0.04,0-0.08-0.01-0.11-0.01c-0.17-0.01,0.09,0.02-0.08-0.01
				c-0.11-0.02-0.22-0.05-0.33-0.09c-0.04-0.01-0.07-0.02-0.11-0.04c0.09,0.04-0.08-0.04-0.08-0.04c-0.08-0.04-0.16-0.09-0.24-0.15
				c0.07,0.05-0.07-0.06-0.07-0.06c-0.03-0.02-0.05-0.05-0.08-0.07c-0.04-0.04-0.07-0.08-0.1-0.12c0.06,0.08-0.02-0.04-0.03-0.06
				c-0.03-0.04-0.05-0.09-0.07-0.13c-0.06-0.1,0.01,0.05-0.02-0.05c-0.03-0.09-0.06-0.19-0.08-0.28c-0.03-0.15,0,0.1-0.01-0.05
				c0-0.05-0.01-0.1-0.01-0.15c0-0.05,0-0.1,0.01-0.15c0-0.13-0.02,0.06,0.01-0.05c0.02-0.11,0.05-0.21,0.08-0.31
				c0.01-0.02,0.05-0.13,0.01-0.03c0.02-0.05,0.05-0.11,0.08-0.16c0.02-0.04,0.04-0.07,0.06-0.11c0.01-0.02,0.1-0.15,0.07-0.11
				c-0.04,0.06,0.06-0.07,0.05-0.06C12.63,20.58,12.67,20.53,12.72,20.49c0.21-0.2,0.2-0.56,0-0.77c-0.21-0.21-0.55-0.2-0.77,0
				c-0.72,0.67-1.04,1.8-0.67,2.73c0.42,1.06,1.57,1.63,2.68,1.54c1.08-0.09,2.16-0.75,2.63-1.74c0.25-0.51,0.34-1.08,0.18-1.64
				c-0.16-0.56-0.54-1.05-1.05-1.33c-1.18-0.66-2.78-0.44-3.77,0.45c-0.22,0.19-0.2,0.57,0,0.77C12.17,20.7,12.5,20.68,12.72,20.49z
				"/>
		</g>
	</g>
	<g>
		<path class="st1" d="M38.58,28.5c1-0.28,1.98-0.64,2.86-1.2c1.05-0.68,1.89-1.6,2.58-2.63c0.16-0.24,0.05-0.6-0.19-0.74
			c-0.27-0.16-0.58-0.05-0.74,0.19c-0.6,0.9-1.34,1.7-2.25,2.28c-0.8,0.5-1.64,0.8-2.54,1.06C37.63,27.65,37.91,28.69,38.58,28.5
			L38.58,28.5z"/>
	</g>
	<g>
		<path class="st0" d="M31.14,26.59c-1.88-0.24-2.83-1.01-3.99-2.5c-0.74-0.95-1.13-2.6-0.32-3.49c0.67-0.73,2.39-0.75,3.3-0.38
			c1.67,0.68,2.9,1.57,3.92,3.23c0.3-1.12,0.38-1.73,0.93-2.76c0.33-0.61,0.84-1.31,1.37-1.75c0.53-0.44,1.54-0.63,2.22-0.51
			c1,0.18,1.31,1.24,1.41,2.24c0.1,1.01-0.04,1.95-0.53,2.84s-0.77,1.36-1.51,2.34c1.14-0.02,1.51,0.05,2.49,0.19
			c1.09,0.15,1.97,0.61,2.65,1.48c0.68,0.87,0.74,2.27-0.08,3c-0.37,0.33-0.86,0.49-1.35,0.59c-1.85,0.39-3-0.04-4.64-0.99
			c0.61,1.7,0.64,2.26,0.64,3.82c0,1.55-0.9,2.38-2.45,2.57c-1.47,0.18-2.63-0.66-3-1.88c-0.43-1.42-0.22-2.06,0.15-3.71
			c-0.69,0.6-1.52,1.03-2.4,1.28c-0.86,0.25-1.77,0.4-2.67,0.37c-1.07-0.04-2.47-0.4-2.62-1.66c-0.05-0.43,0.05-0.86,0.21-1.26
			c0.13-0.33,0.32-0.65,0.54-0.93c0.52-0.65,1.37-1.06,2.09-1.44c0.26-0.14,0.53-0.26,0.81-0.37
			C29.23,26.57,30.19,26.46,31.14,26.59z"/>
	</g>
	<g>
		<g>
			<path class="st1" d="M31.29,26.06c-1.24-0.18-2.21-0.63-3.07-1.55c-0.74-0.79-2.12-2.76-0.81-3.69c0.98-0.7,2.47-0.19,3.41,0.3
				c1.17,0.62,2.06,1.48,2.77,2.6c0.24,0.38,0.87,0.33,0.99-0.13c0.29-1.09,0.53-2.14,1.16-3.1c0.59-0.9,2.15-2.32,3.25-1.24
				c0.83,0.82,0.56,2.79,0.15,3.72c-0.41,0.93-1.04,1.8-1.64,2.61c-0.25,0.34,0.09,0.82,0.47,0.81c1.77-0.02,4.72,0.11,5.1,2.35
				c0.26,1.54-1.38,1.96-2.59,1.97c-1.16,0.01-2.17-0.5-3.16-1.06c-0.39-0.22-0.96,0.15-0.8,0.61c0.57,1.63,1.52,4.96-0.82,5.6
				c-1.16,0.32-2.4-0.06-2.88-1.23c-0.49-1.2-0.18-2.37,0.08-3.57c0.12-0.55-0.49-0.87-0.9-0.53c-1.12,0.92-2.56,1.39-4,1.48
				c-0.84,0.05-2.28,0.03-2.68-0.9c-0.58-1.36,1-2.58,2-3.11c1.24-0.67,2.42-1.03,3.84-0.88c0.69,0.07,0.69-1.01,0-1.08
				c-1.85-0.19-3.6,0.44-5.13,1.46c-1.23,0.82-2.34,2.53-1.71,4.04c0.51,1.22,1.98,1.55,3.17,1.56c1.91,0.02,3.8-0.59,5.28-1.8
				c-0.3-0.18-0.6-0.35-0.9-0.53c-0.34,1.53-0.68,3.09,0.09,4.56c0.69,1.32,2.13,1.89,3.56,1.67c3.51-0.54,2.93-4.53,2.06-7.03
				c-0.27,0.2-0.53,0.41-0.8,0.61c1.39,0.8,2.79,1.37,4.43,1.15c1.43-0.19,2.83-0.83,2.96-2.44c0.27-3.34-3.71-4.02-6.2-3.99
				c0.16,0.27,0.31,0.54,0.47,0.81c0.93-1.25,1.91-2.62,2.1-4.2c0.15-1.24-0.01-3.1-1.22-3.8c-1.18-0.68-2.84-0.11-3.71,0.81
				c-1.17,1.25-1.63,2.76-2.05,4.37c0.33-0.04,0.66-0.09,0.99-0.13c-0.97-1.53-2.27-2.63-3.93-3.35c-1.22-0.52-3.13-0.67-4.14,0.39
				c-1.12,1.17-0.55,3.13,0.32,4.25c1.11,1.44,2.41,2.37,4.23,2.64C31.68,27.21,31.97,26.16,31.29,26.06z"/>
		</g>
	</g>
	<g>
		<path class="st4" d="M34.31,25.48c-0.24,0.06-0.47,0.17-0.65,0.33c-0.34,0.29-0.51,0.63-0.61,1.06c-0.12,0.54-0.04,1.16,0.26,1.63
			c0.1,0.15,0.22,0.29,0.37,0.39c0.22,0.15,0.49,0.2,0.75,0.19c0.34-0.01,0.69-0.09,0.99-0.27c1.09-0.63,1.13-2.43,0.07-3.11
			c-0.06-0.04-0.12-0.07-0.18-0.1c-0.11-0.05-0.22-0.09-0.33-0.12C34.76,25.43,34.53,25.43,34.31,25.48z"/>
	</g>
	<g>
		<g>
			<path class="st1" d="M34.17,24.96c-1,0.25-1.59,1.16-1.7,2.15c-0.11,0.99,0.39,2.25,1.46,2.47c0.94,0.2,1.97-0.19,2.5-1
				c0.4-0.61,0.49-1.45,0.26-2.14C36.32,25.36,35.29,24.73,34.17,24.96c-0.29,0.06-0.45,0.4-0.38,0.67c0.08,0.3,0.38,0.44,0.67,0.38
				c0.13-0.03,0.29-0.02,0.44,0.01c0.04,0.01,0.08,0.02,0.11,0.03c0.17,0.06-0.04-0.02,0.06,0.03c0.04,0.02,0.08,0.04,0.12,0.07
				c0.01,0.01,0.14,0.09,0.08,0.05c-0.05-0.04,0.08,0.07,0.1,0.1c0.04,0.04,0.08,0.08,0.11,0.12c-0.09-0.1,0.04,0.07,0.06,0.09
				c0.03,0.06,0.07,0.12,0.09,0.18c-0.05-0.11,0,0.02,0.02,0.06c0.02,0.06,0.03,0.12,0.05,0.18c0.01,0.03,0.01,0.07,0.02,0.1
				c0-0.02-0.01-0.12,0-0.02c0,0.07,0.01,0.14,0.01,0.21c0,0.06-0.01,0.13-0.01,0.19c0,0.04-0.02,0.13,0,0
				c-0.01,0.03-0.01,0.05-0.02,0.08c-0.01,0.05-0.02,0.11-0.04,0.16c-0.01,0.03-0.02,0.07-0.03,0.1c-0.03,0.11,0.01-0.01-0.01,0.02
				c-0.06,0.1-0.11,0.2-0.18,0.3c0.07-0.11-0.03,0.03-0.06,0.06c-0.02,0.03-0.05,0.05-0.07,0.07c-0.02,0.02-0.12,0.1-0.02,0.02
				c-0.05,0.03-0.09,0.06-0.14,0.09c-0.04,0.02-0.07,0.04-0.11,0.06c-0.17,0.08,0.03-0.01-0.07,0.03c-0.09,0.03-0.17,0.06-0.26,0.08
				c-0.12,0.03-0.1,0.02-0.22,0.03c-0.19,0.01-0.28,0.02-0.45-0.06c0.08,0.03-0.14-0.09-0.07-0.04c-0.03-0.02-0.06-0.05-0.09-0.08
				c0,0-0.11-0.13-0.07-0.07c-0.06-0.08-0.1-0.17-0.15-0.25c0-0.01-0.04-0.09-0.01-0.03c-0.01-0.04-0.03-0.07-0.04-0.11
				c-0.03-0.08-0.05-0.17-0.06-0.26c-0.02-0.09,0.01,0.07-0.01-0.03c-0.01-0.06-0.01-0.12-0.01-0.18c-0.01-0.24,0.01-0.31,0.06-0.51
				c0.02-0.08,0.05-0.17,0.08-0.25c-0.01,0.02-0.04,0.08,0.01-0.01c0.02-0.04,0.05-0.09,0.07-0.13c0.02-0.03,0.04-0.06,0.05-0.08
				c0.06-0.1-0.03,0.03,0.04-0.05c0.06-0.07,0.12-0.13,0.19-0.19c-0.06,0.05,0.03-0.03,0.05-0.03c0.05-0.03,0.1-0.06,0.15-0.09
				c0.08-0.04-0.06,0.02,0.03-0.01c0.06-0.02,0.13-0.04,0.19-0.06c0.28-0.07,0.45-0.39,0.38-0.67
				C34.76,25.05,34.45,24.88,34.17,24.96z"/>
		</g>
	</g>
	<g>
		<path class="st2" d="M29.65,42.57c0.83-1.17,1.32-1.66,2.01-2.21c0.42-0.33,0.86-0.64,1.32-0.91c1.05-0.61,2.26-0.87,3.45-1.11
			c1.19-0.24,2.1-0.37,3.32-0.47c1.6-0.13,3.17-0.11,4.62-0.64c-1.5,1.25-2.27,2.27-3.15,3.41c-1.1,1.42-3.58,2.18-5.65,2.47
			c-2.07,0.29-4.24,0.33-6.34,0.16L29.65,42.57z"/>
	</g>
	<g>
		<g>
			<path class="st1" d="M30.12,42.85c0.7-0.97,1.47-1.81,2.46-2.5c1.14-0.79,2.39-1.15,3.74-1.43c1.32-0.27,2.64-0.45,3.99-0.54
				c1.42-0.1,2.84-0.15,4.21-0.61c-0.18-0.3-0.35-0.6-0.53-0.9c-1.03,0.87-1.93,1.84-2.76,2.9c-0.81,1.03-1.69,1.69-2.94,2.15
				c-2.85,1.04-6.08,1.06-9.07,0.83c0.16,0.27,0.31,0.54,0.47,0.81C29.84,43.32,29.98,43.08,30.12,42.85
				c0.36-0.6-0.58-1.14-0.93-0.55c-0.14,0.23-0.28,0.47-0.42,0.7c-0.22,0.37,0.07,0.78,0.47,0.81c3.14,0.24,6.59,0.2,9.57-0.95
				c1.14-0.44,2.18-1.04,2.94-2.01c0.92-1.18,1.88-2.27,3.02-3.24c0.41-0.35-0.03-1.07-0.53-0.9c-1.54,0.52-3.16,0.5-4.76,0.64
				c-1.41,0.13-2.82,0.36-4.2,0.68c-2.6,0.61-4.55,2.13-6.09,4.26C28.78,42.87,29.71,43.41,30.12,42.85z"/>
		</g>
	</g>
	<g>
		<path class="st5" d="M26.41,46.86c0.67-0.56,1.37-1.1,1.99-1.71c0.64-0.63,1.17-1.36,1.65-2.11c0.16-0.25,0.05-0.6-0.19-0.74
			c-0.26-0.15-0.58-0.05-0.74,0.19c-0.14,0.22-0.28,0.43-0.43,0.65c-0.06,0.09-0.12,0.17-0.19,0.26c-0.03,0.04-0.06,0.08-0.09,0.12
			c0.06-0.08-0.02,0.03-0.04,0.05c-0.24,0.3-0.49,0.58-0.77,0.85c-0.61,0.6-1.3,1.13-1.96,1.68c-0.22,0.19-0.19,0.57,0,0.77
			C25.87,47.08,26.19,47.05,26.41,46.86L26.41,46.86z"/>
	</g>
</g>
</svg>
