<?xml version="1.0" encoding="utf-8"?>
<!-- Generator: Adobe Illustrator 26.0.2, SVG Export Plug-In . SVG Version: 6.00 Build 0)  -->
<svg version="1.1" id="레이어_1" xmlns="http://www.w3.org/2000/svg" xmlns:xlink="http://www.w3.org/1999/xlink" x="0px"
	 y="0px" viewBox="0 0 381.7 120.9" enable-background="new 0 0 381.7 120.9" xml:space="preserve">
<g>
	<g>
		<path fill="#323232" d="M374.3,120.9H7.4c-4.1,0-7.4-3.3-7.4-7.4V7.4C0,3.3,3.3,0,7.4,0h366.9c4.1,0,7.4,3.3,7.4,7.4v106.1
			C381.7,117.6,378.4,120.9,374.3,120.9z"/>
	</g>
	<g>
		<path fill="#1E1E1E" d="M106.8,36.1c-2.4-1.3-5-2-7.6-1.8c-1.5,0.1-1.5,0.3-4,0c-0.9-0.1-1.7-0.4-2.5-0.7c-1.5-0.5-2.1-1-2.1-1
			c1.2-1.4,3.1-2.6,4.3-3c1-0.3,2-0.5,3-0.7c0.3-0.1,2.2-0.7,2.4-0.5c-0.9-0.6-3-0.2-4.1-0.1c-1,0.1-2,0.2-2.9,0.4
			c-2.3,0.5-4,1.4-5.4,2.9c-0.8,0.8-2.7,2.6-3.4,3.2c0,0-1-0.2-2.1-0.5c-0.8-0.2-1.9-0.4-3.3-0.9c-1.7-0.6-3.8-1.2-3.8-1.2
			c-1.8,0.6-3.2,1.2-4.8,2.1c-0.8,0.4-1.6,0.6-2.4,1c-0.7,0.3-1.7,0.1-2.5,0.1c-0.9-0.1-1.7-0.1-2.6-0.2c-0.5,0-1,0-1.6-0.1
			c-0.2,0-0.4,0-0.6-0.1c-0.2-0.1-0.5-0.4-0.7-0.6c-0.4-0.3-0.7-0.8-1.1-1.1c0.8-0.3,1.4-0.5,1.9-0.6c0.5-0.1,1.2-0.5,1.6-0.6
			c0.3-0.1,1.5-0.6,1.8-0.7c0.6-0.3,0.2-1.6,2.8-3.6c2.6-2,2.2-2.5,5.4-2.7c1.7-0.1,5.7-1,4.9-1.1c-1.5-0.2-2.8-0.3-3.5-0.3
			c-3.1,0-3.6-0.6-6.3,0.9c-1.3,0.8-2.6,1.7-3.7,2.7c-1,0.9-0.9,0.5-2,1.3c-0.5,0.4-1,0.7-1.6,0.8c-0.7,0.2-4,1.2-4.7,1.3
			c0,0-1.6,1.3-2.9,2.1c-1.6,1.2-4,3-4,3c-1.5-0.4-2.5-0.9-3.6-1.5c-1.3-0.7-2.6-1.6-4-2.1c-1.5-0.5-3-0.5-4.5-0.7
			c-1-0.1-2-0.4-2.9-0.9c-0.3-0.2-0.6-0.4-1-0.6c-2.3-1.7-4-4.2-5.9-6.5c-1.1-1.3-0.9-2.5-2.2-3.6c-1.2-1.1-3.2-2.5-4.8-2.7
			c-3.6-0.4-7.7-1.9-11.3-2.6c-3-0.6-5.9-1.4-8.8-2.3v7.1c5.5,1.7,11.1,2.9,16.8,3.6c0.8,0.1,1.5,0.2,2.3,0.3
			c0.8,0.1,1.7,0.1,2.4,0.5c1.2,0.6,2.5,2.8,3.4,3.9c1.9,2.4,3,4.2,5.3,6.3c0.1,0.3,0.3,0.6,0.7,0.8c0.2,0.1,0.6,0.8,0.8,0.9
			c0.6,0.8,1.1,1.2,1.8,2c1.6,2.3,2.3,2.9,3.6,5.5c0.1,0.2,0.2,0.5,0.3,0.7c-1.1,1.7-1.6,2.6-2.7,4.3c-0.5,0.8-1,1.7-1.6,2.4
			c-0.5,0.6-1.6,0.7-2.3,0.9c-3.7,1.1-7.5,2.2-10.8,4.2c-0.5,0.3-3.2,1.8-2.9,2.3c0.4,0.6,3.1-0.8,3.6-1.2c3.3-2,6.2-2.2,9.9-3.2
			c1-0.3,3.6-0.6,4.2-1.4c0.6-0.7,1.1-1.7,1.6-2.5c0.9-1.4,1.5-2.2,2.5-3.6c0.5,0.9,1.1,1.8,1.7,2.6c0.6,0.8,1.9,2.3,2.1,3.3
			c0.2,1.3,0.4,2,0.4,2.7c0,1.5,0.1,1.8,0.2,2.8c0.1,0.7,0.2,1.7,0.2,2.4c0,0.3,0,0.6,0,0.9c0,0,0,0.1,0,0.1c0.1,1.6,0.6,4.1,1,3
			c0.3-0.7,0.3-4,0.3-4.7c0-0.7,0-1.5,0-2.2c0-1.4,0.1-0.8,0.1-2.2c0-1.4,0.1-2.9-0.1-4.3c-0.4-2.7-2.5-4.5-3.8-6.7
			c-1.3-2.3-2.2-4.8-3.6-7c-0.2-0.3-0.3-0.5-0.5-0.8c0.5,0.1,1,0.1,1.6,0.2c1.5,0.2,2.8,0.7,4.1,1.4c1.3,0.8,4.8,2,6.3,2.4
			c0,0,1.4-0.9,2.8-1.6c1.1-0.6,1.6-1.1,2.2-1.6c0.6-0.5,0.7-0.6,1.5-1.3c0.2-0.2,0.4-0.3,0.5-0.4c0,0,0.9,0.9,1,0.9
			c0.4,0.3,0.8,0.7,1.2,1c0.4,0.3,0.7,0.7,1.1,0.8c0.5,0.1,1,0.1,1.5,0.2c0.4,0,0.7,0.1,1.1,0.1c0.8,0.1,1.6,0.2,2.4,0.3
			c0.1,0,0.2,0,0.2,0.1c0.2,0.1,0.3,0.1,0.3,0.2c0.1,0.2,0.1,0.4,0.2,0.6c0.1,0.1,0.1,0.3,0.1,0.4c0,0.1,0.1,0.3,0.2,0.4
			c0.2,0.4,0.4,0.8,0.5,1.2c0.3,0.9,0.6,1.8,0.8,2.7c0.3,0.9,0.8,1.6,1,2.4c0.2,0.8,0.4,1.6,0.6,2.4c0.3,1.2,0.1,2.5,0.3,3.7
			c0.1,0.5,0,1,0.1,1.5c0.2-0.5,0.8-1.1,1.1-1.6c0.4-0.7,0.4-1.5,0.4-2.3c0-2.4-0.7-4.7-1.4-7c-0.3-1-0.6-2-0.9-2.9
			c-0.3-0.8-0.4-1.3-0.8-2.2c0.7-0.1,1.2-0.3,1.9-0.5c0.8-0.2,1.5-0.4,2.2-0.8c0.4-0.2,0.3-0.1,0.7-0.4c0,0.2,0.9,1.2,1,1.4
			c1.4,1.4,2,1.8,3.3,2.6c1.4,0.8,1.9,1.8,2.5,3.3c0,0.1,0.4,0.8,0.3,0.8c0.2-0.1,0.4-0.2,0.5-0.4c0.2-0.3,0.4-0.6,0.5-0.9
			c0.2-0.3,0.4-0.7,0.3-1.1c-0.1-1.1-1-2-1.7-2.8c-0.5-0.5-1-1-1.6-1.4c-1-0.7-2.1-1.5-2.8-2.6c0.5-0.2,1.2-0.5,1.7-0.4
			c0.9,0.1,1.3,0.3,2.2,0.7c0.8,0.3,1.6,0.5,2.8,0.9c1.5,0.5,2.4,0.7,4.3,0.9c0,0,2.5-1.8,3.8-3c0,0,2.7,1.6,3.8,1.8
			c1.6,0.4,2.9,0.5,5,0.5c2.7,0,4.3-0.1,6.7,1c1.7,0.7,2.4,0.9,3.7,1.5c1.3,0.6,1.9,0.9,2.9,2C110.3,38,109.4,37.5,106.8,36.1z"/>
	</g>
	<g>
		<path fill="#1E1E1E" d="M32.6,48.7c-0.2-0.3-0.5-0.6-0.8-1c-0.9-1-2.6-1.9-3.8-2.6c-1.7-0.9-3.7-1.3-5.5-0.8
			c-1.2,0.4-2.2,1.2-2.8,2.3c-0.6,1.2-0.3,2-0.4,3.3c0,0.6,0.1,0.3-0.3,0.6c-0.5,0.4-1,0.6-1.4,1.1c-0.5,0.6-0.9,1.3-1.2,1.9
			c-0.6,1.3-0.9,2.7-0.9,4.1c0,2.9,2.1,2.7,4.4,3c-0.1,3.5,4.2,4.9,6.9,4c1.9-0.6,3.3-2,4.2-3.6c0.4-0.7,0.5-1.3,0.7-2.1
			c0.2-1.1,0.3-1,1.3-1.2c0.5-0.1,1-0.4,1.4-0.6c1.2-0.5,2.6-1.5,2.3-2.9c-0.3-1.4-1.6-1.7-2.5-2.4c-0.8-0.6-0.7-1.8-1.2-2.7
			C32.8,49,32.7,48.8,32.6,48.7z"/>
	</g>
	<g>
		<path fill="#1E1E1E" d="M40.4,55.1c-0.3,0.4-0.5,0.9-0.8,1.3c-0.5,0.9-1.1,1.7-1.4,2.7c-0.7,1.9-1,4-0.7,6
			c0.2,1.2,0.6,2.4,1.4,3.3c1.5,1.5,3.8,1.5,5.9,1.4c2.3-0.1,5.1-1.8,6.6-3.6c0.7-0.8,0.6-1.1,1.7-0.9c2.3,0.4,4.5,0.9,6.9,0.8
			c2-0.1,4.4-1.1,4.6-3.1c0.1-1.1-0.7-2.6-1.3-3.4c-0.5-0.6-1-1-1.7-1.4c-0.7-0.4-1.5-0.8-2.4-1.1c-0.9-0.3-1.6-0.2-2.4-0.2
			c0.1-0.6,0.8-0.9,1.1-1.4c0.2-0.4,0.4-0.8,0.7-1.1c1.3-2.2,1.5-5.5-1-7c-1-0.6-2.3-0.7-3.4-0.3c-0.8,0.3-1.3,1.4-2.2,1.1
			c-2-0.6-5.3-1.1-6.7,1c-0.7,1.1-1,3.2-0.9,4.5c-0.9,0.1-2.3,0.2-3.1,0.6C40.9,54.5,40.7,54.7,40.4,55.1z"/>
	</g>
	<g>
		<path fill="#1E1E1E" d="M61.2,26.4c-0.5,2.1,0.4,4.9,2.6,5.6c2.2,0.6,3.9,0.7,5.7-1c1.6-1.5,2.3-3.7,3.3-5.5
			c1.3-0.1,2.2,0.1,3.5-0.4c1.8-0.7,3.4-2.2,4.1-4c0.4-0.9,0.5-1.8,0.5-2.8c0-1.1,0.1-2-0.2-3.1c-0.4-1.3-1.2-2.5-2.5-2.9
			c-0.7-0.2-1.3-0.3-2-0.1c-0.7,0.2-1.2,0.6-1.5,1.3c-0.8-0.4-1.6-0.9-2.4-1.3c-1.1-0.5-2.2-1.1-3.4-0.9c-1.7,0.3-3,1.9-3.3,3.6
			c-0.1,0.4-0.1,0.9,0,1.3c0.1,0.4,0.4,0.7,0.5,1.1c0.1,0.6-0.4,0.6-0.9,0.7c-0.4,0.1-0.9,0.1-1.3,0.3c-1.7,0.4-3.1,1.2-3.9,2.9
			c-0.9,1.8,0.2,3.3,1.4,4.5C61.3,26,61.3,26.2,61.2,26.4z"/>
	</g>
	<g>
		<path fill="#1E1E1E" d="M64.6,47.4c-0.3,0.3-0.6,0.6-0.7,1c-0.5,1.4,0.1,3.3,0.8,4.4c0.9,1.4,2.3,2.4,3.8,3
			c1.4,0.6,2.5,0.5,3.9,0.1c0.8-0.3,1.5-0.6,2.2-1.1c1.4-1.1,2.6-2.7,4.1-3.5c1.2-0.6,1.9-0.2,3.2,0c1.2,0.2,2.4,0.3,3.5-0.2
			c0.6-0.2,1.1-0.5,1.8-0.5c1,0,1.7,0.2,2.3-0.8c0.6-1,0.8-2.1,0.7-3.2c-0.1-1.1-0.2-1.9-0.4-3c-0.3-1.1-0.2-2.1-1.3-2.7
			c-1-0.5-1.9-0.4-2.9-0.2c-1.6,0.3-2.4,0.1-3.7-0.9c-1.3-1-2.9-1.7-4.5-1.3c-1,0.3-1.8,1-2.5,1.8c-0.6,0.7-1,2-1.8,2.5
			c-1.3-1.6-3.8-2.6-5.7-1.3c-1.6,1.1-1.3,3.3-0.5,4.8C66.1,46.3,65.3,46.8,64.6,47.4z"/>
	</g>
	<g>
		<path fill="#1E1E1E" d="M92,27.8c-0.7-0.5-1.4-0.8-1.7-1.6c-0.3-0.7-0.1-1.8,0.2-2.6c0.6-1.2,1.9-1.5,3-2.1
			c1.3-0.7,2.6-1.3,4.1-1.8c1.5-0.5,3.1-1,4.7-0.8c1.6,0.1,3.2,1.1,3.8,2.6c0.4,1.3-0.4,3,0.4,4.2c0.7,1,2.4,0.8,3.3,1.1
			c1.3,0.4,2.7,1.4,3.6,2.4c0.9,1,1.6,2.1,1.7,3.4c0.2,2-1.6,3.7-3.5,4.2c0.6,2,1.6,3.4,1.5,5.6c-0.1,1.7-0.9,3.3-2.4,4.2
			c-2.1,1.2-4.7,0.7-6.7-0.6c-1.5-1-3-1.9-3-4c0-0.8,0.8-2.1,0.1-2.8c-0.9-0.9-3.4-0.1-4.5-0.1c-1.4,0.1-3-0.9-3-2.5
			c0-1.5,1.2-2.8,0.9-4.3c-0.3-1.7-1.1-3.3-2.4-4.4C92.1,27.9,92.1,27.8,92,27.8z"/>
	</g>
	<g>
		<g>
			<path fill="#3A7247" d="M367.5,99.9c0-0.7,0.2-10.2,0.2-10.8l0-1.2c0-0.5,0-1.1,0-1.6c0.8-0.4,1.8-0.8,2.5-1.4
				c0.4-0.3,0.8-0.9,0.7-1.4c0-0.2-0.1-0.3-0.2-0.4c-0.2-0.1-0.4-0.1-0.6,0c-1,0.3-1.8,1-2.5,1.8c0.1-0.7,0.1-1.3,0.2-2
				c0-0.1,0-0.2,0.1-0.3c0.1-0.1,0.2-0.1,0.2-0.2c1-0.5,1.8-1.2,1.9-2.2c0-0.2,0-0.5-0.2-0.7c-0.4-0.4-1.1,0-1.3,0.4
				c-0.4,0.4-0.6,0.9-0.8,1.5c0-0.5,0-0.5,0.1-1c0-0.4,0-0.6,0-1.2c0-0.3,0-0.7,0.3-1.1c0.5-0.6,0.6-1.4,0.6-2.2
				c-0.1-0.8-0.8-1.5-1.6-1c-0.8,0.5-0.9,1.5-0.6,2.3c0.1,0.3,0.3,0.8,0.3,1.1c0,0.4,0,0.7-0.1,1.1c0,0.5,0,0.8,0,1.3
				c0,0.5,0,0.3,0,0.8c0,0.2-0.1,1.3,0,1.4c-0.5-1.1-0.9-1.6-1.4-2.2c-0.1-0.2-0.4-0.3-0.6-0.3c-0.2,0-0.5,0.1-0.6,0.3
				c-0.1,0.1-0.1,0.4-0.1,0.5c0.2,1.2,1.3,2.3,2.4,2.9c0,0.8,0,1.3,0,1.9c-0.6-0.6-1.4-1.1-2.3-1.3c-0.3-0.1-0.6-0.1-0.8-0.1
				c-0.3,0.1-0.5,0.2-0.6,0.5c-0.2,0.4,0.2,0.9,0.5,1.2c0.8,0.7,2.2,1,3.3,0.9c-0.1,1.9-0.3,11.6-0.3,13.1"/>
		</g>
		<g>
			<path fill="#B4649B" d="M368.6,76.4c0.2-0.3,0.3-0.6,0.2-0.9c0-0.3-0.2-0.6-0.5-0.8c-0.2-0.2-0.6-0.2-0.7-0.5
				c-0.2,0.2-0.4,0.3-0.7,0.5c-0.2,0.1-0.4,0.3-0.6,0.5c-0.3,0.3-0.4,0.8-0.2,1.2c0.1,0.2,0.3,0.4,0.5,0.5c0.3,0.1,0.6,0.2,0.9,0.1
				C368,77,368.4,76.8,368.6,76.4z"/>
		</g>
	</g>
	<g>
		<g>
			<path fill="#1E7846" d="M244.7,83c-0.4,0.7-1,1.3-1.8,1.6c-0.2,0.1-0.3,0.1-0.4,0.3c-0.1,0.1-0.1,0.2-0.1,0.3
				c-0.7,5-0.9,10.1-0.7,15.1c-0.9,0-1,0-1.9,0c0.2-5.2,0.3-10.4,1.4-15.5c0-0.1,0-0.2,0-0.3c0-0.1-0.1-0.2-0.2-0.3
				c-0.5-0.6-0.8-1.4-0.8-2.2c0.8-0.3,0.9-0.6,1.6-0.9c0.1-0.1,0.3-0.1,0.4-0.1c0.2,0,0.3,0.1,0.4,0.2c0.6,0.4,1.1,0.9,1.7,1.3
				L244.7,83z"/>
		</g>
		<g>
			<path fill="#C88228" d="M242,84.1c1.1-0.1,2.3-0.4,3.3-0.9c1-0.5,2-1.3,2.5-2.3c0.2-0.5,0.4-1.2,0-1.6c-0.4-0.4-1.1-0.3-1.6,0
				c-0.5,0.3-1.1,0.7-1.6,0.8c0-0.2,0.1-0.5,0.2-0.7c0.2-0.6,0.4-1.3,0.1-1.9c-0.4-0.8-1.5-1.1-2.3-0.8c-0.8,0.3-1.3,0.9-1.6,1.7
				c-0.1,0.2-0.1,0.4-0.3,0.4c-0.3,0-0.7-0.4-0.9-0.5c-0.2-0.1-0.4-0.2-0.7-0.2c-1.4-0.1-0.9,2.3-0.5,3c0.6,1,1.1,1.4,2.1,2.2
				L242,84.1z"/>
		</g>
		<g>
			<path fill="#C8AA32" d="M242.1,84.1c0,0,0.1,0,0.1,0c0.3,0,0.7-0.1,1-0.2c0.3-0.1,0.6-0.1,0.8-0.3c0.3-0.2,0.5-0.4,0.8-0.7
				c0.1-0.1,0.2-0.3,0.3-0.4c0.2-0.3,0.2-0.6,0.2-0.9c0-0.4-0.1-0.7-0.2-1c-0.2-0.3-0.5-0.5-0.8-0.6c-0.7-0.1-1.4,0.7-2.1,0.5
				c-0.6-0.1-1-0.9-1.6-0.9c-0.3,0-0.6,0.1-0.8,0.4c-0.2,0.2-0.3,0.5-0.4,0.8c-0.1,0.3-0.1,0.6,0,0.9c0.2,0.5,0.6,0.9,1,1.2
				c0.2,0.1,0.3,0.3,0.5,0.4c0.1,0.1,0.2,0.1,0.2,0.2c0.1,0,0.1,0.1,0.2,0.1c0.1,0,0.2,0.1,0.3,0.1C241.8,84,242,84.1,242.1,84.1z"
				/>
		</g>
	</g>
	<g>
		<g>
			<path fill="#1E7846" d="M15.5,72.2c0.5,0.8,1.2,1.4,2,1.7c0.2,0.1,0.4,0.1,0.5,0.3c0.1,0.1,0.1,0.2,0.1,0.3
				c0.8,5.5,1.2,11,1.1,16.5c0.9,0,1.1,0,2.1-0.1c-0.3-5.7-0.6-11.4-1.9-16.9c0-0.1-0.1-0.2,0-0.3c0-0.1,0.1-0.2,0.2-0.3
				c0.6-0.7,0.9-1.6,0.8-2.5c-0.8-0.3-0.9-0.7-1.8-1c-0.1-0.1-0.3-0.1-0.4-0.1c-0.2,0-0.3,0.1-0.5,0.3c-0.6,0.5-1.2,1-1.8,1.5
				L15.5,72.2z"/>
		</g>
		<g>
			<path fill="#C88228" d="M18.5,73.4c-1.3-0.1-2.5-0.3-3.7-0.9s-2.2-1.3-2.8-2.5c-0.3-0.6-0.4-1.3,0-1.7c0.4-0.5,1.2-0.4,1.8-0.1
				c0.6,0.3,1.2,0.7,1.8,0.9c0-0.2-0.1-0.5-0.2-0.8c-0.3-0.7-0.5-1.4-0.2-2.1c0.4-0.9,1.6-1.2,2.5-0.9c0.8,0.3,1.5,1,1.8,1.8
				c0.1,0.2,0.1,0.4,0.3,0.5c0.3,0,0.7-0.4,1-0.6c0.2-0.1,0.5-0.2,0.7-0.2c1.5-0.1,1,2.5,0.6,3.2c-0.6,1.1-1.2,1.6-2.3,2.5
				L18.5,73.4z"/>
		</g>
		<g>
			<path fill="#C8AA32" d="M18.3,73.4c0,0-0.1,0-0.1,0c-0.4,0-0.8-0.1-1.1-0.2c-0.3-0.1-0.6-0.1-0.9-0.3c-0.3-0.2-0.6-0.4-0.9-0.7
				c-0.1-0.1-0.3-0.3-0.4-0.4c-0.2-0.3-0.2-0.6-0.2-1c0-0.4,0.1-0.8,0.2-1.1s0.5-0.6,0.9-0.7c0.8-0.1,1.6,0.7,2.4,0.5
				c0.7-0.1,1.1-1,1.8-1c0.3,0,0.6,0.1,0.9,0.4s0.3,0.6,0.4,0.9c0.1,0.3,0.1,0.7,0,1c-0.2,0.6-0.6,1-1,1.4c-0.2,0.2-0.3,0.3-0.5,0.5
				c-0.1,0.1-0.2,0.1-0.3,0.2c-0.1,0-0.1,0.1-0.2,0.2c-0.1,0.1-0.2,0.1-0.3,0.2C18.7,73.3,18.5,73.4,18.3,73.4z"/>
		</g>
	</g>
	<g>
		<path fill="#1E1E1E" d="M381.7,36.3c-0.7,0.3-1.5,0.6-2.2,0.9c-2,0.8-4.1,1.7-7,2.8c-2.3,0.9-8,2.9-10.5,3.4c0,0-0.9-0.3-2.1-0.7
			c-1.5-0.5-1.9-0.8-3.3-1.6c-0.5-0.3-1.1-0.6-1.6-1c0,0-0.1-1.6-0.1-2.1c0-1.1,0-2,0.1-2.7c0.5-2.2,1.4-3.4,1.1-5.6
			c-0.1-0.5-0.2-1.2-0.6-1.5c-0.4-0.3-1.1-0.1-1.5,0c-0.3,0.1-0.4,0.1-0.6,0.4c-1.1,1.7-1.1,3.9-1.4,5.8c-0.3,1.7-0.6,3.5-0.7,5.2
			c-0.9,0.2-1.8,0.3-2.8,0.4c-1,0.1-1.9,0.2-3,0.3c-1,0.1-2.2,0.1-2.2,0.1c-0.5-0.4-1-0.7-1.5-1.3c-1-1.1-5.2-4.9-6.3-6.1
			c-0.4-0.4-1.2-1.3-1.6-1.8c-0.3-0.4-0.7-0.9-1.2-1.1c-0.6-0.2-2-0.1-2.4-0.1c-0.1-0.8-0.2-1.3-0.3-1.8c-0.3-1.8-1-3.6-1.5-5.3
			c-0.5-1.6-1.3-3.1-2.1-4.6c-0.5-0.9-1.5-2.1-2.5-2.2c-0.1,1.4,0.8,2.6,1.2,3.9c0.5,1.5,1.1,3.1,1.5,4.6c0.3,1,0.4,2,0.5,3.1
			c0,0.4,0.1,0.7,0.2,1.2c0.1,0.5,0,1,0,1.6c-1.1,0.3-2.2,0.2-3.3,0.3c-0.5,0-1,0.1-1.6,0.2c-0.4,0-0.8,0.1-1.2,0.1
			c-0.5-0.1-0.9-0.5-1.3-0.7c-0.6-0.3-1.1-0.7-1.7-1.1c-1.2-0.9-2.2-1.7-3.2-2.9c-0.4-0.5-0.9-0.9-1.3-1.5c-0.3-0.4-0.7-0.9-1.1-1.3
			c-0.4-0.6-0.9-1.2-1.3-1.8c-0.2-0.3-0.3-0.6-0.5-0.9c-0.5-1-0.9-2.2-1.3-3.3c-0.2-0.6-0.4-1.2-0.7-1.7c-0.1-0.2-0.2-0.6-0.4-0.7
			c-0.1,0-0.3,0-0.4,0c-0.5-0.1-0.8-0.2-1.2,0.1c-0.5,0.4-0.5,1-0.4,1.5c0.2,1.1,0.7,2,1.2,3c0.2,0.5,0.3,0.7,0.7,1.6
			c0.2,0.4,0.3,0.8,0.5,1.1c0.3,0.5,0.3,0.5,0.5,1c-0.8,0-1.8-0.1-2.5-0.3c-0.8-0.2-1.7-0.3-2.5-0.4c-0.6-0.1-1.2-0.2-1.8-0.4
			c-0.7-0.2-1.5-0.3-2.1-0.6c-0.2-0.1-2.3-0.6-2.3-0.3c0,0.4,0.6,0.7,0.8,0.9c0.4,0.4,0.9,0.7,1.3,0.9c1.1,0.6,2.4,1.1,3.6,1.4
			c2.1,0.5,4.6,1.2,6.7,1.3c0.4,0,0.4,0.1,0.7,0.4c0.5,0.6,0.7,1,0.9,1.2c0.3,0.4,0.6,0.7,1.2,1.3c0.4,0.3,0.8,0.7,1.2,1
			c0.4,0.4,0.8,0.7,1.2,1c-1.2,0.3-2.3,0.5-3.5,0.6c-1,0.1-2.1,0.3-3.1,0.4c-0.4,0-0.9,0.1-1.3,0.2c-0.5,0-1,0-1.5,0.2
			c-0.4,0.1-1.2,0.3-0.5,0.7c0.3,0.2,0.8,0.3,1.2,0.4c0.5,0.1,1,0.3,1.5,0.4c0.6,0.1,1.3,0.3,1.9,0.1c0-0.2,2.3,0.1,2.7,0
			c0.7-0.1,1.5-0.2,2.2-0.3c0.8-0.1,1.6-0.3,2.3-0.3c0.5-0.1,1.3-0.3,1.7,0c0.4,0.4,0.9,0.6,1.4,0.9c0.4,0.2,0.9,0.4,1.3,0.7
			c0.5,0.3,1.1,0.2,1.7,0.2c0.9,0,1.9-0.1,2.8-0.2c0.6,0,1.1-0.1,1.7-0.1c0.4,0,0.6-0.1,1.1-0.1c0.3,0,1.5-0.1,1.8-0.1
			c0,0,1.3,1.1,2.1,2c0.5,0.6,4,4.1,4,4.1c-0.4,0.6-1,1.4-1.5,1.9c-0.8,0.7-1.4,1.5-2.3,2.1c-0.7,0.5-2.9,1.9-2.3,2.9
			c1.2-0.3,2.2,0,3.3-0.6c1-0.5,1.9-1.2,2.8-1.9c0.6-0.4,1.1-0.9,1.7-1.3c0.4-0.3,0.8-0.6,1.3-0.9c0.3,0.2,0.6,0.5,0.9,0.7
			c0.3,0.2,0.4,0.2,0.6,0.4c0.8,0.5,1.5,1.2,2.5,1.2c0.5,0,0.9,0,1.4,0c0.9,0,1.9-0.1,2.8-0.2c0.6-0.1,1.2-0.1,1.8-0.1
			c0.3,0,0.5-0.1,0.8,0c0.3,0,0.4,0.2,0.7,0.3c0,0,0.1,0,0.1,0c0.1,0,0.2,0.1,0.2,0.1c1.4,0.7,2.8,1.4,4.2,2.1
			c1.3,0.7,2.6,1.4,4.1,1.6c1.1,0.1,2.3-0.1,3.4-0.2c3.4-0.3,6.6-1.2,10-1.9c0.9-0.2,1.7-0.4,2.6-0.6c1.2-0.3,2.5-0.6,3.7-0.9
			c0.6-0.2,1.3-0.3,2-0.6V36.3z"/>
	</g>
	<g>
		<path fill="#1E1E1E" d="M293.2,10.7c0,0.1,0,0.2,0,0.3c0,0.3,0.1,1.4-0.1,1.6c-0.2,0.2-1.1,0.1-1.4,0.1c-0.5,0.1-0.9,0.3-1.4,0.4
			c-1.3,0.5-1.9,2.1-1.8,3.5c0,1.4,0.9,2.6,2,3.4c1,0.7,2.5,1.4,3.7,1.4c0,0,0.1,2.3,0.1,2.6c0.1,0.8,0.3,1.7,0.8,2.4
			c1.1,1.6,3,1.4,4.5,0.9c1.2-0.4,2.1-1.3,2.9-2.3c0.5-0.7,0.9-1.4,1.2-2.2c0.2-0.5,0.3-1.4,0.6-1.8c0.4-0.5,1.7-0.6,2.3-0.8
			c0.8-0.2,1.5-0.6,2.2-0.9c1.5-0.6,2.8-1.3,3.7-2.8c1-1.7,1.5-3.5,0-5.3c-0.5-0.6-1.4-0.9-2.1-1.3c-0.9-0.6-1.8-0.6-2.9-0.7
			c-0.1-0.9-0.3-1.7-0.7-2.5c-0.7-1.5-1.8-2-3.4-1.7c-1.7,0.3-2.2,1.8-3.4,2.8c-1.1-0.7-2.3-1.2-3.6-0.9c-1.1,0.3-2.3,0.7-2.8,1.9
			C293.4,9.5,293.3,10.1,293.2,10.7z"/>
	</g>
	<g>
		<path fill="#1E1E1E" d="M294.2,32.5c-0.4,0.2-0.8,0.5-1.1,0.8c-0.9,0.9-0.6,2.7,0.1,3.6c0.3,0.4,0.5,0.7,0.8,1
			c0.8,0.8,1.7,1.4,2.8,1.9c0.5,0.2,0.5,0.5,0.3,1c-0.2,0.5-0.4,1.1-0.5,1.6c-0.1,0.7,0,1.3,0,2c0.1,1.3,0.9,2.6,2.1,3.3
			c1.2,0.8,2.8,1,4.3,0.7c2.4-0.4,3.9-1.9,4.8-4c0.4-0.8,0.3-1.5,1-1.9c1-0.7,2.1-0.9,3-1.8c1.5-1.5,1.8-2.8,1.7-4.9
			c-0.1-1.1-0.4-2.4-1.3-3.1c-0.5-0.4-1.2-0.5-1.8-0.6c-0.2,0-2.2,0.3-2.1,0.4c-0.4-0.9-0.7-2.2-1.5-2.9c-0.9-0.8-2.1-0.9-3.2-0.9
			c-1.1,0-1.9,0.6-2.5,1.5c-0.4,0.6-0.8,1.3-0.9,2.1c-0.5-0.2-1.1-0.2-1.6-0.3c-0.5-0.1-1.1-0.1-1.6-0.1
			C295.9,31.9,295,32.1,294.2,32.5z"/>
	</g>
	<g>
		<path fill="#1E1E1E" d="M318.7,15c-0.3,0.1-0.5,0.3-0.8,0.5c-1.4,1.1-2.6,3.1-2,4.9c0.6,1.8,2,2.4,3.7,2.8
			c0.1,1.5-0.3,2.9,0.4,4.3c0.4,0.9,1.4,1.1,2.4,1.2c1.3,0.2,2.5-0.3,3.5-1c0.7-0.4,1.5-1.2,1.8-2c0.8,0.8,2.3,0.9,3.4,0.9
			c2.1,0,4-0.9,4.8-3c0.4-1,0.3-2-0.1-2.9c-0.3-0.8-0.9-1-1.4-1.7c0.9-1.2,1.1-3.6,0.4-4.9c-0.7-1.2-1.9-2.1-3.2-2.5
			c-2.3-0.7-4.9,0.2-6.5,1.9c-0.3,0.4-0.7,0.6-1.1,1C322.4,14.2,320.3,14.2,318.7,15z"/>
	</g>
	<g>
		<path fill="#1E1E1E" d="M322.8,41.8c-0.9-0.2-1.9-0.1-2.7,0.3c-0.5,0.2-0.9,0.5-1.3,0.8c-0.5,0.4-0.8,1-1.1,1.5
			c-0.5,1.3-0.2,2.9,0.4,4.1c0.7,1.4,1.5,2.4,2.9,3.2c0.9,0.5,2,0.7,2.9,1.2c0.1,0.1-0.2,2.5-0.2,2.9c0,0.9,0.1,1.7,0.5,2.5
			c0.7,1.6,2.1,3,3.8,3.6c1.7,0.6,4.3,0.9,6,0.1c1.3-0.6,2.8-1.4,3.5-2.8c0.4-0.8,0.4-1.7,0.3-2.5c-0.1-0.8-0.5-1.2,0.4-1.3
			c1.3-0.1,2.5-0.3,3.3-1.4c0.9-1.1,1.2-2.5,0.9-3.9c-0.4-1.7-1.8-3.2-3.5-3.7c-0.7-0.2-1.4-0.3-2.1-0.3c-0.8,0-1.6,0.1-2.3,0.1
			c0.1-0.5,0.2-1.1,0.1-1.6c-0.1-0.6-0.2-1.2-0.5-1.8c-0.5-1.1-1.2-2.1-2.2-2.8c-1.2-0.8-2.8-1.2-4-0.2c-0.9,0.8-1.4,1.8-1.6,2.9
			C325,42.4,323.9,42,322.8,41.8z"/>
	</g>
	<g>
		<path fill="#1E1E1E" d="M358.6,26.5c-1.1-1.6-3.8-2.1-5.9-1.3c-2.9,1.1-2.8,3.1-3.5,5.2c-3.4-0.2-4.9,3.1-3.3,5.2
			c2.5,3.2,8.2,1.9,10-1.4c1.9,0.2,4.3,0.5,6.1,0c2.2-0.6,3-2.9,2-4.8c-0.9-1.9-2.7-2.4-5.1-2C358.9,27.1,358.8,26.8,358.6,26.5z"/>
	</g>
	<g>
		<path fill="#323232" d="M306.2,38.8c-0.2,0-0.5,0-0.7,0.2c-0.3,0.2-0.3,0.6-0.2,0.9c0.1,0.3,0.4,0.4,0.7,0.4
			c0.2,0,0.7-0.2,0.8-0.1c0,0.1-0.1,0.6-0.1,0.7c0.1,0.5,0.5,0.8,1,0.7c0.4,0,0.6-0.3,0.8-0.7c0.1-0.2,0-0.6,0.1-0.7
			c0.5,0.2,1.1,0.2,1.4-0.2c0.5-0.8-0.2-1.6-1-1.4c0.3-0.1,0.6-0.3,0.7-0.6c0.1-0.2,0.2-0.5,0.1-0.8c-0.1-0.2-0.4-0.4-0.7-0.5
			c-0.2,0-0.5,0-0.7,0.1c-0.3,0.2-0.5,0.4-0.6,0.8c-0.3-0.2-0.4-0.5-0.8-0.7c-0.3-0.2-0.7-0.2-1-0.1c-0.3,0.1-0.6,0.5-0.5,0.9
			c0.1,0.5,0.4,0.8,0.8,1C306.3,38.8,306.3,38.8,306.2,38.8z"/>
	</g>
	<g>
		<path fill="#A0A0A0" d="M324.8,116.8c0.8,0.3,1.6,0.7,2.7,0.3c2.2-0.8,4.5-2,6-3.8c2.8-3.7,5.3-11,6.2-16.9
			c0.8-5.1,0.4-11.8,6.6-14c2.6-0.9,4,0,5.8,1.4c1.3,1,3.8,0.1,4-1.9c0.3-3.2-2.7-6.3-5.5-7.1c-5.5-1.5-11.2,0.6-14.3,4.8
			c-3.7,5.2-3.8,12.7-5.5,18.7c-0.9,3.2-3.6,14.3-6.7,13.6c-0.3-1.3-0.2-2.6-0.5-3.9c-0.3-1.3-0.7-2.6-1-4c-0.7-3.1-1.4-6.2-2.1-9.4
			c-2.1-9.6-4.8-20.1-12.8-25.8l-30.6,0.8c-4.3,4.1-7.2,9.5-9.1,15.2c-1.9,5.7-2.8,11.6-3.8,17.5c-0.6,3.5-1.1,7-0.6,10.5
			c0,0.1,2.2,0.1,2.3,0.1c9,0.4,18,0.9,27,1.3c5.4,0.3,10.9,0.5,16.3,0.8c4.8,0.2,9.5,0.3,14.2,1.2
			C324,116.4,324.4,116.6,324.8,116.8z"/>
	</g>
	<g>
		<path fill="#E6E6E6" d="M279.9,108.8c-0.3-2.1-0.4-4.2-0.5-6.2c-0.1-2.2-0.1-4.4,0.2-6.6c0.5-4.2,1.8-8.3,4.7-11.4
			c1.9-2,4.3-3.6,6.9-4.3c4.2-1.1,8.1,0.1,11.3,3c5,4.5,6.9,11.1,7,17.7c0.1,4.5-0.8,9.1-2.9,13.1c-0.6,1.2-1.3,2.4-2,3.5
			c-0.7,1-1.6,1.2-2.8,1.2c-3.4,0.1-6.7-0.2-10.1-0.4c-2-0.1-5.3,0.5-7.2-0.5c-1.8-1-3-3.2-3.7-5.1
			C280.4,111.7,280.1,110.3,279.9,108.8z"/>
	</g>
	<g>
		<path fill="#B4B4B4" d="M305.3,31.8c-0.5-0.4-0.3-1.2-0.2-1.7c0.3-1.4,0.6-2.9,1.3-4.1c0.5-0.9,1.2-1.7,2-2.4
			c0.9-0.7,2-1.2,3.2-1.5c1.1-0.3,2.3-0.3,3.4,0c0.8,0.2,1.6,0.5,2.3,1c3.2,2.3,3.8,7.5,1.7,10.7c-0.8,1.2-2,2.3-3.3,3
			c-1.1,0.7-2.8,1.7-3.9,0.7C309.7,35.6,307.5,33.7,305.3,31.8z"/>
	</g>
	<g>
		<path fill="#B4B4B4" d="M279.9,30.9c0.5-0.4,0.3-1.2,0.2-1.7c-0.3-1.4-0.6-2.9-1.3-4.1c-0.5-0.9-1.2-1.7-2-2.4
			c-0.9-0.7-2-1.2-3.2-1.5c-1.1-0.3-2.3-0.3-3.4,0c-0.8,0.2-1.6,0.5-2.3,1c-3.2,2.3-3.8,7.5-1.7,10.7c0.8,1.2,2,2.3,3.3,3
			c1.1,0.7,2.8,1.7,3.9,0.7C275.5,34.6,277.7,32.8,279.9,30.9z"/>
	</g>
	<g>
		<path fill="#282828" d="M308.1,30.2c-0.5-3.8,2.9-7.2,6.7-6.1c2.4,0.6,4,3,3.7,5.4c-0.2,1.8-1.3,3.6-3,4.2c1-2.1,1.3-5.5-1.1-6.6
			c-1.3-0.6-2.8-0.3-4,0.6C309.4,28.4,308.8,29.2,308.1,30.2L308.1,30.2z"/>
	</g>
	<g>
		<path fill="#282828" d="M272.1,33.9c-2,0-4.1-1.5-4.8-3.3c-1.3-2.8,0.3-6.5,3.3-7.4c2.8-0.9,6.1,1,6.7,3.8c0.2,1,0.2,1.9,0,2.9
			c-0.3-0.9-0.6-1.7-1.2-2.3c-0.6-0.6-1.2-1-1.8-1.3c-2.7-1.2-4.8,0.8-4.6,3.5c0,0.8,0.3,1.4,0.7,2.1
			C270.8,32.7,271.3,33.4,272.1,33.9L272.1,33.9z"/>
	</g>
	<g>
		<defs>
			<path id="SVGID_1_" d="M324.8,116.8c0.8,0.3,1.6,0.7,2.7,0.3c2.2-0.8,4.5-2,6-3.8c2.8-3.7,5.3-11,6.2-16.9
				c0.8-5.1,0.4-11.8,6.6-14c2.6-0.9,4,0,5.8,1.4c1.3,1,3.8,0.1,4-1.9c0.3-3.2-2.7-6.3-5.5-7.1c-5.5-1.5-11.2,0.6-14.3,4.8
				c-3.7,5.2-3.8,12.7-5.5,18.7c-0.9,3.2-3.6,14.3-6.7,13.6c-0.3-1.3-0.2-2.6-0.5-3.9c-0.3-1.3-0.7-2.6-1-4
				c-0.7-3.1-1.4-6.2-2.1-9.4c-2.1-9.6-4.8-20.1-12.8-25.8l-30.6,0.8c-4.3,4.1-7.2,9.5-9.1,15.2c-1.9,5.7-2.8,11.6-3.8,17.5
				c-0.6,3.5-1.1,7-0.6,10.5c0,0.1,2.2,0.1,2.3,0.1c9,0.4,18,0.9,27,1.3c5.4,0.3,10.9,0.5,16.3,0.8c4.8,0.2,9.5,0.3,14.2,1.2
				C324,116.4,324.4,116.6,324.8,116.8z"/>
		</defs>
		<clipPath id="SVGID_00000119099699855013677980000005177969097254774167_">
			<use xlink:href="#SVGID_1_"  overflow="visible"/>
		</clipPath>
		<g clip-path="url(#SVGID_00000119099699855013677980000005177969097254774167_)">
			<path fill="#282828" d="M319.9,64.8c0.4,2.1-0.2,4.3-1,6.2c-2.7,5.8-8.9,9.8-15.2,10c1.8-1.2,3.5-2.2,5.1-3.3
				C313.5,74.4,317.7,70.2,319.9,64.8L319.9,64.8z"/>
		</g>
		<g clip-path="url(#SVGID_00000119099699855013677980000005177969097254774167_)">
			<path fill="#282828" d="M283,80.1c-2.1,0.3-4.3-0.3-6.2-1.2c-5.7-2.9-9.5-9.2-9.5-15.6c1.1,1.8,2,3.5,3.1,5.2
				C273.6,73.4,277.6,77.7,283,80.1L283,80.1z"/>
		</g>
		<g clip-path="url(#SVGID_00000119099699855013677980000005177969097254774167_)">
			<path fill="#282828" d="M279,87.1c-1.1,0.4-2.2,0.4-3.4,0.4c-5.8-0.3-11-4.1-14-8.9c-1.2-1.9-2.1-4.1-2.5-6.3
				c2.8,3.3,5.4,6.6,8.7,9.2C271.1,84.1,274.8,86.2,279,87.1L279,87.1z"/>
		</g>
		<g clip-path="url(#SVGID_00000119099699855013677980000005177969097254774167_)">
			<path fill="#282828" d="M275.7,92.2c-0.9,0.7-2,1.1-3.1,1.4c-5.6,1.5-11.7-0.5-16.1-4.2c-1.7-1.5-3.2-3.2-4.3-5.2
				c3.7,2.3,7.1,4.6,11.2,6C267.3,91.8,271.4,92.6,275.7,92.2L275.7,92.2z"/>
		</g>
		<g clip-path="url(#SVGID_00000119099699855013677980000005177969097254774167_)">
			<path fill="#282828" d="M326.6,74.8c0.1,2-0.7,4-1.9,5.7c-2.9,4.2-8,6.6-13.1,6.5c-1,0-2-0.1-2.9-0.4c1.9-0.7,3.6-1.3,5.3-2
				C319.1,82.6,323.7,79.5,326.6,74.8L326.6,74.8z"/>
		</g>
		<g clip-path="url(#SVGID_00000119099699855013677980000005177969097254774167_)">
			<path fill="#282828" d="M332,82.8c-0.3,2.1-1.4,4.1-2.8,5.7c-4.2,4.8-11.3,6.9-17.5,5.2c2-0.6,3.9-1.1,5.8-1.7
				C323.1,90.2,328.3,87.4,332,82.8L332,82.8z"/>
		</g>
		<g clip-path="url(#SVGID_00000119099699855013677980000005177969097254774167_)">
			<path fill="#282828" d="M334,82.2c1.3-1.9,4-2.3,6.1-1.2c2.1,1.1,3.1,3.6,2.3,5.8c-1.5-1.2-2.4-2.2-3.8-2.9
				C337.1,83,335.8,82.7,334,82.2L334,82.2z"/>
		</g>
		<g clip-path="url(#SVGID_00000119099699855013677980000005177969097254774167_)">
			<path fill="#282828" d="M331.7,90.7c0.9-2.1,3.2-3.1,5.5-2.7c2.3,0.4,4.1,2.8,3.4,5.1c-1.5-1.1-2.5-1.8-4-2.1
				C335,90.7,333.5,90.8,331.7,90.7L331.7,90.7z"/>
		</g>
		<g clip-path="url(#SVGID_00000119099699855013677980000005177969097254774167_)">
			<path fill="#282828" d="M330,98.7c-0.1-1.1,1.1-1.9,2-2.3c1.9-0.8,4.1-0.6,5.9,0.6c0.8,0.6,1.7,1.5,1.6,2.6
				c-1.5-0.9-3.1-0.9-4.7-1.1c-0.8-0.1-1.6-0.1-2.3-0.2C331.6,98.4,330.8,98.3,330,98.7L330,98.7z"/>
		</g>
		<g clip-path="url(#SVGID_00000119099699855013677980000005177969097254774167_)">
			<path fill="#282828" d="M340.4,76c1.2-1.5,3.7-1.7,5.4-0.6c3,2,2.6,6.6-0.5,8.3c-0.2-1.7-0.1-3.7-0.9-5.1
				C343.4,77.1,342.3,76.6,340.4,76L340.4,76z"/>
		</g>
		<g clip-path="url(#SVGID_00000119099699855013677980000005177969097254774167_)">
			<path fill="#282828" d="M351.5,74.8c1.1,0.1,2,0.9,2.5,1.9c1.7,3.4-1.5,7.2-5.1,6c1.3-1.2,2.5-2,3-3.5
				C352.4,77.9,352.2,76.2,351.5,74.8L351.5,74.8z"/>
		</g>
	</g>
	<g>
		<path fill="#B4B4B4" d="M318,68.5c-0.2,0.1-0.4,0.4-0.5,0.5c-0.6,0.6-1.6,1.6-2.3,2.2c-1.6,1.2-2.7,1.9-4.6,2.6
			c-5.8,2-12.1,2.1-18.2,2.1c-3.5,0-7.1-0.2-10.5-1c-4-0.9-8-2.4-11.5-4.7c-1.4-1-3-2-4.1-3.2c-2.7-2.9-2.1-2.1-2.7-1
			c-0.1,0.1-0.3,0.1-0.3,0c-0.5-1.3-0.3-3.4-0.5-5c-0.3,0.3-0.8,1-1,1.2c-0.3,0.4-0.4-0.5-0.4-1.1c0-1.4,0.4-2.5,0.5-4.2
			c-0.5,0.4-1.5,1.4-1.4,0.8c0.1-1,1.2-3.2,1.3-4.8c-1.2,0.8-2,1.4-1.5,0.1c0.2-0.7,1.7-3.5,2.2-5.3c0.6-2,1.4-4,2.5-5.8
			c2-3.6,4.7-6.8,7.7-9.7c1.9-1.8,4.1-3.4,6.5-4.3c3.6-1.4,7.8-1.9,11.6-2c4.4-0.2,9-0.1,13.3,1.3c4.1,1.3,7.6,4,10.5,7.2
			c1.5,1.6,2.8,3.4,4,5.2c1.5,2.3,2.9,4.8,3.9,7.4c0.5,1.3,0.8,2.7,1.1,4.1c0.3,1.4,0.4,3,0.6,4.5c0.1,0.5,0.2,2.7-0.2,2.4
			c-0.3-0.3-0.6-0.7-0.8-1c-0.2,1.9-0.1,2.7,0,3.8c0,0.3,0,2.5-0.4,1.8c-0.2-0.4-0.6-0.9-0.9-1c-0.5,1.8-0.3,2.4-0.5,3.5
			c0,0.3-0.2,1.6-0.5,0.9c-0.2-0.4-0.5-1.4-0.9-1.4c0,0.8-0.2,1.7-0.3,2.1c-0.1,0.4-0.6,3.2-0.9,2.5c-0.1-0.2-0.2-0.4-0.3-0.5
			C318.2,68.4,318.1,68.4,318,68.5z"/>
	</g>
	<g>
		<path fill="#282828" d="M285.6,28.9c4.1-2.3,10.4-2.5,14.6-0.2c-2.5,0.5-4.8,0.6-7.3,0.7C290.4,29.4,288,29.4,285.6,28.9
			L285.6,28.9z"/>
	</g>
	<g>
		<path fill="#282828" d="M286.4,32.1c3.6-1.6,9.2-1.7,12.9-0.3C295.7,33.4,290.1,33.5,286.4,32.1L286.4,32.1z"/>
	</g>
	<g>
		<path fill="#282828" d="M314.6,43.2c1.9,0.9,3.3,2.6,4.3,4.5c2.5,4.7,1.9,10.9-1.5,15.1c-0.7,0.8-1.4,1.5-2.3,2.1
			c0.7-1.9,1.4-3.6,1.9-5.5C318.4,53.9,317.6,48,314.6,43.2L314.6,43.2z"/>
	</g>
	<g>
		<path fill="#282828" d="M311.4,47.2c1.3,0.6,2.3,1.9,2.9,3.1c1.6,3.3,1.1,7.7-1.5,10.3c-0.5,0.5-1.1,1-1.7,1.3
			c0.6-1.2,1.2-2.4,1.5-3.7C313.7,54.6,313.3,50.5,311.4,47.2L311.4,47.2z"/>
	</g>
	<g>
		<path fill="#282828" d="M277.1,67.1c-2.1,0.2-4.3-0.8-6-2c-4.4-3.2-6.7-9.1-5.3-14.4c0.3-1,0.7-2,1.2-2.9c0.3,2,0.5,3.9,0.9,5.8
			C269.3,59,272.5,63.9,277.1,67.1L277.1,67.1z"/>
	</g>
	<g>
		<path fill="#282828" d="M279,62.7c-1.4,0-2.7-0.8-3.8-1.7c-3.1-2.9-4-8-1.7-11.6c0.2,1.4,0.3,2.6,0.5,3.8
			C274.7,56.8,276.2,60.3,279,62.7L279,62.7z"/>
	</g>
	<g>
		<path fill="#282828" d="M284.3,36.9c4.8-2.6,13.2-3,18.2-0.6c-3.1,0.6-6,0.8-9.1,0.9C290.4,37.4,287.4,37.4,284.3,36.9L284.3,36.9
			z"/>
	</g>
	<g>
		<defs>
			<path id="SVGID_00000037665612426523737220000005880192690014148791_" d="M318.5,68.5c-2,2.3-4.7,4-8,5.2
				c-5.8,2-12.1,2.1-18.2,2.1c-3.5,0-7.1-0.2-10.5-1c-5.6-1.3-11.1-3.6-15.2-7.7c-2.1-2.1-3.8-4.7-4.5-7.6c-0.6-2.8-0.5-5.6-0.3-8.5
				c0.6-7.2,5.8-14.1,10.8-18.9c1.9-1.8,4.1-3.4,6.5-4.3c3.6-1.4,7.8-1.9,11.6-2c4.4-0.2,9-0.1,13.3,1.3c4.1,1.3,7.6,4,10.5,7.2
				c1.5,1.6,2.8,3.4,4,5.2c2.9,4.4,5.2,9.2,5.3,14.5C323.9,58.1,321,65.7,318.5,68.5z"/>
		</defs>
		<clipPath id="SVGID_00000119795959621070728040000002943345161227361201_">
			<use xlink:href="#SVGID_00000037665612426523737220000005880192690014148791_"  overflow="visible"/>
		</clipPath>
		<g clip-path="url(#SVGID_00000119795959621070728040000002943345161227361201_)">
			<g>
				<path fill="#282828" d="M294.7,36c-1-5-0.4-10.9,0.2-12.4c0.5-1.2-5.1-1.3-4.7-0.1c1.5,4.1,1.9,7.7,1.8,12.6
					c0,1.2,2.8,1.4,2.7,0.2L294.7,36z"/>
			</g>
		</g>
	</g>
	<g>
		<path fill="#282828" d="M288.8,48.2c-0.5,0.4-1.3,0.3-1.8-0.1c-0.5-0.4-0.7-1-0.4-1.5c0.2-0.3,0.5-0.5,0.8-0.6
			c0.5-0.1,1-0.1,1.4,0.2c0.7,0.4,0.6,1.4,0.1,1.9C288.9,48.1,288.9,48.2,288.8,48.2z"/>
	</g>
	<g>
		<path fill="#282828" d="M299.6,47.9c-0.1,0-0.2,0-0.2,0c-0.4,0-0.9-0.3-1.1-0.7c-0.2-0.3-0.2-0.8,0-1.2c0.6-1.1,2.9-0.4,2.6,0.9
			C300.7,47.5,300.2,47.8,299.6,47.9z"/>
	</g>
	<g>
		<path fill="#282828" d="M298.3,44.6c1.1-2.1,4.2-2.2,5.9-0.9c0,0,0,0.1,0,0.1c-1.4,0-3.1,0-4.5,0.4
			C299.2,44.3,298.8,44.4,298.3,44.6L298.3,44.6L298.3,44.6z"/>
	</g>
	<g>
		<path fill="#282828" d="M289.6,44.8c-0.9,0-1.6,0-2.4,0c-0.8,0-1.5,0-2.3-0.1c-0.5-0.1-1.1-0.1-1.7-0.3l0-0.1
			c1-0.4,2.2-0.5,3.3-0.5C287.6,43.8,288.7,44.1,289.6,44.8C289.6,44.7,289.6,44.8,289.6,44.8L289.6,44.8z"/>
	</g>
	<g>
		<path fill="#282828" d="M289.2,62.9c0.2,0.9,0.3,1.6,0.5,2.4c0,0.2,0.3,0.8,0.4,0.9c0.2,0.2,0.5-0.5,0.5-0.7
			c0.1-0.5,0.2-0.8,0.4-1.4c0.1-0.4,0.3-0.8,0.4-1.3c0-0.2,0.1-0.5-0.1-0.7c-0.2-0.1-0.6,0.1-0.8,0.2
			C290,62.6,289.6,62.8,289.2,62.9z"/>
	</g>
	<g>
		<path fill="#282828" d="M298,62.4c0.1,0.9,0.2,1.6,0.4,2.4c0,0.2,0.2,0.8,0.3,0.9c0.2,0.2,0.5-0.5,0.6-0.6
			c0.2-0.5,0.3-0.8,0.5-1.4c0.2-0.4,0.3-0.8,0.4-1.2c0-0.2,0.2-0.5,0-0.7c-0.2-0.1-0.6,0.1-0.8,0.2C298.9,62.1,298.5,62.2,298,62.4z
			"/>
	</g>
	<g>
		<path fill="#E6E6E6" d="M290.2,53.4c-2,0.5-3.8,1.5-5,3.1c-1.2,1.5-1.5,3.7-0.5,5.3c1.3,2.1,4.4,2.6,6.6,2c1.1-0.3,2.2-1,3-1.6
			c1.4,0.8,1.8,1,3.2,1.3c1.4,0.3,3.8,0.2,5-0.7c1.1-0.8,1.6-2.4,1.5-3.8c-0.2-1.8-1.4-3.4-3-4.5c-1.9-1.2-4.4-1.7-6.7-1.7
			C293,52.9,291.6,53.1,290.2,53.4z"/>
	</g>
	<g>
		<path fill="#282828" d="M289.2,51.8c0.3-0.4,0.9-0.6,1.4-0.7c1.3-0.3,2.8-0.3,4.1-0.3c1.2,0,2.6,0,3.5,0.8c0.6,0.5,0.4,1.4,0,2.1
			c-0.5,0.9-1.1,1.8-1.8,2.6c-0.4,0.5-1,1-1.6,1.2c-1,0.3-2.1-0.2-2.9-0.8c-0.9-0.6-1.5-1.4-2.1-2.2c-0.5-0.6-1.2-1.5-0.8-2.3
			C289.1,51.9,289.1,51.9,289.2,51.8z"/>
	</g>
	<g>
		<path fill="#282828" d="M300.2,55.7c1.4-0.8,2.9-1.3,4.4-1.7c1.5-0.5,3.1-0.7,4.7-0.3c0,0,0,0.1,0,0.1c-1.5,0.4-3,0.6-4.5,0.8
			C303.1,54.9,301.6,55.2,300.2,55.7L300.2,55.7L300.2,55.7z"/>
	</g>
	<g>
		<path fill="#282828" d="M301.4,58.6c1.3-0.2,3.2-0.5,4.6-0.7c1.5-0.2,3.1-0.4,4.6,0c0,0,0,0.1,0,0.1c-1.5,0.5-3,0.6-4.6,0.6
			C304.9,58.6,302.5,58.6,301.4,58.6L301.4,58.6L301.4,58.6z"/>
	</g>
	<g>
		<path fill="#282828" d="M301.3,61.5c1.4,0.4,2.9,0.8,4.4,1c1.5,0.2,2.9,0.4,4.4,0.9c0,0,0,0.1,0,0.1c-1.5,0.3-3.1,0.1-4.5-0.4
			C304.1,62.7,302.7,62.2,301.3,61.5L301.3,61.5L301.3,61.5z"/>
	</g>
	<g>
		<path fill="#282828" d="M286.7,57c-1.6-0.7-3.3-1.3-5-1.8c-1.7-0.4-3.4-0.8-5.1-1.4c0,0,0-0.1,0-0.1c1.8-0.2,3.6,0.3,5.3,0.9
			C283.5,55.2,285.2,56,286.7,57L286.7,57L286.7,57z"/>
	</g>
	<g>
		<path fill="#282828" d="M286.7,59.7c-1.5,0.2-2.9,0.6-4.4,0.9c-1.5,0.4-2.9,0.8-4.5,0.7l0-0.1c1.4-0.7,2.8-1,4.4-1.2
			C283.7,59.8,285.2,59.6,286.7,59.7L286.7,59.7L286.7,59.7z"/>
	</g>
	<g>
		<path fill="#282828" d="M287.9,62.3c-1.2,1.1-2.6,2-4,2.8c-0.7,0.4-1.4,0.9-2.1,1.2c-0.7,0.3-1.5,0.6-2.3,0.8l0-0.1
			c0.9-0.8,1.9-1.5,3.1-2c1-0.5,2.2-1,3.2-1.6C286.5,63.1,287.2,62.7,287.9,62.3L287.9,62.3L287.9,62.3z"/>
	</g>
	<g>
		<defs>
			<path id="SVGID_00000162330458121109485920000006583800686687740033_" d="M374.3,120.9H7.4c-4.1,0-7.4-3.3-7.4-7.4V7.4
				C0,3.3,3.3,0,7.4,0h366.9c4.1,0,7.4,3.3,7.4,7.4v106.1C381.7,117.6,378.4,120.9,374.3,120.9z"/>
		</defs>
		<clipPath id="SVGID_00000153665674050312693620000017539538678528208314_">
			<use xlink:href="#SVGID_00000162330458121109485920000006583800686687740033_"  overflow="visible"/>
		</clipPath>
		<g clip-path="url(#SVGID_00000153665674050312693620000017539538678528208314_)">
			<path fill="#282828" d="M-8.3,99.7c-0.1-1.5-0.1-3.1,0.1-4.5c5.2-2.3,9.9-5.4,15.6-6.9c17.1-4.3,32.5,1.4,48.9,6.3
				c4.3,1.3,8.5,2.8,12.7,4.3c25.2,9.1,51.3,10.6,77.9,7.2c10.3-1.3,20.4-3.8,30.4-6.5c9.3-2.5,17.3-6,27.1-6.4
				c10.4-0.5,20.8,1.5,30.9,3.7c11.9,2.6,23.7,6.1,35.7,8.2c16.3,2.9,36.7,1.9,52.9-1.7c19.6-4.3,28.1-6,44.9-5.4
				c11.4,0.4,17.9,1.7,26.8,1.7c8.9,0,18.1-1.4,25.5-6.7v27.8c-2,0-4,0-6,0c-8.3,0-16.7,0-25,0c-13.4,0-26.9,0-40.3,0
				c-17,0-34,0-51,0c-19,0-38,0-57,0c-19.5,0-39,0-58.4,0c-18.4,0-36.8,0-55.2,0c-15.8,0-31.6,0-47.4,0c-11.7,0-23.4,0-35,0
				c-1.2,0-52.6,0.4-52.7-0.2c-0.5-4.6-0.7-9.2-0.7-13.7C-8.1,104.6-8.3,102.1-8.3,99.7z"/>
		</g>
	</g>
	<g>
		<path fill="#464646" d="M263.1,104.7c0,0.8-0.1,1.5-0.1,2.2c0,0.2,0,0.8,0.1,0.9c0.1,0.2,0.5-0.3,0.6-0.5c0.2-0.4,0.4-0.7,0.7-1.1
			c0.2-0.3,0.4-0.7,0.6-1c0.1-0.2,0.2-0.4,0.1-0.6c-0.1-0.1-0.6,0-0.8,0C263.9,104.6,263.5,104.6,263.1,104.7z"/>
	</g>
	<g>
		<path fill="#464646" d="M267.5,105.9c0,0.8-0.1,1.5-0.1,2.2c0,0.2,0,0.8,0.1,0.9c0.1,0.2,0.5-0.3,0.6-0.5c0.2-0.4,0.4-0.7,0.7-1.1
			c0.2-0.3,0.4-0.7,0.6-1c0.1-0.2,0.2-0.4,0.1-0.6c-0.1-0.1-0.6,0-0.8,0C268.3,105.8,267.9,105.9,267.5,105.9z"/>
	</g>
	<g>
		<path fill="#464646" d="M320.3,106.6c0.3,0.7,0.6,1.3,0.8,2c0.1,0.2,0.4,0.7,0.5,0.7c0.2,0.1,0.3-0.5,0.4-0.7
			c0.1-0.4,0.1-0.8,0.1-1.3c0-0.4,0.1-0.8,0.1-1.2c0-0.2,0-0.5-0.2-0.6c-0.2-0.1-0.5,0.2-0.7,0.3C321,106.1,320.6,106.3,320.3,106.6
			z"/>
	</g>
	<g>
		<path fill="#464646" d="M324.6,104.7c0.4,0.7,0.7,1.3,1.1,1.9c0.1,0.2,0.4,0.6,0.6,0.7c0.2,0.1,0.3-0.6,0.3-0.7c0-0.4,0-0.8,0-1.3
			c0-0.4,0-0.8-0.1-1.2c0-0.2,0-0.5-0.3-0.5c-0.2,0-0.5,0.3-0.6,0.4C325.2,104.2,324.9,104.4,324.6,104.7z"/>
	</g>
	<g>
		<path fill="#464646" d="M314.2,106.7c0,0.8,0,1.5,0.1,2.2c0,0.2,0.1,0.8,0.2,0.9c0.1,0.2,0.5-0.4,0.6-0.5c0.2-0.4,0.3-0.7,0.6-1.2
			c0.2-0.3,0.4-0.7,0.5-1.1c0.1-0.2,0.2-0.5,0-0.6c-0.2-0.1-0.6,0-0.8,0.1C315,106.5,314.6,106.6,314.2,106.7z"/>
	</g>
	<g>
		<path fill="#464646" d="M272.2,105.9c0.1,0.8,0.2,1.4,0.3,2.2c0,0.2,0.2,0.7,0.3,0.8c0.2,0.2,0.5-0.4,0.5-0.6
			c0.2-0.4,0.3-0.7,0.5-1.2c0.1-0.4,0.3-0.7,0.4-1.1c0-0.2,0.2-0.5,0-0.6c-0.2-0.1-0.6,0.1-0.8,0.1
			C273,105.6,272.6,105.8,272.2,105.9z"/>
	</g>
	<g>
		<path fill="#B4B4B4" d="M268.1,107.4c-0.8-0.1-1.6-0.6-1.9-1.4c-0.3,0.2-0.7,0.4-1.1,0.5c-0.9,0.2-2-0.1-2.6-0.8
			c-1.6-2-1.9-4.7,0.2-6.5c0.5-0.4,1.1-0.8,1.8-1c3.3-1.3,7.4-0.9,10.1,1.4c0.6,0.5,1.1,1.1,1.5,1.8c0.7,1.5,0.3,2.8-0.4,4.2
			c-0.3,0.6-0.5,1-1.2,1.4c-0.6,0.3-1.2,0.4-1.8,0.4c-0.3,0-0.6,0-0.9-0.1c-0.4-0.1-0.7-0.5-1.1-0.6c-0.3-0.1-1,0.5-1.4,0.6
			C268.9,107.4,268.5,107.4,268.1,107.4z"/>
	</g>
	<g>
		<path fill="#B4B4B4" d="M319.2,107.5c-0.4-0.2-0.7-0.4-1-0.7c-0.8,0.8-2,1.3-3.2,1.2c-3-0.5-4.7-3.8-3.1-6.5
			c0.4-0.6,0.8-1.1,1.4-1.5c2.7-2.3,6.7-3.3,10.1-1.9c1.5,0.6,2.6,1.8,3.3,3.3c1,2.1,0.4,5.3-2.6,4.4
			C322.8,107.4,320.9,108.3,319.2,107.5z"/>
	</g>
	<g>
		<defs>
			<path id="SVGID_00000116218588830572293890000008258531936367512194_" d="M268.1,107.4c-0.8-0.1-1.6-0.6-1.9-1.4
				c-0.3,0.2-0.7,0.4-1.1,0.5c-0.9,0.2-2-0.1-2.6-0.8c-1.6-2-1.9-4.7,0.2-6.5c0.5-0.4,1.1-0.8,1.8-1c3.3-1.3,7.4-0.9,10.1,1.4
				c0.6,0.5,1.1,1.1,1.5,1.8c0.7,1.5,0.3,2.8-0.4,4.2c-0.3,0.6-0.5,1-1.2,1.4c-0.6,0.3-1.2,0.4-1.8,0.4c-0.3,0-0.6,0-0.9-0.1
				c-0.4-0.1-0.7-0.5-1.1-0.6c-0.3-0.1-1,0.5-1.4,0.6C268.9,107.4,268.5,107.4,268.1,107.4z"/>
		</defs>
		<clipPath id="SVGID_00000064341606653152974410000006373936349956830387_">
			<use xlink:href="#SVGID_00000116218588830572293890000008258531936367512194_"  overflow="visible"/>
		</clipPath>
		<g clip-path="url(#SVGID_00000064341606653152974410000006373936349956830387_)">
			<path fill="#282828" d="M266.8,103.6c-0.3,1.3-0.5,3.1-0.6,4.5c-0.1,0.7-0.1,1.5-0.3,2.2c-0.2,0.7-0.5,1.4-1,2.1l-0.1,0
				c-0.3-1.2-0.3-2.3,0.1-3.4c0.3-1,0.6-2.2,1-3.3c0.3-0.7,0.5-1.4,0.8-2.1L266.8,103.6L266.8,103.6z"/>
		</g>
		<g clip-path="url(#SVGID_00000064341606653152974410000006373936349956830387_)">
			<path fill="#282828" d="M271.1,104.5c-0.2,1.3-0.2,3.2-0.3,4.5c0,0.7,0,1.5-0.1,2.2c-0.2,0.7-0.4,1.5-0.8,2.2l-0.1,0
				c-0.4-1.2-0.4-2.3-0.2-3.4c0.3-1.1,0.5-2.3,0.7-3.3c0.2-0.7,0.4-1.5,0.7-2.2L271.1,104.5L271.1,104.5z"/>
		</g>
	</g>
	<g>
		<defs>
			<path id="SVGID_00000047773413391516219550000008618361056034906781_" d="M319.2,107.5c-0.4-0.2-0.7-0.4-1-0.7
				c-0.8,0.8-2,1.3-3.2,1.2c-3-0.5-4.7-3.8-3.1-6.5c0.4-0.6,0.8-1.1,1.4-1.5c2.7-2.3,6.7-3.3,10.1-1.9c1.5,0.6,2.6,1.8,3.3,3.3
				c1,2.1,0.4,5.3-2.6,4.4C322.8,107.4,320.9,108.3,319.2,107.5z"/>
		</defs>
		<clipPath id="SVGID_00000052079816393804883470000009406755389207819455_">
			<use xlink:href="#SVGID_00000047773413391516219550000008618361056034906781_"  overflow="visible"/>
		</clipPath>
		<g clip-path="url(#SVGID_00000052079816393804883470000009406755389207819455_)">
			<path fill="#282828" d="M317.6,104.1c0.3,1.3,0.8,3.1,1.2,4.3c0.2,0.7,0.5,1.4,0.6,2.2c0.1,0.7,0.1,1.5,0,2.3l-0.1,0
				c-0.7-1-1.2-2-1.3-3.2c-0.1-1.1-0.3-2.3-0.4-3.4c-0.1-0.8-0.1-1.5-0.1-2.3L317.6,104.1L317.6,104.1z"/>
		</g>
		<g clip-path="url(#SVGID_00000052079816393804883470000009406755389207819455_)">
			<path fill="#282828" d="M323,103.2c0.6,1.2,1.6,2.8,2.2,3.9c0.4,0.6,0.9,1.2,1.1,1.9c0.3,0.7,0.5,1.4,0.5,2.3l-0.1,0.1
				c-0.9-0.8-1.6-1.7-2-2.8c-0.4-1-0.9-2.2-1.2-3.2c-0.2-0.7-0.5-1.4-0.6-2.2L323,103.2L323,103.2z"/>
		</g>
	</g>
	<g>
		<path fill="#A0A0A0" d="M131.4,18.6c0.1,0.4,0.4,0.7,0.7,1c0.4,0.3,0.8,0.6,1.4,0.7c2,0.1,4.4,0.1,6.7,0.2
			c5.7,0.1,11.5,0.1,17.3,0c1.7,0,5.2-0.1,7,0c0.5,0,1.2,0,1.7,0c0.7,0,0.6-0.3,0-0.4c-1-0.3-2.2-0.2-3.3-0.2c-0.4,0-0.8,0-1.2,0
			c-0.4,0-0.9,0-1.3-0.1c-0.2,0-0.3-0.1-0.5-0.1c-0.3-0.1-0.5-0.2-0.8-0.3c-0.2-0.1-0.4-0.2-0.5-0.3c-0.3-0.3-0.6-0.5-0.9-0.8
			c-1.1-0.9-2.3-1.4-3.7-1.2c-0.6,0.1-1.1,0.2-1.6,0.4c-0.4,0.2-0.8,0.5-1.1,0.8c-0.5,0.4-1,0.7-1.6,0.8c-0.4,0-0.7,0-1.1-0.1
			c-0.6-0.2-1.2-0.4-1.8-0.7c-0.8-0.5-1.1-1.4-1.6-2.2c-0.5-0.7-1.2-1.2-2.1-1.4c-1-0.2-2.1,0.1-3,0.5c-0.4,0.2-0.7,0.4-1.1,0.7
			c-0.4,0.3-0.9,1-1.5,1c-0.6,0-1.1-0.5-1.7-0.8c-0.8-0.4-1.8-0.6-2.6-0.3c-1,0.3-1.7,1.2-1.9,2.2C131.3,18,131.3,18.3,131.4,18.6z"
			/>
	</g>
	<g>
		<path fill="#A0A0A0" d="M161.2,15.5c0.1,0.5,0.3,0.9,0.7,1.1c0.6,0.4,1.4,0.5,2.1,0.5c0.9,0,1.8,0,2.6,0c1.3,0,2.6,0,3.9,0
			c1,0,2.1,0,3.1,0c1.8,0,5.3-0.1,7,0c0.5,0,1.2,0,1.7,0c0.7,0,0.6-0.3,0-0.5c-1-0.3-2.2-0.2-3.3-0.2c-0.4,0-0.8,0-1.3,0
			c-0.4,0-0.7-0.1-1.1-0.2c-0.4-0.1-0.8-0.2-1.1-0.3c-0.7-0.3-1.3-0.8-1.9-1.3c-1-0.9-2.4-1.4-3.7-1.3c-1.5,0.1-2.7,1.1-4.1,1.1
			c-0.4,0-0.9,0-1.3-0.2c-0.4-0.1-0.8-0.3-1.2-0.4c-0.2,0-0.4-0.1-0.6,0C162,13.9,161.1,14.6,161.2,15.5z"/>
	</g>
	<g>
		<path fill="#A0A0A0" d="M183,82.9c-0.7,0.1-1.5,0.1-2.2,0.2c-0.3,0-0.5,0.1-0.8,0.1c-0.2,0-1.3,0.2-0.9,0.6
			c0.1,0.1,0.3,0.2,0.5,0.2c0.3,0,0.5,0,0.8,0c0.3,0,0.5,0,0.8,0c0.6,0,1.2,0,1.7,0.1c1.2,0,2.3,0.1,3.5,0.1c1.7,0,3.4,0,5.2,0.1
			c5.4,0.1,10.8,0,16.1-0.1c1.6,0,4.9-0.1,6.5,0c0.5,0,1.1,0,1.6,0c0.7,0,0.6-0.3,0-0.4c-1-0.3-2.1-0.2-3-0.2c-0.4,0-0.7,0-1.2,0
			c-0.4,0-0.6-0.1-1-0.2c-0.3-0.1-0.7-0.2-1-0.3c-0.7-0.2-1.2-0.8-1.7-1.2c-1.7-1.6-4-1.4-6-0.3c-0.3,0.2-0.6,0.3-0.9,0.4
			c-0.5,0.1-1.1,0.1-1.6-0.1c-0.6-0.1-1.1-0.4-1.6-0.7c-0.9-0.7-1.4-1.6-2.4-2.2c-0.5-0.3-1.1-0.5-1.8-0.6c-0.3,0-0.5,0-0.8,0.1
			c-0.5,0.1-1,0.4-1.5,0.7c-0.9,0.6-1.7,1.4-2.5,2.1c-0.4,0.3-0.9,0.7-1.3,0.9C186.1,82.7,184.4,82.7,183,82.9z"/>
	</g>
	<g>
		<path fill="#A0A0A0" d="M253.7,36.2c0,0.1-0.1,0.2-0.2,0.3c-0.3,0.4-1,1-1.7,1c-1.8,0.1-3.9,0.1-6.1,0.2
			c-5.2,0.1-10.3,0.1-15.5,0.1c-1.6,0-4.7,0-6.2,0c-0.5,0-1,0-1.5,0c-0.6,0-0.5-0.2,0-0.4c0.9-0.3,2-0.2,2.9-0.2
			c1-0.1,1.9,0,2.9-0.1c0.5,0,0.9-0.1,1.3-0.3c0.5-0.3,0.7-0.6,1-1.1c0.2-0.3,0.3-0.5,0.5-0.8c1-1.3,2.7-1.5,4-0.7
			c0.5,0.3,0.9,0.8,1.4,1.2c0.6,0.5,1.4,0.7,2.1,0.6c0.4,0,0.7-0.2,1.1-0.4c0.3-0.2,0.6-0.5,0.8-0.7c0.6-0.6,1.1-1.2,1.6-1.8
			c0.7-0.8,1.6-1.3,2.7-1.3c0.3,0,0.6,0.1,0.9,0.2c0.4,0.1,0.7,0.3,1,0.5c0.1,0.1,0.3,0.3,0.4,0.4c0.1,0.1,0.2,0.3,0.3,0.4
			c0.1,0.1,0.1,0.2,0.2,0.3c0,0,0.6-0.2,0.6-0.2c0.2-0.1,0.4-0.1,0.6-0.2c0.1,0,0.3-0.1,0.4-0.1c0.3-0.1,0.6-0.1,0.9-0.1
			c0.3,0,0.5,0,0.8,0c0.3,0,0.6,0.1,0.9,0.2c0.4,0.1,0.8,0.3,1.1,0.6c0.2,0.2,0.5,0.5,0.6,0.7C253.8,35,253.9,35.6,253.7,36.2z"/>
	</g>
	<g>
		<g>
			<path fill="#E63232" d="M359.9,95.3c0.2,0.1,0.3,0.2,0.5,0.3c0.2,0.2,0.4,0.4,0.5,0.6c0.1,0.2,0.3,0.3,0.4,0.5
				c0.6,0.9,0.5,2.9-0.2,3.7c1.1,0.6,2.5,1.6,2.7,2.8c0.2,1.3-0.4,2.7-1.4,3.4c-1.1,0.7-3.2,0.3-4.1-0.6c0.1,0.1-0.5,0.9-0.6,1
				c-0.1,0.2-0.3,0.4-0.5,0.5c-0.4,0.3-0.8,0.6-1.3,0.7c-0.9,0.3-2,0.3-2.8-0.1c-1.6-0.8-2.3-3.1-1.5-4.7c-1-0.2-1.8-0.8-2.4-1.5
				c-0.7-0.7-1.1-1.9-0.5-2.8c0.8-1.2,1.9-1.5,3.2-1.3c0.1,0,0.2,0,0.4,0c0.2-0.1,0.3-0.3,0.5-0.5c0.1-0.1,0.2-0.3,0.3-0.4
				c1.1-1.7,2.8-3,4.9-2.3c0.7,0.2,1.3,0.4,1.9,0.8C359.8,95.2,359.8,95.2,359.9,95.3z"/>
		</g>
		<g>
			<path fill="#505C7D" d="M354.1,102.8c-0.3-0.3-0.6-0.6-0.8-1c-0.4-0.8,0-1.9,0.6-2.5c0.5-0.5,1.2-0.9,1.9-0.9
				c1,0,1.8,0.8,2.4,1.5c0.4,0.6,0.6,1.2,0.5,1.9c-0.1,0.8-0.6,1.4-1.3,1.7c-0.7,0.4-1.6,0.3-2.3,0
				C354.8,103.3,354.4,103.1,354.1,102.8z"/>
		</g>
		<g>
			<g>
				<path fill="#BE0A0A" d="M361.3,105c-0.5-0.3-0.9-0.6-1.4-1c-0.2-0.1-0.5-0.1-0.6,0.1c-0.1,0.2-0.1,0.5,0.1,0.6
					c0.5,0.3,0.9,0.6,1.4,1c0.2,0.1,0.5,0.1,0.6-0.1C361.5,105.4,361.5,105.1,361.3,105L361.3,105z"/>
			</g>
		</g>
		<g>
			<g>
				<path fill="#BE0A0A" d="M361.9,103.1c-0.5-0.2-1-0.3-1.4-0.5c-0.1,0-0.2,0-0.3,0c-0.1,0-0.2,0.1-0.2,0.2c-0.1,0.2,0,0.5,0.2,0.6
					c0.5,0.2,1,0.3,1.4,0.5c0.2,0.1,0.5,0,0.6-0.2C362.2,103.5,362.1,103.2,361.9,103.1L361.9,103.1z"/>
			</g>
		</g>
		<g>
			<g>
				<path fill="#BE0A0A" d="M359.4,98.7c0.3-0.2,0.6-0.4,0.9-0.7c0.1-0.1,0.2-0.2,0.2-0.3c0-0.1,0-0.2-0.1-0.3
					c-0.1-0.1-0.2-0.2-0.3-0.2c-0.1,0-0.2,0-0.3,0.1c-0.3,0.2-0.6,0.5-0.9,0.7c-0.2,0.1-0.2,0.4-0.1,0.6
					C358.9,98.8,359.2,98.9,359.4,98.7L359.4,98.7z"/>
			</g>
		</g>
		<g>
			<g>
				<path fill="#BE0A0A" d="M358.2,97.7c0.2-0.4,0.4-0.8,0.6-1.1c0,0,0,0.1-0.1,0.1c0,0,0-0.1,0.1-0.1c0.1-0.1,0.1-0.2,0.1-0.3
					c0-0.1-0.1-0.2-0.2-0.3c-0.1-0.1-0.2-0.1-0.3-0.1c-0.1,0-0.2,0.1-0.3,0.2c-0.3,0.4-0.5,0.9-0.7,1.3c-0.1,0.2,0,0.5,0.2,0.6
					C357.8,98.1,358.1,98,358.2,97.7L358.2,97.7z"/>
			</g>
		</g>
		<g>
			<g>
				<path fill="#BE0A0A" d="M356.7,97c0-0.2,0-0.4,0-0.5c0,0,0,0.1,0,0.1c0-0.1,0-0.2,0-0.3c0-0.1,0-0.2-0.1-0.3
					c-0.1-0.1-0.2-0.2-0.3-0.2c-0.1,0-0.2,0-0.3,0.1c-0.1,0.1-0.2,0.2-0.2,0.3c0,0.3,0,0.7,0,1c0,0.1,0.1,0.2,0.2,0.3
					c0.1,0.1,0.2,0.1,0.3,0.1c0.1,0,0.2-0.1,0.3-0.2C356.6,97.2,356.7,97.1,356.7,97L356.7,97z"/>
			</g>
		</g>
		<g>
			<g>
				<path fill="#BE0A0A" d="M353.8,106.4c0.2-0.3,0.4-0.6,0.6-0.9c0.1-0.1,0.1-0.2,0.1-0.3c0-0.1-0.1-0.2-0.2-0.3
					c-0.1-0.1-0.2-0.1-0.3-0.1c-0.1,0-0.2,0.1-0.3,0.2c-0.2,0.3-0.4,0.6-0.6,0.9c-0.1,0.1-0.1,0.2-0.1,0.3c0,0.1,0.1,0.2,0.2,0.3
					c0.1,0.1,0.2,0.1,0.3,0.1C353.7,106.6,353.8,106.5,353.8,106.4L353.8,106.4z"/>
			</g>
		</g>
		<g>
			<g>
				<path fill="#BE0A0A" d="M356,106.6c0-0.3,0-0.7-0.1-1c0-0.1-0.1-0.2-0.2-0.3c-0.1-0.1-0.2-0.1-0.3-0.1c-0.1,0-0.2,0.1-0.3,0.2
					c-0.1,0.1-0.1,0.2-0.1,0.3c0,0.3,0,0.7,0.1,1c0,0.1,0.1,0.2,0.2,0.3c0.1,0.1,0.2,0.1,0.3,0.1c0.1,0,0.2-0.1,0.3-0.2
					C356,106.8,356,106.7,356,106.6L356,106.6z"/>
			</g>
		</g>
		<g>
			<g>
				<path fill="#BE0A0A" d="M351.6,100c-0.4-0.1-0.8-0.3-1.2-0.4c-0.1,0-0.2,0-0.3,0c-0.1,0-0.2,0.1-0.2,0.2c-0.1,0.2,0,0.5,0.2,0.6
					c0.4,0.1,0.8,0.3,1.2,0.4c0.1,0,0.2,0,0.3,0c0.1,0,0.2-0.1,0.2-0.2C351.9,100.3,351.8,100,351.6,100L351.6,100z"/>
			</g>
		</g>
		<g>
			<g>
				<path fill="#1E28AA" d="M355.3,102.2c0.5,0.2,0.8-0.6,0.3-0.8C355.1,101.2,354.8,102,355.3,102.2L355.3,102.2z"/>
			</g>
		</g>
		<g>
			<g>
				<path fill="#1E28AA" d="M357.4,101.2C357.4,101.2,357.4,101.2,357.4,101.2c-0.1-0.1-0.1-0.1-0.2-0.1c0,0-0.1-0.1-0.2-0.1
					c-0.1,0-0.1,0-0.2,0c-0.1,0-0.1,0-0.1,0.1c0,0-0.1,0.1-0.1,0.1c0,0.1-0.1,0.1-0.1,0.2c0,0,0,0.1,0,0.1c0,0.1,0,0.1,0.1,0.2
					c0,0,0,0,0,0c0,0,0.1,0.1,0.1,0.1c0,0,0.1,0.1,0.2,0.1c0.1,0,0.1,0,0.2,0c0.1,0,0.1,0,0.1-0.1c0,0,0.1-0.1,0.1-0.1
					c0-0.1,0.1-0.1,0.1-0.2c0,0,0-0.1,0-0.1C357.5,101.4,357.4,101.3,357.4,101.2L357.4,101.2z"/>
			</g>
		</g>
		<g>
			<g>
				<path fill="#1E28AA" d="M355.6,100.6c0.5,0.2,0.8-0.6,0.3-0.8C355.4,99.6,355.1,100.4,355.6,100.6L355.6,100.6z"/>
			</g>
		</g>
	</g>
	<g>
		<g>
			<path fill="#E63232" d="M192.2,103.6c-0.1,0.1-0.2,0.3-0.4,0.4c-0.2,0.2-0.4,0.3-0.6,0.4c-0.2,0.1-0.3,0.2-0.5,0.3
				c-0.9,0.5-2.7,0.2-3.3-0.6c-0.7,1-1.7,2.1-2.9,2.1c-1.2,0-2.4-0.6-2.9-1.7c-0.5-1.1,0.1-2.9,1-3.7c-0.1,0.1-0.8-0.6-0.8-0.6
				c-0.2-0.2-0.3-0.3-0.4-0.5c-0.2-0.4-0.4-0.8-0.5-1.3c-0.2-0.9-0.1-1.8,0.4-2.6c0.9-1.4,3.1-1.8,4.5-0.8c0.2-0.8,0.9-1.6,1.6-2.1
				c0.7-0.5,1.8-0.8,2.6-0.1c1,0.9,1.2,1.9,0.8,3c0,0.1,0,0.2,0,0.3c0,0.2,0.2,0.4,0.4,0.5c0.1,0.1,0.2,0.2,0.4,0.3
				c1.4,1.2,2.4,2.9,1.6,4.7c-0.2,0.6-0.5,1.1-0.9,1.6C192.3,103.5,192.3,103.5,192.2,103.6z"/>
		</g>
		<g>
			<path fill="#505C7D" d="M186,97.4c0.3-0.3,0.6-0.5,1-0.6c0.8-0.3,1.7,0.2,2.2,0.9c0.4,0.5,0.7,1.2,0.6,1.8
				c-0.1,0.9-0.9,1.6-1.7,2c-0.6,0.3-1.1,0.4-1.8,0.3c-0.7-0.2-1.2-0.7-1.4-1.3c-0.3-0.7-0.1-1.5,0.3-2.1
				C185.4,98,185.7,97.7,186,97.4z"/>
		</g>
		<g>
			<g>
				<path fill="#BE0A0A" d="M183.2,103.7c0.3-0.4,0.7-0.8,1-1.2c0.1-0.2,0.2-0.4,0-0.6c-0.2-0.1-0.4-0.2-0.6,0
					c-0.3,0.4-0.7,0.8-1,1.2c-0.1,0.2-0.2,0.4,0,0.6C182.8,103.9,183.1,103.9,183.2,103.7L183.2,103.7z"/>
			</g>
		</g>
		<g>
			<g>
				<path fill="#BE0A0A" d="M184.9,104.5c0.2-0.4,0.4-0.8,0.6-1.3c0-0.1,0.1-0.2,0-0.3c0-0.1-0.1-0.2-0.2-0.2
					c-0.2-0.1-0.4-0.1-0.5,0.1c-0.2,0.4-0.4,0.8-0.6,1.3c-0.1,0.2,0,0.4,0.1,0.5C184.5,104.8,184.8,104.7,184.9,104.5L184.9,104.5z"
					/>
			</g>
		</g>
		<g>
			<g>
				<path fill="#BE0A0A" d="M189.1,102.7c0.2,0.3,0.3,0.6,0.5,0.9c0.1,0.1,0.1,0.2,0.2,0.2c0.1,0,0.2,0,0.3,0
					c0.1-0.1,0.2-0.1,0.2-0.2c0-0.1,0-0.2,0-0.3c-0.2-0.3-0.4-0.6-0.5-0.9c-0.1-0.2-0.4-0.3-0.5-0.1
					C189.1,102.3,189,102.5,189.1,102.7L189.1,102.7z"/>
			</g>
		</g>
		<g>
			<g>
				<path fill="#BE0A0A" d="M190.2,101.7c0.3,0.2,0.6,0.4,1,0.6c0,0-0.1,0-0.1-0.1c0,0,0.1,0.1,0.1,0.1c0.1,0.1,0.2,0.1,0.3,0.1
					c0.1,0,0.2,0,0.3-0.1c0.1-0.1,0.1-0.2,0.1-0.3c0-0.1,0-0.2-0.1-0.3c-0.4-0.3-0.7-0.5-1.1-0.8c-0.2-0.1-0.4,0-0.5,0.1
					C189.9,101.4,190,101.6,190.2,101.7L190.2,101.7z"/>
			</g>
		</g>
		<g>
			<g>
				<path fill="#BE0A0A" d="M191,100.4c0.2,0,0.3,0,0.5,0c0,0-0.1,0-0.1,0c0.1,0,0.2,0,0.3,0.1c0.1,0,0.2,0,0.3,0
					c0.1,0,0.2-0.1,0.2-0.2c0-0.1,0-0.2,0-0.3c-0.1-0.1-0.1-0.2-0.2-0.2c-0.3-0.1-0.6-0.1-0.9-0.1c-0.1,0-0.2,0-0.3,0.1
					c-0.1,0.1-0.1,0.2-0.1,0.3c0,0.1,0,0.2,0.1,0.3C190.8,100.4,190.9,100.4,191,100.4L191,100.4z"/>
			</g>
		</g>
		<g>
			<g>
				<path fill="#BE0A0A" d="M182.7,96.8c0.3,0.2,0.5,0.4,0.8,0.6c0.1,0.1,0.2,0.1,0.3,0.1c0.1,0,0.2,0,0.3-0.1
					c0.1-0.1,0.1-0.2,0.1-0.3c0-0.1,0-0.2-0.1-0.3c-0.3-0.2-0.5-0.4-0.8-0.6c-0.1-0.1-0.2-0.1-0.3-0.1c-0.1,0-0.2,0-0.3,0.1
					c-0.1,0.1-0.1,0.2-0.1,0.3C182.6,96.6,182.7,96.7,182.7,96.8L182.7,96.8z"/>
			</g>
		</g>
		<g>
			<g>
				<path fill="#BE0A0A" d="M182.3,98.8c0.3,0,0.6,0,0.9,0.1c0.1,0,0.2-0.1,0.3-0.1c0.1-0.1,0.1-0.2,0.1-0.3c0-0.1,0-0.2-0.1-0.3
					c-0.1-0.1-0.2-0.1-0.3-0.1c-0.3,0-0.6,0-0.9-0.1c-0.1,0-0.2,0.1-0.3,0.1c-0.1,0.1-0.1,0.2-0.1,0.3c0,0.1,0,0.2,0.1,0.3
					C182.1,98.7,182.2,98.8,182.3,98.8L182.3,98.8z"/>
			</g>
		</g>
		<g>
			<g>
				<path fill="#BE0A0A" d="M188.9,95.4c0.2-0.4,0.3-0.7,0.5-1.1c0-0.1,0.1-0.2,0-0.3c0-0.1-0.1-0.2-0.2-0.2
					c-0.2-0.1-0.4-0.1-0.5,0.1c-0.2,0.4-0.3,0.7-0.5,1.1c0,0.1-0.1,0.2,0,0.3c0,0.1,0.1,0.2,0.2,0.2
					C188.5,95.7,188.8,95.6,188.9,95.4L188.9,95.4z"/>
			</g>
		</g>
		<g>
			<g>
				<path fill="#1E28AA" d="M186.4,98.6c-0.3,0.4,0.4,0.8,0.7,0.4C187.4,98.5,186.7,98.1,186.4,98.6L186.4,98.6z"/>
			</g>
		</g>
		<g>
			<g>
				<path fill="#1E28AA" d="M187.1,100.6C187.1,100.6,187.1,100.6,187.1,100.6c0.1-0.1,0.1-0.1,0.2-0.1c0,0,0.1-0.1,0.1-0.1
					c0-0.1,0-0.1,0-0.2c0-0.1,0-0.1,0-0.1c0,0,0-0.1-0.1-0.1c-0.1-0.1-0.1-0.1-0.2-0.1c0,0-0.1,0-0.1,0c-0.1,0-0.1,0-0.2,0.1
					c0,0,0,0,0,0c0,0-0.1,0.1-0.1,0.1c0,0-0.1,0.1-0.1,0.1c0,0.1,0,0.1,0,0.2c0,0.1,0,0.1,0,0.1c0,0,0,0.1,0.1,0.1
					c0.1,0.1,0.1,0.1,0.2,0.1c0,0,0.1,0,0.1,0C186.9,100.7,187,100.7,187.1,100.6L187.1,100.6z"/>
			</g>
		</g>
		<g>
			<g>
				<path fill="#1E28AA" d="M187.8,99.1c-0.3,0.4,0.4,0.8,0.7,0.4C188.7,99,188.1,98.6,187.8,99.1L187.8,99.1z"/>
			</g>
		</g>
	</g>
	<g>
		<g>
			<path fill="#DCBE96" d="M223.7,92.8c-0.5-0.9-1-1.3-2-1.4c-0.6-0.1-1.4,0.3-1.7,0.8c-0.7,1.1-0.2,2.8,0.8,3.8
				c-0.8-0.3-1.7-0.4-2.3-0.2c-0.3,0.1-0.6,0.4-0.8,0.6c-0.8,1-0.9,2.6-0.1,3.7c0.7,1,1.9,1.7,3.2,1.4c-0.4,0.3-0.9,0.6-1.2,1
				c-0.3,0.4-0.5,0.8-0.4,1.3c0.2,0.9,0.9,2.1,1.9,2.4c0.7,0.2,1.4,0.1,2.1-0.1c0.7-0.2,1.4-0.4,1.9-0.8c0.6-0.5,1-1.2,1.4-1.9
				c0.5,0.7,1.6,1.2,2.4,1.3c0.8,0.2,1.5,0,2.3-0.4c0.6-0.3,1.3-1,1.7-1.5c0.4-0.5,0.5-1.3,0.2-1.8c-0.4-0.6-1.1-0.8-1.8-1
				c0.9-0.5,1.6-1.4,1.7-2.3s-0.3-2.1-1.1-2.6c-0.8-0.5-1.9-0.5-2.8,0.2c0.1-0.9,0.2-1.8-0.2-2.7c-0.3-0.5-0.7-0.9-1.2-1.2
				c-0.4-0.2-0.8-0.4-1.2-0.4c-0.5,0-1,0.3-1.3,0.7c-0.3,0.4-0.8,1.2-1,1.7L223.7,92.8z"/>
		</g>
		<g>
			<g>
				<path fill="#C8AA82" d="M221.8,104.2c0.8-0.2,1.5-0.7,2.1-1.3c0.5-0.5,1.1-1,1-1.8c0-0.2-0.3-0.3-0.4-0.2
					c-0.2,0.1-0.3,0.2-0.2,0.4c0,0.2-0.2,0.4-0.3,0.5c-0.2,0.2-0.4,0.5-0.7,0.7c-0.5,0.4-1,0.8-1.7,1
					C221.2,103.7,221.3,104.3,221.8,104.2L221.8,104.2z"/>
			</g>
		</g>
		<g>
			<g>
				<path fill="#C8AA82" d="M220.3,98.9c0.7,0.3,1.4,0.4,2.1,0.2c0.2,0,0.3-0.3,0.2-0.4c-0.1-0.2-0.2-0.3-0.4-0.2
					c-0.1,0-0.2,0-0.2,0c0,0,0,0,0,0c0,0,0,0-0.1,0c0,0-0.1,0-0.1,0c-0.2,0-0.3,0-0.5,0c0,0,0,0,0,0c0.1,0,0,0,0,0c0,0-0.1,0-0.1,0
					c-0.1,0-0.1,0-0.2,0c-0.1,0-0.1,0-0.2-0.1c0,0,0,0,0,0c0.1,0,0,0,0,0c0,0-0.1,0-0.1-0.1c-0.2-0.1-0.4,0-0.5,0.1
					C220.1,98.6,220.1,98.8,220.3,98.9L220.3,98.9z"/>
			</g>
		</g>
		<g>
			<g>
				<path fill="#C8AA82" d="M222.4,95c0.3,0.4,0.6,0.8,0.9,1.2c0.1,0.1,0.2,0.1,0.3,0.1c0.1,0,0.2,0,0.2-0.1
					c0.1-0.1,0.1-0.2,0.1-0.3c0-0.1-0.1-0.2-0.1-0.3c-0.1-0.1-0.1-0.1-0.2-0.2c0,0,0,0.1,0.1,0.1c-0.2-0.3-0.4-0.6-0.6-0.9
					c-0.1-0.2-0.4-0.3-0.5-0.2C222.3,94.5,222.3,94.8,222.4,95L222.4,95z"/>
			</g>
		</g>
		<g>
			<g>
				<path fill="#C8AA82" d="M226.6,95.9c0.4-0.6,0.6-1.4,0.5-2.2c0-0.1,0-0.2-0.1-0.2c-0.1-0.1-0.2-0.1-0.2-0.1
					c-0.2,0-0.4,0.2-0.3,0.4c0,0.2,0,0.3,0,0.5c0,0,0,0.1,0,0.1c0,0.1,0-0.1,0,0c0,0,0,0,0,0.1c0,0.1,0,0.2,0,0.3
					c0,0.1,0,0.2-0.1,0.2c0,0,0,0,0,0.1c0,0,0,0.1,0,0c0,0,0,0.1-0.1,0.1c-0.1,0.2-0.2,0.3-0.2,0.4c-0.1,0.1,0,0.4,0.1,0.5
					C226.3,96.2,226.4,96.1,226.6,95.9L226.6,95.9z"/>
			</g>
		</g>
		<g>
			<g>
				<path fill="#C8AA82" d="M228.2,98.3c0.8-0.1,1.6-0.3,2.3-0.7c0.2-0.1,0.4-0.3,0.3-0.5c-0.1-0.2-0.3-0.3-0.5-0.1
					c-0.2,0.1-0.4,0.2-0.5,0.2c-0.1,0-0.2,0.1-0.2,0.1c-0.1,0-0.1,0-0.2,0.1c0,0-0.1,0-0.1,0c-0.4,0.1-0.7,0.2-1.1,0.2
					c-0.2,0-0.4,0.3-0.4,0.4C227.8,98.2,228,98.3,228.2,98.3L228.2,98.3z"/>
			</g>
		</g>
		<g>
			<g>
				<path fill="#C8AA82" d="M227.4,100.8c0.6,0.7,1.3,1.2,2.1,1.5c0.2,0.1,0.3-0.1,0.3-0.3c0-0.2-0.2-0.4-0.4-0.5c0,0,0,0,0,0
					c0,0,0,0-0.1,0c0,0-0.1,0-0.1-0.1c-0.1,0-0.2-0.1-0.2-0.1c-0.1,0-0.1-0.1-0.2-0.1c0,0-0.1-0.1-0.1,0c0,0-0.1-0.1-0.1-0.1
					c-0.1-0.1-0.3-0.2-0.4-0.3c0,0-0.1-0.1-0.1-0.1c0,0,0,0-0.1-0.1c0,0,0,0,0,0c-0.1-0.1-0.1-0.1-0.2-0.2c-0.1-0.2-0.4-0.2-0.5-0.1
					C227.3,100.4,227.3,100.7,227.4,100.8L227.4,100.8z"/>
			</g>
		</g>
		<g>
			<path fill="#DCAA3C" d="M224.8,95.8c-0.1,0-0.1,0-0.2,0c-0.3-0.1-0.7-0.1-1,0.1c-0.4,0.2-0.6,0.7-0.5,1.1c0,0.1,0.1,0.3,0,0.4
				c0,0.2-0.2,0.3-0.3,0.4c-0.3,0.3-0.6,0.7-0.6,1.1c0,0.4,0.2,0.9,0.6,1.1c0.1,0.1,0.3,0.1,0.4,0.2c0.1,0.1,0.2,0.3,0.3,0.4
				c0.3,0.5,0.8,0.8,1.4,0.8c0.5,0.1,1.1-0.2,1.5-0.6c0.5,0.3,1.2,0.2,1.6-0.2c0.4-0.4,0.4-1.2,0-1.5c0.4-0.3,0.6-0.8,0.5-1.3
				s-0.4-0.9-0.8-1.2c-0.2-0.1-0.3-0.1-0.5-0.3c-0.1-0.1-0.2-0.2-0.3-0.3c-0.3-0.4-0.8-0.6-1.2-0.6
				C225.3,95.6,225.1,95.8,224.8,95.8z"/>
		</g>
		<g>
			<g>
				<path fill="#B48214" d="M224.1,99.1c0.1-0.1,0.2-0.1,0.3-0.2c0,0,0.1-0.1,0.1-0.1c0,0,0-0.1,0.1-0.1c0,0,0-0.1,0-0.1
					c0,0,0-0.1,0-0.1c0,0,0,0-0.1-0.1c0,0-0.1-0.1-0.2-0.1c0,0-0.1,0-0.1,0c-0.1,0-0.1,0-0.2,0.1c-0.1,0.1-0.2,0.1-0.3,0.2
					c0,0-0.1,0.1-0.1,0.1c0,0,0,0.1-0.1,0.1c0,0,0,0.1,0,0.1c0,0,0,0.1,0,0.1c0,0,0,0,0.1,0.1c0,0,0.1,0.1,0.2,0.1c0,0,0.1,0,0.1,0
					C224,99.1,224.1,99.1,224.1,99.1L224.1,99.1z"/>
			</g>
		</g>
		<g>
			<g>
				<path fill="#B48214" d="M225.6,97.4c0-0.1,0-0.2,0-0.3c0,0,0-0.1,0-0.1c0,0,0-0.1-0.1-0.1c0,0-0.1-0.1-0.1-0.1c0,0-0.1,0-0.1,0
					c0,0-0.1,0-0.1,0c-0.1,0-0.1,0-0.2,0.1c0,0,0,0-0.1,0.1c0,0.1,0,0.1,0,0.2c0,0.1,0,0.2,0,0.3c0,0,0,0.1,0,0.1c0,0,0,0.1,0.1,0.1
					c0,0,0.1,0.1,0.1,0.1c0,0,0.1,0,0.1,0c0,0,0.1,0,0.1,0c0.1,0,0.1,0,0.2-0.1c0,0,0,0,0.1-0.1C225.6,97.5,225.6,97.4,225.6,97.4
					L225.6,97.4z"/>
			</g>
		</g>
		<g>
			<g>
				<path fill="#B48214" d="M225.9,99.8c0-0.1,0-0.1,0-0.2c0,0,0-0.1,0-0.1c0-0.1,0-0.1,0-0.2c0,0,0-0.1,0-0.1c0,0,0-0.1-0.1-0.1
					c0,0-0.1-0.1-0.1-0.1c0,0-0.1,0-0.1,0c0,0-0.1,0-0.1,0c-0.1,0-0.1,0-0.2,0.1c0,0,0,0-0.1,0.1c0,0.1,0,0.1,0,0.2
					c0,0.1,0,0.2,0,0.3c0,0,0-0.1,0-0.1c0,0,0,0.1,0,0.1c0,0,0,0.1,0,0.1c0,0,0,0.1,0,0.1c0,0,0.1,0.1,0.1,0.1c0,0,0.1,0,0.1,0.1
					c0,0,0.1,0,0.1,0c0.1,0,0.1,0,0.2-0.1c0,0,0,0,0.1-0.1C225.8,99.9,225.9,99.8,225.9,99.8L225.9,99.8z"/>
			</g>
		</g>
		<g>
			<g>
				<path fill="#B48214" d="M226.4,98.5c0,0,0.1,0,0.1-0.1C226.5,98.4,226.5,98.5,226.4,98.5c0.1-0.1,0.2-0.1,0.3-0.1
					c0.1,0,0.2-0.1,0.2-0.2c0,0,0-0.1,0-0.1c0,0,0-0.1,0-0.1c0-0.1-0.1-0.2-0.2-0.2c-0.1,0-0.2-0.1-0.3,0c-0.2,0.1-0.3,0.1-0.5,0.2
					c0,0-0.1,0.1-0.1,0.1c0,0,0,0.1-0.1,0.1c0,0,0,0.1,0,0.1c0,0,0,0.1,0,0.1c0,0.1,0.1,0.1,0.2,0.2c0,0,0.1,0,0.1,0
					C226.3,98.5,226.3,98.5,226.4,98.5L226.4,98.5z"/>
			</g>
		</g>
	</g>
	<g>
		<g>
			<path fill="#DCBE96" d="M67.3,104.1c-0.5-0.8-0.9-1.2-1.8-1.3c-0.5-0.1-1.2,0.2-1.5,0.7c-0.7,1-0.2,2.6,0.7,3.4
				c-0.7-0.2-1.5-0.4-2.1-0.1c-0.3,0.1-0.5,0.3-0.7,0.6c-0.8,0.9-0.8,2.4-0.1,3.3c0.7,0.9,1.7,1.5,2.9,1.3c-0.3,0.2-0.8,0.5-1.1,0.9
				c-0.3,0.3-0.4,0.7-0.3,1.2c0.2,0.8,0.8,1.9,1.7,2.2c0.6,0.2,1.3,0.1,1.9-0.1c0.6-0.1,1.2-0.4,1.7-0.8c0.5-0.4,0.9-1.1,1.3-1.7
				c0.4,0.6,1.4,1.1,2.1,1.2c0.8,0.1,1.4,0,2.1-0.3c0.5-0.3,1.2-0.9,1.5-1.3c0.4-0.5,0.5-1.1,0.2-1.6c-0.3-0.6-1-0.7-1.6-0.9
				c0.8-0.4,1.4-1.2,1.5-2.1c0.1-0.9-0.2-1.9-1-2.3c-0.8-0.5-1.7-0.5-2.5,0.2c0.1-0.8,0.2-1.6-0.2-2.4c-0.2-0.4-0.6-0.8-1-1.1
				c-0.3-0.2-0.7-0.4-1.1-0.4c-0.5,0-0.9,0.3-1.2,0.7c-0.3,0.4-0.7,1.1-0.9,1.5L67.3,104.1z"/>
		</g>
		<g>
			<g>
				<path fill="#C8AA82" d="M65.6,114.3c0.7-0.2,1.3-0.6,1.8-1.1c0.4-0.4,1-0.9,0.9-1.6c0-0.2-0.2-0.3-0.4-0.2
					c-0.2,0-0.2,0.2-0.2,0.4c0,0.2-0.2,0.4-0.3,0.5c-0.2,0.2-0.4,0.4-0.6,0.6c-0.4,0.4-0.9,0.7-1.5,0.9
					C65.1,113.8,65.2,114.4,65.6,114.3L65.6,114.3z"/>
			</g>
		</g>
		<g>
			<g>
				<path fill="#C8AA82" d="M64.3,109.5c0.6,0.3,1.2,0.3,1.9,0.2c0.2,0,0.3-0.2,0.2-0.4c-0.1-0.2-0.2-0.3-0.4-0.2
					c-0.1,0-0.1,0-0.2,0c0,0,0,0,0,0c0,0,0,0-0.1,0c0,0-0.1,0-0.1,0c-0.1,0-0.3,0-0.4,0c0,0,0,0,0,0c0.1,0,0,0,0,0c0,0-0.1,0-0.1,0
					c-0.1,0-0.1,0-0.2,0c-0.1,0-0.1,0-0.2-0.1c0,0,0,0,0,0c0.1,0,0,0,0,0c0,0-0.1,0-0.1,0c-0.1-0.1-0.3,0-0.4,0.1
					C64.1,109.3,64.1,109.5,64.3,109.5L64.3,109.5z"/>
			</g>
		</g>
		<g>
			<g>
				<path fill="#C8AA82" d="M66.2,106c0.2,0.4,0.5,0.8,0.8,1.1c0.1,0.1,0.2,0.1,0.2,0.1c0.1,0,0.2,0,0.2-0.1c0-0.1,0.1-0.2,0.1-0.2
					c0-0.1-0.1-0.2-0.1-0.3c-0.1-0.1-0.1-0.1-0.2-0.2c0,0,0,0.1,0.1,0.1c-0.2-0.3-0.4-0.5-0.6-0.8c-0.1-0.2-0.3-0.3-0.5-0.2
					C66.1,105.6,66.1,105.8,66.2,106L66.2,106z"/>
			</g>
		</g>
		<g>
			<g>
				<path fill="#C8AA82" d="M69.9,106.9c0.4-0.6,0.5-1.3,0.5-1.9c0-0.1,0-0.2-0.1-0.2c-0.1-0.1-0.1-0.1-0.2-0.1
					c-0.2,0-0.3,0.1-0.3,0.3c0,0.2,0,0.3,0,0.5c0,0,0,0.1,0,0.1c0,0.1,0,0,0,0c0,0,0,0,0,0.1c0,0.1,0,0.2,0,0.2c0,0.1,0,0.1-0.1,0.2
					c0,0,0,0,0,0.1c0,0,0,0.1,0,0c0,0,0,0.1,0,0.1c-0.1,0.1-0.1,0.3-0.2,0.4c-0.1,0.1,0,0.3,0.1,0.4C69.6,107.1,69.8,107,69.9,106.9
					L69.9,106.9z"/>
			</g>
		</g>
		<g>
			<g>
				<path fill="#C8AA82" d="M71.4,108.9c0.7-0.1,1.4-0.3,2.1-0.6c0.2-0.1,0.3-0.3,0.2-0.4c-0.1-0.1-0.3-0.2-0.5-0.1
					c-0.2,0.1-0.3,0.1-0.5,0.2c-0.1,0-0.1,0.1-0.2,0.1c0,0-0.1,0-0.1,0c0,0-0.1,0,0,0c-0.3,0.1-0.7,0.2-1,0.2
					c-0.2,0-0.4,0.2-0.4,0.4C71,108.9,71.2,109,71.4,108.9L71.4,108.9z"/>
			</g>
		</g>
		<g>
			<g>
				<path fill="#C8AA82" d="M70.7,111.3c0.5,0.6,1.2,1.1,1.9,1.3c0.2,0.1,0.3-0.1,0.3-0.2c0-0.2-0.2-0.3-0.3-0.4c0,0,0,0,0,0
					c0,0,0,0-0.1,0c0,0-0.1,0-0.1,0c-0.1,0-0.1-0.1-0.2-0.1c-0.1,0-0.1-0.1-0.2-0.1c0,0-0.1-0.1-0.1,0c0,0-0.1,0-0.1-0.1
					c-0.1-0.1-0.3-0.2-0.4-0.3c0,0-0.1-0.1-0.1-0.1c0,0,0,0,0,0c0,0,0,0,0,0c-0.1-0.1-0.1-0.1-0.2-0.2c-0.1-0.1-0.3-0.2-0.4-0.1
					C70.5,110.9,70.5,111.1,70.7,111.3L70.7,111.3z"/>
			</g>
		</g>
		<g>
			<path fill="#DCAA3C" d="M68.3,106.8c-0.1,0-0.1,0-0.2,0c-0.3-0.1-0.6-0.1-0.9,0.1c-0.3,0.2-0.5,0.6-0.5,1c0,0.1,0,0.2,0,0.3
				c0,0.1-0.2,0.2-0.3,0.3c-0.3,0.3-0.5,0.6-0.5,1c0,0.4,0.2,0.8,0.5,1c0.1,0.1,0.2,0.1,0.3,0.2c0.1,0.1,0.2,0.3,0.3,0.4
				c0.3,0.4,0.7,0.7,1.2,0.7c0.5,0,1-0.1,1.3-0.5c0.5,0.2,1.1,0.2,1.4-0.2s0.4-1,0-1.4c0.3-0.3,0.5-0.7,0.5-1.2s-0.3-0.8-0.7-1
				c-0.1-0.1-0.3-0.1-0.4-0.2c-0.1-0.1-0.2-0.2-0.2-0.3c-0.2-0.4-0.7-0.6-1.1-0.5C68.8,106.6,68.6,106.8,68.3,106.8z"/>
		</g>
		<g>
			<g>
				<path fill="#B48214" d="M67.7,109.7c0.1,0,0.2-0.1,0.3-0.1c0,0,0.1,0,0.1-0.1c0,0,0-0.1,0.1-0.1c0,0,0-0.1,0-0.1
					c0,0,0-0.1,0-0.1c0,0,0,0-0.1-0.1c0,0-0.1-0.1-0.1-0.1c0,0-0.1,0-0.1,0c-0.1,0-0.1,0-0.2,0c-0.1,0-0.2,0.1-0.3,0.1
					c0,0-0.1,0-0.1,0.1c0,0,0,0.1-0.1,0.1c0,0,0,0.1,0,0.1c0,0,0,0.1,0,0.1c0,0,0,0,0.1,0.1c0,0,0.1,0.1,0.1,0.1c0,0,0.1,0,0.1,0
					C67.6,109.7,67.7,109.7,67.7,109.7L67.7,109.7z"/>
			</g>
		</g>
		<g>
			<g>
				<path fill="#B48214" d="M69.1,108.2c0-0.1,0-0.2,0-0.3c0,0,0-0.1,0-0.1c0,0,0-0.1-0.1-0.1c0,0-0.1,0-0.1-0.1c0,0-0.1,0-0.1,0
					c0,0-0.1,0-0.1,0c-0.1,0-0.1,0-0.1,0.1c0,0,0,0,0,0.1c0,0,0,0.1,0,0.2c0,0.1,0,0.2,0,0.3c0,0,0,0.1,0,0.1c0,0,0,0.1,0.1,0.1
					c0,0,0.1,0,0.1,0.1c0,0,0.1,0,0.1,0c0,0,0.1,0,0.1,0c0.1,0,0.1,0,0.1-0.1c0,0,0,0,0-0.1C69,108.3,69.1,108.2,69.1,108.2
					L69.1,108.2z"/>
			</g>
		</g>
		<g>
			<g>
				<path fill="#B48214" d="M69.3,110.3c0,0,0-0.1,0-0.2c0,0,0-0.1,0-0.1c0-0.1,0-0.1,0-0.2c0,0,0-0.1,0-0.1c0,0,0-0.1-0.1-0.1
					c0,0-0.1,0-0.1-0.1c0,0-0.1,0-0.1,0c0,0-0.1,0-0.1,0c-0.1,0-0.1,0-0.1,0.1c0,0,0,0,0,0.1c0,0,0,0.1,0,0.2c0,0.1,0,0.2,0,0.2
					c0,0,0-0.1,0-0.1c0,0,0,0,0,0.1c0,0,0,0.1,0,0.1c0,0,0,0.1,0,0.1c0,0,0,0.1,0.1,0.1c0,0,0.1,0,0.1,0.1c0,0,0.1,0,0.1,0
					c0.1,0,0.1,0,0.2,0c0,0,0,0,0.1-0.1C69.3,110.4,69.3,110.4,69.3,110.3L69.3,110.3z"/>
			</g>
		</g>
		<g>
			<g>
				<path fill="#B48214" d="M69.8,109.2c0,0,0.1,0,0.1-0.1C69.8,109.1,69.8,109.1,69.8,109.2c0.1-0.1,0.2-0.1,0.3-0.1
					c0.1,0,0.1-0.1,0.2-0.1c0,0,0-0.1,0-0.1c0,0,0-0.1,0-0.1c0-0.1-0.1-0.2-0.1-0.2c-0.1,0-0.2,0-0.2,0c-0.1,0-0.3,0.1-0.4,0.2
					c0,0-0.1,0-0.1,0.1c0,0,0,0.1-0.1,0.1c0,0,0,0.1,0,0.1c0,0,0,0.1,0,0.1c0,0.1,0.1,0.1,0.2,0.1c0,0,0.1,0,0.1,0
					C69.7,109.2,69.7,109.2,69.8,109.2L69.8,109.2z"/>
			</g>
		</g>
	</g>
	<g>
		<g>
			<path fill="#DC96A0" d="M9.1,92.1c-1-0.3-1.5-0.6-1.9-1.4c-0.2-0.5,0-1.2,0.4-1.6c0.9-0.8,2.8-0.7,3.9-0.1
				c-0.4-0.6-0.8-1.4-0.7-1.9c0.1-0.3,0.2-0.6,0.4-0.8c0.8-0.9,2.4-1.2,3.6-0.8C16,86,17,86.9,17.1,88c0.2-0.4,0.4-0.9,0.7-1.2
				c0.3-0.3,0.7-0.6,1.2-0.6c1,0,2.3,0.4,2.8,1.1c0.3,0.5,0.4,1.2,0.4,1.8c0,0.6-0.1,1.2-0.4,1.8c-0.3,0.6-0.9,1.1-1.6,1.6
				c0.8,0.3,1.5,1.1,1.8,1.8c0.3,0.7,0.4,1.3,0.2,2c-0.2,0.5-0.7,1.3-1.1,1.7c-0.4,0.4-1.1,0.7-1.8,0.5c-0.7-0.2-1.1-0.8-1.4-1.4
				c-0.3,0.8-1,1.6-1.9,1.9c-0.9,0.3-2.1,0.2-2.8-0.4c-0.7-0.6-0.9-1.5-0.4-2.4c-0.9,0.2-1.8,0.5-2.7,0.3c-0.5-0.1-1-0.4-1.4-0.8
				c-0.3-0.3-0.6-0.6-0.7-0.9c-0.1-0.4,0.1-0.9,0.4-1.3c0.3-0.4,1-0.9,1.4-1.2L9.1,92.1z"/>
		</g>
		<g>
			<g>
				<path fill="#C8828C" d="M19.2,88.3c0,0.5-0.3,1-0.6,1.5c-0.2,0.2-0.3,0.5-0.5,0.7c-0.1,0.1-0.1,0.2-0.2,0.2
					c-0.1,0.1-0.7,0.4-0.7,0.4c-0.2,0-0.4,0.2-0.4,0.4c0,0.2,0.2,0.4,0.4,0.4c0.8,0,1.8-1.1,2.1-1.6c0.4-0.6,0.8-1.2,0.7-2
					C20,87.8,19.2,87.8,19.2,88.3L19.2,88.3z"/>
			</g>
		</g>
		<g>
			<g>
				<path fill="#C8828C" d="M13.7,88c0.1,0.1,0.2,0.2,0.3,0.3c0,0.1,0.1,0.1,0.1,0.2c0-0.1,0,0,0,0c0,0,0,0.1,0,0.1
					c0,0.1,0.1,0.2,0.1,0.4c0,0,0,0,0,0c0,0,0,0,0,0.1c0,0,0,0.1,0,0.1c0,0.1,0,0.9,0,1c0,0.2,0.2,0.4,0.4,0.4
					c0.2,0,0.4-0.2,0.4-0.4c0-0.6-0.2-2-0.6-2.5c-0.1-0.1-0.1-0.1-0.2-0.2c-0.1,0-0.2,0-0.3,0C13.7,87.6,13.6,87.9,13.7,88L13.7,88z
					"/>
			</g>
		</g>
		<g>
			<g>
				<path fill="#C8828C" d="M10.5,91c0.3,0.1,0.5,0.1,0.7,0.2c-0.1,0-0.1,0-0.2-0.1c0.3,0.1,0.6,0.2,0.9,0.3
					c0.2,0.1,0.3,0.1,0.5,0.1c0.2,0,0.3,0,0.4-0.1c0.1-0.1,0.1-0.2,0.1-0.3c0-0.1-0.1-0.2-0.3-0.2c-0.6-0.2-1.2-0.4-1.8-0.6
					c-0.2,0-0.4,0-0.5,0c-0.1,0-0.3,0.1-0.3,0.2C10,90.7,10.2,90.9,10.5,91L10.5,91z"/>
			</g>
		</g>
		<g>
			<g>
				<path fill="#C8828C" d="M12.5,93.4c-0.1,0-0.1,0.1-0.2,0.1c0,0-0.1,0-0.1,0.1c0,0-0.1,0-0.1,0c0,0,0.1,0,0,0
					c-0.2,0.1-0.3,0.2-0.5,0.2c0,0-0.1,0-0.1,0c-0.1,0,0,0,0,0c0,0,0,0-0.1,0c-0.1,0-0.2,0-0.3,0.1c-0.1,0-0.2,0-0.3,0
					c-0.1,0-0.1,0-0.2,0c-0.1,0,0.1,0,0,0c0,0-0.1,0-0.1,0c-0.3,0-0.5,0.1-0.5,0.3c0,0.2,0.2,0.4,0.5,0.3c1-0.1,1.9-0.3,2.6-0.8
					c0.2-0.1,0.2-0.3,0-0.5C13,93.2,12.7,93.2,12.5,93.4L12.5,93.4z"/>
			</g>
		</g>
		<g>
			<g>
				<path fill="#C8828C" d="M14.9,94.9c0,0.2,0,0.3,0,0.5c0,0,0,0.1,0,0.1c0,0,0,0.2,0,0.1c0,0.1,0,0.1,0,0.2c0,0.3-0.1,0.6-0.2,0.9
					c0,0.1,0,0.2,0,0.3c0,0.1,0.1,0.2,0.2,0.2c0.1,0,0.2,0,0.3,0c0.1-0.1,0.1-0.1,0.2-0.3c0.2-0.6,0.3-1.3,0.3-2
					c0-0.2-0.2-0.4-0.4-0.4C15.1,94.4,14.9,94.6,14.9,94.9L14.9,94.9z"/>
			</g>
		</g>
		<g>
			<g>
				<path fill="#C8828C" d="M17.9,94.2C18,94.2,18,94.3,17.9,94.2C18.1,94.3,18,94.3,17.9,94.2c0.1,0,0.1,0,0.1,0.1
					c0.1,0,0.1,0.1,0.2,0.1c0.1,0,0.1,0.1,0.2,0.1c0,0,0.1,0,0.1,0.1c0.1,0-0.1,0,0,0c0,0,0,0,0,0c0.1,0.1,0.2,0.2,0.3,0.3
					c0,0,0.1,0.1,0.1,0.1c0,0,0,0,0,0c0.1,0.1,0,0,0,0c0,0.1,0.1,0.1,0.1,0.2c0.1,0.2,0.4,0.2,0.6,0.1c0.2-0.1,0.3-0.3,0.1-0.5
					c-0.4-0.6-1-1-1.8-1.2c-0.2-0.1-0.5,0.1-0.5,0.2C17.6,94,17.7,94.2,17.9,94.2L17.9,94.2z"/>
			</g>
		</g>
		<g>
			<path fill="#B4649B" d="M12.3,92.4c0-0.1,0-0.1-0.1-0.2C12,92,12,91.7,12.1,91.4c0.2-0.3,0.5-0.6,1-0.6c0.1,0,0.3,0,0.4-0.1
				c0.1-0.1,0.2-0.2,0.3-0.3c0.2-0.3,0.6-0.6,1-0.7c0.4-0.1,0.9,0,1.2,0.3c0.1,0.1,0.2,0.2,0.3,0.3c0.1,0.1,0.3,0.1,0.5,0.2
				c0.5,0.2,0.9,0.5,1.1,1c0.2,0.5,0.1,1-0.2,1.4c0.4,0.4,0.5,1,0.2,1.4s-1.1,0.6-1.5,0.3c-0.2,0.4-0.7,0.6-1.2,0.7
				c-0.5,0-1-0.1-1.3-0.5c-0.1-0.1-0.2-0.3-0.4-0.4c-0.1-0.1-0.3-0.1-0.4-0.2c-0.5-0.2-0.8-0.5-0.8-0.9
				C12.2,92.9,12.4,92.7,12.3,92.4z"/>
		</g>
		<g>
			<g>
				<path fill="#823269" d="M14.6,91.1c0,0.1-0.1,0.2-0.1,0.3c0,0,0,0.1,0,0.1c0,0,0,0.1,0,0.1c0,0,0.1,0.1,0.1,0.1
					c0,0,0.1,0.1,0.1,0.1c0,0,0.1,0,0.1,0c0.1,0,0.1,0,0.2,0c0,0,0.1,0,0.1-0.1c0.1,0,0.1-0.1,0.1-0.2c0-0.1,0.1-0.2,0.1-0.3
					c0,0,0-0.1,0-0.1c0,0,0-0.1,0-0.1c0,0-0.1-0.1-0.1-0.1c0,0-0.1-0.1-0.1-0.1c0,0-0.1,0-0.1,0c-0.1,0-0.1,0-0.2,0
					c0,0-0.1,0-0.1,0.1C14.7,90.9,14.7,91,14.6,91.1L14.6,91.1z"/>
			</g>
		</g>
		<g>
			<g>
				<path fill="#823269" d="M13.9,92.2c-0.1,0-0.2,0-0.3,0c-0.1,0-0.1,0-0.1,0.1c0,0-0.1,0.1-0.1,0.1c0,0,0,0.1,0,0.1
					c0,0,0,0.1,0,0.1c0,0,0,0.1,0,0.1c0,0.1,0.1,0.1,0.1,0.1c0,0,0.1,0,0.1,0c0.1,0,0.1,0,0.2,0c0.1,0,0.2,0,0.3,0
					c0.1,0,0.1,0,0.1-0.1c0,0,0.1-0.1,0.1-0.1c0,0,0-0.1,0-0.1c0,0,0-0.1,0-0.1c0,0,0-0.1,0-0.1c0-0.1-0.1-0.1-0.1-0.1
					c0,0-0.1,0-0.1,0C14,92.2,13.9,92.2,13.9,92.2L13.9,92.2z"/>
			</g>
		</g>
		<g>
			<g>
				<path fill="#823269" d="M16.1,92.1C16.1,92.1,16.1,92.1,16.1,92.1C16.1,92,16.2,92,16.1,92.1c0,0-0.1,0-0.2,0
					C16,92.1,16,92.1,16.1,92.1c-0.1,0-0.1,0-0.1,0c-0.1,0-0.1,0-0.2,0c-0.1,0-0.1,0-0.1,0.1c0,0-0.1,0.1-0.1,0.1c0,0,0,0.1,0,0.1
					c0,0,0,0.1,0,0.1c0,0.1,0.1,0.1,0.1,0.2c0,0,0.1,0,0.1,0.1c0.1,0,0.1,0,0.2,0c0.1,0,0.2,0,0.3,0c0.1,0,0.2-0.1,0.3-0.1
					c0,0,0.1-0.1,0.1-0.1c0,0,0.1-0.1,0.1-0.1c0,0,0-0.1,0-0.1c0,0,0-0.1,0-0.1c0,0,0,0-0.1-0.1c-0.1,0-0.1-0.1-0.2-0.1
					c0,0-0.1,0-0.1,0C16.2,92,16.2,92,16.1,92.1L16.1,92.1z"/>
			</g>
		</g>
		<g>
			<g>
				<path fill="#823269" d="M14.6,93.1c0,0.2-0.1,0.3-0.1,0.5c0,0,0,0.1,0,0.1c0,0,0,0.1,0.1,0.1c0,0,0.1,0.1,0.1,0.1
					c0,0,0.1,0,0.2,0c0,0,0.1,0,0.1,0c0.1,0,0.1,0,0.2-0.1c0,0,0,0,0.1-0.1c0-0.1,0.1-0.1,0.1-0.2c0,0,0-0.1,0-0.1c0,0,0,0.1,0,0.1
					c0-0.1,0-0.2,0.1-0.2c0,0,0-0.1,0-0.1c0,0,0-0.1,0-0.1c0,0-0.1-0.1-0.1-0.1c0,0-0.1-0.1-0.1-0.1c0,0-0.1,0-0.1,0
					c-0.1,0-0.1,0-0.2,0C14.7,92.9,14.6,93,14.6,93.1L14.6,93.1z"/>
			</g>
		</g>
	</g>
	<g>
		<g>
			<path fill="#DC96A0" d="M294.5,104.2c-0.8-0.6-1.1-1.2-1.1-2c0-0.5,0.4-1.1,0.9-1.3c1.1-0.4,2.8,0.5,3.5,1.4
				c-0.2-0.7-0.2-1.5,0.1-2c0.2-0.2,0.4-0.4,0.7-0.6c1.1-0.5,2.6-0.2,3.5,0.7c0.8,0.8,1.4,2,1,3c0.3-0.3,0.7-0.6,1.1-0.8
				c0.4-0.2,0.9-0.2,1.3,0c0.9,0.4,1.9,1.2,2.1,2.1c0.1,0.6-0.1,1.2-0.4,1.7c-0.2,0.5-0.6,1.1-1,1.4c-0.5,0.4-1.3,0.6-2,0.8
				c0.6,0.6,0.9,1.6,1,2.3c0,0.7-0.2,1.3-0.6,1.9c-0.3,0.4-1.1,0.9-1.6,1.1s-1.3,0.2-1.8-0.2c-0.6-0.4-0.7-1.1-0.7-1.8
				c-0.6,0.6-1.5,1-2.5,0.9c-1-0.1-2-0.7-2.4-1.5c-0.4-0.8-0.3-1.7,0.5-2.3c-0.9-0.1-1.8-0.2-2.5-0.8c-0.4-0.3-0.8-0.8-1-1.2
				c-0.2-0.4-0.3-0.7-0.2-1.1c0.1-0.4,0.4-0.8,0.9-1s1.3-0.4,1.7-0.5L294.5,104.2z"/>
		</g>
		<g>
			<g>
				<path fill="#C8828C" d="M305,104.7c-0.2,0.5-0.6,0.8-1.1,1.1c-0.2,0.2-0.5,0.3-0.7,0.4c-0.1,0-0.2,0.1-0.3,0.1
					c-0.1,0-0.8,0.1-0.8,0.1c-0.2-0.1-0.4,0-0.5,0.2c-0.1,0.2,0,0.4,0.2,0.5c0.7,0.3,2-0.3,2.6-0.6c0.6-0.4,1.2-0.8,1.4-1.5
					C305.9,104.6,305.1,104.3,305,104.7L305,104.7z"/>
			</g>
		</g>
		<g>
			<g>
				<path fill="#C8828C" d="M300.1,102.3c0,0.1,0.1,0.3,0.1,0.4c0,0.1,0,0.1,0,0.2c0-0.1,0,0,0,0c0,0,0,0.1,0,0.1
					c0,0.1,0,0.2-0.1,0.4c0,0,0,0,0,0c0,0,0,0,0,0c0,0,0,0.1,0,0.1c0,0.1-0.3,0.8-0.4,0.9c-0.1,0.2,0,0.4,0.2,0.5
					c0.2,0.1,0.4,0,0.5-0.2c0.3-0.5,0.6-1.8,0.4-2.4c0-0.1-0.1-0.2-0.2-0.2c-0.1-0.1-0.2-0.1-0.3-0.1
					C300.3,102,300.1,102.1,300.1,102.3L300.1,102.3z"/>
			</g>
		</g>
		<g>
			<g>
				<path fill="#C8828C" d="M296.1,103.7c0.2,0.2,0.4,0.3,0.6,0.5c0,0-0.1-0.1-0.1-0.1c0.2,0.2,0.4,0.4,0.7,0.6
					c0.1,0.1,0.3,0.2,0.4,0.3c0.1,0.1,0.3,0.1,0.4,0.1c0.1,0,0.2-0.1,0.2-0.2c0-0.1-0.1-0.2-0.2-0.3c-0.4-0.4-0.9-0.8-1.4-1.2
					c-0.1-0.1-0.3-0.2-0.5-0.2c-0.1,0-0.3,0-0.4,0C295.8,103.3,295.9,103.5,296.1,103.7L296.1,103.7z"/>
			</g>
		</g>
		<g>
			<g>
				<path fill="#C8828C" d="M297,106.6c-0.1,0-0.2,0-0.3,0c0,0-0.1,0-0.1,0c0,0-0.1,0-0.1,0c0,0,0.1,0,0,0c-0.2,0-0.4,0-0.6,0
					c0,0-0.1,0-0.1,0c-0.1,0,0,0,0,0c0,0,0,0-0.1,0c-0.1,0-0.2,0-0.3-0.1c-0.1,0-0.2,0-0.3-0.1c-0.1,0-0.1,0-0.2,0c-0.1,0,0.1,0,0,0
					c0,0-0.1,0-0.1,0c-0.2-0.1-0.5-0.1-0.6,0.1c-0.1,0.2,0.1,0.4,0.3,0.5c0.9,0.3,1.9,0.4,2.7,0.3c0.2,0,0.3-0.2,0.2-0.4
					C297.5,106.7,297.2,106.6,297,106.6L297,106.6z"/>
			</g>
		</g>
		<g>
			<g>
				<path fill="#C8828C" d="M298.6,108.9c-0.1,0.1-0.1,0.3-0.2,0.4c0,0,0,0.1,0,0.1c0,0-0.1,0.2,0,0c0,0.1-0.1,0.1-0.1,0.2
					c-0.2,0.3-0.4,0.5-0.6,0.7c-0.1,0.1-0.1,0.2-0.1,0.3c0,0.1,0,0.2,0.1,0.3c0.1,0.1,0.2,0.1,0.3,0.1c0.1,0,0.2-0.1,0.2-0.2
					c0.4-0.5,0.8-1.1,1-1.7c0.1-0.2,0-0.5-0.1-0.5C298.9,108.6,298.7,108.7,298.6,108.9L298.6,108.9z"/>
			</g>
		</g>
		<g>
			<g>
				<path fill="#C8828C" d="M301.5,109.5C301.6,109.5,301.6,109.6,301.5,109.5C301.6,109.6,301.6,109.6,301.5,109.5
					c0.1,0.1,0.1,0.1,0.1,0.1c0.1,0.1,0.1,0.1,0.2,0.2c0,0.1,0.1,0.1,0.1,0.2c0,0,0,0.1,0.1,0.1c0,0.1,0-0.1,0,0c0,0,0,0,0,0
					c0.1,0.1,0.1,0.3,0.2,0.4c0,0,0,0.1,0,0.1c0,0,0,0,0,0.1c0,0.1,0-0.1,0,0c0,0.1,0,0.1,0.1,0.2c0,0.2,0.2,0.4,0.5,0.3
					c0.2,0,0.4-0.2,0.3-0.4c-0.2-0.7-0.6-1.3-1.1-1.8c-0.2-0.1-0.4-0.1-0.6,0C301.3,109.2,301.4,109.4,301.5,109.5L301.5,109.5z"/>
			</g>
		</g>
		<g>
			<path fill="#B4649B" d="M297.2,105.8c0-0.1,0-0.1,0-0.2c-0.1-0.3,0-0.6,0.2-0.8c0.3-0.2,0.7-0.3,1.1-0.2c0.1,0,0.2,0.1,0.4,0.1
				c0.2,0,0.3-0.1,0.4-0.2c0.3-0.2,0.7-0.3,1.1-0.2c0.4,0.1,0.8,0.3,1,0.7c0.1,0.1,0.1,0.2,0.2,0.3c0.1,0.1,0.2,0.2,0.4,0.4
				c0.4,0.3,0.6,0.8,0.6,1.3c0,0.5-0.3,0.9-0.7,1.1c0.2,0.5,0.1,1.1-0.4,1.3c-0.4,0.3-1.2,0.1-1.5-0.3c-0.4,0.2-0.9,0.3-1.3,0.2
				c-0.5-0.2-0.8-0.5-1-0.9c-0.1-0.2-0.1-0.3-0.2-0.5c-0.1-0.1-0.2-0.2-0.3-0.3c-0.3-0.3-0.5-0.8-0.4-1.2
				C296.9,106.1,297.1,106,297.2,105.8z"/>
		</g>
		<g>
			<g>
				<path fill="#823269" d="M299.8,105.4c-0.1,0.1-0.1,0.1-0.2,0.2c0,0-0.1,0.1-0.1,0.1c0,0,0,0.1,0,0.1c0,0,0,0.1,0.1,0.1
					c0,0,0.1,0.1,0.1,0.1c0,0,0.1,0,0.1,0.1c0.1,0,0.1,0,0.2,0c0,0,0.1,0,0.1,0c0.1,0,0.1-0.1,0.2-0.1c0.1-0.1,0.1-0.1,0.2-0.2
					c0,0,0.1-0.1,0.1-0.1c0,0,0-0.1,0-0.1c0,0,0-0.1-0.1-0.1c0,0-0.1-0.1-0.1-0.1c0,0-0.1,0-0.1-0.1c-0.1,0-0.1,0-0.2,0
					c0,0-0.1,0-0.1,0C299.9,105.3,299.8,105.4,299.8,105.4L299.8,105.4z"/>
			</g>
		</g>
		<g>
			<g>
				<path fill="#823269" d="M298.7,106.1c-0.1,0-0.2-0.1-0.3-0.1c-0.1,0-0.1,0-0.2,0c-0.1,0-0.1,0-0.1,0c0,0-0.1,0.1-0.1,0.1
					c0,0,0,0.1,0,0.1c0,0,0,0.1,0,0.1c0,0.1,0,0.1,0.1,0.2c0,0,0.1,0,0.1,0.1c0.1,0,0.1,0.1,0.2,0.1c0.1,0,0.2,0.1,0.3,0.1
					c0.1,0,0.1,0,0.2,0c0.1,0,0.1,0,0.1,0c0,0,0.1-0.1,0.1-0.1c0,0,0-0.1,0-0.1c0,0,0-0.1,0-0.1c0-0.1,0-0.1-0.1-0.2
					c0,0-0.1,0-0.1-0.1C298.8,106.2,298.7,106.2,298.7,106.1L298.7,106.1z"/>
			</g>
		</g>
		<g>
			<g>
				<path fill="#823269" d="M300.7,106.9C300.7,106.9,300.7,106.9,300.7,106.9C300.8,106.9,300.8,106.9,300.7,106.9c0,0-0.1,0-0.2,0
					C300.6,106.8,300.6,106.8,300.7,106.9c-0.1,0-0.1,0-0.1,0c-0.1,0-0.1,0-0.2,0c-0.1,0-0.1,0-0.1,0c0,0-0.1,0-0.1,0.1
					c0,0-0.1,0.1-0.1,0.1c0,0,0,0.1,0,0.1c0,0.1,0,0.1,0,0.2c0,0,0,0.1,0.1,0.1c0,0.1,0.1,0.1,0.2,0.1c0.1,0,0.2,0.1,0.3,0.1
					c0.1,0,0.2,0,0.3,0c0.1,0,0.1,0,0.1,0c0,0,0.1,0,0.1-0.1c0,0,0.1-0.1,0.1-0.1c0,0,0-0.1,0-0.1c0,0,0-0.1,0-0.1
					c0-0.1-0.1-0.1-0.1-0.2c0,0-0.1,0-0.1-0.1C300.9,106.9,300.8,106.9,300.7,106.9L300.7,106.9z"/>
			</g>
		</g>
		<g>
			<g>
				<path fill="#823269" d="M299,107.2c-0.1,0.1-0.2,0.2-0.3,0.4c0,0,0,0.1,0,0.1c0,0,0,0.1,0,0.1c0,0,0.1,0.1,0.1,0.1
					c0,0,0.1,0.1,0.1,0.1c0,0,0.1,0,0.1,0c0.1,0,0.1,0,0.2,0c0,0,0.1,0,0.1,0c0.1,0,0.1-0.1,0.1-0.1c0,0,0-0.1,0.1-0.1
					c0,0,0,0.1,0,0.1c0-0.1,0.1-0.1,0.1-0.2c0,0,0.1-0.1,0.1-0.1c0,0,0-0.1,0-0.1c0,0,0-0.1-0.1-0.1c0,0-0.1-0.1-0.1-0.1
					c0,0-0.1,0-0.1-0.1c-0.1,0-0.1,0-0.2,0C299.1,107.1,299,107.2,299,107.2L299,107.2z"/>
			</g>
		</g>
	</g>
	<g>
		<path fill="#FFFFFF" d="M43,32.1c-0.1,2-1.4,3.6-2.8,5L37.3,40c0.5-0.1,0.9-0.1,1.4-0.1h4.5v2.3h-9.7v-1.5l4.7-4.6
			c1.4-1.4,2.3-2.5,2.3-4c0-1.3-0.8-1.9-2-1.9c-1,0-1.8,0.7-2.1,1.5c-0.1,0.3-0.1,0.6-0.1,0.9l-2.4-0.4c0.4-2.8,2.3-4.2,4.8-4.2
			C41.2,28.1,43,29.8,43,32.1z"/>
		<path fill="#FFFFFF" d="M49.3,42.5c-2.9,0-5.1-2.2-5.1-7.2c0-4.9,2.2-7.2,5.1-7.2c3,0,5.2,2.2,5.2,7.2
			C54.5,40.2,52.3,42.5,49.3,42.5z M49.3,30.3c-1.3,0-2.5,1.1-2.5,5c0,3.9,1.2,5,2.5,5c1.4,0,2.6-1.1,2.6-5
			C51.9,31.4,50.7,30.3,49.3,30.3z"/>
		<path fill="#FFFFFF" d="M65.1,32.1c-0.1,2-1.4,3.6-2.8,5L59.4,40c0.5-0.1,0.9-0.1,1.4-0.1h4.5v2.3h-9.7v-1.5l4.7-4.6
			c1.4-1.4,2.3-2.5,2.3-4c0-1.3-0.8-1.9-2-1.9c-1,0-1.8,0.7-2.1,1.5c-0.1,0.3-0.1,0.6-0.1,0.9l-2.4-0.4c0.4-2.8,2.3-4.2,4.8-4.2
			C63.3,28.1,65.1,29.8,65.1,32.1z"/>
		<path fill="#FFFFFF" d="M76.1,32.1c-0.1,2-1.4,3.6-2.8,5L70.5,40c0.5-0.1,0.9-0.1,1.4-0.1h4.5v2.3h-9.7v-1.5l4.7-4.6
			c1.4-1.4,2.3-2.5,2.3-4c0-1.3-0.8-1.9-2-1.9c-1,0-1.8,0.7-2.1,1.5c-0.1,0.3-0.1,0.6-0.1,0.9l-2.4-0.4c0.4-2.8,2.3-4.2,4.8-4.2
			C74.3,28.1,76.1,29.8,76.1,32.1z"/>
		<path fill="#FFFFFF" d="M91.5,31.6c0,2.4-2,4.1-4.6,4.1c-2.7,0-4.7-1.7-4.7-4.1c0-2.4,2-4.1,4.7-4.1
			C89.6,27.5,91.5,29.2,91.5,31.6z M84.6,31.6c0,1.3,0.9,2.1,2.3,2.1c1.3,0,2.2-0.8,2.2-2.1c0-1.3-1-2.1-2.2-2.1
			C85.6,29.5,84.6,30.3,84.6,31.6z M84.8,43.6v-6.4h11.4v6.4H84.8z M93.8,41.7v-2.6h-6.6v2.6H93.8z M93.7,36.4v-9.7h2.5v9.7H93.7z"
			/>
		<path fill="#FFFFFF" d="M104,36.5c-2.6,0-4.7-1.8-4.7-4.3c0-2.5,2-4.3,4.7-4.3c2.6,0,4.6,1.8,4.6,4.3
			C108.6,34.6,106.6,36.5,104,36.5z M104,34.4c1.3,0,2.2-0.8,2.2-2.2c0-1.4-1-2.2-2.2-2.2c-1.3,0-2.3,0.8-2.3,2.2
			C101.7,33.6,102.7,34.4,104,34.4z M101.9,43.5v-5.7h2.5v3.8h9.4v2H101.9z M110.8,26.7h2.5V39h-2.5V26.7z"/>
		<path fill="#FFFFFF" d="M118.5,37.1h-1.4v-9.3h2.4v7.3c2.1-0.1,4-0.2,6.1-0.5l0.2,2C123.3,37,121,37.1,118.5,37.1z M119.2,43.5
			v-5.4h2.5v3.4h9.2v2H119.2z M123.9,31.8h4.1v-1.3h-4.1v-1.9h4.1v-1.9h2.5v12.6H128v-5.5h-4.1V31.8z"/>
		<path fill="#E6E6E6" d="M44.4,66.5v-7.5h-1.2v6.8h-2v-4.5l-1.2,1.7c-1.3-0.7-2.1-1.9-2.6-3.4c-0.5,1.7-1.4,3-2.8,3.9l-1.3-1.6
			c2.3-1.3,3.1-4.1,3.1-6.6v-2.5h2.1v2.4c0,2.6,0.7,5.1,2.8,6.2v-9.7h2v5.6h1.2v-5.9h2.1v15.1H44.4z"/>
		<path fill="#E6E6E6" d="M55.7,55.4h-7.2v-1.7h2.6v-1.9h2.1v1.9h2.5V55.4z M55.5,59.7c0,2.1-1.4,3.6-3.3,3.6
			c-1.9,0-3.3-1.5-3.3-3.6c0-2.1,1.4-3.6,3.3-3.6C54.1,56.1,55.5,57.6,55.5,59.7z M53.6,59.7c0-1.1-0.6-1.8-1.4-1.8
			s-1.4,0.7-1.4,1.8c0,1.1,0.6,1.8,1.4,1.8S53.6,60.8,53.6,59.7z M59.4,66.5v-7.2h-1.1v6.6h-2V51.7h2v5.9h1.1v-6.2h2.1v15.1H59.4z"
			/>
		<path fill="#E6E6E6" d="M67.3,60.6v-1.7H73v-1.2h-4v-5.8h2.1v1.3h5.9v-1.3h2.1v5.8h-4v1.2H81v1.7H67.3z M79.3,66.6h-2.2v-3.2h-8.3
			v-1.7h10.5V66.6z M77.1,54.8h-5.9V56h5.9V54.8z"/>
		<path fill="#E6E6E6" d="M86.5,52.4h7.2v6.3h-7.2V52.4z M91.9,64l0.3,1.7c-1.2,0.4-2.4,0.5-3.9,0.5h-0.8v-5.9h2.1v4.2
			C90.3,64.3,91.1,64.2,91.9,64z M88.6,57h3v-3h-3V57z M99.2,61.9h-7.6v-1.5h2.8v-1.1h2.1v1.1h2.7V61.9z M98.3,64.4
			c0,1.3-1.2,2.1-2.9,2.1c-1.7,0-2.9-0.8-2.9-2.1c0-1.3,1.2-2.1,2.9-2.1C97.1,62.3,98.3,63.1,98.3,64.4z M96.4,64.4
			c0-0.5-0.4-0.7-1-0.7c-0.6,0-1,0.2-1,0.7c0,0.4,0.4,0.7,1,0.7C96,65.1,96.4,64.9,96.4,64.4z M98,56.4v2.6h-2.2v-7.5H98v3.2h2v1.8
			H98z"/>
		<path fill="#E6E6E6" d="M109.5,57.9c0,3.3-1.7,5.4-4,5.4s-4-2.1-4-5.4c0-3.3,1.7-5.4,4-5.4S109.5,54.6,109.5,57.9z M103.7,57.9
			c0,2.2,0.8,3.4,1.9,3.4c1.1,0,1.9-1.2,1.9-3.4c0-2.2-0.8-3.4-1.9-3.4C104.4,54.4,103.7,55.6,103.7,57.9z M111.5,66.6V51.4h2.2
			v15.2H111.5z"/>
		<path fill="#E6E6E6" d="M120.4,52.3h2.1v1.9h3v-1.9h2.1v7.2h-7.2V52.3z M132.2,66.4H122v-5.5h9.9v1.7h-7.8v2h8V66.4z M122.5,57.8
			h3v-1.9h-3V57.8z M131.8,56.7v3.6h-2.2v-8.8h2.2v3.4h2v1.8H131.8z"/>
		<path fill="#E6E6E6" d="M135,64.8V63h13.7v1.8H135z M147.5,56.6c0,2.6-2.5,4.4-5.6,4.4c-3.2,0-5.6-1.7-5.6-4.4
			c0-2.6,2.5-4.4,5.6-4.4C145,52.2,147.5,53.9,147.5,56.6z M138.3,56.6c0,1.6,1.5,2.6,3.5,2.6c2.1,0,3.5-1,3.5-2.6
			c0-1.6-1.5-2.6-3.5-2.6C139.8,54,138.3,54.9,138.3,56.6z"/>
		<path fill="#E6E6E6" d="M157.6,61.5l-1.2,1.7c-1.3-0.8-2.1-2.1-2.6-3.6c-0.5,1.7-1.4,3.1-2.8,3.9l-1.3-1.6c2.2-1.3,3-4.1,3-6.6
			v-2.5h2.1v2.5C154.9,57.7,155.5,60.2,157.6,61.5z M159.9,65.9h-2v-7.6H156v-1.8h1.9v-4.9h2V65.9z M161,66.6V51.4h2.1v15.1H161z"/>
		<path fill="#E6E6E6" d="M165.1,64.8V63h3v-3.7c-1.2-0.7-1.8-1.8-1.8-3.1c0-2.5,2.4-4.1,5.6-4.1c3.3,0,5.6,1.6,5.6,4.1
			c0,1.3-0.7,2.4-1.8,3.1V63h3v1.8H165.1z M168.4,56.3c0,1.5,1.4,2.4,3.5,2.4s3.5-0.9,3.5-2.4c0-1.5-1.4-2.4-3.5-2.4
			S168.4,54.7,168.4,56.3z M173.6,60.2c-0.5,0.1-1.1,0.1-1.7,0.1c-0.6,0-1.1,0-1.7-0.1V63h3.3V60.2z"/>
		<path fill="#E6E6E6" d="M181.4,55l-0.1-2.3h2.4l-0.1,2.3l-0.3,6.7h-1.6L181.4,55z M181.3,63h2.4v2.3h-2.4V63z"/>
		<path fill="#E6E6E6" d="M43.6,87.8H33.4v-1h4.7V85h1.3v1.8h4.3V87.8z M42.8,92.4l-0.4,1c-1.8-0.2-3.1-0.9-3.8-1.9
			c-0.7,1-2.1,1.7-3.8,1.9l-0.4-1c2-0.2,3.4-1.1,3.6-2.1h-3.1v-1h3.2v-1h1.3v1h3.2v1h-3.1C39.4,91.3,40.8,92.1,42.8,92.4z
			 M36.5,83.5h-2.2v-1h3.5V83c0,0.7,0,1.8-0.5,3.2L35.9,86C36.3,84.9,36.4,84.1,36.5,83.5z M41.3,83.5h-2.7v-1h3.9V83
			c0,0.7,0,1.8-0.3,3.2L41,86C41.2,84.9,41.3,84.1,41.3,83.5z"/>
		<path fill="#E6E6E6" d="M55.2,92H44.9v-1.1h10.3V92z M54.2,85.9c0,2-1.8,3.2-4.2,3.2s-4.2-1.3-4.2-3.2c0-1.9,1.8-3.2,4.2-3.2
			S54.2,84,54.2,85.9z M47.2,85.9c0,1.3,1.2,2.1,2.9,2.1c1.7,0,2.9-0.8,2.9-2.1s-1.2-2.1-2.9-2.1C48.4,83.8,47.2,84.6,47.2,85.9z"/>
		<path fill="#E6E6E6" d="M66.8,92.1H56.5V91H61v-1.9h-3.2v-3.7h6.5v-1.5h-6.6v-1h7.8v3.6H59V88h6.8v1h-3.6V91h4.5V92.1z"/>
		<path fill="#E6E6E6" d="M76.6,83.2v7.4h-5.3v-7.4H76.6z M75.3,89.5v-5.4h-2.8v5.4H75.3z M79.7,87.6v5.9h-1.3V82h1.3v4.4h1.8v1.1
			H79.7z"/>
		<path fill="#E6E6E6" d="M92.7,88.5H82.4v-1h10.3V88.5z M91.6,84.5c0,1.3-1.6,2.2-4.1,2.2s-4.1-0.8-4.1-2.2c0-1.4,1.6-2.2,4.1-2.2
			S91.6,83.1,91.6,84.5z M91.4,93.3h-7.8v-3.8h7.8V93.3z M84.8,84.5c0,0.8,1,1.2,2.7,1.2s2.7-0.4,2.7-1.2c0-0.8-1-1.2-2.7-1.2
			S84.8,83.7,84.8,84.5z M84.9,92.2h5.2v-1.7h-5.2V92.2z"/>
		<path fill="#E6E6E6" d="M104.2,87.8H93.9v-1h10.3V87.8z M95,84.2c0-1.3,1.4-2,4.1-2c2.6,0,4.1,0.7,4.1,2c0,1.3-1.4,2-4.1,2
			C96.5,86.1,95,85.4,95,84.2z M103.3,92.3v1h-8.1v-2.9h6.5v-0.8h-6.5v-1h7.8v2.7h-6.5v0.9H103.3z M96.4,84.2c0,0.6,0.9,1,2.7,1
			c1.8,0,2.7-0.3,2.7-1c0-0.7-0.9-1-2.7-1C97.3,83.2,96.4,83.5,96.4,84.2z"/>
		<path fill="#E6E6E6" d="M111.8,86.3c-0.5,1.3-1.4,2.2-2.8,2.7l-0.7-1c1.8-0.6,2.8-2.1,2.8-3.6v-0.4h-2.4v-1h6.1v1h-2.4v0.4
			c0,1.4,1,2.8,2.7,3.4l-0.6,1C113.2,88.3,112.3,87.4,111.8,86.3z M118,93.2h-7.6v-3.6h1.3v2.5h6.3V93.2z M116.4,82.1h1.3v8.3h-1.3
			v-4.2h-2.1v-1.1h2.1V82.1z"/>
		<path fill="#E6E6E6" d="M125.4,83.9v1h-5.6v-1h2.1v-1.5h1.3v1.5H125.4z M125.1,88.2c0,1.6-1,2.6-2.5,2.6c-1.4,0-2.5-1.1-2.5-2.6
			c0-1.6,1-2.6,2.5-2.6C124.1,85.6,125.1,86.7,125.1,88.2z M124,88.2c0-1-0.5-1.6-1.3-1.6c-0.8,0-1.3,0.6-1.3,1.6
			c0,1,0.5,1.6,1.3,1.6C123.4,89.8,124,89.2,124,88.2z M129.6,93.4h-1.2v-5.6h-1.2v5.1h-1.2V82.3h1.2v4.5h1.2V82h1.2V93.4z"/>
		<path fill="#E6E6E6" d="M144.5,92h-10.3V91h4.5v-2.3h-3.3v-5.9h1.3v1.9h5.4v-1.9h1.3v5.9H140V91h4.5V92z M142.1,87.6v-1.9h-5.4
			v1.9H142.1z"/>
		<path fill="#E6E6E6" d="M151.5,89.8l-0.7,1c-1.1-0.6-1.7-1.7-2.1-3c-0.4,1.4-1.1,2.6-2.2,3.3l-0.8-1c1.6-1,2.4-3,2.4-4.9v-2.1h1.3
			v2C149.3,86.9,150,88.8,151.5,89.8z M153.2,82.3v10.6h-1.2v-5.8h-1.7V86h1.7v-3.8H153.2z M155.5,93.4h-1.2V82h1.2V93.4z"/>
		<path fill="#E6E6E6" d="M167.6,92h-10.3V91h2.4v-3c-0.9-0.5-1.4-1.3-1.4-2.3c0-1.8,1.7-3,4.2-3c2.4,0,4.2,1.2,4.2,3
			c0,1-0.5,1.8-1.4,2.3v3h2.4V92z M159.6,85.7c0,1.2,1.2,2,2.9,2c1.7,0,2.9-0.8,2.9-2c0-1.2-1.2-2-2.9-2
			C160.8,83.7,159.6,84.5,159.6,85.7z M163.9,91v-2.5c-0.4,0.1-0.9,0.2-1.4,0.2c-0.5,0-1,0-1.4-0.1V91H163.9z"/>
		<path fill="#E6E6E6" d="M172,86.5V85h1.5v1.6H172z M172,91.7v-1.6h1.5v1.6H172z"/>
		<path fill="#E6E6E6" d="M176.5,87.8c0-2.2-0.5-4.2-1.6-6l0.9-0.4c1.2,1.9,1.9,3.9,1.9,6.4c0,2.5-0.7,4.5-1.9,6.4l-0.9-0.4
			C176,92,176.5,90,176.5,87.8z"/>
	</g>
	<g>
		<path fill="#1E7846" d="M156.7,110.1c0,0.1,0,0.2,0,0.3c0,3.5,0.4,7,0.9,10.5h1.5c-0.6-3.4-1-6.9-1.3-10.3c0-0.1,0-0.2,0-0.4
			c0.1-0.2,0.2-0.3,0.3-0.4c0.6-0.4,1.1-1.1,1.3-2l-0.4-0.5c-0.6-0.4-1.1-0.8-1.7-1.1c-0.1-0.1-0.3-0.2-0.4-0.2
			c-0.1,0-0.2,0.1-0.3,0.2c-0.6,0.4-0.6,0.8-1.2,1.3c0.1,0.9,0.5,1.7,1.1,2.2C156.6,109.9,156.6,110,156.7,110.1z"/>
	</g>
	<g>
		<path fill="#C88228" d="M157.4,109.6c1-0.3,1.9-0.8,2.7-1.5s1.5-1.7,1.7-2.9c0.1-0.6,0.1-1.3-0.4-1.7c-0.4-0.4-1-0.1-1.4,0.2
			c-0.4,0.4-0.8,0.9-1.3,1.2c0-0.2,0-0.5,0-0.8c0.1-0.7,0.1-1.5-0.3-2.1c-0.5-0.8-1.5-0.9-2.1-0.4c-0.6,0.4-1,1.2-1.1,2.1
			c0,0.2,0,0.4-0.1,0.5c-0.3,0.1-0.7-0.3-0.9-0.4c-0.2-0.1-0.4-0.1-0.6-0.1c-1.3,0.1-0.3,2.5,0.2,3.2c0.7,1,1.3,1.3,2.3,2
			L157.4,109.6z"/>
	</g>
	<g>
		<path fill="#C8AA32" d="M157.5,109.6C157.5,109.6,157.6,109.6,157.5,109.6c0.4-0.1,0.7-0.3,1-0.4c0.2-0.1,0.5-0.2,0.6-0.4
			c0.2-0.2,0.4-0.5,0.5-0.8c0.1-0.2,0.2-0.3,0.2-0.5c0.1-0.3,0.1-0.6,0-1c-0.1-0.4-0.2-0.7-0.4-1c-0.2-0.3-0.5-0.5-0.8-0.5
			c-0.7,0-1.1,1-1.8,0.9c-0.6,0-1-0.7-1.6-0.7c-0.3,0-0.5,0.2-0.6,0.5c-0.1,0.3-0.2,0.6-0.2,0.9c0,0.3,0.1,0.7,0.2,1
			c0.2,0.5,0.7,0.8,1.1,1.1c0.2,0.1,0.3,0.2,0.5,0.3c0.1,0,0.2,0.1,0.2,0.1c0.1,0,0.1,0.1,0.2,0.1c0.1,0,0.2,0.1,0.2,0.1
			C157.2,109.5,157.3,109.6,157.5,109.6z"/>
	</g>
</g>
</svg>
