<?xml version="1.0" encoding="utf-8"?>
<!-- Generator: Adobe Illustrator 24.3.0, SVG Export Plug-In . SVG Version: 6.00 Build 0)  -->
<svg version="1.1" id="Layer_1" xmlns="http://www.w3.org/2000/svg" xmlns:xlink="http://www.w3.org/1999/xlink" x="0px" y="0px"
	 viewBox="0 0 30 30" style="enable-background:new 0 0 30 30;" xml:space="preserve">
<style type="text/css">
	.st0{fill:#F2F2F2;}
</style>
<g>
	<path class="st0" d="M15,25.29c-0.83,0-1.5-0.67-1.5-1.5V6.46c0-0.83,0.67-1.5,1.5-1.5s1.5,0.67,1.5,1.5v17.33
		C16.5,24.62,15.83,25.29,15,25.29z"/>
	<path class="st0" d="M5.72,17.12c-0.38,0-0.77-0.15-1.06-0.44c-0.59-0.59-0.59-1.54,0-2.12l9.41-9.41
		c0.28-0.28,0.66-0.44,1.06-0.44l0,0c0.4,0,0.78,0.16,1.06,0.44l9.16,9.16c0.59,0.59,0.59,1.54,0,2.12s-1.54,0.59-2.12,0l-8.1-8.1
		l-8.35,8.35C6.48,16.97,6.1,17.12,5.72,17.12z"/>
</g>
</svg>
