<?xml version="1.0" encoding="utf-8"?>
<!-- Generator: Adobe Illustrator 25.1.0, SVG Export Plug-In . SVG Version: 6.00 Build 0)  -->
<svg version="1.1" id="Layer_1" xmlns="http://www.w3.org/2000/svg" xmlns:xlink="http://www.w3.org/1999/xlink" x="0px" y="0px"
	 viewBox="0 0 30 30" style="enable-background:new 0 0 30 30;" xml:space="preserve">
<style type="text/css">
	.st2{fill:none;stroke:#333333;stroke-miterlimit:10;}
</style>
<g>
	<path class="st2" d="M25.94,22.81v2.65c0,0.69-0.56,1.25-1.25,1.25H2.19c-0.69,0-1.25-0.56-1.25-1.25V4.53
		c0-0.69,0.56-1.25,1.25-1.25h22.49c0.69,0,1.25,0.56,1.25,1.25V15"/>
	<line class="st2" x1="5.62" y1="7.19" x2="5.62" y2="17.34"/>
	<polyline class="st2" points="3.95,8.87 5.62,7.19 7.3,8.87 	"/>
	<line class="st2" x1="4.84" y1="22.81" x2="11.09" y2="22.81"/>
	<line class="st2" x1="4.84" y1="20.47" x2="14.22" y2="20.47"/>
	<path class="st2" d="M26.72,20.47h-3.91v1.91c0,0.33-0.38,0.51-0.64,0.3l-4.61-3.75c-0.76-0.62-0.76-1.78,0-2.4l4.61-3.75
		c0.26-0.21,0.64-0.03,0.64,0.3V15h3.13"/>
	<path class="st2" d="M25.94,12.66h1.24c1.04,0,1.88,0.84,1.88,1.88v4.04c0,1.04-0.84,1.88-1.88,1.88h-1.24"/>
</g>
</svg>
