<?xml version="1.0" encoding="utf-8"?>
<!-- Generator: Adobe Illustrator 26.0.1, SVG Export Plug-In . SVG Version: 6.00 Build 0)  -->
<svg version="1.1" id="레이어_1" xmlns="http://www.w3.org/2000/svg" xmlns:xlink="http://www.w3.org/1999/xlink" x="0px"
	 y="0px" viewBox="0 0 10.22 9.91" style="enable-background:new 0 0 10.22 9.91;" xml:space="preserve">
<style type="text/css">
	.st0{fill:#FAF0E6;}
</style>
<path class="st0" d="M9.91,5.25C8.69,5.03,7.48,4.82,6.26,4.63C7.27,3.85,8.29,3.08,9.3,2.3c0.44-0.34,0.01-1.09-0.44-0.75
	C7.83,2.34,6.8,3.12,5.78,3.91C5.9,2.74,6.02,1.58,6.14,0.42c0.06-0.56-0.81-0.55-0.87,0C5.14,1.61,5.02,2.79,4.9,3.98
	C4.15,3.04,3.4,2.1,2.65,1.16C2.3,0.73,1.68,1.35,2.03,1.78c0.67,0.83,1.33,1.66,1.99,2.5c-1.2-0.18-2.4-0.35-3.61-0.51
	c-0.55-0.07-0.55,0.8,0,0.87C1.65,4.8,2.89,4.98,4.12,5.17C3.05,5.99,1.98,6.8,0.91,7.62C0.47,7.96,0.9,8.71,1.35,8.37
	C2.47,7.52,3.59,6.67,4.7,5.81C4.58,7.04,4.45,8.27,4.32,9.49c-0.06,0.56,0.81,0.55,0.87,0c0.11-1.1,0.23-2.2,0.34-3.3
	C6.21,7.05,6.88,7.9,7.54,8.76C7.89,9.2,8.5,8.58,8.16,8.14C7.47,7.25,6.77,6.36,6.07,5.47c1.2,0.2,2.4,0.4,3.6,0.62
	C10.22,6.19,10.46,5.35,9.91,5.25z"/>
</svg>
