<?xml version="1.0" encoding="utf-8"?>
<!-- Generator: Adobe Illustrator 26.0.1, SVG Export Plug-In . SVG Version: 6.00 Build 0)  -->
<svg version="1.1" id="레이어_1" xmlns="http://www.w3.org/2000/svg" xmlns:xlink="http://www.w3.org/1999/xlink" x="0px"
	 y="0px" viewBox="0 0 14.62 24.05" style="enable-background:new 0 0 14.62 24.05;" xml:space="preserve">
<style type="text/css">
	.st0{fill:#FFF0E6;}
</style>
<path class="st0" d="M1.19,14c0.57-0.16,1.14-0.31,1.71-0.46c0.31-0.09,0.42-0.07,0.33,0.29c-0.05,0.23-0.2,0.43-0.34,0.6
	c-0.28,0.35-0.62,0.72-0.91,1.05c-0.35,0.38-0.73,0.68-1.06,1.07c-0.15,0.18-0.65,0.57-0.58,0.85c0.1,0.4,1.22-0.09,1.48-0.16
	c1.35-0.35,2.73-0.67,4.12-0.82c-0.23,2.51-0.34,5.14-0.48,7.63h3.11c-0.24-2.29-0.5-3.88-0.64-6.64c1.16,0.56,2.35,1.08,3.56,1.54
	c0.58,0.22,1.16,0.42,1.75,0.62c0.22,0.07,1.44,0.63,1.38,0.11c-0.01-0.09-0.17-0.24-0.24-0.3c-0.27-0.28-0.54-0.55-0.81-0.82
	c-0.51-0.51-1.02-1.01-1.53-1.51c-0.44-0.43-0.95-0.85-1.34-1.33c-0.58-0.71,0.77-0.17,1.05-0.09c0.4,0.11,0.81,0.22,1.21,0.31
	c0.23,0.05,1.14,0.37,1.33,0.19c0.23-0.22-0.36-0.67-0.48-0.8c-0.25-0.27-0.5-0.54-0.75-0.81c-0.52-0.56-1.03-1.12-1.55-1.68
	c-0.28-0.31-0.56-0.62-0.84-0.93c-0.2-0.22-0.53-0.48-0.67-0.74c-0.26-0.48,0.64-0.07,0.87,0c0.4,0.13,0.8,0.25,1.21,0.35
	c0.35,0.09,0.85,0.29,1.21,0.27c0.29-0.02,0.26-0.18,0.09-0.41c-0.15-0.21-0.33-0.4-0.49-0.6c-0.32-0.38-0.63-0.76-0.95-1.14
	c-0.65-0.78-1.29-1.55-1.94-2.33C9.83,7.09,9,6.25,9.14,6.01c0.17-0.29,0.94,0.02,1.15,0.07c0.49,0.13,0.99,0.24,1.48,0.35
	c0.38,0.09,0.98,0.25,0.56-0.3c-0.25-0.33-0.6-0.58-0.88-0.89c-0.32-0.36-0.63-0.72-0.95-1.08C9.95,3.53,9.34,2.91,8.82,2.24
	C8.53,1.87,8.25,1.5,7.96,1.13c-0.22-0.29-0.41-0.6-0.67-0.86c-0.42-0.43-0.6-0.33-0.91,0.15C5.4,1.96,4.42,3.49,3.44,5.03
	C2.88,5.91,2.32,6.79,1.76,7.67c-0.12,0.18-0.73,0.9-0.54,1.07c0.11,0.09,0.49-0.04,0.61-0.08C2.21,8.53,2.6,8.4,2.98,8.28
	C3.35,8.16,3.73,8.05,4.1,7.95c0.21-0.06,0.67-0.23,0.56,0.18C4.62,8.27,4.4,8.47,4.31,8.6C4.07,8.91,3.83,9.22,3.58,9.53
	c-0.5,0.61-1.01,1.22-1.51,1.82c-0.5,0.61-1.01,1.21-1.49,1.83c-0.21,0.26-1.05,1.11-0.21,1.05C0.63,14.21,0.93,14.07,1.19,14z"/>
</svg>
