<?xml version="1.0" encoding="utf-8"?>
<!-- Generator: Adobe Illustrator 26.0.1, SVG Export Plug-In . SVG Version: 6.00 Build 0)  -->
<svg version="1.1" id="레이어_1" xmlns="http://www.w3.org/2000/svg" xmlns:xlink="http://www.w3.org/1999/xlink" x="0px"
	 y="0px" viewBox="0 0 17.87 20.08" style="enable-background:new 0 0 17.87 20.08;" xml:space="preserve">
<style type="text/css">
	.st0{fill:#E63232;}
	.st1{fill:#231815;}
	.st2{fill:#FFFFFF;}
</style>
<g>
	<g>
		<path class="st0" d="M2.09,6.52c0.94,2.51,1.66,4.61,2.6,7.12c0.54,1.44,1.1,2.91,2.12,4.05c2.04,2.26,5.85,2.62,8.28,0.78
			c2.42-1.84,3.1-5.62,1.46-8.18c-0.12-0.2-0.27-0.39-0.48-0.49c-0.56-0.28-1.22,0.31-1.32,0.92c-0.1,0.62,0.14,1.23,0.24,1.85
			c0.22,1.29-0.18,2.69-1.12,3.6c-0.94,0.91-2.4,1.27-3.63,0.82c-1.52-0.56-2.4-2.12-3.07-3.6C6.5,11.91,5.91,10.41,5.4,8.87
			C4.91,7.42,4.14,5.02,3.54,3.61C3.38,3.24,3.2,2.87,3.02,2.5C2.71,1.91,2.38,1.22,1.9,0.75C1.73,0.58,1.51,0.43,1.25,0.43
			c-0.59-0.01-0.84,0.7-0.83,1.19C0.43,1.91,0.5,2.19,0.58,2.47c0.15,0.51,0.39,0.98,0.57,1.47c0.2,0.55,0.38,1.1,0.59,1.65
			C1.86,5.9,1.97,6.21,2.09,6.52z"/>
		<g>
			<path class="st1" d="M1.69,6.66c0.97,2.6,1.87,5.23,2.86,7.81c0.46,1.18,0.98,2.38,1.82,3.35c0.67,0.79,1.53,1.4,2.5,1.77
				c1.93,0.75,4.17,0.64,5.96-0.43c1.76-1.05,2.85-3.03,3.02-5.05c0.09-1.02-0.03-2.06-0.41-3.02c-0.19-0.48-0.43-1-0.78-1.38
				c-0.4-0.44-0.99-0.54-1.51-0.25c-0.48,0.27-0.79,0.78-0.84,1.32c-0.06,0.68,0.19,1.31,0.28,1.98c0.14,1.1-0.2,2.25-0.99,3.05
				c-0.77,0.78-1.98,1.11-3.04,0.82c-1.04-0.29-1.77-1.17-2.3-2.06c-0.65-1.09-1.13-2.3-1.59-3.47C6.2,9.92,5.8,8.7,5.39,7.49
				c-0.37-1.1-0.73-2.2-1.15-3.28C4.02,3.64,3.79,3.09,3.52,2.56C3.24,1.99,2.96,1.4,2.59,0.89C2.24,0.43,1.77-0.05,1.15,0
				C0.59,0.05,0.23,0.52,0.08,1.01c-0.17,0.56-0.05,1.16,0.13,1.7c0.22,0.67,0.52,1.32,0.76,1.99C1.2,5.36,1.44,6.01,1.69,6.66
				c0.2,0.52,1,0.22,0.81-0.29c-0.24-0.63-0.48-1.26-0.7-1.9C1.57,3.84,1.31,3.24,1.09,2.62c-0.16-0.45-0.34-1-0.15-1.47
				C1.15,0.64,1.55,0.96,1.8,1.27c0.36,0.45,0.61,0.97,0.87,1.48c0.26,0.52,0.5,1.06,0.71,1.6c0.39,1.01,0.74,2.03,1.08,3.06
				c0.77,2.3,1.53,4.61,2.62,6.78c0.46,0.93,1.02,1.84,1.82,2.51c0.84,0.69,1.91,1.03,2.99,0.88c2.28-0.33,3.78-2.48,3.56-4.74
				c-0.06-0.62-0.32-1.22-0.31-1.84c0.01-0.32,0.23-0.87,0.63-0.84c0.22,0.02,0.35,0.29,0.45,0.45c0.13,0.21,0.24,0.43,0.34,0.65
				c0.17,0.41,0.3,0.84,0.37,1.29c0.28,1.83-0.27,3.78-1.57,5.12c-1.3,1.34-3.29,1.79-5.09,1.45C9.37,18.94,8.49,18.57,7.77,18
				c-0.87-0.69-1.46-1.64-1.92-2.63c-0.52-1.14-0.93-2.34-1.36-3.52c-0.44-1.21-0.88-2.42-1.32-3.63C2.95,7.6,2.72,6.98,2.5,6.37
				C2.3,5.85,1.49,6.14,1.69,6.66z"/>
		</g>
	</g>
	<g>
		<path class="st2" d="M1.32,5.11c0.39,0.2,0.81,0.35,1.25,0.42C3,5.61,3.45,5.62,3.89,5.59c0.3-0.02,0.56-0.32,0.53-0.62
			C4.38,4.66,4.12,4.43,3.8,4.45C3.6,4.46,3.4,4.46,3.2,4.46c-0.06,0-0.05,0,0.05,0c-0.02,0-0.05,0-0.07,0
			c-0.05,0-0.09-0.01-0.14-0.01C2.95,4.43,2.87,4.42,2.78,4.41C2.7,4.39,2.61,4.38,2.53,4.35C2.48,4.34,2.44,4.33,2.4,4.32
			C2.37,4.31,2.35,4.31,2.33,4.3C2.27,4.28,2.28,4.28,2.37,4.31C2.3,4.26,2.18,4.24,2.1,4.21C2,4.17,1.91,4.13,1.82,4.08
			C1.55,3.95,1.18,4.07,1.06,4.35C0.93,4.64,1.04,4.97,1.32,5.11L1.32,5.11z"/>
	</g>
	<g>
		<path class="st2" d="M3.08,9.67C3.43,9.83,3.81,9.96,4.2,10C4.6,10.04,5,10.02,5.4,9.98c0.3-0.03,0.56-0.31,0.53-0.62
			C5.88,9.06,5.62,8.81,5.3,8.84c-0.3,0.03-0.59,0.05-0.89,0.04c0.05,0,0.1,0.01,0.15,0.01C4.39,8.88,4.21,8.85,4.04,8.81
			C4,8.8,3.95,8.79,3.91,8.77c-0.02,0-0.11-0.04-0.01,0C4,8.8,3.9,8.77,3.88,8.76c-0.1-0.04-0.21-0.08-0.31-0.13
			C3.3,8.51,2.93,8.61,2.81,8.9C2.69,9.18,2.79,9.53,3.08,9.67L3.08,9.67z"/>
	</g>
	<g>
		<path class="st2" d="M4.82,14.4c0.41,0.18,0.82,0.26,1.26,0.26c0.4,0,0.8-0.1,1.18-0.21c0.29-0.08,0.46-0.46,0.34-0.73
			c-0.13-0.3-0.43-0.43-0.73-0.34c-0.13,0.04-0.27,0.08-0.41,0.11c0.05-0.01,0.1-0.02,0.15-0.03c-0.26,0.05-0.52,0.08-0.78,0.07
			c0.05,0,0.1,0.01,0.15,0.01c-0.13-0.01-0.26-0.03-0.38-0.05c-0.03-0.01-0.06-0.02-0.1-0.02c-0.01,0-0.02-0.01-0.03-0.01
			c-0.06-0.02-0.04-0.01,0.04,0.02c-0.06-0.03-0.14-0.05-0.2-0.08c-0.27-0.12-0.64-0.02-0.77,0.27C4.44,13.91,4.53,14.27,4.82,14.4
			L4.82,14.4z"/>
	</g>
	<g>
		<path class="st2" d="M8.36,19.15c0.17-0.03,0.31-0.07,0.46-0.16c0.09-0.06,0.17-0.14,0.25-0.22c0.12-0.14,0.25-0.28,0.36-0.42
			C9.7,18,9.93,17.61,10.1,17.21c0.06-0.14,0.08-0.3,0.02-0.44c-0.05-0.13-0.16-0.26-0.29-0.32c-0.27-0.12-0.64-0.03-0.77,0.27
			c-0.1,0.24-0.22,0.47-0.37,0.69c0.03-0.04,0.05-0.08,0.08-0.12c-0.11,0.16-0.22,0.32-0.35,0.46c-0.1,0.12-0.2,0.25-0.32,0.36
			c0.04-0.03,0.07-0.07,0.11-0.1c-0.03,0.02-0.05,0.04-0.09,0.06c0.04-0.02,0.09-0.05,0.13-0.07c-0.04,0.02-0.07,0.03-0.11,0.04
			c0.05-0.01,0.1-0.02,0.15-0.03C8.29,18,8.28,18,8.26,18.01c-0.15,0.03-0.29,0.08-0.39,0.2c-0.09,0.11-0.15,0.28-0.13,0.42
			c0.02,0.15,0.08,0.3,0.2,0.39C8.05,19.1,8.21,19.18,8.36,19.15L8.36,19.15z"/>
	</g>
	<g>
		<path class="st2" d="M13.75,18.99c-0.07-0.37-0.15-0.73-0.26-1.09c-0.1-0.32-0.23-0.62-0.37-0.92c-0.07-0.14-0.15-0.25-0.29-0.32
			c-0.13-0.06-0.31-0.08-0.44-0.02c-0.26,0.11-0.48,0.45-0.34,0.73c0.23,0.49,0.42,0.99,0.53,1.52c-0.01-0.05-0.02-0.1-0.03-0.15
			c0.02,0.11,0.05,0.22,0.07,0.33c0.03,0.15,0.08,0.29,0.2,0.39c0.11,0.09,0.28,0.15,0.42,0.13C13.51,19.57,13.81,19.3,13.75,18.99
			L13.75,18.99z"/>
	</g>
	<g>
		<path class="st2" d="M16.58,16.68c-0.46-0.54-0.98-1.02-1.57-1.42c-0.13-0.09-0.25-0.15-0.42-0.13c-0.14,0.01-0.3,0.09-0.39,0.2
			c-0.09,0.12-0.15,0.27-0.13,0.42c0.02,0.14,0.08,0.31,0.2,0.39c0.49,0.33,0.93,0.71,1.33,1.14c-0.03-0.04-0.07-0.07-0.1-0.11
			c0.05,0.06,0.1,0.11,0.15,0.17c0.1,0.12,0.21,0.21,0.36,0.24c0.14,0.03,0.32,0,0.44-0.09c0.12-0.09,0.21-0.21,0.24-0.36
			C16.69,16.97,16.68,16.8,16.58,16.68L16.58,16.68z"/>
	</g>
	<g>
		<path class="st2" d="M17.53,12.76c-0.62-0.51-1.43-0.75-2.22-0.58c-0.16,0.03-0.28,0.07-0.39,0.2c-0.09,0.11-0.15,0.28-0.13,0.42
			c0.02,0.15,0.08,0.3,0.2,0.39c0.11,0.09,0.27,0.16,0.42,0.13c0.2-0.04,0.4-0.06,0.6-0.05c-0.05,0-0.1-0.01-0.15-0.01
			c0.17,0.01,0.34,0.04,0.51,0.1c-0.05-0.02-0.09-0.03-0.14-0.05c0.17,0.06,0.33,0.14,0.47,0.23c-0.04-0.03-0.08-0.05-0.12-0.08
			c0.08,0.05,0.15,0.11,0.22,0.17c0.23,0.19,0.62,0.18,0.81-0.06C17.79,13.33,17.78,12.96,17.53,12.76L17.53,12.76z"/>
	</g>
	<g>
		<path class="st1" d="M1.69,6.66c0.97,2.6,1.87,5.23,2.86,7.81c0.46,1.18,0.98,2.38,1.82,3.35c0.67,0.79,1.53,1.4,2.5,1.77
			c1.93,0.75,4.17,0.64,5.96-0.43c1.76-1.05,2.85-3.03,3.02-5.05c0.09-1.02-0.03-2.06-0.41-3.02c-0.19-0.48-0.43-1-0.78-1.38
			c-0.4-0.44-0.99-0.54-1.51-0.25c-0.48,0.27-0.79,0.78-0.84,1.32c-0.06,0.68,0.19,1.31,0.28,1.98c0.14,1.1-0.2,2.25-0.99,3.05
			c-0.77,0.78-1.98,1.11-3.04,0.82c-1.04-0.29-1.77-1.17-2.3-2.06c-0.65-1.09-1.13-2.3-1.59-3.47C6.2,9.92,5.8,8.7,5.39,7.49
			c-0.37-1.1-0.73-2.2-1.15-3.28C4.02,3.64,3.79,3.09,3.52,2.56C3.24,1.99,2.96,1.4,2.59,0.89C2.24,0.43,1.77-0.05,1.15,0
			C0.59,0.05,0.23,0.52,0.08,1.01c-0.17,0.56-0.05,1.16,0.13,1.7c0.22,0.67,0.52,1.32,0.76,1.99C1.2,5.36,1.44,6.01,1.69,6.66
			c0.2,0.52,1,0.22,0.81-0.29c-0.24-0.63-0.48-1.26-0.7-1.9C1.57,3.84,1.31,3.24,1.09,2.62c-0.16-0.45-0.34-1-0.15-1.47
			C1.15,0.64,1.55,0.96,1.8,1.27c0.36,0.45,0.61,0.97,0.87,1.48c0.26,0.52,0.5,1.06,0.71,1.6c0.39,1.01,0.74,2.03,1.08,3.06
			c0.77,2.3,1.53,4.61,2.62,6.78c0.46,0.93,1.02,1.84,1.82,2.51c0.84,0.69,1.91,1.03,2.99,0.88c2.28-0.33,3.78-2.48,3.56-4.74
			c-0.06-0.62-0.32-1.22-0.31-1.84c0.01-0.32,0.23-0.87,0.63-0.84c0.22,0.02,0.35,0.29,0.45,0.45c0.13,0.21,0.24,0.43,0.34,0.65
			c0.17,0.41,0.3,0.84,0.37,1.29c0.28,1.83-0.27,3.78-1.57,5.12c-1.3,1.34-3.29,1.79-5.09,1.45C9.37,18.94,8.49,18.57,7.77,18
			c-0.87-0.69-1.46-1.64-1.92-2.63c-0.52-1.14-0.93-2.34-1.36-3.52c-0.44-1.21-0.88-2.42-1.32-3.63C2.95,7.6,2.72,6.98,2.5,6.37
			C2.3,5.85,1.49,6.14,1.69,6.66z"/>
	</g>
</g>
</svg>
