<?xml version="1.0" encoding="utf-8"?>
<!-- Generator: Adobe Illustrator 25.4.1, SVG Export Plug-In . SVG Version: 6.00 Build 0)  -->
<svg version="1.1" id="레이어_1" xmlns="http://www.w3.org/2000/svg" xmlns:xlink="http://www.w3.org/1999/xlink" x="0px"
	 y="0px" viewBox="0 0 30.3 26.02" style="enable-background:new 0 0 30.3 26.02;" xml:space="preserve">
<style type="text/css">
	.st0{fill:#E01E6E;}
</style>
<g>
	<path class="st0" d="M27.69,9.17c-0.57-1.22-1.75-1.33-2.93-1.31c-2.89,0.05-5.78,0.16-8.67,0.14c-2.58-0.03-5.16-0.05-7.74-0.02
		C6.81,7.99,5.26,8.01,3.72,8.05C2.57,8.08,1.38,8.13,0.71,9.19c-0.78,1.23-0.59,2.82-0.6,4.21c-0.02,1.87-0.01,3.74,0,5.61
		c0.01,2.41-0.87,6.44,2.42,6.89c1.47,0.2,3.01,0.09,4.49,0.1c1.99,0.01,3.98,0.01,5.97,0c3.66-0.02,7.31-0.06,10.96-0.09
		c1.05-0.01,2.27,0.12,3.16-0.56c1.11-0.86,0.89-2.42,0.91-3.64c0.02-2.65,0.03-5.29-0.01-7.93C27.98,12.4,28.3,10.46,27.69,9.17z
		 M26.31,24.24c-0.51,0.46-1.47,0.31-2.1,0.32c-5.73,0.04-11.46,0.12-17.19,0.08c-1.39-0.01-2.84,0.09-4.22-0.07
		c-1.86-0.23-1.32-2.9-1.32-4.26c-0.01-2.97-0.08-5.96,0.04-8.93c0.04-1.07,0.27-1.74,1.5-1.93c0.75-0.11,1.6-0.04,2.36-0.06
		C6.6,9.36,7.83,9.34,9.05,9.33c2.35-0.02,4.69,0.01,7.04,0.03c1.97,0.02,3.94-0.04,5.91-0.08c1.02-0.02,2.06-0.09,3.08-0.06
		c0.9,0.03,1.31,0.26,1.49,1.17c0.14,0.74,0.04,1.62,0.05,2.37c0.04,2.06,0.06,4.13,0.05,6.19c-0.01,1.15-0.02,2.3-0.03,3.46
		C26.64,22.97,26.78,23.81,26.31,24.24z"/>
	<path class="st0" d="M17.2,12.67c-0.49-0.36-1.06-0.63-1.65-0.81c-0.31-0.09-0.62-0.14-0.93-0.18c-0.23-0.03-0.49,0-0.65-0.02
		c-0.02,0-0.04,0-0.07,0c-0.04-0.01-0.07-0.02-0.11-0.02c-2.45-0.02-4.54,1.77-5,4.15c-0.4,2.09,0.33,4.27,2.09,5.52
		c1.66,1.18,4.01,1.32,5.8,0.36c2.1-1.13,3.11-3.6,2.61-5.89C19.01,14.51,18.24,13.43,17.2,12.67z M16.6,20.08
		c-1.19,0.97-2.91,1.11-4.29,0.49c-1.47-0.66-2.3-2.11-2.28-3.7c0.03-2.09,1.6-3.88,3.75-3.87c0.02,0,0.03-0.01,0.04-0.01
		c0.27,0.02,0.53,0.02,0.8,0.06c0.45,0.07,0.89,0.21,1.29,0.42c0.76,0.4,1.38,1.01,1.76,1.78C18.48,16.88,17.99,18.94,16.6,20.08z"
		/>
	<path class="st0" d="M24.16,10.89c-0.53-0.26-1.07-0.27-1.65-0.17c-0.44,0.09-0.87,0.29-1.19,0.61c-0.35,0.35-0.53,0.81-0.56,1.29
		c-0.06,0.87,0.51,1.76,1.3,2.11c0.82,0.36,1.88,0.22,2.58-0.34c0.67-0.53,0.85-1.63,0.54-2.4C24.99,11.51,24.64,11.12,24.16,10.89z
		 M22.2,13.03C22.21,13.06,22.23,13.13,22.2,13.03L22.2,13.03z M23.96,12.92c0,0,0,0.02,0,0.04c0,0.01,0,0.01-0.01,0.02
		c-0.02,0.07-0.04,0.14-0.06,0.21c-0.01,0.03-0.04,0.07-0.04,0.08c-0.01,0.02-0.02,0.03-0.03,0.05c0,0,0,0,0,0
		c-0.02,0.02-0.04,0.03-0.05,0.05c-0.04,0.02-0.12,0.07-0.13,0.07c-0.01,0,0,0-0.01,0.01c-0.01,0-0.01,0-0.04,0.01
		c-0.07,0.03-0.15,0.05-0.23,0.07c-0.02,0-0.08,0.02-0.14,0.03c0,0,0,0-0.02,0c-0.04,0-0.07,0.01-0.11,0.01c-0.06,0-0.12,0-0.18,0
		c-0.02,0-0.05,0-0.07-0.01c-0.01,0-0.02-0.01-0.03-0.01c-0.03-0.01-0.07-0.02-0.1-0.03c0,0,0,0-0.01,0
		c0.04,0.01-0.02-0.01-0.05-0.02c-0.02-0.01-0.04-0.02-0.06-0.03c-0.03-0.02-0.05-0.03-0.08-0.05c-0.01-0.01-0.01-0.01-0.02-0.01
		c-0.04-0.03-0.08-0.08-0.11-0.11c-0.01-0.02-0.03-0.03-0.04-0.05c-0.02-0.04-0.07-0.1-0.09-0.14c-0.02-0.03-0.03-0.06-0.05-0.09
		c0,0,0,0,0,0c-0.02-0.07-0.04-0.14-0.06-0.22c0,0,0-0.01,0-0.01c0-0.05,0-0.1,0-0.15c0-0.01,0-0.04,0.01-0.06
		c0.01-0.02,0.01-0.05,0.01-0.06c0-0.01,0.01-0.03,0.01-0.06c0.01-0.02,0.02-0.04,0.03-0.06c0.02-0.03,0.04-0.06,0.05-0.09
		c0,0,0,0,0.01-0.01c0.02-0.02,0.05-0.05,0.07-0.07c0.01-0.01,0.01-0.01,0.02-0.02c0.05-0.04,0.13-0.08,0.17-0.1
		c0.01,0,0.02-0.01,0.04-0.02c0.03-0.01,0.06-0.02,0.07-0.02c0.08-0.03,0.17-0.05,0.26-0.07c0.02,0,0.02,0,0.03,0
		c0.02,0,0.04,0,0.06-0.01c0.08-0.01,0.16-0.01,0.25-0.01c0.02,0,0.05,0,0.07,0c0,0,0,0,0,0c0.07,0.02,0.14,0.04,0.21,0.06
		c0.01,0.01,0.08,0.04,0.11,0.05c0.03,0.02,0.06,0.03,0.08,0.05c0,0,0.01,0.01,0.02,0.01c0.02,0.02,0.08,0.07,0.09,0.08
		c0,0,0.02,0.02,0.04,0.03c0.01,0.01,0.02,0.03,0.03,0.04c0.02,0.03,0.03,0.06,0.05,0.09c0.02,0.05,0.03,0.1,0.05,0.15
		c0,0.01,0,0.01,0,0.01c0,0.03,0.01,0.05,0.01,0.06C23.97,12.76,23.96,12.84,23.96,12.92z"/>
	<path class="st0" d="M17.28,5.23c0.17,0.12,0.37,0.19,0.56,0.11c1.26-0.31,2.64,0.08,3.57,1.04c0.24,0.24,0.64,0.26,0.9,0.05
		c0.28-0.22,0.33-0.57,0.18-0.88c-0.09-0.19-0.22-0.65-0.23-0.83c-0.01-0.17-0.01-0.34,0-0.51c0.01-0.15,0.01-0.19,0.06-0.39
		c0.08-0.36,0.15-0.54,0.33-0.84C22.8,2.7,23,2.48,23.29,2.24c0.26-0.21,0.25-0.66,0.05-0.9c-0.23-0.29-0.56-0.32-0.88-0.18
		c-0.64,0.28-1.4,0.4-2.09,0.22c-0.59-0.16-1.06-0.51-1.35-1.05c-0.17-0.33-0.62-0.43-0.93-0.24c-0.34,0.2-0.4,0.6-0.24,0.93
		C18,1.34,18.1,1.71,18.18,2.05c0.06,0.25,0.09,0.67,0.05,0.89c0.01-0.06-0.03,0.13-0.04,0.15c-0.01,0.05-0.03,0.09-0.05,0.14
		c-0.01,0.02-0.05,0.11-0.06,0.11c-0.04,0.07-0.08,0.14-0.13,0.21c-0.06,0.1-0.12,0.17-0.24,0.29c0,0-0.17,0.14-0.09,0.08
		c-0.02,0.02-0.23,0.13-0.15,0.1c-0.22,0.05-0.38,0.23-0.45,0.44c-0.05,0.12-0.07,0.25-0.03,0.4C17.04,5.02,17.15,5.15,17.28,5.23z
		 M19.54,3.32c0.05-0.25,0.07-0.51,0.07-0.77c0.13,0.05,0.27,0.12,0.4,0.15c0.4,0.11,0.79,0.13,1.19,0.11
		C21,3.31,20.9,3.84,20.89,4.37c-0.49-0.23-1.02-0.38-1.56-0.45C19.42,3.73,19.5,3.53,19.54,3.32z"/>
	<path class="st0" d="M30.25,2.42c-0.14-0.32-0.46-0.46-0.81-0.4c-0.59,0.12-1.22,0.08-1.78-0.19c-0.12-0.06-0.25-0.13-0.36-0.2
		c-0.02-0.01-0.09-0.07-0.12-0.08c-0.02-0.02-0.09-0.08-0.11-0.09c-0.05-0.04-0.09-0.09-0.13-0.14c-0.02-0.02-0.03-0.05-0.05-0.07
		c-0.01-0.02-0.09-0.17-0.07-0.13c0.01,0.03-0.05-0.15-0.06-0.18c-0.1-0.36-0.48-0.57-0.84-0.48c-0.37,0.1-0.56,0.48-0.48,0.84
		c0.06,0.27,0.08,0.58,0.09,0.87c0,0.19-0.07,0.48-0.15,0.62c-0.13,0.25-0.16,0.29-0.38,0.49c-0.07,0.06-0.02,0.02-0.07,0.06
		c-0.05,0.04-0.11,0.07-0.16,0.1c-0.07,0.04-0.17,0.08-0.32,0.1c-0.02,0-0.04,0.02-0.06,0.03c-0.01,0.01-0.03,0.01-0.04,0.02
		c-0.07,0.03-0.14,0.07-0.19,0.13c-0.01,0.01-0.01,0.02-0.02,0.02c-0.04,0.05-0.08,0.1-0.11,0.16c-0.02,0.05-0.04,0.1-0.05,0.15
		c-0.01,0.03-0.02,0.06-0.02,0.09c0,0.02-0.01,0.03-0.01,0.05c0,0.03,0.01,0.06,0.02,0.09c0,0.03,0,0.06,0.01,0.09
		c0,0.02,0.02,0.03,0.02,0.05c0.01,0.03,0.03,0.06,0.05,0.1c0.03,0.05,0.05,0.1,0.09,0.14c0.03,0.03,0.07,0.05,0.1,0.08
		c0.03,0.02,0.05,0.04,0.08,0.05c0.1,0.05,0.2,0.09,0.32,0.09c1.12-0.02,2.21,0.55,2.81,1.52c0.41,0.66,1.43,0.23,1.25-0.53
		c-0.05-0.21-0.05-0.15-0.06-0.37c-0.01-0.13,0-0.26,0.01-0.38c0.01-0.02,0.03-0.17,0.03-0.19c0.01-0.07,0.03-0.13,0.05-0.2
		c0.02-0.07,0.04-0.13,0.07-0.2c0.01-0.04,0.02-0.05,0.02-0.06c0.01-0.02,0.02-0.04,0.03-0.06c0.07-0.14,0.14-0.27,0.22-0.39
		c0.09-0.13,0.08-0.12,0.22-0.27c0.23-0.24,0.35-0.32,0.67-0.48C30.27,3.12,30.38,2.71,30.25,2.42z M27.43,4.4
		c-0.33-0.24-0.69-0.44-1.07-0.58c0.08-0.11,0.16-0.22,0.22-0.34c0.09-0.19,0.16-0.38,0.21-0.58c0.06,0.04,0.12,0.08,0.19,0.11
		c0.31,0.15,0.62,0.24,0.93,0.31C27.7,3.65,27.53,4.02,27.43,4.4z"/>
</g>
</svg>
