<?xml version="1.0" encoding="utf-8"?>
<!-- Generator: Adobe Illustrator 25.4.1, SVG Export Plug-In . SVG Version: 6.00 Build 0)  -->
<svg version="1.1" id="레이어_1" xmlns="http://www.w3.org/2000/svg" xmlns:xlink="http://www.w3.org/1999/xlink" x="0px"
	 y="0px" viewBox="0 0 15.9 18.13" style="enable-background:new 0 0 15.9 18.13;" xml:space="preserve">
<style type="text/css">
	.st0{fill:#282828;}
</style>
<g>
	<path class="st0" d="M6.29,13.24c0.47,0.44,1.08,1.24,1.8,1.23c0.69,0,1.34-0.66,1.82-1.1c0.62-0.56,1.21-1.16,1.81-1.74
		c1.35-1.33,2.68-2.67,3.99-4.04c0.61-0.63-0.36-1.6-0.97-0.97c-1.09,1.13-2.18,2.25-3.3,3.36c-0.56,0.55-1.12,1.1-1.68,1.65
		c-0.15,0.14-0.52,0.58-0.89,0.93C8.9,8.6,8.94,4.63,8.97,0.66c0.01-0.88-1.36-0.88-1.36,0C7.57,4.61,7.54,8.56,7.5,12.51
		c-0.05-0.06-0.1-0.11-0.14-0.14c-0.31-0.29-0.62-0.57-0.93-0.86c-0.58-0.54-1.16-1.09-1.74-1.64C3.51,8.73,2.34,7.59,1.17,6.44
		C0.54,5.82-0.42,6.79,0.2,7.4c1.33,1.32,2.68,2.62,4.04,3.91C4.92,11.96,5.61,12.6,6.29,13.24z"/>
	<path class="st0" d="M15.9,15.05c0-0.88-1.36-0.88-1.36,0c0,0.55,0,1.1,0,1.65c-4.27,0.09-8.55,0.07-12.82-0.08
		c0.01-0.49,0.02-0.97,0.03-1.46c0.02-0.88-1.34-0.88-1.36,0c-0.02,0.71-0.03,1.42-0.05,2.13c-0.01,0.38,0.32,0.67,0.68,0.68
		c4.73,0.18,9.47,0.21,14.2,0.09c0.37-0.01,0.68-0.31,0.68-0.68C15.9,16.6,15.9,15.83,15.9,15.05z"/>
</g>
</svg>
