<?xml version="1.0" encoding="utf-8"?>
<!-- Generator: Adobe Illustrator 26.0.1, SVG Export Plug-In . SVG Version: 6.00 Build 0)  -->
<svg version="1.1" id="레이어_1" xmlns="http://www.w3.org/2000/svg" xmlns:xlink="http://www.w3.org/1999/xlink" x="0px"
	 y="0px" viewBox="0 0 20.8 23.61" style="enable-background:new 0 0 20.8 23.61;" xml:space="preserve">
<style type="text/css">
	.st0{fill:#282828;}
	.st1{fill:#E61E6E;}
</style>
<g>
	<path class="st0" d="M19.93,18.52c-1.42-1.81-2.94-3.62-4.59-5.24c0.88-1.28,1.41-2.68,1.41-4.3c0-1.99-0.83-3.88-2.07-5.4
		C12.93,1.43,10.22,0.03,7.42,0C4.71-0.03,2.15,1.38,0.95,3.85c-1.51,3.12-1.24,6.81,0.96,9.51c2.33,2.86,6.4,3.43,9.81,2.44
		c0.02,0.03,0.04,0.06,0.06,0.09c1.48,2.57,3.01,5.19,4.87,7.5c0.22,0.27,0.7,0.3,0.98,0.13c0.97-0.61,2.17-1.25,2.86-2.2
		C21.19,20.34,20.58,19.34,19.93,18.52z M18.16,21.23c-0.24,0.17-0.49,0.32-0.74,0.48c-1.59-2.07-2.94-4.4-4.23-6.65
		c-0.14-0.21-0.27-0.42-0.41-0.64c-0.19-0.29-0.57-0.49-0.92-0.37c-2.42,0.84-5.63,0.91-7.73-0.75c-2.47-1.95-3-5.15-2.02-8.01
		c1.61-4.7,7.49-4.38,10.6-1.45c1.25,1.18,2.18,2.74,2.39,4.46c0.22,1.8-0.45,3.28-1.51,4.67c-0.21,0.27-0.11,0.76,0.13,0.98
		c1.48,1.39,2.68,2.97,4.01,4.49c0.34,0.38,1.53,1.46,1.46,1.91C19.14,20.66,18.38,21.07,18.16,21.23z"/>
	<g>
		<g>
			<path class="st1" d="M9.92,12.48c-0.87,0.19-1.71,0.26-2.57-0.02c-1.02-0.33-2.02-1.05-2.69-1.88c-1.2-1.47-1.28-3.73-0.14-5.27
				C5.65,3.79,7.84,3.33,9.5,4.17c1.73,0.87,3.27,2.61,3.32,4.62c0.02,0.84-0.18,1.85-0.82,2.45C11.45,11.77,10.66,12.3,9.92,12.48
				c-0.84,0.21-0.49,1.52,0.36,1.31c0.95-0.24,1.83-0.88,2.57-1.51c0.76-0.64,1.14-1.7,1.27-2.67c0.34-2.59-1.2-4.84-3.29-6.23
				C8.72,1.96,5.83,2.09,3.97,3.9c-1.76,1.71-2.09,4.63-0.89,6.74c0.73,1.29,2.01,2.31,3.36,2.9c1.26,0.55,2.53,0.53,3.85,0.24
				C11.14,13.6,10.78,12.3,9.92,12.48z"/>
		</g>
	</g>
</g>
</svg>
