<?xml version="1.0" encoding="utf-8"?>
<!-- Generator: Adobe Illustrator 26.0.1, SVG Export Plug-In . SVG Version: 6.00 Build 0)  -->
<svg version="1.1" id="레이어_1" xmlns="http://www.w3.org/2000/svg" xmlns:xlink="http://www.w3.org/1999/xlink" x="0px"
	 y="0px" viewBox="0 0 19.35 23.3" style="enable-background:new 0 0 19.35 23.3;" xml:space="preserve">
<style type="text/css">
	.st0{fill:#B4B4B4;}
</style>
<path class="st0" d="M19.16,9.8c-0.25-1.62-1.29-3.07-2.27-4.33c-1.11-1.45-2.34-2.79-3.79-3.92c-0.8-0.62-1.87-1.5-2.94-1.55
	C8.9-0.05,7.75,0.91,6.86,1.69C5.67,2.74,4.58,3.94,3.49,5.1C2.33,6.32,1.17,7.65,0.53,9.22c-0.79,1.94-0.46,4.24-0.48,6.29
	c-0.02,2.37-0.04,4.74-0.04,7.11c0,0.18,0.06,0.31,0.15,0.41c0.02,0.03,0.03,0.05,0.06,0.07c0,0,0.01,0,0.01,0.01
	c0.11,0.11,0.26,0.19,0.46,0.18c5.94-0.06,11.89,0.04,17.83-0.02c0.37,0,0.67-0.31,0.68-0.68c0.02-2.19,0.07-4.39,0.09-6.58
	C19.31,13.99,19.47,11.81,19.16,9.8z M7.78,16.42c0.03-0.7,0.01-1.39,0.06-2.09c0.04-0.51,0.11-1.11,0.45-1.51
	c0.4-0.47,1.09-0.5,1.66-0.53c0.52-0.03,1.1-0.05,1.59,0.17c0.44,0.2,0.62,0.62,0.71,1.07c0.15,0.75,0.09,1.57,0.1,2.34
	c0.03,2.02,0.03,4.05,0.03,6.07c-1.55,0-3.1-0.01-4.65-0.01C7.71,20.1,7.7,18.26,7.78,16.42z M13.73,21.95c0-2.08,0-4.17-0.03-6.25
	c-0.02-1.47,0.14-3.36-1.26-4.29c-0.55-0.36-1.23-0.47-1.88-0.49c-0.83-0.02-1.77,0.03-2.52,0.42c-1.4,0.72-1.55,2.39-1.58,3.79
	c-0.05,2.27-0.09,4.53-0.08,6.8c-1.67,0-3.33,0-5,0.01c0.01-3.31,0.05-6.63,0.05-9.94c0.01-3.3,2.56-5.47,4.69-7.69
	C7.04,3.35,8.01,2.26,9.2,1.64c1.09-0.56,1.88,0.09,2.78,0.75c1.31,0.97,2.45,2.16,3.47,3.43c0.93,1.16,2.1,2.6,2.36,4.11
	c0.34,1.95,0.14,4.12,0.13,6.09c-0.02,1.97-0.06,3.94-0.08,5.91C16.48,21.94,15.1,21.95,13.73,21.95z"/>
</svg>
