<?xml version="1.0" encoding="utf-8"?>
<!-- Generator: Adobe Illustrator 26.0.1, SVG Export Plug-In . SVG Version: 6.00 Build 0)  -->
<svg version="1.1" id="레이어_1" xmlns="http://www.w3.org/2000/svg" xmlns:xlink="http://www.w3.org/1999/xlink" x="0px"
	 y="0px" viewBox="0 0 19.69 23.49" style="enable-background:new 0 0 19.69 23.49;" xml:space="preserve">
<style type="text/css">
	.st0{fill:#B0B0B0;}
</style>
<g>
	<path class="st0" d="M17.21,15.85c-1.11-1.96-2.6-3.33-4.45-4.48c1.82-1.39,2.95-3.11,3.13-5.57c0.17-2.42-1.22-4.58-3.51-5.39
		C10.12-0.41,7.14,0,5.36,1.67c-1.49,1.4-2.12,3.56-1.84,5.55c0.27,1.93,1.41,3.53,3.05,4.45c-2.21,1.4-4.01,3.42-5.18,5.77
		C0.61,19-0.01,21.06,0,22.81c0,0.37,0.31,0.68,0.68,0.68c5.05-0.01,10.1-0.01,15.14,0c1.07,0,2.13,0,3.2,0
		c0.47,0,0.73-0.43,0.65-0.86C19.27,20.24,18.41,17.96,17.21,15.85z M8.42,12.18c0.54-0.27,0.37-1.09-0.16-1.24
		C4.05,9.73,3.5,3.15,7.87,1.72c2.38-0.78,5.68-0.31,6.51,2.42c0.38,1.26,0.13,2.78-0.42,3.95c-0.57,1.23-1.67,2.02-2.78,2.73
		c-0.42,0.27-0.46,0.91,0,1.17c2.09,1.16,3.73,2.49,4.9,4.59c0.98,1.74,1.68,3.6,2.11,5.54c-0.79,0-1.57,0-2.36,0
		c-4.81-0.01-9.61-0.01-14.42,0c0.12-1.35,0.58-2.86,1.15-4.01C3.83,15.56,5.85,13.45,8.42,12.18z"/>
	<path class="st0" d="M7.33,5.01C7.31,5.02,7.32,5.02,7.38,4.99c0,0-0.01,0-0.01,0.01C7.35,5,7.34,5.01,7.33,5.01z"/>
	<path class="st0" d="M9.74,5.49C9.72,4.6,9.05,3.86,8.2,3.64c-0.76-0.2-1.57,0.07-2.13,0.61C5.74,4.58,5.51,5.06,5.55,5.54
		c0.03,0.35,0.29,0.69,0.68,0.68C6.57,6.2,6.93,5.92,6.9,5.54c0-0.04,0-0.08,0-0.12C6.91,5.4,6.91,5.38,6.92,5.36
		C6.91,5.38,6.9,5.39,6.9,5.39c0,0,0,0,0,0c0-0.01,0.01-0.02,0.02-0.04c0-0.01,0.01-0.03,0.01-0.04c0,0.01-0.01,0.03-0.01,0.04
		C6.94,5.32,6.96,5.3,6.97,5.27c0,0,0,0,0,0c0.05-0.05,0.1-0.09,0.15-0.14c0,0,0,0,0,0c0.03-0.02,0.07-0.04,0.1-0.06
		c0.03-0.02,0.07-0.04,0.1-0.05C7.34,5.01,7.35,5,7.37,4.99C7.38,4.98,7.4,4.98,7.42,4.97C7.4,4.98,7.39,4.98,7.38,4.99
		c0.01,0,0.02-0.01,0.02-0.01c0.03-0.01,0.06-0.02,0.09-0.03c0.03-0.01,0.06-0.02,0.09-0.02c0.06,0,0.12,0,0.19,0
		c0.03,0.01,0.07,0.01,0.1,0.02c0.04,0.01,0.07,0.02,0.1,0.03C8.03,5.02,8.1,5.06,8.17,5.1c0.01,0.01,0,0,0.01,0.01
		c0.03,0.02,0.05,0.05,0.08,0.08c0,0,0.01,0.01,0.01,0.01c0,0,0.05,0.07,0.06,0.08c0.01,0.02,0.02,0.04,0.03,0.06
		c0,0.02,0.01,0.03,0.01,0.05C8.37,5.4,8.38,5.42,8.38,5.44c0,0.02,0,0.03,0,0.05c0.01,0.35,0.31,0.69,0.68,0.68
		C9.42,6.15,9.74,5.87,9.74,5.49z M7.58,4.93C7.58,4.93,7.58,4.93,7.58,4.93C7.64,4.91,7.7,4.92,7.58,4.93z"/>
	<polygon class="st0" points="6.92,5.35 6.92,5.36 6.92,5.35 6.92,5.35 	"/>
	<path class="st0" d="M11.77,5.16C11.77,5.16,11.77,5.16,11.77,5.16c0.03-0.03,0.05-0.05,0.05-0.05c0,0,0,0,0,0
		C11.8,5.12,11.78,5.14,11.77,5.16z"/>
	<path class="st0" d="M12.6,4.98C12.55,4.95,12.5,4.95,12.6,4.98L12.6,4.98z"/>
	<path class="st0" d="M12.44,4.93C12.42,4.93,12.41,4.93,12.44,4.93L12.44,4.93z"/>
	<path class="st0" d="M10.49,6.09c0.29,0.15,0.78,0.1,0.93-0.24c0.07-0.17,0.15-0.33,0.23-0.49c0.04-0.07,0.08-0.13,0.12-0.19
		c-0.01,0.01-0.01,0.02-0.03,0.03c0.01-0.01,0.02-0.02,0.03-0.04c0,0,0,0,0,0c0.02-0.03,0.04-0.05,0.05-0.05
		c0.02-0.02,0.04-0.04,0.06-0.05c0.04-0.02,0.07-0.04,0.11-0.07c0.02-0.01,0.05-0.02,0.07-0.02c0.04-0.01,0.07-0.02,0.11-0.02
		c0.08-0.01,0.16-0.01,0.24-0.01c0.04,0,0.08,0.01,0.12,0.01c-0.05,0-0.07,0-0.09,0c0.02,0,0.05,0,0.08,0.01
		c0.04,0.01,0.08,0.03,0.12,0.04c-0.02,0-0.02-0.01-0.04-0.01c0,0,0,0,0.01,0c0.01,0.01,0.03,0.02,0.04,0.03
		c0.01,0,0.02,0.01,0.05,0.03c0.01,0.01,0.02,0.02,0.03,0.02c-0.01,0-0.01-0.01-0.02-0.01c0.03,0.03,0.06,0.06,0.09,0.09
		c0,0,0.01,0.01,0.01,0.01C12.8,5.13,12.8,5.13,12.78,5.1c0.01,0.02,0.02,0.03,0.03,0.05c0.02,0.03,0.04,0.06,0.02,0.04
		c0.03,0.04,0.05,0.08,0.08,0.12c0.02,0.03,0.03,0.06,0.05,0.09c0.01,0.01,0.01,0.02,0.02,0.04c-0.01-0.02-0.01-0.02-0.02-0.05
		c0.01,0.02,0.01,0.04,0.02,0.06c0,0,0,0,0,0c0.02,0.05,0.03,0.09,0.05,0.14c0.1,0.34,0.48,0.59,0.83,0.47
		c0.34-0.11,0.58-0.47,0.47-0.83c-0.13-0.42-0.35-0.85-0.68-1.15c-0.41-0.37-0.94-0.55-1.49-0.5c-0.48,0.04-0.92,0.19-1.27,0.53
		c-0.3,0.29-0.49,0.68-0.65,1.06c-0.07,0.17-0.12,0.33-0.07,0.52C10.22,5.84,10.34,6.01,10.49,6.09z"/>
	<path class="st0" d="M12.97,5.43C13,5.51,13,5.49,12.98,5.44c0,0,0,0,0,0C12.98,5.44,12.98,5.44,12.97,5.43z"/>
	<path class="st0" d="M12.81,5.15c0.01,0.02,0.02,0.03,0.03,0.04C12.83,5.18,12.82,5.16,12.81,5.15
		C12.81,5.15,12.81,5.15,12.81,5.15z"/>
	<path class="st0" d="M12.7,5.03C12.68,5.02,12.67,5.02,12.65,5C12.64,5,12.65,5.02,12.7,5.03C12.71,5.04,12.7,5.04,12.7,5.03
		C12.7,5.03,12.7,5.03,12.7,5.03z"/>
</g>
</svg>
