<?xml version="1.0" encoding="utf-8"?>
<!-- Generator: Adobe Illustrator 24.3.0, SVG Export Plug-In . SVG Version: 6.00 Build 0)  -->
<svg version="1.1" id="Layer_1" xmlns="http://www.w3.org/2000/svg" xmlns:xlink="http://www.w3.org/1999/xlink" x="0px" y="0px"
	 viewBox="0 0 55 55" style="enable-background:new 0 0 55 55;" xml:space="preserve">
<style type="text/css">
	.st0{fill:#FFFFFF;}
</style>
<g>
	<g>
		<path class="st0" d="M11.13,19.32H4.58c-2.2,0-4-1.79-4-4V9.76h10.54c0.49,0,0.88,0.39,0.88,0.88c0,0.49-0.39,0.88-0.88,0.88H2.35
			v3.8c0,1.23,1,2.24,2.24,2.24h6.55c0.49,0,0.88,0.39,0.88,0.88S11.61,19.32,11.13,19.32z"/>
		<path class="st0" d="M7.39,37.71c-3.06,0-5.56-2.49-5.56-5.55c0-3.06,2.49-5.56,5.56-5.56c3.06,0,5.55,2.49,5.55,5.56
			C12.94,35.21,10.45,37.71,7.39,37.71z M7.39,28.36c-2.09,0-3.8,1.7-3.8,3.8c0,2.09,1.7,3.8,3.8,3.8c2.09,0,3.8-1.7,3.8-3.8
			C11.18,30.06,9.48,28.36,7.39,28.36z"/>
		<path class="st0" d="M17.05,23.99H9.41c-2.12,0-3.84-1.72-3.84-3.84v-1.41c0-0.49,0.39-0.88,0.88-0.88s0.88,0.39,0.88,0.88v1.41
			c0,1.15,0.93,2.08,2.08,2.08h7.64c0.49,0,0.88,0.39,0.88,0.88C17.93,23.6,17.54,23.99,17.05,23.99z"/>
	</g>
	<g>
		<path class="st0" d="M32.63,46.8H20.17c-0.49,0-0.88-0.39-0.88-0.88c0-0.49,0.39-0.88,0.88-0.88h12.47c0.49,0,0.88,0.39,0.88,0.88
			C33.51,46.41,33.12,46.8,32.63,46.8z"/>
		<path class="st0" d="M32.01,54.98c-0.28,0-0.56-0.13-0.73-0.38l-4.89-7.14l-5.04,7.15c-0.28,0.4-0.83,0.49-1.23,0.21
			c-0.4-0.28-0.49-0.83-0.21-1.23l6.5-9.22l6.33,9.23c0.27,0.4,0.17,0.95-0.23,1.22C32.36,54.93,32.18,54.98,32.01,54.98z"/>
		<path class="st0" d="M26.4,46.18c-0.49,0-0.88-0.39-0.88-0.88v-2.49c0-0.49,0.39-0.88,0.88-0.88s0.88,0.39,0.88,0.88v2.49
			C27.28,45.79,26.89,46.18,26.4,46.18z"/>
		<path class="st0" d="M30.76,36.2c-0.49,0-0.88-0.39-0.88-0.88v-3.24c0-0.82-0.67-1.49-1.49-1.49H16.43
			c-0.49,0-0.88-0.39-0.88-0.88c0-0.49,0.39-0.88,0.88-0.88h11.96c1.79,0,3.25,1.46,3.25,3.25v3.24
			C31.64,35.81,31.25,36.2,30.76,36.2z"/>
		<path class="st0" d="M22.66,34.96c-0.49,0-0.88-0.39-0.88-0.88v-3.74c0-0.49,0.39-0.88,0.88-0.88s0.88,0.39,0.88,0.88v3.74
			C23.54,34.56,23.15,34.96,22.66,34.96z"/>
		<path class="st0" d="M26.4,40.57c-0.49,0-0.88-0.39-0.88-0.88v-4.36c0-0.49,0.39-0.88,0.88-0.88s0.88,0.39,0.88,0.88v4.36
			C27.28,40.17,26.89,40.57,26.4,40.57z"/>
		<path class="st0" d="M33.88,40.57H15.8c-0.49,0-0.88-0.39-0.88-0.88s0.39-0.88,0.88-0.88h18.08c0.49,0,0.88,0.39,0.88,0.88
			S34.37,40.57,33.88,40.57z"/>
	</g>
	<path class="st0" d="M30.25,24.62h-6.55c-2.2,0-4-1.79-4-4v-5.91c0-0.49,0.39-0.88,0.88-0.88s0.88,0.39,0.88,0.88v5.91
		c0,1.23,1,2.24,2.24,2.24h6.55c0.49,0,0.88,0.39,0.88,0.88C31.13,24.22,30.74,24.62,30.25,24.62z"/>
	<path class="st0" d="M33.33,18.38h-4.67c-0.49,0-0.88-0.39-0.88-0.88c0-0.49,0.39-0.88,0.88-0.88h4.67c0.49,0,0.88,0.39,0.88,0.88
		C34.21,17.99,33.81,18.38,33.33,18.38z"/>
	<path class="st0" d="M39.51,26.49c-0.49,0-0.88-0.39-0.88-0.88V8.77c0-0.49,0.39-0.88,0.88-0.88c0.49,0,0.88,0.39,0.88,0.88v16.83
		C40.39,26.09,39.99,26.49,39.51,26.49z"/>
	<path class="st0" d="M47.3,43.01c-0.31,0-0.6-0.16-0.77-0.45l-4.53-8l-4.53,8c-0.24,0.42-0.77,0.57-1.2,0.33
		c-0.42-0.24-0.57-0.78-0.33-1.2l4.98-8.8c0.22-0.39,0.63-0.63,1.08-0.63c0.45,0,0.86,0.24,1.08,0.63l4.98,8.79
		c0.24,0.42,0.09,0.96-0.33,1.2C47.6,42.97,47.45,43.01,47.3,43.01z M41.55,33.76L41.55,33.76L41.55,33.76z M42.45,33.76
		L42.45,33.76C42.45,33.76,42.45,33.76,42.45,33.76z"/>
	<path class="st0" d="M53.35,42.2c-0.49,0-0.88-0.39-0.88-0.88v-10.6c0-0.49,0.39-0.88,0.88-0.88c0.49,0,0.88,0.39,0.88,0.88v10.6
		C54.23,41.81,53.84,42.2,53.35,42.2z"/>
	<path class="st0" d="M52.26,54.76h-6.81c-1.19,0-2.15-0.97-2.15-2.15v-7.45c0-0.49,0.39-0.88,0.88-0.88c0.49,0,0.88,0.39,0.88,0.88
		v7.45c0,0.22,0.18,0.39,0.39,0.39h6.81c0.22,0,0.39-0.18,0.39-0.39v-7.45c0-0.49,0.39-0.88,0.88-0.88c0.49,0,0.88,0.39,0.88,0.88
		v7.45C54.41,53.79,53.45,54.76,52.26,54.76z"/>
	<path class="st0" d="M53.53,50.08h-9.35c-0.49,0-0.88-0.39-0.88-0.88s0.39-0.88,0.88-0.88h9.35c0.49,0,0.88,0.39,0.88,0.88
		S54.02,50.08,53.53,50.08z"/>
	<path class="st0" d="M47.61,33.34h-6.33c-4.56,0-8.26-3.71-8.26-8.26V10.64c0-0.49,0.39-0.88,0.88-0.88c0.49,0,0.88,0.39,0.88,0.88
		v14.44c0,3.59,2.92,6.5,6.5,6.5h6.33c0.49,0,0.88,0.39,0.88,0.88C48.49,32.95,48.1,33.34,47.61,33.34z"/>
	<path class="st0" d="M26.62,4.44c-0.43-1.34-1.87-2.07-3.21-1.63c-0.15,0.05-0.29,0.11-0.42,0.18c0.03-0.15,0.04-0.3,0.04-0.46
		c0-1.4-1.14-2.54-2.54-2.54c-1.4,0-2.54,1.14-2.54,2.54c0,0.16,0.02,0.31,0.04,0.46c-0.13-0.07-0.27-0.13-0.42-0.18
		c-1.34-0.43-2.77,0.3-3.21,1.63c-0.43,1.34,0.3,2.77,1.63,3.21c0.15,0.05,0.3,0.08,0.45,0.1c-0.11,0.1-0.21,0.22-0.31,0.35
		c-0.83,1.14-0.57,2.73,0.56,3.55c1.14,0.83,2.73,0.57,3.55-0.56c0.09-0.13,0.17-0.26,0.23-0.4c0.07,0.14,0.14,0.27,0.23,0.4
		c0.83,1.14,2.42,1.39,3.55,0.56c1.14-0.83,1.39-2.42,0.56-3.55c-0.09-0.13-0.2-0.24-0.31-0.35c0.15-0.02,0.3-0.05,0.45-0.1
		C26.32,7.21,27.05,5.77,26.62,4.44z M20.49,8.39c-1.15,0-2.08-0.93-2.08-2.08c0-1.15,0.93-2.08,2.08-2.08
		c1.15,0,2.08,0.93,2.08,2.08C22.58,7.45,21.64,8.39,20.49,8.39z"/>
</g>
</svg>
