<?xml version="1.0" encoding="utf-8"?>
<!-- Generator: Adobe Illustrator 26.0.2, SVG Export Plug-In . SVG Version: 6.00 Build 0)  -->
<svg version="1.1" id="레이어_1" xmlns="http://www.w3.org/2000/svg" xmlns:xlink="http://www.w3.org/1999/xlink" x="0px"
	 y="0px" viewBox="0 0 21.62 24.91" style="enable-background:new 0 0 21.62 24.91;" xml:space="preserve">
<style type="text/css">
	.st0{fill:#E6E6E6;}
	.st1{fill:#282828;}
	.st2{fill:#DCFFFF;}
	.st3{fill:#FFE35A;}
</style>
<g>
	<g>
		<g>
			<path class="st0" d="M11.07,16.71c-2.87,1.13-7.41,1.1-9.89-3.6c-1.55-2.95-0.25-8.71,3.37-10.27c3.06-1.32,7.15-1.01,9.9,2.63
				c2.01,2.66,1.9,6.9-1.13,9.61c2.46,3.07,3.22,3.95,5.44,6.69c0.13,0.15,0.23,0.36,0.17,0.55c-0.04,0.12-0.15,0.21-0.25,0.29
				c-1.03,0.8-1.38,0.99-2.05,1.49c-0.21,0.16-0.46,0.34-0.72,0.27c-0.21-0.06-0.35-0.26-0.46-0.45c-1.56-2.57-2.35-3.84-4.15-6.82
				L11.07,16.71z"/>
		</g>
		<g>
			<g>
				<path class="st1" d="M10.92,16.18c-2.19,0.83-4.73,0.86-6.74-0.45c-2.39-1.55-3.45-4.24-3-7c0.43-2.66,1.93-5.01,4.61-5.76
					c2.88-0.81,5.88,0.08,7.84,2.34c2.45,2.82,1.97,6.89-0.7,9.38c-0.23,0.21-0.18,0.54,0,0.77c1.1,1.37,2.2,2.72,3.31,4.08
					c0.52,0.64,1.05,1.28,1.57,1.92c0.13,0.16,0.38,0.37,0.4,0.59c0.04,0.33-0.18,0.38-0.47,0.6c-0.28,0.21-0.57,0.4-0.85,0.6
					c-0.14,0.1-0.61,0.56-0.77,0.55c-0.31-0.03-0.61-0.78-0.75-1.02c-0.43-0.71-0.87-1.43-1.31-2.14c-0.85-1.39-1.7-2.79-2.53-4.19
					c-0.36-0.6-1.29-0.05-0.93,0.55c1.08,1.81,2.18,3.61,3.28,5.41c0.44,0.71,0.92,2.1,1.75,2.44c0.75,0.31,1.41-0.38,1.98-0.78
					c0.55-0.38,1.65-0.9,1.84-1.6c0.24-0.89-0.89-1.8-1.38-2.39c-1.46-1.79-2.93-3.58-4.37-5.38c0,0.26,0,0.51,0,0.77
					c2.53-2.35,3.42-6.08,1.85-9.23C14,3.11,10.49,1.27,7.06,1.63C3.9,1.96,1.61,3.81,0.56,6.8c-1.08,3.08-0.61,6.35,1.7,8.73
					c2.34,2.41,5.9,2.85,8.96,1.69C11.86,16.98,11.58,15.94,10.92,16.18z"/>
			</g>
		</g>
	</g>
	<g>
		<g>
			<path class="st2" d="M4.88,5.27C4.41,5.59,3.99,5.99,3.65,6.45C3.3,6.92,3.04,7.46,2.9,8.04c-0.49,2.08,0.07,4.29,1.67,5.73
				c0.84,0.76,1.9,1.23,3.02,1.34c0.43,0.04,0.87,0.03,1.31-0.03c1.66-0.23,3.15-1.25,3.96-2.7c0.46-0.81,0.69-1.75,0.68-2.68
				c0-1.22-0.4-2.43-1.15-3.39c-0.73-0.94-1.65-1.55-2.8-1.86C9.23,4.36,8.85,4.3,8.48,4.27C7.21,4.2,5.92,4.56,4.88,5.27z"/>
		</g>
		<g>
			<g>
				<path class="st1" d="M4.61,4.8C3.59,5.53,2.77,6.5,2.42,7.72c-0.32,1.12-0.31,2.36-0.01,3.48c0.64,2.39,2.7,4.21,5.18,4.45
					c2.35,0.23,4.74-1.05,5.82-3.16c1.18-2.3,0.74-5.22-1.08-7.07C10.3,3.37,6.97,3.24,4.61,4.8C4.03,5.18,4.57,6.12,5.16,5.74
					C6.89,4.6,9.2,4.45,10.94,5.66c1.75,1.21,2.45,3.55,1.83,5.56c-0.57,1.86-2.31,3.22-4.25,3.37c-2.04,0.15-3.96-1.02-4.8-2.88
					C2.79,9.63,3.26,7.08,5.16,5.74C5.72,5.34,5.18,4.4,4.61,4.8z"/>
			</g>
		</g>
	</g>
	<g>
		<g>
			<path class="st3" d="M7.35,20c-1.01,0.51-1.4,0.49-2.14,0.36c-0.74-0.14-1.22-0.42-1.78-0.87c0.19,1,0.34,1.15,0.27,1.8
				C3.63,22,3.3,22.62,2.73,23.13c0.58-0.2,1.58-0.5,2.18-0.38c0.64,0.13,1.12,0.34,1.56,1.01C5.88,22.51,6.25,20.86,7.35,20
				L7.35,20z"/>
		</g>
		<g>
			<g>
				<path class="st1" d="M7.08,19.53c-0.29,0.15-0.59,0.28-0.91,0.34c-0.03,0.01-0.07,0.01-0.1,0.02c0.06-0.01,0.06-0.01-0.01,0
					c-0.07,0-0.13,0.01-0.2,0c-0.16,0-0.22-0.01-0.3-0.03c-0.68-0.12-1.2-0.33-1.74-0.77c-0.42-0.34-1.01-0.03-0.9,0.53
					c0.06,0.32,0.14,0.64,0.22,0.96c0.01,0.06,0.02,0.12,0.04,0.18c0.01,0.03,0.01,0.16,0.01,0.03c0.01,0.12,0.01,0.23,0.01,0.35
					c-0.03,0.64-0.35,1.18-0.82,1.61c-0.39,0.36,0.02,1.08,0.53,0.9c0.59-0.2,1.21-0.41,1.82-0.38c0.07,0.01,0.08,0.01,0.02,0
					c0.04,0.01,0.08,0.01,0.12,0.02c0.06,0.01,0.12,0.03,0.18,0.04c0.16,0.04,0.26,0.08,0.37,0.13c0.26,0.14,0.44,0.31,0.62,0.57
					c0.4,0.58,1.22,0.08,0.93-0.55c-0.48-1.04-0.13-2.37,0.8-3.11c0.23-0.18,0.19-0.57,0-0.77c-0.23-0.23-0.54-0.18-0.77,0
					c-1.3,1.05-1.64,2.94-0.96,4.42c0.31-0.18,0.62-0.36,0.93-0.55c-0.48-0.7-1.14-1.15-1.99-1.27c-0.79-0.12-1.62,0.14-2.36,0.39
					c0.18,0.3,0.35,0.6,0.53,0.9c0.65-0.6,1.05-1.38,1.13-2.26c0.06-0.65-0.17-1.28-0.3-1.91c-0.3,0.18-0.6,0.35-0.9,0.53
					c0.69,0.55,1.4,0.92,2.28,1.05c0.37,0.06,0.71,0.07,1.08,0.01c0.43-0.07,0.84-0.27,1.22-0.46c0.26-0.13,0.33-0.5,0.19-0.74
					C7.66,19.46,7.34,19.4,7.08,19.53z"/>
			</g>
		</g>
	</g>
	<g>
		<g>
			<path class="st3" d="M19.16,0.54c-0.38,1.07-0.52,1.19-1.18,1.57c-0.65,0.38-1.36,0.45-2.12,0.46c0.87,0.68,1.1,0.7,1.53,1.26
				c0.48,0.62,0.69,1.34,0.64,2.13c0.29-0.54,0.82-1.45,1.35-1.75c0.57-0.32,0.88-0.57,1.7-0.33C19.85,3.25,19.05,1.94,19.16,0.54
				L19.16,0.54z"/>
		</g>
		<g>
			<g>
				<path class="st1" d="M18.64,0.4c-0.1,0.29-0.2,0.56-0.36,0.82c-0.06,0.09-0.16,0.18-0.31,0.28c-0.66,0.42-1.33,0.52-2.1,0.53
					c-0.24,0-0.46,0.17-0.52,0.4c-0.07,0.25,0.06,0.46,0.25,0.61c0.49,0.37,0.92,0.59,1.28,1.01c0.47,0.54,0.65,1.21,0.62,1.92
					C17.46,6.5,18.25,6.7,18.5,6.23c0.27-0.51,0.58-1.14,1.06-1.49c0.45-0.34,0.84-0.49,1.38-0.33c0.58,0.16,0.97-0.7,0.42-0.99
					c-1.07-0.57-1.74-1.65-1.65-2.88C19.73,0.25,19.44,0,19.16,0c-0.31,0-0.52,0.25-0.54,0.54c-0.11,1.58,0.8,3.08,2.19,3.81
					c0.14-0.33,0.28-0.66,0.42-0.99c-0.41-0.11-0.85-0.17-1.26-0.04c-0.33,0.1-0.68,0.29-0.96,0.48c-0.65,0.44-1.08,1.2-1.44,1.87
					c0.34,0.09,0.67,0.18,1.01,0.27c0.05-0.96-0.25-1.85-0.86-2.59c-0.43-0.53-1.04-0.86-1.58-1.27c-0.09,0.34-0.18,0.67-0.27,1.01
					c0.96-0.02,1.87-0.17,2.69-0.71c0.63-0.41,0.88-1.02,1.13-1.72c0.1-0.28-0.11-0.59-0.38-0.67C19.01-0.06,18.74,0.12,18.64,0.4z"
					/>
			</g>
		</g>
	</g>
</g>
</svg>
