<?xml version="1.0" encoding="utf-8"?>
<!-- Generator: Adobe Illustrator 25.4.1, SVG Export Plug-In . SVG Version: 6.00 Build 0)  -->
<svg version="1.1" id="레이어_1" xmlns="http://www.w3.org/2000/svg" xmlns:xlink="http://www.w3.org/1999/xlink" x="0px"
	 y="0px" viewBox="0 0 65.5 16.37" style="enable-background:new 0 0 65.5 16.37;" xml:space="preserve">
<style type="text/css">
	.st0{fill:#FFFFFF;}
</style>
<g>
	<g>
		<g>
			<rect x="29.35" y="0.09" class="st0" width="2.46" height="15.94"/>
		</g>
		<g>
			<polygon class="st0" points="25.97,5.05 21.86,5.05 21.86,6.97 25.97,6.97 25.97,15.76 28.26,15.76 28.26,0.37 25.97,0.37 			"/>
		</g>
		<g>
			<path class="st0" d="M19.95,0.64h-2.46v10.68v1.97c0,0,3.4,0.16,7.11-0.75v-1.97c-1.83,0.45-3.43,0.61-4.66,0.67V0.64z"/>
		</g>
	</g>
	<g>
		<g>
			<path class="st0" d="M65.5,14.05v-1.36l0,0v-1.64l0,0V9.43h-2.46v1.61h-8.46V9.43h-2.19v1.61h0v1.64h0v1.36h0v1.8h0h2.19h8.46
				h2.46l0,0V14.05L65.5,14.05z M54.58,14.05v-1.36h8.46v1.36H54.58z"/>
		</g>
		<g>
			<rect x="63.04" y="0.09" class="st0" width="2.46" height="8.25"/>
		</g>
		<g>
			<path class="st0" d="M56.48,4.7c0.85,2.18,3.91,3.58,5,3.7l0.57-1.91c0,0-4.02-1.37-4.24-4.31h3.85v-1.8h-10.1v1.8h3.59
				c-0.21,2.94-4.24,4.31-4.24,4.31l0.57,1.91C52.57,8.28,55.63,6.87,56.48,4.7"/>
		</g>
	</g>
	<g>
		<g>
			<polygon class="st0" points="44.1,3.08 41.91,3.08 41.91,5.86 34,5.86 34,7.77 49.3,7.77 49.3,5.86 44.1,5.86 			"/>
		</g>
		<g>
			<path class="st0" d="M45.75,5.04h2.41c0,0,0.47-2.64,0.32-4.94h-0.6h-1.8h-4.58v1.64h4.67C46.17,3.54,45.75,5.04,45.75,5.04z"/>
		</g>
		<g>
			<path class="st0" d="M37.68,5.04h2.41c0,0,0.47-2.64,0.32-4.94H40h-1.98h-3.38v1.64h3.47C38.1,3.54,37.68,5.04,37.68,5.04z"/>
		</g>
		<g>
			<path class="st0" d="M43.39,11.77h5.21V9.85h-5.72V8.58h-2.46v1.27h-5.75v1.91h5.2c-1.2,2.35-5.46,2.29-5.46,2.29
				s0,0.88,0.41,1.97c1.24,0.02,5.12-0.27,6.82-3.07c1.69,2.8,5.57,3.09,6.82,3.07c0.41-1.09,0.41-1.97,0.41-1.97
				S44.59,14.11,43.39,11.77z"/>
		</g>
	</g>
	<g>
		<polygon class="st0" points="8.88,5.46 13.94,5.46 13.94,3.62 3.55,3.62 3.55,1.9 13.94,1.9 13.94,0 3.55,0 1.37,0 1.36,0 
			1.36,5.46 1.37,5.46 3.55,5.46 6.42,5.46 6.42,7.01 0,7.01 0,8.93 6.42,8.93 8.88,8.93 15.3,8.93 15.3,7.01 8.88,7.01 		"/>
	</g>
	<g>
		<path class="st0" d="M7.65,10.03c-4.54,0-6.69,1.42-6.69,3.17s2.05,3.17,6.69,3.17c4.63,0,6.69-1.42,6.69-3.17
			S12.19,10.03,7.65,10.03z M7.65,14.35c-3.16,0-3.92-0.52-3.92-1.16c0-0.64,0.97-1.16,3.92-1.16s3.92,0.52,3.92,1.16
			C11.57,13.84,10.81,14.35,7.65,14.35z"/>
	</g>
</g>
</svg>
