<?xml version="1.0" encoding="utf-8"?>
<!-- Generator: Adobe Illustrator 25.4.1, SVG Export Plug-In . SVG Version: 6.00 Build 0)  -->
<svg version="1.1" id="레이어_1" xmlns="http://www.w3.org/2000/svg" xmlns:xlink="http://www.w3.org/1999/xlink" x="0px"
	 y="0px" viewBox="0 0 17.68 17.7" style="enable-background:new 0 0 17.68 17.7;" xml:space="preserve">
<style type="text/css">
	.st0{fill:#282828;}
</style>
<g>
	<path class="st0" d="M17.65,8.53c-0.02-0.78,0-1.56-0.55-2.18c-0.68-0.77-1.66-1.37-2.46-2.01c-1.65-1.31-3.3-2.64-4.96-3.94
		C9.06-0.07,8.51-0.17,7.85,0.34C7.08,0.93,6.38,1.65,5.62,2.26c-0.86,0.71-1.75,1.4-2.56,2.17c-0.83,0.79-1.81,1.6-2.53,2.49
		C0.51,6.93,0.51,6.95,0.5,6.97C0.48,6.99,0.46,7,0.44,7.03C-0.01,7.73,0.01,8.5,0,9.31c0,0.87,0,1.75,0,2.62
		c0,0.92,0.02,1.84,0.07,2.76c0.04,0.78-0.03,1.79,0.46,2.44c0.51,0.69,1.33,0.57,2.09,0.55c1.21-0.03,2.42-0.04,3.64-0.04
		c2.42,0,4.84,0.03,7.26-0.01c0.99-0.02,2.13,0.11,3.1-0.11c0.91-0.2,0.81-1.08,0.87-1.86C17.67,13.29,17.72,10.91,17.65,8.53z
		 M16.59,9.83c0.01,0.97,0,1.95-0.03,2.92c-0.03,0.86-0.07,1.73-0.13,2.59c-0.02,0.35,0.06,0.95-0.28,1.14
		c-0.35,0.19-1.25,0.05-1.64,0.06c-3.85,0.1-7.7-0.03-11.55,0.06c-0.47,0.01-1.07,0.15-1.44-0.15c-0.39-0.31-0.32-0.88-0.34-1.35
		c-0.05-0.87-0.07-1.75-0.08-2.62c-0.01-0.79,0-1.59,0-2.38C1.08,9.3,0.94,8.31,1.36,7.61c0.45-0.54,1.02-0.99,1.52-1.49
		C3.52,5.5,4.15,4.87,4.84,4.3C6,3.32,7.19,2.39,8.31,1.37c0.39-0.35,0.61-0.19,0.97,0.1c0.28,0.22,0.56,0.45,0.84,0.67
		c0.72,0.57,1.44,1.14,2.16,1.71c0.69,0.55,1.39,1.1,2.08,1.65c0.61,0.49,1.43,0.96,1.92,1.57C16.79,7.72,16.58,9.05,16.59,9.83z"/>
	<path class="st0" d="M11.34,6.74c-1.17-0.09-1.97,0.67-2.69,1.47C7.87,7.48,7.03,6.84,5.87,6.92c-1.2,0.09-1.93,0.93-2.04,2.1
		c-0.11,1.07,0.32,2.15,1.11,2.88c1.05,0.97,2.28,1.76,3.43,2.61c0.15,0.11,0.39,0.09,0.55,0c1.22-0.69,2.4-1.5,3.5-2.37
		c1.02-0.81,1.66-1.96,1.38-3.29C13.55,7.68,12.53,6.83,11.34,6.74z M11.08,11.8c-0.78,0.57-1.58,1.11-2.41,1.6
		c-0.8-0.59-1.62-1.16-2.4-1.78C5.59,11.07,5,10.5,4.9,9.59C4.83,8.83,5.08,8.06,5.93,8C6.95,7.94,7.62,8.72,8.3,9.37
		c0.07,0.07,0.14,0.1,0.21,0.13c0.17,0.08,0.38,0.06,0.55-0.13c0.57-0.64,1.2-1.58,2.16-1.55c0.91,0.03,1.56,0.8,1.56,1.69
		C12.78,10.6,11.88,11.22,11.08,11.8z"/>
</g>
</svg>
