<?xml version="1.0" encoding="utf-8"?>
<!-- Generator: Adobe Illustrator 25.4.1, SVG Export Plug-In . SVG Version: 6.00 Build 0)  -->
<svg version="1.1" id="레이어_1" xmlns="http://www.w3.org/2000/svg" xmlns:xlink="http://www.w3.org/1999/xlink" x="0px"
	 y="0px" viewBox="0 0 17.61 17.28" style="enable-background:new 0 0 17.61 17.28;" xml:space="preserve">
<style type="text/css">
	.st0{fill:#282828;}
</style>
<path class="st0" d="M17.53,1.88c-0.22-0.46-0.87-0.89-1.3-1.15C15.44,0.24,14.5,0.01,13.57,0c-1.75-0.01-3.35,0.98-4.56,2.19
	C7.17,0.35,4.47-0.27,1.97,0.51C1.38,0.69,0.55,1,0.16,1.52c-0.21,0.28-0.16,0.6-0.15,0.93C0.02,3.38,0.02,4.3,0.03,5.22
	c0,3.84-0.07,7.69,0.02,11.53c0.01,0.5,0.57,0.67,0.92,0.38c1.1-0.88,2.62-1.88,4.07-1.93c1.3-0.05,2.38,0.39,3.46,1.08
	c0.2,0.13,0.49,0.08,0.66-0.08c2.19-2.12,5.3-1.05,7.33,0.64c0.37,0.3,0.89,0.11,0.92-0.38c0.15-2.29,0.09-4.61,0.15-6.91
	c0.05-2.28,0.04-4.57,0.04-6.85C17.61,2.43,17.65,2.13,17.53,1.88z M16.5,2.32C16.45,2.24,16.48,2.25,16.5,2.32L16.5,2.32z
	 M8.73,15.16c-1.2-0.72-2.51-1.14-3.94-1.02c-1.29,0.11-2.57,0.78-3.67,1.55c-0.06-3.49-0.01-6.98,0-10.47
	C1.11,4.51,1.1,3.8,1.1,3.09c0-0.33,0.01-0.67-0.01-1C1.14,2.07,1.23,2.02,1.29,2C1.62,1.86,1.9,1.66,2.25,1.55
	c2.26-0.7,4.61-0.12,6.22,1.63c0,2.94-0.05,5.89-0.05,8.83c0,0.7,1.08,0.7,1.08,0c0-2.94,0.05-5.88,0.05-8.82
	c1.1-1.17,2.58-2.19,4.24-2.1c0.92,0.05,2.17,0.43,2.71,1.24c0.01,0.03,0.02,0.07,0.02,0.12c0,0.17,0,0.34,0,0.51
	c0,0.44,0,0.88,0,1.31c0,1.95,0,3.9-0.06,5.85c-0.05,1.76-0.02,3.52-0.08,5.28c-1.07-0.75-2.24-1.31-3.57-1.47
	C11.46,13.78,9.83,14.29,8.73,15.16z"/>
</svg>
