<?xml version="1.0" encoding="utf-8"?>
<!-- Generator: Adobe Illustrator 25.4.1, SVG Export Plug-In . SVG Version: 6.00 Build 0)  -->
<svg version="1.1" id="레이어_1" xmlns="http://www.w3.org/2000/svg" xmlns:xlink="http://www.w3.org/1999/xlink" x="0px"
	 y="0px" viewBox="0 0 18.96 18.43" style="enable-background:new 0 0 18.96 18.43;" xml:space="preserve">
<style type="text/css">
	.st0{fill:#282828;}
</style>
<path class="st0" d="M18.41,8.38c-1.09-0.01-2.17-0.06-3.26-0.06c-0.3,0-0.6,0-0.9-0.01c-0.04-2.53,0.15-5.19,0.72-7.64
	C15.05,0.34,14.81,0,14.44,0c-3.18,0-6.37,0.06-9.55,0.06c-0.26,0-0.58,0.25-0.54,0.54c0.35,2.61,0.5,5.11,0.37,7.73
	c-1.4,0.07-2.8,0.08-4.2,0.23C0.03,8.61-0.15,9.1,0.14,9.48c2.62,3.39,5.98,6.17,9.34,8.79c0.23,0.18,0.53,0.22,0.77,0
	c3-2.87,6.16-5.71,8.62-9.08C19.13,8.86,18.78,8.39,18.41,8.38z M9.83,17.18c-2.94-2.31-5.84-4.75-8.24-7.63
	c1.22-0.08,2.44-0.08,3.66-0.17c0.31-0.02,0.52-0.23,0.54-0.54c0.16-2.63,0.03-5.12-0.29-7.7c2.76-0.01,5.53-0.05,8.29-0.06
	c-0.52,2.52-0.7,5.21-0.63,7.77c0.01,0.3,0.24,0.55,0.54,0.55c0.48,0,0.96,0.01,1.44,0.01c0.73,0,1.45,0.02,2.18,0.04
	C15.12,12.26,12.42,14.72,9.83,17.18z"/>
</svg>
