<?xml version="1.0" encoding="utf-8"?>
<!-- Generator: Adobe Illustrator 26.0.1, SVG Export Plug-In . SVG Version: 6.00 Build 0)  -->
<svg version="1.1" id="레이어_1" xmlns="http://www.w3.org/2000/svg" xmlns:xlink="http://www.w3.org/1999/xlink" x="0px"
	 y="0px" viewBox="0 0 243 36.68" style="enable-background:new 0 0 243 36.68;" xml:space="preserve">
<style type="text/css">
	.st0{fill:#F0F0F0;}
	.st1{fill:#464646;}
</style>
<g>
	<g>
		<path class="st0" d="M233.33,0H19.54c-5.34,0-9.66,4.33-9.66,9.66v3.47H0l9.88,10.15v3.73c0,5.34,4.33,9.66,9.66,9.66h213.79
			c5.34,0,9.66-4.33,9.66-9.66V9.66C243,4.33,238.67,0,233.33,0z"/>
	</g>
	<g>
		<path class="st1" d="M38.3,18.34H27.17V17.2h5.1v-1.96h1.39v1.96h4.64V18.34z M37.37,23.3l-0.48,1.05c-1.92-0.23-3.4-1-4.16-2.09
			c-0.77,1.09-2.24,1.86-4.17,2.09l-0.48-1.05c2.16-0.22,3.69-1.22,3.91-2.3h-3.41v-1.1h3.44v-1.14h1.43v1.14h3.44V21h-3.41
			C33.7,22.08,35.23,23.03,37.37,23.3z M30.5,13.64h-2.4V12.5h3.79v0.56c0,0.78,0,1.91-0.59,3.5l-1.38-0.2
			C30.36,15.14,30.46,14.29,30.5,13.64z M35.76,13.64h-2.91V12.5h4.29v0.59c0,0.76,0,1.91-0.37,3.45l-1.36-0.15
			C35.68,15.19,35.75,14.33,35.76,13.64z"/>
		<path class="st1" d="M43.62,16.07c-0.56,1.26-1.61,2.26-3.09,2.73l-0.71-1.11c1.94-0.63,3.06-2.09,3.06-3.7v-0.06H40.2V12.8h6.75
			v1.13h-2.63v0.06c0,1.47,1.12,2.91,3.02,3.5l-0.68,1.09C45.23,18.15,44.18,17.23,43.62,16.07z M49.88,19.32v4.93h-8.06v-4.93h1.4
			v1.33h5.27v-1.33H49.88z M43.22,21.75v1.36h5.27v-1.36H43.22z M49.88,18.76h-1.41v-6.71h1.41V18.76z"/>
		<path class="st1" d="M60.31,12.3v11.52H59V17.9h-1.31c-0.11,2.4-1.16,3.88-2.63,3.88c-1.58,0-2.65-1.69-2.65-4.38
			c0-2.71,1.07-4.37,2.65-4.37c1.49,0,2.47,1.41,2.62,3.72H59V12.3H60.31z M56.42,17.39c0-1.98-0.49-3.05-1.36-3.05
			c-0.87,0-1.36,1.07-1.36,3.05c0,1.98,0.49,3.06,1.36,3.06C55.93,20.45,56.42,19.37,56.42,17.39z M62.81,24.39h-1.34V12.06h1.34
			V24.39z"/>
		<path class="st1" d="M72.36,20.51l-0.84,1.14c-1.42-0.7-2.39-2.05-2.92-3.71c-0.55,1.76-1.55,3.18-2.96,3.91l-0.89-1.12
			c1.93-0.94,3.13-3.32,3.13-5.63v-2.04h1.42v2.04C69.3,17.38,70.46,19.63,72.36,20.51z M75.08,24.42h-1.42v-7.17h-2.63v-1.15h2.63
			v-4.06h1.42V24.42z"/>
		<path class="st1" d="M91.62,22.87H80.44v-1.16h4.82v-2.88h1.41v2.88h4.95V22.87z M85.99,15.81c-0.81,1.64-2.57,2.87-4.57,3.26
			l-0.6-1.17c2.45-0.4,4.42-2.26,4.42-4.15v-0.93h1.49v0.93c0,1.9,1.98,3.75,4.41,4.15l-0.59,1.17
			C88.68,18.71,86.85,17.56,85.99,15.81z"/>
		<path class="st1" d="M93.75,21.82l-0.82-1c2.69-1.53,3.8-3.62,3.98-6.05h-3.46v-1.15h4.85C98.3,16.9,97.2,19.81,93.75,21.82z
			 M103.49,24.4h-1.34v-6.37h-1.41v5.8h-1.33V12.39h1.33v4.49h1.41v-4.82h1.34V24.4z"/>
		<path class="st1" d="M119.78,17.68h-11.17v-1.14h8.11c0.26-1.2,0.29-2.08,0.29-2.84h-6.99v-1.14h8.37v0.82
			c0,0.82,0,1.84-0.26,3.16h1.65V17.68z M118.72,23.17v1.1h-8.8v-3.32h7.07v-1.11h-7.1v-1.12h8.51v3.28h-7.07v1.16H118.72z"/>
		<path class="st1" d="M132.32,18.35h-11.17v-1.12h11.17V18.35z M122.34,14.39c0-1.38,1.56-2.13,4.4-2.13c2.83,0,4.4,0.75,4.4,2.13
			c0,1.36-1.57,2.12-4.4,2.12C123.89,16.5,122.34,15.75,122.34,14.39z M131.27,23.21v1.08h-8.77v-3.1h7.04v-0.88h-7.06v-1.07h8.44
			v2.95h-7.02v1.02H131.27z M123.8,14.39c0,0.7,1.01,1.07,2.94,1.07c1.93,0,2.94-0.37,2.94-1.07c0-0.71-1.01-1.08-2.94-1.08
			C124.81,13.31,123.8,13.68,123.8,14.39z"/>
		<path class="st1" d="M147.93,18.99h-11.15v-1.16h11.15V18.99z M146.57,22.14c0,1.44-1.53,2.26-4.25,2.26
			c-2.64,0-4.25-0.82-4.25-2.26c0-1.42,1.61-2.24,4.25-2.24C144.97,19.91,146.57,20.73,146.57,22.14z M138.16,16.81v-4.32h8.4v1.14
			h-7.01v2.05h7.09v1.14H138.16z M145.15,22.14c0-0.76-1.01-1.16-2.83-1.16s-2.81,0.39-2.81,1.16c0,0.77,1,1.16,2.81,1.16
			S145.15,22.91,145.15,22.14z"/>
		<path class="st1" d="M160.51,19.91h-11.19v-1.13h4.89v-1.12h-3.45v-3.18h6.95v-1.03h-6.98v-1.08h8.38v3.13h-6.97v1.09h7.21v1.08
			h-3.73v1.12h4.89V19.91z M159.17,20.74v3.59h-1.41v-2.46h-7.19v-1.13H159.17z"/>
		<path class="st1" d="M171.21,20.03c2.29,0.15,3.52,0.87,3.52,2.19c0,1.42-1.51,2.19-4.25,2.19c-2.72,0-4.25-0.76-4.25-2.19
			c0-1.31,1.26-2.05,3.57-2.2v-1.14h-4.88v-1.12h11.16v1.12h-4.88V20.03z M169.54,13.73h-3.58V12.6h9.11v1.14h-3.6
			c0.18,1.08,1.78,2.08,4.06,2.29l-0.5,1.11c-2.16-0.22-3.87-1.15-4.52-2.39c-0.67,1.27-2.32,2.15-4.52,2.39l-0.51-1.11
			C167.77,15.81,169.37,14.81,169.54,13.73z M170.49,21.09c-1.82,0-2.81,0.36-2.81,1.12c0,0.71,1,1.11,2.81,1.11
			s2.83-0.39,2.83-1.11C173.31,21.45,172.3,21.09,170.49,21.09z"/>
		<path class="st1" d="M184.26,17.31c0,2.68-1.34,4.36-3.18,4.36c-1.82,0-3.17-1.68-3.17-4.36c0-2.65,1.35-4.34,3.17-4.34
			C182.92,12.96,184.26,14.66,184.26,17.31z M179.26,17.31c0,1.98,0.73,3.1,1.82,3.1c1.09,0,1.83-1.12,1.83-3.1
			c0-1.92-0.74-3.07-1.83-3.07C179.98,14.24,179.26,15.38,179.26,17.31z M187.65,24.43h-1.42V12.05h1.42V24.43z"/>
		<path class="st1" d="M198.08,12.3v11.52h-1.31V17.9h-1.31c-0.11,2.4-1.16,3.88-2.63,3.88c-1.58,0-2.65-1.69-2.65-4.38
			c0-2.71,1.07-4.37,2.65-4.37c1.49,0,2.47,1.41,2.62,3.72h1.32V12.3H198.08z M194.19,17.39c0-1.98-0.49-3.05-1.36-3.05
			c-0.87,0-1.36,1.07-1.36,3.05c0,1.98,0.49,3.06,1.36,3.06C193.7,20.45,194.19,19.37,194.19,17.39z M200.58,24.39h-1.34V12.06h1.34
			V24.39z"/>
		<path class="st1" d="M213.78,22.89h-11.17v-1.15h2.61v-3.21c-0.98-0.54-1.57-1.43-1.57-2.53c0-1.97,1.9-3.22,4.54-3.22
			c2.62,0,4.54,1.25,4.54,3.22c0,1.09-0.59,1.97-1.57,2.53v3.21h2.64V22.89z M205.01,16c0,1.31,1.3,2.13,3.17,2.13
			c1.86,0,3.16-0.82,3.16-2.13c0-1.3-1.3-2.12-3.16-2.12C206.31,13.88,205.01,14.7,205.01,16z M209.73,21.74v-2.69
			c-0.47,0.12-1.01,0.18-1.56,0.18c-0.56,0-1.08-0.05-1.56-0.17v2.68H209.73z"/>
		<path class="st1" d="M218.5,16.94v-1.7h1.62v1.7H218.5z M218.5,22.57v-1.7h1.62v1.7H218.5z"/>
		<path class="st1" d="M223.43,18.34c0-2.35-0.52-4.58-1.72-6.56l0.99-0.43c1.3,2.06,2.04,4.29,2.04,6.98
			c0,2.72-0.74,4.92-2.04,6.99l-0.99-0.44C222.91,22.91,223.43,20.7,223.43,18.34z"/>
	</g>
</g>
</svg>
