<?xml version="1.0" encoding="utf-8"?>
<!-- Generator: Adobe Illustrator 26.0.2, SVG Export Plug-In . SVG Version: 6.00 Build 0)  -->
<svg version="1.1" id="레이어_1" xmlns="http://www.w3.org/2000/svg" xmlns:xlink="http://www.w3.org/1999/xlink" x="0px"
	 y="0px" viewBox="0 0 45 40" style="enable-background:new 0 0 45 40;" xml:space="preserve">
<style type="text/css">
	.st0{fill:#FFD9BB;}
	.st1{fill:#282828;}
	.st2{fill:#FFA7CF;}
</style>
<g>
	<g>
		<g>
			<g>
				<path class="st0" d="M26.9,12.4c-2.1-0.5-4.4-0.4-6.4,0.2c-7.7,2.5-9.7,11.8-5.7,18.3c3.1,5.1,9.9,6.9,15.2,4.1
					c3-1.6,5.3-4.4,6.1-7.8c0.8-3.5,0-7.2-2-10.1c-1.2-1.6-2.7-3-4.6-3.9C28.6,12.9,27.8,12.6,26.9,12.4z"/>
			</g>
			<g>
				<g>
					<path class="st1" d="M27,11.9c-5.1-1.1-10.6,0.9-13.2,5.5c-2.2,3.9-2.1,8.9-0.1,12.9c2.3,4.4,7.1,7,12,6.5
						c5.3-0.5,9.9-4.6,10.8-9.9C37.8,20.2,33.6,13.6,27,11.9c-0.7-0.2-1,0.9-0.3,1c5.5,1.4,9.2,6.3,9,12c-0.2,5.1-3.9,9.6-8.9,10.6
						c-4.3,0.9-9.1-0.9-11.5-4.6c-2.1-3.3-2.7-7.6-1.4-11.3c1.9-5.3,7.4-7.9,12.7-6.7C27.4,13.1,27.7,12,27,11.9z"/>
				</g>
			</g>
		</g>
		<g>
			<g>
				<path class="st1" d="M17.3,27.8c1.3,3.9,5.9,5.2,9.6,4.3c3.6-0.9,6.5-4.3,5.6-8.2c-0.2-0.7-1.2-0.4-1,0.3
					c0.8,3.3-1.8,6.1-4.8,6.9c-3.1,0.8-7.1-0.2-8.2-3.5C18.1,26.9,17,27.2,17.3,27.8L17.3,27.8z"/>
			</g>
		</g>
		<g>
			<g>
				<path class="st1" d="M17.7,23.6c0.1-0.5,0.3-1.1,0.5-1.6c0.1-0.3,0.2-0.5,0.3-0.8c0-0.1,0.1-0.2,0.1-0.4c0-0.1,0.1-0.1,0.1-0.2
					c0,0,0.1-0.1,0,0c-0.1,0-0.2,0.1-0.2,0.1c0,0,0,0,0,0c-0.1,0-0.2,0-0.3,0c0,0,0,0,0,0c0,0,0,0,0.1,0c0.1,0,0.1,0.1,0.2,0.1
					c0.1,0.1,0.2,0.1,0.4,0.2c0.3,0.1,0.5,0.3,0.8,0.4c0.5,0.3,1,0.5,1.5,0.8c0.6,0.3,1.2-0.6,0.5-0.9c-0.6-0.3-1.2-0.6-1.8-1
					c-0.3-0.1-0.6-0.3-0.9-0.5c-0.3-0.2-0.7-0.4-1.1-0.1c-0.2,0.2-0.3,0.6-0.5,0.9c-0.1,0.3-0.2,0.6-0.3,0.9
					c-0.2,0.6-0.4,1.2-0.6,1.8C16.5,24,17.5,24.3,17.7,23.6L17.7,23.6z"/>
			</g>
		</g>
		<g>
			<g>
				<path class="st1" d="M26.7,20.4c0.1-0.5,0.2-1,0.3-1.5c0-0.2,0.1-0.5,0.2-0.7c0-0.1,0.1-0.2,0.1-0.4c0-0.1,0-0.1,0.1-0.2
					c0,0,0-0.1,0-0.1c0-0.1,0-0.1,0,0c-0.1,0-0.3,0.1-0.4,0.2c-0.1,0-0.1,0-0.1,0c0,0,0.1,0,0.1,0c0.1,0,0.1,0.1,0.2,0.1
					c0.1,0.1,0.2,0.1,0.3,0.2c0.2,0.1,0.5,0.3,0.8,0.4c0.5,0.3,1,0.5,1.5,0.8c0.3,0.1,0.6,0.1,0.7-0.2c0.1-0.2,0.1-0.6-0.2-0.7
					c-0.5-0.3-1.1-0.6-1.6-0.9c-0.3-0.1-0.6-0.3-0.9-0.4c-0.3-0.2-0.7-0.4-1-0.3c-0.4,0.1-0.4,0.6-0.5,0.9c-0.1,0.3-0.1,0.5-0.2,0.8
					c-0.1,0.6-0.2,1.1-0.3,1.7c0,0.3,0.1,0.6,0.4,0.7C26.3,20.9,26.6,20.7,26.7,20.4L26.7,20.4z"/>
			</g>
		</g>
	</g>
	<g>
		<g>
			<path class="st2" d="M10.4,12c-0.5-0.1-1.2-0.2-1.7,0c-0.5,0.1-1,0.6-1,1.1c0,0.5,0.4,1,0.9,1.2c0.5,0.3,1.1,0.4,1.8,0.4
				c0.6,0,1.3-0.1,1.8-0.5c0.4-0.4,0.6-0.9,0.7-1.4c0-0.1,0-0.2,0-0.3c0-0.7-0.1-1.4-0.4-2c-0.2-0.5-0.6-1-1.2-1
				c-0.2,0-0.5,0.1-0.7,0.2C9.9,10.2,10.1,11.2,10.4,12L10.4,12z"/>
		</g>
		<g>
			<g>
				<path class="st1" d="M10.5,11.5c-0.8-0.2-1.6-0.2-2.3,0.1c-0.7,0.3-1.1,1-1,1.8c0.2,1.5,2.1,1.9,3.4,1.9c0.7,0,1.5-0.2,2-0.7
					c0.6-0.5,0.8-1.3,0.8-2c0.1-0.8-0.1-1.6-0.4-2.2c-0.3-0.6-0.7-1.2-1.3-1.3c-0.8-0.2-1.7,0.3-2,1.1c-0.2,0.7,0,1.4,0.2,2.1
					c0.1,0.3,0.4,0.5,0.7,0.4c0.3-0.1,0.5-0.4,0.4-0.7c-0.1-0.4-0.3-0.8-0.2-1.3c0-0.1,0-0.2,0.1-0.3c0.1-0.1,0.3-0.2,0.5-0.3
					c0.3,0,0.5,0.3,0.7,0.6c0.2,0.4,0.4,0.9,0.4,1.4c0,0.5,0,1-0.3,1.4c-0.2,0.4-0.6,0.5-1.1,0.6c-0.8,0.1-2,0.1-2.6-0.6
					c-0.3-0.3-0.1-0.7,0.2-0.9c0.5-0.2,1.1-0.1,1.6,0C10.9,12.7,11.2,11.7,10.5,11.5z"/>
			</g>
		</g>
	</g>
	<g>
		<g>
			<path class="st2" d="M33.6,7.2c0.1-0.8,0-1.7-0.3-2.4s-1-1.3-1.8-1.1c-0.8,0.1-1.2,0.8-1.5,1.5c-0.3,0.8-0.3,1.7-0.1,2.6
				c0.1,0.9,0.4,1.8,1.1,2.4c0.6,0.5,1.4,0.6,2.1,0.6c0.1,0,0.3,0,0.4,0c0.9-0.1,1.9-0.4,2.6-0.9c0.6-0.4,1.3-1,1.2-1.8
				c-0.1-0.3-0.2-0.7-0.5-0.9C36.1,6.1,34.7,6.6,33.6,7.2L33.6,7.2z"/>
		</g>
		<g>
			<g>
				<path class="st1" d="M34.1,7.2c0.1-1,0-2-0.5-2.9c-0.5-0.8-1.4-1.4-2.3-1.2c-0.9,0.2-1.5,1-1.8,1.9c-0.4,1-0.3,2.1-0.1,3.1
					c0.2,0.9,0.5,1.8,1.2,2.4c0.8,0.6,1.8,0.8,2.8,0.8c1-0.1,2.1-0.4,2.9-1c0.7-0.5,1.5-1.1,1.6-2.1c0.1-1-0.7-2.1-1.7-2.2
					c-1-0.2-2,0.2-2.9,0.7c-0.6,0.3-0.1,1.2,0.5,0.9C34.4,7.4,35,7.1,35.7,7c0.6,0,1.1,0.4,1.2,1c0.1,0.5-0.6,1-1,1.3
					c-0.6,0.4-1.4,0.7-2.1,0.8c-0.7,0.1-1.4,0.1-2-0.2c-0.6-0.3-0.9-0.9-1.1-1.6c-0.3-1.2-0.5-3,0.5-3.9c0.6-0.5,1.2-0.2,1.6,0.4
					c0.4,0.7,0.4,1.6,0.3,2.3C33,7.9,34.1,7.9,34.1,7.2z"/>
			</g>
		</g>
	</g>
</g>
</svg>
