<?xml version="1.0" encoding="utf-8"?>
<!-- Generator: Adobe Illustrator 26.0.2, SVG Export Plug-In . SVG Version: 6.00 Build 0)  -->
<svg version="1.1" id="레이어_1" xmlns="http://www.w3.org/2000/svg" xmlns:xlink="http://www.w3.org/1999/xlink" x="0px"
	 y="0px" viewBox="0 0 45 40" style="enable-background:new 0 0 45 40;" xml:space="preserve">
<style type="text/css">
	.st0{fill:#FF9D50;}
	.st1{fill:#1E1E28;}
</style>
<g>
	<g>
		<g>
			<path class="st0" d="M18.8,24.1c-0.4,0.1-0.7,0.1-1.1,0.1c-0.4,0-0.8-0.1-1.1-0.3c-0.3-0.2-0.5-0.4-0.6-0.7
				c-0.3-0.7-0.2-1.6,0.5-2c0.2-0.1,0.4-0.2,0.6-0.3c0.4-0.1,0.7-0.1,1.1,0c0.2,0,0.4,0.1,0.6,0.2c0.4,0.2,0.8,0.6,0.9,1
				c0.2,0.4,0.2,0.8,0.1,1.2c-0.1,0.2-0.3,0.4-0.5,0.6C19.3,23.9,19.2,24,19,24C18.9,24.1,18.9,24.1,18.8,24.1z"/>
		</g>
		<g>
			<g>
				<path class="st1" d="M18.6,23.6c-0.3,0.1-0.7,0.1-1.1,0c-0.1,0,0.1,0,0,0c0,0-0.1,0-0.1,0c-0.1,0-0.2,0-0.2-0.1
					c-0.1,0-0.1-0.1-0.2-0.1c0,0-0.1,0-0.1-0.1c0,0-0.1-0.1,0,0c-0.1-0.1-0.2-0.1-0.2-0.3c-0.1-0.1-0.1-0.2-0.1-0.4c0,0,0-0.1,0-0.1
					c0-0.1,0,0.1,0,0c0-0.1,0-0.1,0-0.2c0-0.1,0-0.1,0-0.2c0,0.1,0,0,0,0c0,0,0-0.1,0-0.1c0.1-0.2,0.2-0.4,0.4-0.5
					c0.3-0.2,0.6-0.2,0.9-0.2c0.3,0,0.6,0.1,0.9,0.3c0.2,0.1,0.4,0.4,0.6,0.6c0.1,0.1,0.1,0.3,0.1,0.4c0,0.2,0,0.3,0,0.4
					C19.2,23.4,18.9,23.5,18.6,23.6c-0.3,0.1-0.5,0.4-0.4,0.7c0.1,0.3,0.4,0.4,0.7,0.4c0.5-0.1,1-0.4,1.2-0.8c0.3-0.4,0.4-1,0.2-1.5
					c-0.2-1-1.1-1.8-2.1-1.9c-0.5-0.1-1.1-0.1-1.6,0.1c-0.5,0.2-0.9,0.5-1.1,0.9c-0.4,0.7-0.4,1.8,0.1,2.5c0.3,0.5,0.8,0.8,1.4,0.9
					c0.6,0.1,1.2,0.1,1.8,0c0.3-0.1,0.5-0.4,0.4-0.7C19.2,23.7,18.9,23.5,18.6,23.6z"/>
			</g>
		</g>
	</g>
	<g>
		<g>
			<path class="st0" d="M27.6,20.2c-0.8-0.1-1.4-0.8-1.6-1.5c0-0.2-0.1-0.3-0.1-0.5c0-0.2,0-0.4,0.1-0.6c0-0.1,0.1-0.2,0.1-0.2
				c0.5-0.9,1.7-1,2.4-0.5c0.1,0.1,0.2,0.1,0.2,0.2c0.1,0.1,0.2,0.3,0.3,0.5c0.1,0.3,0.2,0.6,0.2,0.9c0,0.1,0,0.3,0,0.5
				c0,0.1,0,0.3-0.1,0.4C28.9,19.8,28.2,20.2,27.6,20.2z"/>
		</g>
		<g>
			<g>
				<path class="st1" d="M27.6,19.6C27.5,19.6,27.7,19.7,27.6,19.6c-0.1,0-0.1,0-0.1,0s-0.1,0-0.1,0c0.1,0,0,0,0,0
					c-0.1,0-0.1-0.1-0.2-0.1c0,0-0.1-0.1,0,0c0,0-0.1-0.1-0.1-0.1c0-0.1-0.1-0.1-0.1-0.2c0,0-0.1-0.1,0,0c0,0,0,0-0.1-0.1
					c-0.1-0.1-0.2-0.3-0.2-0.4c0,0.1,0,0,0,0c0,0,0-0.1,0-0.1c0,0,0-0.1,0-0.1c0,0,0-0.2,0-0.1c0-0.2,0-0.3,0-0.5c0,0,0-0.1,0-0.1
					c0-0.1,0,0,0,0c0-0.1,0.1-0.1,0.1-0.2c0-0.1,0,0,0,0c0,0,0.1-0.1,0.1-0.1c0,0,0,0,0.1-0.1c0,0,0.1-0.1,0,0
					c0.1,0,0.1-0.1,0.2-0.1c0,0,0,0,0.1,0c0.1-0.1-0.1,0,0,0c0.1,0,0.1,0,0.2-0.1c0,0,0.1,0,0.1,0c0.1,0,0,0,0,0c0.1,0,0.2,0,0.4,0
					c-0.1,0,0,0,0.1,0c0,0,0.2,0.1,0.1,0c0.1,0,0.1,0.1,0.2,0.1c0,0,0.1,0.1,0.1,0c0.1,0.1,0.1,0.1,0.2,0.2c0.1,0.1,0,0,0,0
					c0,0,0.1,0.1,0.1,0.2c0.2,0.3,0.2,0.6,0.2,0.9c0,0,0,0.1,0,0.1c0,0,0,0.2,0,0.1c0,0.1,0,0.1,0,0.2c0,0.1,0,0,0,0.1
					c0,0.1-0.1,0.1-0.1,0.2c0.1-0.1,0,0,0,0c0,0-0.1,0.1-0.1,0.1c0,0,0,0-0.1,0.1c0.1-0.1,0,0,0,0c0,0-0.1,0-0.1,0.1
					c0,0-0.1,0.1-0.1,0c0.1,0-0.1,0-0.1,0c0,0-0.1,0-0.1,0c-0.1,0,0,0,0,0C27.8,19.6,27.7,19.6,27.6,19.6c-0.3,0-0.5,0.3-0.5,0.5
					c0,0.3,0.2,0.5,0.5,0.5c1,0,2-0.7,2.1-1.7c0.2-1-0.2-2.2-1.1-2.8c-0.6-0.4-1.6-0.4-2.2,0c-0.9,0.5-1.2,1.5-1,2.5
					c0.3,1,1.1,1.9,2.2,2c0.3,0,0.5-0.3,0.5-0.5C28.2,19.9,27.9,19.7,27.6,19.6z"/>
			</g>
		</g>
	</g>
	<g>
		<g>
			<path class="st0" d="M17.6,17.7c-0.2,0.3-0.6,0.4-0.9,0.4c-0.2,0-0.3,0-0.5,0c-0.4,0-0.8-0.1-1.1-0.3c-0.5-0.3-0.7-0.8-0.7-1.4
				c0-0.5,0.1-1.1,0.6-1.4c0.4-0.2,0.8-0.2,1.1-0.2c0.2,0,0.3,0,0.5,0.1c0.5,0.1,1,0.5,1.2,1C18.1,16.6,18,17.2,17.6,17.7z"/>
		</g>
		<g>
			<g>
				<path class="st1" d="M17.2,17.3C17.2,17.3,17.1,17.3,17.2,17.3c-0.2,0.2,0,0-0.1,0.1c0,0,0,0-0.1,0.1c0,0-0.1,0.1,0,0
					c-0.1,0-0.1,0-0.2,0.1c0,0-0.1,0-0.1,0c0.1,0-0.1,0-0.1,0c-0.2,0-0.4,0-0.6,0c-0.1,0,0.1,0,0,0c-0.1,0-0.1,0-0.1,0
					c-0.1,0-0.2-0.1-0.2-0.1c0,0-0.1-0.1-0.2-0.1c0,0-0.1-0.1,0,0c0,0-0.1,0-0.1-0.1c-0.1,0-0.1-0.1-0.2-0.2c-0.1-0.1,0,0.1,0,0
					c0,0-0.1-0.1-0.1-0.1c0,0,0-0.1-0.1-0.1c0,0-0.1-0.1,0-0.1c0,0.1,0-0.1,0-0.1c0,0,0-0.1,0-0.1c0-0.1,0-0.1,0-0.2c0-0.1,0,0,0,0
					c0-0.1,0-0.1,0-0.2c0-0.1,0-0.1,0-0.2c0,0,0-0.2,0-0.1c0,0.1,0,0,0,0c0-0.1,0-0.1,0.1-0.2c0,0-0.1,0.1,0,0c0,0,0.1-0.1,0.1-0.1
					c0,0,0.1-0.1,0,0c0,0,0-0.1,0.1-0.1c0.1-0.1,0,0,0,0c0,0,0.1,0,0.1-0.1c0.1-0.1,0.1-0.1,0.2-0.1c0,0,0.1,0,0.1,0
					c0,0,0.1,0,0.1,0c0,0,0,0,0,0c0.4,0,0.7,0,1,0.1c0,0,0.1,0,0.1,0c-0.1,0,0,0,0,0c0.1,0,0.1,0.1,0.2,0.1c0,0,0.1,0.1,0.1,0.1
					c0,0,0.1,0.1,0,0c0.1,0.1,0.1,0.1,0.2,0.2c0,0,0,0.1,0.1,0.1c-0.1-0.1,0,0.1,0,0.1c0,0,0,0.1,0,0.1c0,0,0.1,0.1,0,0.1
					c0,0.1,0,0.2,0.1,0.3c0,0,0,0.1,0,0c0,0.1,0,0.1,0,0.2c0,0,0,0.1,0,0.1c0,0.1,0,0,0,0c0,0.1-0.1,0.2-0.1,0.2c0,0.1,0.1-0.1,0,0
					c0,0,0,0.1-0.1,0.1C17.3,17.2,17.3,17.2,17.2,17.3C17.3,17.2,17.2,17.3,17.2,17.3c-0.2,0.2-0.2,0.5,0,0.8c0.2,0.2,0.6,0.2,0.8,0
					c0.6-0.7,0.8-1.8,0.2-2.6c-0.5-0.8-1.5-1.2-2.4-1.2c-0.5,0-1,0.1-1.4,0.5c-0.4,0.3-0.5,0.8-0.6,1.2c-0.1,0.9,0.3,1.7,1,2.2
					c0.5,0.3,1,0.4,1.6,0.4c0.6,0,1.1-0.2,1.5-0.6c0.2-0.2,0.2-0.6,0-0.8C17.8,17.1,17.4,17.1,17.2,17.3z"/>
			</g>
		</g>
	</g>
	<g>
		<g>
			<path class="st0" d="M26,13.8c-0.3,0.1-0.7,0.2-1.1,0.2c-0.8-0.1-1.5-0.8-1.3-1.6c0-0.1,0.1-0.3,0.1-0.4c0.1-0.2,0.3-0.4,0.5-0.6
				c0.2-0.1,0.5-0.2,0.8-0.3c0.1,0,0.3,0,0.4,0c0.3,0,0.6,0.1,0.9,0.3c0.1,0.1,0.3,0.2,0.4,0.3c0.2,0.3,0.3,0.6,0.2,0.9
				c0,0.4-0.2,0.7-0.5,0.9C26.3,13.6,26.1,13.7,26,13.8z"/>
		</g>
		<g>
			<g>
				<path class="st1" d="M25.8,13.3c-0.1,0.1-0.2,0.1-0.4,0.1c0,0-0.2,0-0.1,0c-0.1,0-0.1,0-0.2,0c-0.1,0-0.2,0-0.2,0c0.1,0,0,0,0,0
					c0,0-0.1,0-0.1,0c-0.1,0-0.1,0-0.2-0.1c0,0,0.1,0.1,0,0c0,0-0.1,0-0.1-0.1c0,0-0.1-0.1-0.1-0.1c-0.1-0.1,0,0,0,0
					c0,0,0,0-0.1-0.1c0,0-0.1-0.1-0.1-0.1c0.1,0.1,0,0,0,0c0,0,0-0.1-0.1-0.1c0,0,0-0.1,0-0.1c0-0.1,0,0.1,0,0c0-0.1,0-0.1,0-0.2
					c0,0,0,0,0-0.1c0,0.1,0,0,0,0c0,0,0-0.1,0-0.1c0,0,0-0.2,0,0c0-0.1,0.1-0.2,0.1-0.3c0,0,0-0.1,0-0.1c0,0,0.1-0.1,0-0.1
					c0,0,0,0,0,0c0,0,0.1-0.1,0.1-0.1c0,0,0-0.1,0.1-0.1c0,0-0.1,0,0,0c0.1,0,0.1-0.1,0.2-0.1c0.1,0-0.1,0,0,0c0,0,0.1,0,0.1,0
					c0.1,0,0.2-0.1,0.2-0.1c-0.1,0,0,0,0,0c0,0,0.1,0,0.1,0s0.1,0,0.1,0c0,0,0.1,0,0,0c0.1,0,0.1,0,0.2,0c0,0,0.1,0,0.1,0
					c0,0,0.1,0,0.1,0c0.1,0,0.1,0.1,0.2,0.1c0,0,0.1,0,0.1,0.1c0,0,0.1,0.1,0,0c0.1,0.1,0.1,0.1,0.2,0.2c0,0,0.1,0.1,0,0
					c0,0,0,0.1,0.1,0.1c0,0,0,0,0,0.1c0.1,0.1,0-0.1,0,0.1c0,0,0,0.1,0,0.1c0-0.1,0,0,0,0c0,0.1,0,0.2-0.1,0.3
					c0,0.1-0.1,0.2-0.2,0.3c0,0,0,0.1-0.1,0.1c0,0,0,0,0,0c0,0,0,0,0,0C25.9,13.2,25.9,13.2,25.8,13.3
					C25.9,13.2,25.8,13.3,25.8,13.3c-0.3,0.1-0.5,0.4-0.4,0.7c0.1,0.2,0.4,0.5,0.7,0.4c0.5-0.2,0.8-0.5,1.1-0.9
					c0.2-0.4,0.3-0.9,0.2-1.3c-0.2-0.9-1.1-1.5-2-1.6c-0.9-0.1-1.8,0.4-2.2,1.2c-0.4,0.8-0.2,1.7,0.4,2.2c0.7,0.6,1.7,0.7,2.5,0.4
					c0.3-0.1,0.5-0.4,0.4-0.7C26.4,13.4,26.1,13.2,25.8,13.3z"/>
			</g>
		</g>
	</g>
	<g>
		<g>
			<path class="st0" d="M29.9,25.8c-0.3,0.1-0.7,0.2-1.1,0.1c-0.4,0-0.7-0.2-1-0.4c-0.5-0.4-0.7-1.2-0.5-1.8
				c0.1-0.4,0.3-0.7,0.6-0.9c0.3-0.2,0.7-0.2,1.1-0.2c0.2,0,0.4,0.1,0.5,0.1c0.4,0.2,0.8,0.5,1,0.9c0.2,0.4,0.2,0.8,0.1,1.1
				C30.6,25.3,30.2,25.6,29.9,25.8z"/>
		</g>
		<g>
			<g>
				<path class="st1" d="M29.6,25.3C29.7,25.3,29.6,25.3,29.6,25.3c-0.1,0-0.1,0-0.2,0.1c0,0-0.1,0-0.1,0c-0.1,0,0.1,0,0,0
					c-0.1,0-0.2,0-0.3,0c0,0-0.1,0-0.1,0c-0.1,0,0,0,0,0c-0.1,0-0.3-0.1-0.4-0.1c0.1,0-0.1,0-0.1-0.1c0,0-0.1,0-0.1-0.1
					c-0.1-0.1,0,0.1-0.1,0c0,0-0.1-0.1-0.1-0.1c-0.1-0.1,0,0,0,0c0,0,0,0,0-0.1c0,0-0.1-0.1-0.1-0.2c0,0-0.1-0.1,0-0.1
					c0,0.1,0-0.1,0-0.1c0-0.1,0-0.1,0-0.2c0,0,0-0.1,0-0.1c0-0.1,0,0.1,0,0c0-0.1,0-0.1,0-0.2c0,0,0-0.1,0-0.1c0,0,0-0.1,0-0.1
					s0,0,0,0c0,0,0-0.1,0-0.1c0,0,0-0.1,0,0c0,0,0-0.1,0-0.1c0,0,0.1-0.2,0-0.1c0-0.1,0.1-0.1,0.2-0.2c-0.1,0.1,0.1,0,0.1,0
					c0,0,0.1,0,0.1-0.1c-0.1,0,0,0,0,0c0.1,0,0.1,0,0.2-0.1c0.1,0,0,0,0,0c0.1,0,0.1,0,0.2,0c0.3,0,0.5,0.1,0.8,0.2c0,0,0.1,0.1,0,0
					c0,0,0,0,0,0c0.1,0,0.1,0.1,0.2,0.2c0,0,0,0,0.1,0.1c0,0,0-0.1,0,0c0,0.1,0.1,0.1,0.1,0.2c0,0.1,0.1,0.2,0.1,0.4
					c0,0.1,0,0.2,0,0.3c0,0,0,0.1,0,0.1c0,0,0,0.2,0,0.1c0,0,0,0.1,0,0.1c0,0.1,0-0.1,0,0c0,0,0,0.1,0,0.1c-0.1,0.1,0.1,0,0,0
					c0,0,0,0-0.1,0.1c0,0-0.1,0.1-0.1,0c0.1,0-0.1,0-0.1,0C29.7,25.3,29.6,25.3,29.6,25.3c-0.3,0.1-0.3,0.5-0.2,0.7
					c0.2,0.3,0.5,0.3,0.7,0.2c0.4-0.2,0.7-0.5,0.9-1c0.2-0.4,0.1-1,0-1.4c-0.2-0.9-1-1.6-1.9-1.8c-1-0.2-2,0.2-2.4,1.2
					c-0.3,0.8-0.1,1.7,0.5,2.4c0.7,0.8,2,1,2.9,0.5c0.3-0.1,0.3-0.5,0.2-0.7C30.2,25.3,29.9,25.2,29.6,25.3z"/>
			</g>
		</g>
	</g>
	<g>
		<g>
			<path class="st0" d="M20.3,12.3c-0.4,0.1-0.8,0.1-1.1,0c-0.3-0.1-0.5-0.2-0.7-0.4c-0.5-0.5-0.5-1.4-0.2-1.9
				c0.1-0.2,0.3-0.4,0.5-0.5c0.1-0.1,0.3-0.1,0.4-0.1c0.2,0,0.4-0.1,0.5-0.1c0.3,0,0.6,0,0.9,0.2c0.2,0.1,0.3,0.3,0.5,0.5
				c0.2,0.4,0.4,0.8,0.3,1.2c0,0.1,0,0.2-0.1,0.3c-0.1,0.1-0.1,0.2-0.2,0.3C20.9,12.1,20.6,12.3,20.3,12.3z"/>
		</g>
		<g>
			<g>
				<path class="st1" d="M20.2,11.8c0,0-0.1,0-0.1,0c0,0-0.2,0-0.1,0c0.1,0-0.1,0-0.1,0c0,0-0.1,0-0.1,0c-0.1,0-0.1,0-0.2,0
					c0,0-0.1,0,0,0c-0.1,0-0.1,0-0.2-0.1c0,0-0.1,0-0.1,0c0,0-0.1,0,0,0c-0.1,0-0.1-0.1-0.2-0.1c0,0-0.1-0.1-0.1-0.1c0,0,0,0,0,0
					c0,0,0-0.1-0.1-0.1c0,0,0,0,0-0.1c0,0.1,0,0.1,0,0c0,0-0.1-0.1-0.1-0.1c0,0,0-0.1,0-0.1c0,0,0,0.1,0,0c0-0.1,0-0.1,0-0.2
					c0,0,0-0.1,0-0.1c0-0.1,0,0.1,0,0c0-0.1,0-0.1,0-0.2c0,0,0-0.1,0-0.1c0-0.1,0,0.1,0,0c0-0.1,0-0.1,0-0.2c0,0,0-0.1,0-0.1
					c0-0.1,0,0,0,0c0-0.1,0.1-0.1,0.1-0.2c0,0,0.1-0.1,0,0c0,0,0-0.1,0.1-0.1c0,0,0.2-0.1,0.1-0.1c0,0,0.1-0.1,0.1-0.1
					c0,0,0.1-0.1,0,0c0.1,0,0.1,0,0.2-0.1c0,0,0.1,0,0.1,0c0.1,0-0.1,0,0.1,0c0.2,0,0.3,0,0.5,0c0,0,0.1,0,0.1,0c-0.1,0,0,0,0,0
					c0.1,0,0.1,0,0.2,0c0.1,0,0,0,0,0c0,0,0.1,0,0.1,0.1c0,0,0.1,0.1,0,0c0,0,0.1,0.1,0.1,0.1c0,0,0,0.1,0.1,0.1c0,0,0.1,0.1,0,0
					c0,0.1,0.1,0.1,0.1,0.2c0,0,0.1,0.2,0.1,0.1c0,0.1,0.1,0.2,0.1,0.2c0,0,0,0.1,0,0.1c0-0.1,0,0.1,0,0.1c0,0,0,0.1,0,0.1
					c0,0,0,0.2,0,0.1c0,0.1,0,0.2-0.1,0.3c0,0,0-0.1,0,0c0,0-0.1,0.1,0,0c0,0.1-0.1,0.1-0.2,0.2c0,0-0.1,0.1,0,0c0,0-0.1,0-0.1,0.1
					c0,0-0.1,0-0.1,0.1c-0.1,0.1,0,0,0,0C20.3,11.8,20.2,11.8,20.2,11.8c-0.3,0.1-0.5,0.4-0.4,0.7c0.1,0.3,0.4,0.4,0.7,0.4
					c0.4-0.1,0.8-0.3,1.1-0.6c0.3-0.3,0.5-0.8,0.5-1.3c0-0.9-0.6-1.8-1.5-2.1c-0.5-0.1-1-0.1-1.4,0c-0.5,0.1-0.9,0.4-1.1,0.7
					c-0.5,0.6-0.5,1.6-0.1,2.2c0.2,0.4,0.6,0.7,1.1,0.9c0.5,0.2,1.1,0.2,1.6,0.1c0.3-0.1,0.5-0.4,0.4-0.7
					C20.7,11.9,20.5,11.7,20.2,11.8z"/>
			</g>
		</g>
	</g>
	<g>
		<g>
			<path class="st1" d="M22.8,30.7c0.4-2.9,0.8-5.9,0.7-8.9c0-1.8-0.7-3.1-1.5-4.7c-0.7-1.5-1.1-3.1-1.4-4.7c-0.1-0.7-1.1-0.4-1,0.3
				c0.2,1.5,0.6,3,1.2,4.4c0.3,0.7,0.7,1.4,1,2.1c0.4,1,0.6,1.9,0.6,3c0,2.9-0.4,5.7-0.7,8.5C21.6,31.4,22.7,31.3,22.8,30.7
				L22.8,30.7z"/>
		</g>
	</g>
	<g>
		<g>
			<path class="st1" d="M21.2,16.6c-0.5,0-1,0-1.5-0.1c-0.2,0-0.4,0-0.6-0.1c-0.2,0-0.5-0.1-0.7-0.1c-0.3-0.1-0.6,0.1-0.7,0.4
				c-0.1,0.3,0.1,0.6,0.4,0.7c1,0.2,2,0.4,3.1,0.4c0.3,0,0.5-0.3,0.5-0.5C21.7,16.9,21.5,16.7,21.2,16.6L21.2,16.6z"/>
		</g>
	</g>
	<g>
		<g>
			<path class="st1" d="M23.1,21.7c0.5-0.2,1-0.4,1.4-0.7c0.5-0.4,1.1-0.8,1.6-1.2c0.2-0.2,0.4-0.5,0.2-0.7
				c-0.1-0.2-0.5-0.4-0.7-0.2c-0.5,0.4-1.1,0.8-1.6,1.2c-0.2,0.1-0.3,0.2-0.5,0.3c-0.1,0-0.2,0.1-0.3,0.1c-0.1,0-0.1,0-0.2,0.1
				c0,0-0.1,0-0.1,0c-0.2,0.1,0.1,0-0.1,0c-0.3,0.1-0.5,0.4-0.4,0.7C22.6,21.6,22.9,21.9,23.1,21.7L23.1,21.7z"/>
		</g>
	</g>
	<g>
		<g>
			<path class="st1" d="M23.3,26.8c1.4-0.4,2.7-0.9,3.9-1.7c0.2-0.1,0.3-0.5,0.2-0.7c-0.1-0.2-0.5-0.4-0.7-0.2
				c-1.1,0.7-2.3,1.2-3.6,1.6c-0.3,0.1-0.5,0.4-0.4,0.7C22.7,26.7,23,26.8,23.3,26.8L23.3,26.8z"/>
		</g>
	</g>
	<g>
		<g>
			<path class="st1" d="M21.7,16.9c0.6-0.4,1.2-0.8,1.7-1.2c0.5-0.5,0.9-1,1.3-1.6c0.2-0.2,0-0.6-0.2-0.7c-0.3-0.1-0.6-0.1-0.7,0.2
				c-0.1,0.1-0.2,0.3-0.3,0.4c0,0,0,0.1-0.1,0.1c-0.1,0.1,0.1-0.1,0,0c0,0.1-0.1,0.1-0.1,0.2c-0.2,0.2-0.4,0.4-0.6,0.6
				c-0.1,0.1-0.2,0.2-0.3,0.3c0,0-0.1,0.1-0.1,0.1c-0.1,0.1,0.1-0.1,0,0c-0.1,0.1-0.1,0.1-0.2,0.1c-0.3,0.2-0.6,0.4-0.9,0.6
				c-0.2,0.2-0.4,0.5-0.2,0.7C21.1,17,21.5,17.1,21.7,16.9L21.7,16.9z"/>
		</g>
	</g>
	<g>
		<g>
			<path class="st1" d="M18.9,24.4c1,1.1,2,2.1,3.2,3c0.1,0.1,0.4,0.1,0.5,0c0.2-0.2,0.4-0.4,0.3-0.7c-0.1-0.3-0.4-0.5-0.7-0.4
				s-0.5,0.4-0.4,0.7c0,0,0,0,0,0c0-0.1,0-0.2,0-0.3c0,0,0,0,0-0.1c0.1-0.1,0.1-0.1,0.2-0.2c0,0,0,0,0,0c0.2,0,0.4,0,0.5,0
				c-0.1,0-0.1-0.1-0.2-0.1c0,0-0.1-0.1-0.1-0.1c0,0,0,0,0,0c-0.1-0.1-0.3-0.2-0.4-0.3c-0.3-0.2-0.5-0.5-0.8-0.7
				c-0.5-0.5-1-1-1.4-1.5c-0.2-0.2-0.6-0.2-0.8,0C18.7,23.9,18.7,24.2,18.9,24.4L18.9,24.4z"/>
		</g>
	</g>
</g>
</svg>
