<?xml version="1.0" encoding="utf-8"?>
<!-- Generator: Adobe Illustrator 26.0.2, SVG Export Plug-In . SVG Version: 6.00 Build 0)  -->
<svg version="1.1" id="레이어_1" xmlns="http://www.w3.org/2000/svg" xmlns:xlink="http://www.w3.org/1999/xlink" x="0px"
	 y="0px" viewBox="0 0 45 40" style="enable-background:new 0 0 45 40;" xml:space="preserve">
<style type="text/css">
	.st0{fill:#FFC5A7;}
	.st1{fill:#282828;}
	.st2{fill:#FFE35A;}
	.st3{fill:#FFEDE3;}
</style>
<g>
	<g>
		<g>
			<path class="st0" d="M23.7,33.3c1.5-0.1,2.9-0.3,4.4-0.6c2.7-0.6,5.4-1.4,7.5-3.3c0.5-0.5,1.2-1,1-1.8c-0.3-1.1-1-1.2-2-1.4
				c0.3-0.1,0.5-0.2,0.6-0.3c0.5-0.4,0.8-0.7,1.2-1.2c0.2-0.4,0.3-0.7,0.1-1.1c-0.2-0.6-0.9-0.9-1.5-1c-0.2,0-0.3-0.1-0.5-0.1
				c-0.1,0-0.2,0-0.3,0c-0.1,0-0.2,0-0.3,0c0.7-0.3,0.9-0.5,1.3-0.8c0.2-0.2,0.4-0.4,0.5-0.6c0.1-0.2,0.2-0.3,0.3-0.5
				c0.1-0.2,0.1-0.5,0.1-0.8c0-0.1-0.1-0.3-0.2-0.4c-0.4-0.6-1.2-0.7-1.8-0.8c-0.4,0-0.8,0-1.3,0c0.3-0.3,1-0.8,1.3-1
				c0.3-0.3,0.6-1,0.5-1.4c-0.2-0.8-1.4-1.5-2.1-1.4c-0.8,0.1-1.6,0.3-2.4,0.6c-0.7,0.3-1.6,0.5-2.4,0.8c-1.8,0.6-3.4,0.2-3.7-1.5
				c-0.1-0.6-0.5-2.8-0.6-3.4c-0.1-0.7-0.3-1.4-0.6-2.1c-0.1-0.3-0.3-0.6-0.5-0.9c-0.5-0.8-1-1-1.8-1.3c-0.3-0.2-1.1-0.3-1.5,0
				c-0.5,0.3-0.4,1.2-0.3,1.6c0.3,1.2,0.8,2.6,0.9,3.8c0.2,2.7-1,4.2-2.1,6.3c-1,1.9-1,2.3-3.3,3.3c-1.8,0.8-2.8,1.2-4,1.7
				c-0.7,0.3-1.9,0.8-1.9,0.8c-0.2,1,0.6,4.9,0.9,5.8c0.4,1.2,0.9,2.3,1.5,3.4c0.3,0.6,1,1.4,1.4,2c0.2,0.2,0.3,0.4,0.5,0.6
				c0.1,0.1,0.2,0.2,0.3,0.3c1.3-0.5,2.3-0.8,3.4-1.3c1.9-0.9,3.3-1.1,4.8-1.4C21.7,33.4,23.2,33.3,23.7,33.3z"/>
		</g>
		<g>
			<g>
				<path class="st1" d="M23.7,33.8c3.9-0.4,8.1-1,11.4-3.4c0.9-0.7,2.2-1.6,2.1-2.9c-0.2-1.3-1.3-1.8-2.4-2c0,0.3,0.1,0.7,0.1,1
					c1.1-0.5,2.5-1.8,2.2-3.1c-0.3-1.4-1.9-1.7-3.2-1.8c0.1,0.3,0.2,0.7,0.3,1c1.2-0.6,2.8-1.8,2.4-3.3c-0.4-1.6-2.5-1.6-3.8-1.5
					c0.1,0.3,0.3,0.6,0.4,0.9c0.8-0.7,1.8-1.2,1.9-2.4c0.1-1-0.7-1.7-1.5-2.1c-1.2-0.5-2.5,0-3.7,0.3c-1.4,0.5-4.5,2.1-5.3,0
					c-1-2.3-0.2-5.2-2-7.2C21.7,6.4,18.8,5,18.1,7c-0.4,1,0.3,2.4,0.6,3.3c0.5,2,0.5,3.7-0.5,5.6c-0.6,1.1-1.2,2.3-1.8,3.4
					c-0.7,1.3-2.1,1.7-3.4,2.3c-1.2,0.5-2.5,1-3.7,1.5c-0.8,0.4-1.4,0.4-1.5,1.4c-0.1,1.9,0.5,4.3,1.1,6.1c0.6,1.6,1.3,3.2,2.4,4.5
					c0.3,0.4,0.8,1.1,1.2,1.4c0.6,0.3,0.9,0,1.5-0.2c1.7-0.7,3.4-1.5,5.2-1.9C20.8,34.1,22.2,34,23.7,33.8c0.7-0.1,0.7-1.2,0-1.1
					c-2.2,0.2-4.4,0.4-6.5,1.2c-1.2,0.4-2.4,1.2-3.7,1.5c-0.7,0.1-0.8-0.1-1.2-0.7c-0.5-0.6-0.9-1.1-1.2-1.8c-1.1-2.1-1.7-4.1-2-6.4
					C9,26,9,25.4,8.9,24.9c-0.1-0.5-0.3-0.2,0.3-0.5c1.1-0.5,2.3-0.9,3.4-1.4c1.7-0.7,3.7-1.3,4.7-3c1-1.7,2.3-3.8,2.7-5.8
					c0.2-1.1,0.2-2.2,0-3.3c-0.2-0.8-1.6-4.1,0.1-3.9c2.8,0.4,2.9,4.5,3.2,6.7c0.3,2,1.5,3.2,3.7,2.8c1.5-0.3,2.9-1,4.4-1.4
					c0.9-0.2,2.7-0.3,2.5,1.1c-0.1,0.8-0.9,1.2-1.5,1.7c-0.4,0.3-0.1,1,0.4,0.9s0.9,0,1.3,0c0.7,0.1,1,0.1,1.1,0.8
					c0.2,1-0.8,1.6-1.7,2c-0.5,0.3-0.2,1,0.3,1c0.7,0,2.4,0.1,2,1.5c-0.2,0.6-1.1,1.1-1.6,1.4c-0.4,0.2-0.3,0.9,0.1,1
					c0.8,0.1,2.2,0.3,1.3,1.8c-0.1,0.2-0.7,0.7-0.9,0.8c-1.1,0.9-2.3,1.5-3.6,1.9c-2.4,0.9-5,1.2-7.5,1.5
					C23.1,32.8,23.1,33.9,23.7,33.8z"/>
			</g>
		</g>
	</g>
	<g>
		<g>
			<path class="st1" d="M32.7,17.9c-0.2,0.1-0.5,0.3-0.8,0.4c-0.1,0.1-0.1,0.1-0.3,0.1c-0.1,0-0.2,0.1-0.4,0.1
				c-0.5,0.2-1.1,0.3-1.6,0.4c-0.3,0-0.5,0.4-0.4,0.7c0.1,0.3,0.4,0.4,0.7,0.4c1.2-0.2,2.3-0.6,3.3-1.2c0.2-0.1,0.3-0.5,0.2-0.8
				C33.2,17.9,32.9,17.8,32.7,17.9L32.7,17.9z"/>
		</g>
	</g>
	<g>
		<g>
			<path class="st1" d="M34,21.7c-1.1,0.4-2.2,0.7-3.3,1c-0.3,0.1-0.5,0.4-0.4,0.7c0.1,0.3,0.4,0.5,0.7,0.4c1.1-0.4,2.2-0.7,3.3-1
				c0.3-0.1,0.5-0.4,0.4-0.7C34.6,21.8,34.3,21.6,34,21.7L34,21.7z"/>
		</g>
	</g>
	<g>
		<g>
			<path class="st1" d="M34.5,25.6c-0.1,0.1-0.2,0.1-0.3,0.2c0,0-0.1,0-0.2,0.1c0,0-0.1,0-0.1,0c0,0,0,0,0,0
				c-0.2,0.1-0.5,0.2-0.7,0.2c-0.5,0.1-1,0.3-1.5,0.4c-0.3,0.1-0.5,0.4-0.4,0.7c0.1,0.3,0.4,0.5,0.7,0.4c1-0.2,2.1-0.5,3-1
				c0.2-0.1,0.3-0.5,0.2-0.8C35.1,25.5,34.8,25.4,34.5,25.6L34.5,25.6z"/>
		</g>
	</g>
	<g>
		<g>
			<path class="st2" d="M11.2,10.1c0.7,0.8,0.8,1.2,0.8,1.9c0,0.7-0.2,1.2-0.5,1.9c1-0.4,1.1-0.6,1.8-0.7c0.8-0.1,1.4,0.1,2.1,0.5
				c-0.3-0.5-0.8-1.4-0.8-2c0-0.6,0.1-1.1,0.7-1.7C14,10.9,12.3,10.9,11.2,10.1L11.2,10.1z"/>
		</g>
		<g>
			<g>
				<path class="st1" d="M10.8,10.5c0.2,0.2,0.4,0.5,0.5,0.8c0,0.1,0,0.1,0,0c0,0,0,0.1,0,0.1c0,0.1,0,0.1,0.1,0.2c0,0,0,0.2,0,0.1
					c0,0.1,0,0.1,0,0.2c0,0.7-0.1,1.2-0.4,1.9c-0.1,0.2-0.1,0.5,0.1,0.7c0.2,0.2,0.4,0.2,0.7,0.1c0.3-0.1,0.6-0.3,0.9-0.4
					c0.1,0,0.1-0.1,0.1-0.1c0.1,0-0.1,0,0,0c0,0,0.1,0,0.1,0c0.1,0,0.2-0.1,0.3-0.1c0.7-0.1,1.3,0,1.9,0.4c0.4,0.3,1-0.3,0.7-0.7
					c-0.3-0.5-0.7-1-0.8-1.6c0,0.1,0-0.1,0-0.1c0-0.1,0-0.1,0-0.2c0,0,0-0.1,0-0.1c0,0.1,0,0.1,0,0c0-0.1,0-0.1,0.1-0.2
					c0,0,0-0.1,0-0.1c0,0,0,0,0,0c0-0.1,0.1-0.1,0.1-0.2c0.1-0.1,0.2-0.2,0.3-0.4c0.2-0.2,0.2-0.5,0-0.7c-0.1-0.2-0.5-0.3-0.7-0.1
					c-0.3,0.2-0.5,0.3-0.8,0.4c-0.4,0.1-0.6,0.2-0.9,0.2c-0.4,0-0.6,0-0.9-0.1c-0.3-0.1-0.5-0.2-0.8-0.4c-0.2-0.2-0.6,0-0.7,0.2
					c-0.2,0.3,0,0.6,0.2,0.7c1.3,0.9,3.3,0.9,4.6-0.1c-0.2-0.3-0.4-0.6-0.7-0.8c-0.6,0.6-0.9,1.3-0.9,2.2c0.1,0.8,0.5,1.5,0.9,2.1
					c0.2-0.2,0.5-0.5,0.7-0.7c-0.8-0.5-1.7-0.7-2.7-0.5c-0.6,0.1-1.2,0.5-1.8,0.7c0.2,0.2,0.5,0.5,0.7,0.7c0.4-0.8,0.6-1.6,0.6-2.4
					c0-0.4-0.1-0.7-0.2-1c-0.2-0.4-0.4-0.7-0.7-1c-0.2-0.2-0.6-0.2-0.8,0C10.6,9.9,10.6,10.2,10.8,10.5z"/>
			</g>
		</g>
	</g>
	<g>
		<g>
			<path class="st2" d="M29.1,3.8c-0.6,1.1-1,1.3-1.7,1.6c-0.8,0.3-1.4,0.3-2.2,0.2c0.8,0.9,1.1,0.9,1.5,1.6C27,8,27.1,8.9,26.9,9.7
				c0.4-0.5,1.1-1.4,1.8-1.7c0.7-0.2,1.3-0.3,2.1,0.1C29.4,7.2,28.7,5.3,29.1,3.8L29.1,3.8z"/>
		</g>
		<g>
			<g>
				<path class="st1" d="M28.6,3.6c-0.3,0.6-0.6,1-1.2,1.3c-0.7,0.3-1.5,0.4-2.3,0.3C24.6,5,24.4,5.7,24.7,6
					c0.2,0.3,0.5,0.5,0.8,0.8c0.1,0.1,0.2,0.2,0.3,0.3c0.1,0.1,0.1,0.1,0.2,0.2c0.5,0.7,0.6,1.5,0.4,2.3c-0.1,0.6,0.6,0.9,1,0.4
					s0.8-1,1.3-1.4c0.6-0.3,1.2-0.3,1.8-0.1c0.6,0.3,1.1-0.5,0.5-0.9c-1.1-0.8-1.8-2.3-1.5-3.7c0.2-0.7-0.9-1-1-0.3
					c-0.5,1.8,0.4,3.8,2,4.9c0.2-0.3,0.4-0.6,0.5-0.9c-0.9-0.4-1.9-0.5-2.8,0C27.5,8,27,8.8,26.5,9.4c0.3,0.1,0.7,0.3,1,0.4
					c0.2-1,0.1-2.1-0.5-3c-0.4-0.6-1-1.1-1.5-1.6c-0.1,0.3-0.3,0.6-0.4,0.9c1,0.1,1.9,0,2.9-0.4c0.7-0.3,1.2-1,1.6-1.7
					C29.9,3.5,29,2.9,28.6,3.6z"/>
			</g>
		</g>
	</g>
	<g>
		<path class="st3" d="M19.5,10.3c0.4-0.2,1.2-0.4,1.6-0.7c0.1,0,0.1-0.1,0.2-0.2c0.1-0.1,0.1-0.3,0-0.5c-0.2-0.8-0.6-1.8-1.3-2.2
			L18.9,7l-0.2,1.1l0.6,1.7L19.5,10.3z"/>
	</g>
	<g>
		<g>
			<path class="st1" d="M23.7,33.8c3.9-0.4,8.1-1,11.4-3.4c0.9-0.7,2.2-1.6,2.1-2.9c-0.2-1.3-1.3-1.8-2.4-2c0,0.3,0.1,0.7,0.1,1
				c1.1-0.5,2.5-1.8,2.2-3.1c-0.3-1.4-1.9-1.7-3.2-1.8c0.1,0.3,0.2,0.7,0.3,1c1.2-0.6,2.8-1.8,2.4-3.3c-0.4-1.6-2.5-1.6-3.8-1.5
				c0.1,0.3,0.3,0.6,0.4,0.9c0.8-0.7,1.8-1.2,1.9-2.4c0.1-1-0.7-1.7-1.5-2.1c-1.2-0.5-2.5,0-3.7,0.3c-1.4,0.5-4.5,2.1-5.3,0
				c-1-2.3-0.2-5.2-2-7.2C21.7,6.4,18.8,5,18.1,7c-0.4,1,0.3,2.4,0.6,3.3c0.5,2,0.5,3.7-0.5,5.6c-0.6,1.1-1.2,2.3-1.8,3.4
				c-0.7,1.3-2.1,1.7-3.4,2.3c-1.2,0.5-2.5,1-3.7,1.5c-0.8,0.4-1.4,0.4-1.5,1.4c-0.1,1.9,0.5,4.3,1.1,6.1c0.6,1.6,1.3,3.2,2.4,4.5
				c0.3,0.4,0.8,1.1,1.2,1.4c0.6,0.3,0.9,0,1.5-0.2c1.7-0.7,3.4-1.5,5.2-1.9C20.8,34.1,22.2,34,23.7,33.8c0.7-0.1,0.7-1.2,0-1.1
				c-2.2,0.2-4.4,0.4-6.5,1.2c-1.2,0.4-2.4,1.2-3.7,1.5c-0.7,0.1-0.8-0.1-1.2-0.7c-0.5-0.6-0.9-1.1-1.2-1.8c-1.1-2.1-1.7-4.1-2-6.4
				C9,26,9,25.4,8.9,24.9c-0.1-0.5-0.3-0.2,0.3-0.5c1.1-0.5,2.3-0.9,3.4-1.4c1.7-0.7,3.7-1.3,4.7-3c1-1.7,2.3-3.8,2.7-5.8
				c0.2-1.1,0.2-2.2,0-3.3c-0.2-0.8-1.6-4.1,0.1-3.9c2.8,0.4,2.9,4.5,3.2,6.7c0.3,2,1.5,3.2,3.7,2.8c1.5-0.3,2.9-1,4.4-1.4
				c0.9-0.2,2.7-0.3,2.5,1.1c-0.1,0.8-0.9,1.2-1.5,1.7c-0.4,0.3-0.1,1,0.4,0.9s0.9,0,1.3,0c0.7,0.1,1,0.1,1.1,0.8
				c0.2,1-0.8,1.6-1.7,2c-0.5,0.3-0.2,1,0.3,1c0.7,0,2.4,0.1,2,1.5c-0.2,0.6-1.1,1.1-1.6,1.4c-0.4,0.2-0.3,0.9,0.1,1
				c0.8,0.1,2.2,0.3,1.3,1.8c-0.1,0.2-0.7,0.7-0.9,0.8c-1.1,0.9-2.3,1.5-3.6,1.9c-2.4,0.9-5,1.2-7.5,1.5
				C23.1,32.8,23.1,33.9,23.7,33.8z"/>
		</g>
	</g>
</g>
</svg>
