<?xml version="1.0" encoding="utf-8"?>
<!-- Generator: Adobe Illustrator 26.0.2, SVG Export Plug-In . SVG Version: 6.00 Build 0)  -->
<svg version="1.1" id="레이어_1" xmlns="http://www.w3.org/2000/svg" xmlns:xlink="http://www.w3.org/1999/xlink" x="0px"
	 y="0px" viewBox="0 0 45 40" style="enable-background:new 0 0 45 40;" xml:space="preserve">
<style type="text/css">
	.st0{fill:#CFE3CF;}
	.st1{fill:#282828;}
	.st2{fill:#FFFFFF;}
	.st3{fill:#FFD978;}
</style>
<g>
	<g>
		<g>
			<path class="st0" d="M0.7,24.7c0.6-0.1,1.1,0,1.7,0c0.5,0,1,0.1,1.5,0.2c0.9,0.2,1.9,0.5,2.7,0.9c3.5,1.8,5.2,4.8,6.7,8.2
				c0.6,1.5,1.6,2.9,3,3.6c1.7,0.8,1.9,0.4,3-0.8c2.2-2.4,5.2-5.6,7.3-7.9c-6.3,0.3-7.2-7.8-10.9-11C14,16.3,10,15,8.1,16.6
				C7.5,17.2,6.1,18.9,5,20C3.5,21.7,2.5,23.3,0.7,24.7z"/>
		</g>
		<g>
			<g>
				<path class="st1" d="M0.7,25.2c3.6-0.3,6.9,1.1,9.2,3.9c1,1.2,1.8,2.7,2.5,4.1c0.6,1.3,1.2,2.8,2.3,3.8c0.8,0.7,2,1.6,3.1,1.5
					c1-0.1,1.6-1,2.2-1.7c2.3-2.6,4.7-5,7.1-7.6c0.3-0.3,0.1-0.9-0.4-0.9c-6.2,0.1-6.8-8-10.9-11.1c-2-1.6-5.8-2.9-8-1
					c-2.8,2.4-4.6,5.8-7.4,8.1c-0.6,0.4,0.2,1.2,0.8,0.8c2.8-2.3,4.6-5.6,7.3-8c2.5-2.2,6.7,0.4,8.3,2.6c2.8,3.8,4.3,9.9,10,9.7
					c-0.1-0.3-0.3-0.6-0.4-0.9c-2.2,2.4-4.4,4.7-6.5,7c-0.5,0.5-0.9,1.1-1.4,1.6c-0.6,0.6-1.1,0.3-1.9-0.1c-1.5-0.9-2.3-2.5-3-4
					c-1.1-2.5-2.6-4.9-4.8-6.6c-2.3-1.7-5.1-2.5-8-2.3C0,24.2,0,25.3,0.7,25.2z"/>
			</g>
		</g>
	</g>
	<g>
		<g>
			<path class="st2" d="M13.5,24.8c0.2-0.4,0.6-0.6,1-0.7c0.4-0.1,0.8-0.1,1.2,0.1c0.2,0.1,0.3,0.3,0.5,0.4c0.3,0.3,0.6,0.7,0.7,1.2
				c0.1,0.3,0,0.6,0,0.9c-0.2,0.8-0.8,1.4-1.5,1.4c-0.7,0.1-1.3-0.4-1.7-1.1c-0.2-0.5-0.4-1.2-0.3-1.8
				C13.4,25.1,13.4,24.9,13.5,24.8z"/>
		</g>
		<g>
			<g>
				<path class="st1" d="M14,25.1c0.1-0.2,0.4-0.3,0.6-0.4c0.3-0.1,0.6-0.1,0.8,0.1c0.2,0.2,0.5,0.5,0.6,0.7
					c0.2,0.3,0.3,0.6,0.3,0.9c0,0.3-0.1,0.6-0.3,0.9c0,0,0,0,0,0c0,0-0.1,0.1-0.1,0.1s-0.1,0-0.1,0.1c0,0-0.1,0.1,0,0
					c-0.1,0-0.1,0.1-0.2,0.1c0,0-0.1,0-0.1,0c0,0,0,0,0,0c0,0,0,0-0.1,0c-0.1,0-0.1,0-0.2,0c0.1,0,0,0,0,0c0,0-0.1,0-0.1,0
					c-0.1,0-0.1,0,0,0c0,0-0.1,0-0.1,0c-0.1,0-0.2,0-0.2-0.1c-0.2-0.1-0.4-0.3-0.6-0.5c-0.2-0.3-0.3-0.6-0.4-1
					C13.8,25.7,13.8,25.3,14,25.1c0.4-0.6-0.6-1.1-0.9-0.5c-0.5,0.9-0.3,2.1,0.1,2.9s1.4,1.5,2.4,1.3c0.9-0.2,1.6-1,1.8-1.9
					c0.1-0.6,0-1.2-0.2-1.7c-0.2-0.4-0.6-0.8-1-1.1c-0.5-0.4-1.1-0.5-1.8-0.4c-0.6,0.1-1.1,0.5-1.4,0.9c-0.2,0.2-0.1,0.6,0.2,0.7
					C13.5,25.4,13.8,25.3,14,25.1z"/>
			</g>
		</g>
	</g>
	<g>
		<g>
			<path class="st0" d="M35.4,2c-0.4,0-0.8,0-1.1,0.1c-4.3,1.3-6,4.4-5.9,9.2c0.1,5.1-2.5,8.3-6.7,11.3c1.6,1.2,4.2,2.1,5.9,2.6
				c0.9,0.2,1.6,0.5,3.2,0.9c1.5,0.3,2.6,0.1,3.8-0.9c2-1.6,2.5-2.7,3.6-5.2c0.7-1.7,0.2-4.9,0.8-7.1c0.7-2.4,2.9-5.7,5.5-6.5
				c-1.3-1-4.5-2.6-6.1-3.3C37.4,2.6,36.5,2.1,35.4,2z"/>
		</g>
		<g>
			<g>
				<path class="st1" d="M35.4,1.4c-2,0-4.2,1.2-5.5,2.7c-1.3,1.5-1.8,3.3-2,5.3c-0.2,2.5,0,4.9-1.3,7.2c-1.2,2.3-3.2,4-5.3,5.4
					c-0.4,0.2-0.3,0.7,0,0.9c2.4,1.7,5.6,2.6,8.4,3.3c1.4,0.3,2.8,0.5,4.2-0.2c1.2-0.6,2.2-1.6,3-2.7c0.8-1.1,1.4-2.4,1.8-3.7
					c0.5-1.5,0.3-3.1,0.4-4.6c0.1-3.3,2.1-7.2,5.4-8.4c0.5-0.2,0.5-0.7,0.1-1c-1.4-1-3-1.9-4.6-2.6C38.5,2.5,37,1.7,35.4,1.4
					c-0.7-0.1-0.7,1,0,1.1c1.6,0.2,3.3,1.2,4.7,1.9c1.4,0.7,2.8,1.4,4,2.3c0-0.3,0.1-0.7,0.1-1c-2.6,0.9-4.4,3.3-5.5,5.8
					c-1.2,2.9-0.3,6.1-1.5,9c-0.5,1.2-1.1,2.3-2,3.2c-1.6,1.5-3,1.9-5.1,1.4c-2.8-0.6-5.8-1.5-8.2-3.2c0,0.3,0,0.6,0,0.9
					c3.5-2.5,6.5-5.7,6.9-10.2c0.2-2.3-0.1-4.6,1-6.7c1-1.9,3.3-3.7,5.5-3.6C36.1,2.6,36.1,1.5,35.4,1.4z"/>
			</g>
		</g>
	</g>
	<g>
		<g>
			<path class="st2" d="M33.6,12.2c0.7,0,1.2,0.6,1.3,1.2s-0.2,1.4-0.7,1.9c-0.2,0.2-0.5,0.3-0.7,0.4c-0.7,0.2-1.4,0-1.8-0.5
				c-0.4-0.5-0.3-1.2,0.1-1.8c0.3-0.4,0.8-0.8,1.2-1C33.3,12.2,33.5,12.2,33.6,12.2z"/>
		</g>
		<g>
			<g>
				<path class="st1" d="M33.6,12.8C33.6,12.8,33.8,12.8,33.6,12.8c0,0,0.1,0,0.1,0c0,0,0.2,0.1,0.1,0c0.1,0,0.1,0.1,0.2,0.1
					c0.1,0.1,0,0,0,0c0,0,0.1,0.1,0.1,0.1c0,0,0,0.1,0.1,0.1c0.1,0.1,0-0.1,0,0c0,0.1,0.1,0.1,0.1,0.2c0,0,0,0.1,0,0
					c0,0,0,0.1,0,0.1s0,0.1,0,0.1c0,0,0,0.2,0,0.1c0,0.1,0,0.3,0,0.4c0,0.1,0-0.1,0,0c0,0,0,0.1,0,0.1c0,0.1,0,0.2-0.1,0.2
					c0,0,0,0.1,0,0c0,0,0,0.1,0,0.1c0,0.1-0.1,0.1-0.1,0.2c0,0,0,0.1-0.1,0.1c0,0,0.1-0.1,0,0c-0.1,0.1-0.1,0.1-0.2,0.2
					c0,0-0.2,0.1-0.3,0.2c-0.1,0-0.2,0.1-0.2,0.1c0,0-0.1,0-0.1,0c-0.1,0,0,0-0.1,0c-0.1,0-0.1,0-0.2,0c0,0-0.1,0-0.1,0
					c0.1,0,0,0,0,0c-0.1,0-0.2,0-0.2-0.1c0,0-0.1-0.1,0,0c0,0-0.1,0-0.1-0.1c0,0-0.2-0.1-0.1-0.1c0,0-0.1-0.1-0.1-0.1
					c-0.1-0.1,0,0,0,0c0,0,0-0.1-0.1-0.1c0,0-0.1-0.1,0,0c0,0,0-0.1,0-0.1c0,0,0-0.1,0-0.1c0,0,0,0.1,0,0c0-0.1,0-0.1,0-0.2
					c0,0,0-0.1,0-0.1c0,0.1,0,0,0,0c0-0.1,0-0.2,0.1-0.3c0-0.1,0,0.1,0,0c0-0.1,0-0.1,0.1-0.1c0,0,0-0.1,0.1-0.1
					c0,0,0.1-0.1,0.1-0.1c0.1-0.1,0.2-0.3,0.4-0.4c0.1-0.1,0.2-0.2,0.4-0.3c0.1-0.1,0.1-0.1,0.2-0.1C33.5,12.8,33.5,12.7,33.6,12.8
					C33.6,12.7,33.6,12.7,33.6,12.8C33.6,12.8,33.6,12.8,33.6,12.8c0.3,0,0.5-0.2,0.5-0.5s-0.2-0.5-0.5-0.5c-0.5,0-1,0.2-1.4,0.5
					c-0.4,0.3-0.7,0.6-1,1.1c-0.4,0.8-0.4,1.9,0.4,2.6c0.8,0.6,1.9,0.6,2.7,0.1c0.8-0.5,1.2-1.4,1.2-2.3c0-1-0.8-1.9-1.9-2
					c-0.3,0-0.5,0.3-0.5,0.5C33.1,12.5,33.3,12.8,33.6,12.8z"/>
			</g>
		</g>
	</g>
	<g>
		<g>
			<path class="st3" d="M21.9,15.1c1.1-1.4,1.4-1.6,2.6-3c-1.4-0.1-1.6-0.1-2.6-0.1c0.1-1.3,0.4-2.7,0.5-3.9c0-0.1,0-0.2-0.1-0.3
				c-0.1-0.1-0.2-0.1-0.3-0.1c-1,0-2,0-2.9,0c0.2,1.7,0.4,3.1,0.5,4.4c-0.9,0-1.7,0-2.6,0.1c1.3,1.7,2.3,2.7,3.6,4.3L21.9,15.1z"/>
		</g>
		<g>
			<g>
				<path class="st1" d="M22.3,15.5c0.8-1.1,1.7-2,2.6-3c0.3-0.4,0.1-0.9-0.4-0.9c-0.9,0-1.8-0.1-2.6-0.1c0.2,0.2,0.4,0.4,0.5,0.5
					c0.1-0.7,0.2-1.5,0.3-2.2c0.1-0.6,0.3-1.4,0.2-2c-0.1-0.7-0.8-0.7-1.4-0.7c-0.8,0-1.6,0-2.4,0c-0.4,0-0.6,0.3-0.5,0.7
					c0.2,1.4,0.3,2.8,0.5,4.2c0.2-0.2,0.4-0.4,0.5-0.5c-0.9,0-1.7,0-2.6,0.1c-0.5,0-0.7,0.6-0.4,0.9c1.2,1.5,2.4,2.9,3.6,4.3
					c0.2,0.2,0.6,0.2,0.8,0C21.5,16.3,21.9,15.9,22.3,15.5c0.5-0.5-0.3-1.3-0.8-0.8c-0.4,0.4-0.8,0.9-1.2,1.3c0.3,0,0.5,0,0.8,0
					c-1.2-1.4-2.5-2.8-3.6-4.3c-0.1,0.3-0.3,0.6-0.4,0.9c0.9,0,1.7,0,2.6-0.1c0.3,0,0.6-0.2,0.5-0.5c-0.2-1.5-0.3-3-0.5-4.5
					c-0.2,0.2-0.4,0.5-0.5,0.7c0.6,0,1.3,0,1.9,0c0.3,0,0.6,0.1,0.9,0c0.2,0,0.2,0,0.1-0.1C21.9,8,21.8,8,21.9,8.2
					c0,0.1,0,0.3,0,0.4c-0.1,1.1-0.3,2.3-0.4,3.4c0,0.3,0.3,0.6,0.5,0.5c0.9,0,1.8,0.1,2.6,0.1c-0.1-0.3-0.3-0.6-0.4-0.9
					c-0.9,1-1.8,2-2.6,3C21.1,15.3,21.9,16,22.3,15.5z"/>
			</g>
		</g>
	</g>
	<g>
		<g>
			<path class="st3" d="M33,33.3c0.6-0.5,0.9-0.8,2-1.9c-1.2-0.1-1.4-0.1-2.2-0.1c0.1-0.4,0.2-1,0.3-1.5c0-0.1,0-0.2,0-0.3
				c-0.1-0.1-0.1-0.1-0.2-0.1c-0.8,0-1.6,0-2.4,0c0.1,1.1,0.1,1.3,0.2,1.9c-0.8,0-1.2,0-2,0c1.1,1.4,2,2.3,3,3.4L33,33.3z"/>
		</g>
		<g>
			<g>
				<path class="st1" d="M33.3,33.6c0.7-0.7,1.4-1.3,2-1.9c0.3-0.4,0.1-0.9-0.4-0.9c-0.7,0-1.5-0.1-2.2-0.1c0.2,0.2,0.3,0.5,0.5,0.7
					c0.1-0.4,0.2-0.8,0.2-1.2c0.1-0.4,0.2-1-0.3-1.2c-0.4-0.2-1-0.1-1.4-0.1c-0.5,0-1,0-1.5,0c-0.3,0-0.6,0.2-0.5,0.5
					c0.1,0.6,0.1,1.3,0.2,1.9c0.2-0.2,0.4-0.4,0.5-0.5c-0.7,0-1.3,0-2,0c-0.5,0-0.7,0.6-0.4,0.9c1,1.2,2,2.3,3,3.4
					c0.2,0.2,0.6,0.2,0.8,0C32.4,34.5,32.9,34.1,33.3,33.6c0.5-0.5-0.3-1.3-0.8-0.8c-0.5,0.4-0.9,0.9-1.4,1.3c0.3,0,0.5,0,0.8,0
					c-1-1.2-2.1-2.2-3-3.4c-0.1,0.3-0.3,0.6-0.4,0.9c0.7,0,1.3,0,2,0c0.3,0,0.6-0.2,0.5-0.5c-0.1-0.6-0.1-1.3-0.2-1.9
					c-0.2,0.2-0.4,0.4-0.5,0.5c0.4,0,0.9,0,1.3,0c0.2,0,0.4,0,0.6,0c0.1,0,0.2,0,0.3,0c0,0,0.1,0,0.1,0c0.1,0,0.2,0,0.1,0
					c-0.1-0.1-0.1-0.1-0.2-0.2c0-0.1,0-0.1,0,0c0,0.1,0,0.1,0,0.2c0,0.1,0,0.3-0.1,0.4c0,0.3-0.1,0.5-0.1,0.8c0,0.4,0.1,0.7,0.5,0.7
					c0.7,0,1.5,0.1,2.2,0.1c-0.1-0.3-0.3-0.6-0.4-0.9c-0.7,0.7-1.4,1.3-2,1.9C32.1,33.4,32.8,34.1,33.3,33.6z"/>
			</g>
		</g>
	</g>
</g>
</svg>
