<?xml version="1.0" encoding="utf-8"?>
<!-- Generator: Adobe Illustrator 26.0.2, SVG Export Plug-In . SVG Version: 6.00 Build 0)  -->
<svg version="1.1" id="레이어_1" xmlns="http://www.w3.org/2000/svg" xmlns:xlink="http://www.w3.org/1999/xlink" x="0px"
	 y="0px" viewBox="0 0 45 40" style="enable-background:new 0 0 45 40;" xml:space="preserve">
<style type="text/css">
	.st0{fill:#FFD9DE;}
	.st1{fill:#282828;}
	.st2{fill:#E4E4E4;}
</style>
<g>
	<g>
		<g>
			<path class="st0" d="M20.9,23.8c-0.3,1.5-0.2,3.8,0.3,4.8c0.4,0.7,1.4,1.2,2.2,1.2c0.4,0,0.8-0.2,1.1-0.4
				c0.4-0.2,0.6-0.4,0.9-0.7c0.5-0.9,0.4-1.8,0.4-2.8c0-1-0.3-2-0.8-3.1c0.7,1,1.4,1.1,2.5,1.8c0.1,0.1,0.3,0.2,0.5,0.2
				c0.4,0.2,0.8,0.3,1.2,0.3c0.2,0,0.4,0,0.6,0c0.3-0.1,0.6-0.1,0.9-0.3c0.8-0.5,1.1-1.4,0.7-2.2c-0.3-0.7-0.7-1.4-1.2-1.9
				c-1-0.9-1.9-1.1-3.4-1.4c0.9-0.1,2-0.3,2.8-0.6c0.8-0.3,1.2-0.6,1.8-1.3c0.6-0.7,0.6-1.4,0.1-2.1c-0.4-0.6-1.2-0.9-1.9-1
				c-1.9-0.2-4.3,0.8-5.3,2.2c0.4-1.2,0.3-3.6-0.7-4.9c-0.6-0.8-1.5-1.3-2.5-1.2c-1.3,0.1-1.9,1.3-1.9,2.7c0,1.2,0.4,2.5,1,4
				c-0.2-0.2-0.7-0.5-1-0.6c-0.9-0.4-1.4-0.8-2.3-1c-0.4-0.1-0.8-0.1-1.1-0.1c-0.3,0-0.5,0-0.8,0.1c-0.3,0.1-0.6,0.2-0.9,0.3
				c-0.3,0.2-0.6,0.5-0.8,0.8c-0.1,0.3-0.1,0.7-0.1,1c0,0.3,0.1,0.6,0.2,0.8c0.4,0.9,1.1,1.5,2,1.8c0.9,0.4,1.8,0.7,3,0.8
				c-1.1,0.5-1.9,0.8-2.5,1.4c-0.7,0.7-1.3,1.4-1.6,2.2c-0.2,0.5-0.4,1.4,0.2,2c0.4,0.4,1.1,0.6,1.6,0.6c0.6,0,1.7-0.4,2.2-0.7
				C19.3,25.9,20.1,25.4,20.9,23.8z"/>
		</g>
		<g>
			<g>
				<path class="st1" d="M20.4,23.6c-0.4,2.3-0.4,6.9,3,6.7c1.5-0.1,2.7-1.3,2.9-2.8c0.2-1.7-0.1-3.6-0.9-5.1
					c-0.3,0.2-0.6,0.4-0.9,0.7c1.4,1.8,5.9,4,7.3,1c0.6-1.2-0.2-2.8-1-3.7c-1-1.2-2.5-1.5-4-1.8c0,0.4-0.1,0.7-0.1,1.1
					c1.6-0.2,3.3-0.5,4.5-1.6c1.1-1,1.6-2.4,0.5-3.7c-2-2.2-6.3-0.6-7.9,1.4c0.3,0.2,0.6,0.3,0.9,0.5c0.8-2.5-0.2-6.6-3.3-6.8
					c-4-0.2-2.6,5.3-1.8,7.4c0.3-0.2,0.5-0.4,0.8-0.6c-1.1-0.8-2.5-1.5-3.8-1.6s-3.1,0.1-3.7,1.4c-0.6,1.3,0.1,2.8,1.1,3.7
					c1.2,1,3,1.4,4.5,1.6c-0.1-0.3-0.2-0.7-0.3-1c-1.6,0.7-2.9,1.6-3.9,3.1c-0.7,1.1-1.1,2.7,0.1,3.6c1.2,0.9,2.8,0.5,4-0.1
					c1.4-0.6,2.3-1.7,3-3c0.3-0.6-0.6-1.2-0.9-0.5c-0.5,0.9-1,1.7-1.9,2.3c-0.8,0.5-2.1,1.1-3,0.8c-1.6-0.6-0.2-2.6,0.5-3.3
					c0.8-0.9,1.7-1.4,2.8-1.8c0.5-0.2,0.2-1-0.3-1c-1.1-0.1-2.3-0.4-3.3-0.9c-1-0.6-2.2-2.4-0.8-3.3c1.6-1,4.1,0.2,5.5,1.2
					c0.4,0.3,1-0.2,0.8-0.6c-0.6-1.4-2.3-6.3,0.8-6c2.4,0.2,2.8,3.6,2.2,5.4c-0.2,0.5,0.5,1,0.9,0.5c1.2-1.5,3.5-2.5,5.4-2
					c0.7,0.2,1.4,0.8,1.3,1.6c-0.1,0.5-0.7,1-1.1,1.3c-1,0.7-2.2,0.9-3.4,1c-0.5,0.1-0.8,0.9-0.1,1.1c0.9,0.2,1.9,0.3,2.6,0.8
					c0.8,0.5,2,1.8,1.7,2.9c-0.3,1.5-2.4,1.1-3.3,0.5c-0.9-0.5-1.6-0.9-2.3-1.6c-0.4-0.5-1.1,0.1-0.9,0.7c0.5,1.1,0.7,2.2,0.7,3.5
					c0,1.3-0.5,2.9-2.1,2.8c-2.3-0.1-2-3.7-1.7-5.3C21.5,23.2,20.5,22.9,20.4,23.6z"/>
			</g>
		</g>
	</g>
	<g>
		<g>
			<path class="st2" d="M21.2,18.7c0.1-0.1,0.3-0.2,0.4-0.3c0.2-0.1,0.4-0.2,0.5-0.2c0.2,0,0.4-0.1,0.6-0.1c0.6,0,1.3,0.2,1.6,0.8
				c0.5,1-0.2,2-1.1,2.4c-0.7,0.3-1.6,0.2-2.2-0.3C20.4,20.5,20.5,19.3,21.2,18.7z"/>
		</g>
		<g>
			<g>
				<path class="st1" d="M21.6,19.1C21.6,19.1,21.7,19,21.6,19.1c0.1-0.1,0.1-0.1,0.2-0.1c0.1-0.1,0.2-0.1,0.3-0.2c0,0-0.1,0,0,0
					c0.1,0,0.1,0,0.2-0.1c0,0,0.1,0,0.1,0c0,0,0.2,0,0.1,0c0.2,0,0.4,0,0.5,0c0.1,0-0.1,0,0,0c0,0,0.1,0,0.1,0c0.1,0,0.2,0,0.3,0.1
					c0,0,0.2,0.1,0,0c0,0,0.1,0,0.1,0.1s0.1,0,0.1,0.1c0,0,0.1,0.1,0,0c0.1,0.1,0.1,0.1,0.2,0.2c0.1,0.1,0,0,0,0
					c0,0.1,0.1,0.1,0.1,0.2c0.1,0.1,0,0,0,0c0,0,0,0.1,0,0.1c0,0,0,0.1,0,0.1c0,0,0-0.1,0,0c0,0.1,0,0.2,0,0.2c0-0.1,0,0,0,0
					c0,0,0,0.1,0,0.1c0,0-0.1,0.1,0,0c0,0,0,0.1,0,0.1c0,0.1-0.1,0.2-0.1,0.2c0,0,0.1-0.1,0,0c0,0-0.1,0.1-0.1,0.1
					c-0.1,0.1-0.1,0.1-0.2,0.2c-0.1,0.1,0,0,0,0c0,0-0.1,0.1-0.1,0.1c-0.1,0-0.1,0.1-0.2,0.1c0,0-0.1,0-0.1,0.1c0.1,0,0,0,0,0
					c-0.1,0-0.2,0.1-0.3,0.1c0,0-0.1,0-0.1,0c0.1,0,0,0,0,0c-0.1,0-0.2,0-0.3,0c0,0-0.1,0-0.1,0c-0.2,0,0.1,0,0,0
					c-0.1,0-0.2,0-0.3-0.1c0,0-0.1,0-0.1,0c0.1,0,0,0,0,0c-0.1,0-0.1-0.1-0.2-0.1c0.1,0.1,0,0,0,0c0,0,0,0-0.1-0.1
					c0,0-0.1-0.1-0.1-0.1c0.1,0.1,0,0,0,0c0,0,0-0.1-0.1-0.1c-0.1-0.1,0,0.1,0,0c0-0.1,0-0.2-0.1-0.2c0-0.1,0,0.1,0,0
					c0,0,0-0.1,0-0.1c0,0,0-0.1,0-0.1c0-0.1,0,0.1,0,0c0-0.1,0-0.2,0.1-0.3c0,0,0-0.1,0,0c0,0,0-0.1,0.1-0.1c0,0,0-0.1,0-0.1
					c0,0,0.1-0.2,0.1-0.1c0,0.1,0,0,0-0.1C21.5,19.2,21.5,19.1,21.6,19.1c0.2-0.2,0.2-0.6,0-0.8c-0.2-0.2-0.5-0.2-0.8,0
					c-0.6,0.6-0.9,1.6-0.6,2.4c0.4,0.9,1.4,1.5,2.4,1.4c1-0.1,1.9-0.7,2.3-1.5c0.2-0.5,0.3-1,0.2-1.5s-0.5-0.9-0.9-1.2
					c-1-0.6-2.5-0.4-3.3,0.4c-0.2,0.2-0.2,0.6,0,0.8C21,19.3,21.3,19.3,21.6,19.1z"/>
			</g>
		</g>
	</g>
</g>
</svg>
