<?xml version="1.0" encoding="utf-8"?>
<!-- Generator: Adobe Illustrator 26.0.2, SVG Export Plug-In . SVG Version: 6.00 Build 0)  -->
<svg version="1.1" id="레이어_1" xmlns="http://www.w3.org/2000/svg" xmlns:xlink="http://www.w3.org/1999/xlink" x="0px"
	 y="0px" viewBox="0 0 40 40" style="enable-background:new 0 0 40 40;" xml:space="preserve">
<style type="text/css">
	.st0{fill:#FFE35A;}
	.st1{fill:#282828;}
	.st2{fill:#BCFFFF;}
	.st3{fill:#FFFFFF;}
</style>
<g>
	<g>
		<g>
			<path class="st0" d="M10.5,17.3c0.1,1.1-0.1,1.5-0.5,2.1c-0.4,0.6-0.9,0.9-1.6,1.3c1.1,0.3,1.3,0.2,1.9,0.5
				c0.7,0.4,1.2,1,1.5,1.7c0-0.6,0.2-1.7,0.5-2.2c0.4-0.5,0.8-0.9,1.7-1C12.4,19.8,10.9,18.7,10.5,17.3L10.5,17.3z"/>
		</g>
		<g>
			<g>
				<path class="st1" d="M9.9,17.3C10,18,10,18.4,9.6,19c-0.4,0.6-0.9,1-1.6,1.3c-0.4,0.2-0.3,0.9,0.1,1c0.3,0.1,0.7,0.1,1.1,0.2
					c0.1,0,0.2,0,0.4,0.1c0.1,0,0.2,0.1,0.2,0.1c0.6,0.3,1.1,0.8,1.4,1.5c0.2,0.6,1,0.5,1.1-0.1c0-0.6,0.1-1.3,0.4-1.8
					c0.3-0.5,0.8-0.8,1.4-0.9c0.6-0.1,0.4-1-0.1-1.1c-1.2,0-2.5-0.8-2.9-2.1c-0.2-0.7-1.2-0.4-1,0.3c0.5,1.7,2.2,2.8,4,2.9
					c-0.1-0.4-0.1-0.7-0.1-1.1c-0.9,0.1-1.6,0.6-2,1.3c-0.4,0.7-0.5,1.6-0.6,2.4c0.3,0,0.7-0.1,1.1-0.1c-0.3-0.9-0.9-1.6-1.7-2
					c-0.6-0.3-1.3-0.4-2-0.6c0,0.3,0.1,0.7,0.1,1c0.8-0.4,1.5-0.9,2-1.7c0.4-0.7,0.5-1.4,0.5-2.2c0-0.3-0.2-0.5-0.5-0.5
					C10.2,16.8,9.9,17,9.9,17.3z"/>
			</g>
		</g>
	</g>
	<g>
		<g>
			<path class="st0" d="M22.1,4.9c0.1,1.2-0.1,1.6-0.6,2.3c-0.5,0.7-1,1-1.8,1.3c1.2,0.3,1.4,0.2,2.1,0.6c0.8,0.4,1.3,1.1,1.5,1.9
				c0.1-0.7,0.2-1.8,0.6-2.3c0.4-0.6,0.9-0.9,1.8-1C24.1,7.6,22.5,6.4,22.1,4.9L22.1,4.9z"/>
		</g>
		<g>
			<g>
				<path class="st1" d="M21.5,4.9c0,0.7,0,1.2-0.4,1.8c-0.5,0.6-1,1-1.7,1.4c-0.4,0.2-0.3,0.9,0.1,1c0.4,0.1,0.8,0.2,1.1,0.3
					c0.2,0.1,0.5,0.1,0.7,0.2c0.7,0.4,1.2,0.9,1.5,1.6c0.2,0.6,1,0.5,1.1-0.1s0.1-1.4,0.4-1.9c0.3-0.5,0.9-0.8,1.5-0.9
					c0.3,0,0.5-0.2,0.5-0.5c0-0.3-0.2-0.5-0.5-0.5c-1.4,0-2.8-1-3.1-2.3c-0.2-0.7-1.2-0.4-1,0.3c0.5,1.8,2.3,3.1,4.2,3.1
					c0-0.4,0-0.7,0-1.1c-1,0.1-1.7,0.5-2.3,1.3c-0.5,0.7-0.6,1.7-0.7,2.6c0.4-0.1,0.7-0.1,1.1-0.1c-0.4-0.9-1-1.7-1.8-2.2
					c-0.7-0.4-1.4-0.5-2.2-0.7c0,0.3,0.1,0.7,0.1,1c0.9-0.4,1.6-0.9,2.1-1.8c0.5-0.7,0.6-1.5,0.5-2.3C22.6,4.2,21.5,4.2,21.5,4.9z"
					/>
			</g>
		</g>
	</g>
	<g>
		<g>
			<path class="st2" d="M15.5,16.8c1.4,1.4,1.9,1.9,3.2,3.2c0.1,0.1,0.2,0.2,0.3,0.2c0.1,0,0.1,0,0.2,0c0.8-0.3,1.6-0.5,2.5-0.8
				c-0.2-1.9-0.2-3.8-0.4-5.6c0-0.1,0-0.2-0.1-0.3c-0.1-0.2-0.4-0.3-0.6-0.4c-0.5-0.3-0.5-0.3-1-0.5c-0.1,0-0.9-0.3-0.9-0.3
				c-0.3,0.1-0.9,0.3-1,0.3c-0.5,0.2-0.8,0.3-1.2,0.5c-0.3,0.1-0.8,0.3-0.8,0.3s-0.4,0.8-0.5,1C15,15,15,14.8,14.6,15.9L15.5,16.8z"
				/>
		</g>
		<g>
			<g>
				<path class="st1" d="M15.1,17.2c0.9,0.9,1.8,1.8,2.7,2.6c0.2,0.2,0.5,0.5,0.8,0.7c0.3,0.2,0.6,0.2,1,0.1
					c0.8-0.2,1.5-0.5,2.3-0.7c0.2-0.1,0.4-0.3,0.4-0.5c-0.2-1.6-0.2-3.2-0.3-4.8c0-0.7,0-1.4-0.6-1.8c-0.4-0.3-0.9-0.5-1.3-0.7
					c-0.3-0.2-0.7-0.3-1.1-0.4c-0.4-0.1-0.9,0.2-1.3,0.3c-0.5,0.2-1.1,0.4-1.6,0.6c-0.4,0.1-0.7,0.2-0.9,0.6
					c-0.4,0.9-0.8,1.8-1.1,2.7c-0.1,0.2,0,0.4,0.1,0.5C14.5,16.6,14.8,16.9,15.1,17.2c0.5,0.5,1.3-0.3,0.8-0.8
					c-0.3-0.3-0.6-0.6-0.9-0.9c0.1,0.2,0.1,0.4,0.1,0.5c0.2-0.7,0.5-1.3,0.8-1.9c0.1-0.2,0.2-0.3,0.2-0.5c0.1-0.2-0.1,0.1-0.1,0.1
					c0,0,0.2-0.1,0.2-0.1c0.4-0.2,0.9-0.3,1.3-0.5c0.4-0.2,0.9-0.2,1.2-0.4c0.2-0.1,0,0-0.1-0.1c0,0,0.1,0,0.2,0.1
					c0.2,0.1,0.3,0.1,0.5,0.2c0,0,0.1,0,0.1,0c0,0-0.1-0.1,0,0c0.1,0.1,0.2,0.1,0.3,0.1c0.2,0.1,0.3,0.2,0.5,0.3
					c0.1,0.1,0.4,0.2,0.5,0.3c0.1,0.1,0.1,0.6,0.1,0.8c0.1,1.6,0.1,3.2,0.3,4.8c0.1-0.2,0.3-0.4,0.4-0.5c-0.7,0.2-1.4,0.4-2,0.6
					c-0.1,0-0.4,0.1-0.4,0.1c-0.1,0-0.2-0.2-0.3-0.3c-0.2-0.2-0.4-0.4-0.6-0.6c-0.8-0.8-1.5-1.5-2.3-2.3
					C15.4,15.9,14.6,16.7,15.1,17.2z"/>
			</g>
		</g>
	</g>
	<g>
		<g>
			<path class="st3" d="M27,19.3c-0.7-0.4-1.5-0.7-2.3-0.8c-0.4-0.1-0.8-0.1-1.2-0.1c-0.8,0-1.5,0.1-2.3,0.3c-1.4,0.3-2.7,1-3.8,1.9
				c-1.7,1.5-2.6,3.6-2.6,5.9c0,1,0.1,2,0.4,2.9c0.8,2.3,2.7,4.2,4.9,5.1c2.1,0.9,4.4,0.7,6.4-0.4c1-0.5,1.9-1.2,2.6-2.1
				c0.4-0.4,0.7-0.8,1-1.3C33.1,26.7,31.3,21.6,27,19.3z M28.7,30c-0.2,0.4-0.5,0.7-0.8,1c-0.6,0.6-1.3,1.2-2,1.6
				c-1.5,0.8-3.3,1-4.9,0.3c-1.7-0.7-3.1-2.2-3.8-3.9c-0.2-0.7-0.4-1.5-0.3-2.2c0-1.7,0.7-3.3,2-4.5c0.8-0.7,1.8-1.2,2.9-1.5
				c0.6-0.1,1.1-0.2,1.7-0.2c0.3,0,0.6,0,0.9,0.1c0.6,0.1,1.2,0.3,1.7,0.6C29.4,23,30.9,26.9,28.7,30z"/>
		</g>
		<g>
			<g>
				<path class="st1" d="M27.3,18.9c-3.5-1.8-8.2-1-10.8,2c-2.5,2.8-2.9,7.2-0.9,10.4c1.9,3.2,5.7,5.1,9.4,4.1
					c3.5-0.9,6.7-4.1,7.2-7.8C32.6,24,30.4,20.6,27.3,18.9c-0.6-0.3-1.2,0.6-0.5,0.9c2.4,1.3,4.2,3.6,4.3,6.4c0.2,3.2-2,6-4.7,7.4
					c-3.1,1.7-6.7,0.7-9-1.8c-2.2-2.5-2.6-6.3-0.9-9.1c2-3.4,6.8-4.7,10.3-2.9C27.4,20.1,27.9,19.2,27.3,18.9z"/>
			</g>
			<g>
				<path class="st1" d="M28.2,29.7c-1.5,2.2-4.2,3.7-6.9,2.7c-2.4-0.9-3.9-3.2-3.9-5.7c0.1-2.5,1.6-4.5,4-5.3c1.3-0.4,2.7-0.5,4,0
					c1,0.4,1.9,1.1,2.5,1.9C29.5,25.3,29.6,27.8,28.2,29.7c-0.4,0.6,0.6,1.1,0.9,0.5c1.4-2.1,1.4-4.8,0-7c-0.7-1-1.6-1.9-2.7-2.5
					c-1.4-0.8-3-0.9-4.6-0.6C19,20.8,16.8,23,16.4,26c-0.4,2.9,1.2,5.8,3.8,7.1c3.3,1.7,6.9,0,9-2.8C29.6,29.7,28.6,29.2,28.2,29.7z
					"/>
			</g>
		</g>
	</g>
	<g>
		<g>
			<path class="st1" d="M14.7,16.3c1.2-0.1,2.5-0.2,3.8-0.3c0.3,0,0.5-0.2,0.5-0.5c0-0.3-0.2-0.6-0.5-0.5c-1.2,0.1-2.5,0.2-3.8,0.3
				c-0.3,0-0.5,0.2-0.5,0.5C14.1,16.1,14.4,16.4,14.7,16.3L14.7,16.3z"/>
		</g>
	</g>
	<g>
		<g>
			<path class="st1" d="M18.9,15.8c0.8-0.6,1.6-1.3,2.4-2c0.2-0.2,0.2-0.6,0-0.8c-0.2-0.2-0.5-0.2-0.8,0c-0.8,0.7-1.6,1.3-2.4,2
				c-0.2,0.2-0.2,0.6,0,0.8C18.4,16.1,18.6,16,18.9,15.8L18.9,15.8z"/>
		</g>
	</g>
	<g>
		<g>
			<path class="st1" d="M18,15.7c0.4,1.2,0.9,2.4,1.4,3.5c0.1,0.3,0.5,0.3,0.7,0.2c0.3-0.2,0.3-0.5,0.2-0.7c0-0.1-0.1-0.2-0.1-0.3
				c-0.1-0.1,0,0.1,0,0c0,0,0-0.1,0-0.1c0,0,0-0.1-0.1-0.2c-0.1-0.2-0.2-0.5-0.3-0.8c-0.3-0.7-0.5-1.3-0.8-2
				c-0.1-0.3-0.4-0.5-0.7-0.4C18.1,15.1,17.9,15.4,18,15.7L18,15.7z"/>
		</g>
	</g>
</g>
</svg>
