<?xml version="1.0" encoding="utf-8"?>
<!-- Generator: Adobe Illustrator 26.0.2, SVG Export Plug-In . SVG Version: 6.00 Build 0)  -->
<svg version="1.1" id="레이어_1" xmlns="http://www.w3.org/2000/svg" xmlns:xlink="http://www.w3.org/1999/xlink" x="0px"
	 y="0px" viewBox="0 0 40 40" style="enable-background:new 0 0 40 40;" xml:space="preserve">
<style type="text/css">
	.st0{fill:#282828;}
	.st1{fill:#FFB1CF;}
	.st2{fill:#FFFFC5;}
	.st3{fill:#E6D2BE;}
</style>
<g>
	<g>
		<g>
			<path class="st0" d="M23.5,22.6c-0.1-1.9,0.2-3.8,0.9-5.5c0.1-0.3,0.1-0.6-0.2-0.8c-0.2-0.1-0.6-0.1-0.8,0.2
				c-0.8,1.9-1.2,4-1.1,6C22.5,23.3,23.5,23.3,23.5,22.6L23.5,22.6z"/>
		</g>
	</g>
	<g>
		<g>
			<path class="st1" d="M25.4,15.8c0.8,0.4,1.1,0.9,1.4,1.8c0.2,0.6,0.1,1.4-0.4,1.7c-0.4,0.2-1.2,0-1.5-0.4c-0.6-0.6-1-1.2-1.2-2.1
				c-0.3,0.5-0.4,0.7-0.9,1.1c-0.2,0.2-0.6,0.5-0.9,0.6s-0.8,0-1.1-0.1c-0.4-0.2-0.4-0.8-0.3-1.3c0.1-0.5,0.4-0.9,0.8-1.2
				c0.4-0.3,0.6-0.5,1-0.8c-0.5-0.2-0.7-0.3-1.1-0.5c-0.5-0.2-0.9-0.6-1.1-1.1c-0.2-0.5,0-1.2,0.5-1.4c0.2-0.1,0.5-0.1,0.7,0
				c0.9,0.1,1.4,0.6,2,1.3c-0.1-0.8,0.1-1.6,0.3-2.3c0.2-0.7,0.9-1.2,1.6-1c0.7,0.2,0.9,1,0.9,1.6c0,0.7-0.3,1.3-0.8,2
				c0.9-0.3,1.7-0.2,2.2,0c0.2,0.1,1.1,0.5,1.2,0.7c0.2,0.3,0.2,0.8-0.1,1.1c-0.2,0.3-0.6,0.4-0.9,0.5C27,16.1,26.3,16.2,25.4,15.8z
				"/>
		</g>
		<g>
			<g>
				<path class="st0" d="M25.1,16.2c0.5,0.3,0.8,0.6,1,1.1c0.1,0.3,0.4,1.1,0,1.4c-0.4,0.3-1-0.3-1.2-0.5c-0.4-0.5-0.7-1-0.8-1.6
					c-0.1-0.5-0.8-0.5-1-0.1c-0.3,0.4-0.6,0.9-1,1.2c-0.3,0.2-0.9,0.5-1.1,0c-0.2-0.4,0.2-1,0.5-1.3c0.3-0.4,0.7-0.7,1.1-0.9
					c0.4-0.3,0.3-0.8-0.1-1c-0.6-0.2-2.2-0.9-1.7-1.8c0.2-0.4,0.9-0.2,1.2,0c0.4,0.2,0.8,0.6,1.1,1c0.3,0.4,1,0.1,0.9-0.4
					c-0.1-0.7,0-1.4,0.3-2c0.1-0.4,0.5-1,1-0.8c0.4,0.1,0.5,0.7,0.5,1c0,0.6-0.4,1.2-0.7,1.8c-0.2,0.4,0.2,1,0.6,0.8
					c0.6-0.2,1.2-0.2,1.8,0c0.2,0.1,0.8,0.3,1,0.5c0.3,0.4-0.6,0.7-0.9,0.8c-0.7,0.2-1.3,0.2-2-0.1C25,15,24.5,15.9,25.1,16.2
					c1,0.5,1.9,0.4,3,0.1c0.9-0.2,1.8-0.9,1.5-2c-0.2-0.7-0.9-1-1.5-1.3c-0.8-0.4-1.8-0.4-2.7-0.1c0.2,0.3,0.4,0.5,0.6,0.8
					c0.5-0.8,0.9-1.7,0.8-2.6c-0.1-0.8-0.5-1.6-1.2-1.8c-2.1-0.6-2.8,2.4-2.7,3.8c0.3-0.1,0.6-0.3,0.9-0.4c-0.5-0.6-1.1-1.2-1.8-1.4
					c-0.8-0.2-1.7-0.2-2.1,0.6c-0.9,1.7,1,2.9,2.4,3.4c0-0.3-0.1-0.7-0.1-1c-0.6,0.4-1.3,1-1.8,1.6c-0.4,0.6-0.6,1.7-0.1,2.3
					c0.5,0.6,1.4,0.7,2.1,0.4c0.8-0.4,1.3-1.1,1.8-1.8c-0.3,0-0.7-0.1-1-0.1c0.2,0.9,0.6,1.8,1.4,2.4c0.6,0.5,1.7,0.9,2.4,0.3
					c0.7-0.6,0.7-1.6,0.4-2.3c-0.3-0.9-0.8-1.5-1.5-1.9C25.1,15,24.5,15.9,25.1,16.2z"/>
			</g>
		</g>
	</g>
	<g>
		<path class="st2" d="M23.8,15.7c0.1,0,0.2,0,0.4,0c0.2-0.1,0.4-0.2,0.5-0.4c0.1-0.2,0.2-0.5,0.1-0.8c0-0.1-0.1-0.2-0.1-0.2
			c-0.1-0.1-0.2-0.2-0.3-0.2C24.2,14,24,14,23.8,14c-0.6,0.1-0.9,0.9-0.5,1.4c0,0,0,0.1,0.1,0.1c0,0,0.1,0.1,0.1,0.1
			C23.6,15.7,23.7,15.7,23.8,15.7z"/>
	</g>
	<g>
		<g>
			<path class="st0" d="M18.5,22.5c0.1-3-0.3-5.9-1.3-8.7c-0.2-0.7-1.3-0.4-1.1,0.3c1,2.7,1.4,5.6,1.3,8.4
				C17.4,23.2,18.5,23.2,18.5,22.5L18.5,22.5z"/>
		</g>
	</g>
	<g>
		<path class="st1" d="M14.4,16.8c-0.1-0.1-0.1-0.3-0.2-0.4c-0.1-0.1-0.1-0.3-0.1-0.5c0-0.3,0-0.8,0.1-1.1c0.1-0.4,0.4-1,0.5-1.2
			c-0.4,0.4-0.8,0.6-1.1,0.7c-0.8,0.4-2.2,0.4-2.7-0.5c-0.2-0.4-0.1-1,0.2-1.4c0.1-0.1,0.2-0.2,0.2-0.3c0.4-0.3,0.9-0.5,1.5-0.5
			c0.3,0,0.6-0.1,0.9,0c0,0-0.1-0.1-0.1-0.1c-0.4-0.3-0.8-0.8-1.1-1.2c-0.1-0.2-0.2-0.4-0.3-0.6c-0.1-0.4-0.1-1,0.1-1.4
			c0-0.1,0.1-0.1,0.1-0.2c0.3-0.3,0.8-0.4,1.2-0.4c0.3,0,0.5,0.2,0.7,0.3c0.1,0.1,0.2,0.2,0.3,0.3C15,8.6,15.1,8.8,15.2,9
			c0.1,0.1,0.1,0.3,0.2,0.4c0,0.1,0.1,0.1,0.1,0.2c0,0.1,0.1,0.1,0.1,0.2c0-0.4,0.1-1.1,0.1-1.4c0-0.2,0.1-0.5,0.2-0.7
			c0.1-0.2,0.2-0.5,0.4-0.7c0.1-0.1,0.2-0.2,0.3-0.3c0.1-0.1,0.3-0.2,0.5-0.2c0.2,0,0.3,0,0.5,0c0.1,0,0.3,0.1,0.4,0.2
			c0.5,0.3,0.6,0.9,0.7,1.5c0,0.4-0.2,1.3-0.5,1.8c0.4-0.4,0.8-0.7,1.2-1c0.3-0.2,0.6-0.4,1.1-0.4c0.3,0,0.6,0.1,0.9,0.2
			c0.2,0.1,0.4,0.3,0.5,0.5c0.1,0.1,0.1,0.2,0.1,0.3c0.2,1-0.7,1.8-1.6,2.2c-0.3,0.1-0.5,0.2-0.8,0.3c-0.1,0-0.3,0.1-0.4,0.1
			c-0.1,0-0.3,0-0.4,0c0.2,0.1,0.4,0.2,0.5,0.2c0.1,0.1,0.3,0.2,0.4,0.3c0.4,0.3,0.7,0.7,0.8,1.2c0.1,0.3,0.1,0.5,0,0.8
			c-0.1,0.4-0.4,0.8-0.8,0.9c-0.4,0.1-1,0-1.4-0.3c-0.3-0.2-0.9-0.9-1.1-1.3c0,0,0,0.6-0.1,1.1c-0.1,0.4-0.2,1-0.4,1.3
			c-0.3,0.5-0.8,0.7-1.3,0.6C14.8,17.2,14.6,17,14.4,16.8z"/>
		<path class="st0" d="M15.3,17.8c-0.1,0-0.3,0-0.4-0.1c-0.4-0.1-0.7-0.3-0.9-0.7c-0.1-0.2-0.2-0.3-0.2-0.5s-0.1-0.4-0.1-0.6
			c0-0.2,0-0.7,0.1-1.1c-1.1,0.4-2.6,0.2-3.1-0.9c-0.3-0.6-0.2-1.3,0.2-1.9c0.1-0.1,0.2-0.3,0.3-0.4c0.4-0.3,0.9-0.5,1.5-0.6
			c-0.1-0.2-0.3-0.4-0.4-0.6c-0.1-0.2-0.3-0.5-0.3-0.7C11.7,9.4,11.6,8.7,12,8c0.1-0.1,0.1-0.2,0.2-0.2c0.4-0.4,1-0.6,1.7-0.5
			c0.3,0.1,0.7,0.2,1,0.4C15,7.8,15.1,7.9,15.2,8c0-0.2,0.1-0.3,0.1-0.4c0.1-0.3,0.3-0.6,0.5-0.9c0.1-0.1,0.3-0.3,0.4-0.4
			c0.2-0.1,0.4-0.2,0.7-0.3c0.2,0,0.4,0,0.7,0c0.2,0,0.3,0.1,0.5,0.2C19,6.9,19,7.9,19,8.3c0,0.1,0,0.2,0,0.3
			c0.3-0.2,0.8-0.4,1.3-0.4c0.4,0,0.8,0.1,1.1,0.3c0.2,0.1,0.5,0.3,0.7,0.6c0.1,0.2,0.1,0.3,0.2,0.5c0.3,1.2-0.8,2.3-1.9,2.8
			c-0.1,0.1-0.2,0.1-0.4,0.1c0.4,0.4,0.6,0.8,0.8,1.3c0.1,0.4,0.1,0.7,0,1.1c-0.1,0.6-0.6,1.1-1.2,1.3c-0.6,0.2-1.3,0.1-1.9-0.3
			c-0.1-0.1-0.2-0.2-0.4-0.3c-0.1,0.4-0.3,1-0.5,1.3C16.5,17.5,15.9,17.8,15.3,17.8z M14.8,13.1c0.1,0,0.2,0,0.4,0.1
			c0.2,0.2,0.3,0.5,0.1,0.7c-0.1,0.2-0.4,0.7-0.5,1.1c-0.1,0.2-0.1,0.7-0.1,0.9c0,0.1,0,0.2,0.1,0.4c0,0.1,0.1,0.2,0.1,0.3
			c0,0,0,0,0,0c0.1,0.1,0.2,0.2,0.3,0.2c0.2,0.1,0.6-0.1,0.8-0.4c0.1-0.2,0.3-0.8,0.4-1.1c0.1-0.5,0.1-1,0.1-1
			c0-0.2,0.2-0.5,0.4-0.5c0.2,0,0.5,0.1,0.6,0.3c0.2,0.3,0.8,0.9,1,1.1c0.3,0.2,0.6,0.3,0.9,0.2c0.2-0.1,0.4-0.3,0.5-0.5
			c0-0.2,0-0.4,0-0.5c-0.1-0.3-0.3-0.6-0.6-0.9c-0.1-0.1-0.2-0.2-0.4-0.2c-0.1-0.1-0.2-0.1-0.4-0.2l0,0c0,0,0,0,0,0
			c-0.3-0.1-0.4-0.4-0.3-0.7c0.1-0.3,0.4-0.4,0.7-0.3c0,0,0,0,0,0c0,0,0.1,0,0.1,0c0.1,0,0.2,0,0.3-0.1c0.3-0.1,0.5-0.1,0.7-0.2
			c0.5-0.2,1.4-0.9,1.3-1.6c0-0.1,0-0.1-0.1-0.2c0,0-0.1-0.1-0.3-0.2c-0.2-0.1-0.4-0.2-0.6-0.2c-0.2,0-0.4,0.1-0.7,0.3
			c-0.4,0.3-0.8,0.6-1.1,0.9c-0.2,0.2-0.5,0.2-0.7,0c-0.2-0.2-0.3-0.5-0.1-0.7C17.8,9.4,18,8.6,18,8.3c0-0.7-0.2-1-0.4-1.1
			c-0.1-0.1-0.1-0.1-0.2-0.1c-0.1,0-0.1,0-0.3,0c-0.1,0-0.1,0-0.2,0.1c-0.1,0-0.1,0.1-0.2,0.1c-0.1,0.1-0.2,0.3-0.3,0.5
			c-0.1,0.2-0.1,0.4-0.1,0.6c0,0.2-0.1,0.8-0.1,1.3c0,0.3-0.2,0.5-0.5,0.5c-0.3,0-0.5-0.2-0.5-0.4c0-0.1-0.1-0.1-0.1-0.1l-0.1-0.2
			c-0.1-0.1-0.1-0.2-0.2-0.4c-0.1-0.2-0.2-0.4-0.3-0.5c-0.1-0.1-0.1-0.1-0.2-0.2c-0.1-0.1-0.3-0.2-0.5-0.2c-0.2,0-0.6,0-0.7,0.2
			c-0.2,0.3-0.2,0.6-0.1,1c0.1,0.2,0.1,0.3,0.2,0.4c0.3,0.4,0.6,0.8,1,1.1c0,0,0,0-0.1,0c0.3,0.1,0.4,0.3,0.4,0.6
			c0,0.3-0.3,0.5-0.6,0.5l0,0c-0.3,0-0.6,0-0.8,0c-0.5,0.1-0.9,0.2-1.2,0.4c0,0-0.1,0.1-0.1,0.2c-0.2,0.2-0.3,0.6-0.1,0.8
			c0.3,0.6,1.3,0.5,2,0.3c0.2-0.1,0.6-0.3,0.9-0.6C14.5,13.1,14.6,13.1,14.8,13.1z"/>
	</g>
	<g>
		<path class="st2" d="M15.4,11.5c0.1-0.1,0.2-0.3,0.3-0.4c0.1-0.1,0.2-0.1,0.3-0.1c0.2,0,0.4,0,0.6,0c0.4,0.1,0.6,0.4,0.6,0.8
			c0,0.4-0.1,0.7-0.3,1c-0.2,0.3-0.5,0.3-0.8,0.2c-0.3-0.1-0.5-0.3-0.6-0.6C15.3,12.2,15.3,11.9,15.4,11.5z"/>
	</g>
	<g>
		<g>
			<path class="st3" d="M13.6,21.6c0.4,3.5,1,6.9,1.9,10.3c0.1,0.3,0.2,0.6,0.4,0.9c0.3,0.3,0.8,0.4,1.2,0.4c2.3,0.2,4.6,0.2,7,0.2
				c0.2,0,0.5,0,0.6-0.2s0.2-0.4,0.3-0.6c0.8-3.4,1.4-7.5,1.9-11c-4.4-0.1-7.3-0.2-11.7-0.1L13.6,21.6z"/>
		</g>
		<g>
			<g>
				<path class="st0" d="M13,21.6c0.3,2.4,0.7,4.7,1.1,7.1c0.2,1.1,0.5,2.3,0.8,3.5c0.2,0.9,0.8,1.4,1.8,1.6
					c2.3,0.3,4.8,0.3,7.1,0.2c1,0,1.5-0.3,1.7-1.3c0.2-1.1,0.4-2.1,0.6-3.2c0.5-2.5,0.9-5.1,1.3-7.6c0-0.4-0.1-0.7-0.5-0.7
					c-4.4-0.1-8.9-0.1-13.3,0c-0.7,0-0.7,1.1,0,1.1c4.4-0.1,8.9-0.1,13.3,0c-0.2-0.2-0.4-0.5-0.5-0.7c-0.4,2.4-0.8,4.9-1.2,7.3
					c-0.1,0.6-0.2,1.2-0.4,1.9c-0.1,0.6-0.2,1.3-0.4,1.8c-0.1,0.3-0.1,0.3-0.4,0.3c-0.3,0.1-0.7,0-1,0c-0.7,0-1.4,0-2.1,0
					c-1.3,0-2.6,0-3.9-0.2c-0.3,0-0.6,0-0.9-0.3c-0.2-0.2-0.2-0.6-0.3-0.9c-0.2-0.7-0.3-1.3-0.5-2c-0.6-2.6-1-5.2-1.3-7.9
					C14,21,12.9,20.9,13,21.6z"/>
			</g>
		</g>
	</g>
	<g>
		<g>
			<path class="st0" d="M14,24.7c4,0.1,7.9,0.1,11.9-0.1c0.7,0,0.7-1.1,0-1.1c-4,0.2-8,0.2-11.9,0.1C13.3,23.6,13.3,24.7,14,24.7
				L14,24.7z"/>
		</g>
	</g>
</g>
</svg>
