<?xml version="1.0" encoding="utf-8"?>
<!-- Generator: Adobe Illustrator 26.0.2, SVG Export Plug-In . SVG Version: 6.00 Build 0)  -->
<svg version="1.1" id="레이어_1" xmlns="http://www.w3.org/2000/svg" xmlns:xlink="http://www.w3.org/1999/xlink" x="0px"
	 y="0px" viewBox="0 0 40 40" style="enable-background:new 0 0 40 40;" xml:space="preserve">
<style type="text/css">
	.st0{fill:#FFBBCF;}
	.st1{fill:#282828;}
	.st2{fill:#FFF2F7;}
	.st3{fill:#FFB1CF;}
	.st4{fill:#FFFFC5;}
</style>
<g>
	<g>
		<g>
			<path class="st0" d="M21.1,24.2c-1.4-0.5-3.1,0.2-4.2,1.3c-1.2,1.1-1.6,2.1-2.5,3.5c-0.9,1.3-2.1,2.6-3.5,3.1
				c0.7,0.5,1.1,0.9,2,1.2c0.2,0.1,0.3,0.2,0.5,0.2c0.1,0,0.3-0.1,0.4-0.2c1.1-0.8,1.9-1.9,2.6-3.2c0.6-1.1,1-2.3,1.7-3.4
				s1.8-1.9,3-1.7L21.1,24.2z"/>
		</g>
		<g>
			<g>
				<path class="st1" d="M21.2,23.7c-2.3-0.8-4.5,0.9-5.8,2.6c-1.4,1.8-2.4,4.4-4.8,5.2c-0.5,0.2-0.5,0.7-0.1,1
					c0.4,0.3,0.9,0.7,1.4,1c0.3,0.1,0.6,0.2,0.8,0.4c0.2,0.1,0.4,0.2,0.7,0.1c0.5-0.1,1-0.6,1.4-1c0.4-0.4,0.8-0.9,1.1-1.4
					c0.7-1.1,1.2-2.4,1.8-3.6c0.5-1,1.5-2.5,2.9-2.3c0.3,0,0.6-0.1,0.7-0.4c0-0.3,0.1-0.6,0.1-0.9c0.1-0.7-0.9-1-1-0.3
					c0,0.3-0.1,0.6-0.1,0.9c0.2-0.1,0.4-0.2,0.7-0.4c-2.9-0.4-4,2.8-5.1,4.9c-0.5,1.1-1.2,2.2-2.1,3c-0.1,0.1-0.5,0.5-0.6,0.5
					c-0.1,0-0.3-0.1-0.3-0.2c-0.2-0.1-0.3-0.1-0.5-0.2c-0.5-0.3-1-0.6-1.4-1c0,0.3-0.1,0.7-0.1,1c2.2-0.8,3.5-2.8,4.7-4.7
					c1.1-1.7,3-4,5.2-3.2C21.6,25,21.9,24,21.2,23.7z"/>
			</g>
		</g>
	</g>
	<g>
		<g>
			<path class="st0" d="M20.9,25.4c-1,1.1-1.3,2.3-1.3,3.9c0,1.6,0.2,3.2,0,4.8c1-0.5,1.7-1.3,2.5-2.2c-0.8-1.5-1.2-3.2-0.6-5
				c0.2-0.7,0.6-1.3,0.7-2c0.1-0.8,0.3-1.5-0.3-1.6L20.9,25.4z"/>
		</g>
		<g>
			<g>
				<path class="st1" d="M20.5,25c-2.3,2.5-1,5.9-1.4,8.9c-0.1,0.5,0.3,0.8,0.8,0.6c1.1-0.5,1.8-1.4,2.6-2.3
					c0.2-0.2,0.2-0.4,0.1-0.7c-0.8-1.7-1.1-3.5-0.4-5.2c0.4-0.9,1.2-3.2-0.2-3.7c-0.2-0.1-0.5,0-0.6,0.2c-0.3,0.7-0.6,1.5-1,2.2
					c-0.3,0.6,0.7,1.2,0.9,0.5c0.3-0.7,0.6-1.5,1-2.2c-0.2,0.1-0.4,0.2-0.6,0.2c0-0.1,0-0.1,0,0c0,0.1,0,0.1,0,0.2
					c0,0.2,0,0.3,0,0.4c0,0.4-0.1,0.8-0.2,1.1c-0.3,0.7-0.6,1.4-0.7,2.2c-0.2,1.5,0.2,3,0.9,4.4c0-0.2,0.1-0.4,0.1-0.7
					c-0.7,0.8-1.4,1.7-2.4,2.1c0.3,0.2,0.5,0.4,0.8,0.6c0.2-1.6,0-3.3,0-4.9c0-1.3,0.2-2.5,1.1-3.5C21.7,25.3,21,24.5,20.5,25z"/>
			</g>
		</g>
	</g>
	<g>
		<g>
			<path class="st2" d="M24.2,10.6c0,0.1,0.1,0.2,0.1,0.3c0.3,0.7,0.1,1.5,0.1,2.2c0,2.1,0,4.3,0.3,6.5c0.3,1.9,1,3.6,1.8,5.3
				c0.6,1.2,1.3,2.1,2.5,2.8c0.4,0.2,0.8,0.2,1.1,0.3c0.3,0.1,0.3,0.1,0.1,0.5c-0.3,0.6-0.9,0.8-1.5,1c-0.8,0.2-1.8,0.3-2.5,0.8
				c-0.6,0.5-0.8,1.4-1.4,1.8c-0.1,0.1-0.3,0.1-0.4,0.1c-0.2-0.1-0.3-0.4-0.3-0.6c-0.1-0.3-0.1-0.7-0.1-1c0-0.4,0-0.9-0.2-1.3
				c-0.2-0.8-0.6-1.5-1-2.2c-0.3-0.5-0.6-0.9-0.9-1.3c-0.1-0.2-0.3-0.3-0.4-0.5c-0.3-0.3-0.6-0.6-0.9-0.9c-1.1-1.2-2.4-2.2-3.6-3.3
				c-1.1-1-2.7-2-4.1-2.3c-0.7-0.2-1.6-0.1-2.2-0.4c0.5-0.5,1.2-0.9,1.9-1.3c0.8-0.5,1.4-1.1,2.2-1.5c0.8-0.4,1.6-0.7,2.3-1.2
				c1.9-1.1,3.7-2.2,5.5-3.3C23.3,10.5,23.8,10.1,24.2,10.6z"/>
		</g>
		<g>
			<g>
				<path class="st1" d="M23.7,10.9c0.5,0.9,0.2,2.2,0.2,3.2c0,1,0,2,0.1,3c0.1,1.7,0.3,3.5,0.9,5.1c0.5,1.5,1.2,3,2.1,4.2
					c0.4,0.5,0.8,0.9,1.3,1.3c0.3,0.2,0.6,0.4,1,0.6c0.2,0.1,0.7,0.1,0.8,0.2c0-0.2-0.1-0.3-0.1-0.5c-0.2,1.2-2.3,1.1-3.2,1.5
					c-0.9,0.3-1.3,0.9-1.8,1.7c-0.4,0.6-0.2,0.4-0.3,0.2c-0.1-0.3-0.1-0.7-0.1-1c0-0.5-0.1-1.1-0.3-1.6c-0.4-1.1-1-2.2-1.7-3.1
					c-1.4-2-3.4-3.6-5.2-5.2c-0.9-0.8-2-1.5-3.1-2C13.2,18,12,18,11,17.6c0.1,0.3,0.2,0.6,0.2,0.9c0.9-0.8,1.9-1.4,2.9-2.1
					c0.9-0.7,2-1.1,3.1-1.7c1.1-0.6,2.2-1.3,3.3-1.9c0.4-0.2,3.1-2.1,3.3-1.8c0.5,0.5,1.3-0.3,0.8-0.8c-0.8-0.8-1.6-0.1-2.4,0.4
					c-1.5,0.9-3,1.7-4.4,2.6c-1.3,0.8-2.7,1.3-3.9,2.1c-1.1,0.8-2.3,1.5-3.3,2.4c-0.4,0.3-0.1,0.8,0.2,0.9c0.7,0.3,1.4,0.3,2.2,0.5
					c1,0.2,2,0.8,2.9,1.4c1.5,1.1,2.9,2.4,4.2,3.7c1.3,1.3,2.5,2.8,3.2,4.5c0.3,0.8,0.3,1.6,0.4,2.5c0.1,0.5,0.1,1.1,0.6,1.4
					c1.2,0.7,1.9-1.6,2.7-2c1.2-0.6,2.9-0.3,3.8-1.5c0.2-0.3,0.5-0.8,0.3-1.2c-0.2-0.5-0.9-0.5-1.4-0.6c-1.7-0.6-2.7-2.7-3.3-4.3
					c-0.9-2.1-1.2-4.3-1.3-6.6c0-1.1,0-2.2,0-3.2c0-1,0.1-1.9-0.4-2.8C24.3,9.7,23.4,10.3,23.7,10.9z"/>
			</g>
		</g>
	</g>
	<g>
		<path class="st3" d="M19.7,15.1c-0.1-0.1-0.1-0.2-0.2-0.4c0-0.1-0.1-0.3-0.1-0.4c0-0.2,0-0.8,0.1-1c0.1-0.4,0.4-0.9,0.5-1.1
			c-0.4,0.3-0.8,0.5-1,0.6c-0.8,0.3-2,0.3-2.4-0.5c-0.2-0.4-0.1-0.9,0.2-1.2c0.1-0.1,0.1-0.2,0.2-0.2c0.4-0.3,0.8-0.4,1.3-0.5
			c0.3,0,0.6,0,0.9,0c0,0-0.1-0.1-0.1-0.1c-0.4-0.3-0.7-0.7-1-1.2C18.1,9,18,8.8,18,8.6c-0.1-0.4-0.1-0.9,0.1-1.2
			c0,0,0.1-0.1,0.1-0.1c0.3-0.3,0.7-0.4,1.1-0.3c0.2,0,0.5,0.1,0.7,0.3c0.1,0.1,0.2,0.2,0.3,0.2c0.2,0.2,0.3,0.4,0.4,0.6
			c0.1,0.1,0.1,0.2,0.2,0.4c0,0.1,0,0.1,0.1,0.2c0,0,0.1,0.1,0.1,0.2c0-0.4,0.1-1,0.1-1.2c0-0.2,0.1-0.5,0.2-0.7
			c0.1-0.2,0.2-0.5,0.3-0.6c0.1-0.1,0.2-0.2,0.3-0.2C21.9,6,22,5.9,22.2,5.9c0.2,0,0.3,0,0.4,0C22.8,6,22.9,6,23,6.1
			c0.5,0.3,0.6,0.9,0.6,1.4c0,0.4-0.2,1.1-0.5,1.6c0.4-0.3,0.7-0.6,1.1-0.9c0.3-0.2,0.6-0.3,1-0.3c0.3,0,0.5,0.1,0.8,0.2
			c0.2,0.1,0.3,0.2,0.4,0.4c0,0.1,0.1,0.2,0.1,0.3c0.2,0.9-0.7,1.7-1.5,2c-0.2,0.1-0.5,0.2-0.8,0.2c-0.1,0-0.2,0-0.4,0
			c-0.1,0-0.2,0-0.3,0c0.2,0.1,0.3,0.2,0.4,0.2c0.1,0.1,0.2,0.2,0.4,0.3c0.4,0.3,0.6,0.6,0.7,1.1c0,0.2,0,0.5,0,0.7
			c-0.1,0.4-0.4,0.7-0.8,0.8c-0.4,0.1-0.9,0-1.2-0.3c-0.2-0.2-0.8-0.8-1-1.2c0,0,0,0.6-0.1,1c-0.1,0.4-0.3,1-0.5,1.2
			c-0.3,0.4-0.8,0.7-1.2,0.5C20,15.5,19.8,15.3,19.7,15.1z"/>
		<path class="st1" d="M20.5,16.2c-0.1,0-0.3,0-0.4-0.1c-0.4-0.1-0.7-0.4-0.9-0.7c0,0,0,0,0,0c-0.1-0.1-0.2-0.3-0.2-0.5
			c0-0.2-0.1-0.3-0.1-0.5c0-0.2,0-0.6,0.1-0.9c-1.1,0.3-2.3,0.1-2.8-0.9c-0.3-0.6-0.2-1.2,0.2-1.8c0.1-0.1,0.2-0.3,0.4-0.3
			c0.4-0.3,0.8-0.5,1.3-0.5c-0.1-0.1-0.2-0.3-0.3-0.5c-0.1-0.2-0.2-0.4-0.3-0.7c-0.2-0.6-0.1-1.2,0.2-1.7c0-0.1,0.1-0.2,0.2-0.2
			c0.4-0.4,1-0.6,1.6-0.5c0.3,0.1,0.6,0.2,0.9,0.4c0.1,0.1,0.2,0.2,0.3,0.3c0-0.1,0.1-0.2,0.1-0.3c0.1-0.3,0.3-0.6,0.4-0.8
			c0.1-0.1,0.2-0.2,0.4-0.3c0.2-0.1,0.4-0.2,0.6-0.2c0.2,0,0.4,0,0.7,0c0.2,0,0.3,0.1,0.5,0.2c0.8,0.5,0.8,1.5,0.8,1.8
			c0,0.1,0,0.1,0,0.2c0.3-0.1,0.6-0.3,1-0.3c0,0,0,0,0.1,0c0.4,0,0.7,0.1,1,0.3c0.2,0.1,0.5,0.3,0.6,0.6C26.9,8.5,27,8.6,27,8.8
			c0.3,1.2-0.7,2.2-1.8,2.6c-0.1,0-0.2,0.1-0.3,0.1c0.3,0.3,0.5,0.7,0.6,1.2c0.1,0.3,0.1,0.7,0,1c-0.1,0.6-0.6,1-1.1,1.2
			c-0.6,0.2-1.2,0-1.7-0.4c-0.1-0.1-0.2-0.1-0.3-0.2c-0.1,0.4-0.3,0.9-0.4,1.1C21.6,15.9,21.1,16.2,20.5,16.2z M20.2,14.8
			c0.1,0.1,0.2,0.2,0.2,0.2c0.2,0.1,0.5-0.1,0.6-0.3c0.1-0.2,0.3-0.7,0.3-1c0.1-0.4,0.1-0.9,0.1-0.9c0-0.2,0.2-0.5,0.4-0.5
			c0.2-0.1,0.5,0.1,0.6,0.3c0.1,0.3,0.6,0.9,0.8,1c0.2,0.2,0.5,0.2,0.7,0.2c0.2-0.1,0.4-0.2,0.4-0.4c0-0.1,0-0.3,0-0.5
			c-0.1-0.3-0.2-0.6-0.5-0.8c-0.1-0.1-0.2-0.2-0.3-0.2c-0.1-0.1-0.2-0.1-0.3-0.2c0,0,0,0,0,0c-0.3-0.1-0.4-0.4-0.3-0.7
			c0.1-0.3,0.4-0.4,0.7-0.3c0,0,0,0,0,0c0.2-0.1,0.3-0.1,0.4-0.1c0.2,0,0.4-0.1,0.6-0.2c0.5-0.2,1.3-0.8,1.2-1.4
			c0-0.1,0-0.1-0.1-0.2c0-0.1-0.1-0.1-0.3-0.2c-0.1-0.1-0.3-0.1-0.5-0.2c-0.2,0-0.4,0.1-0.7,0.2c-0.3,0.2-0.6,0.4-1,0.8
			c-0.2,0.2-0.5,0.2-0.7,0c-0.2-0.2-0.3-0.5-0.1-0.7C22.8,8.4,23,7.7,23,7.5c0-0.7-0.2-0.8-0.3-0.9c0,0-0.1-0.1-0.2-0.1
			s-0.1,0-0.2,0c-0.1,0-0.1,0-0.2,0.1c0,0-0.1,0.1-0.1,0.1c-0.1,0.1-0.2,0.3-0.2,0.5c-0.1,0.2-0.1,0.4-0.1,0.6
			c0,0.2-0.1,0.7-0.1,1.1c0,0,0,0,0,0.1c0,0.3-0.3,0.6-0.6,0.5c-0.3,0-0.5-0.2-0.5-0.4c0,0,0-0.1,0-0.1l-0.1-0.2
			c0-0.1-0.1-0.2-0.1-0.3C20,8.2,19.9,8,19.8,7.8c-0.1-0.1-0.1-0.1-0.2-0.2c-0.1-0.1-0.3-0.2-0.4-0.2c-0.2,0-0.5,0-0.6,0.1
			c-0.2,0.2-0.2,0.5-0.1,0.9c0,0.1,0.1,0.3,0.2,0.4c0.2,0.4,0.6,0.8,0.9,1c0,0,0,0-0.1,0c0.2,0.1,0.4,0.3,0.4,0.6
			c0,0.3-0.3,0.5-0.6,0.5c-0.2,0-0.5,0-0.8,0c-0.5,0-0.8,0.1-1,0.3c0,0-0.1,0.1-0.1,0.1c-0.1,0.2-0.2,0.5-0.1,0.7
			c0.2,0.5,1.2,0.5,1.7,0.3c0.2-0.1,0.5-0.2,0.8-0.5c0.2-0.2,0.5-0.2,0.7,0c0.2,0.2,0.2,0.5,0.1,0.7c-0.1,0.2-0.3,0.6-0.4,0.9
			c0,0.2-0.1,0.6-0.1,0.8c0,0.1,0,0.2,0.1,0.3C20.1,14.7,20.1,14.8,20.2,14.8L20.2,14.8z M19.4,9.9L19.4,9.9L19.4,9.9z M19.4,9.9
			L19.4,9.9L19.4,9.9z"/>
	</g>
	<g>
		<path class="st4" d="M20.7,10.4c0.1-0.1,0.1-0.2,0.3-0.3c0.1-0.1,0.2-0.1,0.3-0.1c0.2,0,0.4,0,0.5,0c0.3,0.1,0.6,0.4,0.6,0.7
			c0,0.3-0.1,0.7-0.3,0.9c-0.2,0.2-0.5,0.3-0.8,0.2c-0.3-0.1-0.4-0.3-0.5-0.5C20.6,11,20.6,10.7,20.7,10.4z"/>
	</g>
	<g>
		<path class="st3" d="M13.3,21.4c-0.1-0.1-0.2-0.2-0.2-0.4c-0.1-0.1-0.1-0.3-0.1-0.4c-0.1-0.3-0.1-0.8-0.1-1.1
			c0.1-0.4,0.2-1,0.4-1.2c-0.3,0.4-0.7,0.7-0.9,0.8c-0.8,0.4-2.1,0.6-2.6-0.2c-0.3-0.4-0.2-0.9,0-1.4c0.1-0.1,0.1-0.2,0.2-0.3
			c0.4-0.4,0.8-0.6,1.3-0.7c0.3-0.1,0.6-0.1,0.9-0.1c0,0-0.1-0.1-0.1-0.1c-0.5-0.3-0.9-0.7-1.2-1.1c-0.1-0.1-0.2-0.3-0.3-0.5
			c-0.2-0.4-0.2-0.9-0.1-1.3c0-0.1,0.1-0.1,0.1-0.2c0.2-0.4,0.7-0.5,1.1-0.5c0.3,0,0.5,0.1,0.7,0.2c0.1,0.1,0.2,0.1,0.3,0.2
			c0.2,0.2,0.3,0.4,0.5,0.6c0.1,0.1,0.1,0.2,0.2,0.4c0,0.1,0.1,0.1,0.1,0.2c0,0.1,0.1,0.1,0.1,0.2c-0.1-0.4-0.1-1.1-0.1-1.3
			c0-0.2,0-0.5,0.1-0.7c0.1-0.2,0.1-0.5,0.3-0.7c0.1-0.1,0.1-0.2,0.2-0.3c0.1-0.1,0.2-0.2,0.4-0.2c0.2,0,0.3-0.1,0.5,0
			c0.1,0,0.3,0.1,0.4,0.1c0.5,0.2,0.7,0.8,0.8,1.4c0.1,0.4,0,1.2-0.3,1.8c0.3-0.4,0.7-0.8,1-1.1c0.3-0.2,0.6-0.4,1-0.5
			c0.3,0,0.6,0,0.8,0.1c0.2,0.1,0.4,0.2,0.5,0.4c0.1,0.1,0.1,0.2,0.2,0.3c0.4,0.9-0.5,1.9-1.3,2.3c-0.2,0.1-0.5,0.3-0.8,0.4
			c-0.1,0-0.2,0.1-0.4,0.1c-0.1,0-0.2,0.1-0.3,0.1c0.2,0.1,0.4,0.1,0.5,0.2c0.2,0.1,0.3,0.1,0.4,0.2c0.4,0.2,0.7,0.6,0.9,1
			c0.1,0.2,0.1,0.5,0.1,0.8c-0.1,0.4-0.3,0.8-0.7,1c-0.4,0.2-1,0.1-1.4-0.1c-0.3-0.2-1-0.8-1.2-1.1c0,0,0.1,0.6,0,1.1
			c0,0.4-0.1,1-0.3,1.3c-0.2,0.5-0.7,0.8-1.2,0.7C13.7,21.8,13.5,21.6,13.3,21.4z"/>
		<path class="st1" d="M14.1,22.3c-0.1,0-0.1,0-0.2,0c-0.4,0-0.7-0.3-1-0.6c0,0,0,0,0,0c-0.1-0.1-0.2-0.3-0.3-0.5
			c-0.1-0.1-0.1-0.3-0.2-0.5c-0.1-0.2-0.1-0.7-0.1-1c-1.1,0.5-2.4,0.5-3.1-0.5c-0.4-0.5-0.4-1.3,0-1.9c0.1-0.1,0.2-0.3,0.3-0.4
			c0.4-0.4,0.8-0.6,1.3-0.8c-0.2-0.2-0.3-0.3-0.4-0.5c-0.1-0.2-0.3-0.4-0.4-0.6c-0.3-0.6-0.3-1.2-0.1-1.8c0.1-0.1,0.1-0.2,0.1-0.2
			c0.3-0.5,0.9-0.8,1.5-0.8c0,0,0.1,0,0.1,0c0.3,0,0.7,0.1,1,0.3c0.2,0.1,0.3,0.2,0.4,0.3c0-0.2,0-0.3,0.1-0.4
			c0.1-0.3,0.2-0.6,0.3-0.9c0.1-0.2,0.2-0.3,0.4-0.4c0.2-0.2,0.4-0.3,0.6-0.3c0.2-0.1,0.4-0.1,0.7-0.1c0.2,0,0.4,0.1,0.5,0.1
			c0.9,0.4,1.1,1.4,1.1,1.8c0,0.1,0,0.1,0,0.2c0.3-0.2,0.7-0.4,1.1-0.5c0.4,0,0.8,0,1.1,0.2c0.2,0.1,0.5,0.3,0.7,0.5
			c0.1,0.1,0.2,0.3,0.2,0.5c0.5,1.3-0.5,2.4-1.5,3c-0.1,0.1-0.2,0.1-0.3,0.2c0.4,0.3,0.7,0.7,0.9,1.1c0.1,0.4,0.2,0.7,0.1,1
			c-0.1,0.6-0.5,1.1-1,1.4c-0.5,0.3-1.3,0.2-1.9-0.1c-0.1,0-0.2-0.1-0.4-0.3c0,0.4-0.1,1-0.3,1.3C15.4,21.9,14.8,22.3,14.1,22.3z
			 M13.7,21c0.1,0.1,0.2,0.2,0.3,0.2c0.3,0.1,0.6-0.2,0.7-0.4c0.1-0.2,0.2-0.8,0.2-1.1c0-0.5,0-1,0-1c0-0.2,0.1-0.5,0.4-0.6
			c0.2-0.1,0.5,0,0.6,0.2c0.2,0.3,0.8,0.8,1,0.9c0.3,0.1,0.6,0.2,0.8,0.1c0.2-0.1,0.4-0.3,0.4-0.6c0-0.2,0-0.3-0.1-0.5
			c-0.1-0.3-0.3-0.6-0.7-0.8c-0.1-0.1-0.2-0.1-0.4-0.2c-0.1-0.1-0.2-0.1-0.4-0.1l0,0l0,0c-0.3-0.1-0.5-0.4-0.4-0.7
			c0.1-0.3,0.4-0.5,0.7-0.4c0,0,0.1-0.1,0.1-0.1c0.1,0,0.2-0.1,0.3-0.1c0.2-0.1,0.5-0.2,0.7-0.3c0.5-0.3,1.3-1,1-1.7
			c0-0.1-0.1-0.1-0.1-0.2c0-0.1-0.1-0.1-0.3-0.2c-0.2-0.1-0.4-0.1-0.6-0.1c-0.2,0-0.4,0.1-0.7,0.4c-0.4,0.3-0.7,0.7-1,1
			c-0.2,0.2-0.5,0.3-0.7,0.1c-0.2-0.1-0.4-0.4-0.2-0.7c0.2-0.5,0.3-1.2,0.2-1.5c-0.1-0.7-0.3-0.9-0.5-0.9c-0.1,0-0.1-0.1-0.2-0.1
			c-0.2,0-0.1,0-0.2,0c-0.1,0-0.1,0-0.2,0.1c-0.1,0-0.1,0.1-0.1,0.2c-0.1,0.1-0.2,0.3-0.2,0.5c0,0.2-0.1,0.4-0.1,0.6
			c0,0.2,0,0.8,0.1,1.2c0,0,0,0,0,0c0,0.3-0.2,0.6-0.5,0.6c-0.3,0-0.5-0.1-0.6-0.4c0,0-0.1-0.1-0.1-0.1c0-0.1-0.1-0.1-0.1-0.2
			c-0.1-0.1-0.1-0.2-0.2-0.3c-0.1-0.2-0.2-0.4-0.4-0.5c-0.1-0.1-0.1-0.1-0.2-0.2c-0.2-0.1-0.3-0.1-0.5-0.2c-0.3,0-0.5,0.1-0.7,0.3
			c-0.1,0.3-0.1,0.6,0,1c0.1,0.1,0.1,0.3,0.2,0.4c0.3,0.4,0.7,0.7,1.1,1c0.1,0.1,0,0-0.1,0c0.3,0,0.5,0.3,0.5,0.5
			c0,0.3-0.2,0.5-0.5,0.6c-0.3,0-0.5,0.1-0.8,0.1c-0.5,0.1-0.8,0.3-1.1,0.5c0,0-0.1,0.1-0.1,0.2c-0.1,0.2-0.2,0.5-0.1,0.8
			c0.4,0.5,1.3,0.4,1.9,0c0.1-0.1,0.5-0.3,0.8-0.7c0.2-0.2,0.5-0.3,0.7-0.1c0.2,0.2,0.3,0.4,0.2,0.7c-0.1,0.2-0.3,0.7-0.3,1.1
			c0,0.2,0,0.7,0,0.9c0,0.1,0.1,0.2,0.1,0.3C13.6,20.9,13.7,21,13.7,21L13.7,21z M12.2,15.9L12.2,15.9L12.2,15.9z M12.2,15.9
			L12.2,15.9L12.2,15.9z"/>
	</g>
	<g>
		<path class="st4" d="M13.6,16.2c0-0.1,0.1-0.3,0.2-0.4c0.1-0.1,0.2-0.1,0.3-0.2c0.2-0.1,0.4-0.1,0.5,0c0.4,0.1,0.7,0.3,0.7,0.7
			c0.1,0.3,0,0.7-0.2,1c-0.2,0.3-0.5,0.4-0.8,0.3c-0.3,0-0.5-0.2-0.6-0.5C13.6,16.9,13.6,16.5,13.6,16.2z"/>
	</g>
	<g>
		<g>
			<path class="st0" d="M24.7,20.4c-1.3,1.4-3,2.5-4.8,3c1,0.8,1.8,1.7,2.4,2.8c1.2-0.7,2.3-1.4,3.5-2.1c-0.5-1-0.9-2.2-1.1-3.4"/>
		</g>
		<g>
			<g>
				<path class="st1" d="M24.3,20c-1.2,1.4-2.8,2.3-4.6,2.8c-0.4,0.1-0.6,0.6-0.2,0.9c0.9,0.7,1.7,1.6,2.3,2.6
					c0.1,0.2,0.5,0.3,0.7,0.2c1.2-0.7,2.3-1.4,3.5-2.1c0.3-0.2,0.3-0.5,0.2-0.7c-0.5-1-0.9-2.1-1-3.2c0-0.3-0.4-0.4-0.7-0.4
					c-0.3,0.1-0.4,0.4-0.4,0.7c0.2,1.2,0.6,2.4,1.1,3.5c0.1-0.2,0.1-0.5,0.2-0.7c-1.2,0.7-2.3,1.4-3.5,2.1c0.2,0.1,0.5,0.1,0.7,0.2
					c-0.6-1.1-1.5-2.1-2.5-2.9c-0.1,0.3-0.2,0.6-0.2,0.9c1.9-0.6,3.7-1.6,5.1-3.1C25.6,20.2,24.8,19.5,24.3,20L24.3,20z"/>
			</g>
		</g>
	</g>
	<g>
		<g>
			<path class="st0" d="M20.7,22.9c-0.7,0.1-1.3,0.6-1.4,1.3c-0.1,0.7,0.2,1.3,0.7,1.8c0.2,0.2,0.4,0.4,0.7,0.5
				c0.7,0.2,1.5,0,1.9-0.6C23.6,24.6,22.2,22.8,20.7,22.9z"/>
		</g>
		<g>
			<g>
				<path class="st1" d="M20.7,22.4c-0.5,0.1-1,0.2-1.4,0.6c-0.4,0.4-0.6,0.8-0.6,1.3c-0.1,1.1,0.8,2.2,1.7,2.6
					c0.9,0.4,2.1,0,2.7-0.8c0.5-0.7,0.4-1.7,0-2.4C22.6,22.9,21.7,22.3,20.7,22.4c-0.3,0-0.6,0.2-0.5,0.5c0,0.3,0.2,0.6,0.5,0.5
					c0.1,0,0.1,0,0.2,0c0,0,0.1,0,0.1,0c0,0-0.1,0,0,0c0.1,0,0.1,0,0.2,0c0,0,0.1,0,0.1,0c0.1,0-0.1,0,0,0c0.1,0.1,0.2,0.1,0.4,0.2
					c-0.1-0.1,0,0,0,0c0,0,0.1,0.1,0.1,0.1c0.1,0,0.1,0.1,0.2,0.2c0,0,0,0.1,0.1,0.1c-0.1-0.1,0,0,0,0c0,0.1,0.1,0.1,0.1,0.2
					c0,0,0,0.1,0,0.1c0,0,0.1,0.1,0,0c0-0.1,0,0,0,0c0,0,0,0.1,0,0.1c0,0.1,0,0.1,0,0.2c0-0.1,0,0.1,0,0.1c0,0.1,0,0.1,0,0.2
					c0-0.1,0,0,0,0c0,0,0,0.1,0,0.1c0,0,0,0,0,0.1c0-0.1,0,0,0,0c0,0-0.1,0.2-0.1,0.1c0,0.1-0.1,0.1-0.2,0.2c0,0,0,0-0.1,0.1
					c0.1-0.1,0,0-0.1,0c-0.1,0-0.1,0.1-0.2,0.1c0.1,0,0,0,0,0c0,0-0.1,0-0.1,0c0,0-0.1,0-0.1,0c0.1,0,0,0,0,0c-0.1,0-0.2,0-0.3,0
					c0.1,0,0,0,0,0c0,0-0.1,0-0.1,0c0,0-0.1,0-0.1,0c0.1,0-0.1,0-0.1,0c-0.1,0-0.2-0.1-0.2-0.1c0.1,0,0,0,0,0
					c-0.1,0-0.1-0.1-0.2-0.2c-0.2-0.2-0.4-0.5-0.5-0.8c0,0,0-0.1,0-0.2c0,0.1,0-0.1,0-0.1c0,0,0-0.1,0-0.1c0,0,0-0.1,0-0.1
					c0,0.1,0,0.1,0,0c0,0,0-0.1,0-0.1c0,0,0-0.1,0-0.1c0,0.1,0,0.1,0,0c0-0.1,0.1-0.1,0.1-0.2c-0.1,0.1,0,0,0,0c0,0,0.1-0.1,0.1-0.1
					c0,0,0.1-0.1,0,0c0,0,0.1,0,0.1-0.1c0,0,0.1,0,0.1-0.1c0,0,0,0,0,0c0,0,0.1,0,0.1,0c0,0,0.1,0,0.1,0c0,0,0.2,0,0.1,0
					c0.3,0,0.6-0.2,0.5-0.5C21.3,22.7,21,22.4,20.7,22.4z"/>
			</g>
		</g>
	</g>
</g>
</svg>
