<?xml version="1.0" encoding="utf-8"?>
<!-- Generator: Adobe Illustrator 26.0.2, SVG Export Plug-In . SVG Version: 6.00 Build 0)  -->
<svg version="1.1" id="레이어_1" xmlns="http://www.w3.org/2000/svg" xmlns:xlink="http://www.w3.org/1999/xlink" x="0px"
	 y="0px" viewBox="0 0 40 40" style="enable-background:new 0 0 40 40;" xml:space="preserve">
<style type="text/css">
	.st0{fill:#809364;}
	.st1{fill:#282828;}
	.st2{fill:#FFB1CF;}
	.st3{fill:#FFFFC5;}
</style>
<g>
	<g>
		<g>
			<path class="st0" d="M13.7,24.4c-0.3,2.6-0.3,5.2,0,7.8c0,0.2,0.1,0.4,0.2,0.5c0.1,0.1,0.3,0.1,0.4,0.1c5.3,0.1,9.5,0.1,14.6,0
				c0.2,0,0.3-0.2,0.3-0.3c0.1-2.7,0.2-4.9,0.1-7.6c0-0.2-0.2-0.4-0.5-0.4c-4.2,0-5.4,0-10.3,0L13.7,24.4z"/>
		</g>
		<g>
			<g>
				<path class="st1" d="M13.2,24.4c-0.3,2.3-0.3,4.6-0.1,6.9c0.1,0.6,0,1.5,0.6,1.8c0.3,0.2,0.8,0.2,1.1,0.2c0.6,0,1.3,0,2,0
					c2.1,0,4.1,0,6.2,0c1,0,2,0,3.1,0c0.5,0,1,0,1.4,0c0.5,0,1.1,0.1,1.6,0c0.8-0.2,0.8-1,0.8-1.7c0-1,0.1-2,0.1-3.1c0-1,0-2,0-3.1
					c0-0.7-0.1-1.4-1-1.6c-0.8-0.1-1.6,0-2.4,0c-0.8,0-1.5,0-2.2,0c-1.5,0-3.1,0-4.6,0c-2,0-3.9,0-5.9,0c-0.7,0-0.7,1.1,0,1.1
					c3.8,0,7.6,0,11.4,0c0.6,0,1.2,0,1.8,0c0.4,0,0.8,0,1.1,0c0.1,0,0.4,0,0.5,0c0.3,0.1,0.2,0.5,0.2,0.8c0,1.8,0,3.5,0,5.3
					c0,0.3,0.1,1.1-0.1,1.3c-0.2,0.2-1.1,0-1.3,0c-0.9,0-1.9,0-2.8,0c-1.8,0-3.5,0-5.3,0c-1,0-2,0-3,0c-0.3,0-1.7,0.1-1.8,0
					c-0.2-0.2-0.1-0.9-0.2-1.2c-0.2-2.2-0.1-4.4,0.1-6.6C14.3,23.7,13.2,23.7,13.2,24.4z"/>
			</g>
		</g>
	</g>
	<g>
		<g>
			<path class="st1" d="M16.6,27.4c-0.4-1.8-1.1-3.5-2.2-4.9c-1.1-1.5-2.6-2.7-4.1-3.9c-0.6-0.4-1.1,0.5-0.6,0.9
				c1.4,1,2.8,2.2,3.8,3.6c1,1.4,1.6,2.9,2,4.6C15.7,28.4,16.7,28.1,16.6,27.4L16.6,27.4z"/>
		</g>
	</g>
	<g>
		<g>
			<path class="st1" d="M19,26.3c-0.6-3.9-0.6-7.8,0-11.7c0.1-0.7-0.9-1-1-0.3c-0.7,4.1-0.7,8.2,0,12.3C18.1,27.3,19.1,27,19,26.3
				L19,26.3z"/>
		</g>
	</g>
	<g>
		<g>
			<path class="st1" d="M21.5,27.9c0.7-1.2,1.2-2.6,1.5-4c0.2-1.2,0.3-2.5,0.3-3.7c0-0.7-1.1-0.7-1.1,0c0,1.1,0,2.3-0.3,3.4
				c-0.3,1.3-0.7,2.5-1.4,3.7C20.3,28,21.2,28.5,21.5,27.9L21.5,27.9z"/>
		</g>
	</g>
	<g>
		<g>
			<path class="st1" d="M27.7,26.8c0-2.1,0.6-3.9,1.4-5.8c0.9-2.1,1.5-4.2,1.8-6.4c0.1-0.7-1-0.7-1.1,0c-0.2,2.3-1,4.3-1.8,6.4
				c-0.8,1.9-1.3,3.8-1.3,5.9C26.6,27.5,27.7,27.5,27.7,26.8L27.7,26.8z"/>
		</g>
	</g>
	<g>
		<path class="st2" d="M10.6,23.6c-0.1-0.1-0.2-0.2-0.3-0.3c-0.1-0.1-0.2-0.2-0.2-0.4c-0.1-0.2-0.2-0.8-0.3-1c0-0.4,0.1-1,0.1-1.3
			c-0.2,0.5-0.6,0.8-0.8,1c-0.6,0.6-1.9,1.1-2.6,0.3c-0.3-0.3-0.4-0.9-0.2-1.3c0-0.1,0.1-0.2,0.2-0.3c0.3-0.4,0.6-0.7,1.2-0.9
			c0.3-0.1,0.6-0.2,0.9-0.3c0,0-0.1,0-0.1,0c-0.5-0.2-1-0.5-1.4-0.8c-0.2-0.1-0.3-0.3-0.4-0.4c-0.2-0.4-0.4-0.8-0.3-1.3
			c0-0.1,0-0.1,0.1-0.2c0.2-0.4,0.6-0.6,1-0.7c0.3,0,0.5,0,0.8,0.1c0.1,0,0.2,0.1,0.4,0.2c0.2,0.1,0.4,0.3,0.6,0.5
			c0.1,0.1,0.2,0.2,0.3,0.3c0.1,0.1,0.1,0.1,0.1,0.2c0,0,0.1,0.1,0.1,0.2c-0.1-0.4-0.3-1-0.3-1.3c0-0.2-0.1-0.5-0.1-0.7
			c0-0.3,0-0.5,0.1-0.8c0.1-0.1,0.1-0.2,0.2-0.3c0.1-0.1,0.2-0.2,0.4-0.3c0.2-0.1,0.2-0.1,0.4-0.1c0.1,0,0.3,0,0.4,0
			c0.6,0.2,0.9,0.7,1.1,1.2c0.1,0.4,0.2,1.2,0.1,1.8c0.2-0.4,0.5-0.9,0.8-1.3c0.2-0.3,0.5-0.5,0.9-0.7c0.3-0.1,0.6-0.1,0.9,0
			c0.2,0.1,0.4,0.1,0.6,0.3c0.1,0.1,0.2,0.2,0.2,0.3c0.5,0.9-0.1,1.9-0.8,2.5c-0.2,0.2-0.4,0.4-0.7,0.5c-0.1,0.1-0.2,0.1-0.3,0.2
			c-0.1,0-0.2,0.1-0.3,0.1c0.2,0,0.4,0.1,0.5,0.1c0.2,0,0.3,0.1,0.5,0.1c0.5,0.2,0.8,0.4,1.1,0.9c0.1,0.2,0.2,0.5,0.2,0.7
			c0,0.4-0.1,0.9-0.5,1.1c-0.4,0.3-0.9,0.3-1.3,0.2c-0.3-0.1-1.1-0.6-1.4-0.8c0,0,0.2,0.6,0.3,1.1c0.1,0.4,0.1,1,0,1.4
			c-0.1,0.5-0.5,0.9-1.1,1C11,23.9,10.8,23.8,10.6,23.6z"/>
		<path class="st1" d="M11.2,24.4c-0.4,0-0.7-0.1-1-0.4l0,0c-0.2-0.1-0.3-0.3-0.4-0.4s-0.2-0.3-0.3-0.5c-0.1-0.2-0.2-0.6-0.3-1
			c-0.9,0.7-2.3,1-3.1,0.1c-0.5-0.4-0.6-1.2-0.4-1.9c0.1-0.2,0.1-0.3,0.2-0.5c0.3-0.4,0.6-0.7,1.1-1c-0.2-0.1-0.4-0.2-0.5-0.4
			C6.3,18.4,6.2,18.2,6,18c-0.2-0.3-0.6-1-0.4-1.7c0-0.1,0-0.1,0.1-0.2c0.2-0.6,0.8-0.9,1.4-1.1c0.3-0.1,0.7,0,1,0.1
			c0.2,0.1,0.3,0.1,0.4,0.2c0-0.1,0-0.3,0-0.4c0-0.3,0.1-0.7,0.2-0.9c0.1-0.2,0.1-0.3,0.3-0.5c0.2-0.2,0.3-0.3,0.6-0.5
			c0.2-0.1,0.4-0.2,0.7-0.2c0.2,0,0.3,0,0.5,0c1,0.2,1.4,1.2,1.5,1.5c0,0.1,0.1,0.2,0.1,0.2c0.2-0.3,0.5-0.6,1-0.7
			c0.4-0.1,0.8-0.1,1.2,0c0.4,0.1,0.6,0.2,0.8,0.4c0.1,0.1,0.2,0.2,0.3,0.4c0.7,1.1,0,2.4-0.9,3.2c-0.1,0.1-0.2,0.1-0.3,0.2
			c0.5,0.2,0.8,0.5,1.1,0.9c0.2,0.3,0.3,0.6,0.3,1c0.1,0.6-0.2,1.2-0.7,1.6c-0.5,0.4-1.2,0.5-1.8,0.3c-0.1,0-0.3-0.1-0.4-0.2
			c0.1,0.4,0.1,1,0,1.4c-0.2,0.8-0.8,1.3-1.5,1.4C11.3,24.4,11.3,24.4,11.2,24.4z M10.9,23.2c0.1,0.1,0.3,0.1,0.3,0.1
			c0.3,0,0.5-0.3,0.6-0.5c0.1-0.3,0.1-0.8,0-1.1c-0.1-0.5-0.2-1-0.2-1c-0.1-0.2,0-0.5,0.2-0.6c0.2-0.1,0.5-0.1,0.7,0.1
			c0.3,0.2,1,0.6,1.2,0.7c0.3,0.1,0.6,0.1,0.8-0.1c0.2-0.1,0.3-0.4,0.3-0.6c0-0.2-0.1-0.3-0.2-0.5c-0.2-0.3-0.4-0.5-0.8-0.6
			c-0.1,0-0.3-0.1-0.4-0.1c-0.1,0-0.3-0.1-0.4-0.1c-0.3,0-0.5-0.2-0.5-0.5c0-0.3,0.2-0.5,0.5-0.5c0,0,0.1-0.1,0.1-0.1
			c0.1,0,0.2-0.1,0.3-0.1c0.2-0.1,0.4-0.3,0.6-0.4c0.4-0.4,1-1.2,0.7-1.8c0-0.1-0.1-0.1-0.1-0.1c-0.1,0-0.1-0.1-0.3-0.1
			c-0.2-0.1-0.4,0-0.6,0c-0.2,0.1-0.4,0.2-0.6,0.5c-0.2,0.3-0.5,0.7-0.7,1.2c-0.1,0.2-0.4,0.4-0.7,0.3c-0.3-0.1-0.4-0.3-0.4-0.6
			c0.1-0.5,0-1.3-0.1-1.5c-0.2-0.7-0.5-0.8-0.7-0.8c-0.1,0-0.1,0-0.2,0c-0.1,0-0.1,0-0.2,0.1c-0.1,0-0.1,0.1-0.2,0.2
			c-0.1,0.1-0.1,0.1-0.1,0.2c-0.1,0.2-0.1,0.4-0.1,0.6c0,0.2,0,0.4,0.1,0.6c0,0.2,0.2,0.8,0.3,1.2c0,0,0,0,0,0
			c0.1,0.3-0.1,0.6-0.4,0.7c-0.3,0.1-0.5,0-0.6-0.2c0,0-0.1-0.1-0.1-0.1c-0.1-0.1-0.1-0.1-0.1-0.2c-0.1-0.1-0.2-0.2-0.3-0.3
			c-0.2-0.2-0.3-0.3-0.5-0.4c-0.1,0-0.2-0.1-0.3-0.1c-0.2,0-0.3-0.1-0.5,0c-0.2,0-0.5,0.2-0.6,0.4c-0.1,0.3,0,0.6,0.2,0.9
			c0.1,0.1,0.2,0.2,0.3,0.3c0.4,0.3,0.8,0.5,1.3,0.7c0.1,0,0,0,0,0c0,0,0,0,0,0c0.2,0,0.5,0.2,0.6,0.4c0.1,0.3-0.1,0.6-0.4,0.6
			c-0.3,0.1-0.5,0.2-0.8,0.3c-0.5,0.2-0.7,0.4-0.9,0.7c0,0.1-0.1,0.1-0.1,0.2c-0.1,0.2-0.1,0.6,0.1,0.8c0.4,0.5,1.4,0.1,1.9-0.3
			c0.2-0.1,0.4-0.4,0.7-0.8c0.1-0.2,0.4-0.3,0.7-0.2c0.2,0.1,0.4,0.4,0.3,0.6c-0.1,0.2-0.1,0.8-0.1,1.1c0,0.2,0.1,0.7,0.2,0.8
			c0.1,0.1,0.1,0.2,0.2,0.3C10.8,23,10.8,23.1,10.9,23.2z M8.4,18.5L8.4,18.5L8.4,18.5z"/>
	</g>
	<g>
		<path class="st3" d="M9.9,18.5c0-0.1,0.1-0.3,0.2-0.4c0.1-0.1,0.1-0.2,0.2-0.2c0.2-0.1,0.3-0.1,0.5-0.1c0.4,0,0.7,0.1,0.8,0.5
			c0.1,0.3,0.2,0.7,0,1c-0.1,0.3-0.4,0.5-0.7,0.5c-0.3,0-0.5-0.1-0.7-0.3C10,19.1,9.8,18.8,9.9,18.5z"/>
	</g>
	<g>
		<path class="st2" d="M19.6,16.7c-0.1-0.1-0.2-0.2-0.3-0.2c-0.1-0.1-0.2-0.2-0.3-0.3c-0.1-0.2-0.3-0.7-0.4-0.9
			c-0.1-0.4-0.1-0.9,0-1.2c-0.2,0.5-0.5,0.8-0.6,1c-0.5,0.6-1.6,1.2-2.4,0.6c-0.4-0.3-0.5-0.8-0.4-1.2c0-0.1,0.1-0.2,0.1-0.3
			c0.2-0.4,0.5-0.7,1-1c0.2-0.1,0.5-0.3,0.8-0.4c0,0-0.1,0-0.1,0c-0.5-0.1-1-0.3-1.4-0.6c-0.2-0.1-0.3-0.2-0.4-0.4
			c-0.3-0.3-0.5-0.7-0.4-1.2c0-0.1,0-0.1,0-0.2c0.1-0.4,0.5-0.7,0.9-0.8c0.2-0.1,0.5-0.1,0.7,0c0.1,0,0.2,0.1,0.4,0.1
			c0.2,0.1,0.4,0.2,0.6,0.4c0.1,0.1,0.2,0.2,0.3,0.3c0.1,0.1,0.1,0.1,0.2,0.1c0,0,0.1,0.1,0.1,0.1c-0.2-0.4-0.4-0.9-0.4-1.2
			S17.2,9,17.2,8.7c0-0.2,0-0.5,0-0.7c0-0.1,0.1-0.2,0.1-0.3c0.1-0.1,0.2-0.2,0.3-0.3c0.2-0.1,0.2-0.1,0.4-0.2c0.1,0,0.2,0,0.4,0
			c0.5,0.1,0.9,0.5,1.1,1c0.2,0.3,0.3,1.1,0.3,1.7c0.2-0.4,0.4-0.9,0.6-1.3c0.2-0.3,0.4-0.6,0.7-0.7c0.2-0.1,0.5-0.2,0.8-0.1
			c0.2,0,0.4,0.1,0.6,0.2c0.1,0.1,0.2,0.1,0.2,0.2c0.6,0.7,0.1,1.8-0.4,2.4c-0.2,0.2-0.4,0.4-0.6,0.5c-0.1,0.1-0.2,0.1-0.3,0.2
			c-0.1,0.1-0.2,0.1-0.3,0.1c0.2,0,0.4,0,0.5,0c0.1,0,0.3,0,0.5,0.1c0.4,0.1,0.8,0.3,1.1,0.7c0.1,0.2,0.3,0.4,0.3,0.7
			c0.1,0.4,0,0.8-0.3,1.1c-0.3,0.3-0.8,0.4-1.2,0.3c-0.3-0.1-1.1-0.4-1.4-0.6c0,0,0.2,0.5,0.4,0.9c0.1,0.4,0.2,0.9,0.2,1.3
			c0,0.5-0.4,0.9-0.9,1C20,16.9,19.8,16.8,19.6,16.7z"/>
		<path class="st1" d="M20.1,17.4c-0.3,0-0.6-0.1-0.9-0.3c-0.1-0.1-0.3-0.2-0.4-0.3c-0.1-0.1-0.2-0.3-0.3-0.4
			c-0.1-0.2-0.3-0.5-0.4-0.8c-0.8,0.7-2,1.2-2.9,0.5c-0.5-0.4-0.7-1-0.6-1.7c0-0.1,0.1-0.3,0.1-0.5c0.2-0.4,0.5-0.8,0.9-1.1
			c-0.2-0.1-0.4-0.2-0.5-0.3c-0.2-0.1-0.4-0.3-0.6-0.5c-0.4-0.5-0.6-1-0.6-1.6c0-0.1,0-0.2,0.1-0.3c0.1-0.5,0.6-0.9,1.2-1.1
			C15.7,9,16,8.9,16.3,9c0.1,0,0.3,0.1,0.4,0.1c0-0.1,0-0.2-0.1-0.3c0-0.4,0-0.7,0.1-0.9c0-0.2,0.1-0.3,0.2-0.5
			C17,7.2,17.2,7,17.4,6.9c0.2-0.1,0.4-0.2,0.6-0.2c0.2,0,0.4,0,0.5,0c0.6,0.1,1.2,0.5,1.5,1.3c0,0,0.1,0.1,0.1,0.2
			c0.2-0.3,0.4-0.6,0.9-0.8c0.3-0.2,0.7-0.2,1.1-0.2c0.2,0,0.5,0.1,0.8,0.3c0.2,0.1,0.3,0.2,0.4,0.4c0.8,0.9,0.3,2.2-0.5,3.1
			c-0.1,0.1-0.1,0.1-0.2,0.2c0.4,0.2,0.8,0.4,1.1,0.8c0.2,0.3,0.4,0.6,0.4,0.9c0.1,0.6-0.1,1.2-0.5,1.6c-0.4,0.4-1.1,0.6-1.7,0.5
			c-0.1,0-0.2-0.1-0.4-0.1c0.1,0.4,0.1,0.9,0.1,1.2c-0.1,0.7-0.6,1.4-1.3,1.5C20.3,17.4,20.2,17.4,20.1,17.4z M18.6,13.5
			c0,0,0.1,0,0.1,0c0.3,0.1,0.4,0.3,0.4,0.6c0,0.2,0,0.7,0,1c0,0.2,0.2,0.6,0.3,0.7c0.1,0.1,0.1,0.2,0.2,0.3c0.1,0,0.1,0.1,0.2,0.1
			c0,0,0,0,0,0c0.1,0,0.2,0.1,0.3,0.1c0.2-0.1,0.4-0.3,0.4-0.5c0-0.3,0-0.8-0.1-1.1c-0.1-0.4-0.3-0.9-0.3-0.9
			c-0.1-0.2,0-0.5,0.2-0.7c0.2-0.2,0.5-0.2,0.7,0c0.3,0.2,1,0.5,1.2,0.5c0.2,0.1,0.6,0,0.7-0.2c0.1-0.1,0.2-0.4,0.2-0.6
			c0-0.1-0.1-0.3-0.2-0.4c-0.2-0.2-0.5-0.4-0.8-0.5c-0.1,0-0.2-0.1-0.4-0.1c-0.1,0-0.2,0-0.4,0c0,0,0,0-0.1,0
			c-0.3,0-0.5-0.2-0.5-0.5c0-0.3,0.2-0.6,0.5-0.6c0,0,0,0,0,0c0.1-0.1,0.2-0.2,0.3-0.2c0.2-0.1,0.3-0.3,0.5-0.5
			c0.3-0.4,0.8-1.2,0.4-1.7c0,0-0.1-0.1-0.1-0.1c0,0-0.1,0-0.3-0.1c-0.2,0-0.4,0-0.5,0.1c-0.2,0.1-0.3,0.2-0.5,0.5
			c-0.2,0.4-0.4,0.9-0.6,1.2c-0.1,0.3-0.4,0.4-0.6,0.3c-0.3,0-0.5-0.3-0.4-0.6c0-0.5-0.1-1.2-0.2-1.4c-0.3-0.6-0.6-0.7-0.7-0.7
			c-0.1,0-0.1,0-0.2,0c-0.1,0-0.1,0-0.2,0.1c-0.1,0-0.1,0.1-0.1,0.1c0,0-0.1,0.1-0.1,0.2c0,0.1,0,0.3,0,0.5c0,0.2,0.1,0.4,0.1,0.6
			c0,0.2,0.3,0.7,0.4,1.1c0,0,0,0,0,0c0.1,0.3,0,0.6-0.3,0.7c-0.2,0.1-0.5,0-0.7-0.2c0,0-0.1-0.1-0.1-0.1l0,0c0,0,0-0.1-0.1-0.1
			l-0.1,0.1c-0.1-0.1-0.2-0.2-0.3-0.2c-0.2-0.1-0.3-0.2-0.5-0.3c-0.1,0-0.2-0.1-0.3-0.1c-0.1,0-0.3,0-0.5,0
			c-0.2,0.1-0.4,0.2-0.5,0.4c0,0.3,0.1,0.6,0.3,0.8c0.1,0.1,0.2,0.2,0.3,0.3c0.4,0.2,0.8,0.4,1.3,0.5c0.1,0,0,0-0.1,0
			c0.2-0.1,0.5,0.1,0.6,0.3c0.1,0.3,0,0.6-0.3,0.7c0,0,0,0,0,0l0,0c-0.2,0.1-0.5,0.2-0.7,0.4c-0.4,0.2-0.6,0.5-0.8,0.8
			c0,0.1,0,0.1-0.1,0.2c0,0.2,0,0.5,0.2,0.7c0.4,0.4,1.2-0.1,1.7-0.5c0.1-0.1,0.3-0.4,0.5-0.8C18.2,13.6,18.4,13.5,18.6,13.5z
			 M16.9,12.2C16.9,12.2,16.9,12.2,16.9,12.2C16.9,12.2,16.9,12.2,16.9,12.2C16.9,12.2,16.9,12.2,16.9,12.2z M16.9,12.2L16.9,12.2
			L16.9,12.2z"/>
	</g>
	<g>
		<path class="st3" d="M18.3,12c0-0.1,0-0.3,0.1-0.4c0.1-0.1,0.1-0.2,0.2-0.2c0.1-0.1,0.3-0.2,0.5-0.2c0.3-0.1,0.7,0.1,0.8,0.4
			c0.1,0.3,0.2,0.6,0.1,0.9C20,12.8,19.8,13,19.5,13c-0.3,0.1-0.5-0.1-0.7-0.2C18.5,12.6,18.3,12.3,18.3,12z"/>
	</g>
	<g>
		<g>
			<path class="st2" d="M21.9,17.7c-0.6-0.6-0.5-0.9-0.5-1.8c0-0.5,0.3-1.2,0.9-1.3c0.4-0.1,1,0.4,1.3,0.8c0.4,0.7,0.6,1.4,0.5,2.2
				c0.4-0.3,0.6-0.5,1.1-0.7c0.3-0.1,0.7-0.2,1-0.2s0.7,0.2,0.9,0.4c0.3,0.3,0.1,0.8-0.1,1.2c-0.2,0.4-0.6,0.6-1.1,0.8
				c-0.4,0.2-0.6,0.3-1.2,0.4c0.4,0.3,0.5,0.4,0.8,0.8c0.3,0.4,0.6,0.8,0.6,1.3c0,0.5-0.4,1-0.9,1c-0.2,0-0.4-0.1-0.6-0.2
				c-0.8-0.4-1.1-1-1.4-1.8c-0.1,0.7-0.5,1.3-1,1.9c-0.4,0.5-1.2,0.8-1.8,0.4c-0.6-0.3-0.6-1.1-0.4-1.7c0.2-0.6,0.5-1,1.1-1.5
				c-0.1,0.1-0.3,0-0.4,0c-0.1,0-0.2,0-0.4-0.1c-0.2-0.1-0.4-0.2-0.6-0.3c-0.5-0.3-1-0.6-1.2-1.1c-0.1-0.2-0.1-0.5,0-0.7
				c0.3-0.8,1.4-0.7,2.1-0.6C21,17.1,21.5,17.3,21.9,17.7z"/>
		</g>
		<g>
			<g>
				<path class="st1" d="M22.3,17.3c-0.3-0.3-0.4-0.6-0.4-1c0-0.3,0-1,0.3-1.1c0.4-0.1,0.8,0.5,0.9,0.7c0.3,0.5,0.3,1.1,0.3,1.7
					c0,0.4,0.5,0.7,0.8,0.5c0.4-0.3,0.7-0.6,1.1-0.7c0.2-0.1,0.4-0.2,0.6-0.1c0.1,0,0.5,0.1,0.5,0.3c0.1,0.4-0.5,0.8-0.7,1
					c-0.4,0.2-0.9,0.4-1.4,0.5c-0.5,0.1-0.5,0.7-0.1,1c0.4,0.3,1.7,1.5,1,2c-0.3,0.2-0.8-0.2-1-0.4c-0.3-0.3-0.5-0.7-0.6-1.1
					c-0.2-0.4-0.9-0.6-1,0c-0.1,0.6-0.4,1.2-0.8,1.6c-0.2,0.3-0.8,0.6-1.1,0.3c-0.3-0.3-0.1-0.8,0-1.1c0.2-0.5,0.5-0.8,0.9-1.2
					c0.4-0.3,0-1.1-0.5-0.9c-0.1,0-0.4-0.1-0.5-0.1c-0.2-0.1-0.5-0.2-0.7-0.3c-0.3-0.2-1.1-0.7-0.7-1.1c0.2-0.3,0.8-0.2,1.1-0.2
					c0.5,0.1,1,0.2,1.4,0.6C22,18.5,22.8,17.8,22.3,17.3c-1-0.9-3.4-1.5-4.2-0.1c-0.5,0.9,0.2,1.8,0.9,2.3c0.4,0.3,0.8,0.5,1.2,0.6
					c0.3,0.1,0.8,0.2,1.1,0.1c-0.2-0.3-0.4-0.6-0.5-0.9c-1,0.9-2.1,2.9-0.7,4c1.7,1.2,3.3-1.1,3.6-2.6c-0.4,0-0.7,0-1,0
					c0.3,0.7,0.6,1.3,1.2,1.8c0.6,0.5,1.5,0.8,2.2,0.2c0.6-0.5,0.7-1.4,0.4-2.1c-0.3-0.7-0.9-1.3-1.5-1.7c0,0.3-0.1,0.7-0.1,1
					c0.7-0.2,1.5-0.4,2.1-0.9c0.6-0.4,1.1-1.3,0.8-2.1c-0.3-0.7-1.1-1-1.8-0.9c-0.8,0.1-1.4,0.5-2,1c0.3,0.2,0.5,0.3,0.8,0.5
					c0.1-0.9-0.1-1.8-0.6-2.6c-0.4-0.6-1.3-1.2-2.1-0.9c-0.8,0.3-1,1.2-1,1.9c0,0.8,0.1,1.4,0.7,2C22,18.6,22.7,17.8,22.3,17.3z"/>
			</g>
		</g>
	</g>
	<g>
		<path class="st3" d="M23.5,18.4c-0.1-0.1-0.2-0.1-0.3-0.1c-0.2,0-0.4,0.1-0.5,0.2c-0.2,0.2-0.3,0.4-0.4,0.7c0,0.1,0,0.2,0,0.2
			c0,0.1,0.1,0.2,0.2,0.3c0.1,0.1,0.3,0.2,0.5,0.2c0.6,0.1,1.1-0.5,0.9-1.1c0,0,0-0.1,0-0.1c0-0.1-0.1-0.1-0.1-0.1
			C23.6,18.5,23.6,18.4,23.5,18.4z"/>
	</g>
	<g>
		<path class="st2" d="M30.7,21.3c-0.1-0.1-0.2-0.1-0.3-0.2c-0.1-0.1-0.2-0.2-0.3-0.3c-0.1-0.2-0.4-0.6-0.4-0.8
			c-0.1-0.3-0.2-0.8-0.2-1c-0.1,0.4-0.3,0.8-0.4,0.9c-0.4,0.6-1.3,1.2-2,0.8c-0.4-0.2-0.5-0.6-0.5-1c0-0.1,0-0.2,0-0.3
			c0.1-0.4,0.4-0.7,0.8-1c0.2-0.2,0.4-0.3,0.6-0.4c0,0-0.1,0-0.1,0c-0.4-0.1-0.9-0.2-1.3-0.4c-0.1-0.1-0.3-0.2-0.4-0.3
			c-0.3-0.2-0.5-0.6-0.5-1c0-0.1,0-0.1,0-0.1c0-0.4,0.4-0.6,0.7-0.8c0.2-0.1,0.4-0.1,0.6-0.1c0.1,0,0.2,0,0.3,0.1
			c0.2,0.1,0.4,0.1,0.6,0.3c0.1,0.1,0.2,0.1,0.3,0.2c0,0,0.1,0.1,0.1,0.1c0,0,0.1,0.1,0.1,0.1c-0.2-0.3-0.4-0.8-0.5-1
			c-0.1-0.2-0.2-0.4-0.2-0.6c0-0.2-0.1-0.4,0-0.6c0-0.1,0-0.2,0.1-0.3c0.1-0.1,0.1-0.2,0.2-0.3c0.1-0.1,0.2-0.1,0.3-0.2
			c0.1,0,0.2-0.1,0.3-0.1c0.5,0,0.8,0.3,1.1,0.7c0.2,0.3,0.4,0.9,0.5,1.4c0.1-0.4,0.2-0.8,0.4-1.2c0.1-0.3,0.3-0.5,0.6-0.7
			c0.2-0.1,0.4-0.2,0.7-0.2c0.2,0,0.4,0,0.5,0.1c0.1,0.1,0.2,0.1,0.2,0.2c0.6,0.6,0.3,1.6-0.1,2.2c-0.1,0.2-0.3,0.4-0.4,0.5
			c-0.1,0.1-0.2,0.1-0.2,0.2c-0.1,0.1-0.2,0.1-0.2,0.2c0.2,0,0.3,0,0.4,0c0.1,0,0.3,0,0.4,0c0.4,0,0.8,0.2,1,0.5
			c0.1,0.1,0.3,0.3,0.4,0.5c0.1,0.3,0.1,0.7-0.2,1c-0.2,0.3-0.7,0.4-1,0.4c-0.3,0-1-0.2-1.3-0.4c0,0,0.2,0.4,0.4,0.8
			c0.1,0.3,0.3,0.8,0.3,1.1c0,0.4-0.2,0.9-0.6,1C31.2,21.4,30.9,21.4,30.7,21.3z"/>
		<path class="st1" d="M31.2,21.9c-0.2,0-0.4-0.1-0.6-0.2c0,0,0,0,0,0c-0.1-0.1-0.3-0.2-0.4-0.3c-0.1-0.1-0.2-0.2-0.3-0.3
			c-0.1-0.1-0.3-0.4-0.4-0.6c-0.6,0.7-1.6,1.2-2.5,0.6c-0.5-0.3-0.8-0.9-0.7-1.5c0-0.1,0-0.3,0.1-0.4c0.1-0.4,0.3-0.7,0.6-1
			c-0.1-0.1-0.2-0.1-0.4-0.2c-0.2-0.1-0.4-0.2-0.5-0.4c-0.4-0.4-0.7-0.9-0.7-1.4c0-0.1,0-0.2,0-0.2c0.1-0.5,0.5-1,1-1.2
			c0.3-0.1,0.6-0.2,0.9-0.1c0.1,0,0.2,0,0.2,0c0-0.1,0-0.1,0-0.2c-0.1-0.3-0.1-0.6-0.1-0.8c0-0.2,0-0.3,0.1-0.5
			c0.1-0.2,0.2-0.4,0.4-0.5c0.2-0.1,0.3-0.2,0.5-0.3c0.1-0.1,0.3-0.1,0.5-0.1c0.6,0,1.1,0.3,1.5,1c0,0,0,0,0,0
			c0.1-0.2,0.3-0.5,0.6-0.7c0.3-0.2,0.7-0.3,1-0.3c0.3,0,0.5,0.1,0.7,0.1c0.1,0.1,0.2,0.2,0.4,0.3c0.8,0.8,0.5,2,0,2.9
			c0,0,0,0.1-0.1,0.1c0.4,0.1,0.7,0.3,1,0.5c0.2,0.2,0.4,0.5,0.5,0.8c0.2,0.5,0.1,1.1-0.2,1.5c-0.3,0.4-0.9,0.7-1.5,0.6
			c-0.1,0-0.1,0-0.2,0c0.1,0.3,0.2,0.7,0.2,1c0,0.7-0.4,1.3-1,1.5C31.4,21.9,31.3,21.9,31.2,21.9z M31,20.8c0.1,0,0.2,0,0.2,0
			c0.2-0.1,0.3-0.3,0.3-0.5c0-0.2-0.1-0.6-0.2-0.9c-0.2-0.3-0.4-0.7-0.4-0.7c-0.1-0.2-0.1-0.5,0.1-0.7s0.4-0.2,0.7-0.1
			c0.2,0.1,0.9,0.3,1.1,0.3c0.2,0,0.5-0.1,0.6-0.2c0.1-0.1,0.1-0.3,0.1-0.5c0-0.1-0.1-0.2-0.2-0.3c-0.2-0.2-0.4-0.3-0.7-0.3
			c-0.2,0-0.4,0-0.7,0h0c-0.3,0.1-0.6-0.1-0.6-0.4c-0.1-0.3,0.1-0.6,0.4-0.6h0l0,0c0.1-0.1,0.1-0.2,0.2-0.2c0.1-0.1,0.3-0.3,0.4-0.4
			c0.3-0.4,0.6-1.1,0.2-1.5c0,0-0.1-0.1-0.1-0.1c0,0-0.1,0-0.2,0c-0.1,0-0.3,0.1-0.4,0.1c-0.2,0.1-0.3,0.2-0.4,0.5
			c-0.2,0.4-0.3,0.8-0.3,1.1c-0.1,0.3-0.3,0.4-0.6,0.4c-0.3,0-0.5-0.2-0.5-0.5c0-0.4-0.2-1-0.4-1.1c-0.3-0.5-0.5-0.5-0.6-0.5
			c0,0-0.2,0-0.2,0l-0.1,0.1c0,0-0.1,0-0.1,0.1c0,0.1,0,0.1,0,0.2c0,0.1,0,0.2,0,0.4c0,0.2,0.1,0.3,0.2,0.5c0.1,0.2,0.3,0.6,0.5,0.9
			c0.2,0.2,0.1,0.6-0.1,0.8s-0.6,0.1-0.8-0.1c0,0-0.2-0.1-0.2-0.1c-0.1-0.1-0.2-0.1-0.3-0.2c-0.1-0.1-0.3-0.2-0.4-0.2
			c-0.1,0-0.2,0-0.3,0c-0.1,0-0.2,0-0.3,0.1c-0.2,0.1-0.3,0.2-0.4,0.4c0,0.2,0.1,0.4,0.3,0.6c0.1,0.1,0.2,0.1,0.3,0.2
			c0.3,0.2,0.8,0.3,1.1,0.3v0c0.2,0,0.4,0.1,0.5,0.3c0.1,0.3,0,0.6-0.2,0.7c-0.2,0.1-0.4,0.2-0.5,0.4c-0.3,0.2-0.5,0.5-0.6,0.7
			c0,0,0,0.1,0,0.2c0,0.2,0,0.4,0.2,0.5c0.4,0.2,1-0.2,1.3-0.6c0.1-0.1,0.3-0.4,0.4-0.8c0.1-0.3,0.3-0.4,0.6-0.4
			c0.3,0,0.5,0.3,0.5,0.5c0,0.2,0,0.6,0.1,0.9c0,0.1,0.2,0.5,0.3,0.6c0.1,0.1,0.1,0.1,0.2,0.2C30.8,20.7,30.9,20.7,31,20.8z"/>
	</g>
	<g>
		<path class="st3" d="M29.1,17.3c0-0.1,0-0.2,0-0.4c0-0.1,0.1-0.2,0.2-0.2c0.1-0.1,0.2-0.2,0.4-0.2c0.3-0.1,0.6,0,0.8,0.2
			c0.1,0.2,0.3,0.5,0.2,0.8c0,0.3-0.2,0.5-0.5,0.5c-0.2,0.1-0.5,0-0.6-0.1C29.4,17.8,29.2,17.6,29.1,17.3z"/>
	</g>
</g>
</svg>
