<?xml version="1.0" encoding="utf-8"?>
<!-- Generator: Adobe Illustrator 25.4.1, SVG Export Plug-In . SVG Version: 6.00 Build 0)  -->
<svg version="1.1" id="레이어_1" xmlns="http://www.w3.org/2000/svg" xmlns:xlink="http://www.w3.org/1999/xlink" x="0px"
	 y="0px" viewBox="0 0 23.28 18.27" style="enable-background:new 0 0 23.28 18.27;" xml:space="preserve">
<style type="text/css">
	.st0{fill:#1E1E28;}
	.st1{fill:#FFFFFF;}
	.st2{fill:#FF8280;}
</style>
<g>
	<path class="st0" d="M15.94,11.77c-0.25-0.47-0.74-0.65-1.23-0.78c-0.28-0.07-0.68-0.05-0.94-0.17c-0.31-0.14-0.32-0.47-0.36-0.8
		c-0.24-1.74-0.14-3.61-1.01-5.2c-0.66-1.21-1.98-1.97-3.3-2.26C8.93,2.53,8.74,2.51,8.56,2.49c0.04-0.65,0.06-1.3,0.02-1.95
		C8.56,0.26,8.34-0.01,8.04,0C7.76,0.01,7.48,0.24,7.5,0.54c0.04,0.64,0.02,1.27-0.02,1.91C6.72,2.49,5.97,2.67,5.31,3.06
		c-1.3,0.76-1.97,2.11-2.18,3.56c-0.18,1.19-0.04,2.46-0.34,3.63c-0.1,0.38-0.17,0.51-0.55,0.61c-0.39,0.1-0.78,0.11-1.15,0.27
		c-0.63,0.26-0.96,0.71-1.05,1.38c-0.09,0.72-0.03,1.67,0.85,1.82c0.02,0,0.03,0,0.04,0c0.03,0.01,0.06,0.02,0.1,0.02
		c1.22,0,2.44,0.01,3.66,0.03c-0.05,0.66-0.04,1.34,0.22,1.96c0.34,0.82,1.02,1.34,1.83,1.64c1.57,0.58,3.57,0.38,4.36-1.3
		c0.33-0.7,0.46-1.53,0.3-2.29c1.08-0.03,2.16-0.07,3.24-0.15c0.48-0.03,0.96-0.11,1.26-0.54C16.23,13.2,16.22,12.29,15.94,11.77z
		 M10.18,16.09c-0.19,0.48-0.65,0.9-1.18,1.04C7.98,17.4,6.4,16.99,5.93,16c-0.1-0.21-0.17-0.56-0.18-0.82
		c-0.02-0.27,0-0.53,0.02-0.79c1.5,0.02,3.01,0.02,4.51,0C10.46,14.94,10.38,15.57,10.18,16.09z M14.79,13.14
		c-0.3,0.1-0.77,0.04-1.08,0.05c-4.18,0.17-8.37,0.07-12.55,0.07c-0.13-0.07-0.08-0.64-0.03-0.77c0.1-0.26,0.23-0.32,0.5-0.42
		c0.49-0.18,1.05-0.11,1.5-0.4c1.05-0.66,0.89-2.55,0.95-3.61c0.08-1.43,0.25-3,1.5-3.91C6.5,3.5,7.73,3.37,8.82,3.61
		c1.14,0.25,2.24,0.87,2.75,1.96c0.66,1.4,0.58,3.06,0.77,4.56c0.06,0.49,0.13,1.06,0.5,1.42c0.34,0.33,0.79,0.32,1.22,0.4
		c0.53,0.1,0.97,0.13,0.97,0.73C15.04,13.05,15.07,13.05,14.79,13.14z"/>
	<path class="st1" d="M11.56,5.57c-0.51-1.09-1.61-1.71-2.75-1.96C7.73,3.37,6.5,3.5,5.58,4.17c-1.25,0.91-1.42,2.48-1.5,3.91
		c-0.06,1.06,0.1,2.94-0.95,3.61c-0.45,0.29-1.01,0.22-1.5,0.4c-0.27,0.1-0.4,0.16-0.5,0.42c-0.05,0.13-0.1,0.7,0.03,0.77
		c4.18,0,8.38,0.1,12.55-0.07c0.32-0.01,0.78,0.05,1.08-0.05c0.28-0.09,0.25-0.1,0.25-0.46c0-0.6-0.45-0.64-0.97-0.73
		c-0.44-0.08-0.89-0.07-1.22-0.4c-0.37-0.36-0.44-0.94-0.5-1.42C12.14,8.62,12.22,6.97,11.56,5.57z"/>
	<path class="st2" d="M5.74,15.19C5.76,15.44,5.83,15.8,5.93,16c0.48,0.99,2.05,1.4,3.07,1.13c0.53-0.14,0.99-0.56,1.18-1.04
		c0.21-0.52,0.28-1.15,0.1-1.7c-1.5,0.02-3.01,0.01-4.51,0C5.74,14.66,5.73,14.92,5.74,15.19z"/>
	<path d="M15.86,3.32c1.21-0.66,2.49-1.17,3.68-1.87c0.25-0.15,0.35-0.49,0.2-0.75c-0.15-0.25-0.49-0.35-0.75-0.2
		c-1.18,0.7-2.47,1.22-3.68,1.87c-0.26,0.14-0.34,0.5-0.2,0.75C15.26,3.39,15.6,3.46,15.86,3.32L15.86,3.32z"/>
	<path d="M17.28,8.04c1.32,0,2.64-0.14,3.97-0.14c0.29,0,0.55-0.25,0.55-0.55c0-0.3-0.25-0.55-0.55-0.55
		c-1.32,0-2.64,0.14-3.97,0.14c-0.29,0-0.55,0.25-0.55,0.55C16.73,7.79,16.98,8.04,17.28,8.04L17.28,8.04z"/>
	<path d="M19.06,15.47c1.18,0.42,2.35,0.87,3.54,1.28c0.27,0.09,0.61-0.11,0.67-0.38c0.07-0.3-0.09-0.57-0.38-0.67
		c-1.19-0.4-2.36-0.86-3.54-1.28c-0.27-0.1-0.61,0.11-0.67,0.38C18.61,15.1,18.77,15.36,19.06,15.47L19.06,15.47z"/>
	<path class="st0" d="M15.94,11.77c-0.25-0.47-0.74-0.65-1.23-0.78c-0.28-0.07-0.68-0.05-0.94-0.17c-0.31-0.14-0.32-0.47-0.36-0.8
		c-0.24-1.74-0.14-3.61-1.01-5.2c-0.66-1.21-1.98-1.97-3.3-2.26C8.93,2.53,8.74,2.51,8.56,2.49c0.04-0.65,0.06-1.3,0.02-1.95
		C8.56,0.26,8.34-0.01,8.04,0C7.76,0.01,7.48,0.24,7.5,0.54c0.04,0.64,0.02,1.27-0.02,1.91C6.72,2.49,5.97,2.67,5.31,3.06
		c-1.3,0.76-1.97,2.11-2.18,3.56c-0.18,1.19-0.04,2.46-0.34,3.63c-0.1,0.38-0.17,0.51-0.55,0.61c-0.39,0.1-0.78,0.11-1.15,0.27
		c-0.63,0.26-0.96,0.71-1.05,1.38c-0.09,0.72-0.03,1.67,0.85,1.82c0.02,0,0.03,0,0.04,0c0.03,0.01,0.06,0.02,0.1,0.02
		c1.22,0,2.44,0.01,3.66,0.03c-0.05,0.66-0.04,1.34,0.22,1.96c0.34,0.82,1.02,1.34,1.83,1.64c1.57,0.58,3.57,0.38,4.36-1.3
		c0.33-0.7,0.46-1.53,0.3-2.29c1.08-0.03,2.16-0.07,3.24-0.15c0.48-0.03,0.96-0.11,1.26-0.54C16.23,13.2,16.22,12.29,15.94,11.77z
		 M10.18,16.09c-0.19,0.48-0.65,0.9-1.18,1.04C7.98,17.4,6.4,16.99,5.93,16c-0.1-0.21-0.17-0.56-0.18-0.82
		c-0.02-0.27,0-0.53,0.02-0.79c1.5,0.02,3.01,0.02,4.51,0C10.46,14.94,10.38,15.57,10.18,16.09z M14.79,13.14
		c-0.3,0.1-0.77,0.04-1.08,0.05c-4.18,0.17-8.37,0.07-12.55,0.07c-0.13-0.07-0.08-0.64-0.03-0.77c0.1-0.26,0.23-0.32,0.5-0.42
		c0.49-0.18,1.05-0.11,1.5-0.4c1.05-0.66,0.89-2.55,0.95-3.61c0.08-1.43,0.25-3,1.5-3.91C6.5,3.5,7.73,3.37,8.82,3.61
		c1.14,0.25,2.24,0.87,2.75,1.96c0.66,1.4,0.58,3.06,0.77,4.56c0.06,0.49,0.13,1.06,0.5,1.42c0.34,0.33,0.79,0.32,1.22,0.4
		c0.53,0.1,0.97,0.13,0.97,0.73C15.04,13.05,15.07,13.05,14.79,13.14z"/>
	<path class="st0" d="M15.94,11.77c-0.25-0.47-0.74-0.65-1.23-0.78c-0.28-0.07-0.68-0.05-0.94-0.17c-0.31-0.14-0.32-0.47-0.36-0.8
		c-0.24-1.74-0.14-3.61-1.01-5.2c-0.66-1.21-1.98-1.97-3.3-2.26C8.93,2.53,8.74,2.51,8.56,2.49c0.04-0.65,0.06-1.3,0.02-1.95
		C8.56,0.26,8.34-0.01,8.04,0C7.76,0.01,7.48,0.24,7.5,0.54c0.04,0.64,0.02,1.27-0.02,1.91C6.72,2.49,5.97,2.67,5.31,3.06
		c-1.3,0.76-1.97,2.11-2.18,3.56c-0.18,1.19-0.04,2.46-0.34,3.63c-0.1,0.38-0.17,0.51-0.55,0.61c-0.39,0.1-0.78,0.11-1.15,0.27
		c-0.63,0.26-0.96,0.71-1.05,1.38c-0.09,0.72-0.03,1.67,0.85,1.82c0.02,0,0.03,0,0.04,0c0.03,0.01,0.06,0.02,0.1,0.02
		c1.22,0,2.44,0.01,3.66,0.03c-0.05,0.66-0.04,1.34,0.22,1.96c0.34,0.82,1.02,1.34,1.83,1.64c1.57,0.58,3.57,0.38,4.36-1.3
		c0.33-0.7,0.46-1.53,0.3-2.29c1.08-0.03,2.16-0.07,3.24-0.15c0.48-0.03,0.96-0.11,1.26-0.54C16.23,13.2,16.22,12.29,15.94,11.77z
		 M10.18,16.09c-0.19,0.48-0.65,0.9-1.18,1.04C7.98,17.4,6.4,16.99,5.93,16c-0.1-0.21-0.17-0.56-0.18-0.82
		c-0.02-0.27,0-0.53,0.02-0.79c1.5,0.02,3.01,0.02,4.51,0C10.46,14.94,10.38,15.57,10.18,16.09z M14.79,13.14
		c-0.3,0.1-0.77,0.04-1.08,0.05c-4.18,0.17-8.37,0.07-12.55,0.07c-0.13-0.07-0.08-0.64-0.03-0.77c0.1-0.26,0.23-0.32,0.5-0.42
		c0.49-0.18,1.05-0.11,1.5-0.4c1.05-0.66,0.89-2.55,0.95-3.61c0.08-1.43,0.25-3,1.5-3.91C6.5,3.5,7.73,3.37,8.82,3.61
		c1.14,0.25,2.24,0.87,2.75,1.96c0.66,1.4,0.58,3.06,0.77,4.56c0.06,0.49,0.13,1.06,0.5,1.42c0.34,0.33,0.79,0.32,1.22,0.4
		c0.53,0.1,0.97,0.13,0.97,0.73C15.04,13.05,15.07,13.05,14.79,13.14z"/>
</g>
</svg>
