<?xml version="1.0" encoding="utf-8"?>
<!-- Generator: Adobe Illustrator 25.4.1, SVG Export Plug-In . SVG Version: 6.00 Build 0)  -->
<svg version="1.1" id="레이어_1" xmlns="http://www.w3.org/2000/svg" xmlns:xlink="http://www.w3.org/1999/xlink" x="0px"
	 y="0px" viewBox="0 0 14.84 16.64" style="enable-background:new 0 0 14.84 16.64;" xml:space="preserve">
<g>
	<path d="M14.43,5.05c-0.47-0.66-1.16-1.13-1.79-1.63C11.22,2.29,9.78,1.16,8.3,0.1C7.73-0.31,7.19,0.63,7.75,1.04
		c1.37,0.99,2.7,2.02,4.02,3.08c0.59,0.47,1.31,0.92,1.75,1.54c0.4,0.57,0.24,1.48,0.22,2.14c-0.06,2.52-0.14,5.03-0.2,7.54
		c-2.22,0.01-4.43,0.02-6.65,0.15c-1.19,0.07-2.36,0.03-3.55,0.04c-0.71,0.01-1.42,0.03-2.13,0.02C1.15,12.16,1.23,8.78,1.09,5.41
		C2.97,4.8,4.84,4.19,6.72,3.6C7.39,3.39,7.1,2.34,6.44,2.55C4.42,3.19,2.41,3.84,0.4,4.49C0.18,4.56-0.01,4.77,0,5.02
		c0.17,3.68,0.04,7.37,0.15,11.06c0.01,0.31,0.24,0.52,0.54,0.54c0.86,0.06,1.71,0,2.57-0.01c1.22-0.01,2.42,0.04,3.64-0.04
		c2.39-0.15,4.78-0.14,7.18-0.16c0.3,0,0.53-0.25,0.54-0.54c0.07-2.99,0.22-5.99,0.23-8.98C14.84,6.21,14.83,5.61,14.43,5.05z"/>
	<path d="M3.44,6.92C2.6,7.49,2.32,8.6,2.66,9.53c0.35,0.98,1.13,1.76,1.89,2.44c0.38,0.33,0.76,0.66,1.13,1
		c0.41,0.37,0.86,0.76,1.42,0.86c1.14,0.21,2.23-0.93,2.97-1.64c1.33-1.26,3.14-3.44,2.16-5.39C11.7,5.79,10.27,5.29,9.2,5.69
		c-0.9,0.34-1.55,1.18-2.04,2.03C7.12,7.68,7.08,7.62,7.03,7.57C6.69,7.27,6.31,7.03,5.89,6.85C5.12,6.53,4.16,6.43,3.44,6.92z
		 M6.88,9.08c0.04,0.04,0.09,0.05,0.14,0.07c0.01,0.01,0.03,0.01,0.04,0.02c0.02,0.01,0.03,0.01,0.05,0.02
		c0.22,0.1,0.49,0.06,0.63-0.22C8.1,8.23,8.55,7.43,9.22,6.92c0.56-0.42,1.44-0.35,1.91,0.2c0.49,0.58,0.24,1.44-0.06,2.05
		c-0.36,0.72-0.87,1.35-1.43,1.92c-0.57,0.58-1.21,1.26-1.95,1.59c-0.72,0.32-1.41-0.66-1.89-1.08C4.96,10.9,2.93,9.37,3.8,8.08
		C4.17,7.53,4.9,7.63,5.45,7.84c0.31,0.12,0.61,0.31,0.85,0.53C6.52,8.58,6.71,8.94,6.88,9.08z"/>
</g>
</svg>
