<?xml version="1.0" encoding="utf-8"?>
<!-- Generator: Adobe Illustrator 26.0.2, SVG Export Plug-In . SVG Version: 6.00 Build 0)  -->
<svg version="1.1" id="레이어_1" xmlns="http://www.w3.org/2000/svg" xmlns:xlink="http://www.w3.org/1999/xlink" x="0px"
	 y="0px" viewBox="0 0 40 40" style="enable-background:new 0 0 40 40;" xml:space="preserve">
<style type="text/css">
	.st0{fill:#BCBCBC;}
	.st1{fill:#282828;}
	.st2{fill:#FFCFC5;}
	.st3{fill:#FFFFFF;}
	.st4{fill:#FFC8BE;}
	.st5{fill:#FFEDE3;}
</style>
<g>
	<g>
		<path class="st0" d="M9.3,27.5c-1,2.3-0.8,1.7-1.8,4.1c-0.1,0.2-0.3,0.8-0.3,1.1c0,0.3,0.2,0.7,0.4,0.9c3.2,2.8,6.7,3.4,11,3
			c0.4,0,0.7-0.2,0.8-0.6c0.8-2.7,1-3.5,1.6-6.5L9.3,27.5z"/>
		<g>
			<path class="st1" d="M8.8,27.2c-0.6,1.4-1.3,2.8-1.9,4.2C6.6,32.2,6.4,33,7,33.7c0.6,0.7,1.6,1.3,2.4,1.8c1.7,1,3.6,1.5,5.5,1.6
				c1,0.1,2.1,0.1,3.1,0c1-0.1,1.7-0.3,2-1.3c0.7-2,1.1-4.1,1.5-6.2c0-0.3-0.1-0.6-0.4-0.7c-3.4-0.6-6.9-1.2-10.3-1.8
				c-0.5-0.1-1-0.2-1.5-0.2c-0.7-0.1-1,0.9-0.3,1c3.4,0.6,6.9,1.2,10.3,1.8c0.5,0.1,1,0.2,1.5,0.2c-0.1-0.2-0.2-0.5-0.4-0.7
				c-0.4,2-0.8,3.9-1.4,5.8C19,35.4,19,35.8,18.6,36c-0.3,0.1-0.7,0.1-0.9,0.1c-0.5,0-1,0-1.5,0c-1.1,0-2.2-0.1-3.2-0.4
				c-1-0.2-2-0.6-3-1.2c-0.7-0.4-2.5-1.3-2.2-2.3c0.2-0.8,0.7-1.6,1-2.4c0.4-0.7,0.7-1.5,1-2.2C10,27.1,9.1,26.5,8.8,27.2z"/>
		</g>
	</g>
	<g>
		<path class="st2" d="M15,8.9c-0.5-0.1-1.5-0.2-2-0.3c-0.4,0-0.8,0.1-1.2,0.3c-0.7,0.3-1.1,0.9-1.2,1.5c-0.2,1.3-0.2,1.5-0.3,2.6
			c-0.2,1.9,2.5,4,2.4,6c-0.1,1.5-0.3,2-0.5,3c-0.6,3.1-1.7,4.2-1.9,4.5c0,0.1-0.1,0.3-0.2,0.4c0.8,0.4,1.6,0.9,2.6,1.2
			c2.6,0.7,5.9,1.3,8,1.2c-0.1-1.2,0.3-2.5,0.6-3.7c0.2-0.7,0.4-1.3,0.6-2c0.2-0.4,0.4-0.8,0.6-1.1c0.4-0.5,0.8-1.1,1.1-1.6
			c0.5-0.8,1-1.6,1.4-2.4c0.5-1.1,1-2.2,1.5-3.4c0.2-0.5,0.5-1.4,0.7-1.9c0.2-0.8,0.3-1.5,0-2.2c-0.2-0.5-0.6-0.8-1.1-0.7
			c-0.4,0-1,0.2-1.2,0.5c0-0.6-0.3-1.8-1-2c-0.8-0.2-1.5,0.1-1.8,0.7c0-0.6-0.4-1.8-1-2c-0.5-0.2-0.9,0-1.2,0.2
			c-0.4,0.3-0.6,0.4-0.8,0.8c0-0.4-0.4-1-0.8-1.3C18.1,7.1,17.7,7,17.3,7c-1.1,0.2-1.4,1.4-1.6,1.9"/>
		<g>
			<path class="st1" d="M15.2,8.4c-1.8-0.3-4.1-0.6-5,1.6c-0.8,1.9-0.6,4.1,0.5,5.8c0.6,1,1.4,2,1.5,3.2c0,1.1-0.4,2.3-0.6,3.4
				c-0.3,1.1-0.6,2.2-1.2,3.2c-0.3,0.5-0.5,0.9-0.7,1.4c-0.1,0.2,0.1,0.5,0.2,0.6c3.3,1.7,7.2,2.7,10.9,2.5c0.3,0,0.5-0.2,0.5-0.5
				c0-2.3,0.7-4.9,2-6.8c1.4-2,2.5-4.1,3.4-6.3c0.7-1.6,1.7-3.4,1.1-5.1c-0.4-1.4-2.2-1.7-3.2-0.7c0.3,0.1,0.6,0.3,0.9,0.4
				c0-0.9-0.3-2-1.2-2.4c-1-0.5-2.1,0-2.6,0.9c0.3,0.1,0.7,0.2,1,0.3c0-0.9-0.4-2.1-1.3-2.5c-1.1-0.5-2.2,0.4-2.8,1.2
				c0.3,0,0.7,0.1,1,0.1c-0.2-1.2-1.4-2.2-2.7-1.9c-1.1,0.3-1.5,1.3-1.8,2.2c-0.2,0.7,0.8,0.9,1.1,0.3c0.1-0.4,0.2-0.8,0.5-1.1
				c0.7-0.9,1.7-0.2,1.9,0.7c0.1,0.5,0.8,0.5,1,0.1c0.4-0.6,1.2-1.1,1.8-0.4c0.2,0.3,0.3,0.8,0.3,1.1c0,0.6,0.7,0.7,1,0.3
				c0.8-1.3,1.8,0,1.8,0.9c0,0.5,0.6,0.7,0.9,0.4c0.8-0.8,1.5,0.1,1.5,1c0,0.4-0.1,0.8-0.2,1.2c-0.3,0.8-0.6,1.5-0.9,2.3
				c-0.7,1.6-1.4,3.2-2.3,4.7c-0.8,1.3-1.8,2.5-2.3,3.9c-0.5,1.6-1,3.3-1,5c0.2-0.2,0.4-0.4,0.5-0.5c-3.5,0.2-7.3-0.7-10.4-2.3
				c0.1,0.2,0.2,0.4,0.2,0.6c0.4-1.2,1.2-2.1,1.6-3.4c0.5-1.6,1.3-3.9,0.9-5.6c-0.4-1.8-2.3-3.2-2.3-5.1c0-1,0.1-2.6,0.8-3.3
				c0.9-0.8,2.1-0.4,3.2-0.3C15.6,9.5,15.8,8.5,15.2,8.4L15.2,8.4z"/>
		</g>
	</g>
	<g>
		<path class="st3" d="M17.2,27.1c0.4,0,0.8,0,1.2,0c0.2,0,0.4,0,0.6,0c0.6-0.1,1.4-0.3,2-0.1c0.5,0.2,0.7,0.9,0.6,1.4
			c-0.1,0.9-0.3,1.4-0.6,2.3c-0.3,0.8-1.9,0.8-3,0.8c-1.1,0-2.8-0.1-3.9-0.3c-0.4-0.1-0.7-0.2-1.1-0.3c-0.7-0.2-1.2-0.4-1.9-0.8
			c-0.4-0.3-0.8-0.6-1.2-0.9c-0.4-0.3-0.7-0.8-0.9-1.3c-0.2-0.5,0.2-1.2,0.5-2c0.2-0.6,0.5-1.4,1.2-1.5c0.2,0,0.4,0.1,0.6,0.2
			c0.1,0.1,0.2,0.1,0.3,0.2c1,0.7,2.3,1.5,3.4,1.9c0.4,0.1,0.7,0.2,1.1,0.3C16.5,27,16.8,27.1,17.2,27.1z"/>
		<g>
			<path class="st1" d="M17.2,27.7c1,0.1,2-0.1,3-0.2c1.3-0.1,0.9,1.1,0.6,1.9c-0.1,0.3-0.2,1-0.4,1.2c-0.2,0.2-0.6,0.3-0.9,0.3
				c-0.8,0.1-1.6,0.1-2.5,0c-2-0.1-4.1-0.3-5.7-1.4c-0.7-0.5-2-1.3-1.7-2.3c0.1-0.4,0.3-0.9,0.5-1.3c0.1-0.3,0.3-0.8,0.6-0.9
				c0.4-0.1,1.3,0.7,1.6,0.9c0.5,0.3,1,0.6,1.6,0.9C14.9,27.3,16,27.6,17.2,27.7c0.7,0,0.7-1,0-1.1c-1.5-0.1-2.8-0.6-4.1-1.4
				c-0.9-0.5-2.1-1.8-3.2-1c-0.4,0.3-0.6,0.7-0.8,1.1C9,25.9,8.7,26.4,8.6,27c-0.3,1.2,0.5,2.2,1.4,2.9c2.1,1.6,4.6,2.1,7.2,2.2
				c1,0,2.1,0.1,3.1-0.2c1.1-0.3,1.3-1.2,1.6-2.2c0.2-1,0.6-2.4-0.5-3.1c-0.6-0.3-1.2-0.2-1.9-0.2c-0.8,0.1-1.6,0.2-2.4,0.1
				C16.5,26.5,16.5,27.6,17.2,27.7z"/>
		</g>
	</g>
	<g>
		<path class="st1" d="M18.7,8.4c-0.2,0.8-0.4,1.6-0.7,2.5c-0.1,0.4-0.2,0.7-0.4,1.1c-0.1,0.2-0.1,0.3-0.2,0.5c0,0.1,0,0.1-0.1,0.2
			c0,0.1,0,0.1,0,0c0,0,0,0.1,0,0.1c-0.1,0.3-0.3,0.6-0.6,0.8c-0.3,0.1-0.5,0.2-0.8,0.1c-0.3-0.1-0.4-0.3-0.4-0.6
			c-0.1-0.4,0-0.9,0.1-1.3c0.1-0.3-0.1-0.6-0.4-0.7c-0.3-0.1-0.6,0.1-0.7,0.4c-0.1,0.8-0.3,1.6,0.1,2.4c0.4,0.8,1.3,1,2.1,0.8
			c0.8-0.2,1.3-0.8,1.6-1.5c0.3-0.6,0.5-1.3,0.7-2c0.3-0.8,0.5-1.7,0.7-2.6C19.9,8,18.9,7.7,18.7,8.4L18.7,8.4z"/>
	</g>
	<g>
		<path class="st1" d="M17.7,11.7c-0.3,0.8-0.5,1.7-0.3,2.5c0.1,0.9,0.7,1.8,1.8,1.8c0.5,0,1-0.3,1.4-0.6c0.4-0.4,0.5-0.8,0.7-1.2
			c0.3-0.7,0.5-1.4,0.8-2.2c0.2-0.8,0.5-1.6,0.7-2.4c0.2-0.7-0.9-1-1-0.3c-0.3,1.1-0.7,2.2-1,3.3c-0.1,0.4-0.3,0.8-0.4,1.1
			c-0.1,0.3-0.3,0.7-0.6,0.9c-0.2,0.2-0.6,0.3-0.9,0.2c-0.2-0.1-0.3-0.4-0.4-0.7c-0.1-0.7,0.1-1.5,0.3-2.1c0.1-0.3-0.1-0.6-0.4-0.7
			C18.1,11.2,17.8,11.4,17.7,11.7L17.7,11.7z"/>
	</g>
	<g>
		<path class="st1" d="M20.7,12.8c-0.2,0.7-0.4,1.4-0.3,2.1c0.2,0.8,0.8,1.5,1.7,1.5c0.8,0,1.7-0.7,2-1.4c0.3-0.6,0.5-1.2,0.8-1.9
			c0.3-0.8,0.5-1.7,0.8-2.5c0.2-0.7-0.8-1-1-0.3c-0.3,0.8-0.5,1.6-0.8,2.4c-0.2,0.6-0.4,1.3-0.8,1.9c-0.2,0.3-0.5,0.6-0.8,0.7
			s-0.6,0-0.7-0.3c-0.3-0.6,0-1.2,0.2-1.9C21.9,12.4,20.9,12.1,20.7,12.8L20.7,12.8z"/>
	</g>
	<g>
		<path class="st1" d="M23.6,13.4c-0.2,0.5-0.3,0.9-0.4,1.4c-0.1,0.4-0.1,0.9,0,1.3c0.2,0.5,0.6,0.9,1.2,1.1c0.5,0.1,1.1,0,1.5-0.4
			c0.5-0.4,0.8-0.9,1.1-1.5c0.1-0.3,0.1-0.6-0.2-0.8c-0.2-0.1-0.6-0.1-0.8,0.2c-0.1,0.3-0.2,0.5-0.4,0.8c0,0-0.1,0.2-0.1,0.1
			c0,0.1-0.1,0.1-0.1,0.1c0,0.1-0.1,0.1-0.1,0.1c0.1-0.1-0.1,0.1-0.1,0.1c-0.1,0-0.1,0.1-0.2,0.1s-0.1,0,0,0c0,0-0.1,0-0.1,0
			c0,0-0.1,0-0.1,0c0.1,0,0.1,0,0,0c0,0-0.1,0-0.1,0c0,0-0.1,0-0.1,0c0.1,0,0.1,0,0,0c-0.1,0-0.1,0-0.2,0c0,0-0.1,0-0.1,0
			c0.1,0,0.1,0,0,0c0,0-0.1-0.1-0.1-0.1c0.1,0.1,0,0,0-0.1c0.1,0.1,0-0.1,0-0.1c0,0.1,0-0.1,0-0.1c0,0,0-0.1,0-0.1c0,0.1,0,0.1,0,0
			c0-0.2,0-0.3,0-0.5c0,0.2,0,0,0,0c0-0.1,0-0.1,0-0.2c0-0.1,0-0.2,0.1-0.4c0.1-0.3,0.2-0.6,0.3-0.9c0.1-0.3-0.1-0.6-0.4-0.7
			C23.9,13,23.7,13.2,23.6,13.4L23.6,13.4z"/>
	</g>
	<g>
		<path class="st4" d="M13.7,11.8c0.5,0.1,0.9,0,1.4-0.1c0.1,0,0.3-0.1,0.4-0.1c0.1,0,0.2-0.1,0.2-0.1c0.1-0.1,0.3-0.1,0.4-0.2
			c0.3-0.2,0.5-0.4,0.7-0.7c0.1-0.3,0.7-1.3,0-1.6c-0.2-0.1-0.5,0-0.6,0c-0.4,0-0.6,0-0.9,0c-0.1,0-0.2,0-0.3-0.1
			c-0.2,0-0.4-0.1-0.7-0.1"/>
		<g>
			<path class="st1" d="M13.7,12.4c0.7,0.1,1.5-0.1,2.2-0.3c0.6-0.2,1.2-0.6,1.5-1.2c0.2-0.4,0.4-0.8,0.4-1.3c0-0.3-0.1-0.6-0.3-0.8
				c-0.2-0.2-0.6-0.3-0.9-0.3c-0.1,0-0.1,0-0.2,0c-0.1,0,0,0,0,0c-0.1,0-0.2,0-0.2,0c-0.2,0-0.3,0-0.5,0c0,0-0.1,0-0.1,0
				c-0.2,0,0.1,0-0.1,0c-0.1,0-0.2,0-0.3,0c-0.2,0-0.4-0.1-0.6-0.1c-0.3-0.1-0.6,0.1-0.7,0.4c-0.1,0.3,0.1,0.6,0.4,0.7
				c0.6,0.1,1.2,0.2,1.8,0.2c0.1,0,0.2,0,0.3,0c0.1,0,0.1,0,0.2,0c0,0,0,0,0,0c0.1,0,0.1,0,0.2,0c0.1,0,0,0,0,0c0,0,0.1,0,0,0
				c0.1,0,0,0,0,0c0,0,0,0,0,0c0,0.1-0.1-0.1,0,0c0,0,0,0,0,0c0.1,0.1,0,0,0,0c0,0,0,0.1,0,0.1c0,0.1,0-0.1,0-0.1c0,0,0,0,0,0.1
				c0,0.1,0,0.1,0,0.1c0,0.1,0-0.1,0,0c0,0.1,0,0.1,0,0.2c0,0.1-0.1,0.2-0.1,0.2c0,0.1,0-0.1,0-0.1c0,0,0,0.1,0,0.1
				c0,0,0,0.1-0.1,0.1c0,0.1-0.1,0.1-0.1,0.1c0,0,0,0,0,0.1c0,0-0.1,0.1,0,0.1c0,0,0,0,0,0c0,0-0.1,0.1-0.1,0.1c0,0,0,0-0.1,0.1
				c0,0-0.1,0.1,0,0c0,0,0,0,0,0c0,0-0.1,0-0.1,0c-0.1,0.1-0.2,0.1-0.4,0.2c0,0-0.1,0,0,0c-0.1,0-0.1,0-0.1,0.1
				c-0.1,0-0.2,0.1-0.2,0.1c-0.2,0.1-0.3,0.1-0.5,0.1c0,0-0.1,0-0.1,0c0,0-0.1,0-0.1,0c0.1,0-0.1,0-0.1,0c-0.1,0-0.1,0-0.1,0
				c-0.2,0-0.4,0-0.5,0c-0.3,0-0.6,0.3-0.6,0.6C13.2,12.1,13.4,12.3,13.7,12.4L13.7,12.4z"/>
		</g>
	</g>
	<path class="st5" d="M16.9,9.3c0,0.4-0.3,0.8-0.6,1c-0.3,0.2-0.6,0.2-1,0.2c-0.2,0-0.5,0-0.7,0c0,0-0.1,0-0.1,0c0,0,0-0.1,0-0.1
		c-0.1-0.4-0.1-0.9,0-1.4L16.9,9.3z"/>
	<g>
		<path class="st1" d="M13.7,12.4c0.7,0.1,1.5-0.1,2.2-0.3c0.6-0.2,1.2-0.6,1.5-1.2c0.2-0.4,0.4-0.8,0.4-1.3c0-0.3-0.1-0.6-0.3-0.8
			c-0.2-0.2-0.6-0.3-0.9-0.3c-0.1,0-0.1,0-0.2,0c-0.1,0,0,0,0,0c-0.1,0-0.2,0-0.2,0c-0.2,0-0.3,0-0.5,0c0,0-0.1,0-0.1,0
			c-0.2,0,0.1,0-0.1,0c-0.1,0-0.2,0-0.3,0c-0.2,0-0.4-0.1-0.6-0.1c-0.3-0.1-0.6,0.1-0.7,0.4c-0.1,0.3,0.1,0.6,0.4,0.7
			c0.6,0.1,1.2,0.2,1.8,0.2c0.1,0,0.2,0,0.3,0c0.1,0,0.1,0,0.2,0c0,0,0,0,0,0c0.1,0,0.1,0,0.2,0c0.1,0,0,0,0,0c0,0,0.1,0,0,0
			c0.1,0,0,0,0,0c0,0,0,0,0,0c0,0.1-0.1-0.1,0,0c0,0,0,0,0,0c0.1,0.1,0,0,0,0c0,0,0,0.1,0,0.1c0,0.1,0-0.1,0-0.1c0,0,0,0,0,0.1
			c0,0.1,0,0.1,0,0.1c0,0.1,0-0.1,0,0c0,0.1,0,0.1,0,0.2c0,0.1-0.1,0.2-0.1,0.2c0,0.1,0-0.1,0-0.1c0,0,0,0.1,0,0.1
			c0,0,0,0.1-0.1,0.1c0,0.1-0.1,0.1-0.1,0.1c0,0,0,0,0,0.1c0,0-0.1,0.1,0,0.1c0,0,0,0,0,0c0,0-0.1,0.1-0.1,0.1c0,0,0,0-0.1,0.1
			c0,0-0.1,0.1,0,0c0,0,0,0,0,0c0,0-0.1,0-0.1,0c-0.1,0.1-0.2,0.1-0.4,0.2c0,0-0.1,0,0,0c-0.1,0-0.1,0-0.1,0.1
			c-0.1,0-0.2,0.1-0.2,0.1c-0.2,0.1-0.3,0.1-0.5,0.1c0,0-0.1,0-0.1,0c0,0-0.1,0-0.1,0c0.1,0-0.1,0-0.1,0c-0.1,0-0.1,0-0.1,0
			c-0.2,0-0.4,0-0.5,0c-0.3,0-0.6,0.3-0.6,0.6C13.2,12.1,13.4,12.3,13.7,12.4L13.7,12.4z"/>
	</g>
	<g>
		<path class="st1" d="M14.4,13.4c0.2,1.3,1.1,2.2,2.1,3c0.3,0.3,0.6,0.6,0.8,0.9c0.2,0.4,0.2,0.9,0.2,1.4c0,0.7,1.1,0.7,1.1,0
			c0-1.1-0.2-2.1-1-2.8c-0.4-0.4-0.9-0.8-1.3-1.2c-0.4-0.4-0.7-1-0.8-1.6c-0.1-0.3-0.4-0.4-0.7-0.4C14.5,12.9,14.4,13.1,14.4,13.4
			L14.4,13.4z"/>
	</g>
	<g>
		<path class="st1" d="M30.1,8.3c0.6-0.7,1.3-1.4,2-2.1c0.2-0.2,0.2-0.6,0-0.8c-0.2-0.2-0.6-0.2-0.8,0c-0.6,0.7-1.3,1.4-2,2.1
			c-0.2,0.2-0.2,0.6,0,0.8C29.5,8.4,29.9,8.5,30.1,8.3L30.1,8.3z"/>
	</g>
	<g>
		<path class="st1" d="M30.9,11.1c0.9-0.2,1.8-0.4,2.8-0.6c0.3-0.1,0.5-0.4,0.4-0.7c-0.1-0.3-0.4-0.4-0.7-0.4
			c-0.9,0.2-1.8,0.4-2.8,0.6c-0.3,0.1-0.5,0.4-0.4,0.7C30.4,11,30.7,11.2,30.9,11.1L30.9,11.1z"/>
	</g>
	<g>
		<path class="st1" d="M6.1,6c0.7,0.6,1.4,1.2,2.1,1.7c0.1,0.1,0.3,0.1,0.4,0.1c0.1,0,0.3-0.1,0.3-0.2C9,7.4,9,7.3,8.9,7.1
			c0-0.1-0.1-0.2-0.2-0.3C8.6,6.8,8.5,6.7,8.4,6.6c0,0-0.1,0-0.1-0.1c0,0,0.1,0.1,0,0c0,0-0.1-0.1-0.1-0.1C8.1,6.4,7.9,6.2,7.7,6.1
			C7.4,5.8,7.1,5.5,6.8,5.3C6.6,5.1,6.3,5.1,6,5.3C5.9,5.5,5.8,5.8,6.1,6L6.1,6z"/>
	</g>
	<g>
		<path class="st1" d="M9.7,3.5c0.2,0.8,0.5,1.6,0.7,2.4c0.1,0.3,0.4,0.5,0.7,0.4c0.3-0.1,0.5-0.4,0.4-0.7C11.3,4.8,11,4,10.8,3.2
			c-0.1-0.3-0.4-0.5-0.7-0.4C9.8,2.9,9.7,3.2,9.7,3.5L9.7,3.5z"/>
	</g>
</g>
</svg>
