<?xml version="1.0" encoding="utf-8"?>
<!-- Generator: Adobe Illustrator 26.0.2, SVG Export Plug-In . SVG Version: 6.00 Build 0)  -->
<svg version="1.1" id="레이어_1" xmlns="http://www.w3.org/2000/svg" xmlns:xlink="http://www.w3.org/1999/xlink" x="0px"
	 y="0px" viewBox="0 0 40 40" style="enable-background:new 0 0 40 40;" xml:space="preserve">
<style type="text/css">
	.st0{fill:#FFDCC8;}
	.st1{fill:#282828;}
	.st2{fill:#FFC8BE;}
	.st3{fill:#FFEDE3;}
</style>
<g>
	<g>
		<path class="st0" d="M31.1,25.1c-0.6,0.8-1.8,2.1-2.3,2.5c-0.4,0.3-1.1,0.7-1.7,1c-0.5,0.3-1.1-0.3-1.6-0.6c-0.6-0.4-1-0.7-1.5-1
			c-0.3-0.2-0.6-0.4-0.9-0.5c-0.7-0.3-1.1-0.7-1.7-1.1c-1.2-0.9-2.2-1.8-2.4-3.4c-0.1-0.7,0-1.5-0.1-2.2c0-0.5,0-1-0.1-1.5
			c0-1-0.1-2.1-0.1-3.1c0-0.5-0.1-2.3-0.1-2.7c0-1.2,0-1.7,0.2-2.8c0.2-0.7,0.7-2.4,1.6-1.6c0.3,0.3,0.7,0.8,0.7,0.8
			c0.1-0.4,0.3-1,0.5-1.7c0.1-0.5,0.3-1.2,0.9-1.2c0.6-0.1,1.4,0.8,1.5,1.2c0.3-0.8,0.5-2,1.4-1.8c0.8,0.2,1.2,1.9,1.2,2.6
			c0.4-0.5,0.8-1,1.3-0.9c0.6,0.1,0.9,1.5,0.9,2c0.1,1.7,0.2,4.4,0.1,6.4c0,0.4,0,0.1,0,0.7"/>
		<g>
			<path class="st1" d="M30.7,24.7c-0.6,0.8-1.4,1.7-2.2,2.4c-0.4,0.3-1.1,0.9-1.7,0.9c-0.6,0-1.2-0.6-1.7-1c-2-1.4-5.2-2.5-5.6-5.2
				c-0.4-2.7-0.2-5.5-0.2-8.2c0-1-0.1-2.1,0-3.1c0-0.5,0.1-1,0.3-1.5c0.3-0.8,0.8-0.5,1.2,0c0.2,0.3,0.8,0.1,0.9-0.2
				C22,8.3,22.2,7.6,22.4,7c0.2-0.4,0.2-0.8,0.9-0.4c0.2,0.1,0.4,0.5,0.5,0.7c0.2,0.5,0.9,0.3,1-0.1C25,6.6,25.3,5.5,26,6.3
				c0.3,0.3,0.4,1.2,0.4,1.6c0,0.4,0.6,0.8,0.9,0.4C27.7,7.9,28,7.4,28.4,8c0.2,0.3,0.2,0.7,0.2,1c0.1,0.8,0.1,1.6,0.1,2.3
				c0.1,1.6,0,3.2,0,4.8c0,0.7,1.1,0.7,1.1,0c0-2.4,0.2-4.9-0.1-7.3c-0.1-0.7-0.3-1.7-1-2.1c-0.9-0.5-1.7,0.3-2.2,0.9
				c0.3,0.1,0.6,0.3,0.9,0.4c0-1-0.4-2.7-1.5-3.1c-1.4-0.6-1.9,1.1-2.2,2.1c0.3,0,0.7-0.1,1-0.1C24.4,6,23.4,5,22.4,5.4
				c-1,0.4-1.4,2.3-1.5,3.2c0.3-0.1,0.6-0.2,0.9-0.2c-0.6-0.8-1.6-1.7-2.5-0.6c-0.8,0.9-0.9,2.4-0.9,3.5c-0.1,3.4,0,6.9,0.2,10.3
				c0.2,3.5,3.6,4.7,6.1,6.5c0.6,0.4,1.2,1.1,1.9,1.2c0.6,0.1,1.2-0.3,1.7-0.6c1.3-0.8,2.3-1.9,3.2-3.1
				C31.9,24.9,31.2,24.2,30.7,24.7L30.7,24.7z"/>
		</g>
	</g>
	<g>
		<path class="st1" d="M20.8,8.5c0,1.7-0.1,3.5-0.1,5.2c0,0.7,1.1,0.7,1.1,0c0-1.7,0-3.5,0.1-5.2C21.9,7.8,20.8,7.8,20.8,8.5
			L20.8,8.5z"/>
	</g>
	<g>
		<path class="st1" d="M23.8,7.1c-0.2,2.2-0.4,4.4-0.3,6.5c0,0.7,1.1,0.7,1.1,0c-0.1-2.2,0.1-4.4,0.3-6.5c0-0.3-0.3-0.5-0.5-0.5
			C24,6.6,23.8,6.8,23.8,7.1L23.8,7.1z"/>
	</g>
	<g>
		<path class="st1" d="M26.5,7.6c-0.2,2-0.4,3.9-0.4,5.9c0,0.7,1.1,0.7,1.1,0c0-2,0.1-3.9,0.4-5.9C27.6,7.3,27.3,7,27,7
			C26.7,7,26.5,7.3,26.5,7.6L26.5,7.6z"/>
	</g>
	<g>
		<path class="st1" d="M20.6,15c2.2-0.5,4.5-0.6,6.8-0.2c0.3,0.1,0.6-0.1,0.7-0.4c0.1-0.3-0.1-0.6-0.4-0.7c-2.4-0.4-4.9-0.3-7.3,0.2
			C19.6,14.1,19.9,15.1,20.6,15L20.6,15z"/>
	</g>
	<g>
		<path class="st0" d="M29.3,16.3c0.4-1.2,0.5-1.9,0.7-3c0.3-1.3,1.6-0.8,1.9,0.6c0.2,1.3,0.2,1.6,0.2,2.6c0,0.7-0.2,2.6-0.4,3.3
			c-0.2,0.6-0.9,1.5-0.6,2.1c0.1,0.3,0.7,0.4,0.8,0.7c0.3,0.8-0.4,1.7-0.9,2.4"/>
		<g>
			<path class="st1" d="M29.8,16.4c0.3-0.8,0.4-1.6,0.6-2.4c0.1-0.4,0.2-1.3,0.7-0.6c0.4,0.5,0.4,1.5,0.5,2.1c0,0.6,0,1.2,0,1.8
				c0,0.7-0.1,1.3-0.2,2c-0.1,0.7-0.5,1.2-0.7,1.8c-0.2,0.7,0,1.2,0.6,1.6c0.4,0.3,0.3,0.5,0.1,1c-0.2,0.4-0.5,0.8-0.7,1.1
				c-0.4,0.6,0.5,1.1,0.9,0.5c0.4-0.6,1-1.3,1-2.1c0-0.3,0-0.7-0.2-1c-0.2-0.3-0.5-0.3-0.7-0.6c-0.3-0.4,0.5-1.4,0.6-1.8
				c0.2-0.6,0.2-1.2,0.3-1.8c0.1-1.2,0.1-2.5,0-3.7c-0.1-1-0.6-2.8-2.1-2.5c-0.7,0.2-1,0.8-1.1,1.5c-0.2,0.9-0.4,1.8-0.6,2.6
				C28.6,16.8,29.6,17.1,29.8,16.4L29.8,16.4z"/>
		</g>
	</g>
	<g>
		<path class="st1" d="M28.8,16.1c0,0.1,0,0.2,0,0.3c0,0,0-0.1,0-0.1c0,0.4-0.1,0.7-0.2,1.1c0,0.1,0,0.3,0.1,0.4
			c0.1,0.1,0.2,0.2,0.3,0.2c0.1,0,0.3,0,0.4-0.1c0.1-0.1,0.2-0.2,0.2-0.3c0-0.2,0.1-0.5,0.1-0.7c0-0.3,0.1-0.6,0.1-0.8
			c0-0.1-0.1-0.3-0.2-0.4s-0.2-0.2-0.4-0.2s-0.3,0.1-0.4,0.2c0,0-0.1,0.1-0.1,0.1C28.8,15.9,28.8,16,28.8,16.1L28.8,16.1z"/>
	</g>
	<g>
		<g>
			<path class="st2" d="M20,25.3c0.1-0.5,0.4-2.2,1-3.6c0.6-1.2,2.3-0.2,2.1,1.2c-0.1,1-0.2,3.7-0.7,5c-0.5,1.4-2,2.9-2.9,3.6
				c-0.7,0.6-1.3,1.3-1.8,2c-0.5,0.7-1.6,2.1-2.2,2.7c-0.6,0.6-1.6,0.2-2.2,0c-1-0.3-2-0.8-2.8-1.5c-0.7-0.6-1.7-1.4-2.2-2.2
				c-0.1-0.2-0.3-0.6-0.2-0.9c0.2-0.4,1.1-1.1,1.2-2c0.1-0.5,0.2-1.4,0.2-2c0-1,0.1-3.5,0.3-4.9c0.1-0.5,0.2-2.3,0.3-2.7
				c0.2-1.1,0.2-1.7,0.6-2.7c0.2-0.7,1-2.3,1.8-1.3c0.3,0.3,0.6,0.9,0.6,0.9c0.1-0.4,0.4-1,0.8-1.6c0.2-0.4,0.5-1.1,1.1-1.1
				c0.6,0,1.2,1,1.4,1.4c0.4-0.8,0.8-1.9,1.6-1.6c0.8,0.3,1,2.1,0.9,2.8c0.5-0.4,0.9-0.9,1.5-0.7c0.6,0.2,0.7,1.5,0.6,2.1
				c-0.1,1.7-0.5,4.9-0.9,6.9"/>
			<g>
				<path class="st1" d="M20.5,25.4c0.1-0.5,0.2-1.1,0.4-1.6c0.2-0.6,0.6-2.7,1.5-1.8c0.4,0.5,0.2,1.2,0.2,1.7
					c-0.1,0.8-0.1,1.6-0.2,2.5c-0.2,1.7-1.1,3-2.3,4.2c-0.5,0.5-1.1,1-1.7,1.5s-0.9,1.2-1.4,1.8c-0.5,0.6-0.9,1.3-1.5,1.8
					c-0.8,0.8-1.6,0.4-2.5,0c-0.9-0.4-1.7-0.8-2.4-1.5c-0.5-0.5-1.9-1.4-1.8-2.2c0-0.4,0.8-1,0.9-1.4c0.3-0.6,0.3-1.4,0.4-2.1
					c0.1-1.5,0.1-3,0.2-4.5c0.1-1.5,0.3-2.9,0.5-4.4c0.1-0.8,0.3-1.5,0.6-2.2c0.1-0.3,0.4-0.9,0.7-0.9c0.3,0,0.5,0.5,0.6,0.8
					c0.2,0.4,0.8,0.3,1-0.1c0.2-0.5,0.4-1.3,0.8-1.7c0.5-0.7,1.1-0.2,1.3,0.5c0.1,0.4,0.8,0.6,1,0.1c0.3-0.6,0.7-1.8,1.3-0.9
					c0.3,0.5,0.2,1.2,0.2,1.8c0,0.5,0.6,0.7,0.9,0.4c0.2-0.3,0.6-0.4,1-0.3c0.1,0.2,0.1,0.4,0.1,0.6c0,0.2,0,0.4,0,0.6
					c0,0.7-0.1,1.4-0.2,2c-0.2,1.6-0.4,3.1-0.7,4.7c-0.1,0.7,0.9,1,1,0.3c0.4-2.3,0.8-4.7,0.9-7c0-0.8,0-1.8-0.6-2.4
					c-0.8-0.7-1.8,0-2.4,0.6c0.3,0.1,0.6,0.3,0.9,0.4c0.1-1,0-2.6-1-3.2c-1.3-0.8-2,0.8-2.5,1.7c0.3,0,0.7,0.1,1,0.1
					c-0.3-0.9-1.1-2-2.2-1.8c-1.2,0.2-1.7,2.1-2.1,3.1c0.3,0,0.7-0.1,1-0.1c-0.8-1.3-2-2-2.9-0.4c-0.9,1.5-1,3.4-1.2,5
					c-0.2,2-0.4,4-0.5,6c0,1.2,0,2.4-0.7,3.4c-0.5,0.7-0.9,1.1-0.5,1.9c0.7,1.8,3,3.4,4.8,4.1c0.8,0.3,1.8,0.8,2.7,0.5
					c0.9-0.2,1.4-1.2,2-1.9c0.6-0.8,1.2-1.7,1.9-2.5c0.8-0.9,1.8-1.6,2.5-2.5c1.4-1.6,1.7-3.4,1.9-5.4c0.1-1.5,0.6-3.9-1.5-4.2
					c-1.9-0.2-2.3,3.1-2.5,4.5C19.3,25.8,20.4,26.1,20.5,25.4L20.5,25.4z"/>
			</g>
		</g>
		<path class="st3" d="M12.2,16.1c0.1,0.2,0.1,0.4,0.1,0.7c0,0.2-0.1,0.5-0.2,0.7c-0.1,0.2-0.4,0.4-0.6,0.4c-0.3,0.1-0.3,0.1-0.6,0
			l0.1-1.8l0.8-0.3L12.2,16.1z"/>
		<path class="st3" d="M15.6,14.6c0,0.2,0,0.4-0.1,0.6c-0.1,0.4-0.3,0.7-0.6,1c-0.2,0.2-0.3,0.4-0.6,0.5c-0.3,0.1-0.6,0.1-0.7-0.2
			l0.3-1.4l0.8-1L15.6,14.6z"/>
		<path class="st3" d="M18.2,14.9c0,0.2,0,0.4-0.1,0.6c-0.1,0.2-0.3,0.5-0.5,0.6c-0.1,0-0.1,0.1-0.2,0.1c-0.2,0.1-0.5,0.1-0.8,0
			l0.2-1.2l0.6-0.6L18.2,14.9z"/>
		<path class="st3" d="M20.3,16.9c0,0.3-0.1,0.6-0.2,0.9c-0.1,0.3-0.4,0.5-0.7,0.4c-0.1,0-0.2-0.1-0.3-0.1l0.1-1.1l0.6-0.5
			L20.3,16.9z"/>
		<path class="st3" d="M21.4,21.5c-0.2,0.6,0,1.4,0.4,1.9c0.2,0.3,0.7,0.5,1-0.2v-0.6l-0.4-0.9L21.4,21.5z"/>
		<g>
			<path class="st1" d="M12.6,16.6c-0.3,1.7-0.6,3.4-0.8,5.2c0,0.3,0.1,0.6,0.4,0.7c0.3,0.1,0.6-0.1,0.7-0.4
				c0.2-1.7,0.5-3.4,0.8-5.2c0.1-0.3-0.1-0.6-0.4-0.7C13.1,16.2,12.7,16.3,12.6,16.6L12.6,16.6z"/>
		</g>
		<g>
			<path class="st1" d="M15.8,15.6c-0.5,2.2-1,4.3-1.2,6.6c-0.1,0.7,1,0.7,1.1,0c0.2-2.1,0.7-4.2,1.2-6.3
				C17,15.2,15.9,14.9,15.8,15.6L15.8,15.6z"/>
		</g>
		<g>
			<path class="st1" d="M18.4,16.4c-0.5,1.9-0.9,3.9-1.2,5.8c0,0.3,0.1,0.6,0.4,0.7c0.3,0.1,0.6-0.1,0.7-0.4c0.3-2,0.7-3.9,1.2-5.8
				C19.6,16,18.6,15.8,18.4,16.4L18.4,16.4z"/>
		</g>
		<g>
			<path class="st1" d="M20.5,25.4c0.1-0.5,0.2-1.1,0.4-1.6c0.2-0.6,0.6-2.7,1.5-1.8c0.4,0.5,0.2,1.2,0.2,1.7
				c-0.1,0.8-0.1,1.6-0.2,2.5c-0.2,1.7-1.1,3-2.3,4.2c-0.5,0.5-1.1,1-1.7,1.5s-0.9,1.2-1.4,1.8c-0.5,0.6-0.9,1.3-1.5,1.8
				c-0.8,0.8-1.6,0.4-2.5,0c-0.9-0.4-1.7-0.8-2.4-1.5c-0.5-0.5-1.9-1.4-1.8-2.2c0-0.4,0.8-1,0.9-1.4c0.3-0.6,0.3-1.4,0.4-2.1
				c0.1-1.5,0.1-3,0.2-4.5c0.1-1.5,0.3-2.9,0.5-4.4c0.1-0.8,0.3-1.5,0.6-2.2c0.1-0.3,0.4-0.9,0.7-0.9c0.3,0,0.5,0.5,0.6,0.8
				c0.2,0.4,0.8,0.3,1-0.1c0.2-0.5,0.4-1.3,0.8-1.7c0.5-0.7,1.1-0.2,1.3,0.5c0.1,0.4,0.8,0.6,1,0.1c0.3-0.6,0.7-1.8,1.3-0.9
				c0.3,0.5,0.2,1.2,0.2,1.8c0,0.5,0.6,0.7,0.9,0.4c0.2-0.3,0.6-0.4,1-0.3c0.1,0.2,0.1,0.4,0.1,0.6c0,0.2,0,0.4,0,0.6
				c0,0.7-0.1,1.4-0.2,2c-0.2,1.6-0.4,3.1-0.7,4.7c-0.1,0.7,0.9,1,1,0.3c0.4-2.3,0.8-4.7,0.9-7c0-0.8,0-1.8-0.6-2.4
				c-0.8-0.7-1.8,0-2.4,0.6c0.3,0.1,0.6,0.3,0.9,0.4c0.1-1,0-2.6-1-3.2c-1.3-0.8-2,0.8-2.5,1.7c0.3,0,0.7,0.1,1,0.1
				c-0.3-0.9-1.1-2-2.2-1.8c-1.2,0.2-1.7,2.1-2.1,3.1c0.3,0,0.7-0.1,1-0.1c-0.8-1.3-2-2-2.9-0.4c-0.9,1.5-1,3.4-1.2,5
				c-0.2,2-0.4,4-0.5,6c0,1.2,0,2.4-0.7,3.4c-0.5,0.7-0.9,1.1-0.5,1.9c0.7,1.8,3,3.4,4.8,4.1c0.8,0.3,1.8,0.8,2.7,0.5
				c0.9-0.2,1.4-1.2,2-1.9c0.6-0.8,1.2-1.7,1.9-2.5c0.8-0.9,1.8-1.6,2.5-2.5c1.4-1.6,1.7-3.4,1.9-5.4c0.1-1.5,0.6-3.9-1.5-4.2
				c-1.9-0.2-2.3,3.1-2.5,4.5C19.3,25.8,20.4,26.1,20.5,25.4L20.5,25.4z"/>
		</g>
	</g>
	<g>
		<path class="st1" d="M7.7,13.2c0.8,0.1,1.6,0.2,2.3,0.4c0.1,0,0.3,0,0.4-0.1c0.1-0.1,0.2-0.2,0.2-0.3c0.1-0.3-0.1-0.6-0.4-0.7
			c-0.8-0.1-1.6-0.2-2.3-0.3c-0.2,0-0.3,0-0.4,0.1c-0.1,0.1-0.2,0.2-0.2,0.3C7.2,12.8,7.4,13.1,7.7,13.2L7.7,13.2z"/>
	</g>
	<g>
		<path class="st1" d="M9.1,9.2C9.2,9.3,9.2,9.3,9.1,9.2C9.1,9.3,9.1,9.3,9.1,9.2c0.1,0.1,0.2,0.1,0.2,0.1c0.1,0,0.2,0.1,0.3,0.1
			c0.2,0.1,0.4,0.2,0.5,0.3c0.4,0.2,0.8,0.4,1.1,0.6c0.2,0.1,0.6,0.1,0.8-0.2c0.1-0.3,0.1-0.6-0.2-0.8C11,8.9,10.2,8.5,9.4,8.2
			c-0.1-0.1-0.3,0-0.4,0C8.9,8.3,8.7,8.4,8.7,8.6c0,0.1,0,0.3,0.1,0.4C8.9,9.1,9,9.2,9.1,9.2L9.1,9.2z"/>
	</g>
	<g>
		<path class="st1" d="M11.6,5.7c0.3,0.3,0.6,0.6,0.8,0.9c0,0,0.1,0.1,0.1,0.1c0,0,0,0,0,0.1c0,0,0.1,0.1,0,0c-0.1-0.1,0,0,0,0
			c0,0,0,0,0,0.1c0,0,0.1,0.1,0.1,0.1c0.1,0.2,0.3,0.3,0.4,0.5c0.1,0.1,0.2,0.2,0.3,0.2c0.1,0,0.3,0,0.4-0.1C14.1,7.6,14.2,7.3,14,7
			C13.5,6.3,13,5.6,12.4,5c-0.2-0.2-0.6-0.2-0.8,0C11.4,5.2,11.4,5.5,11.6,5.7L11.6,5.7z"/>
	</g>
	<g>
		<path class="st1" d="M16.1,3.3c0.1,1,0.2,2,0.2,3c0,0.3,0.2,0.6,0.5,0.6c0.3,0,0.6-0.2,0.6-0.5c-0.1-1-0.1-2-0.2-3
			c0-0.3-0.2-0.6-0.6-0.6C16.4,2.8,16.1,3,16.1,3.3L16.1,3.3z"/>
	</g>
</g>
</svg>
