<?xml version="1.0" encoding="utf-8"?>
<!-- Generator: Adobe Illustrator 26.0.2, SVG Export Plug-In . SVG Version: 6.00 Build 0)  -->
<svg version="1.1" id="레이어_1" xmlns="http://www.w3.org/2000/svg" xmlns:xlink="http://www.w3.org/1999/xlink" x="0px"
	 y="0px" viewBox="0 0 40 40" style="enable-background:new 0 0 40 40;" xml:space="preserve">
<style type="text/css">
	.st0{fill:#FFDDB5;}
	.st1{fill:#282828;}
	.st2{fill:#FFFFFF;}
</style>
<g>
	<g>
		<path class="st0" d="M15.4,18.3c-1.7,1.7-3.4,3.3-5.1,5c-1.2,1.1-2.5,2.5-2.3,4.3c0.2,1.7,1.7,3.1,3.4,3.7
			c0.6,0.2,1.1,0.3,1.7,0.2c0.7-0.1,1.2-0.6,1.8-1.1c3.1-2.6,10.1-9,14.9-13.7c1.2-1.2,2.4-2.6,2.1-4.3c-0.2-1.3-1.2-2.4-2.2-3.2
			c-0.8-0.6-2.1-0.8-3-0.6c-0.4,0.1-0.8,0.4-1.2,0.6c-0.7,0.5-1.3,1.1-2,1.7c-3,2.6-4.4,4-7.1,6.4L15.4,18.3z"/>
		<g>
			<path class="st1" d="M15,17.9c-2.1,2.1-4.6,4.1-6.4,6.4c-1.4,1.8-1.5,4,0.1,5.8c1.5,1.6,4,2.7,5.9,1.2c1.5-1.1,2.9-2.5,4.3-3.7
				c3.8-3.4,7.6-6.9,11.2-10.5c1.6-1.6,3-3.5,2-5.8c-0.9-1.9-3-3.6-5.2-3.2c-1.2,0.2-2.2,1.1-3.1,1.9c-1.2,1.1-2.5,2.1-3.7,3.2
				C18.5,14.8,16.7,16.3,15,17.9c-0.5,0.5,0.3,1.2,0.8,0.8c2.6-2.4,5.1-4.8,7.8-7.1c0.9-0.8,1.7-1.7,2.8-2.2
				c1.2-0.6,2.5-0.2,3.5,0.7c0.9,0.8,1.7,2,1.5,3.3c-0.2,1.1-1.1,2.1-1.9,2.8c-2.8,2.9-5.8,5.6-8.8,8.3c-1.4,1.2-2.7,2.5-4.1,3.7
				c-1.2,1.1-2.9,3.1-4.7,2.7c-1.2-0.3-2.5-1.2-3.1-2.3c-0.7-1.4-0.2-2.8,0.8-3.9c1.8-2.2,4.1-4,6.1-6C16.3,18.2,15.5,17.4,15,17.9z
				"/>
		</g>
	</g>
	<g>
		<path class="st2" d="M15.5,21c1,1.2,2,2.3,3,3.4c2.1-2,4.4-4.1,6.6-6.1c-1-1-2.1-2.3-3.1-3.4c-2.2,2-3.6,3.2-5.4,5L15.5,21z"/>
		<g>
			<path class="st1" d="M15.1,21.4c1,1.2,2,2.3,3,3.4c0.2,0.2,0.6,0.2,0.8,0c2.2-2,4.4-4.1,6.6-6.1c0.2-0.2,0.2-0.6,0-0.8
				c-1-1.1-2.1-2.3-3.1-3.4c-0.2-0.2-0.5-0.2-0.8,0c-2.2,2-4.4,4-6.5,6.1c-0.5,0.5,0.3,1.2,0.8,0.8c2.1-2,4.3-4.1,6.5-6.1
				c-0.3,0-0.5,0-0.8,0c1,1.1,2.1,2.3,3.1,3.4c0-0.3,0-0.5,0-0.8c-2.2,2-4.4,4-6.6,6.1c0.3,0,0.5,0,0.8,0c-1-1.1-2-2.2-3-3.4
				C15.4,20.1,14.7,20.9,15.1,21.4z"/>
		</g>
	</g>
	<g>
		<path class="st1" d="M14.1,23c0.7,0,0.7-1.1,0-1.1C13.4,21.9,13.4,23,14.1,23L14.1,23z"/>
	</g>
	<g>
		<path class="st1" d="M14.1,24.7c0.7,0,0.7-1.1,0-1.1C13.4,23.6,13.4,24.7,14.1,24.7L14.1,24.7z"/>
	</g>
	<g>
		<path class="st1" d="M15.8,24.9c0.7,0,0.7-1.1,0-1.1C15.1,23.8,15.1,24.9,15.8,24.9L15.8,24.9z"/>
	</g>
	<g>
		<path class="st1" d="M15.8,26.6c0.7,0,0.7-1.1,0-1.1C15.1,25.5,15.1,26.6,15.8,26.6L15.8,26.6z"/>
	</g>
	<g>
		<path class="st1" d="M12.4,24.7c0.7,0,0.7-1.1,0-1.1S11.7,24.7,12.4,24.7L12.4,24.7z"/>
	</g>
	<g>
		<path class="st1" d="M14.1,26.6c0.7,0,0.7-1.1,0-1.1C13.4,25.5,13.4,26.6,14.1,26.6L14.1,26.6z"/>
	</g>
	<g>
		<path class="st1" d="M12.3,26.4c0.7,0,0.7-1.1,0-1.1C11.6,25.3,11.6,26.4,12.3,26.4L12.3,26.4z"/>
	</g>
	<g>
		<path class="st1" d="M14.4,28.5c0.7,0,0.7-1.1,0-1.1C13.7,27.5,13.7,28.5,14.4,28.5L14.4,28.5z"/>
	</g>
	<g>
		<path class="st1" d="M12.4,28.3c0.7,0,0.7-1.1,0-1.1C11.7,27.2,11.7,28.3,12.4,28.3L12.4,28.3z"/>
	</g>
	<g>
		<path class="st1" d="M10.7,26.2c0.7,0,0.7-1.1,0-1.1C10,25.1,10,26.2,10.7,26.2L10.7,26.2z"/>
	</g>
	<g>
		<path class="st1" d="M26.4,17.5c0.7,0,0.7-1.1,0-1.1S25.7,17.5,26.4,17.5L26.4,17.5z"/>
	</g>
	<g>
		<path class="st1" d="M26.2,15.8c0.7,0,0.7-1.1,0-1.1C25.5,14.8,25.5,15.8,26.2,15.8L26.2,15.8z"/>
	</g>
	<g>
		<path class="st1" d="M24.5,15.8c0.7,0,0.7-1.1,0-1.1S23.8,15.8,24.5,15.8L24.5,15.8z"/>
	</g>
	<g>
		<path class="st1" d="M24.5,14.1c0.7,0,0.7-1.1,0-1.1C23.8,13,23.8,14.1,24.5,14.1L24.5,14.1z"/>
	</g>
	<g>
		<path class="st1" d="M27.9,15.8c0.7,0,0.7-1.1,0-1.1C27.2,14.7,27.2,15.8,27.9,15.8L27.9,15.8z"/>
	</g>
	<g>
		<path class="st1" d="M26.2,14c0.7,0,0.7-1.1,0-1.1C25.5,12.9,25.5,14,26.2,14L26.2,14z"/>
	</g>
	<g>
		<path class="st1" d="M28,14.1c0.7,0,0.7-1.1,0-1.1C27.3,13,27.3,14.1,28,14.1L28,14.1z"/>
	</g>
	<g>
		<path class="st1" d="M25.8,12.1c0.7,0,0.7-1.1,0-1.1C25.1,11,25.1,12.1,25.8,12.1L25.8,12.1z"/>
	</g>
	<g>
		<path class="st1" d="M27.8,12.2c0.7,0,0.7-1.1,0-1.1S27.1,12.2,27.8,12.2L27.8,12.2z"/>
	</g>
	<g>
		<path class="st1" d="M29.6,14.2c0.7,0,0.7-1.1,0-1.1C28.9,13.1,28.9,14.2,29.6,14.2L29.6,14.2z"/>
	</g>
	<g>
		<path class="st0" d="M15.4,18.3c-1.7,1.7-3.4,3.3-5.1,5c-1.2,1.1-2.5,2.5-2.3,4.3c0.2,1.7,1.7,3.1,3.4,3.7
			c0.6,0.2,1.1,0.3,1.7,0.2c0.7-0.1,1.2-0.6,1.8-1.1c3.1-2.6,10.1-9,14.9-13.7c1.2-1.2,2.4-2.6,2.1-4.3c-0.2-1.3-1.2-2.4-2.2-3.2
			c-0.8-0.6-2.1-0.8-3-0.6c-0.4,0.1-0.8,0.4-1.2,0.6c-0.7,0.5-1.3,1.1-2,1.7c-3,2.6-4.4,4-7.1,6.4L15.4,18.3z"/>
		<g>
			<path class="st1" d="M15,17.9c-2.1,2.1-4.6,4.1-6.4,6.4c-1.4,1.8-1.5,4,0.1,5.8c1.5,1.6,4,2.7,5.9,1.2c1.5-1.1,2.9-2.5,4.3-3.7
				c3.8-3.4,7.6-6.9,11.2-10.5c1.6-1.6,3-3.5,2-5.8c-0.9-1.9-3-3.6-5.2-3.2c-1.2,0.2-2.2,1.1-3.1,1.9c-1.2,1.1-2.5,2.1-3.7,3.2
				C18.5,14.8,16.7,16.3,15,17.9c-0.5,0.5,0.3,1.2,0.8,0.8c2.6-2.4,5.1-4.8,7.8-7.1c0.9-0.8,1.7-1.7,2.8-2.2
				c1.2-0.6,2.5-0.2,3.5,0.7c0.9,0.8,1.7,2,1.5,3.3c-0.2,1.1-1.1,2.1-1.9,2.8c-2.8,2.9-5.8,5.6-8.8,8.3c-1.4,1.2-2.7,2.5-4.1,3.7
				c-1.2,1.1-2.9,3.1-4.7,2.7c-1.2-0.3-2.5-1.2-3.1-2.3c-0.7-1.4-0.2-2.8,0.8-3.9c1.8-2.2,4.1-4,6.1-6C16.3,18.2,15.5,17.4,15,17.9z
				"/>
		</g>
	</g>
	<g>
		<path class="st2" d="M15.5,21c1,1.2,2,2.3,3,3.4c2.1-2,4.4-4.1,6.6-6.1c-1-1-2.1-2.3-3.1-3.4c-2.2,2-3.6,3.2-5.4,5L15.5,21z"/>
		<g>
			<path class="st1" d="M15.1,21.4c1,1.2,2,2.3,3,3.4c0.2,0.2,0.6,0.2,0.8,0c2.2-2,4.4-4.1,6.6-6.1c0.2-0.2,0.2-0.6,0-0.8
				c-1-1.1-2.1-2.3-3.1-3.4c-0.2-0.2-0.5-0.2-0.8,0c-2.2,2-4.4,4-6.5,6.1c-0.5,0.5,0.3,1.2,0.8,0.8c2.1-2,4.3-4.1,6.5-6.1
				c-0.3,0-0.5,0-0.8,0c1,1.1,2.1,2.3,3.1,3.4c0-0.3,0-0.5,0-0.8c-2.2,2-4.4,4-6.6,6.1c0.3,0,0.5,0,0.8,0c-1-1.1-2-2.2-3-3.4
				C15.4,20.1,14.7,20.9,15.1,21.4z"/>
		</g>
	</g>
	<g>
		<path class="st1" d="M14.1,23c0.7,0,0.7-1.1,0-1.1C13.4,21.9,13.4,23,14.1,23L14.1,23z"/>
	</g>
	<g>
		<path class="st1" d="M14.1,24.7c0.7,0,0.7-1.1,0-1.1C13.4,23.6,13.4,24.7,14.1,24.7L14.1,24.7z"/>
	</g>
	<g>
		<path class="st1" d="M15.8,24.9c0.7,0,0.7-1.1,0-1.1C15.1,23.8,15.1,24.9,15.8,24.9L15.8,24.9z"/>
	</g>
	<g>
		<path class="st1" d="M15.8,26.6c0.7,0,0.7-1.1,0-1.1C15.1,25.5,15.1,26.6,15.8,26.6L15.8,26.6z"/>
	</g>
	<g>
		<path class="st1" d="M12.4,24.7c0.7,0,0.7-1.1,0-1.1S11.7,24.7,12.4,24.7L12.4,24.7z"/>
	</g>
	<g>
		<path class="st1" d="M14.1,26.6c0.7,0,0.7-1.1,0-1.1C13.4,25.5,13.4,26.6,14.1,26.6L14.1,26.6z"/>
	</g>
	<g>
		<path class="st1" d="M12.3,26.4c0.7,0,0.7-1.1,0-1.1C11.6,25.3,11.6,26.4,12.3,26.4L12.3,26.4z"/>
	</g>
	<g>
		<path class="st1" d="M14.4,28.5c0.7,0,0.7-1.1,0-1.1C13.7,27.5,13.7,28.5,14.4,28.5L14.4,28.5z"/>
	</g>
	<g>
		<path class="st1" d="M12.4,28.3c0.7,0,0.7-1.1,0-1.1C11.7,27.2,11.7,28.3,12.4,28.3L12.4,28.3z"/>
	</g>
	<g>
		<path class="st1" d="M10.7,26.2c0.7,0,0.7-1.1,0-1.1C10,25.1,10,26.2,10.7,26.2L10.7,26.2z"/>
	</g>
	<g>
		<path class="st1" d="M26.4,17.5c0.7,0,0.7-1.1,0-1.1S25.7,17.5,26.4,17.5L26.4,17.5z"/>
	</g>
	<g>
		<path class="st1" d="M26.2,15.8c0.7,0,0.7-1.1,0-1.1C25.5,14.8,25.5,15.8,26.2,15.8L26.2,15.8z"/>
	</g>
	<g>
		<path class="st1" d="M24.5,15.8c0.7,0,0.7-1.1,0-1.1S23.8,15.8,24.5,15.8L24.5,15.8z"/>
	</g>
	<g>
		<path class="st1" d="M24.5,14.1c0.7,0,0.7-1.1,0-1.1C23.8,13,23.8,14.1,24.5,14.1L24.5,14.1z"/>
	</g>
	<g>
		<path class="st1" d="M27.9,15.8c0.7,0,0.7-1.1,0-1.1C27.2,14.7,27.2,15.8,27.9,15.8L27.9,15.8z"/>
	</g>
	<g>
		<path class="st1" d="M26.2,14c0.7,0,0.7-1.1,0-1.1C25.5,12.9,25.5,14,26.2,14L26.2,14z"/>
	</g>
	<g>
		<path class="st1" d="M28,14.1c0.7,0,0.7-1.1,0-1.1C27.3,13,27.3,14.1,28,14.1L28,14.1z"/>
	</g>
	<g>
		<path class="st1" d="M25.8,12.1c0.7,0,0.7-1.1,0-1.1C25.1,11,25.1,12.1,25.8,12.1L25.8,12.1z"/>
	</g>
	<g>
		<path class="st1" d="M27.8,12.2c0.7,0,0.7-1.1,0-1.1S27.1,12.2,27.8,12.2L27.8,12.2z"/>
	</g>
	<g>
		<path class="st1" d="M29.6,14.2c0.7,0,0.7-1.1,0-1.1C28.9,13.1,28.9,14.2,29.6,14.2L29.6,14.2z"/>
	</g>
</g>
</svg>
