<?xml version="1.0" encoding="utf-8"?>
<!-- Generator: Adobe Illustrator 26.0.2, SVG Export Plug-In . SVG Version: 6.00 Build 0)  -->
<svg version="1.1" id="레이어_1" xmlns="http://www.w3.org/2000/svg" xmlns:xlink="http://www.w3.org/1999/xlink" x="0px"
	 y="0px" viewBox="0 0 40 40" style="enable-background:new 0 0 40 40;" xml:space="preserve">
<style type="text/css">
	.st0{fill:#FFC8BE;}
	.st1{fill:#282828;}
	.st2{fill:#FFFFFF;}
</style>
<g>
	<g>
		<path class="st0" d="M14.2,23.9c-1.1-1.4-2-3.8-2.6-5.6c-0.2-0.5-0.8-2.3-1-2.8c-0.4-1.2-0.6-1.7-0.7-2.9C9.8,11.9,9.8,10,11,10.5
			c0.4,0.2,0.9,0.3,0.9,0.3c-0.1-0.4,0-0.9,0-1.7c0-0.5-0.1-1.3,0.5-1.5c0.6-0.3,1.6,0,1.9,0.7c0.1-1-0.3-2.8,0.6-2.9
			c0.9-0.1,1.9,0.3,2.1,1c0-1,0.3-1.3,0.9-1.1c0.4,0.1,1.3,1.3,1.6,2c0.5,1.7,1.5,4.1,1.9,5.9c0.1,0.4,0.1,1.4,0.7,1.4
			c0.1,0,0.5-0.6,0.5-0.7c0.2-0.3,1.1-2.8,1.2-3.1c0.2-0.4,0.5-1.2,1-1.4c0.4-0.1,0.9-0.1,1.1,0.3c0.3,0.5-0.2,1.9-0.3,2.4
			c-0.1,0.6-1.3,3.4-1.5,4.1c-0.1,0.4-0.2,0.8-0.3,1.2c-0.2,1-0.5,2-0.8,2.9c-0.4,1.9-0.3,3.6,0.2,5.5c0.3,1.2,0.8,2.3,1.2,3.5
			c0,0.1,0.9,1.9,0.9,2.1c-0.9,0.4-2.4,0.7-3.4,1c-2.7,0.5-5.2,0.3-7.3,0C16,29.8,15.1,25,14.2,23.9z"/>
		<g>
			<path class="st1" d="M14.7,23.6c-1.6-2.1-2.3-4.7-3.2-7.2c-0.4-1.1-0.8-2.2-1-3.4c-0.1-0.4-0.2-1-0.1-1.5
				c0.2-0.8,0.7-0.4,1.4-0.2c0.3,0.1,0.7-0.2,0.7-0.5c0-0.5,0-1,0-1.4c0-0.7,0.4-2.2,1.4-0.8c0.3,0.4,1,0.3,1-0.3c0-0.5-0.1-1,0-1.5
				c0-0.2-0.1-0.6,0.1-0.7c0.4-0.6,1.5,0.2,1.7,0.6c0.3,0.5,1,0.2,1-0.3c0.1-1.2,0.9,0.2,1.1,0.4c0.3,0.4,0.4,0.9,0.6,1.4
				c0.4,1.1,0.8,2.2,1.1,3.2c0.3,0.9,0.4,1.8,0.6,2.6c0.1,0.4,0.3,0.9,0.7,1c1,0.3,1.5-1.2,1.8-1.9c0.3-0.7,0.5-1.3,0.8-2
				c0.1-0.2,0.2-0.7,0.4-0.9c1.1-0.9,0.7,0.5,0.7,0.8c-0.3,1.4-0.8,2.6-1.3,3.9c-0.7,1.9-1.3,3.9-1.6,5.9c-0.5,3.9,1.2,7.1,2.5,10.6
				c0.1-0.2,0.2-0.5,0.4-0.7c-3.4,1.3-6.9,1.4-10.4,0.9c0.1,0.2,0.2,0.4,0.4,0.7c0.6-1.6,0.6-3.4,0.4-5.1
				C15.7,26.1,15.5,24.7,14.7,23.6c-0.4-0.6-1.4,0-0.9,0.5c1.4,2,1.5,5.8,0.6,8c-0.1,0.2,0.1,0.6,0.4,0.7c3.7,0.6,7.4,0.5,11-0.9
				c0.2-0.1,0.5-0.4,0.4-0.7c-1.1-2.9-2.7-5.7-2.6-8.9c0.1-3.3,1.5-6.3,2.5-9.4c0.3-0.9,0.7-2.1,0.5-3c-0.2-0.9-1.2-1.3-2-0.9
				c-1.9,0.8-1.4,4-2.9,5.2c0.2-0.1,0.4-0.1,0.5-0.1c-0.3,0-0.4-1.5-0.5-1.7c-0.2-0.8-0.4-1.5-0.7-2.2c-0.4-1.3-0.8-2.8-1.5-3.9
				c-0.4-0.7-1-1.5-1.8-1.5c-1,0-1.2,0.9-1.2,1.7c0.3-0.1,0.7-0.2,1-0.3c-0.5-1-2.1-1.8-3.1-1.1c-1,0.6-0.6,2.3-0.6,3.3
				c0.3-0.1,0.7-0.2,1-0.3c-0.6-0.9-1.9-1.5-2.9-0.7c-0.9,0.7-0.6,2.6-0.5,3.5c0.2-0.2,0.5-0.3,0.7-0.5C11,10,10,9.4,9.5,10.8
				c-0.4,1.2,0,2.8,0.3,3.9c0.9,3.1,2,6.8,4,9.4C14.2,24.7,15.1,24.2,14.7,23.6z"/>
		</g>
	</g>
	<g>
		<path class="st2" d="M17.9,29c0.9,0.1,1.7,0,2.6-0.1c0.7-0.1,1.4-0.3,2-0.7c0.5-0.3,1-0.5,1.6-0.4c0.8,0.2,1.4,1.1,1.7,1.8
			c0.7,1.6-0.4,2.5-1.8,3.1c-0.5,0.2-1,0.4-1.6,0.6c-0.7,0.2-1.4,0.3-2.2,0.4C19,34,17.5,33.9,16,33.9c-0.5,0-1-0.1-1.4-0.3
			c-0.8-0.4-0.8-1.4-0.7-2.1c0-0.4,0.1-0.7,0.2-1c0.2-0.7,0.4-1.5,1.3-1.6c0.8-0.1,1.5,0.2,2.2,0.2C17.8,29,17.9,29,17.9,29z"/>
		<g>
			<path class="st1" d="M17.9,29.6c1,0.1,2,0,2.9-0.2c0.5-0.1,0.9-0.2,1.3-0.4c0.4-0.2,0.9-0.5,1.4-0.6c0.9-0.2,1.5,0.7,1.8,1.4
				s0.3,1.3-0.3,1.8c-0.6,0.6-1.5,0.9-2.3,1.1c-1,0.3-2.1,0.5-3.1,0.5c-1.1,0.1-2.1,0-3.2,0c-0.9,0-1.9-0.1-2-1.2
				c0-0.8,0.1-1.9,0.6-2.6c0.3-0.4,0.9-0.3,1.4-0.2C16.9,29.4,17.4,29.5,17.9,29.6c0.7,0.1,0.7-1,0-1.1c-1.1-0.1-2.4-0.7-3.4,0
				c-0.8,0.5-1,1.8-1.2,2.6c-0.1,0.9-0.1,1.9,0.6,2.6c0.9,0.8,2.4,0.7,3.5,0.7c2.5,0,5.4-0.2,7.6-1.5c0.7-0.5,1.4-1.1,1.5-2
				c0.1-1-0.4-2-1-2.7c-0.9-1-2-1.1-3.1-0.5c-1.4,0.7-3,0.9-4.5,0.8C17.3,28.4,17.3,29.5,17.9,29.6z"/>
		</g>
	</g>
	<g>
		<path class="st0" d="M17.8,23.9c-1.2-1.3-2.3-3.6-3.1-5.4c-0.2-0.5-1-2.2-1.2-2.7c-0.5-1.2-0.7-1.7-0.9-2.8
			c-0.1-0.8-0.3-2.6,0.9-2.2c0.5,0.1,1,0.5,1,0.5c-0.1-0.4-0.1-1.2-0.2-1.9c-0.1-0.5-0.1-1.3,0.4-1.6c0.6-0.3,1.7,0.2,2,0.6
			c0-1-0.3-2.2,0.6-2.3c0.9-0.2,2,1.4,2.3,2.1c0.2-0.7,0.3-1.3,0.9-1.5c0.6-0.1,1.5,1.1,1.7,1.6c0.9,1.6,1.3,2.8,1.8,4.5
			c0.1,0.4,0.3,1.4,0.8,1.3c0.1,0,0.4-0.6,0.5-0.7c0.2-0.3,0.3-0.7,0.4-1c0.2-0.5,0.4-1.2,0.9-1.4c0.4-0.1,0.9-0.1,1.1,0.2
			c0.3,0.4,0,2-0.1,2.5c-0.1,0.7-0.4,1.3-0.5,2c-0.1,0.4-0.2,0.8-0.2,1.2c-0.2,1-0.4,2-0.5,3c-0.2,1.9,0,3.6,0.7,5.5
			c0.4,1.2,1,2.3,1.5,3.4c0,0.1,0.1,0.3,0.2,0.4c-0.8,0.4-1.6,0.9-2.6,1.2c-2.6,0.7-4.3,0.8-6.5,0.6C19.8,29.2,18.8,25,17.8,23.9z"
			/>
		<g>
			<path class="st1" d="M18.2,23.5c-1.7-2-2.7-4.5-3.7-6.9c-0.5-1.1-1-2.2-1.3-3.3c-0.1-0.4-0.2-0.9-0.2-1.3c0-0.9,0.6-0.6,1.2-0.2
				c0.4,0.2,0.9-0.2,0.8-0.6c-0.1-0.6-0.3-1.4-0.2-2.1c0.1-0.9,0.9-0.9,1.5-0.3c0.3,0.3,0.9,0.1,0.9-0.4c0-0.6-0.4-2.1,0.7-1.6
				c0.5,0.3,1,1.1,1.3,1.6c0.2,0.4,0.9,0.3,1-0.1c0.1-0.4,0.3-1,0.9-0.8c0.2,0.1,0.5,0.6,0.6,0.8c0.4,0.7,0.8,1.5,1.1,2.3
				c0.4,1.1,0.5,2.4,1.1,3.4c0.3,0.6,0.9,0.9,1.5,0.4c0.3-0.2,0.5-0.7,0.6-1.1c0.1-0.2,0.7-2.5,1.4-1.6c0.2,0.3-0.1,1.3-0.2,1.7
				c-0.1,0.7-0.4,1.4-0.6,2.2c-0.3,1.5-0.6,3.1-0.8,4.6c-0.3,3.4,1.2,6,2.4,9c0.1-0.2,0.2-0.4,0.2-0.6c-2.8,1.5-5.6,2-8.8,1.8
				c0.2,0.2,0.4,0.4,0.5,0.5c0-1.3-0.3-2.7-0.6-3.9C19.4,25.7,19,24.4,18.2,23.5c-0.5-0.5-1.2,0.2-0.8,0.8c0.7,0.9,1,2.1,1.3,3.2
				c0.3,1.1,0.5,2.2,0.5,3.3c0,0.3,0.3,0.5,0.5,0.5c3.4,0.2,6.4-0.3,9.4-1.9c0.2-0.1,0.3-0.4,0.2-0.6c-0.7-1.9-1.7-3.6-2.1-5.5
				c-0.5-2.2,0-4.3,0.3-6.5c0.2-1.2,2.4-7-0.6-6.6c-1.4,0.2-1.5,1.9-2,2.9c-0.3,0.5,0,0.2-0.1,0c-0.1-0.3-0.2-0.7-0.3-1
				c-0.2-0.8-0.5-1.6-0.8-2.4c-0.5-1.2-1.1-2.9-2.4-3.5c-1.3-0.6-1.9,0.7-2.2,1.7c0.3,0,0.7-0.1,1-0.1c-0.5-1-1.5-2.5-2.8-2.3
				c-1.4,0.2-1.2,1.9-1.2,2.9c0.3-0.1,0.6-0.3,0.9-0.4c-0.7-0.7-2.1-1.3-2.9-0.5c-0.9,0.8-0.4,2.9-0.2,3.9c0.3-0.2,0.5-0.4,0.8-0.6
				c-0.9-0.4-2.1-1-2.7,0.2c-0.6,1.2,0,3,0.5,4.1c1.2,3.1,2.6,6.7,4.8,9.2C17.9,24.8,18.7,24,18.2,23.5z"/>
		</g>
	</g>
	<g>
		<path class="st1" d="M14,11.2c0.7,1.7,1.4,3.5,2.1,5.2c0.1,0.3,0.4,0.5,0.7,0.4c0.3-0.1,0.5-0.4,0.4-0.7c-0.7-1.7-1.4-3.4-2.1-5.2
			c-0.1-0.3-0.4-0.5-0.7-0.4C14.1,10.6,13.9,10.9,14,11.2L14,11.2z"/>
	</g>
	<g>
		<path class="st1" d="M16.3,8.6c0.7,2.3,1.4,4.6,2.5,6.7c0.3,0.6,1.2,0.1,0.9-0.6c-1-2.1-1.7-4.3-2.4-6.4
			C17.1,7.6,16.1,7.9,16.3,8.6L16.3,8.6z"/>
	</g>
	<g>
		<path class="st1" d="M19.1,7.9c0.6,2,1.3,4,2.1,6c0.1,0.3,0.4,0.5,0.7,0.4c0.3-0.1,0.5-0.4,0.4-0.7c-0.8-2-1.5-3.9-2.1-6
			C20,6.9,18.9,7.2,19.1,7.9L19.1,7.9z"/>
	</g>
	<g>
		<path class="st2" d="M25.8,28.4c0.4-0.3,0.8-0.6,1.2-1c0.4-0.4,0.6-0.9,1.2-1c0.6-0.1,1.1,0.4,1.3,0.9c0.4,0.8,0.7,1.6,0.7,2.5
			c0,1.8-1.6,3.1-3.1,3.9c-0.5,0.2-0.9,0.5-1.4,0.6c-1.2,0.4-2.3,0.5-3.5,0.4c-1,0-2,0.1-2.7-0.8c-0.6-0.8-0.6-1.6-0.7-2.5
			c-0.1-0.6,0-1.6,0.5-2c0.4-0.3,1.2-0.2,1.7-0.1c0.7,0.1,1.4,0.2,2.1,0C24.1,29.2,24.9,28.9,25.8,28.4z"/>
		<g>
			<path class="st1" d="M26.1,28.9c0.4-0.3,0.8-0.6,1.2-0.9c0.3-0.3,0.5-0.7,0.8-0.9c0.8-0.5,1.4,1.6,1.5,2.1c0.4,1.9-1.2,3.2-2.7,4
				c-1.8,1-3.9,1.2-5.9,1c-1-0.1-1.4-1-1.5-2c-0.1-0.6-0.3-2,0.3-2.3c0.4-0.2,0.9,0,1.3,0c0.6,0.1,1.3,0.1,1.9,0
				C24,29.8,25.1,29.4,26.1,28.9c0.6-0.4,0-1.3-0.5-0.9c-1.2,0.8-2.6,1.1-4.1,1c-0.9-0.1-2.1-0.4-2.8,0.5c-0.6,0.9-0.5,2.1-0.3,3.1
				c0.1,1.1,0.7,2.2,1.8,2.6c0.5,0.2,0.9,0.2,1.4,0.2c0.7,0,1.4,0.1,2.1,0c1.4-0.1,2.6-0.5,3.8-1.2c1.9-1,3.7-2.8,3.2-5.2
				c-0.2-1.1-0.8-2.9-2.1-3.1c-0.6-0.1-1.1,0.2-1.5,0.6c-0.5,0.5-1,1-1.6,1.4C24.9,28.3,25.5,29.2,26.1,28.9z"/>
		</g>
	</g>
</g>
</svg>
