<?xml version="1.0" encoding="utf-8"?>
<!-- Generator: Adobe Illustrator 26.0.2, SVG Export Plug-In . SVG Version: 6.00 Build 0)  -->
<svg version="1.1" id="레이어_1" xmlns="http://www.w3.org/2000/svg" xmlns:xlink="http://www.w3.org/1999/xlink" x="0px"
	 y="0px" viewBox="0 0 40 40" style="enable-background:new 0 0 40 40;" xml:space="preserve">
<style type="text/css">
	.st0{fill:#FFA7CF;}
	.st1{fill:#282828;}
	.st2{clip-path:url(#SVGID_00000137831253156512128180000000781116132297516986_);}
	.st3{fill:#DA1E6E;}
</style>
<g>
	<g>
		<path class="st0" d="M15.3,30.1c4.7-1,7.6-2.1,11.3-5c1.5-1.2,2.9-2.6,3.5-4.5c0.9-2.8-0.7-5.9-3.4-7s-6.2,0.4-7.4,3.1
			c0-1.9-1.2-4-2.6-5.2c-1.4-1.2-3.4-1.8-5.2-1.4c-2.2,0.4-3.7,2.3-4.1,4.5c-0.2,1.1-0.2,2.3,0,3.4c0.1,0.5,0.2,1.1,0.4,1.6
			C8,20.6,8.5,21.7,9,22.7c0.3,0.5,0.6,1,0.9,1.5C11.5,26.4,13.4,28.2,15.3,30.1z"/>
		<g>
			<path class="st1" d="M15.4,30.6c3.3-0.7,6.5-1.7,9.4-3.6c2.7-1.8,5.9-4.2,6-7.8c0.1-2.9-1.9-5.7-4.8-6.3c-2.9-0.6-6,0.9-7.3,3.5
				c0.3,0.1,0.7,0.2,1,0.3c-0.1-3.1-2.2-5.9-5.1-6.9c-2.7-0.9-5.7-0.1-7.1,2.5C5.9,15.2,6.7,19,8,21.9c1.6,3.4,4.3,6,6.9,8.5
				c0.5,0.5,1.3-0.3,0.8-0.8c-2-2-4.1-4-5.6-6.4c-1.6-2.5-2.8-5.8-2.2-8.8c0.6-2.7,2.8-4.4,5.6-3.9c2.9,0.5,5.1,3.2,5.2,6.1
				c0,0.5,0.8,0.8,1,0.3c1.2-2.4,4.2-3.8,6.8-2.8c2.7,1.1,4,4.3,2.8,6.9c-1.2,2.6-4,4.5-6.4,5.9c-2.4,1.4-5,2.1-7.7,2.7
				C14.5,29.7,14.8,30.7,15.4,30.6z"/>
		</g>
	</g>
	<g>
		<g>
			<defs>
				<path id="SVGID_1_" d="M15.3,30.1c4.7-1,7.6-2.1,11.3-5c1.5-1.2,2.9-2.6,3.5-4.5c0.9-2.8-0.7-5.9-3.4-7s-6.2,0.4-7.4,3.1
					c0-1.9-1.2-4-2.6-5.2c-1.4-1.2-3.4-1.8-5.2-1.4c-2.2,0.4-3.7,2.3-4.1,4.5c-0.2,1.1-0.2,2.3,0,3.4c0.1,0.5,0.2,1.1,0.4,1.6
					C8,20.6,8.5,21.7,9,22.7c0.3,0.5,0.6,1,0.9,1.5C11.5,26.4,13.4,28.2,15.3,30.1z"/>
			</defs>
			<clipPath id="SVGID_00000088816558570178342870000000790002127271172522_">
				<use xlink:href="#SVGID_1_"  style="overflow:visible;"/>
			</clipPath>
			<g style="clip-path:url(#SVGID_00000088816558570178342870000000790002127271172522_);">
				<path class="st3" d="M26.6,26.5c0.5-2.8,0.6-5.8,0.1-8.6c-0.3-1.7-1.2-4.2-2.3-5.6l-2.5,0.3c2.1,4.7,2.8,11.1,1.5,16L26.6,26.5z
					"/>
				<g>
					<path class="st1" d="M27.1,26.6c0.9-4.9,0.7-10.4-2.2-14.6c-0.1-0.2-0.3-0.3-0.5-0.3c-0.8,0.1-1.7,0.2-2.5,0.3
						c-0.4,0.1-0.6,0.4-0.5,0.8c2.1,4.8,2.8,10.5,1.5,15.6c-0.1,0.4,0.4,0.9,0.8,0.6c1-0.7,2.1-1.4,3.2-2.1c0.6-0.4,0-1.3-0.5-0.9
						c-1,0.7-2.1,1.4-3.2,2.1c0.3,0.2,0.5,0.4,0.8,0.6c1.4-5.4,0.6-11.4-1.6-16.5c-0.2,0.3-0.3,0.5-0.5,0.8c0.8-0.1,1.7-0.2,2.5-0.3
						c-0.2-0.1-0.3-0.2-0.5-0.3c2.7,4,3,9.2,2.1,13.8C26,27,27,27.3,27.1,26.6z"/>
				</g>
			</g>
		</g>
	</g>
	<g>
		<path class="st1" d="M15.4,30.6c3.3-0.7,6.5-1.7,9.4-3.6c2.7-1.8,5.9-4.2,6-7.8c0.1-2.9-1.9-5.7-4.8-6.3c-2.9-0.6-6,0.9-7.3,3.5
			c0.3,0.1,0.7,0.2,1,0.3c-0.1-3.1-2.2-5.9-5.1-6.9c-2.7-0.9-5.7-0.1-7.1,2.5C5.9,15.2,6.7,19,8,21.9c1.6,3.4,4.3,6,6.9,8.5
			c0.5,0.5,1.3-0.3,0.8-0.8c-2-2-4.1-4-5.6-6.4c-1.6-2.5-2.8-5.8-2.2-8.8c0.6-2.7,2.8-4.4,5.6-3.9c2.9,0.5,5.1,3.2,5.2,6.1
			c0,0.5,0.8,0.8,1,0.3c1.2-2.4,4.2-3.8,6.8-2.8c2.7,1.1,4,4.3,2.8,6.9c-1.2,2.6-4,4.5-6.4,5.9c-2.4,1.4-5,2.1-7.7,2.7
			C14.5,29.7,14.8,30.7,15.4,30.6z"/>
	</g>
	<g>
		<path class="st3" d="M23.4,19c-2.1,0.4-4.2,0.7-6,1c2.1,1.7-0.2,2.7,1.2,4.4c1.8-1.1,4.4-2.7,6.2-3.5"/>
		<g>
			<path class="st1" d="M23.2,18.5c-2,0.4-4,0.7-6,1c-0.4,0.1-0.5,0.7-0.2,0.9c0.3,0.3,0.7,0.6,0.8,1.1c0,0.3,0,0.5-0.1,0.8
				c-0.2,0.9-0.1,1.7,0.4,2.4c0.2,0.2,0.5,0.4,0.7,0.2c2-1.2,4-2.5,6.2-3.5c0.6-0.3,0.1-1.2-0.5-0.9c-2.1,1-4.1,2.4-6.2,3.5
				c0.2,0.1,0.5,0.1,0.7,0.2c-0.2-0.3-0.4-0.7-0.4-1.1c0-0.3,0.1-0.7,0.2-1c0.2-1-0.2-1.8-1-2.5c-0.1,0.3-0.2,0.6-0.2,0.9
				c2-0.3,4-0.6,6-1C24.2,19.4,23.9,18.3,23.2,18.5L23.2,18.5z"/>
		</g>
	</g>
	<g>
		<path class="st3" d="M26.7,18c1.7-0.9,3.3-1.6,5.2-2.5c-0.5,1.6,0.1,2,0.4,2.3c0.2,0.2,0.8,0.8,0.3,2.1c-2.3,0-3.6,0-5.5,0.1"/>
		<g>
			<path class="st1" d="M27,18.5c1.7-0.9,3.5-1.7,5.2-2.5c-0.3-0.2-0.5-0.4-0.8-0.6c-0.2,0.9-0.4,1.9,0.4,2.6
				c0.1,0.1,0.1,0.1,0.2,0.2c0,0,0.1,0.1,0.1,0.1c0.1,0.1,0-0.1,0,0c0,0,0,0.1,0.1,0.1c0.1,0.1,0.1,0.3,0.1,0.4
				c0,0.3-0.1,0.6-0.2,0.9c0.2-0.1,0.3-0.3,0.5-0.4c-1.8,0-3.7,0-5.5,0.1c-0.7,0-0.7,1.1,0,1.1c1.8,0,3.7-0.1,5.5-0.1
				c0.3,0,0.4-0.2,0.5-0.4c0.4-0.9,0.4-1.9-0.4-2.6c-0.1-0.1-0.2-0.1-0.2-0.2c0,0,0,0-0.1-0.1c0,0,0,0.1,0,0c0,0-0.1-0.2-0.1-0.1
				c-0.2-0.4,0-0.9,0.1-1.3c0.1-0.5-0.4-0.8-0.8-0.6c-1.8,0.8-3.5,1.6-5.2,2.5C25.8,17.9,26.3,18.8,27,18.5L27,18.5z"/>
		</g>
	</g>
	<g>
		<path class="st3" d="M23.4,19.6c0,0.6,0.2,1.1,0.6,1.5c0.4,0.4,1,0.6,1.5,0.5c0.4-0.1,0.8-0.3,1.1-0.5c0.3-0.2,0.5-0.5,0.6-0.9
			c0.3-0.7,0.2-1.6-0.4-2.1c-0.2-0.2-0.5-0.4-0.9-0.5c-0.2-0.1-0.3-0.1-0.5-0.1c-0.3,0-0.6,0.1-0.9,0.2c-0.1,0.1-0.3,0.2-0.4,0.3
			c-0.2,0.2-0.5,0.4-0.6,0.7C23.4,18.9,23.3,19.3,23.4,19.6z"/>
		<g>
			<path class="st1" d="M22.8,19.6c0,1,0.6,2.1,1.7,2.5c1,0.3,2.2-0.1,2.8-0.9c0.7-0.8,0.8-1.9,0.4-2.9c-0.5-1-1.6-1.6-2.7-1.3
				C23.8,17.2,22.8,18.4,22.8,19.6c0,0.7,1.1,0.7,1.1,0c0-0.6,0.5-1.2,1.1-1.5c0.6-0.2,1.4,0,1.7,0.5c0.3,0.5,0.3,1.1,0,1.6
				c-0.3,0.5-1.1,0.9-1.6,0.8c0,0,0,0,0,0c0,0-0.1,0-0.1,0c-0.1,0-0.1,0-0.2-0.1c-0.1-0.1-0.2-0.2-0.3-0.3c-0.2-0.3-0.4-0.7-0.4-1
				c0-0.3-0.2-0.5-0.5-0.5C23.1,19,22.8,19.3,22.8,19.6z"/>
		</g>
	</g>
</g>
</svg>
