<?xml version="1.0" encoding="utf-8"?>
<!-- Generator: Adobe Illustrator 26.0.2, SVG Export Plug-In . SVG Version: 6.00 Build 0)  -->
<svg version="1.1" id="레이어_1" xmlns="http://www.w3.org/2000/svg" xmlns:xlink="http://www.w3.org/1999/xlink" x="0px"
	 y="0px" viewBox="0 0 40 40" style="enable-background:new 0 0 40 40;" xml:space="preserve">
<style type="text/css">
	.st0{fill:#282828;}
	.st1{fill:#D33C50;}
	.st2{fill:#FFFFFF;}
	.st3{fill:#DDDDDD;}
</style>
<g>
	<g>
		<path class="st0" d="M12.6,29.6c-0.1,0.5-0.1,0.9-0.1,1.4c0,0.3,0.3,0.5,0.5,0.5c4.8-0.2,9.6,0,14.3-0.4c0.3,0,0.5-0.2,0.5-0.5
			c0-4.2,0.3-8.4,0.4-12.6c0-0.7-1.1-0.7-1.1,0c-0.1,4.2-0.4,8.4-0.4,12.6c0.2-0.2,0.4-0.4,0.5-0.5c-4.8,0.3-9.6,0.2-14.4,0.4
			c0.2,0.2,0.4,0.4,0.5,0.5c0.1-0.5,0.1-0.9,0.1-1.4C13.8,28.9,12.7,28.9,12.6,29.6L12.6,29.6z"/>
	</g>
	<g>
		<path class="st1" d="M13.2,11.9c0-0.9,0-1.7,0-2.7c4.8,0,9.7-0.1,14.4-0.1c0,0,0.1,0,0.2,0c0,0,0.1,0.1,0.1,0.2
			c0.1,0.9,0.1,2.1,0.1,3.2L13.2,11.9z"/>
		<g>
			<path class="st0" d="M13.7,11.9c0-0.9,0-1.8,0-2.7c-0.2,0.2-0.4,0.4-0.5,0.5c2.4,0,4.8,0,7.2,0c1.2,0,2.3,0,3.5,0
				c0.6,0,1.1,0,1.7,0c0.6,0,1.4-0.1,2,0c-0.1-0.1-0.2-0.2-0.3-0.2c0.2,0.3,0.1,1.1,0.1,1.5c0,0.6,0,1.1,0,1.7
				c0.2-0.2,0.4-0.4,0.5-0.5c-4.3-0.2-8.6-0.4-12.9-0.6c-0.6,0-1.2-0.1-1.9-0.1c-0.7,0-0.7,1.1,0,1.1c4.3,0.2,8.6,0.4,12.9,0.6
				c0.6,0,1.2,0.1,1.9,0.1c0.3,0,0.5-0.3,0.5-0.5c0-0.8,0-1.6,0-2.3c0-0.4,0.1-1.1-0.3-1.5c-0.4-0.4-1.5-0.2-2-0.2
				c-0.9,0-1.7,0-2.6,0c-3.5,0-6.9,0.1-10.4,0.1c-0.3,0-0.6,0.2-0.5,0.5c0,0.9,0,1.8,0,2.7C12.6,12.6,13.7,12.6,13.7,11.9z"/>
		</g>
	</g>
	<g>
		<path class="st2" d="M22,21.8c2.3,0,4-0.4,6-1.4c0-0.1,0.1-0.2,0.1-0.3c0-2.9-0.1-5.6-0.3-8.4c-5-0.1-8.4,0.1-13.3,0h-1.4
			c-0.5,6.1-0.7,12-1.3,17.9c3.1-1.2,5.4-1.1,7.8-0.8c0.3,0,0.6-0.1,1-0.2c0.5-0.9,0.9-1.9,1.1-2.9C21.8,25.4,22.1,22.4,22,21.8z"/>
		<g>
			<path class="st0" d="M22,22.3c1.2,0,2.4-0.1,3.5-0.4c0.6-0.2,1.2-0.4,1.8-0.6c0.4-0.2,1-0.3,1.2-0.7c0.3-0.5,0.1-1.4,0.1-1.9
				c0-0.8,0-1.5-0.1-2.3c0-1.6-0.1-3.1-0.2-4.7c0-0.3-0.2-0.5-0.5-0.6c-4.9-0.1-9.8,0-14.7,0c-0.3,0-0.5,0.2-0.6,0.6
				c-0.4,6-0.7,11.9-1.3,17.9c0,0.3,0.4,0.6,0.7,0.5c1.7-0.7,3.5-1,5.3-1c0.8,0,1.6,0.2,2.3,0.2c1,0,1.4-0.3,1.8-1.1
				c0.5-1.1,0.8-2.2,0.9-3.4c0.1-1,0.3-2.1,0.2-3.1c-0.1-0.7-1.2-0.4-1,0.3c0.1,0.9-0.1,1.9-0.2,2.7c-0.1,1-0.3,2.4-0.9,3.2
				c-0.4,0.5-1.4,0.2-2,0.2c-0.7,0-1.4-0.1-2.1,0c-1.6,0.1-3.1,0.4-4.6,1c0.2,0.2,0.5,0.4,0.7,0.5c0.6-5.9,0.9-11.9,1.3-17.9
				c-0.2,0.2-0.4,0.4-0.6,0.6c4.9,0,9.8-0.1,14.7,0c-0.2-0.2-0.4-0.4-0.5-0.6c0.1,2.5,0.2,5,0.3,7.5c0,0.2,0.1,0.6-0.1,0.9
				c-0.1,0.2-0.6,0.3-0.8,0.3c-0.5,0.2-0.9,0.4-1.4,0.5c-1.1,0.3-2.1,0.4-3.2,0.4C21.3,21.2,21.3,22.3,22,22.3z"/>
		</g>
	</g>
	<g>
		<path class="st3" d="M22,21.8c0.1,0.6-0.3,3.7-0.3,3.9c-0.2,1-0.6,2-1.1,2.9c1.2-0.3,2.4-0.7,3-1.1c0.6-0.4,1.2-0.9,1.8-1.4
			c1-1,1.6-2.2,2-3.5c0.2-0.7,0.4-1.4,0.5-2.1C26,21.4,24.4,21.8,22,21.8z"/>
		<g>
			<path class="st0" d="M21.5,21.9C21.5,22,21.5,21.8,21.5,21.9c0,0,0,0.1,0,0.1c0,0.1,0,0.2,0,0.3c0,0.2,0,0.5,0,0.8
				c0,0.6-0.1,1.1-0.2,1.7c0,0.4-0.1,0.6-0.1,1c-0.2,0.9-0.5,1.7-1,2.5c-0.2,0.4,0.2,0.9,0.6,0.8c1-0.2,2-0.5,2.9-1
				c0.9-0.5,1.7-1.1,2.3-1.8c1.4-1.6,2.1-3.6,2.5-5.7c0.1-0.5-0.4-0.8-0.8-0.6c-1.8,0.9-3.7,1.3-5.7,1.3c-0.7,0-0.7,1.1,0,1.1
				c1.1,0,2.2-0.1,3.2-0.3c1-0.2,2.1-0.7,3-1.1c-0.3-0.2-0.5-0.4-0.8-0.6c-0.4,1.9-1,3.8-2.3,5.2c-0.6,0.6-1.3,1.2-2.1,1.6
				c-0.8,0.5-1.8,0.7-2.7,0.9c0.2,0.3,0.4,0.5,0.6,0.8c0.7-1.2,1.1-2.6,1.3-4c0.1-0.6,0.1-1.2,0.2-1.8c0-0.5,0.1-1,0-1.5
				C22.4,21,21.4,21.2,21.5,21.9z"/>
		</g>
	</g>
	<g>
		<path class="st0" d="M16.5,16.9c0-0.7,0.6-1.4,1.3-1.5c0.7-0.1,1.4,0.2,1.7,0.9c0.2,0.6,0.1,1.3-0.5,1.7c-0.5,0.4-1.3,0.5-2,0.5
			c-0.7,0.1-0.7,1.1,0,1.1c0.7,0,1.5-0.1,2.1,0.3c0.5,0.4,0.7,1.1,0.5,1.7c-0.5,1.4-2.9,1.1-3.6,0.1c-0.4-0.6-1.4,0-0.9,0.5
			c0.7,0.9,1.7,1.4,2.8,1.4c1.1,0,2.2-0.4,2.6-1.5c0.4-0.9,0.2-2.1-0.5-2.8c-0.8-0.8-2-0.8-3.1-0.8c0,0.4,0,0.7,0,1.1
			c1-0.1,2.1-0.2,2.9-1c0.8-0.8,1-2.1,0.4-3.1c-0.6-1-1.9-1.5-3-1.2c-1.1,0.3-1.9,1.4-1.9,2.5C15.4,17.6,16.5,17.6,16.5,16.9
			L16.5,16.9z"/>
	</g>
	<g>
		<path class="st0" d="M23.4,16.3c0.4-0.4,0.8-0.8,1.2-1.1c-0.3-0.1-0.6-0.2-0.9-0.4c0,1.3,0,2.5,0,3.7c0,0.9,0.1,1.8-0.1,2.7
			c0,0.3,0.1,0.6,0.4,0.7c0.3,0.1,0.6-0.1,0.7-0.4c0.1-1,0.1-1.9,0.1-2.9c0-1.3,0-2.6,0-3.9c0-0.5-0.6-0.7-0.9-0.4
			c-0.4,0.4-0.8,0.7-1.2,1.2C22.2,16.1,22.9,16.8,23.4,16.3L23.4,16.3z"/>
	</g>
</g>
</svg>
