<?xml version="1.0" encoding="utf-8"?>
<!-- Generator: Adobe Illustrator 26.0.2, SVG Export Plug-In . SVG Version: 6.00 Build 0)  -->
<svg version="1.1" id="레이어_1" xmlns="http://www.w3.org/2000/svg" xmlns:xlink="http://www.w3.org/1999/xlink" x="0px"
	 y="0px" viewBox="0 0 40 40" style="enable-background:new 0 0 40 40;" xml:space="preserve">
<style type="text/css">
	.st0{fill:#FFFFFF;}
	.st1{fill:#282828;}
	.st2{fill:#FFDD83;}
	.st3{fill:#464646;}
	.st4{fill:#FFE4E4;}
	.st5{fill:#FF8DAB;}
	.st6{fill:#FFA7CF;}
</style>
<g>
	<g>
		<path class="st0" d="M23.3,15.3c-1.8,0.1-3.4,1.1-4.3,2.2c-1.4,1.6-1.4,3.4-1.5,5.5c-0.1,2-0.5,2.7-1.5,4.2
			c-0.3,0.4-1.1,1.5-1.4,1.8c-0.1,0.1-0.1,0.1-0.1,0.2c0,0.1,0.1,0.1,0.1,0.2c0.4,0.3,1,0.3,1.5,0.2c0.5-0.1,1-0.3,1.6-0.3
			c0.6,0.1,1.1,0.5,1.6,0.8c1.6,0.9,3.4,1.8,5.2,1.8c1.7,0,3.2-0.3,4.5-1.4c0.9-0.7,1.2-1.5,2.6-1.4c1.1,0.1,1.4,0.7,3.5,0.5
			c0.8-0.1,0.8-0.6,0.5-1.1c-0.3-0.5-1-1.2-1.5-1.5c-0.4-0.3-0.8-0.7-1.1-1.5c-0.4-0.8-0.5-2.4-0.4-3.3c0.1-0.9-0.1-1.6-0.3-2.5
			c-0.1-0.4-0.3-0.8-0.5-1.2c-0.1-0.3-0.3-0.5-0.4-0.8c-0.4-0.6-1-1.1-1.7-1.5c-0.2-0.1-0.5-0.3-0.7-0.4c-0.5-0.2-1-0.3-1.6-0.3
			L23.3,15.3z"/>
		<g>
			<path class="st1" d="M23.3,14.8c-2.4,0.2-4.6,1.6-5.6,3.8s-0.2,4.9-1.3,7c-0.5,0.9-1.1,1.8-1.8,2.5c-0.5,0.6-1,1.4,0,1.9
				c1.2,0.6,2.5-0.5,3.7,0c1.3,0.7,2.5,1.5,3.9,2c2.3,0.7,5.1,0.6,7-0.9c1-0.8,1.5-1.7,2.8-1.3c0.9,0.2,1.7,0.5,2.7,0.4
				c0.7-0.1,1.5-0.2,1.5-1.1c0.1-1-1.1-1.9-1.8-2.5c-1-0.9-1.3-2-1.4-3.3c0-1.4,0-2.6-0.4-4c-0.8-2.4-2.8-4.2-5.4-4.3
				C26,14.9,24.7,14.8,23.3,14.8c-0.7,0-0.7,1,0,1.1c1.4,0.1,2.8,0.1,4.2,0.2c2,0.1,3.5,1.6,4.1,3.4c0.3,0.9,0.5,1.7,0.5,2.6
				c0,0.7-0.1,1.4,0,2.2c0.2,1.2,0.7,2.3,1.6,3.2c0.3,0.2,0.5,0.5,0.8,0.7c0.3,0.3,0.9,0.8,0.2,1c-0.5,0.2-1.4,0-2-0.2
				c-1-0.3-1.9-0.5-2.8,0.1c-0.5,0.3-0.8,0.7-1.2,1.1c-0.8,0.7-1.7,1.1-2.7,1.2c-2.2,0.4-4.3-0.4-6.2-1.5c-0.7-0.4-1.3-0.9-2.1-1
				c-0.6-0.1-2.5,0.7-2.9,0.1c0,0.2,0,0.4,0,0.5c0.5-1.1,1.6-2,2.2-3c0.6-1,0.9-2,0.9-3.2c0.1-1.6,0-3.3,0.9-4.7
				c0.9-1.6,2.6-2.5,4.4-2.7C24,15.8,24,14.7,23.3,14.8z"/>
		</g>
	</g>
	<g>
		<path class="st2" d="M28.2,17.8c0.1-1.9,0.1-2.4,0.8-4.2c-0.7,0.4-1.4,0.3-2.2,0.3s-1.2-0.7-1.3-1.5c-0.4,0.9-1,1.4-1.8,1.6
			S22,14,21.3,13.4l-0.1,0c0.7,1.5,1.1,2.6,0.8,4.3c0,0,0,0,0,0L28.2,17.8z"/>
		<g>
			<path class="st1" d="M28.8,17.8c0-0.7,0-1.4,0.2-2c0.1-0.7,0.4-1.4,0.6-2c0.2-0.5-0.4-0.8-0.8-0.6c-0.5,0.3-1.3,0.3-1.9,0.2
				c-0.5-0.1-0.7-0.6-0.8-1.1c-0.1-0.4-0.8-0.5-1-0.1c-0.3,0.6-0.6,1.1-1.2,1.3c-0.7,0.2-1.5,0.1-2.1-0.4c-0.2-0.2-0.4-0.2-0.7-0.1
				c0,0,0,0-0.1,0c-0.3,0.1-0.3,0.5-0.2,0.7c0.6,1.2,1,2.5,0.8,3.8c-0.1,0.4,0.1,0.7,0.5,0.7c2,0,4.1,0.1,6.1,0.1
				c0.7,0,0.7-1.1,0-1.1c-2,0-4.1-0.1-6.1-0.1c0.2,0.2,0.4,0.5,0.5,0.7c0.3-1.7-0.2-3.2-0.9-4.7c-0.1,0.2-0.1,0.5-0.2,0.7
				c0,0,0,0,0.1,0c-0.2,0-0.4-0.1-0.7-0.1c0.9,0.7,2,1,3,0.7c0.9-0.3,1.6-1,2-1.8c-0.3,0-0.7-0.1-1-0.1c0.1,0.8,0.6,1.6,1.5,1.8
				c0.9,0.2,2,0.2,2.8-0.3c-0.3-0.2-0.5-0.4-0.8-0.6c-0.3,0.7-0.5,1.4-0.6,2.1c-0.1,0.7-0.1,1.5-0.2,2.2
				C27.6,18.5,28.7,18.5,28.8,17.8z"/>
		</g>
	</g>
	<g>
		<path class="st3" d="M23.6,21.1c0.3-0.2,0.6-0.4,0.8-0.6c0.4-0.5,1-1.3,1.1-2c0.3,0.6,0.6,1.7,1.2,2.1c0.6,0.5,1.1,0.6,1.9,0.6
			c0.6,0,1.3-0.1,1.9-0.2c0,0,0,0,0,0c-0.1-0.5-0.3-1-0.5-1.5c-0.5-0.9-1.2-1.7-2.1-2.2c-1.6-0.8-3.9-1-5.6,0
			c-1.1,0.7-1.8,1.9-2.1,3.2c0,0.2,0,0.3,0,0.5c0.8,0.3,1.6,0.4,2.5,0.3C22.9,21.4,23.3,21.3,23.6,21.1z"/>
		<g>
			<path class="st1" d="M23.9,21.6c1-0.6,1.9-1.8,2.1-3c-0.4,0-0.7,0-1,0c0.4,1,0.8,2.2,1.9,2.7c1.1,0.6,2.5,0.4,3.8,0.2
				c0.2,0,0.4-0.3,0.4-0.5c-0.1-1.4-1-2.8-2.1-3.6c-1-0.8-2.5-1.2-3.8-1.3c-1.4,0-2.7,0.4-3.7,1.3c-1.1,0.9-1.7,2.3-1.8,3.7
				c0,0.2,0.2,0.4,0.4,0.5C21.2,22.1,22.6,22.2,23.9,21.6c0.6-0.3,0.1-1.2-0.5-0.9c-1,0.5-2.1,0.3-3-0.1c0.1,0.2,0.3,0.4,0.4,0.5
				c0.1-1.1,0.6-2.2,1.4-2.9c0.8-0.8,1.9-1,3-1c1,0,2.1,0.3,3,0.9c0.5,0.3,0.9,0.8,1.1,1.3c0.3,0.4,0.6,1.1,0.6,1.6
				c0.1-0.2,0.3-0.4,0.4-0.5c-0.9,0.2-2,0.4-2.9-0.1c-0.8-0.4-1.1-1.3-1.4-2.1c-0.2-0.4-0.9-0.6-1,0c-0.2,0.9-0.8,1.9-1.6,2.3
				C22.7,21,23.2,21.9,23.9,21.6z"/>
		</g>
	</g>
	<g>
		<path class="st4" d="M28.5,21.2c-0.8-0.1-1.3-0.1-1.9-0.6c-0.5-0.5-0.9-1.5-1.2-2.1c-0.1,0.7-0.6,1.5-1.1,2
			c-0.2,0.3-0.5,0.5-0.8,0.6s-0.6,0.2-1,0.3c-0.8,0.1-1.7,0-2.5-0.3C20,21.6,20,22.1,20,22.5c0,1.8,0.7,3.5,2.2,4.4
			c0.5,0.3,1.1,0.5,1.8,0.7c2,0.5,4.5,0.3,5.8-1.4c1.1-1.4,1.2-3.5,0.8-5.2C29.8,21.2,29.2,21.3,28.5,21.2z"/>
		<g>
			<path class="st1" d="M28.5,20.7c-0.6,0-1.2-0.1-1.7-0.6c-0.4-0.5-0.6-1.1-0.9-1.7c-0.2-0.4-0.9-0.6-1,0c-0.2,0.8-0.8,1.8-1.5,2.3
				c-1,0.5-2.1,0.3-3.1,0c-0.3-0.1-0.6,0.1-0.7,0.4c-0.2,1.5-0.2,3,0.5,4.4c0.7,1.4,1.9,2.2,3.4,2.6c2.5,0.7,5.8,0.3,7.1-2.3
				c0.7-1.5,0.7-3.2,0.4-4.9c-0.1-0.3-0.4-0.4-0.7-0.4C29.7,20.6,29.1,20.7,28.5,20.7c-0.7,0-0.7,1.1,0,1.1c0.7,0,1.4-0.1,2-0.2
				c-0.2-0.1-0.5-0.2-0.7-0.4c0.3,1.5,0.3,3.2-0.5,4.5c-0.8,1.2-2.2,1.6-3.5,1.6c-1.4,0-3.1-0.4-4.1-1.5c-1.1-1.2-1.3-3-1.1-4.6
				c-0.2,0.1-0.5,0.2-0.7,0.4c1.2,0.4,2.8,0.6,4-0.1c1-0.6,1.8-1.8,2-2.9c-0.4,0-0.7,0-1,0c0.3,0.8,0.6,1.7,1.2,2.3
				c0.6,0.6,1.5,0.8,2.4,0.9C29.2,21.8,29.2,20.7,28.5,20.7z"/>
		</g>
	</g>
	<g>
		<path class="st1" d="M24.2,25.7c1,0.6,2.4,0.6,3.3-0.2c0.2-0.2,0.2-0.6,0-0.8c-0.2-0.2-0.5-0.2-0.8,0c0,0-0.1,0.1-0.1,0.1
			c0,0,0.1-0.1,0,0c0,0,0,0,0,0c0,0-0.1,0-0.1,0.1c0,0,0,0-0.1,0c-0.1,0,0,0,0,0c0,0-0.1,0-0.1,0c0,0-0.1,0-0.1,0s-0.1,0-0.2,0
			c-0.1,0,0.1,0,0,0c0,0-0.1,0-0.1,0c-0.1,0-0.2,0-0.3,0c0,0-0.1,0-0.1,0c0,0,0.1,0,0,0c-0.1,0-0.1,0-0.2,0s-0.1,0-0.2,0
			c0,0-0.1,0-0.1,0c-0.1,0,0.1,0,0,0c-0.1-0.1-0.2-0.1-0.3-0.2c-0.2-0.2-0.6,0-0.7,0.2C23.9,25.2,24,25.5,24.2,25.7L24.2,25.7z"/>
	</g>
	<g>
		<path class="st5" d="M22.2,24.4c0.7,0,0.7-1.1,0-1.1C21.5,23.3,21.5,24.4,22.2,24.4L22.2,24.4z"/>
	</g>
	<g>
		<path class="st5" d="M28.6,24c0.7,0,0.7-1.1,0-1.1C27.9,22.9,27.9,24,28.6,24L28.6,24z"/>
	</g>
	<g>
		<path class="st6" d="M17.6,14.2c1.5-0.9,2.4-1.6,3.4-3.1c0.4-0.6,0.7-1.3,0.7-2c0-1.1-0.9-2-2-2S17.5,7.9,17.4,9
			c-0.2-0.6-0.9-1.3-1.5-1.5c-0.6-0.2-1.4-0.2-2,0.1c-0.7,0.4-1,1.2-0.9,2c0.1,0.4,0.2,0.8,0.4,1.2c0.1,0.2,0.2,0.3,0.3,0.5
			c0.2,0.4,0.5,0.7,0.8,1c0.2,0.2,0.3,0.3,0.5,0.4C15.8,13.3,16.7,13.7,17.6,14.2z"/>
		<g>
			<path class="st1" d="M17.9,14.6c1.1-0.6,2.1-1.4,2.9-2.3c0.9-1.1,1.8-2.5,1.4-3.9c-0.4-1.2-1.5-2-2.8-1.9C18,6.7,17,7.7,16.9,9
				c0.4-0.1,0.7-0.1,1.1-0.1c-0.5-1.2-1.7-2.1-3-2.1c-1.2,0-2.3,0.8-2.5,2c-0.2,1.3,0.4,2.6,1.3,3.5c1,1.1,2.3,1.7,3.6,2.4
				c0.6,0.3,1.2-0.6,0.6-0.9c-1.7-0.9-4-1.9-4.4-4.1c-0.1-0.8,0.2-1.6,1.1-1.7c0.9-0.2,1.9,0.4,2.3,1.2c0.2,0.6,1,0.5,1.1-0.1
				c0.1-0.8,1-1.5,1.8-1.4c0.9,0.1,1.5,1,1.3,1.9c-0.2,1-0.9,1.9-1.6,2.6c-0.6,0.7-1.4,1.2-2.2,1.7C16.7,14.1,17.3,15,17.9,14.6z"/>
		</g>
	</g>
	<g>
		<path class="st4" d="M11.3,16.5c-1.1,1.2-2.8,1.5-4.4,1.6c-0.8,0.1-1.6,0.1-2.4,0.1c0,0.2-0.1,0.3-0.2,0.5
			c-0.1,0.8-0.2,1.6-0.1,2.4c0.2,1.5,0.9,3,2.3,3.9c0.6,0.4,1.2,0.6,1.9,0.8c2.2,0.5,4.8,0.3,6.2-1.5c0.9-1.2,1.2-2.8,1-4.3
			c-0.1-0.5-0.2-1-0.3-1.6C13.8,18.3,12.3,17.7,11.3,16.5z"/>
		<g>
			<path class="st1" d="M10.9,16.1c-1.5,1.6-4.4,1.6-6.4,1.6c-0.2,0-0.5,0.2-0.5,0.4c-0.5,1.6-0.4,3.5,0.3,5c0.7,1.6,2,2.6,3.6,3.1
				c2.7,0.8,6.2,0.4,7.6-2.4c0.9-1.7,0.8-3.7,0.3-5.5c-0.1-0.2-0.3-0.4-0.5-0.4c-1.4,0-2.7-0.6-3.6-1.7c-0.4-0.6-1.2,0.2-0.8,0.8
				c1.1,1.3,2.7,2,4.4,2.1c-0.2-0.1-0.4-0.3-0.5-0.4c0.5,1.7,0.5,3.6-0.5,5.1c-0.9,1.3-2.4,1.8-3.9,1.8c-1.6,0-3.5-0.5-4.5-1.9
				C4.8,22.1,4.5,20,5,18.3c-0.2,0.1-0.4,0.3-0.5,0.4c2.3,0.1,5.5,0,7.2-1.9C12.2,16.3,11.4,15.6,10.9,16.1z"/>
		</g>
	</g>
	<g>
		<path class="st3" d="M7,18.1c1.6-0.2,3.3-0.4,4.4-1.6c0.9,1.2,2.4,1.9,4,1.9c0,0,0-0.1,0-0.1c-0.1-0.4-0.3-0.8-0.4-1.1
			c-0.2-0.3-0.4-0.6-0.6-0.9c-0.4-0.6-1-1.1-1.7-1.5c-1.8-0.9-4.2-1.1-5.9,0.1c-1.2,0.7-1.8,2.1-2.1,3.4C5.3,18.2,6.2,18.2,7,18.1z"
			/>
		<g>
			<path class="st1" d="M7,18.6c1.7-0.2,3.5-0.5,4.8-1.8c-0.3,0-0.5,0-0.8,0c1.1,1.3,2.7,2,4.4,2.1c0.4,0,0.6-0.4,0.5-0.7
				c-0.3-1.4-1.3-2.8-2.4-3.6c-1.1-0.8-2.5-1.1-3.8-1.2c-1.3,0-2.6,0.3-3.7,1.1c-1.1,0.9-1.7,2.1-2,3.4c-0.1,0.4,0.2,0.7,0.5,0.7
				C5.3,18.7,6.1,18.7,7,18.6c0.7-0.1,0.7-1.2,0-1.1c-0.8,0.1-1.6,0.1-2.4,0.1c0.2,0.2,0.3,0.5,0.5,0.7c0.3-1.1,0.7-2.1,1.6-2.8
				c0.8-0.7,2-0.9,3-0.9c2.3,0.1,4.6,1.5,5.1,3.9c0.2-0.2,0.4-0.5,0.5-0.7c-1.4,0-2.7-0.6-3.6-1.7c-0.2-0.2-0.6-0.2-0.8,0
				c-1,1.1-2.6,1.3-4,1.5C6.3,17.6,6.3,18.7,7,18.6z"/>
		</g>
	</g>
	<g>
		<path class="st1" d="M8.8,23.9c1.1,0.6,2.4,0.7,3.4,0.1c0.2-0.1,0.4-0.5,0.2-0.7c-0.1-0.2-0.5-0.4-0.7-0.2
			c-0.1,0.1-0.2,0.1-0.3,0.1c0,0-0.1,0-0.1,0c0.1,0,0.1,0,0,0c-0.1,0-0.1,0-0.2,0c-0.1,0-0.2,0.1-0.3,0.1c-0.1,0-0.1,0,0,0
			c0,0-0.1,0-0.1,0c-0.1,0-0.1,0-0.2,0c-0.1,0-0.2,0-0.3,0c0.1,0-0.1,0-0.1,0c-0.1,0-0.1,0-0.2,0c-0.1,0-0.1,0-0.2-0.1
			c0,0-0.2-0.1-0.1,0c-0.1-0.1-0.3-0.1-0.4-0.2c-0.2-0.1-0.6-0.1-0.7,0.2C8.5,23.5,8.5,23.8,8.8,23.9L8.8,23.9z"/>
	</g>
	<g>
		<path class="st0" d="M13.3,27c-0.9-0.5-1.8-0.9-2.9-1c-1.5-0.2-2.8,0.3-4,1.1c1.1,0.8,2.3,1.6,3.4,2.4C11,28.7,12.1,27.8,13.3,27z
			"/>
		<g>
			<path class="st1" d="M13.5,26.5c-1.2-0.6-2.5-1.1-3.8-1.1c-1.3,0-2.5,0.5-3.5,1.2c-0.3,0.2-0.3,0.7,0,0.9
				c1.2,0.8,2.3,1.6,3.4,2.4c0.1,0.1,0.4,0.1,0.6,0c1.1-0.8,2.3-1.6,3.4-2.5c0.2-0.2,0.4-0.5,0.2-0.8c-0.1-0.2-0.5-0.4-0.8-0.2
				c-1.1,0.9-2.2,1.7-3.4,2.5c0.2,0,0.4,0,0.6,0c-1.1-0.8-2.3-1.6-3.4-2.4c0,0.3,0,0.6,0,0.9c0.9-0.6,1.9-1,3-1c1.2,0,2.3,0.4,3.3,1
				C13.6,27.8,14.1,26.9,13.5,26.5z"/>
		</g>
	</g>
	<g>
		<path class="st3" d="M13.4,26.9c-0.1,0-0.1,0.1-0.2,0.1c0.1,0,0.1,0,0.2,0.1C13.4,27,13.4,26.9,13.4,26.9z"/>
		<g>
			<path class="st1" d="M13.1,26.4c-0.1,0-0.1,0.1-0.2,0.1c-0.1,0-0.1,0.1-0.2,0.2s-0.1,0.2-0.1,0.3c0,0.2,0.1,0.4,0.3,0.5
				c0.1,0,0.1,0.1,0.2,0.1c0,0,0.1,0,0.1,0c0,0-0.1,0-0.1-0.1l0,0c0.2,0.1,0.4,0.1,0.6,0c0.1-0.1,0.3-0.3,0.3-0.5c0-0.1,0-0.1,0-0.2
				c0-0.1,0-0.1-0.1-0.2c0-0.1-0.1-0.1-0.1-0.2c-0.1-0.1-0.2-0.2-0.4-0.2s-0.3,0-0.4,0.2c-0.1,0.1-0.2,0.2-0.2,0.4
				c0,0.1,0,0.1,0,0.2c0.3-0.2,0.6-0.3,0.8-0.5c-0.1,0-0.1-0.1-0.2-0.1c0,0-0.1,0-0.1,0c0,0,0.1,0,0.1,0.1c0,0,0,0,0,0
				c0,0.3,0,0.6,0,0.9c0.1,0,0.1-0.1,0.2-0.1c0.1,0,0.1-0.1,0.1-0.1c0.1,0,0.1-0.1,0.1-0.2c0-0.1,0-0.3-0.1-0.4
				c-0.1-0.1-0.2-0.2-0.3-0.2C13.4,26.3,13.3,26.3,13.1,26.4z"/>
		</g>
	</g>
	<g>
		<path class="st3" d="M6.1,26.9l0,0.5c0.1-0.1,0.2-0.2,0.3-0.2C6.3,27,6.2,26.9,6.1,26.9z"/>
		<g>
			<path class="st1" d="M5.6,26.9c0,0.2,0,0.3,0,0.5c0,0.2,0.1,0.4,0.3,0.5c0.1,0,0.2,0.1,0.3,0.1s0.2,0,0.3-0.1
				c0.1-0.1,0.2-0.2,0.4-0.3c0,0-0.1,0.1-0.1,0.1c0,0,0,0,0.1,0c0.1,0,0.2-0.1,0.2-0.2C7,27.3,7,27.2,7,27.1c0-0.2-0.1-0.4-0.3-0.5
				c-0.1-0.1-0.2-0.1-0.3-0.2c-0.1-0.1-0.3-0.1-0.4-0.1s-0.3,0.1-0.3,0.2c-0.1,0.1-0.1,0.3-0.1,0.4c0,0.1,0.1,0.2,0.2,0.3
				c0.1,0.1,0.2,0.1,0.3,0.2c0-0.3,0-0.6,0-0.9c-0.1,0.1-0.3,0.2-0.4,0.3c0,0,0.1-0.1,0.1-0.1c0,0,0,0,0,0c0.3,0.2,0.5,0.3,0.8,0.5
				c0-0.2,0-0.3,0-0.5c0-0.1-0.1-0.3-0.2-0.4c-0.1-0.1-0.2-0.2-0.4-0.2c-0.1,0-0.3,0-0.4,0.2C5.6,26.6,5.6,26.7,5.6,26.9z"/>
		</g>
	</g>
	<g>
		<path class="st3" d="M6.2,32.2c1.2-0.9,2.4-1.8,3.7-2.7c-1.1-0.8-2.3-1.6-3.4-2.4c-0.1,0.1-0.2,0.2-0.3,0.2l0,1.1
			C6.2,29.9,6.1,30.7,6.2,32.2z"/>
		<g>
			<path class="st1" d="M6.5,32.7c1.2-0.9,2.4-1.8,3.7-2.7c0.3-0.2,0.3-0.7,0-0.9c-1.1-0.8-2.3-1.6-3.4-2.4c-0.2-0.1-0.4-0.1-0.5,0
				c-0.3,0.2-0.6,0.4-0.6,0.7c0,0.1,0,0.2,0,0.3c0,0.3,0,0.6,0,0.9c0,1.2,0,2.4,0,3.6c0,0.3,0.2,0.5,0.6,0.5c0.3,0,0.6-0.2,0.5-0.5
				c-0.1-1.6,0-3.2-0.1-4.8c-0.1,0.1-0.1,0.3-0.2,0.4c0.1,0,0.1-0.1,0.2-0.2c-0.2,0-0.4,0-0.6,0c1.2,0.8,2.3,1.6,3.4,2.4
				c0-0.3,0-0.6,0-0.9c-1.2,0.9-2.4,1.8-3.7,2.7c-0.2,0.2-0.3,0.5-0.2,0.8C5.9,32.7,6.2,32.8,6.5,32.7z"/>
		</g>
	</g>
	<g>
		<path class="st3" d="M13.9,32.3c-0.1-1.8-0.2-3.5-0.4-5.3c-0.1,0-0.1,0-0.2-0.1c-1.1,0.9-2.2,1.7-3.4,2.5
			C11.2,30.5,12.6,31.5,13.9,32.3z"/>
		<g>
			<path class="st1" d="M14.4,32.3c-0.1-1.8-0.2-3.5-0.4-5.3c0-0.3-0.1-0.4-0.4-0.5c-0.2-0.1-0.4-0.1-0.6,0
				c-0.2,0.1-0.3,0.2-0.5,0.4c-0.3,0.2-0.6,0.5-1,0.7c-0.6,0.5-1.3,1-1.9,1.4c-0.3,0.2-0.3,0.7,0,0.9c1.3,1,2.6,1.9,4,2.9
				c0.2,0.2,0.6,0,0.8-0.2c0.2-0.3,0.1-0.6-0.2-0.8c-1.4-0.9-2.7-1.9-4-2.9c0,0.3,0,0.6,0,0.9c1.1-0.8,2.3-1.6,3.4-2.5
				c-0.1,0-0.3,0-0.4,0.1c0.1,0,0.1,0,0.2,0.1c-0.1-0.2-0.3-0.4-0.4-0.5c0.2,1.8,0.4,3.5,0.4,5.3C13.4,33,14.4,33,14.4,32.3z"/>
		</g>
	</g>
	<g>
		<path class="st0" d="M23.2,32.6c1.2,0.5,2.6,0.5,3.9,0c1.3-0.5,2.2-1.6,2.7-2.9c-1-0.8-2-1.5-3.4-1.7c-1.6-0.3-3.2,0.1-4.4,1.2
			c-0.4,0.3-0.6,0.7-1,1.1C21.5,31.3,22.2,32.1,23.2,32.6z"/>
		<g>
			<path class="st1" d="M23,33.1c1.4,0.6,3.1,0.5,4.5-0.1c1.2-0.6,2.2-1.7,2.7-3c0.1-0.2,0.1-0.5-0.1-0.7c-1.4-1.2-3-2-4.9-2
				c-0.9,0-1.7,0.2-2.5,0.6c-0.9,0.5-1.4,1.2-2.1,1.9c-0.2,0.2-0.2,0.4-0.1,0.7c0.5,1.1,1.3,2,2.3,2.5c0.6,0.3,1.2-0.6,0.5-0.9
				c-0.9-0.4-1.5-1.2-1.9-2.1c0,0.2-0.1,0.4-0.1,0.7c0.5-0.6,1-1.2,1.7-1.6c0.6-0.4,1.4-0.6,2.1-0.6c1.6,0,2.9,0.7,4.1,1.7
				c0-0.2-0.1-0.4-0.1-0.7c-0.5,1-1.2,2-2.2,2.5c-1.2,0.6-2.5,0.6-3.7,0.1c-0.3-0.1-0.6,0.1-0.7,0.4C22.6,32.7,22.8,33,23,33.1z"/>
		</g>
	</g>
</g>
</svg>
