<?xml version="1.0" encoding="utf-8"?>
<!-- Generator: Adobe Illustrator 26.0.2, SVG Export Plug-In . SVG Version: 6.00 Build 0)  -->
<svg version="1.1" id="레이어_1" xmlns="http://www.w3.org/2000/svg" xmlns:xlink="http://www.w3.org/1999/xlink" x="0px"
	 y="0px" viewBox="0 0 40 40" style="enable-background:new 0 0 40 40;" xml:space="preserve">
<style type="text/css">
	.st0{fill:#FFD8C4;}
	.st1{fill:#282828;}
	.st2{fill:#C4A6B0;}
	.st3{fill:#FFD9DE;}
	.st4{fill:#FFD978;}
</style>
<g>
	<g>
		<path class="st0" d="M10.2,21.6L10,30.2c-0.1,1.5,1.1,2.8,2.4,3.5c1.9,1,4.2,1.2,6.4,1.2c2.8,0,5.6-0.1,8.2-1.2
			c1.3-0.5,2.6-1.5,2.8-2.9l0.2-8.6"/>
		<g>
			<path class="st1" d="M9.6,21.6c0,2-0.1,4.1-0.1,6.1c0,0.8,0,1.6-0.1,2.4c0,1.7,1,3,2.4,3.9c2,1.2,4.4,1.4,6.6,1.5
				c2.4,0,4.9,0,7.3-0.8c1.7-0.5,3.8-1.4,4.4-3.2c0.2-0.7,0.2-1.5,0.2-2.3c0-2.3,0.1-4.6,0.2-7c0-0.7-1.1-0.7-1.1,0
				c0,1.8-0.1,3.5-0.1,5.3c0,1,0,1.9-0.1,2.9c0,1.3-1,2.1-2.1,2.7c-2.1,1-4.5,1.3-6.8,1.3c-2.3,0-4.7,0-6.8-0.8
				c-1.6-0.6-2.9-1.7-2.9-3.5c0-0.8,0-1.6,0.1-2.4c0.1-2,0.1-4.1,0.1-6.1C10.8,20.9,9.7,20.9,9.6,21.6L9.6,21.6z"/>
		</g>
	</g>
	<g>
		<path class="st2" d="M10.2,21.6c-0.1,1.5,1.1,2.8,2.4,3.5c1.9,1,4.2,1.2,6.4,1.2c2.8,0,5.6-0.1,8.2-1.2c1.3-0.5,2.6-1.5,2.8-2.9
			c0.3-2.1-1.7-3.5-3.4-4.2c-1.1-0.4-2.2-0.7-3.3-0.9c-0.6-0.1-1.3-0.2-1.9-0.2c-2.6-0.1-5.3,0.4-7.8,1.4C12,18.9,10.4,20,10.2,21.6
			"/>
		<g>
			<path class="st1" d="M9.6,21.6c-0.2,3.5,4.1,4.9,6.9,5.2c3.6,0.4,7.8,0.3,11.2-1.3c1.3-0.6,2.5-1.6,2.8-3.1
				c0.2-1.3-0.4-2.6-1.4-3.4c-2.6-2.2-6.8-2.8-10-2.5c-2.1,0.2-4.2,0.7-6.2,1.5c-1.5,0.7-3,1.7-3.3,3.5c-0.1,0.7,0.9,1,1,0.3
				c0.4-2.8,4.7-3.6,6.9-4c3-0.5,6.4-0.2,9.2,1.1c1,0.5,2.1,1.2,2.5,2.3c0.5,1.5-0.7,2.7-1.9,3.3c-2.6,1.4-5.8,1.4-8.7,1.4
				c-2.5,0-8.1-0.5-7.9-4.2C10.8,20.9,9.7,20.9,9.6,21.6L9.6,21.6z"/>
		</g>
	</g>
	<g>
		<path class="st3" d="M18.5,21.1c0-3.9-0.1-6-0.1-10.4c0-0.1,0-0.3-0.1-0.4c-0.1-0.1-0.2-0.1-0.3-0.1c-0.6,0-1.2,0.1-1.9,0.1
			c0,3.8,0,7,0,10.7c0,0.8,0.9,1,1.3,1C17.8,22.1,18.5,21.8,18.5,21.1z"/>
		<g>
			<path class="st1" d="M19,21.1c0-2.2,0-4.4-0.1-6.7c0-1.2,0.1-2.5,0-3.8C18.8,9.3,17,9.8,16,9.9c-0.3,0-0.5,0.2-0.5,0.5
				c0,3.3,0,6.6,0.1,9.9c0,0.6-0.1,1.2,0.4,1.7c0.3,0.3,0.7,0.5,1.2,0.6C18,22.8,18.9,22.2,19,21.1c0.1-0.7-1-0.7-1.1,0
				c0,0.5-1.1,0.6-1.3,0.1c-0.1-0.2,0-0.6,0-0.8c0-0.3,0-0.6,0-0.9c0-0.6,0-1.3,0-1.9c0-2.4,0-4.8,0-7.2c-0.2,0.2-0.4,0.4-0.5,0.5
				c0.6,0,1.3-0.2,1.9-0.1c0,0,0-0.1-0.1-0.1c0,0.1,0,0.2,0,0.2c0,0.2,0,0.3,0,0.4c0,0.3,0,0.6,0,0.9c0,1,0,2.1,0,3.1
				c0,1.9,0.1,3.9,0.1,5.8C17.9,21.8,19,21.8,19,21.1z"/>
		</g>
	</g>
	<g>
		<path class="st3" d="M24.2,20.8c0-3.9-0.1-4-0.1-8.3c0-0.1,0-0.3-0.1-0.4c-0.1-0.1-0.2-0.1-0.3-0.1c-0.6,0-1.2,0.1-1.9,0.1
			c0,3.8,0,4.9,0,8.7c0,0.8,0.9,1,1.3,1C23.5,21.8,24.2,21.5,24.2,20.8z"/>
		<g>
			<path class="st1" d="M24.7,20.8c0-1.7,0-3.4-0.1-5.1c0-1,0-2.1,0-3.1c0-0.6-0.2-1.1-0.8-1.2c-0.7-0.1-1.4,0.1-2.1,0.1
				c-0.3,0-0.5,0.2-0.5,0.5c0,2.5,0,5,0,7.6c0,0.6-0.1,1.3,0.2,1.9c0.3,0.4,0.7,0.6,1.2,0.7C23.6,22.5,24.7,21.9,24.7,20.8
				c0-0.7-1-0.7-1.1,0c0,0.5-1.1,0.6-1.3,0.2c-0.1-0.2,0-0.5,0-0.7c0-0.3,0-0.6,0-0.9c0-0.5,0-1,0-1.5c0-1.9,0-3.8,0-5.8
				c-0.2,0.2-0.4,0.4-0.5,0.5c0.3,0,0.6,0,0.9-0.1c0.2,0,0.8,0.1,0.9-0.1c0,0,0.1,0,0.1,0c-0.1-0.2-0.2-0.2-0.2,0c0,0.1,0,0.3,0,0.5
				c0,0.3,0,0.6,0,0.8c0,0.8,0,1.6,0,2.4c0,1.5,0.1,3,0.1,4.6C23.7,21.5,24.7,21.5,24.7,20.8z"/>
		</g>
	</g>
	<g>
		<path class="st1" d="M15.7,13.9c0.3,0.3,0.6,0.7,0.9,0.9c0.4,0.3,0.9,0.6,1.4,0.6c0.3,0,0.6-0.3,0.5-0.5c0-0.3-0.2-0.5-0.5-0.5
			c0,0-0.1,0-0.1,0c0,0,0.1,0,0.1,0c-0.1,0-0.2,0-0.3-0.1c0,0-0.1,0,0,0c0.1,0,0,0,0,0c0,0-0.1,0-0.1-0.1c-0.1-0.1-0.1-0.1-0.2-0.1
			c-0.1,0,0.1,0.1,0,0c0,0,0,0,0,0c0,0-0.1-0.1-0.1-0.1c-0.3-0.3-0.6-0.6-0.8-0.9c-0.1-0.1-0.3-0.2-0.4-0.2c-0.1,0-0.3,0.1-0.4,0.2
			c-0.1,0.1-0.2,0.2-0.2,0.4C15.6,13.7,15.6,13.8,15.7,13.9L15.7,13.9z"/>
	</g>
	<g>
		<path class="st1" d="M15.7,17.7c0.2,0.4,0.5,0.7,0.8,1c0.2,0.2,0.4,0.3,0.6,0.4c0.2,0.1,0.4,0.1,0.6,0.1c0.3,0.1,0.6-0.1,0.7-0.4
			c0.1-0.3-0.1-0.6-0.4-0.7c-0.2-0.1-0.4-0.1-0.6-0.1c0,0,0.1,0,0.1,0c-0.1,0-0.1-0.1-0.2-0.1c0,0-0.1,0-0.1,0c0.1,0.1,0,0,0,0
			c-0.1-0.1-0.2-0.2-0.3-0.3c0,0-0.1-0.1-0.1-0.2c0,0,0,0-0.1-0.1c0.1,0.1,0,0,0,0c-0.1-0.1-0.2-0.2-0.2-0.4
			c-0.1-0.2-0.5-0.4-0.7-0.2C15.7,17.1,15.6,17.4,15.7,17.7L15.7,17.7z"/>
	</g>
	<g>
		<path class="st1" d="M21.6,14.6c0.2,0.1,0.4,0.3,0.6,0.4c0.2,0.1,0.3,0.2,0.5,0.3c0.4,0.2,0.8,0.4,1.3,0.4c0.1,0,0.3-0.1,0.4-0.2
			c0.1-0.1,0.2-0.2,0.2-0.4c0-0.1,0-0.3-0.2-0.4c-0.1-0.1-0.2-0.1-0.4-0.2c-0.1,0,0,0,0,0c0,0,0,0-0.1,0c0,0-0.1,0-0.1,0
			c-0.1,0-0.2-0.1-0.3-0.1c0,0,0,0-0.1,0c0,0,0,0,0,0c0,0-0.1,0-0.1,0c-0.1,0-0.2-0.1-0.2-0.1c-0.1-0.1-0.3-0.2-0.4-0.3
			c-0.1-0.1-0.1-0.1-0.2-0.1c0,0-0.1-0.1-0.1-0.1c0,0,0,0,0,0c0,0,0,0,0-0.1c-0.2-0.2-0.6-0.2-0.8,0C21.4,14.1,21.4,14.4,21.6,14.6
			L21.6,14.6z"/>
	</g>
	<g>
		<path class="st1" d="M21.5,17.9c0.2,0.4,0.6,0.7,1,0.9c0.5,0.2,1,0.3,1.6,0.2c0.3-0.1,0.5-0.4,0.4-0.7c-0.1-0.3-0.4-0.4-0.7-0.4
			c0,0-0.1,0-0.1,0c0,0,0.1,0,0,0c0,0,0,0-0.1,0c-0.1,0-0.2,0-0.3,0c-0.1,0,0,0,0,0c0,0,0,0-0.1,0c0,0-0.1,0-0.1,0c0,0-0.1,0-0.1,0
			c0,0,0,0-0.1,0c0,0,0.1,0.1,0,0c-0.1,0-0.1-0.1-0.2-0.1c0,0-0.1-0.1-0.1,0c0.1,0.1,0,0,0,0c-0.1-0.1-0.1-0.1-0.2-0.2
			c0,0-0.1-0.1,0,0c0,0.1,0,0,0,0c0,0,0-0.1-0.1-0.1c-0.1-0.2-0.5-0.4-0.7-0.2C21.4,17.3,21.3,17.7,21.5,17.9L21.5,17.9z"/>
	</g>
	<g>
		<path class="st4" d="M17.1,10.8c0.3,0,0.5-0.1,0.8-0.2c0.4-0.3,0.6-0.6,0.8-1.1c0.2-0.7,0.1-1.5-0.3-2.2c-0.5-0.8-1.2-1.4-1.3-2.2
			c-0.1,0.6-0.4,1.2-0.7,1.8c-0.2,0.4-0.6,0.9-0.7,1.3c-0.2,0.5-0.3,1,0,1.6c0.2,0.4,0.6,0.8,1.1,1C16.8,10.8,16.9,10.8,17.1,10.8z"
			/>
		<g>
			<path class="st1" d="M17.1,11.3c0.4,0,0.7-0.1,1-0.3c0.3-0.2,0.5-0.5,0.7-0.7c0.4-0.6,0.5-1.3,0.4-2S18.8,7,18.4,6.4
				c-0.3-0.4-0.8-0.8-0.8-1.4c0-0.3-0.2-0.5-0.5-0.5c-0.3,0-0.5,0.1-0.6,0.4c-0.2,0.7-0.4,1.3-0.8,1.9C15.4,7.4,15,8,14.9,8.7
				C14.7,10,15.8,11.4,17.1,11.3c0.7,0,0.7-1.1,0-1.1c-0.1,0-0.1,0-0.2,0c0,0-0.1,0,0,0c-0.1,0-0.1,0-0.2-0.1
				c-0.2-0.1-0.4-0.3-0.5-0.4c-0.3-0.4-0.3-0.9-0.1-1.3c0.2-0.5,0.6-1,0.8-1.5c0.3-0.5,0.5-1.1,0.6-1.7c-0.4-0.1-0.7-0.1-1.1-0.1
				c0.1,0.6,0.3,1,0.6,1.5c0.3,0.4,0.7,0.8,0.9,1.3c0.2,0.5,0.3,1,0.1,1.5c-0.2,0.4-0.5,0.8-1,0.8c-0.3,0-0.5,0.2-0.5,0.5
				C16.6,11,16.8,11.3,17.1,11.3z"/>
		</g>
	</g>
	<g>
		<path class="st4" d="M22.9,12.3c0.2,0,0.5-0.1,0.7-0.2c0.3-0.2,0.5-0.5,0.6-0.9c0.2-0.6,0.1-1.3-0.3-1.8c-0.4-0.6-1.1-1.2-1.1-1.9
			c-0.1,0.5-0.3,1-0.6,1.5c-0.2,0.4-0.5,0.7-0.6,1.1c-0.2,0.4-0.2,0.9,0,1.3C21.9,11.9,22.4,12.3,22.9,12.3z"/>
		<g>
			<path class="st1" d="M22.9,12.8c0.7,0,1.2-0.4,1.6-0.9c0.4-0.5,0.4-1.2,0.3-1.8c-0.1-0.6-0.4-1.1-0.8-1.5
				c-0.2-0.3-0.6-0.7-0.7-1.1c0-0.3-0.2-0.5-0.5-0.5c-0.3,0-0.5,0.1-0.6,0.4c-0.1,0.5-0.3,1-0.6,1.5c-0.3,0.5-0.6,1-0.7,1.7
				C20.8,11.7,21.7,12.8,22.9,12.8c0.7,0,0.7-1.1,0-1.1c-0.3,0-0.5-0.2-0.7-0.4c-0.2-0.3-0.2-0.7,0-1.1c0.2-0.4,0.5-0.8,0.7-1.2
				c0.2-0.4,0.4-0.9,0.5-1.4c-0.4-0.1-0.7-0.1-1.1-0.1c0.1,0.5,0.2,0.9,0.5,1.3c0.3,0.3,0.6,0.7,0.8,1.1c0.2,0.4,0.2,0.8,0.1,1.2
				c-0.1,0.3-0.4,0.7-0.8,0.7C22.2,11.8,22.2,12.9,22.9,12.8z"/>
		</g>
	</g>
</g>
</svg>
