<?xml version="1.0" encoding="utf-8"?>
<!-- Generator: Adobe Illustrator 25.4.1, SVG Export Plug-In . SVG Version: 6.00 Build 0)  -->
<svg version="1.1" id="레이어_1" xmlns="http://www.w3.org/2000/svg" xmlns:xlink="http://www.w3.org/1999/xlink" x="0px"
	 y="0px" viewBox="0 0 18.61 17.59" style="enable-background:new 0 0 18.61 17.59;" xml:space="preserve">
<style type="text/css">
	.st0{fill:#FFFFFF;}
	.st1{fill:#1E1E28;}
</style>
<g>
	<path class="st0" d="M5.51,14.63c0.01,0.23,0.08,0.58,0.17,0.76c0.24,0.48,0.65,0.75,1.21,0.94c0.56,0.18,1.14,0.27,1.67,0.13
		c0.49-0.13,0.93-0.53,1.1-0.97c0.19-0.48,0.27-1.07,0.1-1.58c-1.41,0.02-2.83,0.01-4.24,0C5.51,14.15,5.5,14.39,5.51,14.63z"/>
	<path class="st0" d="M10.99,5.51C10.51,4.48,9.47,3.9,8.4,3.66c-1.03-0.23-2.19-0.1-3.05,0.53C4.17,5.05,4,6.53,3.93,7.88
		c-0.06,1.02,0.09,2.81-0.92,3.45c-0.43,0.27-0.97,0.21-1.43,0.38c-0.25,0.09-0.36,0.14-0.45,0.38c-0.05,0.12-0.08,0.63,0.01,0.7
		c3.97,0,7.95,0.09,11.92-0.07c0.29-0.01,0.75,0.05,1.03-0.05c0.24-0.09,0.21-0.07,0.21-0.41c0-0.55-0.42-0.58-0.91-0.67
		c-0.42-0.08-0.85-0.07-1.17-0.39c-0.36-0.35-0.43-0.9-0.49-1.37C11.54,8.4,11.61,6.83,10.99,5.51z"/>
	<path class="st1" d="M15.19,11.37c-0.24-0.45-0.71-0.63-1.18-0.75c-0.26-0.07-0.66-0.04-0.89-0.16c-0.28-0.14-0.28-0.42-0.33-0.74
		c-0.23-1.65-0.14-3.44-0.96-4.95C11.2,3.62,9.94,2.89,8.68,2.62c-0.16-0.04-0.33-0.05-0.5-0.07C8.22,1.94,8.24,1.33,8.2,0.72
		C8.19,0.44,7.97,0.16,7.66,0.18C7.38,0.19,7.1,0.42,7.12,0.72c0.04,0.6,0.02,1.19-0.02,1.79C6.39,2.55,5.68,2.72,5.06,3.09
		C3.81,3.81,3.18,5.1,2.97,6.49C2.8,7.62,2.94,8.83,2.65,9.94c-0.09,0.36-0.15,0.47-0.51,0.56c-0.37,0.09-0.74,0.11-1.1,0.26
		c-0.61,0.24-0.93,0.7-1.01,1.34c-0.09,0.7-0.02,1.61,0.83,1.76c0.02,0,0.03,0,0.04,0c0.03,0.01,0.06,0.02,0.1,0.02
		c1.15,0,2.3,0.01,3.45,0.03c-0.05,0.62-0.03,1.26,0.21,1.84c0.33,0.79,0.97,1.28,1.76,1.58c1.5,0.56,3.41,0.35,4.17-1.25
		c0.31-0.66,0.43-1.44,0.29-2.17c1.02-0.03,2.03-0.07,3.05-0.14c0.47-0.03,0.93-0.1,1.22-0.52C15.47,12.75,15.46,11.88,15.19,11.37z
		 M9.67,15.49c-0.17,0.44-0.61,0.84-1.1,0.97c-0.53,0.14-1.12,0.05-1.67-0.13c-0.56-0.18-0.97-0.45-1.21-0.94
		c-0.09-0.18-0.16-0.53-0.17-0.76c-0.01-0.24,0-0.49,0.02-0.73c1.41,0.02,2.83,0.02,4.24,0C9.93,14.42,9.86,15,9.67,15.49z
		 M14.08,12.66c-0.28,0.1-0.73,0.04-1.03,0.05c-3.97,0.16-7.95,0.07-11.92,0.07c-0.09-0.06-0.06-0.57-0.01-0.7
		c0.09-0.24,0.21-0.29,0.45-0.38c0.47-0.17,1-0.11,1.43-0.38c1.01-0.64,0.86-2.43,0.92-3.45C4,6.53,4.17,5.05,5.34,4.19
		C6.21,3.56,7.37,3.43,8.4,3.66c1.08,0.24,2.11,0.82,2.59,1.85c0.62,1.33,0.55,2.9,0.73,4.32c0.06,0.47,0.13,1.02,0.49,1.37
		c0.33,0.32,0.76,0.31,1.17,0.39c0.49,0.09,0.9,0.12,0.91,0.67C14.29,12.59,14.32,12.58,14.08,12.66z"/>
	<g>
		<g>
			<path class="st1" d="M13.4,3.17c0.06,0.04,0.12,0.09,0.18,0.13c0.08,0.06-0.06-0.05-0.01-0.01c0.02,0.02,0.04,0.04,0.07,0.05
				c0.09,0.07,0.17,0.15,0.25,0.23c0.04,0.04,0.08,0.08,0.12,0.13c0.01,0.02,0.03,0.04,0.04,0.05c0.04,0.05-0.08-0.11-0.03-0.04
				c0.06,0.08,0.11,0.16,0.16,0.24c0.04,0.08,0.08,0.15,0.12,0.23c0.03,0.06-0.05-0.13-0.02-0.06c0.01,0.02,0.02,0.04,0.02,0.06
				c0.01,0.04,0.03,0.08,0.04,0.11c0.05,0.15,0.09,0.31,0.12,0.47c0.06,0.28,0.4,0.46,0.67,0.38c0.29-0.09,0.44-0.37,0.38-0.67
				c-0.08-0.38-0.2-0.76-0.4-1.1c-0.28-0.48-0.7-0.85-1.16-1.16c-0.23-0.16-0.61-0.05-0.74,0.19C13.06,2.71,13.15,3,13.4,3.17
				L13.4,3.17z"/>
		</g>
	</g>
	<g>
		<g>
			<path class="st1" d="M15.62,0.92c0.22,0.18,0.44,0.36,0.65,0.55c0.1,0.09,0.21,0.19,0.3,0.29c0.05,0.05,0.1,0.11,0.15,0.17
				c0.02,0.03,0.04,0.05,0.06,0.08c-0.05-0.06,0,0.01,0.02,0.03c0.17,0.24,0.31,0.49,0.44,0.76c0.01,0.03,0.03,0.06,0.04,0.09
				c0,0.01,0.04,0.1,0.02,0.05c-0.02-0.06,0.03,0.07,0.03,0.08c0.01,0.03,0.03,0.06,0.04,0.1c0.05,0.14,0.1,0.29,0.15,0.44
				c0.09,0.27,0.38,0.47,0.67,0.38c0.27-0.09,0.47-0.38,0.38-0.67c-0.2-0.62-0.45-1.24-0.83-1.78c-0.38-0.53-0.87-0.93-1.36-1.35
				c-0.22-0.18-0.56-0.23-0.77,0C15.44,0.36,15.39,0.72,15.62,0.92L15.62,0.92z"/>
		</g>
	</g>
	<g>
		<g>
			<path class="st1" d="M1.28,4.47c0.08-0.25,0.17-0.5,0.26-0.74C1.55,3.7,1.56,3.67,1.58,3.64c-0.03,0.06-0.03,0.07,0,0
				C1.6,3.58,1.63,3.52,1.66,3.46C1.72,3.34,1.78,3.22,1.85,3.1c0.07-0.11,0.14-0.23,0.22-0.33C2.08,2.75,2.14,2.66,2.1,2.72
				C2.05,2.79,2.12,2.7,2.13,2.68c0.04-0.05,0.09-0.1,0.13-0.15c0.1-0.11,0.2-0.21,0.31-0.3c0.02-0.02,0.1-0.08,0.01-0.01
				C2.61,2.2,2.64,2.18,2.67,2.16c0.07-0.05,0.13-0.09,0.2-0.13c0.24-0.15,0.35-0.49,0.19-0.74C2.91,1.05,2.58,0.94,2.32,1.1
				C1.75,1.45,1.28,1.94,0.94,2.52c-0.31,0.52-0.52,1.09-0.7,1.66c-0.09,0.27,0.1,0.6,0.38,0.67C0.91,4.91,1.18,4.75,1.28,4.47
				L1.28,4.47z"/>
		</g>
	</g>
</g>
</svg>
