<?xml version="1.0" encoding="utf-8"?>
<!-- Generator: Adobe Illustrator 25.1.0, SVG Export Plug-In . SVG Version: 6.00 Build 0)  -->
<svg version="1.1" id="Layer_1" xmlns="http://www.w3.org/2000/svg" xmlns:xlink="http://www.w3.org/1999/xlink" x="0px" y="0px"
	 viewBox="0 0 30 30" style="enable-background:new 0 0 30 30;" xml:space="preserve">
<style type="text/css">
	.st0{fill:none;stroke:#ffffff;stroke-width:0.9173;stroke-miterlimit:10;}
</style>
<g>
	<path class="st0" d="M26.47,21.45h2.07c0.44,0,0.8-0.36,0.8-0.8v-6.18c0-0.13-0.03-0.25-0.09-0.36l-2.64-5.13
		c-0.14-0.27-0.41-0.43-0.71-0.43h-8.75v12.9"/>
	<polygon class="st0" points="27.15,15 25.01,10.7 20.02,10.7 20.02,15 	"/>
	<polyline class="st0" points="9.27,21.45 17.53,21.45 20.02,21.45 	"/>
	<path class="st0" d="M3.53,21.45H0.67V6.84c0-0.64,0.52-1.15,1.15-1.15H16c0.64,0,1.15,0.52,1.15,1.15v2.91"/>
	<line class="st0" x1="9.98" y1="18.58" x2="17.15" y2="18.58"/>
	<line class="st0" x1="0.67" y1="18.58" x2="2.1" y2="18.58"/>
	<circle class="st0" cx="6.4" cy="21.45" r="2.87"/>
	<circle class="st0" cx="23.6" cy="21.45" r="2.87"/>
</g>
</svg>
