<?xml version="1.0" encoding="utf-8"?>
<!-- Generator: Adobe Illustrator 25.4.1, SVG Export Plug-In . SVG Version: 6.00 Build 0)  -->
<svg version="1.1" id="레이어_1" xmlns="http://www.w3.org/2000/svg" xmlns:xlink="http://www.w3.org/1999/xlink" x="0px"
	 y="0px" viewBox="0 0 44.96 32.44" style="enable-background:new 0 0 44.96 32.44;" xml:space="preserve">
<g>
	<g>
		<path d="M4.34,23.95c0,0.58,0.06,1.11,0.18,1.61c0.12,0.5,0.31,0.94,0.56,1.35c0.28,0.47,0.62,0.9,1.02,1.27
			c0.4,0.38,0.86,0.72,1.39,1.02c-0.15,0.12-0.3,0.25-0.44,0.39c-0.15,0.14-0.27,0.27-0.37,0.37c-0.27-0.19-0.55-0.39-0.82-0.63
			s-0.53-0.49-0.77-0.77c-0.28-0.3-0.52-0.62-0.75-0.97c-0.22-0.35-0.4-0.71-0.53-1.09c-0.1,0.34-0.25,0.68-0.45,1.03
			c-0.2,0.36-0.43,0.7-0.68,1.02c-0.28,0.35-0.56,0.66-0.86,0.95c-0.3,0.29-0.6,0.53-0.88,0.72c-0.11-0.1-0.25-0.21-0.43-0.35
			C0.33,29.75,0.16,29.63,0,29.54c0.53-0.33,1-0.7,1.41-1.11s0.75-0.86,1.03-1.35c0.27-0.48,0.47-0.99,0.61-1.55
			c0.14-0.55,0.21-1.13,0.21-1.75v-0.77c0-0.23,0-0.44-0.01-0.64c-0.01-0.2-0.03-0.42-0.05-0.64h1.21
			c-0.03,0.22-0.04,0.44-0.05,0.64c-0.01,0.2-0.02,0.41-0.02,0.64V23.95z M10.15,25.57c0.15,0,0.31,0,0.47-0.01
			c0.17-0.01,0.32-0.02,0.48-0.04v1.04c-0.15-0.02-0.31-0.04-0.48-0.04c-0.17-0.01-0.33-0.01-0.47-0.01H9.44v4.23
			c0,0.28,0.01,0.56,0.01,0.85c0,0.28,0.02,0.55,0.04,0.83H8.31c0.03-0.28,0.04-0.55,0.05-0.83c0.01-0.28,0.01-0.56,0.01-0.85v-7.82
			c0-0.27-0.01-0.55-0.01-0.83c-0.01-0.28-0.03-0.56-0.05-0.85h1.18c-0.03,0.28-0.04,0.56-0.04,0.85c-0.01,0.28-0.01,0.56-0.01,0.83
			v2.65H10.15z"/>
		<path d="M13.52,22.65c-0.18,0-0.33,0-0.47,0.01s-0.29,0.02-0.47,0.04v-0.99c0.18,0.03,0.33,0.04,0.47,0.04
			c0.14,0.01,0.29,0.01,0.47,0.01h3.91c0.17,0,0.32,0,0.46-0.01c0.14-0.01,0.3-0.02,0.47-0.04v0.99c-0.18-0.03-0.33-0.04-0.47-0.04
			s-0.3-0.01-0.46-0.01H16v0.48c0,0.41,0.07,0.79,0.22,1.13c0.15,0.35,0.35,0.67,0.6,0.97c0.3,0.37,0.66,0.69,1.06,0.95
			c0.4,0.25,0.82,0.45,1.25,0.58c-0.13,0.13-0.27,0.26-0.4,0.41c-0.13,0.14-0.25,0.27-0.32,0.37c-0.25-0.1-0.51-0.23-0.78-0.4
			c-0.27-0.17-0.54-0.37-0.82-0.59c-0.25-0.19-0.5-0.42-0.74-0.68c-0.24-0.27-0.44-0.55-0.61-0.87c-0.13,0.32-0.29,0.63-0.48,0.91
			c-0.2,0.28-0.42,0.53-0.66,0.76c-0.28,0.25-0.56,0.48-0.85,0.68c-0.29,0.2-0.6,0.38-0.93,0.53c-0.09-0.09-0.22-0.21-0.39-0.34
			c-0.18-0.14-0.33-0.26-0.47-0.36c0.51-0.21,0.97-0.46,1.4-0.76s0.8-0.64,1.1-1.05c0.25-0.32,0.43-0.67,0.56-1.03
			c0.13-0.36,0.2-0.76,0.2-1.2v-0.47H13.52z M13.98,29.52c0-0.15,0-0.31-0.01-0.47c-0.01-0.17-0.02-0.33-0.04-0.48h1.18
			c-0.02,0.15-0.04,0.31-0.04,0.47c-0.01,0.16-0.01,0.31-0.01,0.45v1.78h4.76c0.32,0,0.64,0,0.94-0.01c0.3-0.01,0.62-0.02,0.94-0.05
			v1.01c-0.32-0.03-0.64-0.04-0.94-0.04c-0.3-0.01-0.61-0.01-0.94-0.01h-5.84V29.52z M21.39,28.82c0.01,0.21,0.02,0.42,0.04,0.63
			h-1.17c0.03-0.21,0.04-0.42,0.05-0.63c0.01-0.21,0.01-0.42,0.01-0.64v-5.67c0-0.21-0.01-0.42-0.01-0.63
			c-0.01-0.21-0.03-0.42-0.05-0.64h1.17c-0.02,0.22-0.04,0.43-0.04,0.64s-0.01,0.42-0.01,0.63v5.67
			C21.39,28.4,21.39,28.61,21.39,28.82z"/>
		<path d="M28.79,31.19c0,0.19,0,0.39,0.01,0.62c0.01,0.22,0.02,0.43,0.04,0.6h-1.18c0.03-0.19,0.04-0.39,0.04-0.6
			c0.01-0.21,0.01-0.42,0.01-0.62v-2.38H24.9c-0.33,0-0.65,0-0.96,0.01c-0.31,0.01-0.63,0.02-0.96,0.04v-0.99
			c0.33,0.03,0.65,0.04,0.96,0.05c0.31,0,0.63,0.01,0.96,0.01h6.61c0.32,0,0.64-0.01,0.96-0.01c0.31-0.01,0.63-0.02,0.96-0.05v0.99
			c-0.32-0.02-0.64-0.04-0.96-0.04c-0.31-0.01-0.63-0.01-0.96-0.01h-2.72V31.19z M24.74,24.07c-0.18,0.01-0.38,0.02-0.6,0.04v-0.98
			c0.22,0.03,0.42,0.04,0.6,0.05c0.18,0,0.38,0.01,0.61,0.01h5.7c0.22,0,0.42-0.01,0.6-0.01c0.18-0.01,0.38-0.02,0.61-0.05v0.99
			c-0.23-0.02-0.43-0.04-0.61-0.04c-0.18-0.01-0.38-0.01-0.6-0.01l-2.23-0.01c0.07,0.32,0.24,0.6,0.5,0.83
			c0.25,0.23,0.56,0.43,0.93,0.6c0.38,0.18,0.79,0.32,1.25,0.43c0.46,0.12,0.91,0.2,1.36,0.26c-0.07,0.07-0.13,0.15-0.2,0.22
			c-0.06,0.07-0.12,0.14-0.18,0.22c-0.06,0.07-0.11,0.13-0.17,0.2c-0.05,0.06-0.11,0.13-0.15,0.19c-0.13-0.03-0.28-0.05-0.44-0.09
			c-0.16-0.04-0.33-0.07-0.51-0.13c-0.18-0.04-0.36-0.09-0.54-0.15c-0.19-0.06-0.37-0.13-0.56-0.2c-0.38-0.14-0.73-0.32-1.06-0.53
			c-0.33-0.21-0.61-0.48-0.84-0.79c-0.21,0.27-0.45,0.51-0.74,0.72c-0.29,0.2-0.6,0.38-0.93,0.52c-0.35,0.15-0.72,0.28-1.1,0.38
			c-0.38,0.1-0.78,0.19-1.18,0.27c-0.09-0.1-0.2-0.23-0.33-0.39c-0.13-0.17-0.27-0.31-0.41-0.45c0.49-0.06,0.97-0.15,1.43-0.27
			c0.46-0.11,0.88-0.26,1.26-0.44c0.35-0.15,0.65-0.35,0.9-0.58c0.25-0.23,0.41-0.51,0.48-0.82h-2.25
			C25.13,24.07,24.92,24.07,24.74,24.07z M27.02,22.16c-0.09,0-0.17,0-0.25,0s-0.16,0-0.23,0c-0.08,0-0.17,0-0.25,0.01
			c-0.08,0.01-0.16,0.01-0.25,0.02v-0.92c0.18,0.02,0.34,0.03,0.49,0.03c0.15,0,0.31,0,0.48,0h2.34c0.16,0,0.31,0,0.47,0
			c0.16,0,0.32-0.01,0.5-0.03v0.92c-0.18-0.01-0.34-0.01-0.5-0.02c-0.15-0.01-0.31-0.01-0.47-0.01H27.02z"/>
		<path d="M35.66,22.85c-0.18,0.01-0.36,0.02-0.56,0.05v-1.01c0.2,0.03,0.38,0.04,0.56,0.04c0.17,0.01,0.36,0.01,0.57,0.01h3.99
			c-0.04,0.83-0.17,1.61-0.36,2.37c-0.2,0.75-0.48,1.45-0.85,2.13c-0.4,0.74-0.91,1.42-1.52,2.05c-0.61,0.62-1.33,1.19-2.15,1.68
			c-0.1-0.09-0.25-0.21-0.45-0.36s-0.36-0.27-0.49-0.35c0.79-0.4,1.48-0.87,2.07-1.41c0.59-0.53,1.08-1.12,1.47-1.77
			c0.3-0.5,0.54-1.04,0.73-1.62c0.19-0.58,0.3-1.18,0.36-1.81h-2.81C36.03,22.85,35.83,22.85,35.66,22.85z M44,25.78
			c0.15,0,0.31,0,0.47-0.01c0.17-0.01,0.32-0.02,0.48-0.04v1.04c-0.15-0.02-0.31-0.04-0.48-0.04c-0.17-0.01-0.33-0.01-0.47-0.01
			h-0.72v4.03c0,0.28,0.01,0.56,0.01,0.85c0,0.28,0.02,0.56,0.04,0.84h-1.18c0.03-0.28,0.04-0.55,0.05-0.84
			c0.01-0.28,0.01-0.56,0.01-0.85v-7.83c0-0.27-0.01-0.55-0.01-0.83c-0.01-0.28-0.03-0.56-0.05-0.85h1.18
			c-0.03,0.28-0.04,0.56-0.04,0.85c-0.01,0.28-0.01,0.56-0.01,0.83v2.86H44z"/>
	</g>
	<g>
		<g>
			<g>
				<path d="M13.32,4.37c0,2.61,0.05,5.22,0.08,7.83c0.01,0.96-0.07,2.07,0.55,2.89c0.59,0.78,1.55,0.85,2.45,0.85
					c2.7-0.01,5.4-0.09,8.1-0.14c1.24-0.02,2.48-0.04,3.71-0.07c0.94-0.02,2.33,0.2,3.08-0.56c0.63-0.64,0.48-1.7,0.49-2.51
					c0.02-1.06,0.04-2.13,0.05-3.19C31.85,7.79,32,6,31.79,4.32C31.5,2,29.06,3.01,27.51,2.59c-1.16-0.31-0.8-1.55-1.61-2.2
					c-0.74-0.6-2.12-0.33-2.99-0.33c-0.98-0.01-2.4-0.28-3.19,0.47c-0.34,0.32-0.5,0.76-0.66,1.18c-0.3,0.78-0.58,1.12-1.47,1.16
					C16.18,2.94,13.54,2.35,13.32,4.37c-0.08,0.7,1.02,0.69,1.09,0c0.07-0.63,1.48-0.39,1.87-0.39c0.74,0,1.57,0.07,2.28-0.15
					c0.65-0.2,1.07-0.67,1.33-1.28c0.11-0.25,0.17-0.53,0.29-0.77c0.35-0.73,0.92-0.65,1.64-0.65c0.92,0.01,2.05-0.16,2.95,0.02
					c0.64,0.13,0.63,0.52,0.82,1.05c0.13,0.35,0.28,0.64,0.56,0.89c0.46,0.41,1.08,0.59,1.68,0.64c0.7,0.06,2.43-0.33,2.81,0.38
					c0.21,0.39,0.08,1.05,0.08,1.48c0,0.93,0.03,1.85,0.02,2.78c0,1.54-0.04,3.07-0.06,4.6c-0.01,0.59,0.16,1.33-0.54,1.59
					c-0.4,0.15-1,0.05-1.42,0.06c-1.13,0.02-2.25,0.04-3.38,0.06c-2.14,0.04-4.27,0.08-6.41,0.11c-1.09,0.02-2.42,0.24-3.48-0.01
					c-1.29-0.3-0.96-2.27-0.97-3.26c-0.03-2.39-0.07-4.78-0.07-7.17C14.41,3.67,13.32,3.67,13.32,4.37z"/>
			</g>
		</g>
		<g>
			<g>
				<path d="M22.45,5.1c-1.52,0.27-3.23,1.14-3.63,2.77c-0.38,1.55,0.47,3.12,1.84,3.85c1.33,0.71,3.08,0.8,4.4,0.04
					c1.34-0.77,1.85-2.34,1.48-3.81c-0.21-0.83-0.7-1.6-1.37-2.13c-0.37-0.29-0.78-0.54-1.23-0.68C23.44,4.99,22.95,5.02,22.45,5.1
					c-0.29,0.04-0.45,0.41-0.38,0.67c0.09,0.31,0.38,0.42,0.67,0.38c2.26-0.34,3.98,3.19,1.95,4.55c-1.74,1.17-5.05,0.18-4.87-2.25
					c0.11-1.43,1.7-2.08,2.92-2.3c0.29-0.05,0.45-0.41,0.38-0.67C23.03,5.17,22.74,5.04,22.45,5.1z"/>
			</g>
		</g>
	</g>
</g>
</svg>
