<?xml version="1.0" encoding="utf-8"?>
<!-- Generator: Adobe Illustrator 25.4.1, SVG Export Plug-In . SVG Version: 6.00 Build 0)  -->
<svg version="1.1" id="레이어_1" xmlns="http://www.w3.org/2000/svg" xmlns:xlink="http://www.w3.org/1999/xlink" x="0px"
	 y="0px" viewBox="0 0 14.44 16.64" style="enable-background:new 0 0 14.44 16.64;" xml:space="preserve">
<style type="text/css">
	.st0{fill:#1E1E28;}
	.st1{fill:#FFFFFF;}
</style>
<g>
	<g>
		<g>
			<path class="st0" d="M1.81,3.24c0.49-0.24,1.35,0,1.88,0.05c0.74,0.06,1.48,0.11,2.21,0.15c1.52,0.09,3.04,0.2,4.56,0.3
				C10.31,3.47,10.16,3.2,10,2.93C9.26,4.34,9.5,5.86,9.96,7.32c0.57,1.81,0.71,3.57,0.29,5.43c-0.17,0.76-0.37,1.8-0.83,2.45
				c-0.32,0.45-0.89,0.31-1.38,0.28c-0.48-0.02-0.97-0.05-1.45-0.08c-2.02-0.12-4.04-0.28-6.05-0.48c0.16,0.27,0.31,0.54,0.47,0.81
				c1.01-1.81,1.56-3.86,1.53-5.95c-0.01-1.05-0.2-2.06-0.45-3.07C1.88,5.9,1.11,3.79,1.92,3.15c0.54-0.43-0.23-1.2-0.77-0.77
				C0.33,3.05,0.5,4.27,0.65,5.19c0.18,1.16,0.58,2.28,0.73,3.45c0.28,2.26-0.19,4.56-1.3,6.55c-0.21,0.38,0.06,0.78,0.47,0.81
				c2.14,0.21,4.29,0.38,6.44,0.5c0.85,0.05,2.08,0.35,2.84-0.15c0.61-0.41,0.86-1.3,1.08-1.95c0.59-1.72,0.85-3.58,0.58-5.39
				C11.23,7.2,10,5.27,10.93,3.47c0.2-0.38-0.05-0.79-0.47-0.81C8.81,2.54,7.14,2.43,5.48,2.33c-0.8-0.05-1.61-0.11-2.41-0.18
				C2.43,2.09,1.86,2.01,1.27,2.3C0.64,2.61,1.19,3.54,1.81,3.24z"/>
		</g>
	</g>
	<g>
		<g>
			<path class="st1" d="M4,0.72c0.35-0.25,0.87-0.18,1.27-0.17C5.69,0.57,6.11,0.59,6.53,0.6c0.51,0.01,1.03,0.02,1.54,0.03
				c0.2,0,0.4,0.01,0.61,0.01c1.42,0.02,2.84,0.04,4.26,0.07c-0.37,0.73-0.41,1.9-0.21,2.69s0.55,1.54,0.78,2.32
				c0.69,2.25,0.41,4.72-0.4,6.94c-0.12,0.34-0.28,0.71-0.61,0.87c-0.21,0.11-0.46,0.11-0.7,0.11c-2.73,0.01-5.45-0.05-8.18-0.18
				C4.89,11,5.17,8.06,4.41,5.41C4.16,4.53,3.86,3.67,3.7,2.77C3.63,2.39,3.56,2,3.59,1.61c0.01-0.16,0.04-0.33,0.1-0.48
				C3.77,0.95,3.87,0.81,4,0.72z"/>
		</g>
		<g>
			<g>
				<path class="st0" d="M4.28,1.19c0.51-0.28,1.44-0.07,2-0.06c0.73,0.02,1.46,0.03,2.2,0.04c1.49,0.02,2.98,0.04,4.47,0.07
					c-0.16-0.27-0.31-0.54-0.47-0.81c-0.65,1.41-0.4,2.87,0.11,4.27c0.68,1.86,0.96,3.67,0.6,5.64c-0.08,0.43-0.18,0.85-0.3,1.27
					c-0.12,0.4-0.21,0.94-0.47,1.27c-0.28,0.35-0.98,0.22-1.37,0.22c-0.47,0-0.94,0-1.41-0.01c-2-0.02-4-0.08-6-0.17
					c0.16,0.27,0.31,0.54,0.47,0.81c0.94-1.9,1.39-4.01,1.23-6.12C5.26,6.56,5.02,5.56,4.72,4.55C4.55,4,4.38,3.44,4.27,2.87
					C4.16,2.35,3.92,1.52,4.39,1.11c0.52-0.46-0.24-1.22-0.77-0.77c-0.74,0.65-0.6,1.7-0.44,2.57C3.4,4.11,3.86,5.23,4.1,6.42
					c0.45,2.28,0.1,4.68-0.93,6.76C2.99,13.56,3.21,13.98,3.64,14c2.13,0.1,4.26,0.16,6.39,0.18c0.82,0.01,2.01,0.22,2.76-0.18
					c0.69-0.38,0.91-1.29,1.11-1.98c0.54-1.82,0.72-3.77,0.34-5.64c-0.35-1.74-1.66-3.58-0.83-5.39c0.17-0.37-0.03-0.81-0.47-0.81
					c-1.62-0.03-3.25-0.06-4.87-0.08C7.26,0.08,6.46,0.06,5.65,0.03C4.98,0,4.34-0.08,3.73,0.26C3.12,0.59,3.67,1.53,4.28,1.19z"/>
			</g>
		</g>
	</g>
	<g>
		<g>
			<path class="st0" d="M6.26,3.57c1.48,0.05,2.95,0.02,4.43-0.1c0.29-0.02,0.54-0.23,0.54-0.54c0-0.28-0.25-0.56-0.54-0.54
				c-1.47,0.11-2.95,0.15-4.43,0.1C5.56,2.47,5.56,3.55,6.26,3.57L6.26,3.57z"/>
		</g>
	</g>
	<g>
		<g>
			<path class="st0" d="M6.76,5.89c1.43-0.01,2.86-0.02,4.3-0.04c0.7-0.01,0.7-1.09,0-1.08C9.63,4.78,8.19,4.8,6.76,4.81
				C6.07,4.81,6.06,5.9,6.76,5.89L6.76,5.89z"/>
		</g>
	</g>
	<g>
		<g>
			<path class="st0" d="M7,8.3c0.71,0.01,1.42,0.02,2.13,0.03c0.28,0,0.55-0.25,0.54-0.54c-0.01-0.3-0.24-0.54-0.54-0.54
				C8.42,7.23,7.71,7.22,7,7.21c-0.28,0-0.55,0.25-0.54,0.54C6.47,8.05,6.7,8.29,7,8.3L7,8.3z"/>
		</g>
	</g>
</g>
</svg>
