<?xml version="1.0" encoding="utf-8"?>
<!-- Generator: Adobe Illustrator 26.0.1, SVG Export Plug-In . SVG Version: 6.00 Build 0)  -->
<svg version="1.1" id="레이어_1" xmlns="http://www.w3.org/2000/svg" xmlns:xlink="http://www.w3.org/1999/xlink" x="0px"
	 y="0px" viewBox="0 0 9.19 11.17" style="enable-background:new 0 0 9.19 11.17;" xml:space="preserve">
<style type="text/css">
	.st0{fill:#282828;}
</style>
<path class="st0" d="M8.51,5.89c-0.38,0-0.68,0.31-0.68,0.68c0,1.78-1.45,3.23-3.23,3.23c-1.78,0-3.23-1.45-3.23-3.23
	S2.81,3.34,4.6,3.34h1.25L4.8,4.39c-0.27,0.27-0.27,0.7,0,0.96c0.13,0.13,0.31,0.2,0.48,0.2c0.17,0,0.35-0.07,0.48-0.2l2.7-2.7
	L6.01,0.2c-0.27-0.27-0.7-0.27-0.96,0c-0.27,0.27-0.27,0.7,0,0.96l0.81,0.81H4.6C2.06,1.98,0,4.04,0,6.57c0,2.54,2.06,4.6,4.6,4.6
	c2.53,0,4.6-2.06,4.6-4.6C9.19,6.2,8.89,5.89,8.51,5.89z"/>
</svg>
