<?xml version="1.0" encoding="utf-8"?>
<!-- Generator: Adobe Illustrator 26.0.2, SVG Export Plug-In . SVG Version: 6.00 Build 0)  -->
<svg version="1.1" id="레이어_1" xmlns="http://www.w3.org/2000/svg" xmlns:xlink="http://www.w3.org/1999/xlink" x="0px"
	 y="0px" viewBox="0 0 26.6 26.6" style="enable-background:new 0 0 26.6 26.6;" xml:space="preserve">
<style type="text/css">
	.st0{fill:#FFFFFF;}
	.st1{fill:#C8C8C8;}
	.st2{fill:#282828;}
</style>
<g>
	<g>
		<circle class="st0" cx="13.3" cy="13.3" r="13"/>
		<path class="st1" d="M13.3,26.6C6,26.6,0,20.7,0,13.3S6,0,13.3,0s13.3,6,13.3,13.3S20.7,26.6,13.3,26.6z M13.3,0.5
			c-7,0-12.8,5.7-12.8,12.8s5.7,12.8,12.8,12.8s12.8-5.7,12.8-12.8S20.4,0.5,13.3,0.5z"/>
	</g>
	<g>
		<g>
			<path class="st2" d="M13.3,19.1c-3.1,0-5.6-2.5-5.6-5.6s2.5-5.6,5.6-5.6h3c0.4,0,0.7,0.3,0.7,0.7c0,0.4-0.3,0.7-0.7,0.7h-3
				c-2.3,0-4.2,1.9-4.2,4.2c0,2.3,1.9,4.2,4.2,4.2c2.3,0,4.2-1.9,4.2-4.2c0-0.4,0.3-0.7,0.7-0.7c0.4,0,0.7,0.3,0.7,0.7
				C18.9,16.5,16.4,19.1,13.3,19.1z"/>
		</g>
		<g>
			<path class="st2" d="M15,10.7c-0.2,0-0.4-0.1-0.5-0.2c-0.3-0.3-0.3-0.7,0-1l1-1l-1-1c-0.3-0.3-0.3-0.7,0-1c0.3-0.3,0.7-0.3,1,0
				l2,2l-2,2C15.4,10.7,15.2,10.7,15,10.7z"/>
		</g>
	</g>
</g>
</svg>
