<?xml version="1.0" encoding="utf-8"?>
<!-- Generator: Adobe Illustrator 25.4.1, SVG Export Plug-In . SVG Version: 6.00 Build 0)  -->
<svg version="1.1" id="레이어_1" xmlns="http://www.w3.org/2000/svg" xmlns:xlink="http://www.w3.org/1999/xlink" x="0px"
	 y="0px" viewBox="0 0 124.91 125.19" style="enable-background:new 0 0 124.91 125.19;" xml:space="preserve">
<style type="text/css">
	.st0{fill:#FFE3E3;}
	.st1{fill:#717071;}
</style>
<g>
	<g>
		<path class="st0" d="M54.21,86.26c1.1-0.51,1.5-0.72,2.6-1.24c0.47-0.22,1.14-0.53,1.18-1.12c0.02-0.29-0.21-0.52-0.68-0.74
			c-0.34-0.16-0.7-0.32-1.04-0.47c-0.77-0.36-1.54-0.72-2.33-1.05c-22.27-9.19-19.06-36.9,2.18-44.12
			c17.12-5.82,34.28,10.85,30.23,27.33c-2.42,9.85-6.92,13.97-13.84,17.94c-0.5,0.29-0.61,1.06-0.08,1.29
			c11.72,5.32,14.7,9.38,20.06,17.14c1.74,2.52,4.65,8.02,6.54,11.92c15.66-11.35,25.89-29.74,25.89-50.56
			c0-0.09-0.01-0.18-0.01-0.28c-0.01-2.09-0.11-4.15-0.32-6.18c-0.08-0.73-0.23-1.44-0.33-2.17c-0.19-1.38-0.36-2.76-0.64-4.1
			c-0.17-0.84-0.43-1.64-0.63-2.46c-0.3-1.2-0.57-2.41-0.94-3.59c-0.27-0.86-0.62-1.68-0.92-2.52c-0.4-1.1-0.77-2.21-1.23-3.27
			c-0.36-0.85-0.8-1.65-1.2-2.48c-0.49-1.01-0.95-2.04-1.5-3.02c-0.45-0.81-0.96-1.59-1.44-2.38c-0.58-0.94-1.13-1.9-1.76-2.81
			c-0.53-0.77-1.11-1.49-1.67-2.23c-0.66-0.87-1.3-1.76-2-2.6c-0.6-0.72-1.26-1.39-1.9-2.09c-0.73-0.8-1.45-1.6-2.22-2.36
			c-0.68-0.66-1.4-1.28-2.1-1.91c-0.8-0.72-1.59-1.45-2.43-2.12c-0.74-0.6-1.52-1.14-2.28-1.71c-0.87-0.64-1.72-1.28-2.62-1.87
			c-0.8-0.53-1.63-1-2.45-1.49c-0.92-0.55-1.84-1.11-2.8-1.61c-0.85-0.45-1.74-0.85-2.61-1.26c-0.97-0.46-1.95-0.92-2.95-1.32
			c-0.91-0.37-1.84-0.69-2.77-1.01c-1.02-0.36-2.03-0.72-3.07-1.02c-0.95-0.28-1.93-0.51-2.9-0.75c-1.06-0.26-2.11-0.51-3.19-0.71
			c-0.99-0.19-2-0.32-3-0.46c-1.09-0.15-2.19-0.3-3.3-0.39c-1.02-0.09-2.06-0.12-3.1-0.16c-1.13-0.04-2.25-0.07-3.4-0.05
			c-1.1,0.02-2.18,0.09-3.27,0.16c-0.99,0.07-1.98,0.14-2.95,0.26c-0.9,0.11-1.79,0.26-2.69,0.41c-1.23,0.21-2.46,0.41-3.67,0.69
			c-0.41,0.09-0.8,0.21-1.21,0.31C25.23,7.66,7.46,25.46,1.87,47.67c-0.09,0.37-0.2,0.73-0.28,1.1C1.3,50,1.1,51.25,0.89,52.5
			c-0.14,0.88-0.3,1.75-0.4,2.64c-0.12,0.98-0.19,1.98-0.26,2.97c-0.07,1-0.13,2.01-0.15,3.02c-0.05,2.4,0,4.77,0.21,7.1
			c0.02,0.2,0.01,0.4,0.03,0.59c0.25,2.54,0.69,5.03,1.24,7.47c0.14,0.63,0.32,1.24,0.48,1.86c0.49,1.9,1.06,3.77,1.72,5.6
			c0.2,0.56,0.4,1.12,0.61,1.67c1.87,4.73,4.28,9.19,7.19,13.27c0.15,0.2,0.3,0.4,0.45,0.6c1.41,1.93,2.92,3.77,4.53,5.52
			c0.13,0.14,0.26,0.29,0.4,0.44c3.59,3.82,7.65,7.2,12.1,10.03c0,0,0,0,0,0C34.5,103.82,43.78,91.07,54.21,86.26z"/>
	</g>
	<g>
		<path class="st1" d="M62.45,125.19c-34.51,0-62.59-28.08-62.59-62.6S27.94,0,62.45,0s62.59,28.08,62.59,62.59
			S96.97,125.19,62.45,125.19z M62.45,0.28c-34.36,0-62.32,27.95-62.32,62.31c0,34.36,27.96,62.32,62.32,62.32
			s62.32-27.95,62.32-62.32C124.77,28.23,96.82,0.28,62.45,0.28z"/>
	</g>
</g>
</svg>
