<?xml version="1.0" encoding="utf-8"?>
<!-- Generator: Adobe Illustrator 25.4.1, SVG Export Plug-In . SVG Version: 6.00 Build 0)  -->
<svg version="1.1" id="레이어_1" xmlns="http://www.w3.org/2000/svg" xmlns:xlink="http://www.w3.org/1999/xlink" x="0px"
	 y="0px" viewBox="0 0 266.26 36.09" style="enable-background:new 0 0 266.26 36.09;" xml:space="preserve">
<style type="text/css">
	.st0{fill:#E61E6E;}
</style>
<g>
	<path class="st0" d="M135.17,36.09l-4.72-6.8H14.64C6.57,29.29,0,22.72,0,14.64S6.57,0,14.64,0h236.97
		c8.07,0,14.64,6.57,14.64,14.64s-6.57,14.64-14.64,14.64H139.89L135.17,36.09z M14.64,1.09c-7.47,0-13.56,6.08-13.56,13.55
		S7.17,28.2,14.64,28.2h116.39l4.14,5.98l4.14-5.98h112.3c7.47,0,13.55-6.08,13.55-13.55s-6.08-13.55-13.55-13.55H14.64z"/>
</g>
</svg>
